<svg xmlns="http://www.w3.org/2000/svg" width="22" height="22" viewBox="0 0 512 512"><path d="M460.475 408.443L351.4 299.37c15.95-25.137 25.2-54.923 25.2-86.833C376.6 122.914 303.687 50 214.062 50 124.44 50 51.525 122.914 51.525 212.537s72.914 162.537 162.537 162.537c30.326 0 58.733-8.356 83.055-22.876L406.917 462l53.558-53.557zM112.117 212.537c0-56.213 45.732-101.946 101.945-101.946 56.213 0 101.947 45.734 101.947 101.947S270.275 314.482 214.06 314.482c-56.213 0-101.945-45.732-101.945-101.945z"/></svg>