<svg height="38" viewBox="0 0 42 38" width="42" xmlns="http://www.w3.org/2000/svg"><g fill="none"><path d="m3.17525773 32.5679487 1.85223368 3.2397436c.38487972.6820513.93814433 1.2179487 1.58762886 1.6076923l6.61512023-11.5948718h-13.2302405c0 .7551282.19243986 1.5102564.57731959 2.1923077z" fill="#0066da"/><path d="m21 12.1794872-6.6151203-11.59487181c-.6494845.38974358-1.2027491.92564102-1.5876288 1.6076923l-12.21993131 21.43589741c-.37780131.6673424-.57681657 1.423081-.57731959 2.1923077h13.2302405z" fill="#00ac47"/><path d="m35.3848797 37.4153846c.6494846-.3897436 1.2027492-.925641 1.5876289-1.6076923l.7697594-1.3397436 3.6804124-6.4551282c.3848797-.6820513.5773196-1.4371795.5773196-2.1923077h-13.2312027l2.8153951 5.6025641z" fill="#ea4335"/><path d="m21 12.1794872 6.6151203-11.59487181c-.6494846-.38974359-1.395189-.58461539-2.1649485-.58461539h-8.9003436c-.7697595 0-1.5154639.21923077-2.1649485.58461539z" fill="#00832d"/><path d="m28.7697595 25.8205128h-15.539519l-6.61512023 11.5948718c.64948454.3897436 1.39518901.5846154 2.16494846.5846154h24.43986257c.7697594 0 1.5154639-.2192308 2.1649484-.5846154z" fill="#2684fc"/><path d="m35.3127148 12.9102564-6.1099657-10.71794871c-.3848797-.68205128-.9381443-1.21794872-1.5876288-1.6076923l-6.6151203 11.59487181 7.7697595 13.6410256h13.2061855c0-.7551282-.1924398-1.5102564-.5773196-2.1923077z" fill="#ffba00"/></g></svg>