<svg xmlns="http://www.w3.org/2000/svg" width="22" height="22" viewBox="0 0 512 512"><path d="M153.415 256c0 28.558-23.15 51.708-51.707 51.708C73.15 307.708 50 284.558 50 256s23.15-51.708 51.708-51.708c28.557 0 51.707 23.15 51.707 51.708zM256 204.292c-28.558 0-51.708 23.15-51.708 51.708s23.15 51.708 51.708 51.708 51.708-23.15 51.708-51.708-23.15-51.708-51.708-51.708zm154.292 0c-28.557 0-51.707 23.15-51.707 51.708s23.15 51.708 51.707 51.708C438.85 307.708 462 284.558 462 256s-23.15-51.708-51.708-51.708z"/></svg>