<svg xmlns="http://www.w3.org/2000/svg" width="22" height="22" viewBox="0 0 512 512"><path d="M256 50C142.23 50 50 142.23 50 256s92.23 206 206 206 206-92.23 206-206S369.77 50 256 50zM152.625 290.645c-19.135 0-34.645-15.51-34.645-34.645s15.51-34.645 34.645-34.645c19.133 0 34.643 15.51 34.643 34.645s-15.51 34.645-34.643 34.645zm103.375 0c-19.134 0-34.645-15.51-34.645-34.645s15.51-34.645 34.645-34.645c19.133 0 34.645 15.51 34.645 34.645S275.133 290.645 256 290.645zm103.375 0c-19.133 0-34.643-15.51-34.643-34.645s15.51-34.645 34.643-34.645c19.135 0 34.645 15.51 34.645 34.645s-15.51 34.645-34.645 34.645z"/></svg>