<svg xmlns="http://www.w3.org/2000/svg" width="22" height="22" viewBox="0 0 512 512"><path d="M422 144v278H90V144h332m40-94H50v412h412V50zM194.14 284.18c0 17.22-13.958 31.18-31.178 31.18s-31.18-13.96-31.18-31.18 13.96-31.18 31.18-31.18 31.18 13.96 31.18 31.18zM256 253c-17.22 0-31.18 13.96-31.18 31.18s13.96 31.18 31.18 31.18 31.18-13.96 31.18-31.18S273.22 253 256 253zm93.037 0c-17.22 0-31.178 13.96-31.178 31.18s13.957 31.18 31.177 31.18c17.222 0 31.18-13.96 31.18-31.18S366.26 253 349.038 253z"/></svg>