<svg xmlns="http://www.w3.org/2000/svg" width="22" height="22" viewBox="0 0 512 512"><path d="M256 90c44.34 0 86.026 17.267 117.38 48.62C404.732 169.974 422 211.66 422 256s-17.268 86.026-48.62 117.38C342.026 404.733 300.34 422 256 422c-44.34 0-86.026-17.267-117.38-48.62S90 300.34 90 256s17.267-86.026 48.62-117.38S211.66 90 256 90zm0-40C142.23 50 50 142.23 50 256s92.23 206 206 206 206-92.23 206-206S369.77 50 256 50zm-61.86 206c0 17.22-13.958 31.18-31.178 31.18s-31.18-13.96-31.18-31.18 13.96-31.18 31.18-31.18 31.18 13.96 31.18 31.18zM256 224.82c-17.22 0-31.18 13.96-31.18 31.18s13.96 31.18 31.18 31.18 31.18-13.96 31.18-31.18-13.96-31.18-31.18-31.18zm93.037 0c-17.22 0-31.178 13.96-31.178 31.18s13.957 31.18 31.177 31.18c17.222 0 31.18-13.96 31.18-31.18s-13.958-31.18-31.18-31.18z"/></svg>