<svg xmlns="http://www.w3.org/2000/svg" width="22" height="22" viewBox="0 0 512 512"><path d="M256 90c44.34 0 86.026 17.267 117.38 48.62C404.732 169.974 422 211.66 422 256s-17.268 86.026-48.62 117.38C342.026 404.733 300.34 422 256 422c-44.34 0-86.026-17.267-117.38-48.62C107.267 342.026 90 300.34 90 256s17.267-86.026 48.62-117.38C169.974 107.267 211.66 90 256 90zm0-40C142.23 50 50 142.23 50 256s92.23 206 206 206 206-92.23 206-206S369.77 50 256 50zm103.97 160.212H156.03v-32.175h203.94v32.175zm0 29.7H156.03v32.175h203.94v-32.175zm0 61.875H156.03v32.175h203.94v-32.175z"/></svg>