<svg width="84" height="85" viewBox="0 0 84 85" fill="none" xmlns="http://www.w3.org/2000/svg">
<path d="M74.9492 12.4137C73.6832 5.45068 68.9942 0.950684 63.0002 0.950684C57.5942 0.950684 53.5772 4.20268 51.6962 9.95068H33.1292C31.3052 4.40968 27.0572 0.950684 21.8042 0.950684C15.6872 0.950684 11.3372 5.10869 9.86417 12.3567C8.78717 17.6667 2.02818 55.2477 1.67418 57.2097C1.11618 59.0937 0.804199 61.0857 0.804199 63.1467C0.804199 74.7237 10.2272 84.1467 21.8042 84.1467C31.9952 84.1467 40.5062 76.8447 42.4022 67.2027C44.2982 76.8447 52.8122 84.1467 63.0002 84.1467C74.5772 84.1467 84.0002 74.7237 84.0002 63.1467C84.0002 60.9537 83.6612 58.8417 83.0342 56.8527L74.9492 12.4137ZM56.9402 13.5447C57.8252 9.16768 59.8652 6.95068 63.0002 6.95068C66.5822 6.95068 68.4722 10.3287 69.0512 13.4877L74.9462 45.8997C71.5502 43.5417 67.4372 42.1497 63.0002 42.1497C58.5392 42.1497 54.4052 43.5597 50.9972 45.9417C53.1752 33.8847 56.2592 16.8957 56.9402 13.5447ZM34.3952 15.9507H50.3672C48.3182 26.8977 43.1732 55.5027 42.8672 57.2097C42.6842 57.8277 42.5252 58.4517 42.3992 59.0907C42.2492 58.3287 42.0632 57.5817 41.8352 56.8527L34.3952 15.9507ZM15.7442 13.5477C16.6322 9.17068 18.6722 6.95068 21.8042 6.95068C25.3862 6.95068 27.2762 10.3287 27.8552 13.4877L33.7502 45.8997C30.3542 43.5417 26.2412 42.1497 21.8042 42.1497C17.3432 42.1497 13.2092 43.5597 9.8042 45.9417C11.9822 33.8847 15.0692 16.8957 15.7472 13.5507L15.7442 13.5477ZM21.8042 78.1467C13.5332 78.1467 6.8042 71.4177 6.8042 63.1467C6.8042 54.8757 13.5332 48.1467 21.8042 48.1467C30.0752 48.1467 36.8042 54.8757 36.8042 63.1467C36.8042 71.4177 30.0752 78.1467 21.8042 78.1467ZM63.0002 78.1467C54.7292 78.1467 48.0002 71.4177 48.0002 63.1467C48.0002 54.8757 54.7292 48.1467 63.0002 48.1467C71.2712 48.1467 78.0002 54.8757 78.0002 63.1467C78.0002 71.4177 71.2712 78.1467 63.0002 78.1467Z" fill="#CACFE0"/>
<path d="M18.7861 52.7373V58.7373C22.8811 58.7373 26.2171 62.0703 26.2171 66.1683H32.2171C32.2171 58.7613 26.1931 52.7373 18.7861 52.7373Z" fill="#CACFE0"/>
<path d="M59.604 52.7373V58.7373C63.699 58.7373 67.035 62.0703 67.035 66.1683H73.035C73.035 58.7613 67.011 52.7373 59.604 52.7373Z" fill="#CACFE0"/>
</svg>
