<svg width="85" height="84" viewBox="0 0 85 84" fill="none" xmlns="http://www.w3.org/2000/svg">
<path d="M6.8042 20.748H0.804199V44.748H6.8042V20.748Z" fill="#CACFE0"/>
<path d="M56.0822 74.0256V68.0256C46.5152 68.0256 38.6072 60.8886 37.3412 51.6666L70.3922 58.0776V7.41064L14.4092 18.2736V47.2176L31.2152 50.4786C31.9442 63.5826 42.8012 74.0256 56.0822 74.0256ZM20.4092 23.2176L64.3922 14.6856V50.7996L20.4092 42.2706V23.2146V23.2176Z" fill="#CACFE0"/>
<path d="M79.5198 16.5269L73.5195 19.9277L76.4781 25.1476L82.4783 21.7467L79.5198 16.5269Z" fill="#CACFE0"/>
<path d="M84.402 29.748H75V35.748H84.402V29.748Z" fill="#CACFE0"/>
<path d="M76.4805 40.3414L73.5215 45.561L79.5214 48.9624L82.4804 43.7428L76.4805 40.3414Z" fill="#CACFE0"/>
</svg>
