<svg width="84" height="84" viewBox="0 0 84 84" fill="none" xmlns="http://www.w3.org/2000/svg">
<path d="M35.6311 53.6669L20.5711 38.6098L16.3291 42.8519L33.5101 60.0298H37.7521L68.4721 29.3099L64.2301 25.0679L35.6311 53.6669Z" fill="#CACFE0"/>
<path d="M42.4023 2.04932C20.0703 2.04932 1.90234 20.2173 1.90234 42.5493C1.90234 64.8813 20.0703 83.0493 42.4023 83.0493C64.7343 83.0493 82.9023 64.8813 82.9023 42.5493C82.9023 20.2173 64.7343 2.04932 42.4023 2.04932ZM42.4023 77.0493C23.3793 77.0493 7.90234 61.5723 7.90234 42.5493C7.90234 23.5263 23.3793 8.04932 42.4023 8.04932C61.4253 8.04932 76.9023 23.5263 76.9023 42.5493C76.9023 61.5723 61.4253 77.0493 42.4023 77.0493Z" fill="#CACFE0"/>
</svg>
