<svg width="84" height="85" viewBox="0 0 84 85" fill="none" xmlns="http://www.w3.org/2000/svg">
<path d="M24.6422 60.3087C27.4922 73.9047 39.5702 84.1467 54.0002 84.1467C70.5422 84.1467 84.0002 70.6887 84.0002 54.1467C84.0002 39.7167 73.7582 27.6387 60.1622 24.7887C57.3122 11.1927 45.2342 0.950684 30.8042 0.950684C14.2622 0.950684 0.804199 14.4087 0.804199 30.9507C0.804199 45.3807 11.0462 57.4587 24.6422 60.3087ZM30.0002 54.1467C30.0002 40.9137 40.7672 30.1467 54.0002 30.1467C54.2582 30.1467 54.5072 30.1767 54.7652 30.1857C54.7742 30.4407 54.8042 30.6927 54.8042 30.9507C54.8042 44.1837 44.0372 54.9507 30.8042 54.9507C30.5462 54.9507 30.2972 54.9207 30.0392 54.9117C30.0302 54.6567 30.0002 54.4047 30.0002 54.1467ZM78.0002 54.1467C78.0002 67.3797 67.2332 78.1467 54.0002 78.1467C43.1282 78.1467 33.9332 70.8717 30.9932 60.9387C47.3822 60.8337 60.6872 47.5287 60.7922 31.1397C70.7252 34.0797 78.0002 43.2717 78.0002 54.1467ZM30.8042 6.95068C41.6762 6.95068 50.8712 14.2257 53.8112 24.1587C37.4222 24.2637 24.1172 37.5687 24.0122 53.9577C14.0792 51.0177 6.8042 41.8257 6.8042 30.9507C6.8042 17.7177 17.5712 6.95068 30.8042 6.95068Z" fill="#CACFE0"/>
</svg>
