<svg viewBox="0 0 208 59" xmlns="http://www.w3.org/2000/svg" fill-rule="evenodd" clip-rule="evenodd" stroke-linecap="round" stroke-linejoin="round">
    <path d="M78.864 38.184v-6.312h6.096v-3.096h-6.096V24.72h6.48v-3.096H75v16.56h3.864zm10.392-13.2c1.296 0 2.184-.792 2.184-1.992 0-1.176-.888-1.992-2.184-1.992-1.296 0-2.184.816-2.184 1.992 0 1.2.888 1.992 2.184 1.992zm1.92 13.2V26.352h-3.84v11.832h3.84zm6.528 0v-16.56h-3.84v16.56h3.84zm6.552 0v-16.56h-3.84v16.56h3.84zm6.096.264c1.92 0 2.88-1.008 3.384-1.512l.072 1.248h3.672v-6.672c0-1.992-.504-3.144-1.416-4.008-.936-.864-2.208-1.368-4.416-1.368s-4.056.696-5.064 1.2l1.008 2.496c.6-.384 2.112-1.056 3.624-1.056 1.536 0 2.424.648 2.424 1.896v.264l-2.976.12c-2.184.096-4.608.984-4.608 3.624s2.208 3.768 4.296 3.768zM111.696 36c-1.056 0-1.8-.552-1.8-1.464 0-.888.696-1.392 1.872-1.44l1.896-.12v1.944c-.24.408-.936 1.08-1.968 1.08zm15.816 2.448c3.432 0 5.592-2.688 5.592-6.168s-2.16-6.144-5.568-6.144c-2.016 0-3.216.936-3.72 1.656h-.072s.048-1.104.048-2.184v-3.984h-3.84v16.56h3.648l-.024-1.56h.024c.888 1.248 2.304 1.824 3.912 1.824zm-1.08-3.144c-1.656 0-2.784-1.248-2.784-3.072s1.128-3.072 2.784-3.072 2.76 1.248 2.76 3.072-1.104 3.072-2.76 3.072zm12.48 2.88v-16.56h-3.84v16.56h3.84zm8.232.264c3.672 0 5.232-1.632 5.616-1.92l-1.512-1.992c-.672.456-2.016 1.128-3.552 1.128-1.56 0-2.856-.768-3.024-2.472h8.424s.048-.696.048-1.272c0-3.456-2.424-5.784-5.928-5.784s-6.384 2.232-6.384 6.144 2.664 6.168 6.312 6.168zm2.424-7.44h-4.872c.048-1.128.864-2.376 2.448-2.376 1.608 0 2.4 1.296 2.424 2.376zm14.208 7.176v-6.12h2.04c1.704 0 3.216-.336 4.32-1.248 1.104-.936 1.728-2.208 1.728-3.984 0-1.776-.624-3.048-1.728-3.96-1.104-.912-2.616-1.248-4.32-1.248h-5.928v16.56h3.888zm1.488-9.12h-1.512v-4.44h1.512c.84 0 1.392.12 1.872.456.456.336.792.912.792 1.752s-.336 1.44-.792 1.776c-.48.336-1.032.456-1.872.456zm14.112 9.12c2.88 0 5.016-.816 6.384-1.968 1.392-1.176 2.688-3.096 2.688-6.312s-1.296-5.136-2.688-6.288c-1.368-1.176-3.504-1.992-6.384-1.992h-5.616v16.56h5.616zm.216-3.288h-1.968V24.84h1.968c1.608 0 2.76.528 3.456 1.176.696.672 1.464 1.848 1.464 3.888s-.768 3.144-1.464 3.792c-.696.672-1.848 1.2-3.456 1.2zm14.904 3.288v-6.312h6.096v-3.096h-6.096V24.72h6.48v-3.096h-10.344v16.56h3.864zm12.432.264c1.584 0 2.76-.36 3.624-1.032.864-.696 1.392-1.656 1.392-2.88 0-1.248-.576-2.016-.96-2.4-.408-.384-1.008-.696-1.536-.888-.504-.192-.864-.312-1.68-.552-.816-.24-1.728-.528-1.728-1.152 0-.624.504-.864 1.416-.864.96 0 2.304.624 2.976 1.152l1.248-2.256c-.672-.552-2.064-1.464-4.536-1.464-2.472 0-4.488 1.416-4.488 3.72 0 2.112 1.464 2.856 2.016 3.096.552.24 1.224.432 1.68.552.432.144 2.16.528 2.16 1.296s-.672 1.008-1.632 1.008c-.96 0-2.544-.624-3.504-1.44l-1.44 2.28c1.344 1.272 3.216 1.824 4.992 1.824z" fill="#fff" fill-rule="nonzero" transform="translate(-4 -.566)" id="FillablePDFs"/>
    <g id="Group-3" transform="translate(-4 -.566)">
        <path d="M36.439 2.629l17.398 9.525c3.204 1.755 5.197 5.118 5.197 8.772v18.148c0 3.654-1.993 7.017-5.197 8.772l-17.398 9.525a10.0013 10.0013 0 01-9.605 0L9.436 47.846c-3.205-1.755-5.198-5.118-5.198-8.772V20.926c0-3.654 1.993-7.017 5.198-8.772l17.398-9.525a10.0013 10.0013 0 019.605 0z" fill="#fff" transform="matrix(-1 0 0 1 63.2727 0)" id="Polygon-Copy-6"/>
        <g id="sign" transform="translate(19 17)" fill="none" stroke="#d05c5d" stroke-width="3">
            <path id="Path" d="M1.943 21.943c-1.263-1.263-1.263-3.309 0-4.572L18.367.947c1.263-1.262 3.309-1.262 4.572 0 1.262 1.263 1.262 3.309 0 4.572L6.514 21.943c-1.262 1.262-3.309 1.262-4.571 0z"/>
            <path id="Path1" d="M1.943 21.943L.114 23.771"/>
            <path id="Path2" d="M19.314 17.371l5.486-5.485-1.829-1.829"/>
        </g>
    </g>
</svg>