<svg width="738" height="420" viewBox="0 0 738 420" fill="none" xmlns="http://www.w3.org/2000/svg">
<path d="M368.661 154.048L345.777 114.727C345.503 114.257 345.503 113.676 345.777 113.205L370.571 70.588C371.155 69.585 372.605 69.581 373.194 70.582L384.558 89.906C384.831 90.37 385.329 90.654 385.868 90.654H467.493C468.481 90.654 469.206 89.727 468.966 88.77L468.229 85.837C457.032 41.295 416.821 10.163 370.392 10.032C370.223 10.029 370.061 10 369.893 10C369.875 10 369.853 10 369.835 10.002C369.558 10.002 369.291 10.048 369.015 10.056C339.084 10.37 311.059 23.608 291.988 46.527C272.691 69.717 265.037 100.234 270.982 130.254C278.845 169.956 311.255 201.385 351.629 208.465C356.825 209.376 362.063 209.869 367.296 210.002L373.781 209.92C393.974 209.213 413.759 202.908 430.238 191.478C450.753 177.249 464.266 156.837 468.286 134.003L468.773 131.235C468.936 130.308 468.221 129.458 467.278 129.458H386.586C386.047 129.457 385.548 129.742 385.276 130.206L371.285 154.054C370.697 155.056 369.246 155.053 368.662 154.049L368.661 154.048ZM371.849 202.281C370.496 202.306 369.14 202.3 367.785 202.269C367.728 202.268 367.671 202.264 367.615 202.258C360.878 201.557 354.968 197.812 351.531 191.892L304.424 110.749C304.151 110.279 304.151 109.699 304.424 109.229L317.661 86.477C318.246 85.471 319.702 85.471 320.287 86.477L383.804 195.616C384.182 196.266 384.019 197.085 383.439 197.565C380.236 200.217 376.294 201.858 372.018 202.271C371.962 202.276 371.905 202.28 371.848 202.281H371.849ZM323.941 77.207C323.667 76.737 323.667 76.156 323.941 75.685L351.531 28.263C355.213 21.936 361.721 18.097 369.041 17.816C369.393 17.812 369.743 17.787 370.097 17.787C370.272 17.787 370.444 17.807 370.619 17.808C376.959 18.018 382.677 20.919 386.513 25.785C386.891 26.265 386.919 26.936 386.612 27.464L342.122 103.935C341.537 104.941 340.081 104.941 339.496 103.935L323.941 77.207ZM376.835 59.824L390.428 36.459C391.012 35.455 392.464 35.453 393.051 36.454L418.961 80.615C419.554 81.625 418.824 82.896 417.651 82.896H390.379C389.84 82.896 389.342 82.611 389.069 82.148L376.838 61.352C376.561 60.881 376.559 60.297 376.834 59.824H376.835ZM457.179 82.895H430.239C429.7 82.895 429.201 82.61 428.929 82.145L394.991 24.301C394.884 24.119 394.775 23.938 394.664 23.76C393.931 22.586 395.031 21.118 396.362 21.503C425.359 29.873 448.888 51.809 458.628 80.911C458.955 81.887 458.209 82.895 457.179 82.895ZM298.046 51.46C309.994 37.099 325.76 26.876 343.293 21.691C344.624 21.297 345.729 22.759 345.005 23.941C344.914 24.09 344.824 24.241 344.735 24.393L282.101 132.049C281.413 133.232 279.619 132.975 279.305 131.644C279.08 130.689 278.871 129.729 278.679 128.763C273.188 101.027 280.246 72.852 298.046 51.46ZM284.002 144.335L298.141 120.032C298.727 119.026 300.183 119.026 300.768 120.033L328.805 168.327C329.461 169.457 340.705 188.598 345.44 196.401C346.154 197.578 345.048 199.027 343.723 198.65C316.663 190.938 294.561 171.166 283.911 145.689C283.727 145.249 283.763 144.747 284.003 144.335H284.002ZM425.738 185.124C416.799 191.324 406.803 195.901 396.297 198.766C394.968 199.128 393.88 197.665 394.614 196.502C394.748 196.29 394.879 196.074 395.007 195.856L428.929 137.966C429.201 137.501 429.7 137.216 430.24 137.216H457.658C458.649 137.216 459.387 138.152 459.131 139.107C454.247 157.288 442.57 173.449 425.738 185.124ZM418.968 139.496L390.795 187.574C390.208 188.576 388.755 188.574 388.171 187.57L374.931 164.82C374.656 164.348 374.657 163.765 374.934 163.294L389.793 137.965C390.065 137.501 390.564 137.215 391.103 137.215H417.657C418.83 137.215 419.56 138.486 418.968 139.496Z" fill="white"/>
<path d="M25.1887 274.526C32.1767 274.526 37.2276 276.879 41.9326 280.961C42.5556 281.514 42.5556 282.345 42.0016 282.898L38.9576 286.012C38.4736 286.635 37.8507 286.635 37.2277 286.012C33.9757 283.175 29.5477 281.376 25.2577 281.376C15.3637 281.376 7.89166 289.679 7.89166 299.365C7.89166 309.051 15.4327 317.285 25.3277 317.285C30.3787 317.285 33.9066 315.279 37.2286 312.719C37.8506 312.235 38.4736 312.304 38.8896 312.65L42.0717 315.764C42.6247 316.248 42.4867 317.148 42.0027 317.632C37.2977 322.198 31.3477 324.343 25.1897 324.343C11.3517 324.343 0.212646 313.342 0.212646 299.504C0.212646 285.666 11.3527 274.527 25.1897 274.527L25.1887 274.526Z" fill="white"/>
<path d="M81.3017 274.526C95.1397 274.526 106.21 285.666 106.21 299.503C106.21 313.34 95.1397 324.342 81.3017 324.342C67.4637 324.342 56.4626 313.341 56.4626 299.503C56.4626 285.665 67.4637 274.526 81.3017 274.526ZM81.3017 317.423C91.1957 317.423 99.2906 309.397 99.2906 299.503C99.2906 289.678 91.1957 281.445 81.3017 281.445C71.4767 281.445 63.3817 289.678 63.3817 299.503C63.3817 309.397 71.4767 317.423 81.3017 317.423Z" fill="white"/>
<path d="M121.293 316.663C121.916 315.763 122.47 314.725 123.093 313.826C123.716 312.927 124.684 312.65 125.446 313.273C125.861 313.619 131.188 318.047 136.516 318.047C141.29 318.047 144.334 315.141 144.334 311.612C144.334 307.461 140.736 304.831 133.886 301.995C126.829 299.02 121.293 295.353 121.293 287.327C121.293 281.93 125.446 274.527 136.446 274.527C143.365 274.527 148.554 278.125 149.246 278.609C149.8 278.955 150.352 279.924 149.66 280.962C149.107 281.792 148.485 282.761 147.931 283.591C147.378 284.491 146.478 284.905 145.509 284.283C145.025 284.006 140.181 280.823 136.168 280.823C130.356 280.823 128.349 284.49 128.349 287.05C128.349 290.994 131.394 293.415 137.137 295.768C145.163 299.02 152.013 302.825 152.013 311.266C152.013 318.462 145.578 324.343 136.584 324.343C128.143 324.343 122.814 319.915 121.707 318.877C121.084 318.323 120.601 317.839 121.293 316.663Z" fill="white"/>
<path d="M176.507 281.722H165.229C164.468 281.722 163.915 281.099 163.915 280.408V276.533C163.915 275.841 164.468 275.218 165.229 275.218H194.981C195.742 275.218 196.296 275.841 196.296 276.533V280.408C196.296 281.1 195.743 281.722 194.981 281.722H183.703V322.336C183.703 323.028 183.08 323.651 182.388 323.651H177.821C177.129 323.651 176.507 323.028 176.507 322.336V281.722Z" fill="white"/>
<path d="M241.796 289.942V289.763L239.734 287.522C236.238 283.846 233.459 279.902 233.548 274.523C233.548 267.71 238.927 260 249.954 260C259.815 260 266.001 266.455 266.001 274.255C266.001 282.861 257.395 288.599 253.899 291.02L266.45 303.571C268.422 299.806 269.588 295.233 269.856 290.661C269.945 288.689 270.663 288.151 272.366 288.51L276.042 289.227C278.104 289.585 277.656 291.199 277.566 292.006C276.849 298.73 274.338 305.185 272.097 309.219L280.435 317.288C281.511 318.364 282.317 319.35 280.256 321.412L277.925 323.743C276.849 324.729 275.415 324.909 274.07 323.474L266.988 316.302C263.76 319.978 257.306 324.55 247.444 324.55C236.148 324.55 229.335 316.84 229.335 307.875C229.335 297.117 238.569 291.828 241.797 289.945L241.796 289.942ZM248.161 317.016C254.616 317.016 259.009 313.609 261.609 310.561L246.637 294.783C243.858 296.486 237.851 300.252 237.851 307.334C237.851 312.982 242.423 317.016 248.161 317.016ZM258.022 274.611C258.022 270.756 254.884 266.901 249.506 266.901C244.485 266.901 241.527 270.397 241.527 274.611C241.437 278.107 243.678 280.707 246.726 283.755L248.698 285.727C251.387 284.113 258.021 280.617 258.021 274.61L258.022 274.611Z" fill="white"/>
<path d="M338.939 274.526C345.927 274.526 350.978 276.879 355.683 280.961C356.306 281.514 356.306 282.345 355.752 282.898L352.708 286.012C352.224 286.635 351.601 286.635 350.978 286.012C347.726 283.175 343.298 281.376 339.008 281.376C329.114 281.376 321.642 289.679 321.642 299.365C321.642 309.051 329.183 317.285 339.078 317.285C344.129 317.285 347.657 315.279 350.979 312.719C351.601 312.235 352.224 312.304 352.64 312.65L355.822 315.764C356.375 316.248 356.237 317.148 355.753 317.632C351.048 322.198 345.098 324.343 338.94 324.343C325.102 324.343 313.963 313.342 313.963 299.504C313.963 285.666 325.103 274.527 338.94 274.527L338.939 274.526Z" fill="white"/>
<path d="M395.052 274.526C408.89 274.526 419.96 285.666 419.96 299.503C419.96 313.34 408.89 324.342 395.052 324.342C381.214 324.342 370.213 313.341 370.213 299.503C370.213 285.665 381.214 274.526 395.052 274.526ZM395.052 317.423C404.946 317.423 413.041 309.397 413.041 299.503C413.041 289.678 404.946 281.445 395.052 281.445C385.227 281.445 377.132 289.678 377.132 299.503C377.132 309.397 385.227 317.423 395.052 317.423Z" fill="white"/>
<path d="M431.377 277.017C430.962 276.118 431.515 275.218 432.553 275.218H437.466C438.019 275.218 438.504 275.633 438.642 275.979L453.863 310.228H454.278L469.5 275.979C469.638 275.633 470.053 275.218 470.676 275.218H475.588C476.626 275.218 477.18 276.118 476.764 277.017L455.523 323.581C455.315 323.996 454.9 324.342 454.347 324.342H453.655C453.171 324.342 452.686 323.996 452.479 323.581L431.377 277.017Z" fill="white"/>
<path d="M492.056 276.533C492.056 275.841 492.609 275.218 493.37 275.218H521.046C521.807 275.218 522.361 275.841 522.361 276.533V280.408C522.361 281.1 521.807 281.722 521.046 281.722H499.182V295.837H517.656C518.348 295.837 518.971 296.46 518.971 297.151V301.026C518.971 301.787 518.348 302.341 517.656 302.341H499.182V317.217H521.046C521.807 317.217 522.361 317.84 522.361 318.532V322.337C522.361 323.029 521.807 323.652 521.046 323.652H493.37C492.609 323.652 492.056 323.029 492.056 322.337V276.533Z" fill="white"/>
<path d="M541.111 276.533C541.111 275.841 541.664 275.218 542.425 275.218H561.245C569.548 275.218 576.328 281.791 576.328 290.025C576.328 296.391 572.108 301.649 566.088 304.071L575.567 321.645C576.051 322.544 575.567 323.652 574.391 323.652H568.994C568.441 323.652 568.026 323.306 567.887 323.029L558.685 304.694H548.237V322.337C548.237 323.029 547.615 323.652 546.923 323.652H542.425C541.664 323.652 541.111 323.029 541.111 322.337V276.533ZM560.692 298.743C565.189 298.743 569.133 294.938 569.133 290.163C569.133 285.666 565.189 281.93 560.692 281.93H548.376V298.743H560.692Z" fill="white"/>
<path d="M588.921 321.851L610.162 275.287C610.369 274.872 610.992 274.526 611.338 274.526H612.03C612.376 274.526 612.999 274.872 613.206 275.287L634.309 321.851C634.724 322.751 634.171 323.65 633.133 323.65H628.774C627.944 323.65 627.459 323.235 627.183 322.612L622.893 313.133H600.268C598.884 316.316 597.431 319.429 596.047 322.612C595.84 323.096 595.286 323.65 594.456 323.65H590.097C589.059 323.65 588.506 322.75 588.921 321.851ZM620.264 307.183L611.754 288.225H611.408L602.967 307.183H620.264Z" fill="white"/>
<path d="M670.633 274.526C677.275 274.526 682.741 276.948 687.446 280.961C687.999 281.514 688.068 282.345 687.515 282.898C686.477 284.005 685.439 285.043 684.402 286.15C683.849 286.773 683.295 286.704 682.603 286.081C679.351 283.244 675.062 281.376 670.841 281.376C661.016 281.376 653.474 289.679 653.474 299.365C653.474 308.983 661.015 317.285 670.841 317.285C676.584 317.285 680.528 315.209 681.219 314.933V307.184H674.438C673.677 307.184 673.124 306.631 673.124 305.939V301.926C673.124 301.165 673.677 300.612 674.438 300.612H687.03C687.722 300.612 688.276 301.235 688.276 301.926C688.276 307.461 688.345 313.135 688.345 318.67C688.345 319.016 688.068 319.57 687.792 319.777C687.792 319.777 680.665 324.344 670.633 324.344C656.864 324.344 645.725 313.343 645.725 299.505C645.725 285.667 656.864 274.528 670.633 274.528V274.526Z" fill="white"/>
<path d="M707.51 276.533C707.51 275.841 708.064 275.218 708.825 275.218H736.501C737.262 275.218 737.815 275.841 737.815 276.533V280.408C737.815 281.1 737.262 281.722 736.501 281.722H714.637V295.837H733.111C733.803 295.837 734.425 296.46 734.425 297.151V301.026C734.425 301.787 733.803 302.341 733.111 302.341H714.637V317.217H736.501C737.262 317.217 737.815 317.84 737.815 318.532V322.337C737.815 323.029 737.262 323.652 736.501 323.652H708.825C708.064 323.652 707.51 323.029 707.51 322.337V276.533Z" fill="white"/>
<path d="M32.5717 355.456C41.6257 355.456 48.1687 358.325 54.2647 363.793C55.0717 364.51 55.0717 365.586 54.3537 366.303L48.8857 371.951C48.2577 372.668 47.3617 372.668 46.6447 371.951C42.8797 368.634 37.8597 366.662 32.8397 366.662C21.3657 366.662 12.8497 376.253 12.8497 387.549C12.8497 398.754 21.4557 408.256 32.9297 408.256C38.3087 408.256 42.8797 406.194 46.6447 403.146C47.3617 402.518 48.3477 402.608 48.8857 403.146L54.4437 408.883C55.1607 409.511 54.9817 410.676 54.3537 411.303C48.2587 417.219 40.5487 419.998 32.5707 419.998C14.6417 419.998 0.209717 405.745 0.209717 387.817C0.209717 369.889 14.6417 355.456 32.5707 355.456H32.5717Z" fill="white"/>
<path d="M96.2216 355.456C114.15 355.456 128.493 369.888 128.493 387.817C128.493 405.746 114.15 419.998 96.2216 419.998C78.2936 419.998 64.0396 405.745 64.0396 387.817C64.0396 369.889 78.2926 355.456 96.2216 355.456ZM96.2216 408.345C107.517 408.345 116.84 399.112 116.84 387.817C116.84 376.522 107.517 367.11 96.2216 367.11C84.9266 367.11 75.6936 376.522 75.6936 387.817C75.6936 399.112 84.9266 408.345 96.2216 408.345Z" fill="white"/>
<path d="M142.927 358.056C142.927 357.16 143.644 356.353 144.63 356.353H152.878C153.774 356.353 154.581 357.16 154.581 358.056V408.345H177.44C178.426 408.345 179.142 409.152 179.142 410.048V417.399C179.142 418.295 178.426 419.102 177.44 419.102H144.63C143.644 419.102 142.927 418.295 142.927 417.399V358.056Z" fill="white"/>
<path d="M190.888 358.056C190.888 357.16 191.605 356.353 192.591 356.353H200.838C201.734 356.353 202.541 357.16 202.541 358.056V408.345H225.4C226.386 408.345 227.103 409.152 227.103 410.048V417.399C227.103 418.295 226.386 419.102 225.4 419.102H192.591C191.605 419.102 190.888 418.295 190.888 417.399V358.056Z" fill="white"/>
<path d="M233.559 416.772L261.438 356.443C261.707 355.905 262.155 355.457 262.962 355.457H263.858C264.754 355.457 265.113 355.905 265.382 356.443L292.992 416.772C293.53 417.937 292.813 419.103 291.468 419.103H283.669C282.324 419.103 281.697 418.565 281.069 417.31L276.676 407.629H249.873L245.48 417.31C245.121 418.206 244.314 419.103 242.88 419.103H235.081C233.736 419.103 233.019 417.938 233.557 416.772H233.559ZM272.284 397.678L263.32 377.957H263.051L254.266 397.678H272.284Z" fill="white"/>
<path d="M303.842 358.056C303.842 357.16 304.559 356.353 305.545 356.353H326.073C336.741 356.353 344.988 363.524 344.988 372.937C344.988 379.84 339.341 385.218 335.127 387.19C339.878 388.714 346.781 393.555 346.781 401.802C346.781 411.842 338.175 419.103 327.239 419.103H305.545C304.559 419.103 303.842 418.296 303.842 417.4V358.056ZM324.998 382.708C329.569 382.708 332.707 379.122 332.707 374.64C332.707 370.158 329.569 367.02 324.998 367.02H315.406V382.707L324.998 382.708ZM326.253 408.525C330.735 408.525 334.321 405.029 334.321 400.368C334.321 395.886 329.839 392.569 325.177 392.569H315.406V408.525H326.253Z" fill="white"/>
<path d="M389.541 355.456C407.469 355.456 421.812 369.888 421.812 387.817C421.812 405.746 407.469 419.998 389.541 419.998C371.613 419.998 357.359 405.745 357.359 387.817C357.359 369.889 371.612 355.456 389.541 355.456ZM389.541 408.345C400.836 408.345 410.159 399.112 410.159 387.817C410.159 376.522 400.836 367.11 389.541 367.11C378.246 367.11 369.013 376.522 369.013 387.817C369.013 399.112 378.246 408.345 389.541 408.345Z" fill="white"/>
<path d="M436.248 358.056C436.248 357.16 436.965 356.353 437.951 356.353H463.589C474.346 356.353 483.131 364.959 483.131 375.626C483.131 383.873 477.663 390.596 469.864 393.734L482.145 416.503C482.773 417.668 482.145 419.102 480.621 419.102H471.208C470.401 419.102 469.953 418.654 469.774 418.295L457.852 394.54H447.902V417.399C447.902 418.295 447.095 419.102 446.199 419.102H437.952C436.966 419.102 436.249 418.295 436.249 417.399L436.248 358.056ZM462.603 384.949C467.354 384.949 471.477 380.825 471.477 375.805C471.477 371.054 467.354 367.11 462.603 367.11H447.991V384.949H462.603Z" fill="white"/>
<path d="M490.484 416.772L518.363 356.443C518.632 355.905 519.08 355.457 519.887 355.457H520.783C521.679 355.457 522.038 355.905 522.307 356.443L549.917 416.772C550.455 417.937 549.738 419.103 548.393 419.103H540.594C539.249 419.103 538.622 418.565 537.994 417.31L533.601 407.629H506.798L502.405 417.31C502.046 418.206 501.239 419.103 499.805 419.103H492.006C490.661 419.103 489.944 417.938 490.482 416.772H490.484ZM529.209 397.678L520.245 377.957H519.976L511.191 397.678H529.209Z" fill="white"/>
<path d="M565.876 367.11H552.161C551.175 367.11 550.458 366.303 550.458 365.407V358.056C550.458 357.16 551.175 356.353 552.161 356.353H591.334C592.32 356.353 593.037 357.16 593.037 358.056V365.407C593.037 366.303 592.32 367.11 591.334 367.11H577.619V417.399C577.619 418.295 576.812 419.102 575.916 419.102H567.58C566.684 419.102 565.877 418.295 565.877 417.399L565.876 367.11Z" fill="white"/>
<path d="M605.052 358.056C605.052 357.16 605.859 356.353 606.755 356.353H615.091C615.988 356.353 616.794 357.16 616.794 358.056V417.399C616.794 418.295 615.988 419.102 615.091 419.102H606.755C605.859 419.102 605.052 418.295 605.052 417.399V358.056Z" fill="white"/>
<path d="M627.642 358.684C627.104 357.519 627.821 356.353 629.166 356.353H638.309C639.116 356.353 639.654 356.891 639.833 357.339L657.044 395.885H657.672L674.883 357.339C675.062 356.891 675.6 356.353 676.407 356.353H685.55C686.895 356.353 687.612 357.518 687.074 358.684L659.285 419.013C659.016 419.551 658.568 419.999 657.761 419.999H656.865C656.059 419.999 655.61 419.551 655.342 419.013L627.642 358.684Z" fill="white"/>
<path d="M697.924 358.056C697.924 357.16 698.641 356.353 699.627 356.353H736.111C737.097 356.353 737.814 357.16 737.814 358.056V365.407C737.814 366.303 737.097 367.11 736.111 367.11H709.577V381.811H731.718C732.614 381.811 733.421 382.618 733.421 383.514V390.954C733.421 391.94 732.614 392.657 731.718 392.657H709.577V408.344H736.111C737.097 408.344 737.814 409.151 737.814 410.047V417.398C737.814 418.294 737.097 419.101 736.111 419.101H699.627C698.641 419.101 697.924 418.294 697.924 417.398V358.055V358.056Z" fill="white"/>
</svg>
