<svg width="739" height="420" viewBox="0 0 739 420" fill="none" xmlns="http://www.w3.org/2000/svg">
<path d="M369.056 154.048L346.172 114.727C345.898 114.257 345.898 113.676 346.172 113.205L370.966 70.588C371.55 69.585 373 69.581 373.589 70.582L384.953 89.906C385.226 90.37 385.724 90.654 386.263 90.654H467.888C468.876 90.654 469.601 89.727 469.361 88.77L468.624 85.837C457.427 41.295 417.216 10.163 370.787 10.032C370.618 10.029 370.456 10 370.288 10C370.27 10 370.248 10 370.23 10.002C369.953 10.002 369.686 10.048 369.41 10.056C339.479 10.37 311.454 23.608 292.383 46.527C273.086 69.717 265.432 100.234 271.377 130.254C279.24 169.956 311.65 201.385 352.024 208.465C357.22 209.376 362.458 209.869 367.691 210.002L374.176 209.92C394.369 209.213 414.154 202.908 430.633 191.478C451.148 177.249 464.661 156.837 468.681 134.003L469.168 131.235C469.331 130.308 468.616 129.458 467.673 129.458H386.981C386.442 129.457 385.943 129.742 385.671 130.206L371.68 154.054C371.092 155.056 369.641 155.053 369.057 154.049L369.056 154.048ZM372.244 202.281C370.891 202.306 369.535 202.3 368.18 202.269C368.123 202.268 368.066 202.264 368.01 202.258C361.273 201.557 355.363 197.812 351.926 191.892L304.819 110.749C304.546 110.279 304.546 109.699 304.819 109.229L318.056 86.477C318.641 85.471 320.097 85.471 320.682 86.477L384.199 195.616C384.577 196.266 384.414 197.085 383.834 197.565C380.631 200.217 376.689 201.858 372.413 202.271C372.357 202.276 372.3 202.28 372.243 202.281H372.244ZM324.336 77.207C324.062 76.737 324.062 76.156 324.336 75.685L351.926 28.263C355.608 21.936 362.116 18.097 369.436 17.816C369.788 17.812 370.138 17.787 370.492 17.787C370.667 17.787 370.839 17.807 371.014 17.808C377.354 18.018 383.072 20.919 386.908 25.785C387.286 26.265 387.314 26.936 387.007 27.464L342.517 103.935C341.932 104.941 340.476 104.941 339.891 103.935L324.336 77.207ZM377.23 59.824L390.823 36.459C391.407 35.455 392.859 35.453 393.446 36.454L419.356 80.615C419.949 81.625 419.219 82.896 418.046 82.896H390.774C390.235 82.896 389.737 82.611 389.464 82.148L377.233 61.352C376.956 60.881 376.954 60.297 377.229 59.824H377.23ZM457.574 82.895H430.634C430.095 82.895 429.596 82.61 429.324 82.145L395.386 24.301C395.279 24.119 395.17 23.938 395.059 23.76C394.326 22.586 395.426 21.118 396.757 21.503C425.754 29.873 449.283 51.809 459.023 80.911C459.35 81.887 458.604 82.895 457.574 82.895ZM298.441 51.46C310.389 37.099 326.155 26.876 343.688 21.691C345.019 21.297 346.124 22.759 345.4 23.941C345.309 24.09 345.219 24.241 345.13 24.393L282.496 132.049C281.808 133.232 280.014 132.975 279.7 131.644C279.475 130.689 279.266 129.729 279.074 128.763C273.583 101.027 280.641 72.852 298.441 51.46ZM284.397 144.335L298.536 120.032C299.122 119.026 300.578 119.026 301.163 120.033L329.2 168.327C329.856 169.457 341.1 188.598 345.835 196.401C346.549 197.578 345.443 199.027 344.118 198.65C317.058 190.938 294.956 171.166 284.306 145.689C284.122 145.249 284.158 144.747 284.398 144.335H284.397ZM426.133 185.124C417.194 191.324 407.198 195.901 396.692 198.766C395.363 199.128 394.275 197.665 395.009 196.502C395.143 196.29 395.274 196.074 395.402 195.856L429.324 137.966C429.596 137.501 430.095 137.216 430.635 137.216H458.053C459.044 137.216 459.782 138.152 459.526 139.107C454.642 157.288 442.965 173.449 426.133 185.124ZM419.363 139.496L391.19 187.574C390.603 188.576 389.15 188.574 388.566 187.57L375.326 164.82C375.051 164.348 375.052 163.765 375.329 163.294L390.188 137.965C390.46 137.501 390.959 137.215 391.498 137.215H418.052C419.225 137.215 419.955 138.486 419.363 139.496Z" fill="url(#paint0_linear_201_1594)"/>
<path d="M25.5834 274.526C32.5714 274.526 37.6224 276.879 42.3274 280.961C42.9504 281.514 42.9504 282.345 42.3964 282.898L39.3524 286.012C38.8684 286.635 38.2454 286.635 37.6224 286.012C34.3704 283.175 29.9424 281.376 25.6524 281.376C15.7584 281.376 8.28644 289.679 8.28644 299.365C8.28644 309.051 15.8274 317.285 25.7224 317.285C30.7734 317.285 34.3014 315.279 37.6234 312.719C38.2454 312.235 38.8684 312.304 39.2844 312.65L42.4664 315.764C43.0194 316.248 42.8814 317.148 42.3974 317.632C37.6924 322.198 31.7424 324.343 25.5844 324.343C11.7464 324.343 0.607422 313.342 0.607422 299.504C0.607422 285.666 11.7474 274.527 25.5844 274.527L25.5834 274.526Z" fill="#2A0080"/>
<path d="M81.6964 274.526C95.5344 274.526 106.604 285.666 106.604 299.503C106.604 313.34 95.5344 324.342 81.6964 324.342C67.8584 324.342 56.8574 313.341 56.8574 299.503C56.8574 285.665 67.8584 274.526 81.6964 274.526ZM81.6964 317.423C91.5904 317.423 99.6854 309.397 99.6854 299.503C99.6854 289.678 91.5904 281.445 81.6964 281.445C71.8714 281.445 63.7764 289.678 63.7764 299.503C63.7764 309.397 71.8714 317.423 81.6964 317.423Z" fill="#2A0080"/>
<path d="M121.688 316.663C122.311 315.763 122.864 314.725 123.487 313.826C124.11 312.927 125.078 312.65 125.84 313.273C126.255 313.619 131.582 318.047 136.91 318.047C141.684 318.047 144.728 315.141 144.728 311.612C144.728 307.461 141.13 304.831 134.28 301.995C127.223 299.02 121.688 295.353 121.688 287.327C121.688 281.93 125.84 274.527 136.84 274.527C143.759 274.527 148.948 278.125 149.64 278.609C150.194 278.955 150.747 279.924 150.055 280.962C149.502 281.792 148.879 282.761 148.325 283.591C147.772 284.491 146.872 284.905 145.903 284.283C145.419 284.006 140.575 280.823 136.562 280.823C130.75 280.823 128.744 284.49 128.744 287.05C128.744 290.994 131.788 293.415 137.531 295.768C145.557 299.02 152.407 302.825 152.407 311.266C152.407 318.462 145.972 324.343 136.978 324.343C128.537 324.343 123.209 319.915 122.102 318.877C121.479 318.323 120.996 317.839 121.688 316.663Z" fill="#2A0080"/>
<path d="M176.901 281.722H165.623C164.862 281.722 164.309 281.099 164.309 280.408V276.533C164.309 275.841 164.862 275.218 165.623 275.218H195.375C196.136 275.218 196.69 275.841 196.69 276.533V280.408C196.69 281.1 196.137 281.722 195.375 281.722H184.097V322.336C184.097 323.028 183.474 323.651 182.782 323.651H178.215C177.523 323.651 176.901 323.028 176.901 322.336V281.722Z" fill="#2A0080"/>
<path d="M242.19 289.942V289.763L240.128 287.522C236.632 283.846 233.853 279.902 233.942 274.523C233.942 267.71 239.321 260 250.348 260C260.209 260 266.396 266.455 266.396 274.255C266.396 282.861 257.789 288.599 254.293 291.02L266.844 303.571C268.816 299.806 269.982 295.233 270.25 290.661C270.339 288.689 271.057 288.151 272.76 288.51L276.436 289.227C278.498 289.585 278.051 291.199 277.961 292.006C277.244 298.73 274.733 305.185 272.492 309.219L280.829 317.288C281.905 318.364 282.712 319.35 280.651 321.412L278.32 323.743C277.244 324.729 275.809 324.909 274.464 323.474L267.383 316.302C264.155 319.978 257.701 324.55 247.839 324.55C236.543 324.55 229.729 316.84 229.729 307.875C229.729 297.117 238.963 291.828 242.191 289.945L242.19 289.942ZM248.555 317.016C255.01 317.016 259.403 313.609 262.003 310.561L247.031 294.783C244.252 296.486 238.245 300.252 238.245 307.334C238.245 312.982 242.817 317.016 248.555 317.016ZM258.417 274.611C258.417 270.756 255.278 266.901 249.9 266.901C244.879 266.901 241.921 270.397 241.921 274.611C241.831 278.107 244.072 280.707 247.12 283.755L249.092 285.727C251.781 284.113 258.415 280.617 258.415 274.61L258.417 274.611Z" fill="#2A0080"/>
<path d="M339.333 274.526C346.321 274.526 351.372 276.879 356.077 280.961C356.7 281.514 356.7 282.345 356.146 282.898L353.102 286.012C352.618 286.635 351.995 286.635 351.372 286.012C348.12 283.175 343.692 281.376 339.402 281.376C329.508 281.376 322.036 289.679 322.036 299.365C322.036 309.051 329.577 317.285 339.472 317.285C344.523 317.285 348.051 315.279 351.373 312.719C351.995 312.235 352.618 312.304 353.034 312.65L356.216 315.764C356.769 316.248 356.631 317.148 356.147 317.632C351.442 322.198 345.492 324.343 339.334 324.343C325.496 324.343 314.357 313.342 314.357 299.504C314.357 285.666 325.497 274.527 339.334 274.527L339.333 274.526Z" fill="#2A0080"/>
<path d="M395.446 274.526C409.284 274.526 420.354 285.666 420.354 299.503C420.354 313.34 409.284 324.342 395.446 324.342C381.608 324.342 370.607 313.341 370.607 299.503C370.607 285.665 381.608 274.526 395.446 274.526ZM395.446 317.423C405.34 317.423 413.435 309.397 413.435 299.503C413.435 289.678 405.34 281.445 395.446 281.445C385.621 281.445 377.526 289.678 377.526 299.503C377.526 309.397 385.621 317.423 395.446 317.423Z" fill="#2A0080"/>
<path d="M431.771 277.017C431.356 276.118 431.909 275.218 432.947 275.218H437.86C438.413 275.218 438.898 275.633 439.036 275.979L454.257 310.228H454.672L469.894 275.979C470.032 275.633 470.447 275.218 471.07 275.218H475.982C477.02 275.218 477.574 276.118 477.158 277.017L455.917 323.581C455.709 323.996 455.294 324.342 454.741 324.342H454.049C453.565 324.342 453.08 323.996 452.873 323.581L431.771 277.017Z" fill="#2A0080"/>
<path d="M492.45 276.533C492.45 275.841 493.003 275.218 493.764 275.218H521.44C522.201 275.218 522.755 275.841 522.755 276.533V280.408C522.755 281.1 522.201 281.722 521.44 281.722H499.576V295.837H518.05C518.742 295.837 519.365 296.46 519.365 297.151V301.026C519.365 301.787 518.742 302.341 518.05 302.341H499.576V317.217H521.44C522.201 317.217 522.755 317.84 522.755 318.532V322.337C522.755 323.029 522.201 323.652 521.44 323.652H493.764C493.003 323.652 492.45 323.029 492.45 322.337V276.533Z" fill="#2A0080"/>
<path d="M541.505 276.533C541.505 275.841 542.058 275.218 542.819 275.218H561.639C569.942 275.218 576.722 281.791 576.722 290.025C576.722 296.391 572.502 301.649 566.482 304.071L575.961 321.645C576.445 322.544 575.961 323.652 574.785 323.652H569.388C568.835 323.652 568.42 323.306 568.281 323.029L559.079 304.694H548.631V322.337C548.631 323.029 548.009 323.652 547.317 323.652H542.819C542.058 323.652 541.505 323.029 541.505 322.337V276.533ZM561.086 298.743C565.583 298.743 569.527 294.938 569.527 290.163C569.527 285.666 565.583 281.93 561.086 281.93H548.77V298.743H561.086Z" fill="#2A0080"/>
<path d="M589.315 321.851L610.556 275.287C610.763 274.872 611.386 274.526 611.732 274.526H612.424C612.77 274.526 613.393 274.872 613.6 275.287L634.703 321.851C635.118 322.751 634.565 323.65 633.527 323.65H629.168C628.338 323.65 627.853 323.235 627.577 322.612L623.287 313.133H600.662C599.278 316.316 597.825 319.429 596.441 322.612C596.234 323.096 595.68 323.65 594.85 323.65H590.491C589.453 323.65 588.9 322.75 589.315 321.851ZM620.658 307.183L612.148 288.225H611.802L603.361 307.183H620.658Z" fill="#2A0080"/>
<path d="M671.027 274.526C677.669 274.526 683.135 276.948 687.84 280.961C688.393 281.514 688.462 282.345 687.909 282.898C686.871 284.005 685.833 285.043 684.796 286.15C684.243 286.773 683.689 286.704 682.997 286.081C679.745 283.244 675.456 281.376 671.235 281.376C661.41 281.376 653.868 289.679 653.868 299.365C653.868 308.983 661.409 317.285 671.235 317.285C676.978 317.285 680.922 315.209 681.613 314.933V307.184H674.832C674.071 307.184 673.518 306.631 673.518 305.939V301.926C673.518 301.165 674.071 300.612 674.832 300.612H687.424C688.116 300.612 688.67 301.235 688.67 301.926C688.67 307.461 688.739 313.135 688.739 318.67C688.739 319.016 688.462 319.57 688.186 319.777C688.186 319.777 681.059 324.344 671.027 324.344C657.258 324.344 646.119 313.343 646.119 299.505C646.119 285.667 657.258 274.528 671.027 274.528V274.526Z" fill="#2A0080"/>
<path d="M707.904 276.533C707.904 275.841 708.458 275.218 709.219 275.218H736.895C737.656 275.218 738.209 275.841 738.209 276.533V280.408C738.209 281.1 737.656 281.722 736.895 281.722H715.031V295.837H733.505C734.197 295.837 734.819 296.46 734.819 297.151V301.026C734.819 301.787 734.197 302.341 733.505 302.341H715.031V317.217H736.895C737.656 317.217 738.209 317.84 738.209 318.532V322.337C738.209 323.029 737.656 323.652 736.895 323.652H709.219C708.458 323.652 707.904 323.029 707.904 322.337V276.533Z" fill="#2A0080"/>
<path d="M32.9665 355.456C42.0205 355.456 48.5635 358.325 54.6595 363.793C55.4665 364.51 55.4665 365.586 54.7485 366.303L49.2805 371.951C48.6525 372.668 47.7565 372.668 47.0395 371.951C43.2745 368.634 38.2545 366.662 33.2345 366.662C21.7605 366.662 13.2445 376.253 13.2445 387.549C13.2445 398.754 21.8505 408.256 33.3245 408.256C38.7035 408.256 43.2745 406.194 47.0395 403.146C47.7565 402.518 48.7425 402.608 49.2805 403.146L54.8385 408.883C55.5555 409.511 55.3765 410.676 54.7485 411.303C48.6535 417.219 40.9435 419.998 32.9655 419.998C15.0365 419.998 0.604492 405.745 0.604492 387.817C0.604492 369.889 15.0365 355.456 32.9655 355.456H32.9665Z" fill="#2A0080"/>
<path d="M96.6163 355.456C114.544 355.456 128.887 369.888 128.887 387.817C128.887 405.746 114.544 419.998 96.6163 419.998C78.6883 419.998 64.4343 405.745 64.4343 387.817C64.4343 369.889 78.6873 355.456 96.6163 355.456ZM96.6163 408.345C107.911 408.345 117.234 399.112 117.234 387.817C117.234 376.522 107.911 367.11 96.6163 367.11C85.3213 367.11 76.0883 376.522 76.0883 387.817C76.0883 399.112 85.3213 408.345 96.6163 408.345Z" fill="#2A0080"/>
<path d="M143.322 358.056C143.322 357.16 144.039 356.353 145.025 356.353H153.272C154.168 356.353 154.975 357.16 154.975 358.056V408.345H177.834C178.82 408.345 179.537 409.152 179.537 410.048V417.399C179.537 418.295 178.82 419.102 177.834 419.102H145.025C144.039 419.102 143.322 418.295 143.322 417.399V358.056Z" fill="#2A0080"/>
<path d="M191.282 358.056C191.282 357.16 191.999 356.353 192.985 356.353H201.232C202.128 356.353 202.935 357.16 202.935 358.056V408.345H225.794C226.78 408.345 227.497 409.152 227.497 410.048V417.399C227.497 418.295 226.78 419.102 225.794 419.102H192.985C191.999 419.102 191.282 418.295 191.282 417.399V358.056Z" fill="#2A0080"/>
<path d="M233.953 416.772L261.832 356.443C262.101 355.905 262.549 355.457 263.356 355.457H264.252C265.148 355.457 265.507 355.905 265.776 356.443L293.386 416.772C293.924 417.937 293.207 419.103 291.862 419.103H284.063C282.718 419.103 282.091 418.565 281.463 417.31L277.07 407.629H250.267L245.874 417.31C245.515 418.206 244.708 419.103 243.274 419.103H235.475C234.13 419.103 233.413 417.938 233.951 416.772H233.953ZM272.678 397.678L263.714 377.957H263.445L254.66 397.678H272.678Z" fill="#2A0080"/>
<path d="M304.236 358.056C304.236 357.16 304.953 356.353 305.939 356.353H326.467C337.135 356.353 345.382 363.524 345.382 372.937C345.382 379.84 339.735 385.218 335.521 387.19C340.272 388.714 347.175 393.555 347.175 401.802C347.175 411.842 338.569 419.103 327.633 419.103H305.939C304.953 419.103 304.236 418.296 304.236 417.4V358.056ZM325.392 382.708C329.963 382.708 333.101 379.122 333.101 374.64C333.101 370.158 329.963 367.02 325.392 367.02H315.8V382.707L325.392 382.708ZM326.647 408.525C331.129 408.525 334.715 405.029 334.715 400.368C334.715 395.886 330.233 392.569 325.571 392.569H315.8V408.525H326.647Z" fill="#2A0080"/>
<path d="M389.935 355.456C407.863 355.456 422.206 369.888 422.206 387.817C422.206 405.746 407.863 419.998 389.935 419.998C372.007 419.998 357.753 405.745 357.753 387.817C357.753 369.889 372.006 355.456 389.935 355.456ZM389.935 408.345C401.23 408.345 410.553 399.112 410.553 387.817C410.553 376.522 401.23 367.11 389.935 367.11C378.64 367.11 369.407 376.522 369.407 387.817C369.407 399.112 378.64 408.345 389.935 408.345Z" fill="#2A0080"/>
<path d="M436.642 358.056C436.642 357.16 437.359 356.353 438.345 356.353H463.983C474.74 356.353 483.525 364.959 483.525 375.626C483.525 383.873 478.057 390.596 470.258 393.734L482.539 416.503C483.167 417.668 482.539 419.102 481.015 419.102H471.602C470.795 419.102 470.347 418.654 470.168 418.295L458.246 394.54H448.296V417.399C448.296 418.295 447.489 419.102 446.593 419.102H438.346C437.36 419.102 436.643 418.295 436.643 417.399L436.642 358.056ZM462.997 384.949C467.748 384.949 471.871 380.825 471.871 375.805C471.871 371.054 467.748 367.11 462.997 367.11H448.385V384.949H462.997Z" fill="#2A0080"/>
<path d="M490.878 416.772L518.758 356.443C519.027 355.905 519.475 355.457 520.282 355.457H521.178C522.074 355.457 522.432 355.905 522.701 356.443L550.311 416.772C550.849 417.937 550.132 419.103 548.787 419.103H540.988C539.643 419.103 539.016 418.565 538.389 417.31L533.995 407.629H507.193L502.8 417.31C502.441 418.206 501.633 419.103 500.199 419.103H492.401C491.056 419.103 490.338 417.938 490.876 416.772H490.878ZM529.604 397.678L520.639 377.957H520.37L511.586 397.678H529.604Z" fill="#2A0080"/>
<path d="M566.27 367.11H552.555C551.569 367.11 550.852 366.303 550.852 365.407V358.056C550.852 357.16 551.569 356.353 552.555 356.353H591.728C592.714 356.353 593.431 357.16 593.431 358.056V365.407C593.431 366.303 592.714 367.11 591.728 367.11H578.013V417.399C578.013 418.295 577.206 419.102 576.31 419.102H567.974C567.078 419.102 566.271 418.295 566.271 417.399L566.27 367.11Z" fill="#2A0080"/>
<path d="M605.446 358.056C605.446 357.16 606.253 356.353 607.149 356.353H615.485C616.382 356.353 617.188 357.16 617.188 358.056V417.399C617.188 418.295 616.382 419.102 615.485 419.102H607.149C606.253 419.102 605.446 418.295 605.446 417.399V358.056Z" fill="#2A0080"/>
<path d="M628.036 358.684C627.498 357.519 628.215 356.353 629.56 356.353H638.703C639.51 356.353 640.048 356.891 640.227 357.339L657.438 395.885H658.066L675.277 357.339C675.456 356.891 675.994 356.353 676.801 356.353H685.944C687.289 356.353 688.006 357.518 687.468 358.684L659.679 419.013C659.41 419.551 658.962 419.999 658.155 419.999H657.259C656.453 419.999 656.004 419.551 655.736 419.013L628.036 358.684Z" fill="#2A0080"/>
<path d="M698.318 358.056C698.318 357.16 699.035 356.353 700.021 356.353H736.505C737.491 356.353 738.208 357.16 738.208 358.056V365.407C738.208 366.303 737.491 367.11 736.505 367.11H709.971V381.811H732.112C733.008 381.811 733.815 382.618 733.815 383.514V390.954C733.815 391.94 733.008 392.657 732.112 392.657H709.971V408.344H736.505C737.491 408.344 738.208 409.151 738.208 410.047V417.398C738.208 418.294 737.491 419.101 736.505 419.101H700.021C699.035 419.101 698.318 418.294 698.318 417.398V358.055V358.056Z" fill="#2A0080"/>
<defs>
<linearGradient id="paint0_linear_201_1594" x1="319.392" y1="28.8218" x2="409.989" y2="196.288" gradientUnits="userSpaceOnUse">
<stop offset="0.1" stop-color="#FF6D00"/>
<stop offset="0.5" stop-color="#FF2100"/>
<stop offset="0.9" stop-color="#6300C7"/>
</linearGradient>
</defs>
</svg>
