<svg width="1018" height="220" viewBox="0 0 1018 220" fill="none" xmlns="http://www.w3.org/2000/svg">
<path d="M109.859 154.047L86.9748 114.726C86.7008 114.256 86.7008 113.675 86.9748 113.204L111.769 70.587C112.353 69.584 113.803 69.58 114.392 70.581L125.756 89.905C126.029 90.369 126.527 90.653 127.066 90.653H208.691C209.679 90.653 210.404 89.726 210.164 88.769L209.427 85.836C198.23 41.294 158.019 10.162 111.59 10.031C111.421 10.028 111.259 9.99902 111.091 9.99902C111.073 9.99902 111.051 9.99902 111.033 10.001C110.756 10.001 110.489 10.047 110.213 10.055C80.2819 10.369 52.2568 23.607 33.1858 46.526C13.8888 69.716 6.23485 100.233 12.1798 130.253C20.0428 169.955 52.4529 201.384 92.8269 208.464C98.0229 209.375 103.261 209.868 108.494 210.001L114.979 209.919C135.172 209.212 154.957 202.907 171.436 191.477C191.951 177.248 205.464 156.836 209.484 134.002L209.971 131.234C210.134 130.307 209.419 129.457 208.476 129.457H127.784C127.245 129.456 126.746 129.741 126.474 130.205L112.483 154.053C111.895 155.055 110.444 155.052 109.86 154.048L109.859 154.047ZM113.047 202.28C111.694 202.305 110.338 202.299 108.983 202.268C108.926 202.267 108.869 202.263 108.813 202.257C102.076 201.556 96.1658 197.811 92.7289 191.891L45.6218 110.748C45.3489 110.278 45.3489 109.698 45.6218 109.228L58.8588 86.476C59.4438 85.47 60.8998 85.47 61.4848 86.476L125.002 195.615C125.38 196.265 125.217 197.084 124.637 197.564C121.434 200.216 117.492 201.857 113.216 202.27C113.16 202.275 113.103 202.279 113.046 202.28H113.047ZM65.1388 77.206C64.8648 76.736 64.8648 76.155 65.1388 75.684L92.7289 28.262C96.4109 21.935 102.919 18.096 110.239 17.815C110.591 17.811 110.941 17.786 111.295 17.786C111.47 17.786 111.642 17.806 111.817 17.807C118.157 18.017 123.875 20.918 127.711 25.784C128.089 26.264 128.117 26.935 127.81 27.463L83.3198 103.934C82.7348 104.94 81.2788 104.94 80.6938 103.934L65.1388 77.206ZM118.033 59.823L131.626 36.458C132.21 35.454 133.662 35.452 134.249 36.453L160.159 80.614C160.752 81.624 160.022 82.895 158.849 82.895H131.577C131.038 82.895 130.54 82.61 130.267 82.147L118.036 61.351C117.759 60.88 117.757 60.296 118.032 59.823H118.033ZM198.377 82.894H171.437C170.898 82.894 170.399 82.609 170.127 82.144L136.189 24.3C136.082 24.118 135.973 23.937 135.862 23.759C135.129 22.585 136.229 21.117 137.56 21.502C166.557 29.872 190.086 51.808 199.826 80.91C200.153 81.886 199.407 82.894 198.377 82.894ZM39.2438 51.459C51.1918 37.098 66.9579 26.875 84.4909 21.69C85.8219 21.296 86.9268 22.758 86.2029 23.94C86.1118 24.089 86.0218 24.24 85.9328 24.392L23.2988 132.048C22.6108 133.231 20.8168 132.974 20.5028 131.643C20.2778 130.688 20.0688 129.728 19.8768 128.762C14.3858 101.026 21.4438 72.851 39.2438 51.459ZM25.1998 144.334L39.3388 120.031C39.9248 119.025 41.3808 119.025 41.9658 120.032L70.0028 168.326C70.6588 169.456 81.9028 188.597 86.6378 196.4C87.3518 197.577 86.2458 199.026 84.9208 198.649C57.8608 190.937 35.7588 171.165 25.1088 145.688C24.9248 145.248 24.9608 144.746 25.2008 144.334H25.1998ZM166.936 185.123C157.997 191.323 148.001 195.9 137.495 198.765C136.166 199.127 135.078 197.664 135.812 196.501C135.946 196.289 136.077 196.073 136.205 195.855L170.127 137.965C170.399 137.5 170.898 137.215 171.438 137.215H198.856C199.847 137.215 200.585 138.151 200.329 139.106C195.445 157.287 183.768 173.448 166.936 185.123ZM160.166 139.495L131.993 187.573C131.406 188.575 129.953 188.573 129.369 187.569L116.129 164.819C115.854 164.347 115.855 163.764 116.132 163.293L130.991 137.964C131.263 137.5 131.762 137.214 132.301 137.214H158.855C160.028 137.214 160.758 138.485 160.166 139.495Z" fill="white"/>
<path d="M305.189 44.5259C312.177 44.5259 317.228 46.8789 321.933 50.9609C322.556 51.5139 322.556 52.3449 322.002 52.8979L318.958 56.0119C318.474 56.6349 317.851 56.6349 317.228 56.0119C313.976 53.1749 309.548 51.3759 305.258 51.3759C295.364 51.3759 287.892 59.6789 287.892 69.3649C287.892 79.0509 295.433 87.2849 305.328 87.2849C310.379 87.2849 313.907 85.2789 317.229 82.7189C317.851 82.2349 318.474 82.3039 318.89 82.6499L322.072 85.7639C322.625 86.2479 322.487 87.1479 322.003 87.6319C317.298 92.1979 311.348 94.3429 305.19 94.3429C291.352 94.3429 280.213 83.3419 280.213 69.5039C280.213 55.6659 291.353 44.5269 305.19 44.5269L305.189 44.5259Z" fill="white"/>
<path d="M361.302 44.5259C375.14 44.5259 386.21 55.6659 386.21 69.5029C386.21 83.3399 375.14 94.3419 361.302 94.3419C347.464 94.3419 336.463 83.3409 336.463 69.5029C336.463 55.6649 347.464 44.5259 361.302 44.5259ZM361.302 87.4229C371.196 87.4229 379.291 79.3969 379.291 69.5029C379.291 59.6779 371.196 51.4449 361.302 51.4449C351.477 51.4449 343.382 59.6779 343.382 69.5029C343.382 79.3969 351.477 87.4229 361.302 87.4229Z" fill="white"/>
<path d="M401.293 86.6629C401.916 85.7629 402.47 84.7248 403.093 83.8259C403.716 82.9269 404.684 82.6499 405.446 83.2729C405.861 83.6189 411.188 88.0469 416.516 88.0469C421.29 88.0469 424.334 85.1409 424.334 81.6119C424.334 77.4609 420.736 74.8309 413.886 71.9949C406.829 69.0199 401.293 65.3529 401.293 57.3269C401.293 51.9299 405.446 44.5269 416.446 44.5269C423.365 44.5269 428.554 48.1249 429.246 48.6089C429.8 48.9549 430.352 49.9239 429.66 50.9619C429.107 51.7919 428.485 52.7609 427.931 53.5909C427.378 54.4909 426.478 54.9049 425.509 54.2829C425.025 54.0059 420.181 50.8229 416.168 50.8229C410.356 50.8229 408.349 54.4899 408.349 57.0499C408.349 60.9939 411.394 63.4149 417.137 65.7679C425.163 69.0199 432.013 72.8249 432.013 81.2659C432.013 88.4619 425.578 94.3429 416.584 94.3429C408.143 94.3429 402.814 89.9149 401.707 88.8769C401.084 88.3229 400.601 87.8389 401.293 86.6629Z" fill="white"/>
<path d="M456.507 51.7218H445.229C444.468 51.7218 443.915 51.0988 443.915 50.4078V46.5328C443.915 45.8408 444.468 45.2178 445.229 45.2178H474.981C475.742 45.2178 476.296 45.8408 476.296 46.5328V50.4078C476.296 51.0998 475.743 51.7218 474.981 51.7218H463.703V92.3358C463.703 93.0278 463.08 93.6508 462.388 93.6508H457.821C457.129 93.6508 456.507 93.0278 456.507 92.3358V51.7218Z" fill="white"/>
<path d="M521.796 59.9415V59.7625L519.734 57.5215C516.238 53.8455 513.459 49.9015 513.548 44.5225C513.548 37.7095 518.927 29.9995 529.954 29.9995C539.815 29.9995 546.001 36.4545 546.001 44.2545C546.001 52.8605 537.395 58.5985 533.899 61.0195L546.45 73.5705C548.422 69.8055 549.588 65.2325 549.856 60.6605C549.945 58.6885 550.663 58.1505 552.366 58.5095L556.042 59.2265C558.104 59.5845 557.656 61.1985 557.566 62.0055C556.849 68.7295 554.338 75.1845 552.097 79.2185L560.435 87.2875C561.511 88.3635 562.317 89.3495 560.256 91.4115L557.925 93.7425C556.849 94.7285 555.415 94.9085 554.07 93.4735L546.988 86.3015C543.76 89.9775 537.306 94.5495 527.444 94.5495C516.148 94.5495 509.335 86.8395 509.335 77.8745C509.335 67.1165 518.569 61.8275 521.797 59.9445L521.796 59.9415ZM528.161 87.0155C534.616 87.0155 539.009 83.6085 541.609 80.5605L526.637 64.7825C523.858 66.4855 517.851 70.2515 517.851 77.3335C517.851 82.9815 522.423 87.0155 528.161 87.0155ZM538.022 44.6105C538.022 40.7555 534.884 36.9005 529.506 36.9005C524.485 36.9005 521.527 40.3965 521.527 44.6105C521.437 48.1065 523.678 50.7065 526.726 53.7545L528.698 55.7265C531.387 54.1125 538.021 50.6165 538.021 44.6095L538.022 44.6105Z" fill="white"/>
<path d="M618.939 44.5259C625.927 44.5259 630.978 46.8789 635.683 50.9609C636.306 51.5139 636.306 52.3449 635.752 52.8979L632.708 56.0119C632.224 56.6349 631.601 56.6349 630.978 56.0119C627.726 53.1749 623.298 51.3759 619.008 51.3759C609.114 51.3759 601.642 59.6789 601.642 69.3649C601.642 79.0509 609.183 87.2849 619.078 87.2849C624.129 87.2849 627.657 85.2789 630.979 82.7189C631.601 82.2349 632.224 82.3039 632.64 82.6499L635.822 85.7639C636.375 86.2479 636.237 87.1479 635.753 87.6319C631.048 92.1979 625.098 94.3429 618.94 94.3429C605.102 94.3429 593.963 83.3419 593.963 69.5039C593.963 55.6659 605.103 44.5269 618.94 44.5269L618.939 44.5259Z" fill="white"/>
<path d="M675.052 44.5259C688.89 44.5259 699.96 55.6659 699.96 69.5029C699.96 83.3399 688.89 94.3419 675.052 94.3419C661.214 94.3419 650.213 83.3409 650.213 69.5029C650.213 55.6649 661.214 44.5259 675.052 44.5259ZM675.052 87.4229C684.946 87.4229 693.041 79.3969 693.041 69.5029C693.041 59.6779 684.946 51.4449 675.052 51.4449C665.227 51.4449 657.132 59.6779 657.132 69.5029C657.132 79.3969 665.227 87.4229 675.052 87.4229Z" fill="white"/>
<path d="M711.377 47.0168C710.962 46.1178 711.515 45.2178 712.553 45.2178H717.466C718.019 45.2178 718.504 45.6328 718.642 45.9788L733.863 80.2278H734.278L749.5 45.9788C749.638 45.6328 750.053 45.2178 750.676 45.2178H755.588C756.626 45.2178 757.18 46.1178 756.764 47.0168L735.523 93.5808C735.315 93.9958 734.9 94.3418 734.347 94.3418H733.655C733.171 94.3418 732.686 93.9958 732.479 93.5808L711.377 47.0168Z" fill="white"/>
<path d="M772.056 46.5328C772.056 45.8408 772.609 45.2178 773.37 45.2178H801.046C801.807 45.2178 802.361 45.8408 802.361 46.5328V50.4078C802.361 51.0998 801.807 51.7218 801.046 51.7218H779.182V65.8368H797.656C798.348 65.8368 798.971 66.4598 798.971 67.1508V71.0258C798.971 71.7868 798.348 72.3408 797.656 72.3408H779.182V87.2168H801.046C801.807 87.2168 802.361 87.8398 802.361 88.5318V92.3368C802.361 93.0288 801.807 93.6518 801.046 93.6518H773.37C772.609 93.6518 772.056 93.0288 772.056 92.3368V46.5328Z" fill="white"/>
<path d="M821.111 46.5328C821.111 45.8408 821.664 45.2178 822.425 45.2178H841.245C849.548 45.2178 856.328 51.7908 856.328 60.0248C856.328 66.3908 852.108 71.6488 846.088 74.0708L855.567 91.6448C856.051 92.5438 855.567 93.6518 854.391 93.6518H848.994C848.441 93.6518 848.026 93.3058 847.887 93.0288L838.685 74.6938H828.237V92.3368C828.237 93.0288 827.615 93.6518 826.923 93.6518H822.425C821.664 93.6518 821.111 93.0288 821.111 92.3368V46.5328ZM840.692 68.7428C845.189 68.7428 849.133 64.9378 849.133 60.1628C849.133 55.6658 845.189 51.9298 840.692 51.9298H828.376V68.7428H840.692Z" fill="white"/>
<path d="M868.921 91.8509L890.162 45.2869C890.369 44.8719 890.992 44.5259 891.338 44.5259H892.03C892.376 44.5259 892.999 44.8719 893.206 45.2869L914.309 91.8509C914.724 92.7509 914.171 93.6499 913.133 93.6499H908.774C907.944 93.6499 907.459 93.2349 907.183 92.6119L902.893 83.1329H880.268C878.884 86.3159 877.431 89.4289 876.047 92.6119C875.84 93.0959 875.286 93.6499 874.456 93.6499H870.097C869.059 93.6499 868.506 92.7499 868.921 91.8509ZM900.264 77.1829L891.754 58.2249H891.408L882.967 77.1829H900.264Z" fill="white"/>
<path d="M950.633 44.5259C957.275 44.5259 962.741 46.9479 967.446 50.9609C967.999 51.5139 968.068 52.3449 967.515 52.8979C966.477 54.0049 965.439 55.0429 964.402 56.1499C963.849 56.7729 963.295 56.7039 962.603 56.0809C959.351 53.2439 955.062 51.3759 950.841 51.3759C941.016 51.3759 933.474 59.6789 933.474 69.3649C933.474 78.9829 941.015 87.2849 950.841 87.2849C956.584 87.2849 960.528 85.2089 961.219 84.9329V77.1839H954.438C953.677 77.1839 953.124 76.6309 953.124 75.9389V71.9259C953.124 71.1649 953.677 70.6119 954.438 70.6119H967.03C967.722 70.6119 968.276 71.2349 968.276 71.9259C968.276 77.4609 968.345 83.1349 968.345 88.6699C968.345 89.0159 968.068 89.5699 967.792 89.7769C967.792 89.7769 960.665 94.3439 950.633 94.3439C936.864 94.3439 925.725 83.3429 925.725 69.5049C925.725 55.6669 936.864 44.5279 950.633 44.5279V44.5259Z" fill="white"/>
<path d="M987.51 46.5328C987.51 45.8408 988.064 45.2178 988.825 45.2178H1016.5C1017.26 45.2178 1017.81 45.8408 1017.81 46.5328V50.4078C1017.81 51.0998 1017.26 51.7218 1016.5 51.7218H994.637V65.8368H1013.11C1013.8 65.8368 1014.42 66.4598 1014.42 67.1508V71.0258C1014.42 71.7868 1013.8 72.3408 1013.11 72.3408H994.637V87.2168H1016.5C1017.26 87.2168 1017.81 87.8398 1017.81 88.5318V92.3368C1017.81 93.0288 1017.26 93.6518 1016.5 93.6518H988.825C988.064 93.6518 987.51 93.0288 987.51 92.3368V46.5328Z" fill="white"/>
<path d="M312.572 125.456C321.626 125.456 328.169 128.325 334.265 133.793C335.072 134.51 335.072 135.586 334.354 136.303L328.886 141.951C328.258 142.668 327.362 142.668 326.645 141.951C322.88 138.634 317.86 136.662 312.84 136.662C301.366 136.662 292.85 146.253 292.85 157.549C292.85 168.754 301.456 178.256 312.93 178.256C318.309 178.256 322.88 176.194 326.645 173.146C327.362 172.518 328.348 172.608 328.886 173.146L334.444 178.883C335.161 179.511 334.982 180.676 334.354 181.303C328.259 187.219 320.549 189.998 312.571 189.998C294.642 189.998 280.21 175.745 280.21 157.817C280.21 139.889 294.642 125.456 312.571 125.456H312.572Z" fill="white"/>
<path d="M376.222 125.456C394.15 125.456 408.493 139.888 408.493 157.817C408.493 175.746 394.15 189.998 376.222 189.998C358.294 189.998 344.04 175.745 344.04 157.817C344.04 139.889 358.293 125.456 376.222 125.456ZM376.222 178.345C387.517 178.345 396.84 169.112 396.84 157.817C396.84 146.522 387.517 137.11 376.222 137.11C364.927 137.11 355.694 146.522 355.694 157.817C355.694 169.112 364.927 178.345 376.222 178.345Z" fill="white"/>
<path d="M422.927 128.056C422.927 127.16 423.644 126.353 424.63 126.353H432.878C433.774 126.353 434.581 127.16 434.581 128.056V178.345H457.44C458.426 178.345 459.142 179.152 459.142 180.048V187.399C459.142 188.295 458.426 189.102 457.44 189.102H424.63C423.644 189.102 422.927 188.295 422.927 187.399V128.056Z" fill="white"/>
<path d="M470.888 128.056C470.888 127.16 471.605 126.353 472.591 126.353H480.838C481.734 126.353 482.541 127.16 482.541 128.056V178.345H505.4C506.386 178.345 507.103 179.152 507.103 180.048V187.399C507.103 188.295 506.386 189.102 505.4 189.102H472.591C471.605 189.102 470.888 188.295 470.888 187.399V128.056Z" fill="white"/>
<path d="M513.559 186.772L541.438 126.443C541.707 125.905 542.155 125.457 542.962 125.457H543.858C544.754 125.457 545.113 125.905 545.382 126.443L572.992 186.772C573.53 187.937 572.813 189.103 571.468 189.103H563.669C562.324 189.103 561.697 188.565 561.069 187.31L556.676 177.629H529.873L525.48 187.31C525.121 188.206 524.314 189.103 522.88 189.103H515.081C513.736 189.103 513.019 187.938 513.557 186.772H513.559ZM552.284 167.678L543.32 147.957H543.051L534.266 167.678H552.284Z" fill="white"/>
<path d="M583.842 128.056C583.842 127.16 584.559 126.353 585.545 126.353H606.073C616.741 126.353 624.988 133.524 624.988 142.937C624.988 149.84 619.341 155.218 615.127 157.19C619.878 158.714 626.781 163.555 626.781 171.802C626.781 181.842 618.175 189.103 607.239 189.103H585.545C584.559 189.103 583.842 188.296 583.842 187.4V128.056ZM604.998 152.708C609.569 152.708 612.707 149.122 612.707 144.64C612.707 140.158 609.569 137.02 604.998 137.02H595.406V152.707L604.998 152.708ZM606.253 178.525C610.735 178.525 614.321 175.029 614.321 170.368C614.321 165.886 609.839 162.569 605.177 162.569H595.406V178.525H606.253Z" fill="white"/>
<path d="M669.541 125.456C687.469 125.456 701.812 139.888 701.812 157.817C701.812 175.746 687.469 189.998 669.541 189.998C651.613 189.998 637.359 175.745 637.359 157.817C637.359 139.889 651.612 125.456 669.541 125.456ZM669.541 178.345C680.836 178.345 690.159 169.112 690.159 157.817C690.159 146.522 680.836 137.11 669.541 137.11C658.246 137.11 649.013 146.522 649.013 157.817C649.013 169.112 658.246 178.345 669.541 178.345Z" fill="white"/>
<path d="M716.248 128.056C716.248 127.16 716.965 126.353 717.951 126.353H743.589C754.346 126.353 763.131 134.959 763.131 145.626C763.131 153.873 757.663 160.596 749.864 163.734L762.145 186.503C762.773 187.668 762.145 189.102 760.621 189.102H751.208C750.401 189.102 749.953 188.654 749.774 188.295L737.852 164.54H727.902V187.399C727.902 188.295 727.095 189.102 726.199 189.102H717.952C716.966 189.102 716.249 188.295 716.249 187.399L716.248 128.056ZM742.603 154.949C747.354 154.949 751.477 150.825 751.477 145.805C751.477 141.054 747.354 137.11 742.603 137.11H727.991V154.949H742.603Z" fill="white"/>
<path d="M770.484 186.772L798.363 126.443C798.632 125.905 799.08 125.457 799.887 125.457H800.783C801.679 125.457 802.038 125.905 802.307 126.443L829.917 186.772C830.455 187.937 829.738 189.103 828.393 189.103H820.594C819.249 189.103 818.622 188.565 817.994 187.31L813.601 177.629H786.798L782.405 187.31C782.046 188.206 781.239 189.103 779.805 189.103H772.006C770.661 189.103 769.944 187.938 770.482 186.772H770.484ZM809.209 167.678L800.245 147.957H799.976L791.191 167.678H809.209Z" fill="white"/>
<path d="M845.876 137.11H832.161C831.175 137.11 830.458 136.303 830.458 135.407V128.056C830.458 127.16 831.175 126.353 832.161 126.353H871.334C872.32 126.353 873.037 127.16 873.037 128.056V135.407C873.037 136.303 872.32 137.11 871.334 137.11H857.619V187.399C857.619 188.295 856.812 189.102 855.916 189.102H847.58C846.684 189.102 845.877 188.295 845.877 187.399L845.876 137.11Z" fill="white"/>
<path d="M885.052 128.056C885.052 127.16 885.859 126.353 886.755 126.353H895.091C895.988 126.353 896.794 127.16 896.794 128.056V187.399C896.794 188.295 895.988 189.102 895.091 189.102H886.755C885.859 189.102 885.052 188.295 885.052 187.399V128.056Z" fill="white"/>
<path d="M907.642 128.684C907.104 127.519 907.821 126.353 909.166 126.353H918.309C919.116 126.353 919.654 126.891 919.833 127.339L937.044 165.885H937.672L954.883 127.339C955.062 126.891 955.6 126.353 956.407 126.353H965.55C966.895 126.353 967.612 127.518 967.074 128.684L939.285 189.013C939.016 189.551 938.568 189.999 937.761 189.999H936.865C936.059 189.999 935.61 189.551 935.342 189.013L907.642 128.684Z" fill="white"/>
<path d="M977.924 128.056C977.924 127.16 978.641 126.353 979.627 126.353H1016.11C1017.1 126.353 1017.81 127.16 1017.81 128.056V135.407C1017.81 136.303 1017.1 137.11 1016.11 137.11H989.577V151.811H1011.72C1012.61 151.811 1013.42 152.618 1013.42 153.514V160.954C1013.42 161.94 1012.61 162.657 1011.72 162.657H989.577V178.344H1016.11C1017.1 178.344 1017.81 179.151 1017.81 180.047V187.398C1017.81 188.294 1017.1 189.101 1016.11 189.101H979.627C978.641 189.101 977.924 188.294 977.924 187.398V128.055V128.056Z" fill="white"/>
</svg>
