<svg width="220" height="220" viewBox="0 0 220 220" fill="none" xmlns="http://www.w3.org/2000/svg">
<path d="M109.649 154.048L86.7651 114.727C86.4911 114.257 86.4911 113.676 86.7651 113.205L111.559 70.588C112.143 69.585 113.593 69.581 114.182 70.582L125.546 89.906C125.819 90.37 126.317 90.654 126.856 90.654H208.481C209.469 90.654 210.194 89.727 209.954 88.77L209.217 85.837C198.02 41.295 157.809 10.163 111.38 10.032C111.211 10.029 111.049 10 110.881 10C110.863 10 110.841 10 110.823 10.002C110.546 10.002 110.279 10.048 110.003 10.056C80.0721 10.37 52.0471 23.608 32.9761 46.527C13.6791 69.717 6.02513 100.234 11.9701 130.254C19.8331 169.956 52.2431 201.385 92.6171 208.465C97.8131 209.376 103.051 209.869 108.284 210.002L114.769 209.92C134.962 209.213 154.747 202.908 171.226 191.478C191.741 177.249 205.254 156.837 209.274 134.003L209.761 131.235C209.924 130.308 209.209 129.458 208.266 129.458H127.574C127.035 129.457 126.536 129.742 126.264 130.206L112.273 154.054C111.685 155.056 110.234 155.053 109.65 154.049L109.649 154.048ZM112.837 202.281C111.484 202.306 110.128 202.3 108.773 202.269C108.716 202.268 108.659 202.264 108.603 202.258C101.866 201.557 95.9561 197.812 92.5191 191.892L45.4121 110.749C45.1391 110.279 45.1391 109.699 45.4121 109.229L58.6491 86.477C59.2341 85.471 60.6901 85.471 61.2751 86.477L124.792 195.616C125.17 196.266 125.007 197.085 124.427 197.565C121.224 200.217 117.282 201.858 113.006 202.271C112.95 202.276 112.893 202.28 112.836 202.281H112.837ZM64.9291 77.207C64.6551 76.737 64.6551 76.156 64.9291 75.685L92.5191 28.263C96.2011 21.936 102.709 18.097 110.029 17.816C110.381 17.812 110.731 17.787 111.085 17.787C111.26 17.787 111.432 17.807 111.607 17.808C117.947 18.018 123.665 20.919 127.501 25.785C127.879 26.265 127.907 26.936 127.6 27.464L83.1101 103.935C82.5251 104.941 81.0691 104.941 80.4841 103.935L64.9291 77.207ZM117.823 59.824L131.416 36.459C132 35.455 133.452 35.453 134.039 36.454L159.949 80.615C160.542 81.625 159.812 82.896 158.639 82.896H131.367C130.828 82.896 130.33 82.611 130.057 82.148L117.826 61.352C117.549 60.881 117.547 60.297 117.822 59.824H117.823ZM198.167 82.895H171.227C170.688 82.895 170.189 82.61 169.917 82.145L135.979 24.301C135.872 24.119 135.763 23.938 135.652 23.76C134.919 22.586 136.019 21.118 137.35 21.503C166.347 29.873 189.876 51.809 199.616 80.911C199.943 81.887 199.197 82.895 198.167 82.895ZM39.0341 51.46C50.9821 37.099 66.7481 26.876 84.2811 21.691C85.6121 21.297 86.7171 22.759 85.9931 23.941C85.9021 24.09 85.8121 24.241 85.7231 24.393L23.0891 132.049C22.4011 133.232 20.6071 132.975 20.2931 131.644C20.0681 130.689 19.8591 129.729 19.6671 128.763C14.1761 101.027 21.2341 72.852 39.0341 51.46ZM24.9901 144.335L39.1291 120.032C39.7151 119.026 41.1711 119.026 41.7561 120.033L69.7931 168.327C70.4491 169.457 81.6931 188.598 86.4281 196.401C87.1421 197.578 86.0361 199.027 84.7111 198.65C57.6511 190.938 35.5491 171.166 24.8991 145.689C24.7151 145.249 24.7511 144.747 24.9911 144.335H24.9901ZM166.726 185.124C157.787 191.324 147.791 195.901 137.285 198.766C135.956 199.128 134.868 197.665 135.602 196.502C135.736 196.29 135.867 196.074 135.995 195.856L169.917 137.966C170.189 137.501 170.688 137.216 171.228 137.216H198.646C199.637 137.216 200.375 138.152 200.119 139.107C195.235 157.288 183.558 173.449 166.726 185.124ZM159.956 139.496L131.783 187.574C131.196 188.576 129.743 188.574 129.159 187.57L115.919 164.82C115.644 164.348 115.645 163.765 115.922 163.294L130.781 137.965C131.053 137.501 131.552 137.215 132.091 137.215H158.645C159.818 137.215 160.548 138.486 159.956 139.496Z" fill="url(#paint0_linear_65_466)"/>
<defs>
<linearGradient id="paint0_linear_65_466" x1="59.985" y1="28.8218" x2="150.582" y2="196.288" gradientUnits="userSpaceOnUse">
<stop offset="0.1" stop-color="#FF6D00"/>
<stop offset="0.5" stop-color="#FF2100"/>
<stop offset="0.9" stop-color="#6300C7"/>
</linearGradient>
</defs>
</svg>
