<svg width="1019" height="220" viewBox="0 0 1019 220" fill="none" xmlns="http://www.w3.org/2000/svg">
<path d="M110.254 154.047L87.3696 114.726C87.0956 114.256 87.0956 113.675 87.3696 113.204L112.164 70.587C112.748 69.584 114.198 69.58 114.787 70.581L126.151 89.905C126.424 90.369 126.922 90.653 127.461 90.653H209.086C210.074 90.653 210.799 89.726 210.559 88.769L209.822 85.836C198.625 41.294 158.414 10.162 111.985 10.031C111.816 10.028 111.654 9.99902 111.486 9.99902C111.468 9.99902 111.446 9.99902 111.428 10.001C111.151 10.001 110.884 10.047 110.608 10.055C80.6766 10.369 52.6516 23.607 33.5806 46.526C14.2836 69.716 6.62962 100.233 12.5746 130.253C20.4376 169.955 52.8476 201.384 93.2216 208.464C98.4176 209.375 103.656 209.868 108.889 210.001L115.374 209.919C135.567 209.212 155.352 202.907 171.831 191.477C192.346 177.248 205.859 156.836 209.879 134.002L210.366 131.234C210.529 130.307 209.814 129.457 208.871 129.457H128.179C127.64 129.456 127.141 129.741 126.869 130.205L112.878 154.053C112.29 155.055 110.839 155.052 110.255 154.048L110.254 154.047ZM113.442 202.28C112.089 202.305 110.733 202.299 109.378 202.268C109.321 202.267 109.264 202.263 109.208 202.257C102.471 201.556 96.5606 197.811 93.1236 191.891L46.0166 110.748C45.7436 110.278 45.7436 109.698 46.0166 109.228L59.2536 86.476C59.8386 85.47 61.2946 85.47 61.8796 86.476L125.397 195.615C125.775 196.265 125.612 197.084 125.032 197.564C121.829 200.216 117.887 201.857 113.611 202.27C113.555 202.275 113.498 202.279 113.441 202.28H113.442ZM65.5336 77.206C65.2596 76.736 65.2596 76.155 65.5336 75.684L93.1236 28.262C96.8056 21.935 103.314 18.096 110.634 17.815C110.986 17.811 111.336 17.786 111.69 17.786C111.865 17.786 112.037 17.806 112.212 17.807C118.552 18.017 124.27 20.918 128.106 25.784C128.484 26.264 128.512 26.935 128.205 27.463L83.7146 103.934C83.1296 104.94 81.6736 104.94 81.0886 103.934L65.5336 77.206ZM118.428 59.823L132.021 36.458C132.605 35.454 134.057 35.452 134.644 36.453L160.554 80.614C161.147 81.624 160.417 82.895 159.244 82.895H131.972C131.433 82.895 130.935 82.61 130.662 82.147L118.431 61.351C118.154 60.88 118.152 60.296 118.427 59.823H118.428ZM198.772 82.894H171.832C171.293 82.894 170.794 82.609 170.522 82.144L136.584 24.3C136.477 24.118 136.368 23.937 136.257 23.759C135.524 22.585 136.624 21.117 137.955 21.502C166.952 29.872 190.481 51.808 200.221 80.91C200.548 81.886 199.802 82.894 198.772 82.894ZM39.6386 51.459C51.5866 37.098 67.3526 26.875 84.8856 21.69C86.2166 21.296 87.3216 22.758 86.5976 23.94C86.5066 24.089 86.4166 24.24 86.3276 24.392L23.6936 132.048C23.0056 133.231 21.2116 132.974 20.8976 131.643C20.6726 130.688 20.4636 129.728 20.2716 128.762C14.7806 101.026 21.8386 72.851 39.6386 51.459ZM25.5946 144.334L39.7336 120.031C40.3196 119.025 41.7756 119.025 42.3606 120.032L70.3976 168.326C71.0536 169.456 82.2976 188.597 87.0326 196.4C87.7466 197.577 86.6406 199.026 85.3156 198.649C58.2556 190.937 36.1536 171.165 25.5036 145.688C25.3196 145.248 25.3556 144.746 25.5956 144.334H25.5946ZM167.331 185.123C158.392 191.323 148.396 195.9 137.89 198.765C136.561 199.127 135.473 197.664 136.207 196.501C136.341 196.289 136.472 196.073 136.6 195.855L170.522 137.965C170.794 137.5 171.293 137.215 171.833 137.215H199.251C200.242 137.215 200.98 138.151 200.724 139.106C195.84 157.287 184.163 173.448 167.331 185.123ZM160.561 139.495L132.388 187.573C131.801 188.575 130.348 188.573 129.764 187.569L116.524 164.819C116.249 164.347 116.25 163.764 116.527 163.293L131.386 137.964C131.658 137.5 132.157 137.214 132.696 137.214H159.25C160.423 137.214 161.153 138.485 160.561 139.495Z" fill="url(#paint0_linear_201_1593)"/>
<path d="M305.583 44.5259C312.571 44.5259 317.622 46.8789 322.327 50.9609C322.95 51.5139 322.95 52.3449 322.396 52.8979L319.352 56.0119C318.868 56.6349 318.245 56.6349 317.622 56.0119C314.37 53.1749 309.942 51.3759 305.652 51.3759C295.758 51.3759 288.286 59.6789 288.286 69.3649C288.286 79.0509 295.827 87.2849 305.722 87.2849C310.773 87.2849 314.301 85.2789 317.623 82.7189C318.245 82.2349 318.868 82.3039 319.284 82.6499L322.466 85.7639C323.019 86.2479 322.881 87.1479 322.397 87.6319C317.692 92.1979 311.742 94.3429 305.584 94.3429C291.746 94.3429 280.607 83.3419 280.607 69.5039C280.607 55.6659 291.747 44.5269 305.584 44.5269L305.583 44.5259Z" fill="#2A0080"/>
<path d="M361.696 44.5259C375.534 44.5259 386.604 55.6659 386.604 69.5029C386.604 83.3399 375.534 94.3419 361.696 94.3419C347.858 94.3419 336.857 83.3409 336.857 69.5029C336.857 55.6649 347.858 44.5259 361.696 44.5259ZM361.696 87.4229C371.59 87.4229 379.685 79.3969 379.685 69.5029C379.685 59.6779 371.59 51.4449 361.696 51.4449C351.871 51.4449 343.776 59.6779 343.776 69.5029C343.776 79.3969 351.871 87.4229 361.696 87.4229Z" fill="#2A0080"/>
<path d="M401.688 86.6629C402.311 85.7629 402.864 84.7248 403.487 83.8259C404.11 82.9269 405.078 82.6499 405.84 83.2729C406.255 83.6189 411.582 88.0469 416.91 88.0469C421.684 88.0469 424.728 85.1409 424.728 81.6119C424.728 77.4609 421.13 74.8309 414.28 71.9949C407.223 69.0199 401.688 65.3529 401.688 57.3269C401.688 51.9299 405.84 44.5269 416.84 44.5269C423.759 44.5269 428.948 48.1249 429.64 48.6089C430.194 48.9549 430.747 49.9239 430.055 50.9619C429.502 51.7919 428.879 52.7609 428.325 53.5909C427.772 54.4909 426.872 54.9049 425.903 54.2829C425.419 54.0059 420.575 50.8229 416.562 50.8229C410.75 50.8229 408.744 54.4899 408.744 57.0499C408.744 60.9939 411.788 63.4149 417.531 65.7679C425.557 69.0199 432.407 72.8249 432.407 81.2659C432.407 88.4619 425.972 94.3429 416.978 94.3429C408.537 94.3429 403.209 89.9149 402.102 88.8769C401.479 88.3229 400.996 87.8389 401.688 86.6629Z" fill="#2A0080"/>
<path d="M456.901 51.7218H445.623C444.862 51.7218 444.309 51.0988 444.309 50.4078V46.5328C444.309 45.8408 444.862 45.2178 445.623 45.2178H475.375C476.136 45.2178 476.69 45.8408 476.69 46.5328V50.4078C476.69 51.0998 476.137 51.7218 475.375 51.7218H464.097V92.3358C464.097 93.0278 463.474 93.6508 462.782 93.6508H458.215C457.523 93.6508 456.901 93.0278 456.901 92.3358V51.7218Z" fill="#2A0080"/>
<path d="M522.19 59.9415V59.7625L520.128 57.5215C516.632 53.8455 513.853 49.9015 513.942 44.5225C513.942 37.7095 519.321 29.9995 530.348 29.9995C540.209 29.9995 546.396 36.4545 546.396 44.2545C546.396 52.8605 537.789 58.5985 534.293 61.0195L546.844 73.5705C548.816 69.8055 549.982 65.2325 550.25 60.6605C550.339 58.6885 551.057 58.1505 552.76 58.5095L556.436 59.2265C558.498 59.5845 558.051 61.1985 557.961 62.0055C557.244 68.7295 554.733 75.1845 552.492 79.2185L560.829 87.2875C561.905 88.3635 562.712 89.3495 560.651 91.4115L558.32 93.7425C557.244 94.7285 555.809 94.9085 554.464 93.4735L547.383 86.3015C544.155 89.9775 537.701 94.5495 527.839 94.5495C516.543 94.5495 509.729 86.8395 509.729 77.8745C509.729 67.1165 518.963 61.8275 522.191 59.9445L522.19 59.9415ZM528.555 87.0155C535.01 87.0155 539.403 83.6085 542.003 80.5605L527.031 64.7825C524.252 66.4855 518.245 70.2515 518.245 77.3335C518.245 82.9815 522.817 87.0155 528.555 87.0155ZM538.417 44.6105C538.417 40.7555 535.278 36.9005 529.9 36.9005C524.879 36.9005 521.921 40.3965 521.921 44.6105C521.831 48.1065 524.072 50.7065 527.12 53.7545L529.092 55.7265C531.781 54.1125 538.415 50.6165 538.415 44.6095L538.417 44.6105Z" fill="#2A0080"/>
<path d="M619.333 44.5259C626.321 44.5259 631.372 46.8789 636.077 50.9609C636.7 51.5139 636.7 52.3449 636.146 52.8979L633.102 56.0119C632.618 56.6349 631.995 56.6349 631.372 56.0119C628.12 53.1749 623.692 51.3759 619.402 51.3759C609.508 51.3759 602.036 59.6789 602.036 69.3649C602.036 79.0509 609.577 87.2849 619.472 87.2849C624.523 87.2849 628.051 85.2789 631.373 82.7189C631.995 82.2349 632.618 82.3039 633.034 82.6499L636.216 85.7639C636.769 86.2479 636.631 87.1479 636.147 87.6319C631.442 92.1979 625.492 94.3429 619.334 94.3429C605.496 94.3429 594.357 83.3419 594.357 69.5039C594.357 55.6659 605.497 44.5269 619.334 44.5269L619.333 44.5259Z" fill="#2A0080"/>
<path d="M675.446 44.5259C689.284 44.5259 700.354 55.6659 700.354 69.5029C700.354 83.3399 689.284 94.3419 675.446 94.3419C661.608 94.3419 650.607 83.3409 650.607 69.5029C650.607 55.6649 661.608 44.5259 675.446 44.5259ZM675.446 87.4229C685.34 87.4229 693.435 79.3969 693.435 69.5029C693.435 59.6779 685.34 51.4449 675.446 51.4449C665.621 51.4449 657.526 59.6779 657.526 69.5029C657.526 79.3969 665.621 87.4229 675.446 87.4229Z" fill="#2A0080"/>
<path d="M711.771 47.0168C711.356 46.1178 711.909 45.2178 712.947 45.2178H717.86C718.413 45.2178 718.898 45.6328 719.036 45.9788L734.257 80.2278H734.672L749.894 45.9788C750.032 45.6328 750.447 45.2178 751.07 45.2178H755.982C757.02 45.2178 757.574 46.1178 757.158 47.0168L735.917 93.5808C735.709 93.9958 735.294 94.3418 734.741 94.3418H734.049C733.565 94.3418 733.08 93.9958 732.873 93.5808L711.771 47.0168Z" fill="#2A0080"/>
<path d="M772.45 46.5328C772.45 45.8408 773.003 45.2178 773.764 45.2178H801.44C802.201 45.2178 802.755 45.8408 802.755 46.5328V50.4078C802.755 51.0998 802.201 51.7218 801.44 51.7218H779.576V65.8368H798.05C798.742 65.8368 799.365 66.4598 799.365 67.1508V71.0258C799.365 71.7868 798.742 72.3408 798.05 72.3408H779.576V87.2168H801.44C802.201 87.2168 802.755 87.8398 802.755 88.5318V92.3368C802.755 93.0288 802.201 93.6518 801.44 93.6518H773.764C773.003 93.6518 772.45 93.0288 772.45 92.3368V46.5328Z" fill="#2A0080"/>
<path d="M821.505 46.5328C821.505 45.8408 822.058 45.2178 822.819 45.2178H841.639C849.942 45.2178 856.722 51.7908 856.722 60.0248C856.722 66.3908 852.502 71.6488 846.482 74.0708L855.961 91.6448C856.445 92.5438 855.961 93.6518 854.785 93.6518H849.388C848.835 93.6518 848.42 93.3058 848.281 93.0288L839.079 74.6938H828.631V92.3368C828.631 93.0288 828.009 93.6518 827.317 93.6518H822.819C822.058 93.6518 821.505 93.0288 821.505 92.3368V46.5328ZM841.086 68.7428C845.583 68.7428 849.527 64.9378 849.527 60.1628C849.527 55.6658 845.583 51.9298 841.086 51.9298H828.77V68.7428H841.086Z" fill="#2A0080"/>
<path d="M869.315 91.8509L890.556 45.2869C890.763 44.8719 891.386 44.5259 891.732 44.5259H892.424C892.77 44.5259 893.393 44.8719 893.6 45.2869L914.703 91.8509C915.118 92.7509 914.565 93.6499 913.527 93.6499H909.168C908.338 93.6499 907.853 93.2349 907.577 92.6119L903.287 83.1329H880.662C879.278 86.3159 877.825 89.4289 876.441 92.6119C876.234 93.0959 875.68 93.6499 874.85 93.6499H870.491C869.453 93.6499 868.9 92.7499 869.315 91.8509ZM900.658 77.1829L892.148 58.2249H891.802L883.361 77.1829H900.658Z" fill="#2A0080"/>
<path d="M951.027 44.5259C957.669 44.5259 963.135 46.9479 967.84 50.9609C968.393 51.5139 968.462 52.3449 967.909 52.8979C966.871 54.0049 965.833 55.0429 964.796 56.1499C964.243 56.7729 963.689 56.7039 962.997 56.0809C959.745 53.2439 955.456 51.3759 951.235 51.3759C941.41 51.3759 933.868 59.6789 933.868 69.3649C933.868 78.9829 941.409 87.2849 951.235 87.2849C956.978 87.2849 960.922 85.2089 961.613 84.9329V77.1839H954.832C954.071 77.1839 953.518 76.6309 953.518 75.9389V71.9259C953.518 71.1649 954.071 70.6119 954.832 70.6119H967.424C968.116 70.6119 968.67 71.2349 968.67 71.9259C968.67 77.4609 968.739 83.1349 968.739 88.6699C968.739 89.0159 968.462 89.5699 968.186 89.7769C968.186 89.7769 961.059 94.3439 951.027 94.3439C937.258 94.3439 926.119 83.3429 926.119 69.5049C926.119 55.6669 937.258 44.5279 951.027 44.5279V44.5259Z" fill="#2A0080"/>
<path d="M987.904 46.5328C987.904 45.8408 988.458 45.2178 989.219 45.2178H1016.9C1017.66 45.2178 1018.21 45.8408 1018.21 46.5328V50.4078C1018.21 51.0998 1017.66 51.7218 1016.9 51.7218H995.031V65.8368H1013.51C1014.2 65.8368 1014.82 66.4598 1014.82 67.1508V71.0258C1014.82 71.7868 1014.2 72.3408 1013.51 72.3408H995.031V87.2168H1016.9C1017.66 87.2168 1018.21 87.8398 1018.21 88.5318V92.3368C1018.21 93.0288 1017.66 93.6518 1016.9 93.6518H989.219C988.458 93.6518 987.904 93.0288 987.904 92.3368V46.5328Z" fill="#2A0080"/>
<path d="M312.966 125.456C322.02 125.456 328.563 128.325 334.659 133.793C335.466 134.51 335.466 135.586 334.748 136.303L329.28 141.951C328.652 142.668 327.756 142.668 327.039 141.951C323.274 138.634 318.254 136.662 313.234 136.662C301.76 136.662 293.244 146.253 293.244 157.549C293.244 168.754 301.85 178.256 313.324 178.256C318.703 178.256 323.274 176.194 327.039 173.146C327.756 172.518 328.742 172.608 329.28 173.146L334.839 178.883C335.556 179.511 335.376 180.676 334.748 181.303C328.653 187.219 320.943 189.998 312.965 189.998C295.036 189.998 280.604 175.745 280.604 157.817C280.604 139.889 295.036 125.456 312.965 125.456H312.966Z" fill="#2A0080"/>
<path d="M376.616 125.456C394.544 125.456 408.887 139.888 408.887 157.817C408.887 175.746 394.544 189.998 376.616 189.998C358.688 189.998 344.434 175.745 344.434 157.817C344.434 139.889 358.687 125.456 376.616 125.456ZM376.616 178.345C387.911 178.345 397.234 169.112 397.234 157.817C397.234 146.522 387.911 137.11 376.616 137.11C365.321 137.11 356.088 146.522 356.088 157.817C356.088 169.112 365.321 178.345 376.616 178.345Z" fill="#2A0080"/>
<path d="M423.322 128.056C423.322 127.16 424.039 126.353 425.025 126.353H433.272C434.168 126.353 434.975 127.16 434.975 128.056V178.345H457.834C458.82 178.345 459.537 179.152 459.537 180.048V187.399C459.537 188.295 458.82 189.102 457.834 189.102H425.025C424.039 189.102 423.322 188.295 423.322 187.399V128.056Z" fill="#2A0080"/>
<path d="M471.282 128.056C471.282 127.16 471.999 126.353 472.985 126.353H481.232C482.128 126.353 482.935 127.16 482.935 128.056V178.345H505.794C506.78 178.345 507.497 179.152 507.497 180.048V187.399C507.497 188.295 506.78 189.102 505.794 189.102H472.985C471.999 189.102 471.282 188.295 471.282 187.399V128.056Z" fill="#2A0080"/>
<path d="M513.953 186.772L541.832 126.443C542.101 125.905 542.549 125.457 543.356 125.457H544.252C545.148 125.457 545.507 125.905 545.776 126.443L573.386 186.772C573.924 187.937 573.207 189.103 571.862 189.103H564.063C562.718 189.103 562.091 188.565 561.463 187.31L557.07 177.629H530.267L525.874 187.31C525.515 188.206 524.708 189.103 523.274 189.103H515.475C514.13 189.103 513.413 187.938 513.951 186.772H513.953ZM552.678 167.678L543.714 147.957H543.445L534.66 167.678H552.678Z" fill="#2A0080"/>
<path d="M584.236 128.056C584.236 127.16 584.953 126.353 585.939 126.353H606.467C617.135 126.353 625.382 133.524 625.382 142.937C625.382 149.84 619.735 155.218 615.521 157.19C620.272 158.714 627.175 163.555 627.175 171.802C627.175 181.842 618.569 189.103 607.633 189.103H585.939C584.953 189.103 584.236 188.296 584.236 187.4V128.056ZM605.392 152.708C609.963 152.708 613.101 149.122 613.101 144.64C613.101 140.158 609.963 137.02 605.392 137.02H595.8V152.707L605.392 152.708ZM606.647 178.525C611.129 178.525 614.715 175.029 614.715 170.368C614.715 165.886 610.233 162.569 605.571 162.569H595.8V178.525H606.647Z" fill="#2A0080"/>
<path d="M669.935 125.456C687.863 125.456 702.206 139.888 702.206 157.817C702.206 175.746 687.863 189.998 669.935 189.998C652.007 189.998 637.753 175.745 637.753 157.817C637.753 139.889 652.006 125.456 669.935 125.456ZM669.935 178.345C681.23 178.345 690.553 169.112 690.553 157.817C690.553 146.522 681.23 137.11 669.935 137.11C658.64 137.11 649.407 146.522 649.407 157.817C649.407 169.112 658.64 178.345 669.935 178.345Z" fill="#2A0080"/>
<path d="M716.642 128.056C716.642 127.16 717.359 126.353 718.345 126.353H743.983C754.74 126.353 763.525 134.959 763.525 145.626C763.525 153.873 758.057 160.596 750.258 163.734L762.539 186.503C763.167 187.668 762.539 189.102 761.015 189.102H751.602C750.795 189.102 750.347 188.654 750.168 188.295L738.246 164.54H728.296V187.399C728.296 188.295 727.489 189.102 726.593 189.102H718.346C717.36 189.102 716.643 188.295 716.643 187.399L716.642 128.056ZM742.997 154.949C747.748 154.949 751.871 150.825 751.871 145.805C751.871 141.054 747.748 137.11 742.997 137.11H728.385V154.949H742.997Z" fill="#2A0080"/>
<path d="M770.878 186.772L798.758 126.443C799.027 125.905 799.475 125.457 800.282 125.457H801.178C802.074 125.457 802.432 125.905 802.701 126.443L830.311 186.772C830.849 187.937 830.132 189.103 828.787 189.103H820.988C819.643 189.103 819.016 188.565 818.389 187.31L813.995 177.629H787.193L782.8 187.31C782.441 188.206 781.633 189.103 780.199 189.103H772.401C771.056 189.103 770.338 187.938 770.876 186.772H770.878ZM809.604 167.678L800.639 147.957H800.37L791.586 167.678H809.604Z" fill="#2A0080"/>
<path d="M846.27 137.11H832.555C831.569 137.11 830.852 136.303 830.852 135.407V128.056C830.852 127.16 831.569 126.353 832.555 126.353H871.728C872.714 126.353 873.431 127.16 873.431 128.056V135.407C873.431 136.303 872.714 137.11 871.728 137.11H858.013V187.399C858.013 188.295 857.206 189.102 856.31 189.102H847.974C847.078 189.102 846.271 188.295 846.271 187.399L846.27 137.11Z" fill="#2A0080"/>
<path d="M885.446 128.056C885.446 127.16 886.253 126.353 887.149 126.353H895.485C896.382 126.353 897.188 127.16 897.188 128.056V187.399C897.188 188.295 896.382 189.102 895.485 189.102H887.149C886.253 189.102 885.446 188.295 885.446 187.399V128.056Z" fill="#2A0080"/>
<path d="M908.036 128.684C907.498 127.519 908.215 126.353 909.56 126.353H918.703C919.51 126.353 920.048 126.891 920.227 127.339L937.438 165.885H938.066L955.277 127.339C955.456 126.891 955.994 126.353 956.801 126.353H965.944C967.289 126.353 968.006 127.518 967.468 128.684L939.679 189.013C939.41 189.551 938.962 189.999 938.155 189.999H937.259C936.453 189.999 936.004 189.551 935.736 189.013L908.036 128.684Z" fill="#2A0080"/>
<path d="M978.318 128.056C978.318 127.16 979.035 126.353 980.021 126.353H1016.51C1017.49 126.353 1018.21 127.16 1018.21 128.056V135.407C1018.21 136.303 1017.49 137.11 1016.51 137.11H989.971V151.811H1012.11C1013.01 151.811 1013.82 152.618 1013.82 153.514V160.954C1013.82 161.94 1013.01 162.657 1012.11 162.657H989.971V178.344H1016.51C1017.49 178.344 1018.21 179.151 1018.21 180.047V187.398C1018.21 188.294 1017.49 189.101 1016.51 189.101H980.021C979.035 189.101 978.318 188.294 978.318 187.398V128.055V128.056Z" fill="#2A0080"/>
<defs>
<linearGradient id="paint0_linear_201_1593" x1="60.5895" y1="28.8209" x2="151.187" y2="196.287" gradientUnits="userSpaceOnUse">
<stop offset="0.1" stop-color="#FF6D00"/>
<stop offset="0.5" stop-color="#FF2100"/>
<stop offset="0.9" stop-color="#6300C7"/>
</linearGradient>
</defs>
</svg>
