<svg width="221" height="220" viewBox="0 0 221 220" fill="none" xmlns="http://www.w3.org/2000/svg">
<path d="M109.661 154.048L86.7772 114.727C86.5032 114.257 86.5032 113.676 86.7772 113.205L111.571 70.588C112.155 69.585 113.605 69.581 114.194 70.582L125.558 89.906C125.831 90.37 126.329 90.654 126.868 90.654H208.493C209.481 90.654 210.206 89.727 209.966 88.77L209.229 85.837C198.032 41.295 157.821 10.163 111.392 10.032C111.223 10.029 111.061 10 110.893 10C110.875 10 110.853 10 110.835 10.002C110.558 10.002 110.291 10.048 110.015 10.056C80.0842 10.37 52.0592 23.608 32.9882 46.527C13.6912 69.717 6.03722 100.234 11.9822 130.254C19.8452 169.956 52.2552 201.385 92.6292 208.465C97.8252 209.376 103.063 209.869 108.296 210.002L114.781 209.92C134.974 209.213 154.759 202.908 171.238 191.478C191.753 177.249 205.266 156.837 209.286 134.003L209.773 131.235C209.936 130.308 209.221 129.458 208.278 129.458H127.586C127.047 129.457 126.548 129.742 126.276 130.206L112.285 154.054C111.697 155.056 110.246 155.053 109.662 154.049L109.661 154.048ZM112.849 202.281C111.496 202.306 110.14 202.3 108.785 202.269C108.728 202.268 108.671 202.264 108.615 202.258C101.878 201.557 95.9682 197.812 92.5312 191.892L45.4242 110.749C45.1512 110.279 45.1512 109.699 45.4242 109.229L58.6612 86.477C59.2462 85.471 60.7022 85.471 61.2872 86.477L124.804 195.616C125.182 196.266 125.019 197.085 124.439 197.565C121.236 200.217 117.294 201.858 113.018 202.271C112.962 202.276 112.905 202.28 112.848 202.281H112.849ZM64.9412 77.207C64.6672 76.737 64.6672 76.156 64.9412 75.685L92.5312 28.263C96.2132 21.936 102.721 18.097 110.041 17.816C110.393 17.812 110.743 17.787 111.097 17.787C111.272 17.787 111.444 17.807 111.619 17.808C117.959 18.018 123.677 20.919 127.513 25.785C127.891 26.265 127.919 26.936 127.612 27.464L83.1222 103.935C82.5372 104.941 81.0812 104.941 80.4962 103.935L64.9412 77.207ZM117.835 59.824L131.428 36.459C132.012 35.455 133.464 35.453 134.051 36.454L159.961 80.615C160.554 81.625 159.824 82.896 158.651 82.896H131.379C130.84 82.896 130.342 82.611 130.069 82.148L117.838 61.352C117.561 60.881 117.559 60.297 117.834 59.824H117.835ZM198.179 82.895H171.239C170.7 82.895 170.201 82.61 169.929 82.145L135.991 24.301C135.884 24.119 135.775 23.938 135.664 23.76C134.931 22.586 136.031 21.118 137.362 21.503C166.359 29.873 189.888 51.809 199.628 80.911C199.955 81.887 199.209 82.895 198.179 82.895ZM39.0462 51.46C50.9942 37.099 66.7602 26.876 84.2932 21.691C85.6242 21.297 86.7292 22.759 86.0052 23.941C85.9142 24.09 85.8242 24.241 85.7352 24.393L23.1012 132.049C22.4132 133.232 20.6192 132.975 20.3052 131.644C20.0802 130.689 19.8712 129.729 19.6792 128.763C14.1882 101.027 21.2462 72.852 39.0462 51.46ZM25.0022 144.335L39.1412 120.032C39.7272 119.026 41.1832 119.026 41.7682 120.033L69.8052 168.327C70.4612 169.457 81.7052 188.598 86.4402 196.401C87.1542 197.578 86.0482 199.027 84.7232 198.65C57.6632 190.938 35.5612 171.166 24.9112 145.689C24.7272 145.249 24.7632 144.747 25.0032 144.335H25.0022ZM166.738 185.124C157.799 191.324 147.803 195.901 137.297 198.766C135.968 199.128 134.88 197.665 135.614 196.502C135.748 196.29 135.879 196.074 136.007 195.856L169.929 137.966C170.201 137.501 170.7 137.216 171.24 137.216H198.658C199.649 137.216 200.387 138.152 200.131 139.107C195.247 157.288 183.57 173.449 166.738 185.124ZM159.968 139.496L131.795 187.574C131.208 188.576 129.755 188.574 129.171 187.57L115.931 164.82C115.656 164.348 115.657 163.765 115.934 163.294L130.793 137.965C131.065 137.501 131.564 137.215 132.103 137.215H158.657C159.83 137.215 160.56 138.486 159.968 139.496Z" fill="white"/>
</svg>
