<svg width="84" height="85" viewBox="0 0 84 85" fill="none" xmlns="http://www.w3.org/2000/svg">
<path d="M69.4953 15.3632L59.4753 25.3832L35.5233 1.43124L33.4023 0.552246H3.40234L0.402344 3.55225V81.5522L3.40234 84.5522H57.4023L60.4023 81.5522V52.1852L83.3583 29.2292V24.9872L73.7373 15.3662L69.4953 15.3632ZM36.4023 10.7942L50.1603 24.5522H36.4023V10.7942ZM54.4023 78.5522H6.40234V6.55225H30.4023V27.5522L33.4023 30.5522H54.3093L38.6613 46.2002L38.0253 47.1392L30.8103 63.9753L34.7493 67.9112L51.5853 60.6962L52.5243 60.0602L54.4023 58.1823V78.5522ZM48.6903 55.4102L39.2793 59.4452L43.3143 50.0342L71.6193 21.7262L76.9983 27.1052L48.6903 55.4102Z" fill="#FF6D00"/>
</svg>
