<svg width="84" height="84" viewBox="0 0 84 84" fill="none" xmlns="http://www.w3.org/2000/svg">
<path d="M9.78607 57.3184C9.75007 57.8464 8.9551 70.3624 15.3241 77.1904C18.0211 80.0824 21.5281 81.5494 25.7491 81.5494C37.5331 81.5494 40.0831 73.0954 41.9461 66.9184C42.8251 64.0024 43.6561 61.2484 45.1801 59.4904C46.4461 58.0354 48.0031 56.5264 49.6501 54.9274C55.2691 49.4854 62.2621 42.7084 62.2621 32.8144C62.2621 18.2704 53.0971 3.54639 35.5861 3.54639C28.0171 3.54639 21.9091 5.92239 17.4391 10.6084C9.2401 19.1974 9.75307 32.3974 9.78007 32.9554L15.7741 32.6794C15.7681 32.5684 15.3721 21.4324 21.8041 14.7244C25.0981 11.2894 29.7331 9.54639 35.5861 9.54639C51.9391 9.54639 56.2621 24.7654 56.2621 32.8144C56.2621 40.1674 50.7781 45.4804 45.4741 50.6194C43.7311 52.3054 42.0841 53.9044 40.6501 55.5574C38.2831 58.2844 37.2241 61.7914 36.2011 65.1844C34.2061 71.8024 32.7361 75.5464 25.7491 75.5464C23.2291 75.5464 21.2581 74.7454 19.7191 73.1044C15.9091 69.0334 15.5791 60.6244 15.7771 57.7294L9.78909 57.3154L9.78607 57.3184Z" fill="#DB0000"/>
<path d="M35.9343 40.6717C31.6563 43.7437 27.2403 46.9237 27.6453 52.3117L33.6273 51.8617C33.4833 49.9657 35.7243 48.2107 39.4353 45.5437C44.3793 41.9887 50.5353 37.5637 50.5353 29.2567C50.5353 21.2407 44.0163 14.7217 36.0003 14.7217C27.9843 14.7217 21.4653 21.2407 21.4653 29.2567H27.4653C27.4653 24.5527 31.2933 20.7217 36.0003 20.7217C40.7073 20.7217 44.5353 24.5497 44.5353 29.2567C44.5353 34.4857 40.3563 37.4917 35.9343 40.6747V40.6717Z" fill="#DB0000"/>
<path d="M67.353 44.3945L64.3291 49.5732L72.4483 54.3141L75.4722 49.1354L67.353 44.3945Z" fill="#DB0000"/>
<path d="M63.2835 54.2869L58.0977 57.3047L61.5666 63.2658L66.7524 60.2481L63.2835 54.2869Z" fill="#DB0000"/>
<path d="M74.7988 33.8071H68.7988V39.8071H74.7988V33.8071Z" fill="#DB0000"/>
</svg>
