<svg width="84" height="84" viewBox="0 0 84 84" fill="none" xmlns="http://www.w3.org/2000/svg">
<path d="M17.91 83.0493H49.797C57.54 83.0493 75.552 80.0943 75.552 52.7013C75.552 30.2493 54.363 20.7603 44.478 20.1873C41.691 18.1773 39.969 13.7013 38.568 10.0563C36.918 5.76034 35.49 2.04932 31.899 2.04932C26.607 2.04932 22.344 7.67432 22.35 12.4953C22.404 13.4733 22.905 22.1733 23.973 25.4823L27.573 31.5393H17.91C13.134 31.5393 9.24902 35.4243 9.24902 40.2543C9.24902 42.4293 10.083 44.3973 11.412 45.9183C10.083 47.4483 9.24902 49.4313 9.24902 51.6333C9.24902 53.8083 10.083 55.7763 11.412 57.2973C10.083 58.8273 9.24902 60.8073 9.24902 63.0093C9.24902 65.1843 10.083 67.1523 11.412 68.6733C10.083 70.2033 9.24902 72.1863 9.24902 74.3883C9.24902 79.1643 13.134 83.0493 17.91 83.0493ZM27.042 77.0493H17.91C16.443 77.0493 15.249 75.8583 15.249 74.3313C15.249 72.8643 16.443 71.6703 17.91 71.6703H29.724C31.191 71.6703 32.385 72.8613 32.385 74.3883C32.385 75.8553 31.191 77.0493 29.724 77.0493H27.042ZM15.249 62.9553C15.249 61.4883 16.443 60.2943 17.91 60.2943H29.724C31.191 60.2943 32.385 61.4853 32.385 63.0093C32.385 64.4763 31.191 65.6703 29.724 65.6703H17.91C16.443 65.6703 15.249 64.4793 15.249 62.9553ZM15.249 51.5763C15.249 50.1093 16.443 48.9153 17.91 48.9153H29.724C31.191 48.9153 32.385 50.1063 32.385 51.6333C32.385 53.1003 31.191 54.2943 29.724 54.2943H17.91C16.443 54.2943 15.249 53.1033 15.249 51.5763ZM31.248 8.17831C31.758 9.06331 32.442 10.8423 32.967 12.2103C34.803 16.9863 37.086 22.9263 42.075 25.7703L43.56 26.1633C50.958 26.1633 69.552 34.0593 69.552 52.7043C69.552 68.6343 62.721 77.0523 49.797 77.0523H37.914C38.196 76.1913 38.385 75.2913 38.385 74.3343C38.385 72.1593 37.551 70.1913 36.222 68.6703C37.551 67.1403 38.385 65.1603 38.385 62.9583C38.385 60.7833 37.551 58.8153 36.222 57.2943C36.873 56.5443 37.407 55.6953 37.773 54.7533C41.877 59.5443 47.958 62.5983 54.747 62.5983V56.5983C45.723 56.5983 38.382 49.2573 38.382 40.2333C38.382 40.2333 38.382 40.2153 38.382 40.2063C38.382 38.2323 37.692 36.4323 36.576 34.9743L29.592 23.3493C29.004 21.1473 28.515 15.4323 28.341 12.3393C28.341 10.9023 29.802 8.73333 31.245 8.18433L31.248 8.17831ZM17.907 37.5393H29.721C30.462 37.5393 31.131 37.8453 31.614 38.3463L32.199 39.3333C32.301 39.6243 32.379 39.9273 32.379 40.2573C32.379 41.7243 31.185 42.9183 29.718 42.9183H17.904C16.437 42.9183 15.243 41.7273 15.243 40.2033C15.243 38.7363 16.437 37.5423 17.904 37.5423L17.907 37.5393Z" fill="#DB0000"/>
</svg>
