<svg width="315" height="252" viewBox="0 0 315 252" fill="none" xmlns="http://www.w3.org/2000/svg">
<path d="M3.15 15.054V8.81H3.752C4.886 8.81 5.852 8.922 6.566 9.426C7.322 9.958 7.742 10.854 7.742 11.918C7.742 12.926 7.364 13.738 6.762 14.256C6.132 14.802 5.208 15.054 3.766 15.054H3.15ZM0.924 17H3.668C5.796 17 7.252 16.594 8.288 15.754C9.366 14.872 9.968 13.514 9.968 11.918C9.968 10.182 9.268 8.754 8.022 7.886C6.972 7.158 5.572 6.864 3.766 6.864H0.924V17ZM13.3283 17H19.7403V15.054H15.5543V12.646H19.0263V10.798H15.5543V8.81H19.5863V6.864H13.3283V17ZM23.176 17H25.402V13.374H26.102C27.586 13.374 28.594 13.206 29.378 12.744C30.232 12.24 30.834 11.344 30.834 10.098C30.834 8.726 30.078 7.858 29.196 7.396C28.398 6.976 27.39 6.864 26.186 6.864H23.176V17ZM25.402 11.568V8.81H26.158C26.942 8.81 27.488 8.838 27.894 9.02C28.356 9.23 28.608 9.636 28.608 10.21C28.608 10.714 28.384 11.092 27.978 11.316C27.6 11.526 27.096 11.568 26.214 11.568H25.402ZM32.5928 17H34.8748L35.7008 14.872H39.7888L40.6008 17H42.9808L38.8648 6.864H36.7088L32.5928 17ZM36.7928 12.044C37.1148 11.19 37.4788 10.182 37.7448 9.412H37.7728C38.0388 10.182 38.4028 11.19 38.6968 11.988L39.1168 13.122H36.3868L36.7928 12.044ZM45.9474 17H48.1734V12.996H49.1674L51.7294 17H54.2914L51.4354 12.716C52.7794 12.282 53.4934 11.218 53.4934 9.916C53.4934 8.754 53.0174 7.998 52.2754 7.536C51.4634 7.032 50.3294 6.864 49.1254 6.864H45.9474V17ZM48.1734 11.33V8.81H49.0274C49.7974 8.81 50.3434 8.894 50.6934 9.076C51.0994 9.286 51.2674 9.594 51.2674 10.07C51.2674 10.56 51.0714 10.896 50.6934 11.092C50.3574 11.26 49.8954 11.33 49.2934 11.33H48.1734ZM59.6559 17H61.8819V8.81H65.1579V6.864H56.3799V8.81H59.6559V17ZM73.3911 14.662L74.8611 12.576C75.3651 11.862 75.8691 11.12 76.3451 10.406L76.3731 10.42C76.3591 11.148 76.3451 12.1 76.3451 12.94V17H78.5711V6.864H76.4571L73.4471 11.148L70.4371 6.864H68.2951V17H70.4371V12.94C70.4371 12.1 70.4231 11.148 70.4091 10.42L70.4371 10.406C70.9131 11.12 71.4171 11.862 71.9211 12.576L73.3911 14.662ZM82.422 17H88.834V15.054H84.648V12.646H88.12V10.798H84.648V8.81H88.68V6.864H82.422V17ZM99.3537 17H101.454V6.864H99.3117V10.63C99.3117 11.61 99.3257 12.59 99.3397 13.556L99.3117 13.57C98.6817 12.688 98.0657 11.834 97.4077 10.952L94.3697 6.864H92.2697V17H94.4117V13.234C94.4117 12.254 94.3977 11.274 94.3837 10.308L94.4117 10.294C95.0417 11.176 95.6577 12.03 96.3157 12.912L99.3537 17ZM107.865 17H110.091V8.81H113.367V6.864H104.589V8.81H107.865V17ZM129.876 14.214C129.036 14.788 128.056 15.152 127.006 15.152C124.92 15.152 123.618 13.724 123.618 11.918C123.618 10.084 124.962 8.712 126.922 8.712C127.958 8.712 128.98 9.09 129.722 9.594V7.34C128.924 6.948 127.93 6.71 126.908 6.71C123.646 6.71 121.392 9.006 121.392 11.946C121.392 14.9 123.646 17.154 126.908 17.154C127.916 17.154 129.008 16.944 129.876 16.482V14.214ZM138.2 15.138C136.45 15.138 135.134 13.724 135.134 11.932C135.134 10.14 136.45 8.726 138.2 8.726C139.95 8.726 141.266 10.14 141.266 11.932C141.266 13.724 139.95 15.138 138.2 15.138ZM138.2 17.154C141.21 17.154 143.492 14.886 143.492 11.932C143.492 8.978 141.21 6.71 138.2 6.71C135.19 6.71 132.908 8.978 132.908 11.932C132.908 14.886 135.19 17.154 138.2 17.154ZM153.979 17H156.079V6.864H153.937V10.63C153.937 11.61 153.951 12.59 153.965 13.556L153.937 13.57C153.307 12.688 152.691 11.834 152.033 10.952L148.995 6.864H146.895V17H149.037V13.234C149.037 12.254 149.023 11.274 149.009 10.308L149.037 10.294C149.667 11.176 150.283 12.03 150.941 12.912L153.979 17ZM162.49 17H164.716V8.81H167.992V6.864H159.214V8.81H162.49V17ZM168.962 17H171.244L172.07 14.872H176.158L176.97 17H179.35L175.234 6.864H173.078L168.962 17ZM173.162 12.044C173.484 11.19 173.848 10.182 174.114 9.412H174.142C174.408 10.182 174.772 11.19 175.066 11.988L175.486 13.122H172.756L173.162 12.044ZM189.874 14.214C189.034 14.788 188.054 15.152 187.004 15.152C184.918 15.152 183.616 13.724 183.616 11.918C183.616 10.084 184.96 8.712 186.92 8.712C187.956 8.712 188.978 9.09 189.72 9.594V7.34C188.922 6.948 187.928 6.71 186.906 6.71C183.644 6.71 181.39 9.006 181.39 11.946C181.39 14.9 183.644 17.154 186.906 17.154C187.914 17.154 189.006 16.944 189.874 16.482V14.214ZM195.916 17H198.142V8.81H201.418V6.864H192.64V8.81H195.916V17ZM209.877 17H212.103V6.864H209.877V17ZM223.035 17H225.135V6.864H222.993V10.63C222.993 11.61 223.007 12.59 223.021 13.556L222.993 13.57C222.363 12.688 221.747 11.834 221.089 10.952L218.051 6.864H215.951V17H218.093V13.234C218.093 12.254 218.079 11.274 218.065 10.308L218.093 10.294C218.723 11.176 219.339 12.03 219.997 12.912L223.035 17ZM228.985 17H231.211V12.842H234.823V10.994H231.211V8.81H235.411V6.864H228.985V17ZM243.758 15.138C242.008 15.138 240.692 13.724 240.692 11.932C240.692 10.14 242.008 8.726 243.758 8.726C245.508 8.726 246.824 10.14 246.824 11.932C246.824 13.724 245.508 15.138 243.758 15.138ZM243.758 17.154C246.768 17.154 249.05 14.886 249.05 11.932C249.05 8.978 246.768 6.71 243.758 6.71C240.748 6.71 238.466 8.978 238.466 11.932C238.466 14.886 240.748 17.154 243.758 17.154Z" fill="#061436"/>
<rect y="40" width="34" height="34" rx="17" fill="#FFC960"/>
<mask id="mask0_342_29975" style="mask-type:alpha" maskUnits="userSpaceOnUse" x="8" y="48" width="18" height="18">
<rect x="8" y="48" width="18" height="18" fill="#D9D9D9"/>
</mask>
<g mask="url(#mask0_342_29975)">
<path d="M22.9625 63.75C21.35 63.75 19.7782 63.3905 18.2473 62.6715C16.7158 61.953 15.3595 61.003 14.1785 59.8215C12.997 58.6405 12.047 57.2842 11.3285 55.7527C10.6095 54.2217 10.25 52.65 10.25 51.0375C10.25 50.8125 10.325 50.625 10.475 50.475C10.625 50.325 10.8125 50.25 11.0375 50.25H14.075C14.25 50.25 14.4063 50.3062 14.5438 50.4187C14.6813 50.5312 14.7625 50.675 14.7875 50.85L15.275 53.475C15.3 53.65 15.297 53.8092 15.266 53.9527C15.2345 54.0967 15.1625 54.225 15.05 54.3375L13.2312 56.175C13.7562 57.075 14.4158 57.9187 15.2098 58.7062C16.0033 59.4937 16.875 60.175 17.825 60.75L19.5875 58.9875C19.7 58.875 19.847 58.7905 20.0285 58.734C20.2095 58.678 20.3875 58.6625 20.5625 58.6875L23.15 59.2125C23.325 59.25 23.4688 59.3342 23.5812 59.4653C23.6937 59.5967 23.75 59.75 23.75 59.925V62.9625C23.75 63.1875 23.675 63.375 23.525 63.525C23.375 63.675 23.1875 63.75 22.9625 63.75ZM12.5188 54.75L13.7563 53.5125L13.4375 51.75H11.7688C11.8313 52.2625 11.9188 52.7687 12.0312 53.2688C12.1437 53.7688 12.3063 54.2625 12.5188 54.75ZM19.2313 61.4625C19.7188 61.675 20.2157 61.8438 20.7222 61.9688C21.2282 62.0938 21.7375 62.175 22.25 62.2125V60.5625L20.4875 60.2062L19.2313 61.4625Z" fill="#061436"/>
</g>
<path d="M51.168 53.76C51.168 57.184 52.224 59.776 53.472 61.408H54.896C53.552 59.664 52.496 56.992 52.496 53.76C52.496 50.528 53.552 47.856 54.896 46.112H53.472C52.224 47.744 51.168 50.336 51.168 53.76ZM56.5378 54.752C56.5378 56.72 58.0738 58.176 60.4258 58.176C62.7778 58.176 64.3138 56.72 64.3138 54.752C64.3138 53.392 63.5778 52.32 62.3138 51.888V51.856C63.4018 51.408 63.9938 50.576 63.9938 49.408C63.9938 47.6 62.5698 46.24 60.4258 46.24C58.2818 46.24 56.8578 47.6 56.8578 49.408C56.8578 50.576 57.4498 51.408 58.5378 51.856V51.888C57.2738 52.32 56.5378 53.392 56.5378 54.752ZM60.4258 51.36C59.2578 51.36 58.2978 50.576 58.2978 49.472C58.2978 48.368 59.2258 47.584 60.4258 47.584C61.6258 47.584 62.5538 48.368 62.5538 49.472C62.5538 50.576 61.5938 51.36 60.4258 51.36ZM58.0418 54.72C58.0418 53.456 59.1138 52.576 60.4258 52.576C61.7378 52.576 62.8098 53.456 62.8098 54.72C62.8098 55.984 61.7538 56.832 60.4258 56.832C59.0978 56.832 58.0418 55.984 58.0418 54.72ZM70.194 58.176C71.346 58.176 72.354 57.696 73.042 56.768C73.794 55.744 74.146 54.16 74.146 52.208C74.146 50.256 73.794 48.672 73.042 47.648C72.354 46.72 71.346 46.24 70.194 46.24C69.042 46.24 68.034 46.72 67.346 47.648C66.594 48.672 66.242 50.256 66.242 52.208C66.242 54.16 66.594 55.744 67.346 56.768C68.034 57.696 69.042 58.176 70.194 58.176ZM70.194 56.768C69.506 56.768 68.978 56.464 68.594 55.984C67.922 55.12 67.762 53.6 67.762 52.208C67.762 50.816 67.922 49.296 68.594 48.432C68.978 47.952 69.506 47.648 70.194 47.648C70.882 47.648 71.41 47.952 71.794 48.432C72.466 49.296 72.626 50.816 72.626 52.208C72.626 53.6 72.466 55.12 71.794 55.984C71.41 56.464 70.882 56.768 70.194 56.768ZM76.0366 57.408C76.7726 57.872 77.8126 58.176 78.9486 58.176C81.3806 58.176 83.0606 56.8 83.0606 54.656C83.0606 52.016 80.5486 51.136 78.1486 51.136L78.3886 47.792H82.6286L82.7406 46.416H76.9806L76.5166 52.56C76.9326 52.496 77.3966 52.464 77.8126 52.464C79.4286 52.464 81.5406 52.928 81.5406 54.72C81.5406 56 80.4526 56.768 78.9486 56.768C77.9886 56.768 77.0126 56.464 76.1486 55.824L76.0366 57.408ZM84.5478 61.408H85.9718C87.2198 59.776 88.2758 57.184 88.2758 53.76C88.2758 50.336 87.2198 47.744 85.9718 46.112H84.5478C85.8918 47.856 86.9478 50.528 86.9478 53.76C86.9478 56.992 85.8918 59.664 84.5478 61.408ZM94.1605 57.104C94.8325 57.696 96.0005 58.176 97.3445 58.176C99.5845 58.176 101.217 56.848 101.217 54.832C101.217 53.552 100.561 52.4 99.1205 52.096V52.064C100.257 51.728 100.977 50.736 100.977 49.44C100.977 47.52 99.4245 46.24 97.3125 46.24C96.3685 46.24 95.4885 46.496 94.8485 46.88V48.432C95.5045 47.968 96.3685 47.648 97.2325 47.648C98.5445 47.648 99.4565 48.384 99.4565 49.584C99.4565 50.72 98.6405 51.52 97.1845 51.52H96.1445V52.864H97.2325C98.8805 52.864 99.6965 53.664 99.6965 54.8C99.6965 56.032 98.7045 56.768 97.3285 56.768C96.2405 56.768 95.1205 56.304 94.1605 55.36V57.104ZM103.132 54.752C103.132 56.72 104.668 58.176 107.02 58.176C109.372 58.176 110.908 56.72 110.908 54.752C110.908 53.392 110.172 52.32 108.908 51.888V51.856C109.996 51.408 110.588 50.576 110.588 49.408C110.588 47.6 109.164 46.24 107.02 46.24C104.876 46.24 103.452 47.6 103.452 49.408C103.452 50.576 104.044 51.408 105.132 51.856V51.888C103.868 52.32 103.132 53.392 103.132 54.752ZM107.02 51.36C105.852 51.36 104.892 50.576 104.892 49.472C104.892 48.368 105.82 47.584 107.02 47.584C108.22 47.584 109.148 48.368 109.148 49.472C109.148 50.576 108.188 51.36 107.02 51.36ZM104.636 54.72C104.636 53.456 105.708 52.576 107.02 52.576C108.332 52.576 109.404 53.456 109.404 54.72C109.404 55.984 108.348 56.832 107.02 56.832C105.692 56.832 104.636 55.984 104.636 54.72ZM112.74 57.408C113.476 57.872 114.516 58.176 115.652 58.176C118.084 58.176 119.764 56.8 119.764 54.656C119.764 52.016 117.252 51.136 114.852 51.136L115.092 47.792H119.332L119.444 46.416H113.684L113.22 52.56C113.636 52.496 114.1 52.464 114.516 52.464C116.132 52.464 118.244 52.928 118.244 54.72C118.244 56 117.156 56.768 115.652 56.768C114.692 56.768 113.716 56.464 112.852 55.824L112.74 57.408ZM121.459 54.208H125.267V52.928H121.459V54.208ZM127.248 58H128.832L133.664 46.448L133.648 46.416H126.096V47.792H131.52L127.248 58ZM135.194 54.752C135.194 56.72 136.73 58.176 139.082 58.176C141.434 58.176 142.97 56.72 142.97 54.752C142.97 53.392 142.234 52.32 140.97 51.888V51.856C142.058 51.408 142.65 50.576 142.65 49.408C142.65 47.6 141.226 46.24 139.082 46.24C136.938 46.24 135.514 47.6 135.514 49.408C135.514 50.576 136.106 51.408 137.194 51.856V51.888C135.93 52.32 135.194 53.392 135.194 54.752ZM139.082 51.36C137.914 51.36 136.954 50.576 136.954 49.472C136.954 48.368 137.882 47.584 139.082 47.584C140.282 47.584 141.21 48.368 141.21 49.472C141.21 50.576 140.25 51.36 139.082 51.36ZM136.698 54.72C136.698 53.456 137.77 52.576 139.082 52.576C140.394 52.576 141.466 53.456 141.466 54.72C141.466 55.984 140.41 56.832 139.082 56.832C137.754 56.832 136.698 55.984 136.698 54.72ZM147.794 58H149.314V46.24L145.138 47.856V49.312L147.794 48.288V58ZM153.967 58H155.551L160.383 46.448L160.367 46.416H152.815V47.792H158.239L153.967 58Z" fill="#1C3F94"/>
<path d="M50 59.92H160.975V60.72H50V59.92Z" fill="#1C3F94"/>
<rect y="90" width="34" height="34" rx="17" fill="#80DA75"/>
<mask id="mask1_342_29975" style="mask-type:alpha" maskUnits="userSpaceOnUse" x="8" y="98" width="18" height="18">
<rect x="8" y="98" width="18" height="18" fill="#D9D9D9"/>
</mask>
<g mask="url(#mask1_342_29975)">
<path d="M17 107C17.4125 107 17.7657 106.853 18.0598 106.559C18.3533 106.265 18.5 105.912 18.5 105.5C18.5 105.088 18.3533 104.734 18.0598 104.44C17.7657 104.147 17.4125 104 17 104C16.5875 104 16.2345 104.147 15.941 104.44C15.647 104.734 15.5 105.088 15.5 105.5C15.5 105.912 15.647 106.265 15.941 106.559C16.2345 106.853 16.5875 107 17 107ZM17 112.513C18.525 111.113 19.6562 109.84 20.3937 108.696C21.1312 107.553 21.5 106.537 21.5 105.65C21.5 104.287 21.0655 103.172 20.1965 102.303C19.328 101.434 18.2625 101 17 101C15.7375 101 14.6718 101.434 13.8028 102.303C12.9342 103.172 12.5 104.287 12.5 105.65C12.5 106.537 12.8687 107.553 13.6062 108.696C14.3438 109.84 15.475 111.113 17 112.513ZM17 114.5C14.9875 112.788 13.4845 111.197 12.491 109.728C11.497 108.259 11 106.9 11 105.65C11 103.775 11.6033 102.281 12.8098 101.169C14.0158 100.056 15.4125 99.5 17 99.5C18.5875 99.5 19.9843 100.056 21.1903 101.169C22.3967 102.281 23 103.775 23 105.65C23 106.9 22.5033 108.259 21.5098 109.728C20.5157 111.197 19.0125 112.788 17 114.5Z" fill="#061436"/>
</g>
<path d="M50.384 107.968L50.4 108H58.08V106.624H53.44L53.424 106.592L55.44 104.176C56.8 102.544 57.664 101.216 57.664 99.632C57.664 97.408 55.984 96.24 53.936 96.24C52.816 96.24 51.856 96.592 51.264 96.976V98.512C52.08 97.92 53.04 97.648 53.856 97.648C55.2 97.648 56.144 98.368 56.144 99.712C56.144 100.8 55.52 101.808 54.208 103.376L50.384 107.968ZM62.8724 108H64.3924V96.24L60.2164 97.856V99.312L62.8724 98.288V108ZM74.773 96.416H73.381L67.413 105.168L67.429 105.2H73.269V108H74.773V105.2H76.853V103.856H74.773V96.416ZM71.829 100.912C72.309 100.208 72.821 99.456 73.269 98.736L73.301 98.752C73.285 99.456 73.269 100.32 73.269 101.12V103.856H69.861L69.845 103.824L71.829 100.912ZM82.1948 107.264C83.2028 107.872 84.5628 108.176 85.6828 108.176C88.0028 108.176 89.5548 106.928 89.5548 104.816C89.5548 102.608 87.8908 101.936 86.2108 101.456C84.8028 101.056 83.4588 100.816 83.4588 99.376C83.4588 98.192 84.3708 97.632 85.6668 97.632C86.6588 97.632 87.9708 97.968 89.0268 98.704V97.104C88.0988 96.512 86.7868 96.24 85.6988 96.24C83.4428 96.24 81.9548 97.424 81.9548 99.472C81.9548 101.584 83.5388 102.256 85.1708 102.72C86.6908 103.152 88.0508 103.408 88.0508 104.896C88.0508 106.16 87.0748 106.784 85.6988 106.784C84.6748 106.784 83.2828 106.432 82.1948 105.6V107.264ZM90.9075 104.064C90.9075 106.384 92.6835 108.176 95.0675 108.176C97.4515 108.176 99.2275 106.384 99.2275 104.064C99.2275 101.744 97.4515 99.952 95.0675 99.952C92.6835 99.952 90.9075 101.744 90.9075 104.064ZM92.3475 104.064C92.3475 102.48 93.4995 101.264 95.0675 101.264C96.6355 101.264 97.7875 102.48 97.7875 104.064C97.7875 105.648 96.6355 106.864 95.0675 106.864C93.4995 106.864 92.3475 105.648 92.3475 104.064ZM101.825 107.296C102.353 107.904 103.169 108.176 103.969 108.176C105.057 108.176 106.001 107.68 106.689 106.992L106.721 107.008V108H108.161V100.128H106.721V105.504C106.161 106.208 105.233 106.848 104.257 106.848C103.793 106.848 103.329 106.704 103.009 106.304C102.737 105.984 102.625 105.536 102.625 104.672V100.128H101.185V104.944C101.185 106.064 101.377 106.768 101.825 107.296ZM111.886 107.44C112.398 108.032 113.102 108.176 113.678 108.176C114.222 108.176 114.782 108.048 115.102 107.888V106.528C114.798 106.72 114.334 106.864 113.918 106.864C112.878 106.864 112.734 105.968 112.734 104.992V101.424H115.102V100.128H112.734V97.744L111.294 97.984V100.128H109.838V101.424H111.294V105.264C111.294 106.368 111.502 107.008 111.886 107.44ZM116.905 108H118.345V102.608C118.937 101.872 119.913 101.296 120.857 101.296C121.353 101.296 121.753 101.456 122.057 101.808C122.329 102.112 122.441 102.528 122.441 103.408V108H123.881V103.136C123.881 101.92 123.657 101.312 123.225 100.816C122.729 100.256 121.993 99.952 121.129 99.952C120.025 99.952 119.065 100.448 118.377 101.136L118.345 101.12V95.776H116.905V108ZM129.64 102.24C129.64 105.632 132.184 108.176 135.704 108.176C136.92 108.176 138.184 107.872 139.112 107.28V105.6C138.2 106.336 137.064 106.768 135.784 106.768C133.016 106.768 131.16 104.784 131.16 102.208C131.16 99.632 133.016 97.648 135.656 97.648C136.888 97.648 138.072 98.08 138.936 98.72V97.056C138.024 96.544 136.888 96.24 135.672 96.24C132.04 96.24 129.64 98.944 129.64 102.24ZM144.726 107.264C145.734 107.872 147.094 108.176 148.214 108.176C150.534 108.176 152.086 106.928 152.086 104.816C152.086 102.608 150.422 101.936 148.742 101.456C147.334 101.056 145.99 100.816 145.99 99.376C145.99 98.192 146.902 97.632 148.198 97.632C149.19 97.632 150.502 97.968 151.558 98.704V97.104C150.63 96.512 149.318 96.24 148.23 96.24C145.974 96.24 144.486 97.424 144.486 99.472C144.486 101.584 146.07 102.256 147.702 102.72C149.222 103.152 150.582 103.408 150.582 104.896C150.582 106.16 149.606 106.784 148.23 106.784C147.206 106.784 145.814 106.432 144.726 105.6V107.264ZM155.183 107.44C155.695 108.032 156.399 108.176 156.975 108.176C157.519 108.176 158.079 108.048 158.399 107.888V106.528C158.095 106.72 157.631 106.864 157.215 106.864C156.175 106.864 156.031 105.968 156.031 104.992V101.424H158.399V100.128H156.031V97.744L154.591 97.984V100.128H153.135V101.424H154.591V105.264C154.591 106.368 154.799 107.008 155.183 107.44ZM160.202 108H161.642V102.88C162.138 102.032 162.89 101.488 163.962 101.488C164.138 101.488 164.33 101.504 164.522 101.552V100.128C164.346 100.08 164.17 100.064 164.01 100.064C163.082 100.064 162.218 100.528 161.674 101.296L161.642 101.28V100.128H160.202V108ZM172.801 104.48C172.833 104.288 172.849 104 172.849 103.76C172.849 101.296 171.185 99.952 169.265 99.952C167.153 99.952 165.345 101.584 165.345 104.064C165.345 106.544 167.169 108.176 169.601 108.176C170.625 108.176 171.713 107.888 172.417 107.44V105.904C171.697 106.448 170.785 106.88 169.697 106.88C168.145 106.88 166.993 106.032 166.785 104.48H172.801ZM169.233 101.248C170.177 101.248 171.329 101.776 171.457 103.344H166.817C167.073 101.888 168.193 101.248 169.233 101.248ZM181.817 104.48C181.849 104.288 181.865 104 181.865 103.76C181.865 101.296 180.201 99.952 178.281 99.952C176.169 99.952 174.361 101.584 174.361 104.064C174.361 106.544 176.185 108.176 178.617 108.176C179.641 108.176 180.729 107.888 181.433 107.44V105.904C180.713 106.448 179.801 106.88 178.713 106.88C177.161 106.88 176.009 106.032 175.801 104.48H181.817ZM178.249 101.248C179.193 101.248 180.345 101.776 180.473 103.344H175.833C176.089 101.888 177.209 101.248 178.249 101.248ZM184.964 107.44C185.476 108.032 186.18 108.176 186.756 108.176C187.3 108.176 187.86 108.048 188.18 107.888V106.528C187.876 106.72 187.412 106.864 186.996 106.864C185.956 106.864 185.812 105.968 185.812 104.992V101.424H188.18V100.128H185.812V97.744L184.372 97.984V100.128H182.916V101.424H184.372V105.264C184.372 106.368 184.58 107.008 184.964 107.44ZM50.64 126.208C50.64 129.568 53.168 132.176 56.528 132.176C59.888 132.176 62.416 129.568 62.416 126.208C62.416 122.848 59.888 120.24 56.528 120.24C53.168 120.24 50.64 122.848 50.64 126.208ZM52.16 126.208C52.16 123.664 54 121.648 56.528 121.648C59.056 121.648 60.896 123.664 60.896 126.208C60.896 128.752 59.056 130.768 56.528 130.768C54 130.768 52.16 128.752 52.16 126.208ZM69.4625 132H71.1585L68.0065 127.792L70.7585 124.128H69.1265L68.2945 125.264C67.9105 125.792 67.4625 126.416 67.1265 126.896H67.0945C66.7585 126.416 66.3265 125.824 65.9265 125.28L65.0785 124.128H63.3825L66.1665 127.824L63.0145 132H64.6465L65.7985 130.448C66.1985 129.904 66.6945 129.232 67.0465 128.736H67.0785C67.4305 129.232 67.8945 129.872 68.2945 130.416L69.4625 132ZM72.3578 132H73.7978V126.608C74.3578 125.856 75.3658 125.296 76.2618 125.296C76.6938 125.296 77.2058 125.424 77.5258 125.808C77.7818 126.112 77.8938 126.592 77.8938 127.408V132H79.3338V127.136C79.3338 125.92 79.1098 125.312 78.6778 124.816C78.1818 124.256 77.4458 123.952 76.5818 123.952C75.4778 123.952 74.5178 124.448 73.8298 125.136L73.7978 125.12V124.128H72.3578V132ZM84.0025 132.176C85.0585 132.176 85.9705 131.728 86.4185 131.312H86.4505C86.7545 131.872 87.3465 132.144 87.9705 132.144C88.2745 132.144 88.5465 132.08 88.7385 132V130.8C88.6105 130.864 88.4345 130.912 88.2745 130.912C87.8425 130.912 87.6665 130.56 87.6665 130.08V126.736C87.6665 125.76 87.3465 125.088 86.8825 124.672C86.3225 124.16 85.4905 123.952 84.5305 123.952C83.3625 123.952 82.5145 124.256 81.9065 124.624V126.032C82.4985 125.6 83.3305 125.248 84.3225 125.248C84.9945 125.248 85.4745 125.408 85.7785 125.68C86.0825 125.968 86.2265 126.4 86.2265 126.976V127.632C85.7145 127.504 85.1545 127.424 84.5465 127.424C83.7305 127.424 82.9305 127.568 82.3385 127.952C81.7145 128.352 81.2985 128.992 81.2985 129.872C81.2985 130.64 81.6185 131.232 82.1305 131.616C82.6585 132.016 83.3625 132.176 84.0025 132.176ZM84.2585 130.896C83.4105 130.896 82.7545 130.512 82.7545 129.744C82.7545 128.816 83.7145 128.528 84.6905 128.528C85.1865 128.528 85.7945 128.608 86.2265 128.736V130.208C85.7465 130.592 85.0105 130.896 84.2585 130.896ZM90.3421 132H91.7821V126.88C92.2781 126.032 93.0301 125.488 94.1021 125.488C94.2781 125.488 94.4701 125.504 94.6621 125.552V124.128C94.4861 124.08 94.3101 124.064 94.1501 124.064C93.2221 124.064 92.3581 124.528 91.8141 125.296L91.7821 125.28V124.128H90.3421V132ZM95.5176 128.192C95.5176 130.624 97.2456 132.176 99.3736 132.176C100.318 132.176 101.054 131.872 101.582 131.504L101.614 131.52V132H103.054V119.776H101.614V124.352L101.582 124.368C101.07 124.144 100.478 123.952 99.6936 123.952C97.2136 123.952 95.5176 125.776 95.5176 128.192ZM96.9736 128.112C96.9736 126.496 98.0136 125.232 99.6776 125.232C100.382 125.232 101.086 125.456 101.614 125.728V130.224C101.054 130.608 100.35 130.896 99.5656 130.896C97.9496 130.896 96.9736 129.68 96.9736 128.112ZM105.209 134.352H106.265L107.561 129.824H106.105L105.209 134.352ZM113.547 126.24C113.547 129.632 116.091 132.176 119.611 132.176C120.827 132.176 122.091 131.872 123.019 131.28V129.6C122.107 130.336 120.971 130.768 119.691 130.768C116.923 130.768 115.067 128.784 115.067 126.208C115.067 123.632 116.923 121.648 119.563 121.648C120.795 121.648 121.979 122.08 122.843 122.72V121.056C121.931 120.544 120.795 120.24 119.579 120.24C115.947 120.24 113.547 122.944 113.547 126.24ZM123.861 132H125.413L126.725 128.768H131.941L133.237 132H134.869L130.085 120.416H128.629L123.861 132ZM128.197 125.088C128.597 124.096 128.981 123.12 129.333 122.176H129.365C129.717 123.12 130.101 124.112 130.469 125.04L131.413 127.44H127.253L128.197 125.088ZM143.292 132L145.996 127.68C146.796 126.4 147.388 125.328 147.388 123.968C147.388 121.744 145.756 120.24 143.516 120.24C141.244 120.24 139.548 121.792 139.548 123.92C139.548 125.984 141.18 127.408 143.052 127.408C143.66 127.408 144.22 127.264 144.62 127.024L144.652 127.056L141.548 132H143.292ZM143.452 126.112C142.012 126.112 141.052 125.12 141.052 123.872C141.052 122.496 142.188 121.6 143.468 121.6C144.876 121.6 145.852 122.704 145.852 123.888C145.852 125.088 144.908 126.112 143.452 126.112ZM149.051 131.104C149.723 131.696 150.891 132.176 152.235 132.176C154.475 132.176 156.107 130.848 156.107 128.832C156.107 127.552 155.451 126.4 154.011 126.096V126.064C155.147 125.728 155.867 124.736 155.867 123.44C155.867 121.52 154.315 120.24 152.203 120.24C151.259 120.24 150.379 120.496 149.739 120.88V122.432C150.395 121.968 151.259 121.648 152.123 121.648C153.435 121.648 154.347 122.384 154.347 123.584C154.347 124.72 153.531 125.52 152.075 125.52H151.035V126.864H152.123C153.771 126.864 154.587 127.664 154.587 128.8C154.587 130.032 153.595 130.768 152.219 130.768C151.131 130.768 150.011 130.304 149.051 129.36V131.104ZM162.022 132.176C163.174 132.176 164.182 131.696 164.87 130.768C165.622 129.744 165.974 128.16 165.974 126.208C165.974 124.256 165.622 122.672 164.87 121.648C164.182 120.72 163.174 120.24 162.022 120.24C160.87 120.24 159.862 120.72 159.174 121.648C158.422 122.672 158.07 124.256 158.07 126.208C158.07 128.16 158.422 129.744 159.174 130.768C159.862 131.696 160.87 132.176 162.022 132.176ZM162.022 130.768C161.334 130.768 160.806 130.464 160.422 129.984C159.75 129.12 159.59 127.6 159.59 126.208C159.59 124.816 159.75 123.296 160.422 122.432C160.806 121.952 161.334 121.648 162.022 121.648C162.71 121.648 163.238 121.952 163.622 122.432C164.294 123.296 164.454 124.816 164.454 126.208C164.454 127.6 164.294 129.12 163.622 129.984C163.238 130.464 162.71 130.768 162.022 130.768ZM167.817 131.104C168.489 131.696 169.657 132.176 171.001 132.176C173.241 132.176 174.873 130.848 174.873 128.832C174.873 127.552 174.217 126.4 172.777 126.096V126.064C173.913 125.728 174.633 124.736 174.633 123.44C174.633 121.52 173.081 120.24 170.969 120.24C170.025 120.24 169.145 120.496 168.505 120.88V122.432C169.161 121.968 170.025 121.648 170.889 121.648C172.201 121.648 173.113 122.384 173.113 123.584C173.113 124.72 172.297 125.52 170.841 125.52H169.801V126.864H170.889C172.537 126.864 173.353 127.664 173.353 128.8C173.353 130.032 172.361 130.768 170.985 130.768C169.897 130.768 168.777 130.304 167.817 129.36V131.104ZM180.788 132.176C181.94 132.176 182.948 131.696 183.636 130.768C184.388 129.744 184.74 128.16 184.74 126.208C184.74 124.256 184.388 122.672 183.636 121.648C182.948 120.72 181.94 120.24 180.788 120.24C179.636 120.24 178.628 120.72 177.94 121.648C177.188 122.672 176.836 124.256 176.836 126.208C176.836 128.16 177.188 129.744 177.94 130.768C178.628 131.696 179.636 132.176 180.788 132.176ZM180.788 130.768C180.1 130.768 179.572 130.464 179.188 129.984C178.516 129.12 178.356 127.6 178.356 126.208C178.356 124.816 178.516 123.296 179.188 122.432C179.572 121.952 180.1 121.648 180.788 121.648C181.476 121.648 182.004 121.952 182.388 122.432C183.06 123.296 183.22 124.816 183.22 126.208C183.22 127.6 183.06 129.12 182.388 129.984C182.004 130.464 181.476 130.768 180.788 130.768Z" fill="#1C3F94"/>
<path d="M50 109.92H188.724V110.72H50V109.92ZM50 133.92H185.732V134.72H50V133.92Z" fill="#1C3F94"/>
<rect y="154" width="34" height="34" rx="17" fill="#CBDAFF"/>
<mask id="mask2_342_29975" style="mask-type:alpha" maskUnits="userSpaceOnUse" x="8" y="162" width="18" height="18">
<rect x="8" y="162" width="18" height="18" fill="#D9D9D9"/>
</mask>
<g mask="url(#mask2_342_29975)">
<path d="M19.475 174.525L20.525 173.475L17.75 170.7V167.25H16.25V171.3L19.475 174.525ZM17 178.5C15.9625 178.5 14.9875 178.303 14.075 177.909C13.1625 177.516 12.3688 176.981 11.6938 176.306C11.0188 175.631 10.4845 174.837 10.091 173.925C9.697 173.012 9.5 172.038 9.5 171C9.5 169.963 9.697 168.988 10.091 168.075C10.4845 167.163 11.0188 166.369 11.6938 165.694C12.3688 165.019 13.1625 164.484 14.075 164.09C14.9875 163.697 15.9625 163.5 17 163.5C18.0375 163.5 19.0125 163.697 19.925 164.09C20.8375 164.484 21.6313 165.019 22.3063 165.694C22.9813 166.369 23.5155 167.163 23.909 168.075C24.303 168.988 24.5 169.963 24.5 171C24.5 172.038 24.303 173.012 23.909 173.925C23.5155 174.837 22.9813 175.631 22.3063 176.306C21.6313 176.981 20.8375 177.516 19.925 177.909C19.0125 178.303 18.0375 178.5 17 178.5ZM17 177C18.6625 177 20.0782 176.416 21.2472 175.247C22.4158 174.078 23 172.663 23 171C23 169.338 22.4158 167.922 21.2472 166.753C20.0782 165.584 18.6625 165 17 165C15.3375 165 13.922 165.584 12.7535 166.753C11.5845 167.922 11 169.338 11 171C11 172.663 11.5845 174.078 12.7535 175.247C13.922 176.416 15.3375 177 17 177Z" fill="#061436"/>
</g>
<path d="M51.296 172H52.816V166.672H59.12V172H60.64V160.416H59.12V165.296H52.816V160.416H51.296V172ZM62.6575 168.064C62.6575 170.384 64.4335 172.176 66.8175 172.176C69.2015 172.176 70.9775 170.384 70.9775 168.064C70.9775 165.744 69.2015 163.952 66.8175 163.952C64.4335 163.952 62.6575 165.744 62.6575 168.064ZM64.0975 168.064C64.0975 166.48 65.2495 165.264 66.8175 165.264C68.3855 165.264 69.5375 166.48 69.5375 168.064C69.5375 169.648 68.3855 170.864 66.8175 170.864C65.2495 170.864 64.0975 169.648 64.0975 168.064ZM73.5751 171.296C74.1031 171.904 74.9191 172.176 75.7191 172.176C76.8071 172.176 77.7511 171.68 78.4391 170.992L78.4711 171.008V172H79.9111V164.128H78.4711V169.504C77.9111 170.208 76.9831 170.848 76.0071 170.848C75.5431 170.848 75.0791 170.704 74.7591 170.304C74.4871 169.984 74.3751 169.536 74.3751 168.672V164.128H72.9351V168.944C72.9351 170.064 73.1271 170.768 73.5751 171.296ZM82.4359 172H83.8759V166.88C84.3719 166.032 85.1239 165.488 86.1959 165.488C86.3719 165.488 86.5639 165.504 86.7559 165.552V164.128C86.5799 164.08 86.4039 164.064 86.2439 164.064C85.3159 164.064 84.4519 164.528 83.9079 165.296L83.8759 165.28V164.128H82.4359V172ZM88.0869 171.536C88.9029 171.968 90.0229 172.176 91.0309 172.176C92.7109 172.176 94.3429 171.488 94.3429 169.664C94.3429 168.032 93.0949 167.616 91.5909 167.36C90.4229 167.152 89.3029 167.152 89.3029 166.256C89.3029 165.552 90.0069 165.248 91.0149 165.248C91.9269 165.248 93.0149 165.504 93.8949 166.016V164.576C93.1109 164.16 92.0229 163.952 91.0789 163.952C89.2549 163.952 87.8629 164.736 87.8469 166.368C87.8469 167.92 89.0309 168.368 90.5349 168.624C91.7509 168.832 92.8869 168.848 92.8869 169.792C92.8869 170.56 92.1829 170.88 91.0949 170.88C90.1189 170.88 88.9829 170.608 88.0869 170.032V171.536ZM97.3832 166.032C97.9593 166.032 98.4233 165.568 98.4233 164.992C98.4233 164.416 97.9593 163.952 97.3832 163.952C96.8073 163.952 96.3433 164.416 96.3433 164.992C96.3433 165.568 96.8073 166.032 97.3832 166.032ZM96.3433 171.136C96.3433 171.712 96.8073 172.176 97.3832 172.176C97.9593 172.176 98.4233 171.712 98.4233 171.136C98.4233 170.56 97.9593 170.096 97.3832 170.096C96.8073 170.096 96.3433 170.56 96.3433 171.136ZM110.457 168.848L112.985 165.232C113.513 164.48 114.025 163.712 114.537 162.944L114.569 162.96C114.553 163.648 114.537 164.528 114.537 165.472V172H116.057V160.416H114.601L110.489 166.304L106.377 160.416H104.905V172H106.377V165.472C106.377 164.528 106.361 163.648 106.345 162.96L106.377 162.944C106.889 163.712 107.401 164.48 107.929 165.232L110.457 168.848ZM118.079 168.064C118.079 170.384 119.855 172.176 122.239 172.176C124.623 172.176 126.399 170.384 126.399 168.064C126.399 165.744 124.623 163.952 122.239 163.952C119.855 163.952 118.079 165.744 118.079 168.064ZM119.519 168.064C119.519 166.48 120.671 165.264 122.239 165.264C123.807 165.264 124.959 166.48 124.959 168.064C124.959 169.648 123.807 170.864 122.239 170.864C120.671 170.864 119.519 169.648 119.519 168.064ZM128.389 172H129.829V166.608C130.389 165.856 131.397 165.296 132.293 165.296C132.725 165.296 133.237 165.424 133.557 165.808C133.813 166.112 133.925 166.592 133.925 167.408V172H135.365V167.136C135.365 165.92 135.141 165.312 134.709 164.816C134.213 164.256 133.477 163.952 132.613 163.952C131.509 163.952 130.549 164.448 129.861 165.136L129.829 165.12V164.128H128.389V172ZM137.346 168.192C137.346 170.624 139.074 172.176 141.202 172.176C142.146 172.176 142.882 171.872 143.41 171.504L143.442 171.52V172H144.882V159.776H143.442V164.352L143.41 164.368C142.898 164.144 142.306 163.952 141.522 163.952C139.042 163.952 137.346 165.776 137.346 168.192ZM138.802 168.112C138.802 166.496 139.842 165.232 141.506 165.232C142.21 165.232 142.914 165.456 143.442 165.728V170.224C142.882 170.608 142.178 170.896 141.394 170.896C139.778 170.896 138.802 169.68 138.802 168.112ZM149.581 172.176C150.637 172.176 151.549 171.728 151.997 171.312H152.029C152.333 171.872 152.925 172.144 153.549 172.144C153.853 172.144 154.125 172.08 154.317 172V170.8C154.189 170.864 154.013 170.912 153.853 170.912C153.421 170.912 153.245 170.56 153.245 170.08V166.736C153.245 165.76 152.925 165.088 152.461 164.672C151.901 164.16 151.069 163.952 150.109 163.952C148.941 163.952 148.093 164.256 147.485 164.624V166.032C148.077 165.6 148.909 165.248 149.901 165.248C150.573 165.248 151.053 165.408 151.357 165.68C151.661 165.968 151.805 166.4 151.805 166.976V167.632C151.293 167.504 150.733 167.424 150.125 167.424C149.309 167.424 148.509 167.568 147.917 167.952C147.293 168.352 146.877 168.992 146.877 169.872C146.877 170.64 147.197 171.232 147.709 171.616C148.237 172.016 148.941 172.176 149.581 172.176ZM149.837 170.896C148.989 170.896 148.333 170.512 148.333 169.744C148.333 168.816 149.293 168.528 150.269 168.528C150.765 168.528 151.373 168.608 151.805 168.736V170.208C151.325 170.592 150.589 170.896 149.837 170.896ZM157.181 175.52L162.509 164.128H160.989L159.613 167.104C159.245 167.904 158.893 168.688 158.541 169.472H158.509C158.189 168.752 157.805 167.904 157.437 167.104L156.061 164.128H154.461L157.741 171.152L155.613 175.52H157.181ZM163.504 168.144H169.776V166.992H163.504V168.144ZM173.067 172H174.587V161.792H178.475V160.416H169.179V161.792H173.067V172ZM180.061 172H181.501V166.608C182.093 165.872 183.069 165.296 184.013 165.296C184.509 165.296 184.909 165.456 185.213 165.808C185.485 166.112 185.597 166.528 185.597 167.408V172H187.037V167.136C187.037 165.92 186.813 165.312 186.381 164.816C185.885 164.256 185.149 163.952 184.285 163.952C183.181 163.952 182.221 164.448 181.533 165.136L181.501 165.12V159.776H180.061V172ZM190.138 171.296C190.666 171.904 191.482 172.176 192.282 172.176C193.37 172.176 194.314 171.68 195.002 170.992L195.034 171.008V172H196.474V164.128H195.034V169.504C194.474 170.208 193.546 170.848 192.57 170.848C192.106 170.848 191.642 170.704 191.322 170.304C191.05 169.984 190.938 169.536 190.938 168.672V164.128H189.498V168.944C189.498 170.064 189.69 170.768 190.138 171.296ZM198.998 172H200.438V166.88C200.934 166.032 201.686 165.488 202.758 165.488C202.934 165.488 203.126 165.504 203.318 165.552V164.128C203.142 164.08 202.966 164.064 202.806 164.064C201.878 164.064 201.014 164.528 200.47 165.296L200.438 165.28V164.128H198.998V172ZM204.649 171.536C205.465 171.968 206.585 172.176 207.593 172.176C209.273 172.176 210.905 171.488 210.905 169.664C210.905 168.032 209.657 167.616 208.153 167.36C206.985 167.152 205.865 167.152 205.865 166.256C205.865 165.552 206.569 165.248 207.577 165.248C208.489 165.248 209.577 165.504 210.457 166.016V164.576C209.673 164.16 208.585 163.952 207.641 163.952C205.817 163.952 204.425 164.736 204.409 166.368C204.409 167.92 205.593 168.368 207.097 168.624C208.313 168.832 209.449 168.848 209.449 169.792C209.449 170.56 208.745 170.88 207.657 170.88C206.681 170.88 205.545 170.608 204.649 170.032V171.536ZM212.346 168.192C212.346 170.624 214.074 172.176 216.202 172.176C217.146 172.176 217.882 171.872 218.41 171.504L218.442 171.52V172H219.882V159.776H218.442V164.352L218.41 164.368C217.898 164.144 217.306 163.952 216.522 163.952C214.042 163.952 212.346 165.776 212.346 168.192ZM213.802 168.112C213.802 166.496 214.842 165.232 216.506 165.232C217.21 165.232 217.914 165.456 218.442 165.728V170.224C217.882 170.608 217.178 170.896 216.394 170.896C214.778 170.896 213.802 169.68 213.802 168.112ZM224.581 172.176C225.637 172.176 226.549 171.728 226.997 171.312H227.029C227.333 171.872 227.925 172.144 228.549 172.144C228.853 172.144 229.125 172.08 229.317 172V170.8C229.189 170.864 229.013 170.912 228.853 170.912C228.421 170.912 228.245 170.56 228.245 170.08V166.736C228.245 165.76 227.925 165.088 227.461 164.672C226.901 164.16 226.069 163.952 225.109 163.952C223.941 163.952 223.093 164.256 222.485 164.624V166.032C223.077 165.6 223.909 165.248 224.901 165.248C225.573 165.248 226.053 165.408 226.357 165.68C226.661 165.968 226.805 166.4 226.805 166.976V167.632C226.293 167.504 225.733 167.424 225.125 167.424C224.309 167.424 223.509 167.568 222.917 167.952C222.293 168.352 221.877 168.992 221.877 169.872C221.877 170.64 222.197 171.232 222.709 171.616C223.237 172.016 223.941 172.176 224.581 172.176ZM224.837 170.896C223.989 170.896 223.333 170.512 223.333 169.744C223.333 168.816 224.293 168.528 225.269 168.528C225.765 168.528 226.373 168.608 226.805 168.736V170.208C226.325 170.592 225.589 170.896 224.837 170.896ZM232.181 175.52L237.509 164.128H235.989L234.613 167.104C234.245 167.904 233.893 168.688 233.541 169.472H233.509C233.189 168.752 232.805 167.904 232.437 167.104L231.061 164.128H229.461L232.741 171.152L230.613 175.52H232.181ZM242.725 168.752C242.725 170.72 244.261 172.176 246.613 172.176C248.965 172.176 250.501 170.72 250.501 168.752C250.501 167.392 249.765 166.32 248.501 165.888V165.856C249.589 165.408 250.181 164.576 250.181 163.408C250.181 161.6 248.757 160.24 246.613 160.24C244.469 160.24 243.045 161.6 243.045 163.408C243.045 164.576 243.637 165.408 244.725 165.856V165.888C243.461 166.32 242.725 167.392 242.725 168.752ZM246.613 165.36C245.445 165.36 244.485 164.576 244.485 163.472C244.485 162.368 245.413 161.584 246.613 161.584C247.813 161.584 248.741 162.368 248.741 163.472C248.741 164.576 247.781 165.36 246.613 165.36ZM244.229 168.72C244.229 167.456 245.301 166.576 246.613 166.576C247.925 166.576 248.997 167.456 248.997 168.72C248.997 169.984 247.941 170.832 246.613 170.832C245.285 170.832 244.229 169.984 244.229 168.72ZM254.878 172.176C255.934 172.176 256.846 171.728 257.294 171.312H257.326C257.63 171.872 258.222 172.144 258.846 172.144C259.15 172.144 259.422 172.08 259.614 172V170.8C259.486 170.864 259.31 170.912 259.15 170.912C258.718 170.912 258.542 170.56 258.542 170.08V166.736C258.542 165.76 258.222 165.088 257.758 164.672C257.198 164.16 256.366 163.952 255.406 163.952C254.238 163.952 253.39 164.256 252.782 164.624V166.032C253.374 165.6 254.206 165.248 255.198 165.248C255.87 165.248 256.35 165.408 256.654 165.68C256.958 165.968 257.102 166.4 257.102 166.976V167.632C256.59 167.504 256.03 167.424 255.422 167.424C254.606 167.424 253.806 167.568 253.214 167.952C252.59 168.352 252.174 168.992 252.174 169.872C252.174 170.64 252.493 171.232 253.006 171.616C253.534 172.016 254.238 172.176 254.878 172.176ZM255.134 170.896C254.286 170.896 253.63 170.512 253.63 169.744C253.63 168.816 254.59 168.528 255.566 168.528C256.062 168.528 256.67 168.608 257.102 168.736V170.208C256.622 170.592 255.886 170.896 255.134 170.896ZM272.049 172H273.489V167.088C273.489 166.016 273.313 165.312 272.833 164.784C272.353 164.24 271.617 163.952 270.769 163.952C269.681 163.952 268.721 164.416 267.777 165.312C267.297 164.368 266.337 163.952 265.361 163.952C264.273 163.952 263.345 164.448 262.689 165.104L262.657 165.088V164.128H261.217V172H262.657V166.528C263.201 165.872 264.129 165.296 265.057 165.296C265.505 165.296 265.937 165.424 266.257 165.792C266.529 166.112 266.625 166.496 266.625 167.344V172H268.065V167.088C268.065 166.896 268.065 166.704 268.049 166.528C268.593 165.888 269.537 165.296 270.449 165.296C270.865 165.296 271.345 165.424 271.649 165.776C271.937 166.112 272.049 166.592 272.049 167.344V172ZM279.426 168.144H285.698V166.992H279.426V168.144ZM54.816 184.416L52.224 188.592C51.184 190.272 50.816 191.264 50.816 192.352C50.816 194.656 52.496 196.176 54.752 196.176C57.024 196.176 58.688 194.624 58.688 192.512C58.688 190.48 57.136 189.008 55.168 189.008C54.432 189.008 53.824 189.216 53.408 189.52L53.376 189.504C53.488 189.296 53.648 189.04 53.808 188.8L56.56 184.416H54.816ZM52.352 192.496C52.352 191.216 53.456 190.288 54.8 190.288C56.192 190.288 57.184 191.28 57.184 192.56C57.184 193.936 56.064 194.832 54.768 194.832C53.312 194.832 52.352 193.68 52.352 192.496ZM62.2821 195.76L62.3141 195.744C62.8101 195.984 63.4661 196.176 64.2501 196.176C66.5221 196.176 68.3621 194.56 68.3621 192.032C68.3621 189.6 66.6661 187.952 64.5541 187.952C63.6261 187.952 62.8581 188.272 62.3141 188.656L62.2821 188.64V188.128H60.8421V199.52H62.2821V195.76ZM62.2821 194.368V189.968C62.8421 189.504 63.6101 189.248 64.3141 189.248C65.8821 189.248 66.9061 190.544 66.9061 192.144C66.9061 193.76 65.8501 194.912 64.2821 194.912C63.5141 194.912 62.7781 194.64 62.2821 194.368ZM81.1898 196H82.6298V191.088C82.6298 190.016 82.4538 189.312 81.9738 188.784C81.4938 188.24 80.7578 187.952 79.9098 187.952C78.8218 187.952 77.8618 188.416 76.9178 189.312C76.4378 188.368 75.4778 187.952 74.5018 187.952C73.4138 187.952 72.4858 188.448 71.8298 189.104L71.7978 189.088V188.128H70.3578V196H71.7978V190.528C72.3418 189.872 73.2698 189.296 74.1978 189.296C74.6458 189.296 75.0778 189.424 75.3978 189.792C75.6698 190.112 75.7658 190.496 75.7658 191.344V196H77.2058V191.088C77.2058 190.896 77.2058 190.704 77.1898 190.528C77.7338 189.888 78.6778 189.296 79.5898 189.296C80.0058 189.296 80.4858 189.424 80.7898 189.776C81.0778 190.112 81.1898 190.592 81.1898 191.344V196ZM84.7554 198.352H85.8114L87.1074 193.824H85.6514L84.7554 198.352ZM86.2114 190.032C86.7874 190.032 87.2514 189.568 87.2514 188.992C87.2514 188.416 86.7874 187.952 86.2114 187.952C85.6354 187.952 85.1714 188.416 85.1714 188.992C85.1714 189.568 85.6354 190.032 86.2114 190.032ZM92.5175 196H94.0695L95.3815 192.768H100.598L101.894 196H103.526L98.7415 184.416H97.2855L92.5175 196ZM96.8535 189.088C97.2535 188.096 97.6375 187.12 97.9895 186.176H98.0215C98.3735 187.12 98.7575 188.112 99.1255 189.04L100.07 191.44H95.9095L96.8535 189.088ZM104.873 196H106.313V183.776H104.873V196ZM110.042 195.44C110.554 196.032 111.258 196.176 111.834 196.176C112.378 196.176 112.938 196.048 113.258 195.888V194.528C112.954 194.72 112.49 194.864 112.074 194.864C111.034 194.864 110.89 193.968 110.89 192.992V189.424H113.258V188.128H110.89V185.744L109.45 185.984V188.128H107.994V189.424H109.45V193.264C109.45 194.368 109.658 195.008 110.042 195.44ZM121.785 192.48C121.817 192.288 121.833 192 121.833 191.76C121.833 189.296 120.169 187.952 118.249 187.952C116.137 187.952 114.329 189.584 114.329 192.064C114.329 194.544 116.153 196.176 118.585 196.176C119.609 196.176 120.697 195.888 121.401 195.44V193.904C120.681 194.448 119.769 194.88 118.681 194.88C117.129 194.88 115.977 194.032 115.769 192.48H121.785ZM118.217 189.248C119.161 189.248 120.313 189.776 120.441 191.344H115.801C116.057 189.888 117.177 189.248 118.217 189.248ZM123.889 196H125.329V190.88C125.825 190.032 126.577 189.488 127.649 189.488C127.825 189.488 128.017 189.504 128.209 189.552V188.128C128.033 188.08 127.857 188.064 127.697 188.064C126.769 188.064 125.905 188.528 125.361 189.296L125.329 189.28V188.128H123.889V196ZM129.764 196H131.204V190.608C131.764 189.856 132.772 189.296 133.668 189.296C134.1 189.296 134.612 189.424 134.932 189.808C135.188 190.112 135.3 190.592 135.3 191.408V196H136.74V191.136C136.74 189.92 136.516 189.312 136.084 188.816C135.588 188.256 134.852 187.952 133.988 187.952C132.884 187.952 131.924 188.448 131.236 189.136L131.204 189.12V188.128H129.764V196ZM141.409 196.176C142.465 196.176 143.377 195.728 143.825 195.312H143.857C144.161 195.872 144.753 196.144 145.377 196.144C145.681 196.144 145.953 196.08 146.145 196V194.8C146.017 194.864 145.841 194.912 145.681 194.912C145.249 194.912 145.073 194.56 145.073 194.08V190.736C145.073 189.76 144.753 189.088 144.289 188.672C143.729 188.16 142.897 187.952 141.937 187.952C140.769 187.952 139.921 188.256 139.313 188.624V190.032C139.905 189.6 140.737 189.248 141.729 189.248C142.401 189.248 142.881 189.408 143.185 189.68C143.489 189.968 143.633 190.4 143.633 190.976V191.632C143.121 191.504 142.561 191.424 141.953 191.424C141.137 191.424 140.337 191.568 139.745 191.952C139.121 192.352 138.705 192.992 138.705 193.872C138.705 194.64 139.025 195.232 139.537 195.616C140.065 196.016 140.769 196.176 141.409 196.176ZM141.665 194.896C140.817 194.896 140.161 194.512 140.161 193.744C140.161 192.816 141.121 192.528 142.097 192.528C142.593 192.528 143.201 192.608 143.633 192.736V194.208C143.153 194.592 142.417 194.896 141.665 194.896ZM148.948 195.44C149.46 196.032 150.164 196.176 150.74 196.176C151.284 196.176 151.844 196.048 152.164 195.888V194.528C151.86 194.72 151.396 194.864 150.98 194.864C149.94 194.864 149.796 193.968 149.796 192.992V189.424H152.164V188.128H149.796V185.744L148.356 185.984V188.128H146.9V189.424H148.356V193.264C148.356 194.368 148.564 195.008 148.948 195.44ZM153.679 185.424C153.679 185.984 154.127 186.432 154.687 186.432C155.247 186.432 155.695 185.984 155.695 185.424C155.695 184.864 155.247 184.416 154.687 184.416C154.127 184.416 153.679 184.864 153.679 185.424ZM153.967 196H155.407V188.128H153.967V196ZM157.936 196H159.376V190.608C159.936 189.856 160.944 189.296 161.84 189.296C162.272 189.296 162.784 189.424 163.104 189.808C163.36 190.112 163.472 190.592 163.472 191.408V196H164.912V191.136C164.912 189.92 164.688 189.312 164.256 188.816C163.76 188.256 163.024 187.952 162.16 187.952C161.056 187.952 160.096 188.448 159.408 189.136L159.376 189.12V188.128H157.936V196ZM167.933 199.104C168.589 199.44 169.469 199.696 170.429 199.696C172.845 199.696 174.381 198.272 174.381 195.968V188.16L172.989 188.4C172.461 188.144 171.805 187.952 170.989 187.952C168.429 187.952 166.909 189.856 166.909 192.08C166.909 194.4 168.621 196.016 170.765 196.016C171.597 196.016 172.365 195.776 172.909 195.408L172.941 195.424V196C172.941 197.488 171.933 198.384 170.429 198.384C169.549 198.384 168.685 198.064 167.933 197.568V199.104ZM168.365 191.984C168.365 190.448 169.373 189.232 170.957 189.232C171.677 189.232 172.445 189.472 172.941 189.776V194.112C172.461 194.496 171.693 194.752 170.973 194.752C169.421 194.752 168.365 193.568 168.365 191.984ZM180.827 196H182.347V190.864H187.035V189.536H182.347V185.792H187.675V184.416H180.827V196ZM189.17 196H190.61V190.88C191.106 190.032 191.858 189.488 192.93 189.488C193.106 189.488 193.298 189.504 193.49 189.552V188.128C193.314 188.08 193.138 188.064 192.978 188.064C192.05 188.064 191.186 188.528 190.642 189.296L190.61 189.28V188.128H189.17V196ZM194.757 185.424C194.757 185.984 195.205 186.432 195.765 186.432C196.325 186.432 196.773 185.984 196.773 185.424C196.773 184.864 196.325 184.416 195.765 184.416C195.205 184.416 194.757 184.864 194.757 185.424ZM195.045 196H196.485V188.128H195.045V196ZM198.502 192.192C198.502 194.624 200.23 196.176 202.358 196.176C203.302 196.176 204.038 195.872 204.566 195.504L204.598 195.52V196H206.038V183.776H204.598V188.352L204.566 188.368C204.054 188.144 203.462 187.952 202.678 187.952C200.198 187.952 198.502 189.776 198.502 192.192ZM199.958 192.112C199.958 190.496 200.998 189.232 202.662 189.232C203.366 189.232 204.07 189.456 204.598 189.728V194.224C204.038 194.608 203.334 194.896 202.55 194.896C200.934 194.896 199.958 193.68 199.958 192.112ZM210.737 196.176C211.793 196.176 212.705 195.728 213.153 195.312H213.185C213.489 195.872 214.081 196.144 214.705 196.144C215.009 196.144 215.281 196.08 215.473 196V194.8C215.345 194.864 215.169 194.912 215.009 194.912C214.577 194.912 214.401 194.56 214.401 194.08V190.736C214.401 189.76 214.081 189.088 213.617 188.672C213.057 188.16 212.225 187.952 211.265 187.952C210.097 187.952 209.249 188.256 208.641 188.624V190.032C209.233 189.6 210.065 189.248 211.057 189.248C211.729 189.248 212.209 189.408 212.513 189.68C212.817 189.968 212.961 190.4 212.961 190.976V191.632C212.449 191.504 211.889 191.424 211.281 191.424C210.465 191.424 209.665 191.568 209.073 191.952C208.449 192.352 208.033 192.992 208.033 193.872C208.033 194.64 208.353 195.232 208.865 195.616C209.393 196.016 210.097 196.176 210.737 196.176ZM210.993 194.896C210.145 194.896 209.489 194.512 209.489 193.744C209.489 192.816 210.449 192.528 211.425 192.528C211.921 192.528 212.529 192.608 212.961 192.736V194.208C212.481 194.592 211.745 194.896 210.993 194.896ZM218.338 199.52L223.666 188.128H222.146L220.77 191.104C220.402 191.904 220.05 192.688 219.698 193.472H219.666C219.346 192.752 218.962 191.904 218.594 191.104L217.218 188.128H215.618L218.898 195.152L216.77 199.52H218.338ZM224.743 195.536C225.559 195.968 226.679 196.176 227.687 196.176C229.367 196.176 230.999 195.488 230.999 193.664C230.999 192.032 229.751 191.616 228.247 191.36C227.079 191.152 225.959 191.152 225.959 190.256C225.959 189.552 226.663 189.248 227.671 189.248C228.583 189.248 229.671 189.504 230.551 190.016V188.576C229.767 188.16 228.679 187.952 227.735 187.952C225.911 187.952 224.519 188.736 224.503 190.368C224.503 191.92 225.687 192.368 227.191 192.624C228.407 192.832 229.543 192.848 229.543 193.792C229.543 194.56 228.839 194.88 227.751 194.88C226.775 194.88 225.639 194.608 224.743 194.032V195.536ZM240.027 196L242.731 191.68C243.531 190.4 244.123 189.328 244.123 187.968C244.123 185.744 242.491 184.24 240.251 184.24C237.979 184.24 236.283 185.792 236.283 187.92C236.283 189.984 237.914 191.408 239.786 191.408C240.395 191.408 240.955 191.264 241.355 191.024L241.387 191.056L238.283 196H240.027ZM240.187 190.112C238.747 190.112 237.787 189.12 237.787 187.872C237.787 186.496 238.923 185.6 240.203 185.6C241.611 185.6 242.587 186.704 242.587 187.888C242.587 189.088 241.643 190.112 240.187 190.112ZM248.378 196.176C249.434 196.176 250.346 195.728 250.794 195.312H250.826C251.13 195.872 251.722 196.144 252.346 196.144C252.65 196.144 252.922 196.08 253.114 196V194.8C252.986 194.864 252.81 194.912 252.65 194.912C252.218 194.912 252.042 194.56 252.042 194.08V190.736C252.042 189.76 251.722 189.088 251.258 188.672C250.698 188.16 249.866 187.952 248.906 187.952C247.738 187.952 246.89 188.256 246.282 188.624V190.032C246.874 189.6 247.706 189.248 248.698 189.248C249.37 189.248 249.85 189.408 250.154 189.68C250.458 189.968 250.602 190.4 250.602 190.976V191.632C250.09 191.504 249.53 191.424 248.922 191.424C248.106 191.424 247.306 191.568 246.714 191.952C246.09 192.352 245.674 192.992 245.674 193.872C245.674 194.64 245.993 195.232 246.506 195.616C247.034 196.016 247.738 196.176 248.378 196.176ZM248.634 194.896C247.786 194.896 247.13 194.512 247.13 193.744C247.13 192.816 248.09 192.528 249.066 192.528C249.562 192.528 250.17 192.608 250.602 192.736V194.208C250.122 194.592 249.386 194.896 248.634 194.896ZM265.549 196H266.989V191.088C266.989 190.016 266.813 189.312 266.333 188.784C265.853 188.24 265.117 187.952 264.269 187.952C263.181 187.952 262.221 188.416 261.277 189.312C260.797 188.368 259.837 187.952 258.861 187.952C257.773 187.952 256.845 188.448 256.189 189.104L256.157 189.088V188.128H254.717V196H256.157V190.528C256.701 189.872 257.629 189.296 258.557 189.296C259.005 189.296 259.437 189.424 259.757 189.792C260.029 190.112 260.125 190.496 260.125 191.344V196H261.565V191.088C261.565 190.896 261.565 190.704 261.549 190.528C262.093 189.888 263.037 189.296 263.949 189.296C264.365 189.296 264.845 189.424 265.149 189.776C265.437 190.112 265.549 190.592 265.549 191.344V196ZM269.051 192.144H275.323V190.992H269.051V192.144ZM277.052 195.408C277.788 195.872 278.828 196.176 279.964 196.176C282.396 196.176 284.076 194.8 284.076 192.656C284.076 190.016 281.564 189.136 279.164 189.136L279.404 185.792H283.644L283.756 184.416H277.996L277.532 190.56C277.948 190.496 278.412 190.464 278.828 190.464C280.444 190.464 282.556 190.928 282.556 192.72C282.556 194 281.468 194.768 279.964 194.768C279.004 194.768 278.028 194.464 277.164 193.824L277.052 195.408ZM287.563 195.76L287.595 195.744C288.091 195.984 288.747 196.176 289.531 196.176C291.803 196.176 293.643 194.56 293.643 192.032C293.643 189.6 291.947 187.952 289.835 187.952C288.907 187.952 288.139 188.272 287.595 188.656L287.563 188.64V188.128H286.123V199.52H287.563V195.76ZM287.563 194.368V189.968C288.123 189.504 288.891 189.248 289.595 189.248C291.163 189.248 292.187 190.544 292.187 192.144C292.187 193.76 291.131 194.912 289.563 194.912C288.795 194.912 288.059 194.64 287.563 194.368ZM306.471 196H307.911V191.088C307.911 190.016 307.735 189.312 307.255 188.784C306.775 188.24 306.039 187.952 305.191 187.952C304.103 187.952 303.143 188.416 302.199 189.312C301.719 188.368 300.759 187.952 299.783 187.952C298.695 187.952 297.767 188.448 297.111 189.104L297.079 189.088V188.128H295.639V196H297.079V190.528C297.623 189.872 298.551 189.296 299.479 189.296C299.927 189.296 300.359 189.424 300.679 189.792C300.951 190.112 301.047 190.496 301.047 191.344V196H302.487V191.088C302.487 190.896 302.487 190.704 302.471 190.528C303.015 189.888 303.959 189.296 304.871 189.296C305.287 189.296 305.767 189.424 306.071 189.776C306.359 190.112 306.471 190.592 306.471 191.344V196Z" fill="#061436"/>
<rect y="218" width="34" height="34" rx="17" fill="#64D8ED"/>
<mask id="mask3_342_29975" style="mask-type:alpha" maskUnits="userSpaceOnUse" x="8" y="226" width="18" height="18">
<rect x="8" y="226" width="18" height="18" fill="#D9D9D9"/>
</mask>
<g mask="url(#mask3_342_29975)">
<path d="M11 241C10.5875 241 10.2345 240.853 9.941 240.56C9.647 240.266 9.5 239.912 9.5 239.5V230.5C9.5 230.087 9.647 229.734 9.941 229.441C10.2345 229.147 10.5875 229 11 229H23C23.4125 229 23.7658 229.147 24.0598 229.441C24.3533 229.734 24.5 230.087 24.5 230.5V239.5C24.5 239.912 24.3533 240.266 24.0598 240.56C23.7658 240.853 23.4125 241 23 241H11ZM17 235.75L11 232V239.5H23V232L17 235.75ZM17 234.25L23 230.5H11L17 234.25ZM11 232V230.5V239.5V232Z" fill="#061436"/>
</g>
<path d="M58.176 232.48C58.208 232.288 58.224 232 58.224 231.76C58.224 229.296 56.56 227.952 54.64 227.952C52.528 227.952 50.72 229.584 50.72 232.064C50.72 234.544 52.544 236.176 54.976 236.176C56 236.176 57.088 235.888 57.792 235.44V233.904C57.072 234.448 56.16 234.88 55.072 234.88C53.52 234.88 52.368 234.032 52.16 232.48H58.176ZM54.608 229.248C55.552 229.248 56.704 229.776 56.832 231.344H52.192C52.448 229.888 53.568 229.248 54.608 229.248ZM71.1116 236H72.5516V231.088C72.5516 230.016 72.3756 229.312 71.8956 228.784C71.4156 228.24 70.6796 227.952 69.8316 227.952C68.7436 227.952 67.7836 228.416 66.8396 229.312C66.3596 228.368 65.3996 227.952 64.4236 227.952C63.3356 227.952 62.4076 228.448 61.7516 229.104L61.7196 229.088V228.128H60.2796V236H61.7196V230.528C62.2636 229.872 63.1916 229.296 64.1196 229.296C64.5676 229.296 64.9996 229.424 65.3196 229.792C65.5916 230.112 65.6876 230.496 65.6876 231.344V236H67.1276V231.088C67.1276 230.896 67.1276 230.704 67.1116 230.528C67.6556 229.888 68.5996 229.296 69.5116 229.296C69.9276 229.296 70.4076 229.424 70.7116 229.776C70.9996 230.112 71.1116 230.592 71.1116 231.344V236ZM77.2213 236.176C78.2773 236.176 79.1893 235.728 79.6373 235.312H79.6693C79.9733 235.872 80.5653 236.144 81.1893 236.144C81.4933 236.144 81.7653 236.08 81.9573 236V234.8C81.8293 234.864 81.6533 234.912 81.4933 234.912C81.0613 234.912 80.8853 234.56 80.8853 234.08V230.736C80.8853 229.76 80.5653 229.088 80.1013 228.672C79.5413 228.16 78.7093 227.952 77.7493 227.952C76.5813 227.952 75.7333 228.256 75.1253 228.624V230.032C75.7173 229.6 76.5493 229.248 77.5413 229.248C78.2133 229.248 78.6933 229.408 78.9973 229.68C79.3013 229.968 79.4453 230.4 79.4453 230.976V231.632C78.9333 231.504 78.3733 231.424 77.7653 231.424C76.9493 231.424 76.1493 231.568 75.5573 231.952C74.9333 232.352 74.5173 232.992 74.5173 233.872C74.5173 234.64 74.8372 235.232 75.3493 235.616C75.8773 236.016 76.5813 236.176 77.2213 236.176ZM77.4773 234.896C76.6293 234.896 75.9733 234.512 75.9733 233.744C75.9733 232.816 76.9333 232.528 77.9093 232.528C78.4053 232.528 79.0133 232.608 79.4453 232.736V234.208C78.9653 234.592 78.2293 234.896 77.4773 234.896ZM83.2729 225.424C83.2729 225.984 83.7209 226.432 84.2809 226.432C84.8409 226.432 85.2889 225.984 85.2889 225.424C85.2889 224.864 84.8409 224.416 84.2809 224.416C83.7209 224.416 83.2729 224.864 83.2729 225.424ZM83.5609 236H85.0009V228.128H83.5609V236ZM87.5296 236H88.9696V223.776H87.5296V236ZM90.7784 232.064C90.7784 235.424 93.2744 238.032 96.6984 238.032C98.1384 238.032 99.4824 237.568 100.506 236.72L100.074 236.064C99.2104 236.8 98.0424 237.264 96.6824 237.264C93.6264 237.264 91.5784 234.896 91.5784 232.064C91.5784 229.248 93.6264 226.864 96.7144 226.864C99.7864 226.864 101.802 229.248 101.802 232.048C101.802 233.632 101.162 234.336 100.282 234.336C99.5304 234.336 99.0824 233.808 99.0824 232.784C99.0824 232.752 99.0824 232.656 99.0984 232.496L99.3704 229.376L98.4744 229.536C97.9944 229.184 97.4984 228.976 96.8264 228.976C94.8904 228.976 93.6744 230.656 93.6744 232.416C93.6744 234.032 94.7144 235.152 96.1864 235.152C96.9864 235.152 97.7544 234.816 98.3144 234.16H98.3464C98.6344 234.688 99.2264 235.136 100.17 235.136C101.786 235.136 102.602 233.808 102.602 231.968C102.602 228.752 100.122 226.096 96.6984 226.096C93.2904 226.096 90.7784 228.704 90.7784 232.064ZM96.3464 234.224C95.3224 234.224 94.7304 233.456 94.7304 232.384C94.7304 231.152 95.5144 229.904 96.7624 229.904C97.3544 229.904 97.8984 230.192 98.2344 230.528L98.0744 232.432C98.0424 232.8 98.0264 233.04 98.0584 233.328C97.6104 233.936 96.9544 234.224 96.3464 234.224ZM103.861 232.064C103.861 234.384 105.637 236.176 108.021 236.176C110.405 236.176 112.181 234.384 112.181 232.064C112.181 229.744 110.405 227.952 108.021 227.952C105.637 227.952 103.861 229.744 103.861 232.064ZM105.301 232.064C105.301 230.48 106.453 229.264 108.021 229.264C109.589 229.264 110.741 230.48 110.741 232.064C110.741 233.648 109.589 234.864 108.021 234.864C106.453 234.864 105.301 233.648 105.301 232.064ZM119.025 236H120.721L117.569 231.792L120.321 228.128H118.689L117.857 229.264C117.473 229.792 117.025 230.416 116.689 230.896H116.657C116.321 230.416 115.889 229.824 115.489 229.28L114.641 228.128H112.945L115.729 231.824L112.577 236H114.209L115.361 234.448C115.761 233.904 116.257 233.232 116.609 232.736H116.641C116.993 233.232 117.457 233.872 117.857 234.416L119.025 236ZM121.92 236H123.36V230.608C123.92 229.856 124.928 229.296 125.824 229.296C126.256 229.296 126.768 229.424 127.088 229.808C127.344 230.112 127.456 230.592 127.456 231.408V236H128.896V231.136C128.896 229.92 128.672 229.312 128.24 228.816C127.744 228.256 127.008 227.952 126.144 227.952C125.04 227.952 124.08 228.448 123.392 229.136L123.36 229.12V228.128H121.92V236ZM133.565 236.176C134.621 236.176 135.533 235.728 135.981 235.312H136.013C136.317 235.872 136.909 236.144 137.533 236.144C137.837 236.144 138.109 236.08 138.301 236V234.8C138.173 234.864 137.997 234.912 137.837 234.912C137.405 234.912 137.229 234.56 137.229 234.08V230.736C137.229 229.76 136.909 229.088 136.445 228.672C135.885 228.16 135.053 227.952 134.093 227.952C132.925 227.952 132.077 228.256 131.469 228.624V230.032C132.061 229.6 132.893 229.248 133.885 229.248C134.557 229.248 135.037 229.408 135.341 229.68C135.645 229.968 135.789 230.4 135.789 230.976V231.632C135.277 231.504 134.717 231.424 134.109 231.424C133.293 231.424 132.493 231.568 131.901 231.952C131.277 232.352 130.861 232.992 130.861 233.872C130.861 234.64 131.181 235.232 131.693 235.616C132.221 236.016 132.925 236.176 133.565 236.176ZM133.821 234.896C132.973 234.896 132.317 234.512 132.317 233.744C132.317 232.816 133.277 232.528 134.253 232.528C134.749 232.528 135.357 232.608 135.789 232.736V234.208C135.309 234.592 134.573 234.896 133.821 234.896ZM139.905 236H141.345V230.88C141.841 230.032 142.593 229.488 143.665 229.488C143.841 229.488 144.033 229.504 144.225 229.552V228.128C144.049 228.08 143.873 228.064 143.713 228.064C142.785 228.064 141.921 228.528 141.377 229.296L141.345 229.28V228.128H139.905V236ZM145.08 232.192C145.08 234.624 146.808 236.176 148.936 236.176C149.88 236.176 150.616 235.872 151.144 235.504L151.176 235.52V236H152.616V223.776H151.176V228.352L151.144 228.368C150.632 228.144 150.04 227.952 149.256 227.952C146.776 227.952 145.08 229.776 145.08 232.192ZM146.536 232.112C146.536 230.496 147.576 229.232 149.24 229.232C149.944 229.232 150.648 229.456 151.176 229.728V234.224C150.616 234.608 149.912 234.896 149.128 234.896C147.512 234.896 146.536 233.68 146.536 232.112ZM155.187 235.12C155.187 235.696 155.667 236.176 156.243 236.176C156.819 236.176 157.299 235.696 157.299 235.12C157.299 234.544 156.819 234.064 156.243 234.064C155.667 234.064 155.187 234.544 155.187 235.12ZM159.064 232.064C159.064 234.384 160.84 236.176 163.224 236.176C165.608 236.176 167.384 234.384 167.384 232.064C167.384 229.744 165.608 227.952 163.224 227.952C160.84 227.952 159.064 229.744 159.064 232.064ZM160.504 232.064C160.504 230.48 161.656 229.264 163.224 229.264C164.792 229.264 165.944 230.48 165.944 232.064C165.944 233.648 164.792 234.864 163.224 234.864C161.656 234.864 160.504 233.648 160.504 232.064ZM169.373 236H170.813V230.88C171.309 230.032 172.061 229.488 173.133 229.488C173.309 229.488 173.501 229.504 173.693 229.552V228.128C173.517 228.08 173.341 228.064 173.181 228.064C172.253 228.064 171.389 228.528 170.845 229.296L170.813 229.28V228.128H169.373V236ZM175.589 239.104C176.245 239.44 177.125 239.696 178.085 239.696C180.501 239.696 182.037 238.272 182.037 235.968V228.16L180.645 228.4C180.117 228.144 179.461 227.952 178.645 227.952C176.085 227.952 174.565 229.856 174.565 232.08C174.565 234.4 176.277 236.016 178.421 236.016C179.253 236.016 180.021 235.776 180.565 235.408L180.597 235.424V236C180.597 237.488 179.589 238.384 178.085 238.384C177.205 238.384 176.341 238.064 175.589 237.568V239.104ZM176.021 231.984C176.021 230.448 177.029 229.232 178.613 229.232C179.333 229.232 180.101 229.472 180.597 229.776V234.112C180.117 234.496 179.349 234.752 178.629 234.752C177.077 234.752 176.021 233.568 176.021 231.984Z" fill="#1C3F94"/>
<path d="M50 237.92H183.317V238.72H50V237.92Z" fill="#1C3F94"/>
</svg>
