<svg width="1620" height="338" viewBox="0 0 1620 338" fill="none" xmlns="http://www.w3.org/2000/svg">
<path d="M-114 77.1201C429.547 414.373 1098.55 260.458 1733.6 78.1615" stroke="#CBDAFF"/>
<path d="M1733.6 133.487C973.638 -25.2078 759.111 582.873 -114 211.997" stroke="#CBDAFF"/>
<path d="M1733.6 22.7297C1114.45 -88.6978 439.25 335.604 -114 284.51" stroke="#CBDAFF"/>
<path d="M370.105 40H376.465V29.64H378.465C382.705 29.64 385.585 29.16 387.825 27.84C390.265 26.4 391.985 23.84 391.985 20.28C391.985 16.36 389.825 13.88 387.305 12.56C385.025 11.36 382.145 11.04 378.705 11.04H370.105V40ZM376.465 24.48V16.6H378.625C380.865 16.6 382.425 16.68 383.585 17.2C384.905 17.8 385.625 18.96 385.625 20.6C385.625 22.04 384.985 23.12 383.825 23.76C382.745 24.36 381.305 24.48 378.785 24.48H376.465ZM401.652 40H408.012V28.56H410.852L418.172 40H425.492L417.332 27.76C421.172 26.52 423.212 23.48 423.212 19.76C423.212 16.44 421.852 14.28 419.732 12.96C417.412 11.52 414.172 11.04 410.732 11.04H401.652V40ZM408.012 23.8V16.6H410.452C412.652 16.6 414.212 16.84 415.212 17.36C416.372 17.96 416.852 18.84 416.852 20.2C416.852 21.6 416.292 22.56 415.212 23.12C414.252 23.6 412.932 23.8 411.212 23.8H408.012ZM447.625 34.68C442.625 34.68 438.865 30.64 438.865 25.52C438.865 20.4 442.625 16.36 447.625 16.36C452.625 16.36 456.385 20.4 456.385 25.52C456.385 30.64 452.625 34.68 447.625 34.68ZM447.625 40.44C456.225 40.44 462.745 33.96 462.745 25.52C462.745 17.08 456.225 10.6 447.625 10.6C439.025 10.6 432.505 17.08 432.505 25.52C432.505 33.96 439.025 40.44 447.625 40.44ZM497.153 24.6H485.953V29.88H490.993V34.24C490.033 34.64 488.753 34.88 487.433 34.88C481.473 34.88 477.873 30.64 477.873 25.6C477.873 20.44 481.633 16.32 487.473 16.32C490.633 16.32 493.793 17.52 496.233 19.2V12.8C493.993 11.56 490.913 10.6 487.353 10.6C478.113 10.6 471.513 17.08 471.513 25.64C471.513 34.16 478.033 40.44 487.313 40.44C490.913 40.44 494.553 39.48 497.153 38.04V24.6ZM508.206 40H514.566V28.56H517.406L524.726 40H532.046L523.886 27.76C527.726 26.52 529.766 23.48 529.766 19.76C529.766 16.44 528.406 14.28 526.286 12.96C523.966 11.52 520.726 11.04 517.286 11.04H508.206V40ZM514.566 23.8V16.6H517.006C519.206 16.6 520.766 16.84 521.766 17.36C522.926 17.96 523.406 18.84 523.406 20.2C523.406 21.6 522.846 22.56 521.766 23.12C520.806 23.6 519.486 23.8 517.766 23.8H514.566ZM540.339 40H558.659V34.44H546.699V27.56H556.619V22.28H546.699V16.6H558.219V11.04H540.339V40ZM568.401 38.32C571.121 39.72 574.681 40.44 577.561 40.44C583.801 40.44 588.081 37.04 588.081 31.4C588.081 26.28 584.561 24.24 580.201 22.8C576.721 21.64 574.041 21.44 574.041 18.88C574.041 16.96 575.601 16.16 577.761 16.16C580.001 16.16 583.561 17.04 586.641 18.96V12.68C584.121 11.32 580.641 10.6 577.801 10.6C571.721 10.6 567.641 13.96 567.641 19.36C567.641 24.4 571.241 26.36 575.241 27.68C578.961 28.88 581.681 29.12 581.681 31.8C581.681 33.96 579.961 34.88 577.641 34.88C575.361 34.88 571.481 33.96 568.401 31.88V38.32ZM597.448 38.32C600.168 39.72 603.728 40.44 606.608 40.44C612.848 40.44 617.128 37.04 617.128 31.4C617.128 26.28 613.608 24.24 609.248 22.8C605.768 21.64 603.088 21.44 603.088 18.88C603.088 16.96 604.648 16.16 606.808 16.16C609.048 16.16 612.608 17.04 615.688 18.96V12.68C613.168 11.32 609.688 10.6 606.848 10.6C600.768 10.6 596.688 13.96 596.688 19.36C596.688 24.4 600.288 26.36 604.288 27.68C608.008 28.88 610.728 29.12 610.728 31.8C610.728 33.96 609.008 34.88 606.688 34.88C604.408 34.88 600.528 33.96 597.448 31.88V38.32ZM626.855 40H633.215V11.04H626.855V40ZM664.735 40H670.735V11.04H664.615V21.8C664.615 24.6 664.655 27.4 664.695 30.16L664.615 30.2C662.815 27.68 661.055 25.24 659.175 22.72L650.495 11.04H644.495V40H650.615V29.24C650.615 26.44 650.575 23.64 650.535 20.88L650.615 20.84C652.415 23.36 654.175 25.8 656.055 28.32L664.735 40ZM706.419 24.6H695.219V29.88H700.259V34.24C699.299 34.64 698.019 34.88 696.699 34.88C690.739 34.88 687.139 30.64 687.139 25.6C687.139 20.44 690.899 16.32 696.739 16.32C699.899 16.32 703.059 17.52 705.499 19.2V12.8C703.259 11.56 700.179 10.6 696.619 10.6C687.379 10.6 680.779 17.08 680.779 25.64C680.779 34.16 687.299 40.44 696.579 40.44C700.179 40.44 703.819 39.48 706.419 38.04V24.6ZM738.448 40H744.808V16.6H754.168V11.04H729.088V16.6H738.448V40ZM776.554 34.68C771.554 34.68 767.794 30.64 767.794 25.52C767.794 20.4 771.554 16.36 776.554 16.36C781.554 16.36 785.314 20.4 785.314 25.52C785.314 30.64 781.554 34.68 776.554 34.68ZM776.554 40.44C785.154 40.44 791.674 33.96 791.674 25.52C791.674 17.08 785.154 10.6 776.554 10.6C767.954 10.6 761.434 17.08 761.434 25.52C761.434 33.96 767.954 40.44 776.554 40.44ZM806.874 40H813.514L816.634 29.92C817.394 27.48 818.074 25.2 818.714 22.88H818.794C819.434 25.2 820.074 27.36 820.834 29.8L823.954 40H830.674L839.594 11.04H833.194L829.474 23.36C828.714 25.84 827.954 28.52 827.314 30.96H827.234C826.554 28.48 825.794 25.92 825.034 23.44L821.234 11.04H816.594L812.754 23.44C811.994 25.88 811.234 28.48 810.554 30.96H810.474C809.834 28.52 809.114 25.92 808.394 23.48L804.714 11.04H798.034L806.874 40ZM843.054 40H849.574L851.934 33.92H863.614L865.934 40H872.734L860.974 11.04H854.814L843.054 40ZM855.054 25.84C855.974 23.4 857.014 20.52 857.774 18.32H857.854C858.614 20.52 859.654 23.4 860.494 25.68L861.694 28.92H853.894L855.054 25.84ZM881.495 40H887.855V28.56H890.695L898.015 40H905.335L897.175 27.76C901.015 26.52 903.055 23.48 903.055 19.76C903.055 16.44 901.695 14.28 899.575 12.96C897.255 11.52 894.015 11.04 890.575 11.04H881.495V40ZM887.855 23.8V16.6H890.295C892.495 16.6 894.055 16.84 895.055 17.36C896.215 17.96 896.695 18.84 896.695 20.2C896.695 21.6 896.135 22.56 895.055 23.12C894.095 23.6 892.775 23.8 891.055 23.8H887.855ZM919.988 34.44V16.6H921.708C924.948 16.6 927.708 16.92 929.748 18.36C931.908 19.88 933.108 22.44 933.108 25.48C933.108 28.36 932.028 30.68 930.308 32.16C928.508 33.72 925.868 34.44 921.748 34.44H919.988ZM913.628 40H921.468C927.548 40 931.708 38.84 934.668 36.44C937.748 33.92 939.468 30.04 939.468 25.48C939.468 20.52 937.468 16.44 933.908 13.96C930.908 11.88 926.908 11.04 921.748 11.04H913.628V40ZM978.687 34.68C973.687 34.68 969.927 30.64 969.927 25.52C969.927 20.4 973.687 16.36 978.687 16.36C983.687 16.36 987.447 20.4 987.447 25.52C987.447 30.64 983.687 34.68 978.687 34.68ZM978.687 40.44C987.287 40.44 993.807 33.96 993.807 25.52C993.807 17.08 987.287 10.6 978.687 10.6C970.087 10.6 963.567 17.08 963.567 25.52C963.567 33.96 970.087 40.44 978.687 40.44ZM1028.78 11.04H1022.66V25.92C1022.66 28.96 1022.3 30.96 1021.42 32.32C1020.46 33.8 1018.82 34.72 1016.3 34.72C1013.58 34.72 1011.9 33.6 1011.02 32.2C1010.18 30.84 1009.9 28.96 1009.9 25.88V11.04H1003.54V26.12C1003.54 30.24 1004.14 33.4 1005.7 35.72C1007.74 38.72 1011.5 40.44 1016.14 40.44C1020.78 40.44 1024.5 38.72 1026.54 35.8C1028.18 33.48 1028.78 30.32 1028.78 25.96V11.04ZM1039.78 40H1046.14V28.56H1048.98L1056.3 40H1063.62L1055.46 27.76C1059.3 26.52 1061.34 23.48 1061.34 19.76C1061.34 16.44 1059.98 14.28 1057.86 12.96C1055.54 11.52 1052.3 11.04 1048.86 11.04H1039.78V40ZM1046.14 23.8V16.6H1048.58C1050.78 16.6 1052.34 16.84 1053.34 17.36C1054.5 17.96 1054.98 18.84 1054.98 20.2C1054.98 21.6 1054.42 22.56 1053.34 23.12C1052.38 23.6 1051.06 23.8 1049.34 23.8H1046.14ZM1094.39 40H1100.79L1111.83 11.04H1105.31L1100.55 23.72C1099.55 26.4 1098.59 29 1097.67 31.64H1097.59C1096.71 29.04 1095.75 26.36 1094.79 23.76L1090.15 11.04H1083.31L1094.39 40ZM1120.35 40H1126.71V11.04H1120.35V40ZM1137.64 38.32C1140.36 39.72 1143.92 40.44 1146.8 40.44C1153.04 40.44 1157.32 37.04 1157.32 31.4C1157.32 26.28 1153.8 24.24 1149.44 22.8C1145.96 21.64 1143.28 21.44 1143.28 18.88C1143.28 16.96 1144.84 16.16 1147 16.16C1149.24 16.16 1152.8 17.04 1155.88 18.96V12.68C1153.36 11.32 1149.88 10.6 1147.04 10.6C1140.96 10.6 1136.88 13.96 1136.88 19.36C1136.88 24.4 1140.48 26.36 1144.48 27.68C1148.2 28.88 1150.92 29.12 1150.92 31.8C1150.92 33.96 1149.2 34.88 1146.88 34.88C1144.6 34.88 1140.72 33.96 1137.64 31.88V38.32ZM1167.04 40H1173.4V11.04H1167.04V40ZM1198.52 34.68C1193.52 34.68 1189.76 30.64 1189.76 25.52C1189.76 20.4 1193.52 16.36 1198.52 16.36C1203.52 16.36 1207.28 20.4 1207.28 25.52C1207.28 30.64 1203.52 34.68 1198.52 34.68ZM1198.52 40.44C1207.12 40.44 1213.64 33.96 1213.64 25.52C1213.64 17.08 1207.12 10.6 1198.52 10.6C1189.92 10.6 1183.4 17.08 1183.4 25.52C1183.4 33.96 1189.92 40.44 1198.52 40.44ZM1243.89 40H1249.89V11.04H1243.77V21.8C1243.77 24.6 1243.81 27.4 1243.85 30.16L1243.77 30.2C1241.97 27.68 1240.21 25.24 1238.33 22.72L1229.65 11.04H1223.65V40H1229.77V29.24C1229.77 26.44 1229.73 23.64 1229.69 20.88L1229.77 20.84C1231.57 23.36 1233.33 25.8 1235.21 28.32L1243.89 40Z" fill="#1C3F94"/>
<path d="M471.099 87.144C472.359 89.076 474.739 90.308 477.903 90.308C481.039 90.308 483.475 89.104 484.763 87.144C485.939 85.352 486.107 83.084 486.107 80.144V69.728H483.531V80.284C483.531 82.58 483.419 84.204 482.775 85.408C481.991 86.892 480.479 87.844 478.015 87.844C475.355 87.844 473.899 86.724 473.199 85.408C472.583 84.232 472.415 82.664 472.415 80.172V69.728H469.755V80.452C469.755 82.972 469.923 85.324 471.099 87.144ZM492.896 89.58L492.952 89.552C493.82 89.972 494.968 90.308 496.34 90.308C500.316 90.308 503.536 87.48 503.536 83.056C503.536 78.8 500.568 75.916 496.872 75.916C495.248 75.916 493.904 76.476 492.952 77.148L492.896 77.12V76.224H490.376V96.16H492.896V89.58ZM492.896 87.144V79.444C493.876 78.632 495.22 78.184 496.452 78.184C499.196 78.184 500.988 80.452 500.988 83.252C500.988 86.08 499.14 88.096 496.396 88.096C495.052 88.096 493.764 87.62 492.896 87.144ZM506.132 83.336C506.132 87.592 509.156 90.308 512.88 90.308C514.532 90.308 515.82 89.776 516.744 89.132L516.8 89.16V90H519.32V68.608H516.8V76.616L516.744 76.644C515.848 76.252 514.812 75.916 513.44 75.916C509.1 75.916 506.132 79.108 506.132 83.336ZM508.68 83.196C508.68 80.368 510.5 78.156 513.412 78.156C514.644 78.156 515.876 78.548 516.8 79.024V86.892C515.82 87.564 514.588 88.068 513.216 88.068C510.388 88.068 508.68 85.94 508.68 83.196ZM527.543 90.308C529.391 90.308 530.987 89.524 531.771 88.796H531.827C532.359 89.776 533.395 90.252 534.487 90.252C535.019 90.252 535.495 90.14 535.831 90V87.9C535.607 88.012 535.299 88.096 535.019 88.096C534.263 88.096 533.955 87.48 533.955 86.64V80.788C533.955 79.08 533.395 77.904 532.583 77.176C531.603 76.28 530.147 75.916 528.467 75.916C526.423 75.916 524.939 76.448 523.875 77.092V79.556C524.911 78.8 526.367 78.184 528.103 78.184C529.279 78.184 530.119 78.464 530.651 78.94C531.183 79.444 531.435 80.2 531.435 81.208V82.356C530.539 82.132 529.559 81.992 528.495 81.992C527.067 81.992 525.667 82.244 524.631 82.916C523.539 83.616 522.811 84.736 522.811 86.276C522.811 87.62 523.371 88.656 524.267 89.328C525.191 90.028 526.423 90.308 527.543 90.308ZM527.991 88.068C526.507 88.068 525.359 87.396 525.359 86.052C525.359 84.428 527.039 83.924 528.747 83.924C529.615 83.924 530.679 84.064 531.435 84.288V86.864C530.595 87.536 529.307 88.068 527.991 88.068ZM540.738 89.02C541.634 90.056 542.866 90.308 543.874 90.308C544.826 90.308 545.806 90.084 546.366 89.804V87.424C545.834 87.76 545.022 88.012 544.294 88.012C542.474 88.012 542.222 86.444 542.222 84.736V78.492H546.366V76.224H542.222V72.052L539.702 72.472V76.224H537.154V78.492H539.702V85.212C539.702 87.144 540.066 88.264 540.738 89.02ZM561.288 83.84C561.344 83.504 561.372 83 561.372 82.58C561.372 78.268 558.46 75.916 555.1 75.916C551.404 75.916 548.24 78.772 548.24 83.112C548.24 87.452 551.432 90.308 555.688 90.308C557.48 90.308 559.384 89.804 560.616 89.02V86.332C559.356 87.284 557.76 88.04 555.856 88.04C553.14 88.04 551.124 86.556 550.76 83.84H561.288ZM555.044 78.184C556.696 78.184 558.712 79.108 558.936 81.852H550.816C551.264 79.304 553.224 78.184 555.044 78.184ZM564.578 89.188C566.006 89.944 567.966 90.308 569.73 90.308C572.67 90.308 575.526 89.104 575.526 85.912C575.526 83.056 573.342 82.328 570.71 81.88C568.666 81.516 566.706 81.516 566.706 79.948C566.706 78.716 567.938 78.184 569.702 78.184C571.298 78.184 573.202 78.632 574.742 79.528V77.008C573.37 76.28 571.466 75.916 569.814 75.916C566.622 75.916 564.186 77.288 564.158 80.144C564.158 82.86 566.23 83.644 568.862 84.092C570.99 84.456 572.978 84.484 572.978 86.136C572.978 87.48 571.746 88.04 569.842 88.04C568.134 88.04 566.146 87.564 564.578 86.556V89.188ZM584.772 83.112C584.772 87.172 587.88 90.308 592.052 90.308C596.224 90.308 599.332 87.172 599.332 83.112C599.332 79.052 596.224 75.916 592.052 75.916C587.88 75.916 584.772 79.052 584.772 83.112ZM587.292 83.112C587.292 80.34 589.308 78.212 592.052 78.212C594.796 78.212 596.812 80.34 596.812 83.112C596.812 85.884 594.796 88.012 592.052 88.012C589.308 88.012 587.292 85.884 587.292 83.112ZM602.814 90H605.334V80.564C606.314 79.248 608.078 78.268 609.646 78.268C610.402 78.268 611.298 78.492 611.858 79.164C612.306 79.696 612.502 80.536 612.502 81.964V90H615.022V81.488C615.022 79.36 614.63 78.296 613.874 77.428C613.006 76.448 611.718 75.916 610.206 75.916C608.274 75.916 606.594 76.784 605.39 77.988L605.334 77.96V76.224H602.814V90ZM628.685 89.58L628.741 89.552C629.609 89.972 630.757 90.308 632.129 90.308C636.105 90.308 639.325 87.48 639.325 83.056C639.325 78.8 636.357 75.916 632.661 75.916C631.037 75.916 629.693 76.476 628.741 77.148L628.685 77.12V76.224H626.165V96.16H628.685V89.58ZM628.685 87.144V79.444C629.665 78.632 631.009 78.184 632.241 78.184C634.985 78.184 636.777 80.452 636.777 83.252C636.777 86.08 634.929 88.096 632.185 88.096C630.841 88.096 629.553 87.62 628.685 87.144ZM642.817 90H645.337V81.04C646.205 79.556 647.521 78.604 649.397 78.604C649.705 78.604 650.041 78.632 650.377 78.716V76.224C650.069 76.14 649.761 76.112 649.481 76.112C647.857 76.112 646.345 76.924 645.393 78.268L645.337 78.24V76.224H642.817V90ZM651.819 83.112C651.819 87.172 654.927 90.308 659.099 90.308C663.271 90.308 666.379 87.172 666.379 83.112C666.379 79.052 663.271 75.916 659.099 75.916C654.927 75.916 651.819 79.052 651.819 83.112ZM654.339 83.112C654.339 80.34 656.355 78.212 659.099 78.212C661.843 78.212 663.859 80.34 663.859 83.112C663.859 85.884 661.843 88.012 659.099 88.012C656.355 88.012 654.339 85.884 654.339 83.112ZM669.384 71.492C669.384 72.472 670.168 73.256 671.148 73.256C672.128 73.256 672.912 72.472 672.912 71.492C672.912 70.512 672.128 69.728 671.148 69.728C670.168 69.728 669.384 70.512 669.384 71.492ZM669.888 91.54C669.888 93.108 669.58 94.172 667.984 94.172C667.536 94.172 666.948 94.088 666.416 93.976V96.244C666.892 96.384 667.424 96.468 668.068 96.468C669.3 96.468 670.588 96.16 671.456 95.152C672.016 94.508 672.408 93.5 672.408 91.428V76.224H669.888V91.54ZM688.929 83.84C688.985 83.504 689.013 83 689.013 82.58C689.013 78.268 686.101 75.916 682.741 75.916C679.045 75.916 675.881 78.772 675.881 83.112C675.881 87.452 679.073 90.308 683.329 90.308C685.121 90.308 687.025 89.804 688.257 89.02V86.332C686.997 87.284 685.401 88.04 683.497 88.04C680.781 88.04 678.765 86.556 678.401 83.84H688.929ZM682.685 78.184C684.337 78.184 686.353 79.108 686.577 81.852H678.457C678.905 79.304 680.865 78.184 682.685 78.184ZM703.25 86.668C702.214 87.48 700.842 88.012 699.274 88.012C696.306 88.012 694.206 86.024 694.206 83.196C694.206 80.424 696.194 78.212 699.19 78.212C700.534 78.212 701.878 78.66 703.026 79.388V76.784C702.046 76.28 700.73 75.916 699.302 75.916C695.018 75.916 691.658 78.94 691.658 83.196C691.658 87.284 694.766 90.308 699.134 90.308C700.534 90.308 702.074 90 703.25 89.356V86.668ZM708.984 89.02C709.88 90.056 711.112 90.308 712.12 90.308C713.072 90.308 714.052 90.084 714.612 89.804V87.424C714.08 87.76 713.268 88.012 712.54 88.012C710.72 88.012 710.468 86.444 710.468 84.736V78.492H714.612V76.224H710.468V72.052L707.948 72.472V76.224H705.4V78.492H707.948V85.212C707.948 87.144 708.312 88.264 708.984 89.02ZM717.375 89.188C718.803 89.944 720.763 90.308 722.527 90.308C725.467 90.308 728.323 89.104 728.323 85.912C728.323 83.056 726.139 82.328 723.507 81.88C721.463 81.516 719.503 81.516 719.503 79.948C719.503 78.716 720.735 78.184 722.499 78.184C724.095 78.184 725.999 78.632 727.539 79.528V77.008C726.167 76.28 724.263 75.916 722.611 75.916C719.419 75.916 716.983 77.288 716.955 80.144C716.955 82.86 719.027 83.644 721.659 84.092C723.787 84.456 725.775 84.484 725.775 86.136C725.775 87.48 724.543 88.04 722.639 88.04C720.931 88.04 718.943 87.564 717.375 86.556V89.188ZM751.569 77.848L749.833 83.392L745.857 79.388L747.005 78.632C748.685 77.54 749.777 76.056 749.777 74.152C749.777 71.52 747.705 69.42 744.625 69.42C741.713 69.42 739.445 71.324 739.445 74.152C739.445 75.832 740.257 77.092 741.489 78.352L742.105 78.996L741.433 79.388C738.997 80.816 737.933 82.58 737.933 84.596C737.933 87.592 740.229 90.308 744.709 90.308C747.677 90.308 749.637 89.132 750.729 87.592L753.137 90H756.329L756.357 89.944L751.765 85.324L754.173 77.848H751.569ZM744.793 88.012C741.965 88.012 740.453 86.332 740.453 84.512C740.453 83.28 741.153 82.132 742.693 81.236L743.757 80.62L748.881 85.772C748.153 87.116 746.837 88.012 744.793 88.012ZM741.965 74.18C741.965 72.836 742.945 71.744 744.569 71.744C746.081 71.744 747.257 72.696 747.257 74.208C747.257 75.412 746.501 76.252 745.493 76.924L744.233 77.764L743.365 76.868C742.413 75.888 741.965 75.104 741.965 74.18ZM764.458 71.492C764.458 72.472 765.242 73.256 766.222 73.256C767.202 73.256 767.986 72.472 767.986 71.492C767.986 70.512 767.202 69.728 766.222 69.728C765.242 69.728 764.458 70.512 764.458 71.492ZM764.962 90H767.482V76.224H764.962V90ZM790.863 90H793.383V81.404C793.383 79.528 793.075 78.296 792.235 77.372C791.395 76.42 790.107 75.916 788.623 75.916C786.719 75.916 785.039 76.728 783.387 78.296C782.547 76.644 780.867 75.916 779.159 75.916C777.255 75.916 775.631 76.784 774.483 77.932L774.427 77.904V76.224H771.907V90H774.427V80.424C775.379 79.276 777.003 78.268 778.627 78.268C779.411 78.268 780.167 78.492 780.727 79.136C781.203 79.696 781.371 80.368 781.371 81.852V90H783.891V81.404C783.891 81.068 783.891 80.732 783.863 80.424C784.815 79.304 786.467 78.268 788.063 78.268C788.791 78.268 789.631 78.492 790.163 79.108C790.667 79.696 790.863 80.536 790.863 81.852V90ZM800.267 89.58L800.323 89.552C801.191 89.972 802.339 90.308 803.711 90.308C807.687 90.308 810.907 87.48 810.907 83.056C810.907 78.8 807.939 75.916 804.243 75.916C802.619 75.916 801.275 76.476 800.323 77.148L800.267 77.12V76.224H797.747V96.16H800.267V89.58ZM800.267 87.144V79.444C801.247 78.632 802.591 78.184 803.823 78.184C806.567 78.184 808.359 80.452 808.359 83.252C808.359 86.08 806.511 88.096 803.767 88.096C802.423 88.096 801.135 87.62 800.267 87.144ZM814.4 90H816.92V81.04C817.788 79.556 819.104 78.604 820.98 78.604C821.288 78.604 821.624 78.632 821.96 78.716V76.224C821.652 76.14 821.344 76.112 821.064 76.112C819.44 76.112 817.928 76.924 816.976 78.268L816.92 78.24V76.224H814.4V90ZM823.401 83.112C823.401 87.172 826.509 90.308 830.681 90.308C834.853 90.308 837.961 87.172 837.961 83.112C837.961 79.052 834.853 75.916 830.681 75.916C826.509 75.916 823.401 79.052 823.401 83.112ZM825.921 83.112C825.921 80.34 827.937 78.212 830.681 78.212C833.425 78.212 835.441 80.34 835.441 83.112C835.441 85.884 833.425 88.012 830.681 88.012C827.937 88.012 825.921 85.884 825.921 83.112ZM844.904 90H847.424L853.192 76.224H850.56L848.068 82.272C847.424 83.84 846.836 85.296 846.22 86.864H846.164C845.576 85.352 845.016 83.952 844.4 82.44L841.852 76.224H839.108L844.904 90ZM867.374 83.84C867.43 83.504 867.458 83 867.458 82.58C867.458 78.268 864.546 75.916 861.186 75.916C857.49 75.916 854.326 78.772 854.326 83.112C854.326 87.452 857.518 90.308 861.774 90.308C863.566 90.308 865.47 89.804 866.702 89.02V86.332C865.442 87.284 863.846 88.04 861.942 88.04C859.226 88.04 857.21 86.556 856.846 83.84H867.374ZM861.13 78.184C862.782 78.184 864.798 79.108 865.022 81.852H856.902C857.35 79.304 859.31 78.184 861.13 78.184ZM890.012 90H892.532V81.404C892.532 79.528 892.224 78.296 891.384 77.372C890.544 76.42 889.256 75.916 887.772 75.916C885.868 75.916 884.188 76.728 882.536 78.296C881.696 76.644 880.016 75.916 878.308 75.916C876.404 75.916 874.78 76.784 873.632 77.932L873.576 77.904V76.224H871.056V90H873.576V80.424C874.528 79.276 876.152 78.268 877.776 78.268C878.56 78.268 879.316 78.492 879.876 79.136C880.352 79.696 880.52 80.368 880.52 81.852V90H883.04V81.404C883.04 81.068 883.04 80.732 883.012 80.424C883.964 79.304 885.616 78.268 887.212 78.268C887.94 78.268 888.78 78.492 889.312 79.108C889.816 79.696 890.012 80.536 890.012 81.852V90ZM908.992 83.84C909.048 83.504 909.076 83 909.076 82.58C909.076 78.268 906.164 75.916 902.804 75.916C899.108 75.916 895.944 78.772 895.944 83.112C895.944 87.452 899.136 90.308 903.392 90.308C905.184 90.308 907.088 89.804 908.32 89.02V86.332C907.06 87.284 905.464 88.04 903.56 88.04C900.844 88.04 898.828 86.556 898.464 83.84H908.992ZM902.748 78.184C904.4 78.184 906.416 79.108 906.64 81.852H898.52C898.968 79.304 900.928 78.184 902.748 78.184ZM912.673 90H915.193V80.564C916.173 79.248 917.937 78.268 919.505 78.268C920.261 78.268 921.157 78.492 921.717 79.164C922.165 79.696 922.361 80.536 922.361 81.964V90H924.881V81.488C924.881 79.36 924.489 78.296 923.733 77.428C922.865 76.448 921.577 75.916 920.065 75.916C918.133 75.916 916.453 76.784 915.249 77.988L915.193 77.96V76.224H912.673V90ZM931.343 89.02C932.239 90.056 933.471 90.308 934.479 90.308C935.431 90.308 936.411 90.084 936.971 89.804V87.424C936.439 87.76 935.627 88.012 934.899 88.012C933.079 88.012 932.827 86.444 932.827 84.736V78.492H936.971V76.224H932.827V72.052L930.307 72.472V76.224H927.759V78.492H930.307V85.212C930.307 87.144 930.671 88.264 931.343 89.02ZM939.734 89.188C941.162 89.944 943.122 90.308 944.886 90.308C947.826 90.308 950.682 89.104 950.682 85.912C950.682 83.056 948.498 82.328 945.866 81.88C943.822 81.516 941.862 81.516 941.862 79.948C941.862 78.716 943.094 78.184 944.858 78.184C946.454 78.184 948.358 78.632 949.898 79.528V77.008C948.526 76.28 946.622 75.916 944.97 75.916C941.778 75.916 939.342 77.288 939.314 80.144C939.314 82.86 941.386 83.644 944.018 84.092C946.146 84.456 948.134 84.484 948.134 86.136C948.134 87.48 946.902 88.04 944.998 88.04C943.29 88.04 941.302 87.564 939.734 86.556V89.188ZM964.688 90.308C966.536 90.308 968.132 89.524 968.916 88.796H968.972C969.504 89.776 970.54 90.252 971.632 90.252C972.164 90.252 972.64 90.14 972.976 90V87.9C972.752 88.012 972.444 88.096 972.164 88.096C971.408 88.096 971.1 87.48 971.1 86.64V80.788C971.1 79.08 970.54 77.904 969.728 77.176C968.748 76.28 967.292 75.916 965.612 75.916C963.568 75.916 962.084 76.448 961.02 77.092V79.556C962.056 78.8 963.512 78.184 965.248 78.184C966.424 78.184 967.264 78.464 967.796 78.94C968.328 79.444 968.58 80.2 968.58 81.208V82.356C967.684 82.132 966.704 81.992 965.64 81.992C964.212 81.992 962.812 82.244 961.776 82.916C960.684 83.616 959.956 84.736 959.956 86.276C959.956 87.62 960.516 88.656 961.412 89.328C962.336 90.028 963.568 90.308 964.688 90.308ZM965.136 88.068C963.652 88.068 962.504 87.396 962.504 86.052C962.504 84.428 964.184 83.924 965.892 83.924C966.76 83.924 967.824 84.064 968.58 84.288V86.864C967.74 87.536 966.452 88.068 965.136 88.068ZM975.782 90H978.302V81.04C979.17 79.556 980.486 78.604 982.362 78.604C982.67 78.604 983.006 78.632 983.342 78.716V76.224C983.034 76.14 982.726 76.112 982.446 76.112C980.822 76.112 979.31 76.924 978.358 78.268L978.302 78.24V76.224H975.782V90ZM984.783 83.112C984.783 87.172 987.891 90.308 992.063 90.308C996.235 90.308 999.343 87.172 999.343 83.112C999.343 79.052 996.235 75.916 992.063 75.916C987.891 75.916 984.783 79.052 984.783 83.112ZM987.303 83.112C987.303 80.34 989.319 78.212 992.063 78.212C994.807 78.212 996.823 80.34 996.823 83.112C996.823 85.884 994.807 88.012 992.063 88.012C989.319 88.012 987.303 85.884 987.303 83.112ZM1003.89 88.768C1004.81 89.832 1006.24 90.308 1007.64 90.308C1009.55 90.308 1011.2 89.44 1012.4 88.236L1012.46 88.264V90H1014.98V76.224H1012.46V85.632C1011.48 86.864 1009.85 87.984 1008.15 87.984C1007.33 87.984 1006.52 87.732 1005.96 87.032C1005.49 86.472 1005.29 85.688 1005.29 84.176V76.224H1002.77V84.652C1002.77 86.612 1003.11 87.844 1003.89 88.768ZM1019.4 90H1021.92V80.564C1022.9 79.248 1024.66 78.268 1026.23 78.268C1026.98 78.268 1027.88 78.492 1028.44 79.164C1028.89 79.696 1029.08 80.536 1029.08 81.964V90H1031.6V81.488C1031.6 79.36 1031.21 78.296 1030.46 77.428C1029.59 76.448 1028.3 75.916 1026.79 75.916C1024.86 75.916 1023.18 76.784 1021.97 77.988L1021.92 77.96V76.224H1019.4V90ZM1035.07 83.336C1035.07 87.592 1038.09 90.308 1041.82 90.308C1043.47 90.308 1044.76 89.776 1045.68 89.132L1045.74 89.16V90H1048.26V68.608H1045.74V76.616L1045.68 76.644C1044.79 76.252 1043.75 75.916 1042.38 75.916C1038.04 75.916 1035.07 79.108 1035.07 83.336ZM1037.62 83.196C1037.62 80.368 1039.44 78.156 1042.35 78.156C1043.58 78.156 1044.81 78.548 1045.74 79.024V86.892C1044.76 87.564 1043.53 88.068 1042.15 88.068C1039.33 88.068 1037.62 85.94 1037.62 83.196ZM1058.36 79.864C1058.36 85.744 1062.79 90.308 1068.67 90.308C1074.55 90.308 1078.97 85.744 1078.97 79.864C1078.97 73.984 1074.55 69.42 1068.67 69.42C1062.79 69.42 1058.36 73.984 1058.36 79.864ZM1061.02 79.864C1061.02 75.412 1064.24 71.884 1068.67 71.884C1073.09 71.884 1076.31 75.412 1076.31 79.864C1076.31 84.316 1073.09 87.844 1068.67 87.844C1064.24 87.844 1061.02 84.316 1061.02 79.864ZM1091.3 90H1094.27L1088.75 82.636L1093.57 76.224H1090.71L1089.26 78.212C1088.59 79.136 1087.8 80.228 1087.21 81.068H1087.16C1086.57 80.228 1085.81 79.192 1085.11 78.24L1083.63 76.224H1080.66L1085.53 82.692L1080.02 90H1082.87L1084.89 87.284C1085.59 86.332 1086.46 85.156 1087.07 84.288H1087.13C1087.75 85.156 1088.56 86.276 1089.26 87.228L1091.3 90ZM1096.37 90H1098.89V80.564C1099.87 79.248 1101.63 78.268 1103.2 78.268C1103.96 78.268 1104.85 78.492 1105.41 79.164C1105.86 79.696 1106.06 80.536 1106.06 81.964V90H1108.58V81.488C1108.58 79.36 1108.18 78.296 1107.43 77.428C1106.56 76.448 1105.27 75.916 1103.76 75.916C1101.83 75.916 1100.15 76.784 1098.94 77.988L1098.89 77.96V76.224H1096.37V90ZM1116.75 90.308C1118.59 90.308 1120.19 89.524 1120.97 88.796H1121.03C1121.56 89.776 1122.6 90.252 1123.69 90.252C1124.22 90.252 1124.7 90.14 1125.03 90V87.9C1124.81 88.012 1124.5 88.096 1124.22 88.096C1123.47 88.096 1123.16 87.48 1123.16 86.64V80.788C1123.16 79.08 1122.6 77.904 1121.79 77.176C1120.81 76.28 1119.35 75.916 1117.67 75.916C1115.63 75.916 1114.14 76.448 1113.08 77.092V79.556C1114.11 78.8 1115.57 78.184 1117.31 78.184C1118.48 78.184 1119.32 78.464 1119.85 78.94C1120.39 79.444 1120.64 80.2 1120.64 81.208V82.356C1119.74 82.132 1118.76 81.992 1117.7 81.992C1116.27 81.992 1114.87 82.244 1113.83 82.916C1112.74 83.616 1112.01 84.736 1112.01 86.276C1112.01 87.62 1112.57 88.656 1113.47 89.328C1114.39 90.028 1115.63 90.308 1116.75 90.308ZM1117.19 88.068C1115.71 88.068 1114.56 87.396 1114.56 86.052C1114.56 84.428 1116.24 83.924 1117.95 83.924C1118.82 83.924 1119.88 84.064 1120.64 84.288V86.864C1119.8 87.536 1118.51 88.068 1117.19 88.068ZM1127.84 90H1130.36V81.04C1131.23 79.556 1132.54 78.604 1134.42 78.604C1134.73 78.604 1135.06 78.632 1135.4 78.716V76.224C1135.09 76.14 1134.78 76.112 1134.5 76.112C1132.88 76.112 1131.37 76.924 1130.42 78.268L1130.36 78.24V76.224H1127.84V90ZM1136.9 83.336C1136.9 87.592 1139.92 90.308 1143.65 90.308C1145.3 90.308 1146.59 89.776 1147.51 89.132L1147.57 89.16V90H1150.09V68.608H1147.57V76.616L1147.51 76.644C1146.61 76.252 1145.58 75.916 1144.21 75.916C1139.87 75.916 1136.9 79.108 1136.9 83.336ZM1139.45 83.196C1139.45 80.368 1141.27 78.156 1144.18 78.156C1145.41 78.156 1146.64 78.548 1147.57 79.024V86.892C1146.59 87.564 1145.35 88.068 1143.98 88.068C1141.15 88.068 1139.45 85.94 1139.45 83.196Z" fill="#061436"/>
<path d="M126.104 180H129.092L130.496 175.464C130.838 174.366 131.144 173.34 131.432 172.296H131.468C131.756 173.34 132.044 174.312 132.386 175.41L133.79 180H136.814L140.828 166.968H137.948L136.274 172.512C135.932 173.628 135.59 174.834 135.302 175.932H135.266C134.96 174.816 134.618 173.664 134.276 172.548L132.566 166.968H130.478L128.75 172.548C128.408 173.646 128.066 174.816 127.76 175.932H127.724C127.436 174.834 127.112 173.664 126.788 172.566L125.132 166.968H122.126L126.104 180ZM144.137 180H146.999V174.51H152.633V180H155.495V166.968H152.633V172.008H146.999V166.968H144.137V180ZM158.732 180H161.666L162.728 177.264H167.984L169.028 180H172.088L166.796 166.968H164.024L158.732 180ZM164.132 173.628C164.546 172.53 165.014 171.234 165.356 170.244H165.392C165.734 171.234 166.202 172.53 166.58 173.556L167.12 175.014H163.61L164.132 173.628ZM176.972 180H179.834V169.47H184.046V166.968H172.76V169.47H176.972V180ZM196.151 180H199.139L200.543 175.464C200.885 174.366 201.191 173.34 201.479 172.296H201.515C201.803 173.34 202.091 174.312 202.433 175.41L203.837 180H206.861L210.875 166.968H207.995L206.321 172.512C205.979 173.628 205.637 174.834 205.349 175.932H205.313C205.007 174.816 204.665 173.664 204.323 172.548L202.613 166.968H200.525L198.797 172.548C198.455 173.646 198.113 174.816 197.807 175.932H197.771C197.483 174.834 197.159 173.664 196.835 172.566L195.179 166.968H192.173L196.151 180ZM214.184 180H222.428V177.498H217.046V174.402H221.51V172.026H217.046V169.47H222.23V166.968H214.184V180ZM225.878 171.72H227.588L229.262 166.644H226.922L225.878 171.72ZM233.055 180H235.917V174.852H237.195L240.489 180H243.783L240.111 174.492C241.839 173.934 242.757 172.566 242.757 170.892C242.757 169.398 242.145 168.426 241.191 167.832C240.147 167.184 238.689 166.968 237.141 166.968H233.055V180ZM235.917 172.71V169.47H237.015C238.005 169.47 238.707 169.578 239.157 169.812C239.679 170.082 239.895 170.478 239.895 171.09C239.895 171.72 239.643 172.152 239.157 172.404C238.725 172.62 238.131 172.71 237.357 172.71H235.917ZM246.815 180H255.059V177.498H249.677V174.402H254.141V172.026H249.677V169.47H254.861V166.968H246.815V180ZM265.176 180H268.038V166.968H265.176V180ZM278.967 176.994L280.857 174.312C281.505 173.394 282.153 172.44 282.765 171.522L282.801 171.54C282.783 172.476 282.765 173.7 282.765 174.78V180H285.627V166.968H282.909L279.039 172.476L275.169 166.968H272.415V180H275.169V174.78C275.169 173.7 275.151 172.476 275.133 171.54L275.169 171.522C275.781 172.44 276.429 173.394 277.077 174.312L278.967 176.994ZM290.006 180H292.868V175.338H293.768C295.676 175.338 296.972 175.122 297.98 174.528C299.078 173.88 299.852 172.728 299.852 171.126C299.852 169.362 298.88 168.246 297.746 167.652C296.72 167.112 295.424 166.968 293.876 166.968H290.006V180ZM292.868 173.016V169.47H293.84C294.848 169.47 295.55 169.506 296.072 169.74C296.666 170.01 296.99 170.532 296.99 171.27C296.99 171.918 296.702 172.404 296.18 172.692C295.694 172.962 295.046 173.016 293.912 173.016H292.868ZM303.502 180H306.364V174.852H307.642L310.936 180H314.23L310.558 174.492C312.286 173.934 313.204 172.566 313.204 170.892C313.204 169.398 312.592 168.426 311.638 167.832C310.594 167.184 309.136 166.968 307.588 166.968H303.502V180ZM306.364 172.71V169.47H307.462C308.452 169.47 309.154 169.578 309.604 169.812C310.126 170.082 310.342 170.478 310.342 171.09C310.342 171.72 310.09 172.152 309.604 172.404C309.172 172.62 308.578 172.71 307.804 172.71H306.364ZM323.49 177.606C321.24 177.606 319.548 175.788 319.548 173.484C319.548 171.18 321.24 169.362 323.49 169.362C325.74 169.362 327.432 171.18 327.432 173.484C327.432 175.788 325.74 177.606 323.49 177.606ZM323.49 180.198C327.36 180.198 330.294 177.282 330.294 173.484C330.294 169.686 327.36 166.77 323.49 166.77C319.62 166.77 316.686 169.686 316.686 173.484C316.686 177.282 319.62 180.198 323.49 180.198ZM337.121 180H340.001L344.969 166.968H342.035L339.893 172.674C339.443 173.88 339.011 175.05 338.597 176.238H338.561C338.165 175.068 337.733 173.862 337.301 172.692L335.213 166.968H332.135L337.121 180ZM348.104 180H350.966V166.968H348.104V180ZM364.45 180H367.15V166.968H364.396V171.81C364.396 173.07 364.414 174.33 364.432 175.572L364.396 175.59C363.586 174.456 362.794 173.358 361.948 172.224L358.042 166.968H355.342V180H358.096V175.158C358.096 173.898 358.078 172.638 358.06 171.396L358.096 171.378C358.906 172.512 359.698 173.61 360.544 174.744L364.45 180ZM382.508 173.07H377.468V175.446H379.736V177.408C379.304 177.588 378.728 177.696 378.134 177.696C375.452 177.696 373.832 175.788 373.832 173.52C373.832 171.198 375.524 169.344 378.152 169.344C379.574 169.344 380.996 169.884 382.094 170.64V167.76C381.086 167.202 379.7 166.77 378.098 166.77C373.94 166.77 370.97 169.686 370.97 173.538C370.97 177.372 373.904 180.198 378.08 180.198C379.7 180.198 381.338 179.766 382.508 179.118V173.07Z" fill="#061436"/>
<rect x="122" y="214" width="48" height="48" rx="24" fill="#CBDAFF"/>
<mask id="mask0_314_18494" style="mask-type:alpha" maskUnits="userSpaceOnUse" x="134" y="226" width="24" height="24">
<rect x="134" y="226" width="24" height="24" fill="#D9D9D9"/>
</mask>
<g mask="url(#mask0_314_18494)">
<path d="M146 242.475C147.65 241.142 148.896 239.858 149.738 238.625C150.579 237.392 151 236.233 151 235.15C151 234.217 150.829 233.421 150.488 232.762C150.146 232.104 149.725 231.571 149.225 231.162C148.725 230.754 148.183 230.458 147.6 230.275C147.017 230.092 146.483 230 146 230C145.517 230 144.983 230.092 144.4 230.275C143.817 230.458 143.275 230.754 142.775 231.162C142.275 231.571 141.854 232.104 141.513 232.762C141.171 233.421 141 234.217 141 235.15C141 236.233 141.421 237.392 142.262 238.625C143.104 239.858 144.35 241.142 146 242.475ZM146 245C143.65 243.267 141.896 241.583 140.737 239.95C139.579 238.317 139 236.717 139 235.15C139 233.967 139.213 232.929 139.638 232.037C140.063 231.146 140.608 230.4 141.275 229.8C141.942 229.2 142.692 228.75 143.525 228.45C144.358 228.15 145.183 228 146 228C146.817 228 147.642 228.15 148.475 228.45C149.308 228.75 150.058 229.2 150.725 229.8C151.392 230.4 151.938 231.146 152.363 232.037C152.788 232.929 153 233.967 153 235.15C153 236.717 152.421 238.317 151.262 239.95C150.104 241.583 148.35 243.267 146 245ZM146 237C146.55 237 147.021 236.804 147.413 236.412C147.804 236.021 148 235.55 148 235C148 234.45 147.804 233.979 147.413 233.587C147.021 233.196 146.55 233 146 233C145.45 233 144.979 233.196 144.588 233.587C144.196 233.979 144 234.45 144 235C144 235.55 144.196 236.021 144.588 236.412C144.979 236.804 145.45 237 146 237ZM139 248V246H153V248H139Z" fill="#061436"/>
</g>
<path d="M187.056 245.01C188.156 245.758 189.938 246.242 191.654 246.242C194.888 246.242 197.462 244.328 197.462 241.512C197.462 239.862 196.582 238.366 194.8 237.75V237.706C196.252 237.156 197.154 235.814 197.154 234.252C197.154 231.722 194.778 229.83 191.544 229.83C190.224 229.83 188.948 230.138 188.002 230.71V233.834C188.926 233.328 190.18 232.91 191.28 232.91C192.71 232.91 193.656 233.614 193.656 234.824C193.656 235.946 192.842 236.738 191.126 236.738H189.63V239.378H191.214C193.106 239.378 193.964 240.104 193.964 241.248C193.964 242.458 192.974 243.162 191.478 243.162C190.048 243.162 188.53 242.546 187.056 241.644V245.01ZM203.211 246H206.709V229.83L199.977 232.272V235.44L203.211 234.274V246ZM214.576 246H218.074V229.83L211.342 232.272V235.44L214.576 234.274V246ZM235.958 242.326L238.268 239.048C239.06 237.926 239.852 236.76 240.6 235.638L240.644 235.66C240.622 236.804 240.6 238.3 240.6 239.62V246H244.098V230.072H240.776L236.046 236.804L231.316 230.072H227.95V246H231.316V239.62C231.316 238.3 231.294 236.804 231.272 235.66L231.316 235.638C232.064 236.76 232.856 237.926 233.648 239.048L235.958 242.326ZM253.079 245.34C253.673 245.956 254.531 246.198 255.411 246.198C256.049 246.198 256.643 246.066 257.017 245.868V243.36C256.841 243.448 256.643 243.492 256.467 243.492C256.005 243.492 255.807 243.14 255.807 242.634V238.96C255.807 237.596 255.411 236.628 254.597 235.968C253.739 235.264 252.441 234.934 250.989 234.934C249.405 234.934 248.085 235.33 247.205 235.77V238.652C248.063 238.19 249.163 237.794 250.373 237.794C251.165 237.794 251.737 237.97 252.045 238.256C252.287 238.476 252.463 238.872 252.463 239.4V239.818C251.869 239.686 251.231 239.62 250.593 239.62C249.471 239.62 248.393 239.818 247.557 240.39C246.787 240.918 246.237 241.82 246.237 243.008C246.237 244.13 246.721 244.988 247.513 245.538C248.217 246.022 249.097 246.242 250.021 246.242C251.253 246.242 252.331 245.846 253.035 245.34H253.079ZM252.463 243.338C252.067 243.58 251.517 243.778 250.945 243.778C250.175 243.778 249.559 243.404 249.559 242.7C249.559 241.864 250.417 241.6 251.275 241.6C251.627 241.6 252.111 241.644 252.463 241.754V243.338ZM262.101 245.846L262.145 245.824C262.651 246.066 263.355 246.242 264.235 246.242C267.403 246.242 269.889 243.976 269.889 240.5C269.889 237.134 267.535 234.934 264.763 234.934C263.685 234.934 262.783 235.264 262.079 235.748L262.035 235.726V235.176H258.757V250.84H262.101V245.846ZM262.101 243.118V238.322C262.585 237.97 263.223 237.728 263.905 237.728C265.555 237.728 266.523 239.048 266.523 240.676C266.523 242.282 265.555 243.536 263.817 243.536C263.135 243.536 262.519 243.338 262.101 243.118Z" fill="#1C3F94"/>
<rect x="122" y="290" width="48" height="48" rx="24" fill="#CBDAFF"/>
<mask id="mask1_314_18494" style="mask-type:alpha" maskUnits="userSpaceOnUse" x="134" y="302" width="24" height="24">
<rect x="134" y="302" width="24" height="24" fill="#D9D9D9"/>
</mask>
<g mask="url(#mask1_314_18494)">
<path d="M145 324V320H140L137 317L140 314H145V312H138V306H145V304H147V306H152L155 309L152 312H147V314H154V320H147V324H145ZM140 310H151.175L152.175 309L151.175 308H140V310ZM140.825 318H152V316H140.825L139.825 317L140.825 318Z" fill="#061436"/>
</g>
<path d="M187.254 321.076C188.75 321.846 190.708 322.242 192.292 322.242C195.724 322.242 198.078 320.372 198.078 317.27C198.078 314.454 196.142 313.332 193.744 312.54C191.83 311.902 190.356 311.792 190.356 310.384C190.356 309.328 191.214 308.888 192.402 308.888C193.634 308.888 195.592 309.372 197.286 310.428V306.974C195.9 306.226 193.986 305.83 192.424 305.83C189.08 305.83 186.836 307.678 186.836 310.648C186.836 313.42 188.816 314.498 191.016 315.224C193.062 315.884 194.558 316.016 194.558 317.49C194.558 318.678 193.612 319.184 192.336 319.184C191.082 319.184 188.948 318.678 187.254 317.534V321.076ZM207.08 318.986C206.64 319.206 206.024 319.426 205.474 319.426C204.462 319.426 204.22 318.634 204.22 317.578V313.948H207.08V311.176H204.22V307.788L200.876 308.36V311.176H199.116V313.948H200.876V317.93C200.876 319.646 201.25 320.548 201.822 321.164C202.504 321.89 203.538 322.242 204.638 322.242C205.584 322.242 206.574 321.978 207.08 321.648V318.986ZM209.085 322H212.429V315.444C213.221 314.52 214.189 314.168 215.355 314.168C215.663 314.168 215.993 314.212 216.257 314.278V311.132C216.015 311.066 215.773 311.044 215.553 311.044C214.211 311.044 213.155 311.594 212.407 312.65L212.363 312.628V311.176H209.085V322ZM227.906 317.468C227.95 317.182 227.972 316.698 227.972 316.324C227.972 312.694 225.464 310.934 222.802 310.934C219.81 310.934 217.126 313.178 217.126 316.632C217.126 320.02 219.7 322.242 223.264 322.242C224.694 322.242 226.322 321.912 227.378 321.252V318.458C226.234 319.228 224.914 319.646 223.704 319.646C222.164 319.646 220.932 318.964 220.558 317.468H227.906ZM220.536 315.356C220.822 314.124 221.724 313.486 222.758 313.486C223.836 313.486 224.694 314.19 224.892 315.356H220.536ZM240.238 317.468C240.282 317.182 240.304 316.698 240.304 316.324C240.304 312.694 237.796 310.934 235.134 310.934C232.142 310.934 229.458 313.178 229.458 316.632C229.458 320.02 232.032 322.242 235.596 322.242C237.026 322.242 238.654 321.912 239.71 321.252V318.458C238.566 319.228 237.246 319.646 236.036 319.646C234.496 319.646 233.264 318.964 232.89 317.468H240.238ZM232.868 315.356C233.154 314.124 234.056 313.486 235.09 313.486C236.168 313.486 237.026 314.19 237.224 315.356H232.868ZM249.297 318.986C248.857 319.206 248.241 319.426 247.691 319.426C246.679 319.426 246.437 318.634 246.437 317.578V313.948H249.297V311.176H246.437V307.788L243.093 308.36V311.176H241.333V313.948H243.093V317.93C243.093 319.646 243.467 320.548 244.039 321.164C244.721 321.89 245.755 322.242 246.855 322.242C247.801 322.242 248.791 321.978 249.297 321.648V318.986ZM264.597 318.326L266.907 315.048C267.699 313.926 268.491 312.76 269.239 311.638L269.283 311.66C269.261 312.804 269.239 314.3 269.239 315.62V322H272.737V306.072H269.415L264.685 312.804L259.955 306.072H256.589V322H259.955V315.62C259.955 314.3 259.933 312.804 259.911 311.66L259.955 311.638C260.703 312.76 261.495 313.926 262.287 315.048L264.597 318.326ZM281.717 321.34C282.311 321.956 283.169 322.198 284.049 322.198C284.687 322.198 285.281 322.066 285.655 321.868V319.36C285.479 319.448 285.281 319.492 285.105 319.492C284.643 319.492 284.445 319.14 284.445 318.634V314.96C284.445 313.596 284.049 312.628 283.235 311.968C282.377 311.264 281.079 310.934 279.627 310.934C278.043 310.934 276.723 311.33 275.843 311.77V314.652C276.701 314.19 277.801 313.794 279.011 313.794C279.803 313.794 280.375 313.97 280.683 314.256C280.925 314.476 281.101 314.872 281.101 315.4V315.818C280.507 315.686 279.869 315.62 279.231 315.62C278.109 315.62 277.031 315.818 276.195 316.39C275.425 316.918 274.875 317.82 274.875 319.008C274.875 320.13 275.359 320.988 276.151 321.538C276.855 322.022 277.735 322.242 278.659 322.242C279.891 322.242 280.969 321.846 281.673 321.34H281.717ZM281.101 319.338C280.705 319.58 280.155 319.778 279.583 319.778C278.813 319.778 278.197 319.404 278.197 318.7C278.197 317.864 279.055 317.6 279.913 317.6C280.265 317.6 280.749 317.644 281.101 317.754V319.338ZM287.132 307.744C287.132 308.8 288.012 309.658 289.068 309.658C290.124 309.658 291.004 308.8 291.004 307.744C291.004 306.688 290.124 305.83 289.068 305.83C288.012 305.83 287.132 306.688 287.132 307.744ZM287.396 322H290.74V311.176H287.396V322ZM293.519 322H296.863V314.718C297.457 314.256 298.271 313.816 299.129 313.816C299.591 313.816 299.987 313.948 300.273 314.278C300.537 314.586 300.647 314.982 300.647 315.796V322H303.991V315.246C303.991 313.684 303.705 312.738 303.045 312.034C302.363 311.33 301.351 310.934 300.207 310.934C298.843 310.934 297.699 311.506 296.863 312.188L296.819 312.166V311.176H293.519V322ZM313.728 318.986C313.288 319.206 312.672 319.426 312.122 319.426C311.11 319.426 310.868 318.634 310.868 317.578V313.948H313.728V311.176H310.868V307.788L307.524 308.36V311.176H305.764V313.948H307.524V317.93C307.524 319.646 307.898 320.548 308.47 321.164C309.152 321.89 310.186 322.242 311.286 322.242C312.232 322.242 313.222 321.978 313.728 321.648V318.986ZM325.66 317.468C325.704 317.182 325.726 316.698 325.726 316.324C325.726 312.694 323.218 310.934 320.556 310.934C317.564 310.934 314.88 313.178 314.88 316.632C314.88 320.02 317.454 322.242 321.018 322.242C322.448 322.242 324.076 321.912 325.132 321.252V318.458C323.988 319.228 322.668 319.646 321.458 319.646C319.918 319.646 318.686 318.964 318.312 317.468H325.66ZM318.29 315.356C318.576 314.124 319.478 313.486 320.512 313.486C321.59 313.486 322.448 314.19 322.646 315.356H318.29ZM327.894 322H331.238V314.718C331.832 314.256 332.646 313.816 333.504 313.816C333.966 313.816 334.362 313.948 334.648 314.278C334.912 314.586 335.022 314.982 335.022 315.796V322H338.366V315.246C338.366 313.684 338.08 312.738 337.42 312.034C336.738 311.33 335.726 310.934 334.582 310.934C333.218 310.934 332.074 311.506 331.238 312.188L331.194 312.166V311.176H327.894V322ZM347.223 321.34C347.817 321.956 348.675 322.198 349.555 322.198C350.193 322.198 350.787 322.066 351.161 321.868V319.36C350.985 319.448 350.787 319.492 350.611 319.492C350.149 319.492 349.951 319.14 349.951 318.634V314.96C349.951 313.596 349.555 312.628 348.741 311.968C347.883 311.264 346.585 310.934 345.133 310.934C343.549 310.934 342.229 311.33 341.349 311.77V314.652C342.207 314.19 343.307 313.794 344.517 313.794C345.309 313.794 345.881 313.97 346.189 314.256C346.431 314.476 346.607 314.872 346.607 315.4V315.818C346.013 315.686 345.375 315.62 344.737 315.62C343.615 315.62 342.537 315.818 341.701 316.39C340.931 316.918 340.381 317.82 340.381 319.008C340.381 320.13 340.865 320.988 341.657 321.538C342.361 322.022 343.241 322.242 344.165 322.242C345.397 322.242 346.475 321.846 347.179 321.34H347.223ZM346.607 319.338C346.211 319.58 345.661 319.778 345.089 319.778C344.319 319.778 343.703 319.404 343.703 318.7C343.703 317.864 344.561 317.6 345.419 317.6C345.771 317.6 346.255 317.644 346.607 317.754V319.338ZM352.902 322H356.246V314.718C356.84 314.256 357.654 313.816 358.512 313.816C358.974 313.816 359.37 313.948 359.656 314.278C359.92 314.586 360.03 314.982 360.03 315.796V322H363.374V315.246C363.374 313.684 363.088 312.738 362.428 312.034C361.746 311.33 360.734 310.934 359.59 310.934C358.226 310.934 357.082 311.506 356.246 312.188L356.202 312.166V311.176H352.902V322ZM375.003 318.326C374.101 319.008 372.891 319.404 371.835 319.404C370.031 319.404 368.777 318.238 368.777 316.588C368.777 314.96 370.009 313.75 371.791 313.75C372.825 313.75 373.881 314.146 374.849 314.762V311.66C373.969 311.22 372.847 310.934 371.637 310.934C368.249 310.934 365.433 313.2 365.433 316.61C365.433 319.866 367.985 322.242 371.461 322.242C372.693 322.242 373.969 321.978 375.003 321.406V318.326ZM387.384 317.468C387.428 317.182 387.45 316.698 387.45 316.324C387.45 312.694 384.942 310.934 382.28 310.934C379.288 310.934 376.604 313.178 376.604 316.632C376.604 320.02 379.178 322.242 382.742 322.242C384.172 322.242 385.8 321.912 386.856 321.252V318.458C385.712 319.228 384.392 319.646 383.182 319.646C381.642 319.646 380.41 318.964 380.036 317.468H387.384ZM380.014 315.356C380.3 314.124 381.202 313.486 382.236 313.486C383.314 313.486 384.172 314.19 384.37 315.356H380.014Z" fill="#1C3F94"/>
<path d="M605.538 176.418C604.458 177.156 603.198 177.624 601.848 177.624C599.166 177.624 597.492 175.788 597.492 173.466C597.492 171.108 599.22 169.344 601.74 169.344C603.072 169.344 604.386 169.83 605.34 170.478V167.58C604.314 167.076 603.036 166.77 601.722 166.77C597.528 166.77 594.63 169.722 594.63 173.502C594.63 177.3 597.528 180.198 601.722 180.198C603.018 180.198 604.422 179.928 605.538 179.334V176.418ZM620.672 166.968H617.918V173.664C617.918 175.032 617.756 175.932 617.36 176.544C616.928 177.21 616.19 177.624 615.056 177.624C613.832 177.624 613.076 177.12 612.68 176.49C612.302 175.878 612.176 175.032 612.176 173.646V166.968H609.314V173.754C609.314 175.608 609.584 177.03 610.286 178.074C611.204 179.424 612.896 180.198 614.984 180.198C617.072 180.198 618.746 179.424 619.664 178.11C620.402 177.066 620.672 175.644 620.672 173.682V166.968ZM624.922 180H627.784V174.852H629.062L632.356 180H635.65L631.978 174.492C633.706 173.934 634.624 172.566 634.624 170.892C634.624 169.398 634.012 168.426 633.058 167.832C632.014 167.184 630.556 166.968 629.008 166.968H624.922V180ZM627.784 172.71V169.47H628.882C629.872 169.47 630.574 169.578 631.024 169.812C631.546 170.082 631.762 170.478 631.762 171.09C631.762 171.72 631.51 172.152 631.024 172.404C630.592 172.62 629.998 172.71 629.224 172.71H627.784ZM638.682 180H641.544V174.852H642.822L646.116 180H649.41L645.738 174.492C647.466 173.934 648.384 172.566 648.384 170.892C648.384 169.398 647.772 168.426 646.818 167.832C645.774 167.184 644.316 166.968 642.768 166.968H638.682V180ZM641.544 172.71V169.47H642.642C643.632 169.47 644.334 169.578 644.784 169.812C645.306 170.082 645.522 170.478 645.522 171.09C645.522 171.72 645.27 172.152 644.784 172.404C644.352 172.62 643.758 172.71 642.984 172.71H641.544ZM652.442 180H660.686V177.498H655.304V174.402H659.768V172.026H655.304V169.47H660.488V166.968H652.442V180ZM673.64 180H676.34V166.968H673.586V171.81C673.586 173.07 673.604 174.33 673.622 175.572L673.586 175.59C672.776 174.456 671.984 173.358 671.138 172.224L667.232 166.968H664.532V180H667.286V175.158C667.286 173.898 667.268 172.638 667.25 171.396L667.286 171.378C668.096 172.512 668.888 173.61 669.734 174.744L673.64 180ZM684.011 180H686.873V169.47H691.085V166.968H679.799V169.47H684.011V180ZM700.819 180H703.681V175.338H704.581C706.489 175.338 707.785 175.122 708.793 174.528C709.891 173.88 710.665 172.728 710.665 171.126C710.665 169.362 709.693 168.246 708.559 167.652C707.533 167.112 706.237 166.968 704.689 166.968H700.819V180ZM703.681 173.016V169.47H704.653C705.661 169.47 706.363 169.506 706.885 169.74C707.479 170.01 707.803 170.532 707.803 171.27C707.803 171.918 707.515 172.404 706.993 172.692C706.507 172.962 705.859 173.016 704.725 173.016H703.681ZM714.315 180H717.177V174.852H718.455L721.749 180H725.043L721.371 174.492C723.099 173.934 724.017 172.566 724.017 170.892C724.017 169.398 723.405 168.426 722.451 167.832C721.407 167.184 719.949 166.968 718.401 166.968H714.315V180ZM717.177 172.71V169.47H718.275C719.265 169.47 719.967 169.578 720.417 169.812C720.939 170.082 721.155 170.478 721.155 171.09C721.155 171.72 720.903 172.152 720.417 172.404C719.985 172.62 719.391 172.71 718.617 172.71H717.177ZM734.303 177.606C732.053 177.606 730.361 175.788 730.361 173.484C730.361 171.18 732.053 169.362 734.303 169.362C736.553 169.362 738.245 171.18 738.245 173.484C738.245 175.788 736.553 177.606 734.303 177.606ZM734.303 180.198C738.173 180.198 741.107 177.282 741.107 173.484C741.107 169.686 738.173 166.77 734.303 166.77C730.433 166.77 727.499 169.686 727.499 173.484C727.499 177.282 730.433 180.198 734.303 180.198ZM746.945 175.77C746.945 177.138 746.693 177.624 745.613 177.624C745.181 177.624 744.515 177.498 743.957 177.282V179.856C744.407 180.036 745.091 180.198 745.883 180.198C747.053 180.198 748.223 179.892 748.943 179.01C749.483 178.344 749.807 177.39 749.807 175.716V166.968H746.945V175.77ZM754.188 180H762.432V177.498H757.05V174.402H761.514V172.026H757.05V169.47H762.234V166.968H754.188V180ZM776.628 176.418C775.548 177.156 774.288 177.624 772.938 177.624C770.256 177.624 768.582 175.788 768.582 173.466C768.582 171.108 770.31 169.344 772.83 169.344C774.162 169.344 775.476 169.83 776.43 170.478V167.58C775.404 167.076 774.126 166.77 772.812 166.77C768.618 166.77 765.72 169.722 765.72 173.502C765.72 177.3 768.618 180.198 772.812 180.198C774.108 180.198 775.512 179.928 776.628 179.334V176.418ZM783.824 180H786.686V169.47H790.898V166.968H779.612V169.47H783.824V180ZM794.198 179.244C795.422 179.874 797.024 180.198 798.32 180.198C801.128 180.198 803.054 178.668 803.054 176.13C803.054 173.826 801.47 172.908 799.508 172.26C797.942 171.738 796.736 171.648 796.736 170.496C796.736 169.632 797.438 169.272 798.41 169.272C799.418 169.272 801.02 169.668 802.406 170.532V167.706C801.272 167.094 799.706 166.77 798.428 166.77C795.692 166.77 793.856 168.282 793.856 170.712C793.856 172.98 795.476 173.862 797.276 174.456C798.95 174.996 800.174 175.104 800.174 176.31C800.174 177.282 799.4 177.696 798.356 177.696C797.33 177.696 795.584 177.282 794.198 176.346V179.244Z" fill="#061436"/>
<rect x="594" y="214" width="48" height="48" rx="24" fill="#FBB040"/>
<mask id="mask2_314_18494" style="mask-type:alpha" maskUnits="userSpaceOnUse" x="606" y="226" width="24" height="24">
<rect x="606" y="226" width="24" height="24" fill="#D9D9D9"/>
</mask>
<g mask="url(#mask2_314_18494)">
<path d="M617 245H619V244H620C620.283 244 620.521 243.904 620.713 243.712C620.904 243.521 621 243.283 621 243V240C621 239.717 620.904 239.479 620.713 239.287C620.521 239.096 620.283 239 620 239H617V238H621V236H619V235H617V236H616C615.717 236 615.479 236.096 615.288 236.287C615.096 236.479 615 236.717 615 237V240C615 240.283 615.096 240.521 615.288 240.712C615.479 240.904 615.717 241 616 241H619V242H615V244H617V245ZM612 248C611.45 248 610.979 247.804 610.588 247.413C610.196 247.021 610 246.55 610 246V230C610 229.45 610.196 228.979 610.588 228.587C610.979 228.196 611.45 228 612 228H620L626 234V246C626 246.55 625.804 247.021 625.413 247.413C625.021 247.804 624.55 248 624 248H612ZM619 234V230H612V246H624V234H619Z" fill="#061436"/>
</g>
<path d="M672.102 241.622C670.782 242.524 669.242 243.096 667.592 243.096C664.314 243.096 662.268 240.852 662.268 238.014C662.268 235.132 664.38 232.976 667.46 232.976C669.088 232.976 670.694 233.57 671.86 234.362V230.82C670.606 230.204 669.044 229.83 667.438 229.83C662.312 229.83 658.77 233.438 658.77 238.058C658.77 242.7 662.312 246.242 667.438 246.242C669.022 246.242 670.738 245.912 672.102 245.186V241.622ZM674.097 231.744C674.097 232.8 674.977 233.658 676.033 233.658C677.089 233.658 677.969 232.8 677.969 231.744C677.969 230.688 677.089 229.83 676.033 229.83C674.977 229.83 674.097 230.688 674.097 231.744ZM674.361 246H677.705V235.176H674.361V246ZM687.502 242.986C687.062 243.206 686.446 243.426 685.896 243.426C684.884 243.426 684.642 242.634 684.642 241.578V237.948H687.502V235.176H684.642V231.788L681.298 232.36V235.176H679.538V237.948H681.298V241.93C681.298 243.646 681.672 244.548 682.244 245.164C682.926 245.89 683.96 246.242 685.06 246.242C686.006 246.242 686.996 245.978 687.502 245.648V242.986ZM693.225 250.84L700.265 235.176H696.943L695.799 237.794C695.293 238.96 694.809 240.104 694.325 241.292H694.281C693.841 240.17 693.379 239.026 692.895 237.86L691.773 235.176H688.253L692.653 244.812L689.815 250.84H693.225ZM707.061 246H711.791C713.485 246 714.849 245.802 715.949 245.384C717.973 244.614 718.985 243.162 718.985 241.204C718.985 239.246 717.973 237.926 715.949 237.332V237.288C717.401 236.76 718.347 235.77 718.347 234.054C718.347 232.734 717.775 231.656 716.543 230.974C715.465 230.38 713.859 230.072 711.703 230.072H707.061V246ZM710.559 236.672V233.064H711.637C712.561 233.064 713.529 233.13 714.101 233.46C714.695 233.79 714.849 234.34 714.849 234.846C714.849 236.144 713.837 236.672 712.407 236.672H710.559ZM710.559 243.008V239.07H712.649C714.519 239.07 715.487 239.708 715.487 241.094C715.487 241.798 715.245 242.392 714.497 242.7C713.969 242.92 713.111 243.008 711.857 243.008H710.559ZM728.24 244.988V246H731.54V235.176H728.196V242.414C727.668 242.92 726.832 243.382 725.996 243.382C725.534 243.382 725.094 243.228 724.808 242.898C724.522 242.59 724.39 242.128 724.39 241.336V235.176H721.046V241.842C721.046 243.448 721.376 244.438 722.08 245.164C722.696 245.802 723.642 246.242 724.896 246.242C726.304 246.242 727.36 245.692 728.196 244.966L728.24 244.988ZM741.648 245.428V246H744.926V229.192H741.582V235.308L741.538 235.33C740.966 235.088 740.306 234.934 739.492 234.934C736.258 234.934 733.772 237.398 733.772 240.808C733.772 244.13 736.126 246.242 738.854 246.242C739.91 246.242 740.878 245.912 741.604 245.406L741.648 245.428ZM741.582 242.964C741.098 243.272 740.438 243.514 739.712 243.514C738.062 243.514 737.138 242.26 737.138 240.654C737.138 239.026 738.084 237.706 739.844 237.706C740.504 237.706 741.098 237.882 741.582 238.124V242.964ZM748.588 250.29C749.534 250.752 750.898 251.082 752.284 251.082C755.738 251.082 758.07 249.19 758.07 245.78V235.088L755.452 235.55C754.682 235.176 753.78 234.934 752.746 234.934C749.38 234.934 747.114 237.42 747.114 240.588C747.114 243.866 749.534 245.89 752.152 245.89C753.054 245.89 754.044 245.626 754.682 245.164L754.726 245.186V245.78C754.726 247.386 753.714 248.222 752.086 248.222C750.942 248.222 749.688 247.804 748.588 247.122V250.29ZM754.726 242.7C754.264 242.986 753.626 243.162 753.032 243.162C751.47 243.162 750.502 242.04 750.502 240.456C750.502 239.048 751.338 237.772 753.076 237.772C753.67 237.772 754.308 237.948 754.726 238.168V242.7ZM770.976 241.468C771.02 241.182 771.042 240.698 771.042 240.324C771.042 236.694 768.534 234.934 765.872 234.934C762.88 234.934 760.196 237.178 760.196 240.632C760.196 244.02 762.77 246.242 766.334 246.242C767.764 246.242 769.392 245.912 770.448 245.252V242.458C769.304 243.228 767.984 243.646 766.774 243.646C765.234 243.646 764.002 242.964 763.628 241.468H770.976ZM763.606 239.356C763.892 238.124 764.794 237.486 765.828 237.486C766.906 237.486 767.764 238.19 767.962 239.356H763.606ZM780.035 242.986C779.595 243.206 778.979 243.426 778.429 243.426C777.417 243.426 777.175 242.634 777.175 241.578V237.948H780.035V235.176H777.175V231.788L773.831 232.36V235.176H772.071V237.948H773.831V241.93C773.831 243.646 774.205 244.548 774.777 245.164C775.459 245.89 776.493 246.242 777.593 246.242C778.539 246.242 779.529 245.978 780.035 245.648V242.986ZM787.327 246H790.825V240.302H791.925C794.257 240.302 795.841 240.038 797.073 239.312C798.415 238.52 799.361 237.112 799.361 235.154C799.361 232.998 798.173 231.634 796.787 230.908C795.533 230.248 793.949 230.072 792.057 230.072H787.327V246ZM790.825 237.464V233.13H792.013C793.245 233.13 794.103 233.174 794.741 233.46C795.467 233.79 795.863 234.428 795.863 235.33C795.863 236.122 795.511 236.716 794.873 237.068C794.279 237.398 793.487 237.464 792.101 237.464H790.825ZM803.63 240.588C803.63 239.048 804.796 237.816 806.314 237.816C807.832 237.816 808.998 239.048 808.998 240.588C808.998 242.128 807.832 243.36 806.314 243.36C804.796 243.36 803.63 242.128 803.63 240.588ZM800.286 240.588C800.286 243.778 802.86 246.242 806.314 246.242C809.768 246.242 812.342 243.778 812.342 240.588C812.342 237.398 809.768 234.934 806.314 234.934C802.86 234.934 800.286 237.398 800.286 240.588ZM814.439 246H817.783V239.444C818.575 238.52 819.543 238.168 820.709 238.168C821.017 238.168 821.347 238.212 821.611 238.278V235.132C821.369 235.066 821.127 235.044 820.907 235.044C819.565 235.044 818.509 235.594 817.761 236.65L817.717 236.628V235.176H814.439V246ZM830.459 242.986C830.019 243.206 829.403 243.426 828.853 243.426C827.841 243.426 827.599 242.634 827.599 241.578V237.948H830.459V235.176H827.599V231.788L824.255 232.36V235.176H822.495V237.948H824.255V241.93C824.255 243.646 824.629 244.548 825.201 245.164C825.883 245.89 826.917 246.242 828.017 246.242C828.963 246.242 829.953 245.978 830.459 245.648V242.986ZM838.602 245.34C839.196 245.956 840.054 246.198 840.934 246.198C841.572 246.198 842.166 246.066 842.54 245.868V243.36C842.364 243.448 842.166 243.492 841.99 243.492C841.528 243.492 841.33 243.14 841.33 242.634V238.96C841.33 237.596 840.934 236.628 840.12 235.968C839.262 235.264 837.964 234.934 836.512 234.934C834.928 234.934 833.608 235.33 832.728 235.77V238.652C833.586 238.19 834.686 237.794 835.896 237.794C836.688 237.794 837.26 237.97 837.568 238.256C837.81 238.476 837.986 238.872 837.986 239.4V239.818C837.392 239.686 836.754 239.62 836.116 239.62C834.994 239.62 833.916 239.818 833.08 240.39C832.31 240.918 831.76 241.82 831.76 243.008C831.76 244.13 832.244 244.988 833.036 245.538C833.74 246.022 834.62 246.242 835.544 246.242C836.776 246.242 837.854 245.846 838.558 245.34H838.602ZM837.986 243.338C837.59 243.58 837.04 243.778 836.468 243.778C835.698 243.778 835.082 243.404 835.082 242.7C835.082 241.864 835.94 241.6 836.798 241.6C837.15 241.6 837.634 241.644 837.986 241.754V243.338ZM844.281 246H847.625V229.192H844.281V246Z" fill="#1C3F94"/>
<path d="M1067.19 180H1075.76V177.498H1070.05V166.968H1067.19V180ZM1085.15 177.606C1082.9 177.606 1081.21 175.788 1081.21 173.484C1081.21 171.18 1082.9 169.362 1085.15 169.362C1087.4 169.362 1089.1 171.18 1089.1 173.484C1089.1 175.788 1087.4 177.606 1085.15 177.606ZM1085.15 180.198C1089.02 180.198 1091.96 177.282 1091.96 173.484C1091.96 169.686 1089.02 166.77 1085.15 166.77C1081.28 166.77 1078.35 169.686 1078.35 173.484C1078.35 177.282 1081.28 180.198 1085.15 180.198ZM1104.87 180H1107.57V166.968H1104.82V171.81C1104.82 173.07 1104.83 174.33 1104.85 175.572L1104.82 175.59C1104.01 174.456 1103.21 173.358 1102.37 172.224L1098.46 166.968H1095.76V180H1098.52V175.158C1098.52 173.898 1098.5 172.638 1098.48 171.396L1098.52 171.378C1099.33 172.512 1100.12 173.61 1100.96 174.744L1104.87 180ZM1122.93 173.07H1117.89V175.446H1120.16V177.408C1119.72 177.588 1119.15 177.696 1118.55 177.696C1115.87 177.696 1114.25 175.788 1114.25 173.52C1114.25 171.198 1115.94 169.344 1118.57 169.344C1119.99 169.344 1121.42 169.884 1122.51 170.64V167.76C1121.51 167.202 1120.12 166.77 1118.52 166.77C1114.36 166.77 1111.39 169.686 1111.39 173.538C1111.39 177.372 1114.32 180.198 1118.5 180.198C1120.12 180.198 1121.76 179.766 1122.93 179.118V173.07ZM1126.84 176.13H1131.29V173.898H1126.84V176.13ZM1136.89 180H1139.75V169.47H1143.96V166.968H1132.68V169.47H1136.89V180ZM1147.43 180H1155.67V177.498H1150.29V174.402H1154.75V172.026H1150.29V169.47H1155.47V166.968H1147.43V180ZM1159.52 180H1162.38V174.852H1163.66L1166.95 180H1170.24L1166.57 174.492C1168.3 173.934 1169.22 172.566 1169.22 170.892C1169.22 169.398 1168.61 168.426 1167.65 167.832C1166.61 167.184 1165.15 166.968 1163.6 166.968H1159.52V180ZM1162.38 172.71V169.47H1163.48C1164.47 169.47 1165.17 169.578 1165.62 169.812C1166.14 170.082 1166.36 170.478 1166.36 171.09C1166.36 171.72 1166.1 172.152 1165.62 172.404C1165.19 172.62 1164.59 172.71 1163.82 172.71H1162.38ZM1179.83 176.994L1181.72 174.312C1182.37 173.394 1183.01 172.44 1183.63 171.522L1183.66 171.54C1183.64 172.476 1183.63 173.7 1183.63 174.78V180H1186.49V166.968H1183.77L1179.9 172.476L1176.03 166.968H1173.28V180H1176.03V174.78C1176.03 173.7 1176.01 172.476 1175.99 171.54L1176.03 171.522C1176.64 172.44 1177.29 173.394 1177.94 174.312L1179.83 176.994ZM1197.14 180H1200V175.338H1200.9C1202.81 175.338 1204.11 175.122 1205.11 174.528C1206.21 173.88 1206.99 172.728 1206.99 171.126C1206.99 169.362 1206.01 168.246 1204.88 167.652C1203.85 167.112 1202.56 166.968 1201.01 166.968H1197.14V180ZM1200 173.016V169.47H1200.97C1201.98 169.47 1202.68 169.506 1203.21 169.74C1203.8 170.01 1204.12 170.532 1204.12 171.27C1204.12 171.918 1203.84 172.404 1203.31 172.692C1202.83 172.962 1202.18 173.016 1201.05 173.016H1200ZM1210.64 180H1213.5V174.852H1214.78L1218.07 180H1221.36L1217.69 174.492C1219.42 173.934 1220.34 172.566 1220.34 170.892C1220.34 169.398 1219.73 168.426 1218.77 167.832C1217.73 167.184 1216.27 166.968 1214.72 166.968H1210.64V180ZM1213.5 172.71V169.47H1214.6C1215.59 169.47 1216.29 169.578 1216.74 169.812C1217.26 170.082 1217.48 170.478 1217.48 171.09C1217.48 171.72 1217.22 172.152 1216.74 172.404C1216.31 172.62 1215.71 172.71 1214.94 172.71H1213.5ZM1230.62 177.606C1228.37 177.606 1226.68 175.788 1226.68 173.484C1226.68 171.18 1228.37 169.362 1230.62 169.362C1232.87 169.362 1234.57 171.18 1234.57 173.484C1234.57 175.788 1232.87 177.606 1230.62 177.606ZM1230.62 180.198C1234.49 180.198 1237.43 177.282 1237.43 173.484C1237.43 169.686 1234.49 166.77 1230.62 166.77C1226.75 166.77 1223.82 169.686 1223.82 173.484C1223.82 177.282 1226.75 180.198 1230.62 180.198ZM1243.26 175.77C1243.26 177.138 1243.01 177.624 1241.93 177.624C1241.5 177.624 1240.83 177.498 1240.28 177.282V179.856C1240.73 180.036 1241.41 180.198 1242.2 180.198C1243.37 180.198 1244.54 179.892 1245.26 179.01C1245.8 178.344 1246.13 177.39 1246.13 175.716V166.968H1243.26V175.77ZM1250.51 180H1258.75V177.498H1253.37V174.402H1257.83V172.026H1253.37V169.47H1258.55V166.968H1250.51V180ZM1272.95 176.418C1271.87 177.156 1270.61 177.624 1269.26 177.624C1266.58 177.624 1264.9 175.788 1264.9 173.466C1264.9 171.108 1266.63 169.344 1269.15 169.344C1270.48 169.344 1271.8 169.83 1272.75 170.478V167.58C1271.72 167.076 1270.45 166.77 1269.13 166.77C1264.94 166.77 1262.04 169.722 1262.04 173.502C1262.04 177.3 1264.94 180.198 1269.13 180.198C1270.43 180.198 1271.83 179.928 1272.95 179.334V176.418ZM1280.14 180H1283.01V169.47H1287.22V166.968H1275.93V169.47H1280.14V180ZM1290.52 179.244C1291.74 179.874 1293.34 180.198 1294.64 180.198C1297.45 180.198 1299.37 178.668 1299.37 176.13C1299.37 173.826 1297.79 172.908 1295.83 172.26C1294.26 171.738 1293.06 171.648 1293.06 170.496C1293.06 169.632 1293.76 169.272 1294.73 169.272C1295.74 169.272 1297.34 169.668 1298.73 170.532V167.706C1297.59 167.094 1296.03 166.77 1294.75 166.77C1292.01 166.77 1290.18 168.282 1290.18 170.712C1290.18 172.98 1291.8 173.862 1293.6 174.456C1295.27 174.996 1296.49 175.104 1296.49 176.31C1296.49 177.282 1295.72 177.696 1294.68 177.696C1293.65 177.696 1291.9 177.282 1290.52 176.346V179.244Z" fill="#061436"/>
<rect x="1066" y="214" width="48" height="48" rx="24" fill="#80DA75"/>
<mask id="mask3_314_18494" style="mask-type:alpha" maskUnits="userSpaceOnUse" x="1078" y="226" width="24" height="24">
<rect x="1078" y="226" width="24" height="24" fill="#D9D9D9"/>
</mask>
<g mask="url(#mask3_314_18494)">
<path d="M1093 247L1087 244.9L1082.35 246.7C1082.02 246.833 1081.71 246.796 1081.42 246.587C1081.14 246.379 1081 246.1 1081 245.75V231.75C1081 231.533 1081.06 231.342 1081.19 231.175C1081.31 231.008 1081.48 230.883 1081.7 230.8L1087 229L1093 231.1L1097.65 229.3C1097.98 229.167 1098.29 229.204 1098.58 229.412C1098.86 229.621 1099 229.9 1099 230.25V244.25C1099 244.467 1098.94 244.658 1098.81 244.825C1098.69 244.992 1098.52 245.117 1098.3 245.2L1093 247ZM1092 244.55V232.85L1088 231.45V243.15L1092 244.55ZM1094 244.55L1097 243.55V231.7L1094 232.85V244.55ZM1083 244.3L1086 243.15V231.45L1083 232.45V244.3Z" fill="#061436"/>
</g>
<path d="M1134.95 242.942V233.13H1135.9C1137.68 233.13 1139.2 233.306 1140.32 234.098C1141.51 234.934 1142.17 236.342 1142.17 238.014C1142.17 239.598 1141.57 240.874 1140.63 241.688C1139.64 242.546 1138.18 242.942 1135.92 242.942H1134.95ZM1131.45 246H1135.76C1139.11 246 1141.4 245.362 1143.02 244.042C1144.72 242.656 1145.66 240.522 1145.66 238.014C1145.66 235.286 1144.56 233.042 1142.61 231.678C1140.96 230.534 1138.76 230.072 1135.92 230.072H1131.45V246ZM1157.83 241.468C1157.88 241.182 1157.9 240.698 1157.9 240.324C1157.9 236.694 1155.39 234.934 1152.73 234.934C1149.74 234.934 1147.05 237.178 1147.05 240.632C1147.05 244.02 1149.63 246.242 1153.19 246.242C1154.62 246.242 1156.25 245.912 1157.31 245.252V242.458C1156.16 243.228 1154.84 243.646 1153.63 243.646C1152.09 243.646 1150.86 242.964 1150.49 241.468H1157.83ZM1150.46 239.356C1150.75 238.124 1151.65 237.486 1152.69 237.486C1153.76 237.486 1154.62 238.19 1154.82 239.356H1150.46ZM1162.81 246H1166L1170.4 235.176H1167.1L1165.75 238.63C1165.31 239.752 1164.85 240.984 1164.46 242.084H1164.41C1164.04 240.984 1163.62 239.796 1163.2 238.652L1161.93 235.176H1158.41L1162.81 246ZM1181.53 241.468C1181.57 241.182 1181.6 240.698 1181.6 240.324C1181.6 236.694 1179.09 234.934 1176.43 234.934C1173.43 234.934 1170.75 237.178 1170.75 240.632C1170.75 244.02 1173.32 246.242 1176.89 246.242C1178.32 246.242 1179.95 245.912 1181 245.252V242.458C1179.86 243.228 1178.54 243.646 1177.33 243.646C1175.79 243.646 1174.56 242.964 1174.18 241.468H1181.53ZM1174.16 239.356C1174.45 238.124 1175.35 237.486 1176.38 237.486C1177.46 237.486 1178.32 238.19 1178.52 239.356H1174.16ZM1183.76 246H1187.11V229.192H1183.76V246ZM1192.55 240.588C1192.55 239.048 1193.72 237.816 1195.23 237.816C1196.75 237.816 1197.92 239.048 1197.92 240.588C1197.92 242.128 1196.75 243.36 1195.23 243.36C1193.72 243.36 1192.55 242.128 1192.55 240.588ZM1189.21 240.588C1189.21 243.778 1191.78 246.242 1195.23 246.242C1198.69 246.242 1201.26 243.778 1201.26 240.588C1201.26 237.398 1198.69 234.934 1195.23 234.934C1191.78 234.934 1189.21 237.398 1189.21 240.588ZM1206.7 245.846L1206.75 245.824C1207.25 246.066 1207.96 246.242 1208.84 246.242C1212 246.242 1214.49 243.976 1214.49 240.5C1214.49 237.134 1212.14 234.934 1209.36 234.934C1208.29 234.934 1207.38 235.264 1206.68 235.748L1206.64 235.726V235.176H1203.36V250.84H1206.7V245.846ZM1206.7 243.118V238.322C1207.19 237.97 1207.82 237.728 1208.51 237.728C1210.16 237.728 1211.12 239.048 1211.12 240.676C1211.12 242.282 1210.16 243.536 1208.42 243.536C1207.74 243.536 1207.12 243.338 1206.7 243.118ZM1230.63 246H1233.97V239.202C1233.97 237.662 1233.66 236.716 1232.98 236.012C1232.34 235.352 1231.4 234.934 1230.19 234.934C1228.82 234.934 1227.55 235.44 1226.38 236.474C1225.74 235.396 1224.4 234.934 1223.24 234.934C1221.92 234.934 1220.82 235.462 1219.98 236.166L1219.94 236.144V235.176H1216.64V246H1219.98V238.696C1220.53 238.234 1221.32 237.816 1222.09 237.816C1222.53 237.816 1222.93 237.948 1223.24 238.278C1223.52 238.586 1223.63 239.026 1223.63 239.752V246H1226.98V239.202C1226.98 239.048 1226.98 238.872 1226.95 238.718C1227.53 238.212 1228.32 237.816 1229.09 237.816C1229.53 237.816 1229.92 237.948 1230.23 238.278C1230.5 238.564 1230.63 238.938 1230.63 239.752V246ZM1246.8 241.468C1246.84 241.182 1246.87 240.698 1246.87 240.324C1246.87 236.694 1244.36 234.934 1241.7 234.934C1238.7 234.934 1236.02 237.178 1236.02 240.632C1236.02 244.02 1238.59 246.242 1242.16 246.242C1243.59 246.242 1245.22 245.912 1246.27 245.252V242.458C1245.13 243.228 1243.81 243.646 1242.6 243.646C1241.06 243.646 1239.83 242.964 1239.45 241.468H1246.8ZM1239.43 239.356C1239.72 238.124 1240.62 237.486 1241.65 237.486C1242.73 237.486 1243.59 238.19 1243.79 239.356H1239.43ZM1249.03 246H1252.38V238.718C1252.97 238.256 1253.79 237.816 1254.64 237.816C1255.11 237.816 1255.5 237.948 1255.79 238.278C1256.05 238.586 1256.16 238.982 1256.16 239.796V246H1259.51V239.246C1259.51 237.684 1259.22 236.738 1258.56 236.034C1257.88 235.33 1256.87 234.934 1255.72 234.934C1254.36 234.934 1253.21 235.506 1252.38 236.188L1252.33 236.166V235.176H1249.03V246ZM1269.24 242.986C1268.8 243.206 1268.19 243.426 1267.64 243.426C1266.63 243.426 1266.38 242.634 1266.38 241.578V237.948H1269.24V235.176H1266.38V231.788L1263.04 232.36V235.176H1261.28V237.948H1263.04V241.93C1263.04 243.646 1263.41 244.548 1263.99 245.164C1264.67 245.89 1265.7 246.242 1266.8 246.242C1267.75 246.242 1268.74 245.978 1269.24 245.648V242.986ZM1284.54 242.326L1286.85 239.048C1287.65 237.926 1288.44 236.76 1289.19 235.638L1289.23 235.66C1289.21 236.804 1289.19 238.3 1289.19 239.62V246H1292.68V230.072H1289.36L1284.63 236.804L1279.9 230.072H1276.54V246H1279.9V239.62C1279.9 238.3 1279.88 236.804 1279.86 235.66L1279.9 235.638C1280.65 236.76 1281.44 237.926 1282.23 239.048L1284.54 242.326ZM1301.66 245.34C1302.26 245.956 1303.12 246.198 1304 246.198C1304.63 246.198 1305.23 246.066 1305.6 245.868V243.36C1305.43 243.448 1305.23 243.492 1305.05 243.492C1304.59 243.492 1304.39 243.14 1304.39 242.634V238.96C1304.39 237.596 1304 236.628 1303.18 235.968C1302.32 235.264 1301.03 234.934 1299.57 234.934C1297.99 234.934 1296.67 235.33 1295.79 235.77V238.652C1296.65 238.19 1297.75 237.794 1298.96 237.794C1299.75 237.794 1300.32 237.97 1300.63 238.256C1300.87 238.476 1301.05 238.872 1301.05 239.4V239.818C1300.45 239.686 1299.82 239.62 1299.18 239.62C1298.06 239.62 1296.98 239.818 1296.14 240.39C1295.37 240.918 1294.82 241.82 1294.82 243.008C1294.82 244.13 1295.31 244.988 1296.1 245.538C1296.8 246.022 1297.68 246.242 1298.61 246.242C1299.84 246.242 1300.92 245.846 1301.62 245.34H1301.66ZM1301.05 243.338C1300.65 243.58 1300.1 243.778 1299.53 243.778C1298.76 243.778 1298.14 243.404 1298.14 242.7C1298.14 241.864 1299 241.6 1299.86 241.6C1300.21 241.6 1300.7 241.644 1301.05 241.754V243.338ZM1310.69 245.846L1310.73 245.824C1311.24 246.066 1311.94 246.242 1312.82 246.242C1315.99 246.242 1318.48 243.976 1318.48 240.5C1318.48 237.134 1316.12 234.934 1313.35 234.934C1312.27 234.934 1311.37 235.264 1310.67 235.748L1310.62 235.726V235.176H1307.34V250.84H1310.69V245.846ZM1310.69 243.118V238.322C1311.17 237.97 1311.81 237.728 1312.49 237.728C1314.14 237.728 1315.11 239.048 1315.11 240.676C1315.11 242.282 1314.14 243.536 1312.4 243.536C1311.72 243.536 1311.11 243.338 1310.69 243.118Z" fill="#1C3F94"/>
</svg>
