<svg width="68" height="68" viewBox="0 0 68 68" fill="none" xmlns="http://www.w3.org/2000/svg">
<rect width="68" height="68" rx="34" fill="#F3F7FF"/>
<mask id="mask0_2012_15197" style="mask-type:alpha" maskUnits="userSpaceOnUse" x="14" y="14" width="40" height="40">
<rect x="14" y="14" width="40" height="40" fill="#D9D9D9"/>
</mask>
<g mask="url(#mask0_2012_15197)">
<path d="M22.3333 50.6654C21.4167 50.6654 20.6317 50.3393 19.9783 49.687C19.3261 49.0337 19 48.2487 19 47.332V23.9987C19 23.082 19.3261 22.2976 19.9783 21.6454C20.6317 20.992 21.4167 20.6654 22.3333 20.6654H24V17.332H27.3333V20.6654H40.6667V17.332H44V20.6654H45.6667C46.5833 20.6654 47.3683 20.992 48.0217 21.6454C48.6739 22.2976 49 23.082 49 23.9987V47.332C49 48.2487 48.6739 49.0337 48.0217 49.687C47.3683 50.3393 46.5833 50.6654 45.6667 50.6654H22.3333ZM22.3333 47.332H45.6667V30.6654H22.3333V47.332ZM22.3333 27.332H45.6667V23.9987H22.3333V27.332Z" fill="#CBDAFF"/>
</g>
</svg>
