<svg xmlns="http://www.w3.org/2000/svg" width="22" height="22" viewBox="0 0 512 512"><path d="M382 71H130c-44.183 0-80 35.817-80 80s35.817 80 80 80h252c44.183 0 80-35.817 80-80s-35.817-80-80-80zM173 191c-22.092 0-40-17.908-40-40s17.908-40 40-40 40 17.908 40 40-17.908 40-40 40zm209 120c27.57 0 50 22.43 50 50s-22.43 50-50 50H130c-27.57 0-50-22.43-50-50s22.43-50 50-50h252zm0-30H130c-44.183 0-80 35.816-80 80 0 44.182 35.817 80 80 80h252c44.183 0 80-35.818 80-80 0-44.184-35.817-80-80-80zm-37 40c-22.092 0-40 17.908-40 40 0 22.09 17.908 40 40 40s40-17.91 40-40c0-22.092-17.908-40-40-40z"/></svg>