<svg xmlns="http://www.w3.org/2000/svg" width="22" height="22" viewBox="0 0 512 512"><path d="M334.502 147.19h23.4v105.12h-23.4V147.19zm-89.91 0h23.4v45.776h-23.4V147.19zm-90.494 0h23.4v105.12h-23.4V147.19zm46.506 163.037H177.5v54.584h-23.4v-54.583h-23.11v-40.365h69.615v40.365zM291.1 250.88h-23.107v113.93h-23.4V250.88h-23.107v-40.363H291.1v40.364zm89.91 59.46h-23.107v54.47h-23.4v-54.47h-23.107v-40.364h69.615v40.365zM382 90c22.092 0 40 17.908 40 40v252c0 22.092-17.908 40-40 40H130c-22.092 0-40-17.908-40-40V130c0-22.092 17.908-40 40-40h252zm80 35c0-41.422-33.578-75-75-75H125c-41.422 0-75 33.578-75 75v262c0 41.422 33.578 75 75 75h262c41.422 0 75-33.578 75-75V125z"/></svg>