<svg xmlns="http://www.w3.org/2000/svg" width="22" height="22" viewBox="0 0 512 512"><path d="M387 50H125c-41.422 0-75 33.578-75 75v262c0 41.42 33.578 75 75 75h262c41.422 0 75-33.58 75-75V125c0-41.422-33.578-75-75-75zM256 410.266c-29.974 0-54.27-24.3-54.27-54.27s24.296-54.27 54.27-54.27c29.97 0 54.27 24.297 54.27 54.27s-24.3 54.27-54.27 54.27zM422 256H302.186L256 189.667 209.814 256H90V130c0-22.092 17.908-40 40-40h252c22.092 0 40 17.908 40 40v126zm-276-87h-20v-54h20v54zm40-16h-20v-38h20v38zm40 0h-20v-38h20v38zm80 0h-20v-38h20v38zm40 0h-20v-38h20v38zm40 16h-20v-54h20v54zm-120 0h-20v-54h20v54zm3.5 161.5c0 7.456-6.044 13.5-13.5 13.5-7.455 0-13.5-6.044-13.5-13.5 0-7.455 6.045-13.5 13.5-13.5 7.456 0 13.5 6.045 13.5 13.5z"/></svg>