<svg xmlns="http://www.w3.org/2000/svg" width="22" height="22" viewBox="0 0 512 512"><path d="M387 50H125c-41.422 0-75 33.578-75 75v262c0 41.42 33.578 75 75 75h262c41.422 0 75-33.58 75-75V125c0-41.422-33.578-75-75-75zM272.255 370.745H132.75c-9.25 0-16.75-7.5-16.75-16.75s7.5-16.75 16.75-16.75h139.505c-1.227 5.39-1.878 10.994-1.878 16.75 0 5.755.65 11.36 1.878 16.75zm73.496 33.5c-27.752 0-50.248-22.498-50.248-50.25 0-27.75 22.496-50.25 50.25-50.25 27.75 0 50.248 22.5 50.248 50.25 0 27.752-22.498 50.25-50.25 50.25zM422 256H90V130c0-22.092 17.908-40 40-40h252c22.092 0 40 17.908 40 40v126zm-195.5-28H115l111.5-42.064V228zm20-49.61l62-23.39v73h-62v-49.61zM392 123.5V228h-63.5v-80.544L392 123.5z"/></svg>