<svg xmlns="http://www.w3.org/2000/svg" width="22" height="22" viewBox="0 0 512 512"><path d="M223.088 221.97l28.244 28.247-17.016 17.02-28.246-28.248 17.018-17.02zM462 125v262c0 41.42-33.578 75-75 75H125c-41.422 0-75-33.58-75-75V125c0-41.422 33.578-75 75-75h262c41.422 0 75 33.578 75 75zM315.56 332.307c32.895-32.895 32.895-86.227 0-119.12-32.892-32.893-86.224-32.895-119.12 0-32.895 32.894-32.895 86.226 0 119.12 32.892 32.89 86.224 32.896 119.12 0zm84.368-68.31h-20.803c-.74-10.5-2.795-20.638-6.006-30.255l19.25-7.968c-1.913-5.55-4.153-10.947-6.7-16.167l-19.267 7.975c-4.657-9.283-10.445-17.903-17.19-25.673l14.744-14.747c-3.87-4.37-8.004-8.502-12.373-12.374l-14.746 14.746c-7.564-6.57-15.936-12.235-24.94-16.828l8.098-19.206c-5.203-2.582-10.585-4.857-16.122-6.807l-8.092 19.192c-9.847-3.362-20.25-5.507-31.03-6.265v-20.805h-17.5v20.805c-10.5.738-20.64 2.795-30.257 6.006l-7.967-19.25c-5.55 1.91-10.947 4.15-16.167 6.697l7.977 19.268c-9.283 4.658-17.904 10.445-25.674 17.192l-14.746-14.747c-4.37 3.872-8.503 8.006-12.375 12.375l14.747 14.746c-6.57 7.563-12.234 15.935-16.827 24.94l-19.206-8.1c-2.583 5.203-4.857 10.584-6.807 16.12l19.19 8.094c-3.36 9.847-5.505 20.25-6.263 31.03h-20.805v17.5h20.81c.738 10.498 2.794 20.64 6.003 30.255l-19.252 7.97c1.91 5.55 4.15 10.946 6.697 16.166l19.264-7.974c4.657 9.283 10.457 17.894 17.202 25.662l-15.61 15.275 12.375 12.374 28.013-27.678c-22.93-19.447-37.51-48.45-37.51-80.803 0-58.414 47.523-105.938 105.938-105.938s105.94 47.523 105.94 105.938c0 32.352-14.58 61.355-37.513 80.803l27.157 27.156c4.37-3.87 8.503-8.005 12.374-12.374l-14.753-14.755c6.57-7.564 12.235-15.932 16.827-24.935l19.213 8.1c2.583-5.202 4.857-10.584 6.807-16.12l-19.19-8.093c3.362-9.846 5.5-20.25 6.26-31.032h20.808v-17.497z"/></svg>