<svg xmlns="http://www.w3.org/2000/svg" width="22" height="22" viewBox="0 0 512 512"><path d="M382 90c22.092 0 40 17.908 40 40v252c0 22.092-17.908 40-40 40H130c-22.092 0-40-17.908-40-40V130c0-22.092 17.908-40 40-40h252zm80 35c0-41.422-33.578-75-75-75H125c-41.422 0-75 33.578-75 75v262c0 41.422 33.578 75 75 75h262c41.422 0 75-33.578 75-75V125zm-152.397 92.47c-29.602-29.605-77.6-29.607-107.207 0-29.605 29.603-29.605 77.602 0 107.206 29.604 29.602 77.602 29.607 107.207 0 29.606-29.605 29.606-77.604 0-107.207zm-73.12 49.403l-25.42-25.423 15.315-15.315 25.42 25.422-15.314 15.316zm130.324 12.073c-.683 9.703-2.606 19.068-5.633 27.93l17.27 7.283c-1.753 4.98-3.8 9.825-6.125 14.508l-17.292-7.29c-4.133 8.103-9.232 15.633-15.145 22.44l13.277 13.28c-3.484 3.932-7.204 7.652-11.137 11.136l-24.44-24.44c20.638-17.503 33.76-43.606 33.76-72.723 0-52.57-42.77-95.343-95.344-95.343-52.574 0-95.345 42.77-95.345 95.344 0 29.117 13.122 55.22 33.76 72.724l-24.98 24.978-11.136-11.138 13.814-13.815c-6.07-6.992-11.29-14.742-15.482-23.097l-17.337 7.176c-2.292-4.698-4.308-9.556-6.027-14.55l17.326-7.174c-2.888-8.654-4.738-17.78-5.403-27.23h-18.727v-15.75h18.725c.682-9.7 2.612-19.064 5.637-27.926l-17.272-7.284c1.755-4.983 3.802-9.826 6.126-14.51l17.285 7.29c4.133-8.104 9.23-15.64 15.144-22.446l-13.273-13.27c3.484-3.934 7.205-7.654 11.138-11.14l13.27 13.273c6.993-6.072 14.752-11.28 23.107-15.474l-7.18-17.342c4.7-2.29 9.556-4.308 14.552-6.027l7.17 17.326c8.656-2.89 17.782-4.74 27.23-5.405v-18.724h15.75v18.725c9.702.683 19.065 2.613 27.928 5.64l7.283-17.273c4.983 1.754 9.826 3.802 14.51 6.126l-7.29 17.285c8.106 4.134 15.64 9.23 22.448 15.146l13.27-13.272c3.934 3.484 7.652 7.203 11.137 11.137l-13.27 13.27c6.07 6.992 11.28 14.75 15.47 23.105l17.342-7.177c2.292 4.697 4.308 9.554 6.03 14.55l-17.326 7.17c2.89 8.656 4.74 17.78 5.405 27.23h18.724v15.75h-18.727z"/></svg>