<svg xmlns="http://www.w3.org/2000/svg" width="22" height="22" viewBox="0 0 512 512"><path d="M382 90c22.092 0 40 17.91 40 40v252c0 22.092-17.908 40-40 40H130c-22.092 0-40-17.908-40-40V130c0-22.09 17.908-40 40-40h252zm80 35c0-41.42-33.578-75-75-75H125c-41.422 0-75 33.58-75 75v262c0 41.42 33.578 75 75 75h262c41.422 0 75-33.58 75-75V125zm-82.96 62.333c0-27.614-22.384-50-50-50H182.96c-27.616 0-50 22.386-50 50s22.384 50 50 50h146.08c27.616 0 50-22.386 50-50zm-169.206 25c-13.81 0-25-11.192-25-25s11.19-25 25-25c13.807 0 25 11.192 25 25s-11.193 25-25 25zm119.207 83.334c18.198 0 33 14.804 33 33s-14.802 33-33 33H182.96c-18.198 0-33-14.804-33-33s14.802-33 33-33h146.08zm50 33c0-27.614-22.384-50-50-50H182.96c-27.616 0-50 22.386-50 50s22.384 50 50 50h146.08c27.616 0 50-22.386 50-50zm-72.54 25c-13.807 0-25-11.192-25-25s11.193-25 25-25c13.81 0 25 11.192 25 25s-11.19 25-25 25z"/></svg>