<svg xmlns="http://www.w3.org/2000/svg" width="22" height="22" viewBox="0 0 512 512"><path d="M235.5 294c0 33.138-26.862 60-60 60-33.137 0-60-26.862-60-60 0-33.137 26.863-60 60-60 33.138 0 60 26.863 60 60zm-60 90c-6.872 0-13.565-.777-20-2.243V422c0 11.046 8.954 20 20 20s20-8.954 20-20v-40.243c-6.435 1.466-13.128 2.243-20 2.243zm0-180c6.872 0 13.565.777 20 2.243V90c0-11.046-8.954-20-20-20s-20 8.954-20 20v116.243c6.435-1.466 13.128-2.243 20-2.243zm161-7c12.13 0 22 9.87 22 22s-9.87 22-22 22-22-9.87-22-22 9.87-22 22-22zm0-38c-33.137 0-60 26.863-60 60 0 33.138 26.863 60 60 60 33.138 0 60-26.862 60-60 0-33.137-26.862-60-60-60zm0-30c6.872 0 13.565.777 20 2.243V90c0-11.046-8.954-20-20-20s-20 8.954-20 20v41.243c6.435-1.466 13.128-2.243 20-2.243zm0 180c-6.872 0-13.565-.777-20-2.243V422c0 11.046 8.954 20 20 20s20-8.954 20-20V306.757c-6.435 1.466-13.128 2.243-20 2.243z"/></svg>