<svg xmlns="http://www.w3.org/2000/svg" width="22" height="22" viewBox="0 0 512 512"><path d="M349.843 238.786c0 10.158-8.266 18.425-18.425 18.425s-18.426-8.266-18.426-18.424c0-10.16 8.267-18.426 18.426-18.426s18.425 8.266 18.425 18.426zM462 125v262c0 41.42-33.578 75-75 75H125c-41.422 0-75-33.58-75-75V125c0-41.422 33.578-75 75-75h262c41.422 0 75 33.578 75 75zm-147.332 40.29c5.388-1.227 10.993-1.88 16.75-1.88 5.754 0 11.36.653 16.75 1.88v-32.54c0-9.25-7.5-16.75-16.75-16.75-9.252 0-16.75 7.5-16.75 16.75v32.54zm-150.836 35.267c5.39-1.228 10.994-1.88 16.75-1.88 5.755 0 11.36.652 16.75 1.88V132.75c0-9.25-7.5-16.75-16.75-16.75s-16.75 7.5-16.75 16.75v67.807zm33.5 146.99c-5.39 1.228-10.995 1.88-16.75 1.88-5.756 0-11.36-.652-16.75-1.88v31.703c0 9.25 7.5 16.75 16.75 16.75s16.75-7.5 16.75-16.75v-31.702zm33.5-73.495c0-27.75-22.498-50.25-50.25-50.25-27.75 0-50.25 22.5-50.25 50.25 0 27.753 22.5 50.25 50.25 50.25 27.752 0 50.25-22.497 50.25-50.25zm117.336 38.23c-5.39 1.227-10.996 1.878-16.75 1.878-5.757 0-11.362-.65-16.75-1.88v66.97c0 9.25 7.498 16.75 16.75 16.75 9.25 0 16.75-7.5 16.75-16.75v-66.97zm33.5-73.496c0-27.752-22.5-50.25-50.25-50.25-27.752 0-50.25 22.498-50.25 50.25s22.498 50.25 50.25 50.25c27.75 0 50.25-22.498 50.25-50.25z"/></svg>