<svg xmlns="http://www.w3.org/2000/svg" width="22" height="22" viewBox="0 0 512 512"><path d="M382 90c22.092 0 40 17.908 40 40v252c0 22.092-17.908 40-40 40H130c-22.092 0-40-17.908-40-40V130c0-22.092 17.908-40 40-40h252zm80 35c0-41.422-33.578-75-75-75H125c-41.422 0-75 33.578-75 75v262c0 41.422 33.578 75 75 75h262c41.422 0 75-33.578 75-75V125zM233.35 273.947c0 24.977-20.248 45.224-45.225 45.224S142.9 298.925 142.9 273.948s20.248-45.225 45.225-45.225 45.225 20.25 45.225 45.225zm-45.225 67.836c-5.182 0-10.227-.586-15.076-1.69v28.332c0 8.326 6.75 15.075 15.075 15.075 8.324 0 15.074-6.75 15.074-15.075v-28.33c-4.852 1.102-9.897 1.688-15.075 1.688zm0-135.674c5.178 0 10.223.586 15.074 1.69v-61.226c0-8.326-6.75-15.075-15.075-15.075-8.326 0-15.076 6.748-15.076 15.074V207.8c4.848-1.104 9.893-1.69 15.075-1.69zm135.752 19.115c9.143 0 16.582 7.44 16.582 16.583 0 9.142-7.44 16.582-16.583 16.582-9.145 0-16.584-7.44-16.584-16.582 0-9.144 7.44-16.583 16.584-16.583zm0-28.643c-24.977 0-45.225 20.248-45.225 45.226 0 24.977 20.248 45.224 45.225 45.224 24.975 0 45.223-20.247 45.223-45.224 0-24.978-20.248-45.226-45.223-45.226zm0-22.61c5.178 0 10.223.585 15.074 1.69v-29.087c0-8.326-6.75-15.075-15.073-15.075-8.328 0-15.076 6.75-15.076 15.075v29.086c4.85-1.103 9.895-1.69 15.077-1.69zm0 135.673c-5.182 0-10.227-.586-15.076-1.69v60.47c0 8.327 6.75 15.076 15.077 15.076 8.324 0 15.074-6.748 15.074-15.074v-60.472c-4.85 1.105-9.895 1.69-15.073 1.69z"/></svg>