<svg xmlns="http://www.w3.org/2000/svg" width="22" height="22" viewBox="0 0 512 512"><path d="M387 50H125c-41.422 0-75 33.578-75 75v262c0 41.42 33.578 75 75 75h262c41.422 0 75-33.58 75-75V125c0-41.422-33.578-75-75-75zm-43.775 85.1h26v116.802h-26V135.1zm-99.9 0h26v50.863h-26V135.1zm-100.55 0h26v116.802h-26V135.1zm51.674 181.152h-25.675V376.9h-26v-60.648H117.1v-44.85h77.35v44.85zM295 250.312h-25.676V376.9h-26V250.312H217.65v-44.85H295v44.85zm99.9 66.067h-25.676v60.52h-26v-60.52h-25.676v-44.852H394.9v44.85z"/></svg>