<svg width="24" height="25" viewBox="0 0 24 25" fill="none" xmlns="http://www.w3.org/2000/svg">
<mask id="mask0_346_23523" style="mask-type:alpha" maskUnits="userSpaceOnUse" x="0" y="0" width="24" height="25">
<rect y="0.666992" width="24" height="24" fill="#D9D9D9"/>
</mask>
<g mask="url(#mask0_346_23523)">
<path d="M11 16.667H13V12.467L14.6 14.067L16 12.667L12 8.66699L8 12.667L9.4 14.067L11 12.467V16.667ZM12 22.667C10.6167 22.667 9.31667 22.4043 8.1 21.879C6.88333 21.3543 5.825 20.642 4.925 19.742C4.025 18.842 3.31267 17.7837 2.788 16.567C2.26267 15.3503 2 14.0503 2 12.667C2 11.2837 2.26267 9.98366 2.788 8.76699C3.31267 7.55033 4.025 6.49199 4.925 5.59199C5.825 4.69199 6.88333 3.97933 8.1 3.45399C9.31667 2.92933 10.6167 2.66699 12 2.66699C13.3833 2.66699 14.6833 2.92933 15.9 3.45399C17.1167 3.97933 18.175 4.69199 19.075 5.59199C19.975 6.49199 20.6873 7.55033 21.212 8.76699C21.7373 9.98366 22 11.2837 22 12.667C22 14.0503 21.7373 15.3503 21.212 16.567C20.6873 17.7837 19.975 18.842 19.075 19.742C18.175 20.642 17.1167 21.3543 15.9 21.879C14.6833 22.4043 13.3833 22.667 12 22.667ZM12 20.667C14.2333 20.667 16.125 19.892 17.675 18.342C19.225 16.792 20 14.9003 20 12.667C20 10.4337 19.225 8.54199 17.675 6.99199C16.125 5.44199 14.2333 4.66699 12 4.66699C9.76667 4.66699 7.875 5.44199 6.325 6.99199C4.775 8.54199 4 10.4337 4 12.667C4 14.9003 4.775 16.792 6.325 18.342C7.875 19.892 9.76667 20.667 12 20.667Z" fill="#1C3F94"/>
</g>
</svg>
