<svg width="68" height="68" viewBox="0 0 68 68" fill="none" xmlns="http://www.w3.org/2000/svg">
<rect width="68" height="68" rx="34" fill="white"/>
<mask id="mask0_1799_9621" style="mask-type:alpha" maskUnits="userSpaceOnUse" x="14" y="14" width="40" height="40">
<rect x="14" y="14" width="40" height="40" fill="#D9D9D9"/>
</mask>
<g mask="url(#mask0_1799_9621)">
<path d="M34.0003 33.9997C34.917 33.9997 35.702 33.673 36.3553 33.0197C37.0075 32.3675 37.3337 31.583 37.3337 30.6663C37.3337 29.7497 37.0075 28.9647 36.3553 28.3113C35.702 27.6591 34.917 27.333 34.0003 27.333C33.0837 27.333 32.2992 27.6591 31.647 28.3113C30.9937 28.9647 30.667 29.7497 30.667 30.6663C30.667 31.583 30.9937 32.3675 31.647 33.0197C32.2992 33.673 33.0837 33.9997 34.0003 33.9997ZM34.0003 46.2497C37.3892 43.1386 39.9031 40.3119 41.542 37.7697C43.1809 35.2286 44.0003 32.9719 44.0003 30.9997C44.0003 27.9719 43.0348 25.4925 41.1037 23.5613C39.1737 21.6313 36.8059 20.6663 34.0003 20.6663C31.1948 20.6663 28.8264 21.6313 26.8953 23.5613C24.9653 25.4925 24.0003 27.9719 24.0003 30.9997C24.0003 32.9719 24.8198 35.2286 26.4587 37.7697C28.0975 40.3119 30.6114 43.1386 34.0003 46.2497ZM34.0003 50.6663C29.5281 46.8608 26.1881 43.3258 23.9803 40.0613C21.7714 36.798 20.667 33.7775 20.667 30.9997C20.667 26.833 22.0075 23.5136 24.6887 21.0413C27.3687 18.5691 30.4725 17.333 34.0003 17.333C37.5281 17.333 40.632 18.5691 43.312 21.0413C45.9931 23.5136 47.3337 26.833 47.3337 30.9997C47.3337 33.7775 46.2298 36.798 44.022 40.0613C41.8131 43.3258 38.4725 46.8608 34.0003 50.6663Z" fill="#CBDAFF"/>
</g>
</svg>
