<svg width="28" height="28" viewBox="0 0 28 28" fill="none" xmlns="http://www.w3.org/2000/svg">
<path fill-rule="evenodd" clip-rule="evenodd" d="M2 5C2 3.34314 3.34315 2 5 2H23C24.6569 2 26 3.34315 26 5V23C26 24.6569 24.6569 26 23 26H5C3.34314 26 2 24.6569 2 23V5ZM5 4C4.44771 4 4 4.44772 4 5V23C4 23.5523 4.44772 24 5 24H23C23.5523 24 24 23.5523 24 23V5C24 4.44771 23.5523 4 23 4H5Z" fill="#2A0080"/>
<path fill-rule="evenodd" clip-rule="evenodd" d="M22.6958 9.71822L12.3732 19.7182H10.9816L5.3042 14.2182L6.69579 12.7817L11.6774 17.6077L21.3042 8.28174L22.6958 9.71822Z" fill="#2A0080"/>
</svg>
