<svg width="80" height="80" xmlns="http://www.w3.org/2000/svg">
    <g id="Plugin-Settings---Settings" stroke="none" stroke-width="1" fill="none" fill-rule="evenodd">
        <g id="Plugin-Settings-(fpdf-brand)" transform="translate(-321 -534)">
            <g id="Section" transform="translate(288 109)">
                <g id="Extension-Cards" transform="translate(16 362)">
                    <g id="Card" transform="translate(0 38)">
                        <g id="Icon" transform="translate(17 25)">
                            <path d="M44 2.3094l26.641 15.3812a8 8 0 014 6.9282v30.7624a8 8 0 01-4 6.9282L44 77.6906a8 8 0 01-8 0L9.359 62.3094a8 8 0 01-4-6.9282V24.6188a8 8 0 014-6.9282L36 2.3094a8 8 0 018 0z" id="Polygon" fill="#D05C5D"/>
                            <g id="convert-PDF" transform="translate(22 22)">
                                <path id="Path" fill="#FFF" fill-rule="nonzero" d="M33 33.1429L27 34l.8571-6zM8.1429 8L9 2l-6 .8571z"/>
                                <path id="Path" stroke="#FFF" stroke-width="3" stroke-linecap="round" stroke-linejoin="round" d="M33 33.1429L27 34l.8571-6zM8.1429 8L9 2l-6 .8571z"/>
                                <path d="M30.7274 31c5.1479-5.1935 6.688-13.0044 3.902-19.7902C31.8434 4.4239 25.28-.0004 18 0M5.2726 5c-5.1479 5.1935-6.688 13.0044-3.902 19.7902C4.1566 31.5761 10.72 36.0004 18 36M11 18.5h15M11 24.5h10M11 12.5h15" id="Path" stroke="#FFF" stroke-width="3" stroke-linecap="round" stroke-linejoin="round"/>
                            </g>
                        </g>
                    </g>
                </g>
            </g>
        </g>
    </g>
</svg>