<svg width="1025" height="378" viewBox="0 0 1025 378" fill="none" xmlns="http://www.w3.org/2000/svg">
<g clip-path="url(#clip0_347_22426)">
<g clip-path="url(#clip1_347_22426)">
<path d="M0 4C0 1.79086 1.79086 0 4 0H1021C1023.21 0 1025 1.79086 1025 4V310H0V4Z" fill="#FFC960"/>
<path d="M0 157.771C301.545 345.823 672.692 260.001 1025 158.352" stroke="#FBB040"/>
<path d="M1025 189.202C603.392 100.714 484.378 439.779 0 232.979" stroke="#FBB040"/>
<path d="M1025 127.444C681.51 65.3118 306.928 301.902 0 273.412" stroke="#FBB040"/>
<path d="M62.64 100H81.68V94.44H69V71.04H62.64V100ZM95.7503 98.8C96.8303 99.92 98.3903 100.36 99.9903 100.36C101.15 100.36 102.23 100.12 102.91 99.76V95.2C102.59 95.36 102.23 95.44 101.91 95.44C101.07 95.44 100.71 94.8 100.71 93.88V87.2C100.71 84.72 99.9903 82.96 98.5103 81.76C96.9503 80.48 94.5903 79.88 91.9503 79.88C89.0703 79.88 86.6703 80.6 85.0703 81.4V86.64C86.6303 85.8 88.6303 85.08 90.8303 85.08C92.2703 85.08 93.3103 85.4 93.8703 85.92C94.3103 86.32 94.6303 87.04 94.6303 88V88.76C93.5503 88.52 92.3903 88.4 91.2303 88.4C89.1903 88.4 87.2303 88.76 85.7103 89.8C84.3103 90.76 83.3103 92.4 83.3103 94.56C83.3103 96.6 84.1903 98.16 85.6303 99.16C86.9103 100.04 88.5103 100.44 90.1903 100.44C92.4303 100.44 94.3903 99.72 95.6703 98.8H95.7503ZM94.6303 95.16C93.9103 95.6 92.9103 95.96 91.8703 95.96C90.4703 95.96 89.3503 95.28 89.3503 94C89.3503 92.48 90.9103 92 92.4703 92C93.1103 92 93.9903 92.08 94.6303 92.28V95.16ZM106.075 100H112.155V88.08C113.595 86.4 115.355 85.76 117.475 85.76C118.035 85.76 118.635 85.84 119.115 85.96V80.24C118.675 80.12 118.235 80.08 117.835 80.08C115.395 80.08 113.475 81.08 112.115 83L112.035 82.96V80.32H106.075V100ZM123.534 107.8C125.254 108.64 127.734 109.24 130.254 109.24C136.534 109.24 140.774 105.8 140.774 99.6V80.16L136.014 81C134.614 80.32 132.974 79.88 131.094 79.88C124.974 79.88 120.854 84.4 120.854 90.16C120.854 96.12 125.254 99.8 130.014 99.8C131.654 99.8 133.454 99.32 134.614 98.48L134.694 98.52V99.6C134.694 102.52 132.854 104.04 129.894 104.04C127.814 104.04 125.534 103.28 123.534 102.04V107.8ZM134.694 94C133.854 94.52 132.694 94.84 131.614 94.84C128.774 94.84 127.014 92.8 127.014 89.92C127.014 87.36 128.534 85.04 131.694 85.04C132.774 85.04 133.934 85.36 134.694 85.76V94ZM164.239 91.76C164.319 91.24 164.359 90.36 164.359 89.68C164.359 83.08 159.799 79.88 154.959 79.88C149.519 79.88 144.639 83.96 144.639 90.24C144.639 96.4 149.319 100.44 155.799 100.44C158.399 100.44 161.359 99.84 163.279 98.64V93.56C161.199 94.96 158.799 95.72 156.599 95.72C153.799 95.72 151.559 94.48 150.879 91.76H164.239ZM150.839 87.92C151.359 85.68 152.999 84.52 154.879 84.52C156.839 84.52 158.399 85.8 158.759 87.92H150.839ZM193.993 93.32C192.353 94.56 190.153 95.28 188.233 95.28C184.953 95.28 182.673 93.16 182.673 90.16C182.673 87.2 184.913 85 188.153 85C190.033 85 191.953 85.72 193.713 86.84V81.2C192.113 80.4 190.073 79.88 187.873 79.88C181.713 79.88 176.593 84 176.593 90.2C176.593 96.12 181.233 100.44 187.553 100.44C189.793 100.44 192.113 99.96 193.993 98.92V93.32ZM209.422 98.8C210.502 99.92 212.062 100.36 213.662 100.36C214.822 100.36 215.902 100.12 216.582 99.76V95.2C216.262 95.36 215.902 95.44 215.582 95.44C214.742 95.44 214.382 94.8 214.382 93.88V87.2C214.382 84.72 213.662 82.96 212.182 81.76C210.622 80.48 208.262 79.88 205.622 79.88C202.742 79.88 200.342 80.6 198.742 81.4V86.64C200.302 85.8 202.302 85.08 204.502 85.08C205.942 85.08 206.982 85.4 207.542 85.92C207.982 86.32 208.302 87.04 208.302 88V88.76C207.222 88.52 206.062 88.4 204.902 88.4C202.862 88.4 200.902 88.76 199.382 89.8C197.982 90.76 196.982 92.4 196.982 94.56C196.982 96.6 197.862 98.16 199.302 99.16C200.582 100.04 202.182 100.44 203.862 100.44C206.102 100.44 208.062 99.72 209.342 98.8H209.422ZM208.302 95.16C207.582 95.6 206.582 95.96 205.542 95.96C204.142 95.96 203.022 95.28 203.022 94C203.022 92.48 204.582 92 206.142 92C206.782 92 207.662 92.08 208.302 92.28V95.16ZM219.747 100H225.827V69.44H219.747V100ZM230.879 100H236.959V69.44H230.879V100ZM246.852 90.16C246.852 87.36 248.972 85.12 251.732 85.12C254.492 85.12 256.612 87.36 256.612 90.16C256.612 92.96 254.492 95.2 251.732 95.2C248.972 95.2 246.852 92.96 246.852 90.16ZM240.772 90.16C240.772 95.96 245.452 100.44 251.732 100.44C258.012 100.44 262.692 95.96 262.692 90.16C262.692 84.36 258.012 79.88 251.732 79.88C245.452 79.88 240.772 84.36 240.772 90.16ZM279.584 98.16V100H285.584V80.32H279.504V93.48C278.544 94.4 277.024 95.24 275.504 95.24C274.664 95.24 273.864 94.96 273.344 94.36C272.824 93.8 272.584 92.96 272.584 91.52V80.32H266.504V92.44C266.504 95.36 267.104 97.16 268.384 98.48C269.504 99.64 271.224 100.44 273.504 100.44C276.064 100.44 277.984 99.44 279.504 98.12L279.584 98.16ZM303.483 94.52C302.683 94.92 301.563 95.32 300.563 95.32C298.723 95.32 298.283 93.88 298.283 91.96V85.36H303.483V80.32H298.283V74.16L292.203 75.2V80.32H289.003V85.36H292.203V92.6C292.203 95.72 292.883 97.36 293.923 98.48C295.163 99.8 297.043 100.44 299.043 100.44C300.763 100.44 302.563 99.96 303.483 99.36V94.52ZM315.382 90.76H344.102V87.04H315.382V90.76ZM362.243 90.16C362.243 87.36 364.363 85.12 367.123 85.12C369.883 85.12 372.003 87.36 372.003 90.16C372.003 92.96 369.883 95.2 367.123 95.2C364.363 95.2 362.243 92.96 362.243 90.16ZM356.163 90.16C356.163 95.96 360.843 100.44 367.123 100.44C373.403 100.44 378.083 95.96 378.083 90.16C378.083 84.36 373.403 79.88 367.123 79.88C360.843 79.88 356.163 84.36 356.163 90.16ZM381.895 100H387.975V88.08C389.415 86.4 391.175 85.76 393.295 85.76C393.855 85.76 394.455 85.84 394.935 85.96V80.24C394.495 80.12 394.055 80.08 393.655 80.08C391.215 80.08 389.295 81.08 387.935 83L387.855 82.96V80.32H381.895V100ZM408.25 98.8C409.33 99.92 410.89 100.36 412.49 100.36C413.65 100.36 414.73 100.12 415.41 99.76V95.2C415.09 95.36 414.73 95.44 414.41 95.44C413.57 95.44 413.21 94.8 413.21 93.88V87.2C413.21 84.72 412.49 82.96 411.01 81.76C409.45 80.48 407.09 79.88 404.45 79.88C401.57 79.88 399.17 80.6 397.57 81.4V86.64C399.13 85.8 401.13 85.08 403.33 85.08C404.77 85.08 405.81 85.4 406.37 85.92C406.81 86.32 407.13 87.04 407.13 88V88.76C406.05 88.52 404.89 88.4 403.73 88.4C401.69 88.4 399.73 88.76 398.21 89.8C396.81 90.76 395.81 92.4 395.81 94.56C395.81 96.6 396.69 98.16 398.13 99.16C399.41 100.04 401.01 100.44 402.69 100.44C404.93 100.44 406.89 99.72 408.17 98.8H408.25ZM407.13 95.16C406.41 95.6 405.41 95.96 404.37 95.96C402.97 95.96 401.85 95.28 401.85 94C401.85 92.48 403.41 92 404.97 92C405.61 92 406.49 92.08 407.13 92.28V95.16ZM418.575 100H424.655V86.76C425.735 85.92 427.215 85.12 428.775 85.12C429.615 85.12 430.335 85.36 430.855 85.96C431.335 86.52 431.535 87.24 431.535 88.72V100H437.615V87.72C437.615 84.88 437.095 83.16 435.895 81.88C434.655 80.6 432.815 79.88 430.735 79.88C428.255 79.88 426.175 80.92 424.655 82.16L424.575 82.12V80.32H418.575V100ZM444.159 107.8C445.879 108.64 448.359 109.24 450.879 109.24C457.159 109.24 461.399 105.8 461.399 99.6V80.16L456.639 81C455.239 80.32 453.599 79.88 451.719 79.88C445.599 79.88 441.479 84.4 441.479 90.16C441.479 96.12 445.879 99.8 450.639 99.8C452.279 99.8 454.079 99.32 455.239 98.48L455.319 98.52V99.6C455.319 102.52 453.479 104.04 450.519 104.04C448.439 104.04 446.159 103.28 444.159 102.04V107.8ZM455.319 94C454.479 94.52 453.319 94.84 452.239 94.84C449.399 94.84 447.639 92.8 447.639 89.92C447.639 87.36 449.159 85.04 452.319 85.04C453.399 85.04 454.559 85.36 455.319 85.76V94ZM484.864 91.76C484.944 91.24 484.984 90.36 484.984 89.68C484.984 83.08 480.424 79.88 475.584 79.88C470.144 79.88 465.264 83.96 465.264 90.24C465.264 96.4 469.944 100.44 476.424 100.44C479.024 100.44 481.984 99.84 483.904 98.64V93.56C481.824 94.96 479.424 95.72 477.224 95.72C474.424 95.72 472.184 94.48 471.504 91.76H484.864ZM471.464 87.92C471.984 85.68 473.624 84.52 475.504 84.52C477.464 84.52 479.024 85.8 479.384 87.92H471.464ZM516.778 91.76C516.858 91.24 516.898 90.36 516.898 89.68C516.898 83.08 512.338 79.88 507.498 79.88C502.058 79.88 497.178 83.96 497.178 90.24C497.178 96.4 501.858 100.44 508.338 100.44C510.938 100.44 513.898 99.84 515.818 98.64V93.56C513.738 94.96 511.338 95.72 509.138 95.72C506.338 95.72 504.098 94.48 503.418 91.76H516.778ZM503.378 87.92C503.898 85.68 505.538 84.52 507.418 84.52C509.378 84.52 510.938 85.8 511.298 87.92H503.378ZM517.336 100H523.856L526.136 96.6C526.936 95.4 527.616 94.36 528.256 93.32H528.336C528.976 94.36 529.656 95.4 530.456 96.6L532.736 100H539.696L532.056 89.44L538.736 80.32H532.376L530.856 82.56C530.176 83.56 529.456 84.64 528.696 85.84H528.616C527.896 84.68 527.216 83.64 526.456 82.52L524.976 80.32H518.216L524.936 89.48L517.336 100ZM553.055 98.8C554.135 99.92 555.695 100.36 557.295 100.36C558.455 100.36 559.535 100.12 560.215 99.76V95.2C559.895 95.36 559.535 95.44 559.215 95.44C558.375 95.44 558.015 94.8 558.015 93.88V87.2C558.015 84.72 557.295 82.96 555.815 81.76C554.255 80.48 551.895 79.88 549.255 79.88C546.375 79.88 543.975 80.6 542.375 81.4V86.64C543.935 85.8 545.935 85.08 548.135 85.08C549.575 85.08 550.615 85.4 551.175 85.92C551.615 86.32 551.935 87.04 551.935 88V88.76C550.855 88.52 549.695 88.4 548.535 88.4C546.495 88.4 544.535 88.76 543.015 89.8C541.615 90.76 540.615 92.4 540.615 94.56C540.615 96.6 541.495 98.16 542.935 99.16C544.215 100.04 545.815 100.44 547.495 100.44C549.735 100.44 551.695 99.72 552.975 98.8H553.055ZM551.935 95.16C551.215 95.6 550.215 95.96 549.175 95.96C547.775 95.96 546.655 95.28 546.655 94C546.655 92.48 548.215 92 549.775 92C550.415 92 551.295 92.08 551.935 92.28V95.16ZM588.819 100H594.899V87.64C594.899 84.84 594.339 83.12 593.099 81.84C591.939 80.64 590.219 79.88 588.019 79.88C585.539 79.88 583.219 80.8 581.099 82.68C579.939 80.72 577.499 79.88 575.379 79.88C572.979 79.88 570.979 80.84 569.459 82.12L569.379 82.08V80.32H563.379V100H569.459V86.72C570.459 85.88 571.899 85.12 573.299 85.12C574.099 85.12 574.819 85.36 575.379 85.96C575.899 86.52 576.099 87.32 576.099 88.64V100H582.179V87.64C582.179 87.36 582.179 87.04 582.139 86.76C583.179 85.84 584.619 85.12 586.019 85.12C586.819 85.12 587.539 85.36 588.099 85.96C588.579 86.48 588.819 87.16 588.819 88.64V100ZM605.944 99.72L606.024 99.68C606.944 100.12 608.224 100.44 609.824 100.44C615.584 100.44 620.104 96.32 620.104 90C620.104 83.88 615.824 79.88 610.784 79.88C608.824 79.88 607.184 80.48 605.904 81.36L605.824 81.32V80.32H599.864V108.8H605.944V99.72ZM605.944 94.76V86.04C606.824 85.4 607.984 84.96 609.224 84.96C612.224 84.96 613.984 87.36 613.984 90.32C613.984 93.24 612.224 95.52 609.064 95.52C607.824 95.52 606.704 95.16 605.944 94.76ZM624.004 100H630.084V69.44H624.004V100ZM653.497 91.76C653.577 91.24 653.617 90.36 653.617 89.68C653.617 83.08 649.057 79.88 644.217 79.88C638.777 79.88 633.897 83.96 633.897 90.24C633.897 96.4 638.577 100.44 645.057 100.44C647.657 100.44 650.617 99.84 652.537 98.64V93.56C650.457 94.96 648.057 95.72 645.857 95.72C643.057 95.72 640.817 94.48 640.137 91.76H653.497ZM640.097 87.92C640.617 85.68 642.257 84.52 644.137 84.52C646.097 84.52 647.657 85.8 648.017 87.92H640.097ZM671.731 100H677.571L679.371 94.72C680.051 92.76 680.651 90.92 681.171 89.12H681.251C681.771 90.92 682.371 92.84 683.011 94.76L684.771 100H690.451L697.171 80.32H691.291L689.291 86.52C688.651 88.52 688.091 90.32 687.571 92.2H687.491C686.931 90.32 686.371 88.56 685.691 86.52L683.611 80.32H679.091L676.971 86.52C676.331 88.4 675.691 90.36 675.131 92.2H675.051C674.531 90.32 673.971 88.48 673.331 86.52L671.331 80.32H665.011L671.731 100ZM699.696 74.08C699.696 76 701.296 77.56 703.216 77.56C705.136 77.56 706.736 76 706.736 74.08C706.736 72.16 705.136 70.6 703.216 70.6C701.296 70.6 699.696 72.16 699.696 74.08ZM700.176 100H706.256V80.32H700.176V100ZM724.069 94.52C723.269 94.92 722.149 95.32 721.149 95.32C719.309 95.32 718.869 93.88 718.869 91.96V85.36H724.069V80.32H718.869V74.16L712.789 75.2V80.32H709.589V85.36H712.789V92.6C712.789 95.72 713.469 97.36 714.509 98.48C715.749 99.8 717.629 100.44 719.629 100.44C721.349 100.44 723.149 99.96 724.069 99.36V94.52ZM727.715 100H733.795V86.76C734.875 85.92 736.355 85.12 737.915 85.12C738.755 85.12 739.475 85.36 739.995 85.96C740.475 86.52 740.675 87.24 740.675 88.72V100H746.755V87.72C746.755 84.88 746.235 83.16 745.035 81.88C743.795 80.6 741.955 79.88 739.875 79.88C737.395 79.88 735.315 80.92 733.875 82.12L733.795 82.08V69.44H727.715V100ZM761.192 100.24L765.952 99.44C767.312 100 768.912 100.44 770.832 100.44C776.952 100.44 781.472 96.04 781.472 89.8C781.472 83.68 777.072 79.88 772.192 79.88C770.312 79.88 768.552 80.44 767.352 81.24L767.272 81.2V69.44H761.192V100.24ZM767.272 94.76V85.92C768.152 85.4 769.312 84.96 770.632 84.96C773.632 84.96 775.352 87.2 775.352 90.08C775.352 92.96 773.672 95.52 770.392 95.52C769.272 95.52 768.072 95.2 767.272 94.76ZM798.491 98.16V100H804.491V80.32H798.411V93.48C797.451 94.4 795.931 95.24 794.411 95.24C793.571 95.24 792.771 94.96 792.251 94.36C791.731 93.8 791.491 92.96 791.491 91.52V80.32H785.411V92.44C785.411 95.36 786.011 97.16 787.291 98.48C788.411 99.64 790.131 100.44 792.411 100.44C794.971 100.44 796.891 99.44 798.411 98.12L798.491 98.16ZM822.389 94.52C821.589 94.92 820.469 95.32 819.469 95.32C817.629 95.32 817.189 93.88 817.189 91.96V85.36H822.389V80.32H817.189V74.16L811.109 75.2V80.32H807.909V85.36H811.109V92.6C811.109 95.72 811.789 97.36 812.829 98.48C814.069 99.8 815.949 100.44 817.949 100.44C819.669 100.44 821.469 99.96 822.389 99.36V94.52ZM838.796 94.52C837.996 94.92 836.876 95.32 835.876 95.32C834.036 95.32 833.596 93.88 833.596 91.96V85.36H838.796V80.32H833.596V74.16L827.516 75.2V80.32H824.316V85.36H827.516V92.6C827.516 95.72 828.196 97.36 829.236 98.48C830.476 99.8 832.356 100.44 834.356 100.44C836.076 100.44 837.876 99.96 838.796 99.36V94.52ZM846.969 90.16C846.969 87.36 849.089 85.12 851.849 85.12C854.609 85.12 856.729 87.36 856.729 90.16C856.729 92.96 854.609 95.2 851.849 95.2C849.089 95.2 846.969 92.96 846.969 90.16ZM840.889 90.16C840.889 95.96 845.569 100.44 851.849 100.44C858.129 100.44 862.809 95.96 862.809 90.16C862.809 84.36 858.129 79.88 851.849 79.88C845.569 79.88 840.889 84.36 840.889 90.16ZM866.622 100H872.702V86.76C873.782 85.92 875.262 85.12 876.822 85.12C877.662 85.12 878.382 85.36 878.902 85.96C879.382 86.52 879.582 87.24 879.582 88.72V100H885.662V87.72C885.662 84.88 885.142 83.16 883.942 81.88C882.702 80.6 880.862 79.88 878.782 79.88C876.302 79.88 874.222 80.92 872.702 82.16L872.622 82.12V80.32H866.622V100Z" fill="#061436"/>
<path d="M62.268 162H67.644C70.584 162 72.544 161.664 73.972 160.656C75.456 159.62 76.296 157.94 76.296 156.008C76.296 153.404 74.784 151.836 72.404 151.276V151.22C74.084 150.632 75.484 149.26 75.484 146.936C75.484 145.116 74.644 143.716 73.104 142.792C71.732 141.952 70.164 141.728 67.7 141.728H62.268V162ZM64.928 150.576V144.136H67.336C69.352 144.136 70.444 144.276 71.396 144.836C72.236 145.34 72.824 146.152 72.824 147.412C72.824 149.624 70.976 150.576 68.932 150.576H64.928ZM64.928 159.592V152.62H68.848C71.872 152.62 73.636 153.824 73.636 156.064C73.636 157.436 72.964 158.276 72.32 158.724C71.396 159.368 70.108 159.592 67.812 159.592H64.928ZM79.0061 155.112C79.0061 159.172 82.1141 162.308 86.2861 162.308C90.4581 162.308 93.5661 159.172 93.5661 155.112C93.5661 151.052 90.4581 147.916 86.2861 147.916C82.1141 147.916 79.0061 151.052 79.0061 155.112ZM81.5261 155.112C81.5261 152.34 83.5421 150.212 86.2861 150.212C89.0301 150.212 91.0461 152.34 91.0461 155.112C91.0461 157.884 89.0301 160.012 86.2861 160.012C83.5421 160.012 81.5261 157.884 81.5261 155.112ZM96.1519 155.336C96.1519 159.592 99.1759 162.308 102.9 162.308C104.552 162.308 105.84 161.776 106.764 161.132L106.82 161.16V162H109.34V140.608H106.82V148.616L106.764 148.644C105.868 148.252 104.832 147.916 103.46 147.916C99.1199 147.916 96.1519 151.108 96.1519 155.336ZM98.6999 155.196C98.6999 152.368 100.52 150.156 103.432 150.156C104.664 150.156 105.896 150.548 106.82 151.024V158.892C105.84 159.564 104.608 160.068 103.236 160.068C100.408 160.068 98.6999 157.94 98.6999 155.196ZM116.919 168.16L126.243 148.224H123.583L121.175 153.432C120.531 154.832 119.915 156.204 119.299 157.576H119.243C118.683 156.316 118.011 154.832 117.367 153.432L114.959 148.224H112.159L117.899 160.516L114.175 168.16H116.919ZM138.031 161.02C138.927 162.056 140.159 162.308 141.167 162.308C142.119 162.308 143.099 162.084 143.659 161.804V159.424C143.127 159.76 142.315 160.012 141.587 160.012C139.767 160.012 139.515 158.444 139.515 156.736V150.492H143.659V148.224H139.515V144.052L136.995 144.472V148.224H134.447V150.492H136.995V157.212C136.995 159.144 137.359 160.264 138.031 161.02ZM158.581 155.84C158.637 155.504 158.665 155 158.665 154.58C158.665 150.268 155.753 147.916 152.393 147.916C148.697 147.916 145.533 150.772 145.533 155.112C145.533 159.452 148.725 162.308 152.981 162.308C154.773 162.308 156.677 161.804 157.909 161.02V158.332C156.649 159.284 155.053 160.04 153.149 160.04C150.433 160.04 148.417 158.556 148.053 155.84H158.581ZM152.337 150.184C153.989 150.184 156.005 151.108 156.229 153.852H148.109C148.557 151.304 150.517 150.184 152.337 150.184ZM170.841 162H173.809L168.293 154.636L173.109 148.224H170.253L168.797 150.212C168.125 151.136 167.341 152.228 166.753 153.068H166.697C166.109 152.228 165.353 151.192 164.653 150.24L163.169 148.224H160.201L165.073 154.692L159.557 162H162.413L164.429 159.284C165.129 158.332 165.997 157.156 166.613 156.288H166.669C167.285 157.156 168.097 158.276 168.797 159.228L170.841 162ZM178.007 161.02C178.903 162.056 180.135 162.308 181.143 162.308C182.095 162.308 183.075 162.084 183.635 161.804V159.424C183.103 159.76 182.291 160.012 181.563 160.012C179.743 160.012 179.491 158.444 179.491 156.736V150.492H183.635V148.224H179.491V144.052L176.971 144.472V148.224H174.423V150.492H176.971V157.212C176.971 159.144 177.335 160.264 178.007 161.02ZM194.495 167.432C195.643 168.02 197.183 168.468 198.863 168.468C203.091 168.468 205.779 165.976 205.779 161.944V148.28L203.343 148.7C202.419 148.252 201.271 147.916 199.843 147.916C195.363 147.916 192.703 151.248 192.703 155.14C192.703 159.2 195.699 162.028 199.451 162.028C200.907 162.028 202.251 161.608 203.203 160.964L203.259 160.992V162C203.259 164.604 201.495 166.172 198.863 166.172C197.323 166.172 195.811 165.612 194.495 164.744V167.432ZM195.251 154.972C195.251 152.284 197.015 150.156 199.787 150.156C201.047 150.156 202.391 150.576 203.259 151.108V158.696C202.419 159.368 201.075 159.816 199.815 159.816C197.099 159.816 195.251 157.744 195.251 154.972ZM209.272 155.112C209.272 159.172 212.38 162.308 216.552 162.308C220.724 162.308 223.832 159.172 223.832 155.112C223.832 151.052 220.724 147.916 216.552 147.916C212.38 147.916 209.272 151.052 209.272 155.112ZM211.792 155.112C211.792 152.34 213.808 150.212 216.552 150.212C219.296 150.212 221.312 152.34 221.312 155.112C221.312 157.884 219.296 160.012 216.552 160.012C213.808 160.012 211.792 157.884 211.792 155.112ZM239.41 155.84C239.466 155.504 239.494 155 239.494 154.58C239.494 150.268 236.582 147.916 233.222 147.916C229.526 147.916 226.362 150.772 226.362 155.112C226.362 159.452 229.554 162.308 233.81 162.308C235.602 162.308 237.506 161.804 238.738 161.02V158.332C237.478 159.284 235.882 160.04 233.978 160.04C231.262 160.04 229.246 158.556 228.882 155.84H239.41ZM233.166 150.184C234.818 150.184 236.834 151.108 237.058 153.852H228.938C229.386 151.304 231.346 150.184 233.166 150.184ZM242.699 161.188C244.127 161.944 246.087 162.308 247.851 162.308C250.791 162.308 253.647 161.104 253.647 157.912C253.647 155.056 251.463 154.328 248.831 153.88C246.787 153.516 244.827 153.516 244.827 151.948C244.827 150.716 246.059 150.184 247.823 150.184C249.419 150.184 251.323 150.632 252.863 151.528V149.008C251.491 148.28 249.587 147.916 247.935 147.916C244.743 147.916 242.307 149.288 242.279 152.144C242.279 154.86 244.351 155.644 246.983 156.092C249.111 156.456 251.099 156.484 251.099 158.136C251.099 159.48 249.867 160.04 247.963 160.04C246.255 160.04 244.267 159.564 242.699 158.556V161.188ZM263.845 162H266.365V152.564C267.401 151.276 269.109 150.268 270.761 150.268C271.629 150.268 272.329 150.548 272.861 151.164C273.337 151.696 273.533 152.424 273.533 153.964V162H276.053V153.488C276.053 151.36 275.661 150.296 274.905 149.428C274.037 148.448 272.749 147.916 271.237 147.916C269.305 147.916 267.625 148.784 266.421 149.988L266.365 149.96V140.608H263.845V162ZM292.511 155.84C292.567 155.504 292.595 155 292.595 154.58C292.595 150.268 289.683 147.916 286.323 147.916C282.627 147.916 279.463 150.772 279.463 155.112C279.463 159.452 282.655 162.308 286.911 162.308C288.703 162.308 290.607 161.804 291.839 161.02V158.332C290.579 159.284 288.983 160.04 287.079 160.04C284.363 160.04 282.347 158.556 281.983 155.84H292.511ZM286.267 150.184C287.919 150.184 289.935 151.108 290.159 153.852H282.039C282.487 151.304 284.447 150.184 286.267 150.184ZM296.192 162H298.712V153.04C299.58 151.556 300.896 150.604 302.772 150.604C303.08 150.604 303.416 150.632 303.752 150.716V148.224C303.444 148.14 303.136 148.112 302.856 148.112C301.232 148.112 299.72 148.924 298.768 150.268L298.712 150.24V148.224H296.192V162ZM318.242 155.84C318.298 155.504 318.326 155 318.326 154.58C318.326 150.268 315.414 147.916 312.054 147.916C308.358 147.916 305.194 150.772 305.194 155.112C305.194 159.452 308.386 162.308 312.642 162.308C314.434 162.308 316.338 161.804 317.57 161.02V158.332C316.31 159.284 314.714 160.04 312.81 160.04C310.094 160.04 308.078 158.556 307.714 155.84H318.242ZM311.998 150.184C313.65 150.184 315.666 151.108 315.89 153.852H307.77C308.218 151.304 310.178 150.184 311.998 150.184ZM322.007 160.46C322.007 161.468 322.847 162.308 323.855 162.308C324.863 162.308 325.703 161.468 325.703 160.46C325.703 159.452 324.863 158.612 323.855 158.612C322.847 158.612 322.007 159.452 322.007 160.46ZM336.991 162H339.651V153.012H347.855V150.688H339.651V144.136H348.975V141.728H336.991V162ZM355.016 162.308C356.864 162.308 358.46 161.524 359.244 160.796H359.3C359.832 161.776 360.868 162.252 361.96 162.252C362.492 162.252 362.968 162.14 363.304 162V159.9C363.08 160.012 362.772 160.096 362.492 160.096C361.736 160.096 361.428 159.48 361.428 158.64V152.788C361.428 151.08 360.868 149.904 360.056 149.176C359.076 148.28 357.62 147.916 355.94 147.916C353.896 147.916 352.412 148.448 351.348 149.092V151.556C352.384 150.8 353.84 150.184 355.576 150.184C356.752 150.184 357.592 150.464 358.124 150.94C358.656 151.444 358.908 152.2 358.908 153.208V154.356C358.012 154.132 357.032 153.992 355.968 153.992C354.54 153.992 353.14 154.244 352.104 154.916C351.012 155.616 350.284 156.736 350.284 158.276C350.284 159.62 350.844 160.656 351.74 161.328C352.664 162.028 353.896 162.308 355.016 162.308ZM355.464 160.068C353.98 160.068 352.832 159.396 352.832 158.052C352.832 156.428 354.512 155.924 356.22 155.924C357.088 155.924 358.152 156.064 358.908 156.288V158.864C358.068 159.536 356.78 160.068 355.464 160.068ZM367.174 160.768C368.098 161.832 369.526 162.308 370.926 162.308C372.83 162.308 374.482 161.44 375.686 160.236L375.742 160.264V162H378.262V148.224H375.742V157.632C374.762 158.864 373.138 159.984 371.43 159.984C370.618 159.984 369.806 159.732 369.246 159.032C368.77 158.472 368.574 157.688 368.574 156.176V148.224H366.054V156.652C366.054 158.612 366.39 159.844 367.174 160.768ZM393.321 158.668C392.285 159.48 390.913 160.012 389.345 160.012C386.377 160.012 384.277 158.024 384.277 155.196C384.277 152.424 386.265 150.212 389.261 150.212C390.605 150.212 391.949 150.66 393.097 151.388V148.784C392.117 148.28 390.801 147.916 389.373 147.916C385.089 147.916 381.729 150.94 381.729 155.196C381.729 159.284 384.837 162.308 389.205 162.308C390.605 162.308 392.145 162 393.321 161.356V158.668ZM396.45 143.492C396.45 144.472 397.234 145.256 398.214 145.256C399.194 145.256 399.978 144.472 399.978 143.492C399.978 142.512 399.194 141.728 398.214 141.728C397.234 141.728 396.45 142.512 396.45 143.492ZM396.954 162H399.474V148.224H396.954V162ZM403.9 162L406.336 161.58C407.372 162 408.492 162.308 409.78 162.308C414.008 162.308 417.088 159.172 417.088 154.916C417.088 150.744 414.092 147.916 410.368 147.916C408.716 147.916 407.344 148.476 406.476 149.036L406.42 149.008V140.608H403.9V162ZM406.42 159.2V151.472C407.344 150.716 408.576 150.184 410.06 150.184C412.776 150.184 414.54 152.284 414.54 155.056C414.54 157.94 412.664 160.096 409.864 160.096C408.716 160.096 407.316 159.732 406.42 159.2ZM421.616 160.768C422.54 161.832 423.968 162.308 425.368 162.308C427.272 162.308 428.924 161.44 430.128 160.236L430.184 160.264V162H432.704V148.224H430.184V157.632C429.204 158.864 427.58 159.984 425.872 159.984C425.06 159.984 424.248 159.732 423.688 159.032C423.212 158.472 423.016 157.688 423.016 156.176V148.224H420.496V156.652C420.496 158.612 420.832 159.844 421.616 160.768ZM436.73 161.188C438.158 161.944 440.118 162.308 441.882 162.308C444.822 162.308 447.678 161.104 447.678 157.912C447.678 155.056 445.494 154.328 442.862 153.88C440.818 153.516 438.858 153.516 438.858 151.948C438.858 150.716 440.09 150.184 441.854 150.184C443.45 150.184 445.354 150.632 446.894 151.528V149.008C445.522 148.28 443.618 147.916 441.966 147.916C438.774 147.916 436.338 149.288 436.31 152.144C436.31 154.86 438.382 155.644 441.014 156.092C443.142 156.456 445.13 156.484 445.13 158.136C445.13 159.48 443.898 160.04 441.994 160.04C440.286 160.04 438.298 159.564 436.73 158.556V161.188ZM461.684 162.308C463.532 162.308 465.128 161.524 465.912 160.796H465.968C466.5 161.776 467.536 162.252 468.628 162.252C469.16 162.252 469.636 162.14 469.972 162V159.9C469.748 160.012 469.44 160.096 469.16 160.096C468.404 160.096 468.096 159.48 468.096 158.64V152.788C468.096 151.08 467.536 149.904 466.724 149.176C465.744 148.28 464.288 147.916 462.608 147.916C460.564 147.916 459.08 148.448 458.016 149.092V151.556C459.052 150.8 460.508 150.184 462.244 150.184C463.42 150.184 464.26 150.464 464.792 150.94C465.324 151.444 465.576 152.2 465.576 153.208V154.356C464.68 154.132 463.7 153.992 462.636 153.992C461.208 153.992 459.808 154.244 458.772 154.916C457.68 155.616 456.952 156.736 456.952 158.276C456.952 159.62 457.512 160.656 458.408 161.328C459.332 162.028 460.564 162.308 461.684 162.308ZM462.132 160.068C460.648 160.068 459.5 159.396 459.5 158.052C459.5 156.428 461.18 155.924 462.888 155.924C463.756 155.924 464.82 156.064 465.576 156.288V158.864C464.736 159.536 463.448 160.068 462.132 160.068ZM474.878 161.02C475.774 162.056 477.006 162.308 478.014 162.308C478.966 162.308 479.946 162.084 480.506 161.804V159.424C479.974 159.76 479.162 160.012 478.434 160.012C476.614 160.012 476.362 158.444 476.362 156.736V150.492H480.506V148.224H476.362V144.052L473.842 144.472V148.224H471.294V150.492H473.842V157.212C473.842 159.144 474.206 160.264 474.878 161.02ZM490.442 162H492.962V152.564C493.942 151.248 495.706 150.268 497.274 150.268C498.03 150.268 498.926 150.492 499.486 151.164C499.934 151.696 500.13 152.536 500.13 153.964V162H502.65V153.488C502.65 151.36 502.258 150.296 501.502 149.428C500.634 148.448 499.346 147.916 497.834 147.916C495.902 147.916 494.222 148.784 493.018 149.988L492.962 149.96V148.224H490.442V162ZM510.821 162.308C512.669 162.308 514.265 161.524 515.049 160.796H515.105C515.637 161.776 516.673 162.252 517.765 162.252C518.297 162.252 518.773 162.14 519.109 162V159.9C518.885 160.012 518.577 160.096 518.297 160.096C517.541 160.096 517.233 159.48 517.233 158.64V152.788C517.233 151.08 516.673 149.904 515.861 149.176C514.881 148.28 513.425 147.916 511.745 147.916C509.701 147.916 508.217 148.448 507.153 149.092V151.556C508.189 150.8 509.645 150.184 511.381 150.184C512.557 150.184 513.397 150.464 513.929 150.94C514.461 151.444 514.713 152.2 514.713 153.208V154.356C513.817 154.132 512.837 153.992 511.773 153.992C510.345 153.992 508.945 154.244 507.909 154.916C506.817 155.616 506.089 156.736 506.089 158.276C506.089 159.62 506.649 160.656 507.545 161.328C508.469 162.028 509.701 162.308 510.821 162.308ZM511.269 160.068C509.785 160.068 508.637 159.396 508.637 158.052C508.637 156.428 510.317 155.924 512.025 155.924C512.893 155.924 513.957 156.064 514.713 156.288V158.864C513.873 159.536 512.585 160.068 511.269 160.068ZM540.871 162H543.391V153.404C543.391 151.528 543.083 150.296 542.243 149.372C541.403 148.42 540.115 147.916 538.631 147.916C536.727 147.916 535.047 148.728 533.395 150.296C532.555 148.644 530.875 147.916 529.167 147.916C527.263 147.916 525.639 148.784 524.491 149.932L524.435 149.904V148.224H521.915V162H524.435V152.424C525.387 151.276 527.011 150.268 528.635 150.268C529.419 150.268 530.175 150.492 530.735 151.136C531.211 151.696 531.379 152.368 531.379 153.852V162H533.899V153.404C533.899 153.068 533.899 152.732 533.871 152.424C534.823 151.304 536.475 150.268 538.071 150.268C538.799 150.268 539.639 150.492 540.171 151.108C540.675 151.696 540.871 152.536 540.871 153.852V162ZM566.632 155.84C566.688 155.504 566.716 155 566.716 154.58C566.716 150.268 563.804 147.916 560.444 147.916C556.748 147.916 553.584 150.772 553.584 155.112C553.584 159.452 556.776 162.308 561.032 162.308C562.824 162.308 564.728 161.804 565.96 161.02V158.332C564.7 159.284 563.104 160.04 561.2 160.04C558.484 160.04 556.468 158.556 556.104 155.84H566.632ZM560.388 150.184C562.04 150.184 564.056 151.108 564.28 153.852H556.16C556.608 151.304 558.568 150.184 560.388 150.184ZM570.314 162H572.834V140.608H570.314V162ZM576.755 143.492C576.755 144.472 577.539 145.256 578.519 145.256C579.499 145.256 580.283 144.472 580.283 143.492C580.283 142.512 579.499 141.728 578.519 141.728C577.539 141.728 576.755 142.512 576.755 143.492ZM577.259 162H579.779V148.224H577.259V162ZM586.304 161.02C587.2 162.056 588.432 162.308 589.44 162.308C590.392 162.308 591.372 162.084 591.932 161.804V159.424C591.4 159.76 590.588 160.012 589.86 160.012C588.04 160.012 587.788 158.444 587.788 156.736V150.492H591.932V148.224H587.788V144.052L585.268 144.472V148.224H582.72V150.492H585.268V157.212C585.268 159.144 585.632 160.264 586.304 161.02ZM606.068 162H608.588L614.356 148.224H611.724L609.232 154.272C608.588 155.84 608 157.296 607.384 158.864H607.328C606.74 157.352 606.18 155.952 605.564 154.44L603.016 148.224H600.272L606.068 162ZM618.245 160.768C619.169 161.832 620.597 162.308 621.997 162.308C623.901 162.308 625.553 161.44 626.757 160.236L626.813 160.264V162H629.333V148.224H626.813V157.632C625.833 158.864 624.209 159.984 622.501 159.984C621.689 159.984 620.877 159.732 620.317 159.032C619.841 158.472 619.645 157.688 619.645 156.176V148.224H617.125V156.652C617.125 158.612 617.461 159.844 618.245 160.768ZM633.751 162H636.271V140.608H633.751V162ZM643.216 161.58L643.272 161.552C644.14 161.972 645.288 162.308 646.66 162.308C650.636 162.308 653.856 159.48 653.856 155.056C653.856 150.8 650.888 147.916 647.192 147.916C645.568 147.916 644.224 148.476 643.272 149.148L643.216 149.12V148.224H640.696V168.16H643.216V161.58ZM643.216 159.144V151.444C644.196 150.632 645.54 150.184 646.772 150.184C649.516 150.184 651.308 152.452 651.308 155.252C651.308 158.08 649.46 160.096 646.716 160.096C645.372 160.096 644.084 159.62 643.216 159.144ZM658.413 160.768C659.337 161.832 660.765 162.308 662.165 162.308C664.069 162.308 665.721 161.44 666.925 160.236L666.981 160.264V162H669.501V148.224H666.981V157.632C666.001 158.864 664.377 159.984 662.669 159.984C661.857 159.984 661.045 159.732 660.485 159.032C660.009 158.472 659.813 157.688 659.813 156.176V148.224H657.293V156.652C657.293 158.612 657.629 159.844 658.413 160.768ZM676.019 161.02C676.915 162.056 678.147 162.308 679.155 162.308C680.107 162.308 681.087 162.084 681.647 161.804V159.424C681.115 159.76 680.303 160.012 679.575 160.012C677.755 160.012 677.503 158.444 677.503 156.736V150.492H681.647V148.224H677.503V144.052L674.983 144.472V148.224H672.435V150.492H674.983V157.212C674.983 159.144 675.347 160.264 676.019 161.02ZM688.61 162.308C690.458 162.308 692.054 161.524 692.838 160.796H692.894C693.426 161.776 694.462 162.252 695.554 162.252C696.086 162.252 696.562 162.14 696.898 162V159.9C696.674 160.012 696.366 160.096 696.086 160.096C695.33 160.096 695.022 159.48 695.022 158.64V152.788C695.022 151.08 694.462 149.904 693.65 149.176C692.67 148.28 691.214 147.916 689.534 147.916C687.49 147.916 686.006 148.448 684.942 149.092V151.556C685.978 150.8 687.434 150.184 689.17 150.184C690.346 150.184 691.186 150.464 691.718 150.94C692.25 151.444 692.502 152.2 692.502 153.208V154.356C691.606 154.132 690.626 153.992 689.562 153.992C688.134 153.992 686.734 154.244 685.698 154.916C684.606 155.616 683.878 156.736 683.878 158.276C683.878 159.62 684.438 160.656 685.334 161.328C686.258 162.028 687.49 162.308 688.61 162.308ZM689.058 160.068C687.574 160.068 686.426 159.396 686.426 158.052C686.426 156.428 688.106 155.924 689.814 155.924C690.682 155.924 691.746 156.064 692.502 156.288V158.864C691.662 159.536 690.374 160.068 689.058 160.068ZM701.804 161.02C702.7 162.056 703.932 162.308 704.94 162.308C705.892 162.308 706.872 162.084 707.432 161.804V159.424C706.9 159.76 706.088 160.012 705.36 160.012C703.54 160.012 703.288 158.444 703.288 156.736V150.492H707.432V148.224H703.288V144.052L700.768 144.472V148.224H698.22V150.492H700.768V157.212C700.768 159.144 701.132 160.264 701.804 161.02ZM722.355 155.84C722.411 155.504 722.439 155 722.439 154.58C722.439 150.268 719.527 147.916 716.167 147.916C712.471 147.916 709.307 150.772 709.307 155.112C709.307 159.452 712.499 162.308 716.755 162.308C718.547 162.308 720.451 161.804 721.683 161.02V158.332C720.423 159.284 718.827 160.04 716.923 160.04C714.207 160.04 712.191 158.556 711.827 155.84H722.355ZM716.111 150.184C717.763 150.184 719.779 151.108 720.003 153.852H711.883C712.331 151.304 714.291 150.184 716.111 150.184ZM732.425 161.188C733.853 161.944 735.813 162.308 737.577 162.308C740.517 162.308 743.373 161.104 743.373 157.912C743.373 155.056 741.189 154.328 738.557 153.88C736.513 153.516 734.553 153.516 734.553 151.948C734.553 150.716 735.785 150.184 737.549 150.184C739.145 150.184 741.049 150.632 742.589 151.528V149.008C741.217 148.28 739.313 147.916 737.661 147.916C734.469 147.916 732.033 149.288 732.005 152.144C732.005 154.86 734.077 155.644 736.709 156.092C738.837 156.456 740.825 156.484 740.825 158.136C740.825 159.48 739.593 160.04 737.689 160.04C735.981 160.04 733.993 159.564 732.425 158.556V161.188ZM746.286 143.492C746.286 144.472 747.07 145.256 748.05 145.256C749.03 145.256 749.814 144.472 749.814 143.492C749.814 142.512 749.03 141.728 748.05 141.728C747.07 141.728 746.286 142.512 746.286 143.492ZM746.79 162H749.31V148.224H746.79V162ZM755.835 161.02C756.731 162.056 757.963 162.308 758.971 162.308C759.923 162.308 760.903 162.084 761.463 161.804V159.424C760.931 159.76 760.119 160.012 759.391 160.012C757.571 160.012 757.319 158.444 757.319 156.736V150.492H761.463V148.224H757.319V144.052L754.799 144.472V148.224H752.251V150.492H754.799V157.212C754.799 159.144 755.163 160.264 755.835 161.02ZM782.04 158.668C781.004 159.48 779.632 160.012 778.064 160.012C775.096 160.012 772.996 158.024 772.996 155.196C772.996 152.424 774.984 150.212 777.98 150.212C779.324 150.212 780.668 150.66 781.816 151.388V148.784C780.836 148.28 779.52 147.916 778.092 147.916C773.808 147.916 770.448 150.94 770.448 155.196C770.448 159.284 773.556 162.308 777.924 162.308C779.324 162.308 780.864 162 782.04 161.356V158.668ZM786.737 160.768C787.661 161.832 789.089 162.308 790.489 162.308C792.393 162.308 794.045 161.44 795.249 160.236L795.305 160.264V162H797.825V148.224H795.305V157.632C794.325 158.864 792.701 159.984 790.993 159.984C790.181 159.984 789.369 159.732 788.809 159.032C788.333 158.472 788.137 157.688 788.137 156.176V148.224H785.617V156.652C785.617 158.612 785.953 159.844 786.737 160.768ZM802.243 162H804.763V153.04C805.631 151.556 806.947 150.604 808.823 150.604C809.131 150.604 809.467 150.632 809.803 150.716V148.224C809.495 148.14 809.187 148.112 808.907 148.112C807.283 148.112 805.771 148.924 804.819 150.268L804.763 150.24V148.224H802.243V162ZM812.133 161.188C813.561 161.944 815.521 162.308 817.285 162.308C820.225 162.308 823.081 161.104 823.081 157.912C823.081 155.056 820.897 154.328 818.265 153.88C816.221 153.516 814.261 153.516 814.261 151.948C814.261 150.716 815.493 150.184 817.257 150.184C818.853 150.184 820.757 150.632 822.297 151.528V149.008C820.925 148.28 819.021 147.916 817.369 147.916C814.177 147.916 811.741 149.288 811.713 152.144C811.713 154.86 813.785 155.644 816.417 156.092C818.544 156.456 820.533 156.484 820.533 158.136C820.533 159.48 819.301 160.04 817.397 160.04C815.689 160.04 813.701 159.564 812.133 158.556V161.188ZM827.561 160.768C828.485 161.832 829.913 162.308 831.313 162.308C833.217 162.308 834.869 161.44 836.073 160.236L836.129 160.264V162H838.649V148.224H836.129V157.632C835.149 158.864 833.525 159.984 831.817 159.984C831.005 159.984 830.193 159.732 829.633 159.032C829.157 158.472 828.961 157.688 828.961 156.176V148.224H826.441V156.652C826.441 158.612 826.777 159.844 827.561 160.768ZM842.675 161.188C844.103 161.944 846.063 162.308 847.827 162.308C850.767 162.308 853.623 161.104 853.623 157.912C853.623 155.056 851.439 154.328 848.807 153.88C846.763 153.516 844.803 153.516 844.803 151.948C844.803 150.716 846.035 150.184 847.799 150.184C849.395 150.184 851.299 150.632 852.839 151.528V149.008C851.467 148.28 849.563 147.916 847.911 147.916C844.719 147.916 842.283 149.288 842.255 152.144C842.255 154.86 844.327 155.644 846.959 156.092C849.087 156.456 851.075 156.484 851.075 158.136C851.075 159.48 849.843 160.04 847.939 160.04C846.231 160.04 844.243 159.564 842.675 158.556V161.188ZM61.708 185.492C61.708 186.472 62.492 187.256 63.472 187.256C64.452 187.256 65.236 186.472 65.236 185.492C65.236 184.512 64.452 183.728 63.472 183.728C62.492 183.728 61.708 184.512 61.708 185.492ZM62.212 204H64.732V190.224H62.212V204ZM69.1573 204H71.6773V194.564C72.6573 193.248 74.4213 192.268 75.9893 192.268C76.7453 192.268 77.6413 192.492 78.2013 193.164C78.6493 193.696 78.8453 194.536 78.8453 195.964V204H81.3653V195.488C81.3653 193.36 80.9733 192.296 80.2173 191.428C79.3493 190.448 78.0613 189.916 76.5493 189.916C74.6173 189.916 72.9373 190.784 71.7333 191.988L71.6773 191.96V190.224H69.1573V204ZM87.8276 203.02C88.7236 204.056 89.9556 204.308 90.9636 204.308C91.9156 204.308 92.8956 204.084 93.4556 203.804V201.424C92.9236 201.76 92.1116 202.012 91.3836 202.012C89.5636 202.012 89.3116 200.444 89.3116 198.736V192.492H93.4556V190.224H89.3116V186.052L86.7916 186.472V190.224H84.2436V192.492H86.7916V199.212C86.7916 201.144 87.1556 202.264 87.8276 203.02ZM108.378 197.84C108.434 197.504 108.462 197 108.462 196.58C108.462 192.268 105.55 189.916 102.19 189.916C98.4943 189.916 95.3303 192.772 95.3303 197.112C95.3303 201.452 98.5223 204.308 102.778 204.308C104.57 204.308 106.474 203.804 107.706 203.02V200.332C106.446 201.284 104.85 202.04 102.946 202.04C100.23 202.04 98.2143 200.556 97.8503 197.84H108.378ZM102.134 192.184C103.786 192.184 105.802 193.108 106.026 195.852H97.9063C98.3543 193.304 100.314 192.184 102.134 192.184ZM112.06 204H114.58V195.04C115.448 193.556 116.764 192.604 118.64 192.604C118.948 192.604 119.284 192.632 119.62 192.716V190.224C119.312 190.14 119.004 190.112 118.724 190.112C117.1 190.112 115.588 190.924 114.636 192.268L114.58 192.24V190.224H112.06V204ZM121.117 197.336C121.117 201.592 124.141 204.308 127.865 204.308C129.517 204.308 130.805 203.776 131.729 203.132L131.785 203.16V204H134.305V182.608H131.785V190.616L131.729 190.644C130.833 190.252 129.797 189.916 128.425 189.916C124.085 189.916 121.117 193.108 121.117 197.336ZM123.665 197.196C123.665 194.368 125.485 192.156 128.397 192.156C129.629 192.156 130.861 192.548 131.785 193.024V200.892C130.805 201.564 129.573 202.068 128.201 202.068C125.373 202.068 123.665 199.94 123.665 197.196ZM139.784 202.768C140.708 203.832 142.136 204.308 143.536 204.308C145.44 204.308 147.092 203.44 148.296 202.236L148.352 202.264V204H150.872V190.224H148.352V199.632C147.372 200.864 145.748 201.984 144.04 201.984C143.228 201.984 142.416 201.732 141.856 201.032C141.38 200.472 141.184 199.688 141.184 198.176V190.224H138.664V198.652C138.664 200.612 139 201.844 139.784 202.768ZM174.246 204H176.766V195.404C176.766 193.528 176.458 192.296 175.618 191.372C174.778 190.42 173.49 189.916 172.006 189.916C170.102 189.916 168.422 190.728 166.77 192.296C165.93 190.644 164.25 189.916 162.542 189.916C160.638 189.916 159.014 190.784 157.866 191.932L157.81 191.904V190.224H155.29V204H157.81V194.424C158.762 193.276 160.386 192.268 162.01 192.268C162.794 192.268 163.55 192.492 164.11 193.136C164.586 193.696 164.754 194.368 164.754 195.852V204H167.274V195.404C167.274 195.068 167.274 194.732 167.246 194.424C168.198 193.304 169.85 192.268 171.446 192.268C172.174 192.268 173.014 192.492 173.546 193.108C174.05 193.696 174.246 194.536 174.246 195.852V204ZM206.867 204H209.387V195.404C209.387 193.528 209.079 192.296 208.239 191.372C207.399 190.42 206.111 189.916 204.627 189.916C202.723 189.916 201.043 190.728 199.391 192.296C198.551 190.644 196.871 189.916 195.163 189.916C193.259 189.916 191.635 190.784 190.487 191.932L190.431 191.904V190.224H187.911V204H190.431V194.424C191.383 193.276 193.007 192.268 194.631 192.268C195.415 192.268 196.171 192.492 196.731 193.136C197.207 193.696 197.375 194.368 197.375 195.852V204H199.895V195.404C199.895 195.068 199.895 194.732 199.867 194.424C200.819 193.304 202.471 192.268 204.067 192.268C204.795 192.268 205.635 192.492 206.167 193.108C206.671 193.696 206.867 194.536 206.867 195.852V204ZM217.559 204.308C219.407 204.308 221.003 203.524 221.787 202.796H221.843C222.375 203.776 223.411 204.252 224.503 204.252C225.035 204.252 225.511 204.14 225.847 204V201.9C225.623 202.012 225.315 202.096 225.035 202.096C224.279 202.096 223.971 201.48 223.971 200.64V194.788C223.971 193.08 223.411 191.904 222.599 191.176C221.619 190.28 220.163 189.916 218.483 189.916C216.439 189.916 214.955 190.448 213.891 191.092V193.556C214.927 192.8 216.383 192.184 218.119 192.184C219.295 192.184 220.135 192.464 220.667 192.94C221.199 193.444 221.451 194.2 221.451 195.208V196.356C220.555 196.132 219.575 195.992 218.511 195.992C217.083 195.992 215.683 196.244 214.647 196.916C213.555 197.616 212.827 198.736 212.827 200.276C212.827 201.62 213.387 202.656 214.283 203.328C215.207 204.028 216.439 204.308 217.559 204.308ZM218.007 202.068C216.523 202.068 215.375 201.396 215.375 200.052C215.375 198.428 217.055 197.924 218.763 197.924C219.631 197.924 220.695 198.064 221.451 198.288V200.864C220.611 201.536 219.323 202.068 218.007 202.068ZM240.749 197.84C240.805 197.504 240.833 197 240.833 196.58C240.833 192.268 237.921 189.916 234.561 189.916C230.865 189.916 227.701 192.772 227.701 197.112C227.701 201.452 230.893 204.308 235.149 204.308C236.941 204.308 238.845 203.804 240.077 203.02V200.332C238.817 201.284 237.221 202.04 235.317 202.04C232.601 202.04 230.585 200.556 230.221 197.84H240.749ZM234.505 192.184C236.157 192.184 238.173 193.108 238.397 195.852H230.277C230.725 193.304 232.685 192.184 234.505 192.184ZM255.071 200.668C254.035 201.48 252.663 202.012 251.095 202.012C248.127 202.012 246.027 200.024 246.027 197.196C246.027 194.424 248.015 192.212 251.011 192.212C252.355 192.212 253.699 192.66 254.847 193.388V190.784C253.867 190.28 252.551 189.916 251.123 189.916C246.839 189.916 243.479 192.94 243.479 197.196C243.479 201.284 246.587 204.308 250.955 204.308C252.355 204.308 253.895 204 255.071 203.356V200.668ZM270.746 197.84C270.802 197.504 270.829 197 270.829 196.58C270.829 192.268 267.918 189.916 264.558 189.916C260.862 189.916 257.698 192.772 257.698 197.112C257.698 201.452 260.89 204.308 265.146 204.308C266.938 204.308 268.842 203.804 270.074 203.02V200.332C268.814 201.284 267.218 202.04 265.314 202.04C262.598 202.04 260.582 200.556 260.218 197.84H270.746ZM264.502 192.184C266.154 192.184 268.17 193.108 268.394 195.852H260.274C260.722 193.304 262.682 192.184 264.502 192.184ZM274.427 204H276.947V194.564C277.927 193.248 279.691 192.268 281.259 192.268C282.015 192.268 282.911 192.492 283.471 193.164C283.919 193.696 284.115 194.536 284.115 195.964V204H286.635V195.488C286.635 193.36 286.243 192.296 285.487 191.428C284.619 190.448 283.331 189.916 281.819 189.916C279.887 189.916 278.207 190.784 277.003 191.988L276.947 191.96V190.224H274.427V204ZM294.805 204.308C296.653 204.308 298.249 203.524 299.033 202.796H299.089C299.621 203.776 300.657 204.252 301.749 204.252C302.281 204.252 302.757 204.14 303.093 204V201.9C302.869 202.012 302.561 202.096 302.281 202.096C301.525 202.096 301.217 201.48 301.217 200.64V194.788C301.217 193.08 300.657 191.904 299.845 191.176C298.865 190.28 297.409 189.916 295.729 189.916C293.685 189.916 292.201 190.448 291.137 191.092V193.556C292.173 192.8 293.629 192.184 295.365 192.184C296.541 192.184 297.381 192.464 297.913 192.94C298.445 193.444 298.697 194.2 298.697 195.208V196.356C297.801 196.132 296.821 195.992 295.757 195.992C294.329 195.992 292.929 196.244 291.893 196.916C290.801 197.616 290.073 198.736 290.073 200.276C290.073 201.62 290.633 202.656 291.529 203.328C292.453 204.028 293.685 204.308 294.805 204.308ZM295.253 202.068C293.769 202.068 292.621 201.396 292.621 200.052C292.621 198.428 294.301 197.924 296.009 197.924C296.877 197.924 297.941 198.064 298.697 198.288V200.864C297.857 201.536 296.569 202.068 295.253 202.068ZM305.508 203.188C306.936 203.944 308.896 204.308 310.66 204.308C313.6 204.308 316.456 203.104 316.456 199.912C316.456 197.056 314.272 196.328 311.64 195.88C309.596 195.516 307.636 195.516 307.636 193.948C307.636 192.716 308.868 192.184 310.632 192.184C312.228 192.184 314.132 192.632 315.672 193.528V191.008C314.3 190.28 312.396 189.916 310.744 189.916C307.552 189.916 305.116 191.288 305.088 194.144C305.088 196.86 307.16 197.644 309.792 198.092C311.919 198.456 313.908 198.484 313.908 200.136C313.908 201.48 312.676 202.04 310.772 202.04C309.064 202.04 307.076 201.564 305.508 200.556V203.188ZM319.956 202.46C319.956 203.468 320.796 204.308 321.804 204.308C322.812 204.308 323.652 203.468 323.652 202.46C323.652 201.452 322.812 200.612 321.804 200.612C320.796 200.612 319.956 201.452 319.956 202.46Z" fill="#061436"/>
<rect x="60" y="234" width="123" height="44" rx="4" fill="white"/>
<path d="M77.271 263H81.141C82.527 263 83.643 262.838 84.543 262.496C86.199 261.866 87.027 260.678 87.027 259.076C87.027 257.474 86.199 256.394 84.543 255.908V255.872C85.731 255.44 86.505 254.63 86.505 253.226C86.505 252.146 86.037 251.264 85.029 250.706C84.147 250.22 82.833 249.968 81.069 249.968H77.271V263ZM80.133 255.368V252.416H81.015C81.771 252.416 82.563 252.47 83.031 252.74C83.517 253.01 83.643 253.46 83.643 253.874C83.643 254.936 82.815 255.368 81.645 255.368H80.133ZM80.133 260.552V257.33H81.843C83.373 257.33 84.165 257.852 84.165 258.986C84.165 259.562 83.967 260.048 83.355 260.3C82.923 260.48 82.221 260.552 81.195 260.552H80.133ZM94.5991 262.172V263H97.2991V254.144H94.5631V260.066C94.1311 260.48 93.4471 260.858 92.7631 260.858C92.3851 260.858 92.0251 260.732 91.7911 260.462C91.5571 260.21 91.4491 259.832 91.4491 259.184V254.144H88.7131V259.598C88.7131 260.912 88.9831 261.722 89.5591 262.316C90.0631 262.838 90.8371 263.198 91.8631 263.198C93.0151 263.198 93.8791 262.748 94.5631 262.154L94.5991 262.172ZM105.354 260.534C104.994 260.714 104.49 260.894 104.04 260.894C103.212 260.894 103.014 260.246 103.014 259.382V256.412H105.354V254.144H103.014V251.372L100.278 251.84V254.144H98.8375V256.412H100.278V259.67C100.278 261.074 100.584 261.812 101.052 262.316C101.61 262.91 102.456 263.198 103.356 263.198C104.13 263.198 104.94 262.982 105.354 262.712V260.534ZM112.736 260.534C112.376 260.714 111.872 260.894 111.422 260.894C110.594 260.894 110.396 260.246 110.396 259.382V256.412H112.736V254.144H110.396V251.372L107.66 251.84V254.144H106.22V256.412H107.66V259.67C107.66 261.074 107.966 261.812 108.434 262.316C108.992 262.91 109.838 263.198 110.738 263.198C111.512 263.198 112.322 262.982 112.736 262.712V260.534ZM116.415 258.572C116.415 257.312 117.369 256.304 118.611 256.304C119.853 256.304 120.807 257.312 120.807 258.572C120.807 259.832 119.853 260.84 118.611 260.84C117.369 260.84 116.415 259.832 116.415 258.572ZM113.679 258.572C113.679 261.182 115.785 263.198 118.611 263.198C121.437 263.198 123.543 261.182 123.543 258.572C123.543 255.962 121.437 253.946 118.611 253.946C115.785 253.946 113.679 255.962 113.679 258.572ZM125.258 263H127.994V257.042C128.48 256.664 129.146 256.304 129.848 256.304C130.226 256.304 130.55 256.412 130.784 256.682C131 256.934 131.09 257.258 131.09 257.924V263H133.826V257.474C133.826 256.196 133.592 255.422 133.052 254.846C132.494 254.27 131.666 253.946 130.73 253.946C129.614 253.946 128.678 254.414 127.994 254.972L127.958 254.954V254.144H125.258V263Z" fill="#1C3F94"/>
<mask id="mask0_347_22426" style="mask-type:alpha" maskUnits="userSpaceOnUse" x="143" y="244" width="24" height="24">
<rect x="143" y="244" width="24" height="24" fill="#D9D9D9"/>
</mask>
<g mask="url(#mask0_347_22426)">
<path d="M155 260L159 256L155 252L153.6 253.4L155.2 255H151V257H155.2L153.6 258.6L155 260ZM155 266C153.617 266 152.317 265.737 151.1 265.212C149.883 264.687 148.825 263.975 147.925 263.075C147.025 262.175 146.313 261.117 145.788 259.9C145.263 258.683 145 257.383 145 256C145 254.617 145.263 253.317 145.788 252.1C146.313 250.883 147.025 249.825 147.925 248.925C148.825 248.025 149.883 247.312 151.1 246.787C152.317 246.262 153.617 246 155 246C156.383 246 157.683 246.262 158.9 246.787C160.117 247.312 161.175 248.025 162.075 248.925C162.975 249.825 163.687 250.883 164.212 252.1C164.737 253.317 165 254.617 165 256C165 257.383 164.737 258.683 164.212 259.9C163.687 261.117 162.975 262.175 162.075 263.075C161.175 263.975 160.117 264.687 158.9 265.212C157.683 265.737 156.383 266 155 266ZM155 264C157.233 264 159.125 263.225 160.675 261.675C162.225 260.125 163 258.233 163 256C163 253.767 162.225 251.875 160.675 250.325C159.125 248.775 157.233 248 155 248C152.767 248 150.875 248.775 149.325 250.325C147.775 251.875 147 253.767 147 256C147 258.233 147.775 260.125 149.325 261.675C150.875 263.225 152.767 264 155 264Z" fill="#1C3F94"/>
</g>
</g>
<path d="M0 310H1025V318.857C706.396 318.857 542.396 378 344.229 378C146.062 378 0 310 0 310Z" fill="#FFC960"/>
</g>
<defs>
<clipPath id="clip0_347_22426">
<rect width="1025" height="378" fill="white"/>
</clipPath>
<clipPath id="clip1_347_22426">
<path d="M0 4C0 1.79086 1.79086 0 4 0H1021C1023.21 0 1025 1.79086 1025 4V310H0V4Z" fill="white"/>
</clipPath>
</defs>
</svg>
