<svg width="281" height="28" viewBox="0 0 281 28" fill="none" xmlns="http://www.w3.org/2000/svg">
<g clip-path="url(#clip0_378_24801)">
<path d="M0.686729 8.66136C49.365 22.7178 90.5953 24.1169 139.903 12.1562C162.941 6.94011 186.215 1.22967 210.011 0.218949C221.925 -0.323591 233.874 0.147345 245.676 1.57392C257.466 3.11203 269.112 5.47497 280.501 8.65448L280.351 9.22731C268.781 6.86162 257.145 4.89525 245.413 3.95063C221.958 1.70198 198.402 3.84047 175.386 8.51678C152.226 13.1008 129.357 19.7352 105.734 22.3364C82.068 25.1551 57.929 23.7051 34.6643 18.8388C23.0758 16.2707 11.6712 13.0526 0.5 9.22318L0.686729 8.66136Z" fill="#FBB040"/>
<path d="M23.1211 1.29227C42.5522 4.54062 62.088 6.88979 81.7836 6.48632C101.501 6.24673 120.92 3.1705 140.422 0.240234L140.596 0.985194C112.129 9.70989 81.6012 13.1455 51.9919 8.56285C42.1335 7.10735 32.408 4.93169 22.9343 2.03447L23.1211 1.29227Z" fill="#FBB040"/>
<path d="M140.63 27.2048C178.921 15.1849 218.714 8.30401 258.511 17.5492L258.374 18.3548C238.684 16.4683 218.963 16.1213 199.337 18.3878C179.673 20.5084 160.409 25.0649 140.817 28.002L140.63 27.2048Z" fill="#FBB040"/>
</g>
<defs>
<clipPath id="clip0_378_24801">
<rect width="280" height="28" fill="white" transform="translate(0.5)"/>
</clipPath>
</defs>
</svg>
