<svg width="1080" height="570" viewBox="0 0 1080 570" fill="none" xmlns="http://www.w3.org/2000/svg">
<path d="M2.64 40H9V29.64H11C15.24 29.64 18.12 29.16 20.36 27.84C22.8 26.4 24.52 23.84 24.52 20.28C24.52 16.36 22.36 13.88 19.84 12.56C17.56 11.36 14.68 11.04 11.24 11.04H2.64V40ZM9 24.48V16.6H11.16C13.4 16.6 14.96 16.68 16.12 17.2C17.44 17.8 18.16 18.96 18.16 20.6C18.16 22.04 17.52 23.12 16.36 23.76C15.28 24.36 13.84 24.48 11.32 24.48H9ZM32.2819 30.16C32.2819 27.36 34.4019 25.12 37.1619 25.12C39.9219 25.12 42.0419 27.36 42.0419 30.16C42.0419 32.96 39.9219 35.2 37.1619 35.2C34.4019 35.2 32.2819 32.96 32.2819 30.16ZM26.2019 30.16C26.2019 35.96 30.8819 40.44 37.1619 40.44C43.4419 40.44 48.1219 35.96 48.1219 30.16C48.1219 24.36 43.4419 19.88 37.1619 19.88C30.8819 19.88 26.2019 24.36 26.2019 30.16ZM58.0141 39.72L58.0941 39.68C59.0141 40.12 60.2941 40.44 61.8941 40.44C67.6541 40.44 72.1741 36.32 72.1741 30C72.1741 23.88 67.8941 19.88 62.8541 19.88C60.8941 19.88 59.2541 20.48 57.9741 21.36L57.8941 21.32V20.32H51.9341V48.8H58.0141V39.72ZM58.0141 34.76V26.04C58.8941 25.4 60.0541 24.96 61.2941 24.96C64.2941 24.96 66.0541 27.36 66.0541 30.32C66.0541 33.24 64.2941 35.52 61.1341 35.52C59.8941 35.52 58.7741 35.16 58.0141 34.76ZM89.1547 38.16V40H95.1547V20.32H89.0747V33.48C88.1147 34.4 86.5947 35.24 85.0747 35.24C84.2347 35.24 83.4347 34.96 82.9147 34.36C82.3947 33.8 82.1547 32.96 82.1547 31.52V20.32H76.0747V32.44C76.0747 35.36 76.6747 37.16 77.9547 38.48C79.0747 39.64 80.7947 40.44 83.0747 40.44C85.6347 40.44 87.5547 39.44 89.0747 38.12L89.1547 38.16ZM100.293 40H106.373V9.44H100.293V40ZM122.586 38.8C123.666 39.92 125.226 40.36 126.826 40.36C127.986 40.36 129.066 40.12 129.746 39.76V35.2C129.426 35.36 129.066 35.44 128.746 35.44C127.906 35.44 127.546 34.8 127.546 33.88V27.2C127.546 24.72 126.826 22.96 125.346 21.76C123.786 20.48 121.426 19.88 118.786 19.88C115.906 19.88 113.506 20.6 111.906 21.4V26.64C113.466 25.8 115.466 25.08 117.666 25.08C119.106 25.08 120.146 25.4 120.706 25.92C121.146 26.32 121.466 27.04 121.466 28V28.76C120.386 28.52 119.226 28.4 118.066 28.4C116.026 28.4 114.066 28.76 112.546 29.8C111.146 30.76 110.146 32.4 110.146 34.56C110.146 36.6 111.026 38.16 112.466 39.16C113.746 40.04 115.346 40.44 117.026 40.44C119.266 40.44 121.226 39.72 122.506 38.8H122.586ZM121.466 35.16C120.746 35.6 119.746 35.96 118.706 35.96C117.306 35.96 116.186 35.28 116.186 34C116.186 32.48 117.746 32 119.306 32C119.946 32 120.826 32.08 121.466 32.28V35.16ZM132.911 40H138.991V28.08C140.431 26.4 142.191 25.76 144.311 25.76C144.871 25.76 145.471 25.84 145.951 25.96V20.24C145.511 20.12 145.071 20.08 144.671 20.08C142.231 20.08 140.311 21.08 138.951 23L138.871 22.96V20.32H132.911V40ZM158.218 38.32C160.938 39.72 164.498 40.44 167.378 40.44C173.618 40.44 177.898 37.04 177.898 31.4C177.898 26.28 174.378 24.24 170.018 22.8C166.538 21.64 163.858 21.44 163.858 18.88C163.858 16.96 165.418 16.16 167.578 16.16C169.818 16.16 173.378 17.04 176.458 18.96V12.68C173.938 11.32 170.458 10.6 167.618 10.6C161.538 10.6 157.458 13.96 157.458 19.36C157.458 24.4 161.058 26.36 165.058 27.68C168.778 28.88 171.498 29.12 171.498 31.8C171.498 33.96 169.778 34.88 167.458 34.88C165.178 34.88 161.298 33.96 158.218 31.88V38.32ZM199.864 31.76C199.944 31.24 199.984 30.36 199.984 29.68C199.984 23.08 195.424 19.88 190.584 19.88C185.144 19.88 180.264 23.96 180.264 30.24C180.264 36.4 184.944 40.44 191.424 40.44C194.024 40.44 196.984 39.84 198.904 38.64V33.56C196.824 34.96 194.424 35.72 192.224 35.72C189.424 35.72 187.184 34.48 186.504 31.76H199.864ZM186.464 27.92C186.984 25.68 188.624 24.52 190.504 24.52C192.464 24.52 194.024 25.8 194.384 27.92H186.464ZM203.926 40H210.006V28.08C211.446 26.4 213.206 25.76 215.326 25.76C215.886 25.76 216.486 25.84 216.966 25.96V20.24C216.526 20.12 216.086 20.08 215.686 20.08C213.246 20.08 211.326 21.08 209.966 23L209.886 22.96V20.32H203.926V40ZM226.092 40H231.892L239.892 20.32H233.892L231.452 26.6C230.652 28.64 229.812 30.88 229.092 32.88H229.012C228.332 30.88 227.572 28.72 226.812 26.64L224.492 20.32H218.092L226.092 40ZM242.157 14.08C242.157 16 243.757 17.56 245.677 17.56C247.597 17.56 249.197 16 249.197 14.08C249.197 12.16 247.597 10.6 245.677 10.6C243.757 10.6 242.157 12.16 242.157 14.08ZM242.637 40H248.717V20.32H242.637V40ZM269.97 33.32C268.33 34.56 266.13 35.28 264.21 35.28C260.93 35.28 258.65 33.16 258.65 30.16C258.65 27.2 260.89 25 264.13 25C266.01 25 267.93 25.72 269.69 26.84V21.2C268.09 20.4 266.05 19.88 263.85 19.88C257.69 19.88 252.57 24 252.57 30.2C252.57 36.12 257.21 40.44 263.53 40.44C265.77 40.44 268.09 39.96 269.97 38.92V33.32ZM292.482 31.76C292.562 31.24 292.602 30.36 292.602 29.68C292.602 23.08 288.042 19.88 283.202 19.88C277.762 19.88 272.882 23.96 272.882 30.24C272.882 36.4 277.562 40.44 284.042 40.44C286.642 40.44 289.602 39.84 291.522 38.64V33.56C289.442 34.96 287.042 35.72 284.842 35.72C282.042 35.72 279.802 34.48 279.122 31.76H292.482ZM279.082 27.92C279.602 25.68 281.242 24.52 283.122 24.52C285.082 24.52 286.642 25.8 287.002 27.92H279.082ZM295.983 38.8C298.343 39.96 301.383 40.44 303.743 40.44C308.783 40.44 312.543 38.08 312.583 33.76C312.583 30.36 310.303 28.92 306.543 28C303.623 27.28 301.503 27.4 301.503 25.96C301.503 25.04 302.463 24.56 304.063 24.56C305.823 24.56 308.863 25.2 311.463 26.68V21.44C309.223 20.36 306.303 19.88 303.943 19.88C299.063 19.88 295.383 22.24 295.343 26.4C295.343 29.64 297.543 31.2 301.263 32.12C304.223 32.88 306.423 32.72 306.423 34.24C306.423 35.32 305.423 35.76 303.743 35.76C301.863 35.76 298.703 35.08 295.983 33.48V38.8Z" fill="#061436"/>
<rect x="120" y="110" width="48" height="48" rx="24" fill="#FBB040"/>
<mask id="mask0_459_34926" style="mask-type:alpha" maskUnits="userSpaceOnUse" x="130" y="120" width="28" height="28">
<rect x="130" y="120" width="28" height="28" fill="#D9D9D9"/>
</mask>
<g mask="url(#mask0_459_34926)">
<path d="M137.583 138.666C138.497 138.666 139.387 138.768 140.253 138.972C141.118 139.176 141.978 139.483 142.833 139.891V128.399C142.036 127.933 141.19 127.583 140.296 127.349C139.401 127.116 138.497 126.999 137.583 126.999C136.883 126.999 136.188 127.067 135.498 127.204C134.808 127.34 134.142 127.544 133.5 127.816V139.366C134.181 139.133 134.856 138.958 135.528 138.841C136.198 138.724 136.883 138.666 137.583 138.666ZM145.167 139.891C146.022 139.483 146.883 139.176 147.748 138.972C148.613 138.768 149.503 138.666 150.417 138.666C151.117 138.666 151.802 138.724 152.473 138.841C153.144 138.958 153.819 139.133 154.5 139.366V127.816C153.858 127.544 153.193 127.34 152.503 127.204C151.812 127.067 151.117 126.999 150.417 126.999C149.503 126.999 148.599 127.116 147.704 127.349C146.81 127.583 145.964 127.933 145.167 128.399V139.891ZM144 143.333C143.067 142.594 142.056 142.02 140.967 141.612C139.878 141.204 138.75 140.999 137.583 140.999C136.767 140.999 135.965 141.106 135.178 141.32C134.39 141.534 133.636 141.835 132.917 142.224C132.508 142.438 132.115 142.429 131.736 142.195C131.356 141.962 131.167 141.622 131.167 141.174V127.116C131.167 126.902 131.22 126.698 131.328 126.504C131.434 126.309 131.594 126.163 131.808 126.066C132.703 125.599 133.636 125.249 134.608 125.016C135.581 124.783 136.572 124.666 137.583 124.666C138.711 124.666 139.815 124.812 140.894 125.104C141.973 125.395 143.008 125.833 144 126.416C144.992 125.833 146.027 125.395 147.107 125.104C148.186 124.812 149.289 124.666 150.417 124.666C151.428 124.666 152.419 124.783 153.392 125.016C154.364 125.249 155.297 125.599 156.192 126.066C156.406 126.163 156.566 126.309 156.673 126.504C156.78 126.698 156.833 126.902 156.833 127.116V141.174C156.833 141.622 156.644 141.962 156.265 142.195C155.886 142.429 155.492 142.438 155.083 142.224C154.364 141.835 153.61 141.534 152.822 141.32C152.035 141.106 151.233 140.999 150.417 140.999C149.25 140.999 148.122 141.204 147.033 141.612C145.944 142.02 144.933 142.594 144 143.333Z" fill="#061436"/>
</g>
<path d="M56.0877 194H66.5597V190.942H59.5857V178.072H56.0877V194ZM67.9609 179.744C67.9609 180.8 68.8409 181.658 69.8969 181.658C70.9529 181.658 71.8329 180.8 71.8329 179.744C71.8329 178.688 70.9529 177.83 69.8969 177.83C68.8409 177.83 67.9609 178.688 67.9609 179.744ZM68.2249 194H71.5689V183.176H68.2249V194ZM74.3479 194.132L76.9659 193.692C77.7139 194 78.5939 194.242 79.6499 194.242C83.0159 194.242 85.5019 191.822 85.5019 188.39C85.5019 185.024 83.0819 182.934 80.3979 182.934C79.3639 182.934 78.3959 183.242 77.7359 183.682L77.6919 183.66V177.192H74.3479V194.132ZM77.6919 191.118V186.256C78.1759 185.97 78.8139 185.728 79.5399 185.728C81.1899 185.728 82.1359 186.96 82.1359 188.544C82.1359 190.128 81.2119 191.536 79.4079 191.536C78.7919 191.536 78.1319 191.36 77.6919 191.118ZM87.6682 194H91.0122V187.444C91.8042 186.52 92.7722 186.168 93.9382 186.168C94.2462 186.168 94.5762 186.212 94.8402 186.278V183.132C94.5982 183.066 94.3562 183.044 94.1362 183.044C92.7942 183.044 91.7382 183.594 90.9902 184.65L90.9462 184.628V183.176H87.6682V194ZM102.164 193.34C102.758 193.956 103.616 194.198 104.496 194.198C105.134 194.198 105.728 194.066 106.102 193.868V191.36C105.926 191.448 105.728 191.492 105.552 191.492C105.09 191.492 104.892 191.14 104.892 190.634V186.96C104.892 185.596 104.496 184.628 103.682 183.968C102.824 183.264 101.526 182.934 100.074 182.934C98.4896 182.934 97.1696 183.33 96.2896 183.77V186.652C97.1476 186.19 98.2476 185.794 99.4576 185.794C100.25 185.794 100.822 185.97 101.13 186.256C101.372 186.476 101.548 186.872 101.548 187.4V187.818C100.954 187.686 100.316 187.62 99.6776 187.62C98.5556 187.62 97.4776 187.818 96.6416 188.39C95.8716 188.918 95.3216 189.82 95.3216 191.008C95.3216 192.13 95.8056 192.988 96.5976 193.538C97.3016 194.022 98.1816 194.242 99.1056 194.242C100.338 194.242 101.416 193.846 102.12 193.34H102.164ZM101.548 191.338C101.152 191.58 100.602 191.778 100.03 191.778C99.2596 191.778 98.6436 191.404 98.6436 190.7C98.6436 189.864 99.5016 189.6 100.36 189.6C100.712 189.6 101.196 189.644 101.548 189.754V191.338ZM107.842 194H111.186V187.444C111.978 186.52 112.946 186.168 114.112 186.168C114.42 186.168 114.75 186.212 115.014 186.278V183.132C114.772 183.066 114.53 183.044 114.31 183.044C112.968 183.044 111.912 183.594 111.164 184.65L111.12 184.628V183.176H107.842V194ZM120.605 198.84L127.645 183.176H124.323L123.179 185.794C122.673 186.96 122.189 188.104 121.705 189.292H121.661C121.221 188.17 120.759 187.026 120.275 185.86L119.153 183.176H115.633L120.033 192.812L117.195 198.84H120.605ZM134.441 194H137.939V188.302H139.039C141.371 188.302 142.955 188.038 144.187 187.312C145.529 186.52 146.475 185.112 146.475 183.154C146.475 180.998 145.287 179.634 143.901 178.908C142.647 178.248 141.063 178.072 139.171 178.072H134.441V194ZM137.939 185.464V181.13H139.127C140.359 181.13 141.217 181.174 141.855 181.46C142.581 181.79 142.977 182.428 142.977 183.33C142.977 184.122 142.625 184.716 141.987 185.068C141.393 185.398 140.601 185.464 139.215 185.464H137.939ZM148.276 194H151.62V187.444C152.412 186.52 153.38 186.168 154.546 186.168C154.854 186.168 155.184 186.212 155.448 186.278V183.132C155.206 183.066 154.964 183.044 154.744 183.044C153.402 183.044 152.346 183.594 151.598 184.65L151.554 184.628V183.176H148.276V194ZM159.66 188.588C159.66 187.048 160.826 185.816 162.344 185.816C163.862 185.816 165.028 187.048 165.028 188.588C165.028 190.128 163.862 191.36 162.344 191.36C160.826 191.36 159.66 190.128 159.66 188.588ZM156.316 188.588C156.316 191.778 158.89 194.242 162.344 194.242C165.798 194.242 168.372 191.778 168.372 188.588C168.372 185.398 165.798 182.934 162.344 182.934C158.89 182.934 156.316 185.398 156.316 188.588ZM171.349 198.29C172.295 198.752 173.659 199.082 175.045 199.082C178.499 199.082 180.831 197.19 180.831 193.78V183.088L178.213 183.55C177.443 183.176 176.541 182.934 175.507 182.934C172.141 182.934 169.875 185.42 169.875 188.588C169.875 191.866 172.295 193.89 174.913 193.89C175.815 193.89 176.805 193.626 177.443 193.164L177.487 193.186V193.78C177.487 195.386 176.475 196.222 174.847 196.222C173.703 196.222 172.449 195.804 171.349 195.122V198.29ZM177.487 190.7C177.025 190.986 176.387 191.162 175.793 191.162C174.231 191.162 173.263 190.04 173.263 188.456C173.263 187.048 174.099 185.772 175.837 185.772C176.431 185.772 177.069 185.948 177.487 186.168V190.7ZM183.639 194H186.983V187.444C187.775 186.52 188.743 186.168 189.909 186.168C190.217 186.168 190.547 186.212 190.811 186.278V183.132C190.569 183.066 190.327 183.044 190.107 183.044C188.765 183.044 187.709 183.594 186.961 184.65L186.917 184.628V183.176H183.639V194ZM198.134 193.34C198.728 193.956 199.586 194.198 200.466 194.198C201.104 194.198 201.698 194.066 202.072 193.868V191.36C201.896 191.448 201.698 191.492 201.522 191.492C201.06 191.492 200.862 191.14 200.862 190.634V186.96C200.862 185.596 200.466 184.628 199.652 183.968C198.794 183.264 197.496 182.934 196.044 182.934C194.46 182.934 193.14 183.33 192.26 183.77V186.652C193.118 186.19 194.218 185.794 195.428 185.794C196.22 185.794 196.792 185.97 197.1 186.256C197.342 186.476 197.518 186.872 197.518 187.4V187.818C196.924 187.686 196.286 187.62 195.648 187.62C194.526 187.62 193.448 187.818 192.612 188.39C191.842 188.918 191.292 189.82 191.292 191.008C191.292 192.13 191.776 192.988 192.568 193.538C193.272 194.022 194.152 194.242 195.076 194.242C196.308 194.242 197.386 193.846 198.09 193.34H198.134ZM197.518 191.338C197.122 191.58 196.572 191.778 196 191.778C195.23 191.778 194.614 191.404 194.614 190.7C194.614 189.864 195.472 189.6 196.33 189.6C196.682 189.6 197.166 189.644 197.518 189.754V191.338ZM217.805 194H221.149V187.202C221.149 185.662 220.841 184.716 220.159 184.012C219.521 183.352 218.575 182.934 217.365 182.934C216.001 182.934 214.725 183.44 213.559 184.474C212.921 183.396 211.579 182.934 210.413 182.934C209.093 182.934 207.993 183.462 207.157 184.166L207.113 184.144V183.176H203.813V194H207.157V186.696C207.707 186.234 208.499 185.816 209.269 185.816C209.709 185.816 210.105 185.948 210.413 186.278C210.699 186.586 210.809 187.026 210.809 187.752V194H214.153V187.202C214.153 187.048 214.153 186.872 214.131 186.718C214.703 186.212 215.495 185.816 216.265 185.816C216.705 185.816 217.101 185.948 217.409 186.278C217.673 186.564 217.805 186.938 217.805 187.752V194ZM223.571 193.34C224.869 193.978 226.541 194.242 227.839 194.242C230.611 194.242 232.679 192.944 232.701 190.568C232.701 188.698 231.447 187.906 229.379 187.4C227.773 187.004 226.607 187.07 226.607 186.278C226.607 185.772 227.135 185.508 228.015 185.508C228.983 185.508 230.655 185.86 232.085 186.674V183.792C230.853 183.198 229.247 182.934 227.949 182.934C225.265 182.934 223.241 184.232 223.219 186.52C223.219 188.302 224.429 189.16 226.475 189.666C228.103 190.084 229.313 189.996 229.313 190.832C229.313 191.426 228.763 191.668 227.839 191.668C226.805 191.668 225.067 191.294 223.571 190.414V193.34Z" fill="#1C3F94"/>
<rect x="384" y="110" width="48" height="48" rx="24" fill="#FBB040"/>
<mask id="mask1_459_34926" style="mask-type:alpha" maskUnits="userSpaceOnUse" x="394" y="120" width="28" height="28">
<rect x="394" y="120" width="28" height="28" fill="#D9D9D9"/>
</mask>
<g mask="url(#mask1_459_34926)">
<path d="M399.25 132.833C398.744 132.833 398.326 132.668 397.996 132.337C397.665 132.007 397.5 131.589 397.5 131.083C397.5 130.578 397.665 130.16 397.996 129.829C398.326 129.499 398.744 129.333 399.25 129.333C399.756 129.333 400.174 129.499 400.504 129.829C400.835 130.16 401 130.578 401 131.083C401 131.589 400.835 132.007 400.504 132.337C400.174 132.668 399.756 132.833 399.25 132.833ZM397.5 145.667V139.833H396.333V135.167C396.333 134.836 396.445 134.559 396.669 134.335C396.893 134.112 397.169 134 397.5 134H401C401.331 134 401.608 134.112 401.832 134.335C402.055 134.559 402.167 134.836 402.167 135.167V139.833H401V143.333H410.333V137.5H408.292C406.911 137.5 405.74 137.019 404.778 136.056C403.815 135.094 403.333 133.922 403.333 132.542C403.333 131.511 403.611 130.592 404.165 129.785C404.719 128.978 405.433 128.381 406.308 127.992C406.522 126.728 407.11 125.663 408.072 124.797C409.035 123.932 410.178 123.5 411.5 123.5C412.822 123.5 413.965 123.932 414.928 124.797C415.89 125.663 416.478 126.728 416.692 127.992C417.567 128.381 418.281 128.978 418.836 129.785C419.39 130.592 419.667 131.511 419.667 132.542C419.667 133.922 419.186 135.094 418.224 136.056C417.261 137.019 416.089 137.5 414.708 137.5H412.667V143.333H418.5V145.667H397.5ZM408.292 135.167H414.708C415.447 135.167 416.069 134.914 416.575 134.408C417.081 133.903 417.333 133.281 417.333 132.542C417.333 132.017 417.193 131.54 416.911 131.112C416.629 130.685 416.244 130.364 415.758 130.15L414.533 129.625L414.358 128.342C414.242 127.622 413.916 127.024 413.382 126.547C412.847 126.071 412.219 125.833 411.5 125.833C410.781 125.833 410.154 126.071 409.619 126.547C409.084 127.024 408.758 127.622 408.642 128.342L408.467 129.625L407.242 130.15C406.756 130.364 406.372 130.685 406.09 131.112C405.808 131.54 405.667 132.017 405.667 132.542C405.667 133.281 405.919 133.903 406.425 134.408C406.931 134.914 407.553 135.167 408.292 135.167Z" fill="#061436"/>
</g>
<path d="M311.515 194H315.013V188.302H316.113C318.445 188.302 320.029 188.038 321.261 187.312C322.603 186.52 323.549 185.112 323.549 183.154C323.549 180.998 322.361 179.634 320.975 178.908C319.721 178.248 318.137 178.072 316.245 178.072H311.515V194ZM315.013 185.464V181.13H316.201C317.433 181.13 318.291 181.174 318.929 181.46C319.655 181.79 320.051 182.428 320.051 183.33C320.051 184.122 319.699 184.716 319.061 185.068C318.467 185.398 317.675 185.464 316.289 185.464H315.013ZM331.252 193.34C331.846 193.956 332.704 194.198 333.584 194.198C334.222 194.198 334.816 194.066 335.19 193.868V191.36C335.014 191.448 334.816 191.492 334.64 191.492C334.178 191.492 333.98 191.14 333.98 190.634V186.96C333.98 185.596 333.584 184.628 332.77 183.968C331.912 183.264 330.614 182.934 329.162 182.934C327.578 182.934 326.258 183.33 325.378 183.77V186.652C326.236 186.19 327.336 185.794 328.546 185.794C329.338 185.794 329.91 185.97 330.218 186.256C330.46 186.476 330.636 186.872 330.636 187.4V187.818C330.042 187.686 329.404 187.62 328.766 187.62C327.644 187.62 326.566 187.818 325.73 188.39C324.96 188.918 324.41 189.82 324.41 191.008C324.41 192.13 324.894 192.988 325.686 193.538C326.39 194.022 327.27 194.242 328.194 194.242C329.426 194.242 330.504 193.846 331.208 193.34H331.252ZM330.636 191.338C330.24 191.58 329.69 191.778 329.118 191.778C328.348 191.778 327.732 191.404 327.732 190.7C327.732 189.864 328.59 189.6 329.448 189.6C329.8 189.6 330.284 189.644 330.636 189.754V191.338ZM336.93 194H340.274V187.444C341.066 186.52 342.034 186.168 343.2 186.168C343.508 186.168 343.838 186.212 344.102 186.278V183.132C343.86 183.066 343.618 183.044 343.398 183.044C342.056 183.044 341 183.594 340.252 184.65L340.208 184.628V183.176H336.93V194ZM345.76 194H349.104V188.5L349.148 188.478L353.086 194H357.046L352.602 188.016L356.738 183.176H352.932L349.148 187.774L349.104 187.752V177.192H345.76V194ZM357.977 193.34C359.275 193.978 360.947 194.242 362.245 194.242C365.017 194.242 367.085 192.944 367.107 190.568C367.107 188.698 365.853 187.906 363.785 187.4C362.179 187.004 361.013 187.07 361.013 186.278C361.013 185.772 361.541 185.508 362.421 185.508C363.389 185.508 365.061 185.86 366.491 186.674V183.792C365.259 183.198 363.653 182.934 362.355 182.934C359.671 182.934 357.647 184.232 357.625 186.52C357.625 188.302 358.835 189.16 360.881 189.666C362.509 190.084 363.719 189.996 363.719 190.832C363.719 191.426 363.169 191.668 362.245 191.668C361.211 191.668 359.473 191.294 357.977 190.414V193.34ZM384.849 184.452L383.419 188.016L381.417 185.948L382.055 185.53C383.265 184.738 384.321 183.484 384.321 181.856C384.321 179.656 382.429 177.808 379.635 177.808C376.863 177.808 374.927 179.59 374.927 181.856C374.927 183.22 375.631 184.342 376.511 185.244L376.709 185.442C374.993 186.3 373.761 187.686 373.761 189.556C373.761 191.844 375.565 194.242 379.591 194.242C381.593 194.242 383.023 193.67 383.969 192.812L385.157 194H389.271L389.293 193.956L385.729 190.348L388.237 184.452H384.849ZM378.667 187.444L381.769 190.568C381.351 191.074 380.691 191.404 379.679 191.404C377.831 191.404 377.127 190.326 377.127 189.424C377.127 188.808 377.457 188.016 378.381 187.576L378.667 187.444ZM379.459 183.968L379.019 183.506C378.469 182.934 378.227 182.494 378.227 181.988C378.227 181.262 378.733 180.668 379.613 180.668C380.427 180.668 381.021 181.218 381.021 182.01C381.021 182.626 380.669 183.066 380.053 183.528L379.459 183.968ZM395.326 194H398.824V187.708H400.386L404.412 194H408.438L403.95 187.268C406.062 186.586 407.184 184.914 407.184 182.868C407.184 181.042 406.436 179.854 405.27 179.128C403.994 178.336 402.212 178.072 400.32 178.072H395.326V194ZM398.824 185.09V181.13H400.166C401.376 181.13 402.234 181.262 402.784 181.548C403.422 181.878 403.686 182.362 403.686 183.11C403.686 183.88 403.378 184.408 402.784 184.716C402.256 184.98 401.53 185.09 400.584 185.09H398.824ZM419.151 189.468C419.195 189.182 419.217 188.698 419.217 188.324C419.217 184.694 416.709 182.934 414.047 182.934C411.055 182.934 408.371 185.178 408.371 188.632C408.371 192.02 410.945 194.242 414.509 194.242C415.939 194.242 417.567 193.912 418.623 193.252V190.458C417.479 191.228 416.159 191.646 414.949 191.646C413.409 191.646 412.177 190.964 411.803 189.468H419.151ZM411.781 187.356C412.067 186.124 412.969 185.486 414.003 185.486C415.081 185.486 415.939 186.19 416.137 187.356H411.781ZM430.295 190.326C429.393 191.008 428.183 191.404 427.127 191.404C425.323 191.404 424.069 190.238 424.069 188.588C424.069 186.96 425.301 185.75 427.083 185.75C428.117 185.75 429.173 186.146 430.141 186.762V183.66C429.261 183.22 428.139 182.934 426.929 182.934C423.541 182.934 420.725 185.2 420.725 188.61C420.725 191.866 423.277 194.242 426.753 194.242C427.985 194.242 429.261 193.978 430.295 193.406V190.326ZM432.643 194H435.987V187.444C436.779 186.52 437.747 186.168 438.913 186.168C439.221 186.168 439.551 186.212 439.815 186.278V183.132C439.573 183.066 439.331 183.044 439.111 183.044C437.769 183.044 436.713 183.594 435.965 184.65L435.921 184.628V183.176H432.643V194ZM451.463 189.468C451.507 189.182 451.529 188.698 451.529 188.324C451.529 184.694 449.021 182.934 446.359 182.934C443.367 182.934 440.683 185.178 440.683 188.632C440.683 192.02 443.257 194.242 446.821 194.242C448.251 194.242 449.879 193.912 450.935 193.252V190.458C449.791 191.228 448.471 191.646 447.261 191.646C445.721 191.646 444.489 190.964 444.115 189.468H451.463ZM444.093 187.356C444.379 186.124 445.281 185.486 446.315 185.486C447.393 185.486 448.251 186.19 448.449 187.356H444.093ZM459.836 193.34C460.43 193.956 461.288 194.198 462.168 194.198C462.806 194.198 463.4 194.066 463.774 193.868V191.36C463.598 191.448 463.4 191.492 463.224 191.492C462.762 191.492 462.564 191.14 462.564 190.634V186.96C462.564 185.596 462.168 184.628 461.354 183.968C460.496 183.264 459.198 182.934 457.746 182.934C456.162 182.934 454.842 183.33 453.962 183.77V186.652C454.82 186.19 455.92 185.794 457.13 185.794C457.922 185.794 458.494 185.97 458.802 186.256C459.044 186.476 459.22 186.872 459.22 187.4V187.818C458.626 187.686 457.988 187.62 457.35 187.62C456.228 187.62 455.15 187.818 454.314 188.39C453.544 188.918 452.994 189.82 452.994 191.008C452.994 192.13 453.478 192.988 454.27 193.538C454.974 194.022 455.854 194.242 456.778 194.242C458.01 194.242 459.088 193.846 459.792 193.34H459.836ZM459.22 191.338C458.824 191.58 458.274 191.778 457.702 191.778C456.932 191.778 456.316 191.404 456.316 190.7C456.316 189.864 457.174 189.6 458.032 189.6C458.384 189.6 458.868 189.644 459.22 189.754V191.338ZM472.532 190.986C472.092 191.206 471.476 191.426 470.926 191.426C469.914 191.426 469.672 190.634 469.672 189.578V185.948H472.532V183.176H469.672V179.788L466.328 180.36V183.176H464.568V185.948H466.328V189.93C466.328 191.646 466.702 192.548 467.274 193.164C467.956 193.89 468.99 194.242 470.09 194.242C471.036 194.242 472.026 193.978 472.532 193.648V190.986ZM474.273 179.744C474.273 180.8 475.153 181.658 476.209 181.658C477.265 181.658 478.145 180.8 478.145 179.744C478.145 178.688 477.265 177.83 476.209 177.83C475.153 177.83 474.273 178.688 474.273 179.744ZM474.537 194H477.881V183.176H474.537V194ZM483.322 188.588C483.322 187.048 484.488 185.816 486.006 185.816C487.524 185.816 488.69 187.048 488.69 188.588C488.69 190.128 487.524 191.36 486.006 191.36C484.488 191.36 483.322 190.128 483.322 188.588ZM479.978 188.588C479.978 191.778 482.552 194.242 486.006 194.242C489.46 194.242 492.034 191.778 492.034 188.588C492.034 185.398 489.46 182.934 486.006 182.934C482.552 182.934 479.978 185.398 479.978 188.588ZM494.131 194H497.475V186.718C498.069 186.256 498.883 185.816 499.741 185.816C500.203 185.816 500.599 185.948 500.885 186.278C501.149 186.586 501.259 186.982 501.259 187.796V194H504.603V187.246C504.603 185.684 504.317 184.738 503.657 184.034C502.975 183.33 501.963 182.934 500.819 182.934C499.455 182.934 498.311 183.506 497.475 184.188L497.431 184.166V183.176H494.131V194ZM359.264 226H362.763V220.302H363.863C366.195 220.302 367.779 220.038 369.011 219.312C370.353 218.52 371.299 217.112 371.299 215.154C371.299 212.998 370.111 211.634 368.725 210.908C367.471 210.248 365.887 210.072 363.995 210.072H359.264V226ZM362.763 217.464V213.13H363.951C365.183 213.13 366.041 213.174 366.679 213.46C367.405 213.79 367.801 214.428 367.801 215.33C367.801 216.122 367.449 216.716 366.811 217.068C366.217 217.398 365.425 217.464 364.039 217.464H362.763ZM373.099 226H376.443V219.444C377.235 218.52 378.203 218.168 379.369 218.168C379.677 218.168 380.007 218.212 380.271 218.278V215.132C380.029 215.066 379.787 215.044 379.567 215.044C378.225 215.044 377.169 215.594 376.421 216.65L376.377 216.628V215.176H373.099V226ZM384.484 220.588C384.484 219.048 385.65 217.816 387.168 217.816C388.686 217.816 389.852 219.048 389.852 220.588C389.852 222.128 388.686 223.36 387.168 223.36C385.65 223.36 384.484 222.128 384.484 220.588ZM381.14 220.588C381.14 223.778 383.714 226.242 387.168 226.242C390.622 226.242 393.196 223.778 393.196 220.588C393.196 217.398 390.622 214.934 387.168 214.934C383.714 214.934 381.14 217.398 381.14 220.588ZM396.172 230.29C397.118 230.752 398.482 231.082 399.868 231.082C403.322 231.082 405.654 229.19 405.654 225.78V215.088L403.036 215.55C402.266 215.176 401.364 214.934 400.33 214.934C396.964 214.934 394.698 217.42 394.698 220.588C394.698 223.866 397.118 225.89 399.736 225.89C400.638 225.89 401.628 225.626 402.266 225.164L402.31 225.186V225.78C402.31 227.386 401.298 228.222 399.67 228.222C398.526 228.222 397.272 227.804 396.172 227.122V230.29ZM402.31 222.7C401.848 222.986 401.21 223.162 400.616 223.162C399.054 223.162 398.086 222.04 398.086 220.456C398.086 219.048 398.922 217.772 400.66 217.772C401.254 217.772 401.892 217.948 402.31 218.168V222.7ZM408.462 226H411.806V219.444C412.598 218.52 413.566 218.168 414.732 218.168C415.04 218.168 415.37 218.212 415.634 218.278V215.132C415.392 215.066 415.15 215.044 414.93 215.044C413.588 215.044 412.532 215.594 411.784 216.65L411.74 216.628V215.176H408.462V226ZM422.958 225.34C423.552 225.956 424.41 226.198 425.29 226.198C425.928 226.198 426.522 226.066 426.896 225.868V223.36C426.72 223.448 426.522 223.492 426.346 223.492C425.884 223.492 425.686 223.14 425.686 222.634V218.96C425.686 217.596 425.29 216.628 424.476 215.968C423.618 215.264 422.32 214.934 420.868 214.934C419.284 214.934 417.964 215.33 417.084 215.77V218.652C417.942 218.19 419.042 217.794 420.252 217.794C421.044 217.794 421.616 217.97 421.924 218.256C422.166 218.476 422.342 218.872 422.342 219.4V219.818C421.748 219.686 421.11 219.62 420.472 219.62C419.35 219.62 418.272 219.818 417.436 220.39C416.666 220.918 416.116 221.82 416.116 223.008C416.116 224.13 416.6 224.988 417.392 225.538C418.096 226.022 418.976 226.242 419.9 226.242C421.132 226.242 422.21 225.846 422.914 225.34H422.958ZM422.342 223.338C421.946 223.58 421.396 223.778 420.824 223.778C420.054 223.778 419.438 223.404 419.438 222.7C419.438 221.864 420.296 221.6 421.154 221.6C421.506 221.6 421.99 221.644 422.342 221.754V223.338ZM442.628 226H445.972V219.202C445.972 217.662 445.664 216.716 444.982 216.012C444.344 215.352 443.398 214.934 442.188 214.934C440.824 214.934 439.548 215.44 438.382 216.474C437.744 215.396 436.402 214.934 435.236 214.934C433.916 214.934 432.816 215.462 431.98 216.166L431.936 216.144V215.176H428.636V226H431.98V218.696C432.53 218.234 433.322 217.816 434.092 217.816C434.532 217.816 434.928 217.948 435.236 218.278C435.522 218.586 435.632 219.026 435.632 219.752V226H438.976V219.202C438.976 219.048 438.976 218.872 438.954 218.718C439.526 218.212 440.318 217.816 441.088 217.816C441.528 217.816 441.924 217.948 442.232 218.278C442.496 218.564 442.628 218.938 442.628 219.752V226ZM448.394 225.34C449.692 225.978 451.364 226.242 452.662 226.242C455.434 226.242 457.502 224.944 457.524 222.568C457.524 220.698 456.27 219.906 454.202 219.4C452.596 219.004 451.43 219.07 451.43 218.278C451.43 217.772 451.958 217.508 452.838 217.508C453.806 217.508 455.478 217.86 456.908 218.674V215.792C455.676 215.198 454.07 214.934 452.772 214.934C450.088 214.934 448.064 216.232 448.042 218.52C448.042 220.302 449.252 221.16 451.298 221.666C452.926 222.084 454.136 221.996 454.136 222.832C454.136 223.426 453.586 223.668 452.662 223.668C451.628 223.668 449.89 223.294 448.394 222.414V225.34Z" fill="#1C3F94"/>
<rect x="648" y="110" width="48" height="48" rx="24" fill="#FBB040"/>
<mask id="mask2_459_34926" style="mask-type:alpha" maskUnits="userSpaceOnUse" x="658" y="120" width="28" height="28">
<rect x="658" y="120" width="28" height="28" fill="#D9D9D9"/>
</mask>
<g mask="url(#mask2_459_34926)">
<path d="M677.833 130.5H680.167V128.167H677.833V130.5ZM677.833 135.167H680.167V132.833H677.833V135.167ZM677.833 139.833H680.167V137.5H677.833V139.833ZM677.833 144.5V142.167H682.5V125.833H672V127.467L669.667 125.775V123.5H684.833V144.5H677.833ZM659.167 144.5V132.833L667.333 127L675.5 132.833V144.5H668.5V138.667H666.167V144.5H659.167ZM661.5 142.167H663.833V136.333H670.833V142.167H673.167V134L667.333 129.858L661.5 134V142.167Z" fill="#061436"/>
</g>
<path d="M579.432 193.076C580.928 193.846 582.886 194.242 584.47 194.242C587.902 194.242 590.256 192.372 590.256 189.27C590.256 186.454 588.32 185.332 585.922 184.54C584.008 183.902 582.534 183.792 582.534 182.384C582.534 181.328 583.392 180.888 584.58 180.888C585.812 180.888 587.77 181.372 589.464 182.428V178.974C588.078 178.226 586.164 177.83 584.602 177.83C581.258 177.83 579.014 179.678 579.014 182.648C579.014 185.42 580.994 186.498 583.194 187.224C585.24 187.884 586.736 188.016 586.736 189.49C586.736 190.678 585.79 191.184 584.514 191.184C583.26 191.184 581.126 190.678 579.432 189.534V193.076ZM602.338 189.468C602.382 189.182 602.404 188.698 602.404 188.324C602.404 184.694 599.896 182.934 597.234 182.934C594.242 182.934 591.558 185.178 591.558 188.632C591.558 192.02 594.132 194.242 597.696 194.242C599.126 194.242 600.754 193.912 601.81 193.252V190.458C600.666 191.228 599.346 191.646 598.136 191.646C596.596 191.646 595.364 190.964 594.99 189.468H602.338ZM594.968 187.356C595.254 186.124 596.156 185.486 597.19 185.486C598.268 185.486 599.126 186.19 599.324 187.356H594.968ZM613.482 190.326C612.58 191.008 611.37 191.404 610.314 191.404C608.51 191.404 607.256 190.238 607.256 188.588C607.256 186.96 608.488 185.75 610.27 185.75C611.304 185.75 612.36 186.146 613.328 186.762V183.66C612.448 183.22 611.326 182.934 610.116 182.934C606.728 182.934 603.912 185.2 603.912 188.61C603.912 191.866 606.464 194.242 609.94 194.242C611.172 194.242 612.448 193.978 613.482 193.406V190.326ZM622.847 190.986C622.407 191.206 621.791 191.426 621.241 191.426C620.229 191.426 619.987 190.634 619.987 189.578V185.948H622.847V183.176H619.987V179.788L616.643 180.36V183.176H614.883V185.948H616.643V189.93C616.643 191.646 617.017 192.548 617.589 193.164C618.271 193.89 619.305 194.242 620.405 194.242C621.351 194.242 622.341 193.978 622.847 193.648V190.986ZM624.589 179.744C624.589 180.8 625.469 181.658 626.525 181.658C627.581 181.658 628.461 180.8 628.461 179.744C628.461 178.688 627.581 177.83 626.525 177.83C625.469 177.83 624.589 178.688 624.589 179.744ZM624.853 194H628.197V183.176H624.853V194ZM633.638 188.588C633.638 187.048 634.804 185.816 636.322 185.816C637.84 185.816 639.006 187.048 639.006 188.588C639.006 190.128 637.84 191.36 636.322 191.36C634.804 191.36 633.638 190.128 633.638 188.588ZM630.294 188.588C630.294 191.778 632.868 194.242 636.322 194.242C639.776 194.242 642.35 191.778 642.35 188.588C642.35 185.398 639.776 182.934 636.322 182.934C632.868 182.934 630.294 185.398 630.294 188.588ZM644.447 194H647.791V186.718C648.385 186.256 649.199 185.816 650.057 185.816C650.519 185.816 650.915 185.948 651.201 186.278C651.465 186.586 651.575 186.982 651.575 187.796V194H654.919V187.246C654.919 185.684 654.633 184.738 653.973 184.034C653.291 183.33 652.279 182.934 651.135 182.934C649.771 182.934 648.627 183.506 647.791 184.188L647.747 184.166V183.176H644.447V194ZM668.557 184.496C667.391 184.496 666.445 183.682 666.445 182.582C666.445 181.504 667.369 180.69 668.557 180.69C669.745 180.69 670.669 181.504 670.669 182.582C670.669 183.682 669.723 184.496 668.557 184.496ZM668.557 191.36C667.171 191.36 666.137 190.436 666.137 189.182C666.137 187.906 667.215 186.96 668.557 186.96C669.899 186.96 670.977 187.906 670.977 189.182C670.977 190.436 669.943 191.36 668.557 191.36ZM671.879 185.53C673.287 184.98 674.057 183.726 674.057 182.274C674.057 179.722 671.659 177.83 668.557 177.83C665.455 177.83 663.057 179.722 663.057 182.274C663.057 183.726 663.827 184.98 665.235 185.53V185.574C663.497 186.234 662.551 187.708 662.551 189.424C662.551 192.284 665.103 194.242 668.557 194.242C672.011 194.242 674.563 192.284 674.563 189.424C674.563 187.708 673.617 186.234 671.879 185.574V185.53ZM692.71 184.452L691.28 188.016L689.278 185.948L689.916 185.53C691.126 184.738 692.182 183.484 692.182 181.856C692.182 179.656 690.29 177.808 687.496 177.808C684.724 177.808 682.788 179.59 682.788 181.856C682.788 183.22 683.492 184.342 684.372 185.244L684.57 185.442C682.854 186.3 681.622 187.686 681.622 189.556C681.622 191.844 683.426 194.242 687.452 194.242C689.454 194.242 690.884 193.67 691.83 192.812L693.018 194H697.132L697.154 193.956L693.59 190.348L696.098 184.452H692.71ZM686.528 187.444L689.63 190.568C689.212 191.074 688.552 191.404 687.54 191.404C685.692 191.404 684.988 190.326 684.988 189.424C684.988 188.808 685.318 188.016 686.242 187.576L686.528 187.444ZM687.32 183.968L686.88 183.506C686.33 182.934 686.088 182.494 686.088 181.988C686.088 181.262 686.594 180.668 687.474 180.668C688.288 180.668 688.882 181.218 688.882 182.01C688.882 182.626 688.53 183.066 687.914 183.528L687.32 183.968ZM703.186 194H706.684V188.302H707.784C710.116 188.302 711.7 188.038 712.932 187.312C714.274 186.52 715.22 185.112 715.22 183.154C715.22 180.998 714.032 179.634 712.646 178.908C711.392 178.248 709.808 178.072 707.916 178.072H703.186V194ZM706.684 185.464V181.13H707.872C709.104 181.13 709.962 181.174 710.6 181.46C711.326 181.79 711.722 182.428 711.722 183.33C711.722 184.122 711.37 184.716 710.732 185.068C710.138 185.398 709.346 185.464 707.96 185.464H706.684ZM724.258 192.988V194H727.558V183.176H724.214V190.414C723.686 190.92 722.85 191.382 722.014 191.382C721.552 191.382 721.112 191.228 720.826 190.898C720.54 190.59 720.408 190.128 720.408 189.336V183.176H717.064V189.842C717.064 191.448 717.394 192.438 718.098 193.164C718.714 193.802 719.66 194.242 720.914 194.242C722.322 194.242 723.378 193.692 724.214 192.966L724.258 192.988ZM730.384 194.132L733.002 193.692C733.75 194 734.63 194.242 735.686 194.242C739.052 194.242 741.538 191.822 741.538 188.39C741.538 185.024 739.118 182.934 736.434 182.934C735.4 182.934 734.432 183.242 733.772 183.682L733.728 183.66V177.192H730.384V194.132ZM733.728 191.118V186.256C734.212 185.97 734.85 185.728 735.576 185.728C737.226 185.728 738.172 186.96 738.172 188.544C738.172 190.128 737.248 191.536 735.444 191.536C734.828 191.536 734.168 191.36 733.728 191.118ZM743.704 194H747.048V177.192H743.704V194ZM749.563 179.744C749.563 180.8 750.443 181.658 751.499 181.658C752.555 181.658 753.435 180.8 753.435 179.744C753.435 178.688 752.555 177.83 751.499 177.83C750.443 177.83 749.563 178.688 749.563 179.744ZM749.827 194H753.171V183.176H749.827V194ZM764.86 190.326C763.958 191.008 762.748 191.404 761.692 191.404C759.888 191.404 758.634 190.238 758.634 188.588C758.634 186.96 759.866 185.75 761.648 185.75C762.682 185.75 763.738 186.146 764.706 186.762V183.66C763.826 183.22 762.704 182.934 761.494 182.934C758.106 182.934 755.29 185.2 755.29 188.61C755.29 191.866 757.842 194.242 761.318 194.242C762.55 194.242 763.826 193.978 764.86 193.406V190.326ZM629.989 226H633.487V219.29H640.373V226H643.871V210.072H640.373V216.232H633.487V210.072H629.989V226ZM649.364 220.588C649.364 219.048 650.53 217.816 652.048 217.816C653.566 217.816 654.732 219.048 654.732 220.588C654.732 222.128 653.566 223.36 652.048 223.36C650.53 223.36 649.364 222.128 649.364 220.588ZM646.02 220.588C646.02 223.778 648.594 226.242 652.048 226.242C655.502 226.242 658.076 223.778 658.076 220.588C658.076 217.398 655.502 214.934 652.048 214.934C648.594 214.934 646.02 217.398 646.02 220.588ZM667.367 224.988V226H670.667V215.176H667.323V222.414C666.795 222.92 665.959 223.382 665.123 223.382C664.661 223.382 664.221 223.228 663.935 222.898C663.649 222.59 663.517 222.128 663.517 221.336V215.176H660.173V221.842C660.173 223.448 660.503 224.438 661.207 225.164C661.823 225.802 662.769 226.242 664.023 226.242C665.431 226.242 666.487 225.692 667.323 224.966L667.367 224.988ZM673.185 225.34C674.483 225.978 676.155 226.242 677.453 226.242C680.225 226.242 682.293 224.944 682.315 222.568C682.315 220.698 681.061 219.906 678.993 219.4C677.387 219.004 676.221 219.07 676.221 218.278C676.221 217.772 676.749 217.508 677.629 217.508C678.597 217.508 680.269 217.86 681.699 218.674V215.792C680.467 215.198 678.861 214.934 677.563 214.934C674.879 214.934 672.855 216.232 672.833 218.52C672.833 220.302 674.043 221.16 676.089 221.666C677.717 222.084 678.927 221.996 678.927 222.832C678.927 223.426 678.377 223.668 677.453 223.668C676.419 223.668 674.681 223.294 673.185 222.414V225.34ZM684.101 211.744C684.101 212.8 684.981 213.658 686.037 213.658C687.093 213.658 687.973 212.8 687.973 211.744C687.973 210.688 687.093 209.83 686.037 209.83C684.981 209.83 684.101 210.688 684.101 211.744ZM684.365 226H687.709V215.176H684.365V226ZM690.488 226H693.832V218.718C694.426 218.256 695.24 217.816 696.098 217.816C696.56 217.816 696.956 217.948 697.242 218.278C697.506 218.586 697.616 218.982 697.616 219.796V226H700.96V219.246C700.96 217.684 700.674 216.738 700.014 216.034C699.332 215.33 698.32 214.934 697.176 214.934C695.812 214.934 694.668 215.506 693.832 216.188L693.788 216.166V215.176H690.488V226ZM704.559 230.29C705.505 230.752 706.869 231.082 708.255 231.082C711.709 231.082 714.041 229.19 714.041 225.78V215.088L711.423 215.55C710.653 215.176 709.751 214.934 708.717 214.934C705.351 214.934 703.085 217.42 703.085 220.588C703.085 223.866 705.505 225.89 708.123 225.89C709.025 225.89 710.015 225.626 710.653 225.164L710.697 225.186V225.78C710.697 227.386 709.685 228.222 708.057 228.222C706.913 228.222 705.659 227.804 704.559 227.122V230.29ZM710.697 222.7C710.235 222.986 709.597 223.162 709.003 223.162C707.441 223.162 706.473 222.04 706.473 220.456C706.473 219.048 707.309 217.772 709.047 217.772C709.641 217.772 710.279 217.948 710.697 218.168V222.7Z" fill="#1C3F94"/>
<rect x="912" y="110" width="48" height="48" rx="24" fill="#FBB040"/>
<mask id="mask3_459_34926" style="mask-type:alpha" maskUnits="userSpaceOnUse" x="922" y="120" width="28" height="28">
<rect x="922" y="120" width="28" height="28" fill="#D9D9D9"/>
</mask>
<g mask="url(#mask3_459_34926)">
<path d="M944.167 136.333V128.75L938.333 124.667L932.5 128.75V130.5H930.167V127.583L938.333 121.75L946.5 127.583V136.333H944.167ZM938.917 129.333H940.083V128.167H938.917V129.333ZM936.583 129.333H937.75V128.167H936.583V129.333ZM938.917 131.667H940.083V130.5H938.917V131.667ZM936.583 131.667H937.75V130.5H936.583V131.667ZM938.333 146.25L930.167 143.975V145.667H923.167V132.833H932.442L939.675 135.517C940.317 135.75 940.837 136.158 941.236 136.742C941.634 137.325 941.833 137.967 941.833 138.667H944.167C945.139 138.667 945.965 138.988 946.646 139.629C947.326 140.271 947.667 141.117 947.667 142.167V143.333L938.333 146.25ZM925.5 143.333H927.833V135.167H925.5V143.333ZM938.275 143.8L945.217 141.642C945.158 141.428 945.027 141.267 944.822 141.16C944.619 141.053 944.4 141 944.167 141H938.567C937.964 141 937.419 140.961 936.933 140.883C936.447 140.806 935.922 140.669 935.358 140.475L933.346 139.775L934.017 137.558L936.35 138.317C936.7 138.433 937.108 138.521 937.575 138.579C938.042 138.637 938.683 138.667 939.5 138.667C939.5 138.453 939.437 138.249 939.311 138.054C939.184 137.86 939.033 137.733 938.858 137.675L932.033 135.167H930.167V141.583L938.275 143.8Z" fill="#061436"/>
</g>
<path d="M871.183 194H874.681V187.708H876.243L880.269 194H884.295L879.807 187.268C881.919 186.586 883.041 184.914 883.041 182.868C883.041 181.042 882.293 179.854 881.127 179.128C879.851 178.336 878.069 178.072 876.177 178.072H871.183V194ZM874.681 185.09V181.13H876.023C877.233 181.13 878.091 181.262 878.641 181.548C879.279 181.878 879.543 182.362 879.543 183.11C879.543 183.88 879.235 184.408 878.641 184.716C878.113 184.98 877.387 185.09 876.441 185.09H874.681ZM895.008 189.468C895.052 189.182 895.074 188.698 895.074 188.324C895.074 184.694 892.566 182.934 889.904 182.934C886.912 182.934 884.228 185.178 884.228 188.632C884.228 192.02 886.802 194.242 890.366 194.242C891.796 194.242 893.424 193.912 894.48 193.252V190.458C893.336 191.228 892.016 191.646 890.806 191.646C889.266 191.646 888.034 190.964 887.66 189.468H895.008ZM887.638 187.356C887.924 186.124 888.826 185.486 889.86 185.486C890.938 185.486 891.796 186.19 891.994 187.356H887.638ZM897.242 194H900.586V186.718C901.18 186.256 901.994 185.816 902.852 185.816C903.314 185.816 903.71 185.948 903.996 186.278C904.26 186.586 904.37 186.982 904.37 187.796V194H907.714V187.246C907.714 185.684 907.428 184.738 906.768 184.034C906.086 183.33 905.074 182.934 903.93 182.934C902.566 182.934 901.422 183.506 900.586 184.188L900.542 184.166V183.176H897.242V194ZM917.452 190.986C917.012 191.206 916.396 191.426 915.846 191.426C914.834 191.426 914.592 190.634 914.592 189.578V185.948H917.452V183.176H914.592V179.788L911.248 180.36V183.176H909.488V185.948H911.248V189.93C911.248 191.646 911.622 192.548 912.194 193.164C912.876 193.89 913.91 194.242 915.01 194.242C915.956 194.242 916.946 193.978 917.452 193.648V190.986ZM937.394 189.622C936.074 190.524 934.534 191.096 932.884 191.096C929.606 191.096 927.56 188.852 927.56 186.014C927.56 183.132 929.672 180.976 932.752 180.976C934.38 180.976 935.986 181.57 937.152 182.362V178.82C935.898 178.204 934.336 177.83 932.73 177.83C927.604 177.83 924.062 181.438 924.062 186.058C924.062 190.7 927.604 194.242 932.73 194.242C934.314 194.242 936.03 193.912 937.394 193.186V189.622ZM942.315 188.588C942.315 187.048 943.481 185.816 944.999 185.816C946.517 185.816 947.683 187.048 947.683 188.588C947.683 190.128 946.517 191.36 944.999 191.36C943.481 191.36 942.315 190.128 942.315 188.588ZM938.971 188.588C938.971 191.778 941.545 194.242 944.999 194.242C948.453 194.242 951.027 191.778 951.027 188.588C951.027 185.398 948.453 182.934 944.999 182.934C941.545 182.934 938.971 185.398 938.971 188.588ZM953.123 194H956.467V186.718C957.061 186.256 957.875 185.816 958.733 185.816C959.195 185.816 959.591 185.948 959.877 186.278C960.141 186.586 960.251 186.982 960.251 187.796V194H963.595V187.246C963.595 185.684 963.309 184.738 962.649 184.034C961.967 183.33 960.955 182.934 959.811 182.934C958.447 182.934 957.303 183.506 956.467 184.188L956.423 184.166V183.176H953.123V194ZM973.333 190.986C972.893 191.206 972.277 191.426 971.727 191.426C970.715 191.426 970.473 190.634 970.473 189.578V185.948H973.333V183.176H970.473V179.788L967.129 180.36V183.176H965.369V185.948H967.129V189.93C967.129 191.646 967.503 192.548 968.075 193.164C968.757 193.89 969.791 194.242 970.891 194.242C971.837 194.242 972.827 193.978 973.333 193.648V190.986ZM975.338 194H978.682V187.444C979.474 186.52 980.442 186.168 981.608 186.168C981.916 186.168 982.246 186.212 982.51 186.278V183.132C982.268 183.066 982.026 183.044 981.806 183.044C980.464 183.044 979.408 183.594 978.66 184.65L978.616 184.628V183.176H975.338V194ZM986.723 188.588C986.723 187.048 987.889 185.816 989.407 185.816C990.925 185.816 992.091 187.048 992.091 188.588C992.091 190.128 990.925 191.36 989.407 191.36C987.889 191.36 986.723 190.128 986.723 188.588ZM983.379 188.588C983.379 191.778 985.953 194.242 989.407 194.242C992.861 194.242 995.435 191.778 995.435 188.588C995.435 185.398 992.861 182.934 989.407 182.934C985.953 182.934 983.379 185.398 983.379 188.588ZM997.532 194H1000.88V177.192H997.532V194Z" fill="#1C3F94"/>
<rect x="120" y="294" width="48" height="48" rx="24" fill="#FBB040"/>
<mask id="mask4_459_34926" style="mask-type:alpha" maskUnits="userSpaceOnUse" x="130" y="304" width="28" height="28">
<rect x="130" y="304" width="28" height="28" fill="#D9D9D9"/>
</mask>
<g mask="url(#mask4_459_34926)">
<path d="M138.167 328.5C137.525 328.5 136.976 328.272 136.519 327.815C136.062 327.358 135.833 326.808 135.833 326.167V311H134.667V308.667H140.5V307.5H147.5V308.667H153.333V311H152.167V326.167C152.167 326.808 151.938 327.358 151.482 327.815C151.024 328.272 150.475 328.5 149.833 328.5H138.167ZM149.833 311H138.167V326.167H149.833V311ZM140.5 323.833H142.833V313.333H140.5V323.833ZM145.167 323.833H147.5V313.333H145.167V323.833Z" fill="#061436"/>
</g>
<path d="M75.2279 378H78.8799L80.5959 372.456C81.0139 371.114 81.3879 369.86 81.7399 368.584H81.7839C82.1359 369.86 82.4879 371.048 82.9059 372.39L84.6219 378H88.3179L93.2239 362.072H89.7039L87.6579 368.848C87.2399 370.212 86.8219 371.686 86.4699 373.028H86.4259C86.0519 371.664 85.6339 370.256 85.2159 368.892L83.1259 362.072H80.5739L78.4619 368.892C78.0439 370.234 77.6259 371.664 77.2519 373.028H77.2079C76.8559 371.686 76.4599 370.256 76.0639 368.914L74.0399 362.072H70.3659L75.2279 378ZM103.331 373.468C103.375 373.182 103.397 372.698 103.397 372.324C103.397 368.694 100.889 366.934 98.2267 366.934C95.2347 366.934 92.5507 369.178 92.5507 372.632C92.5507 376.02 95.1247 378.242 98.6887 378.242C100.119 378.242 101.747 377.912 102.803 377.252V374.458C101.659 375.228 100.339 375.646 99.1287 375.646C97.5887 375.646 96.3567 374.964 95.9827 373.468H103.331ZM95.9607 371.356C96.2467 370.124 97.1487 369.486 98.1827 369.486C99.2607 369.486 100.119 370.19 100.317 371.356H95.9607ZM115.663 373.468C115.707 373.182 115.729 372.698 115.729 372.324C115.729 368.694 113.221 366.934 110.559 366.934C107.567 366.934 104.883 369.178 104.883 372.632C104.883 376.02 107.457 378.242 111.021 378.242C112.451 378.242 114.079 377.912 115.135 377.252V374.458C113.991 375.228 112.671 375.646 111.461 375.646C109.921 375.646 108.689 374.964 108.315 373.468H115.663ZM108.293 371.356C108.579 370.124 109.481 369.486 110.515 369.486C111.593 369.486 112.451 370.19 112.649 371.356H108.293ZM117.897 378H121.241V372.5L121.285 372.478L125.223 378H129.183L124.739 372.016L128.875 367.176H125.069L121.285 371.774L121.241 371.752V361.192H117.897V378ZM130.68 378H134.024V361.192H130.68V378ZM140.521 382.84L147.561 367.176H144.239L143.095 369.794C142.589 370.96 142.105 372.104 141.621 373.292H141.577C141.137 372.17 140.675 371.026 140.191 369.86L139.069 367.176H135.549L139.949 376.812L137.111 382.84H140.521ZM157.255 378H160.907L162.623 372.456C163.041 371.114 163.415 369.86 163.767 368.584H163.811C164.163 369.86 164.515 371.048 164.933 372.39L166.649 378H170.345L175.251 362.072H171.731L169.685 368.848C169.267 370.212 168.849 371.686 168.497 373.028H168.453C168.079 371.664 167.661 370.256 167.243 368.892L165.153 362.072H162.601L160.489 368.892C160.071 370.234 159.653 371.664 159.279 373.028H159.235C158.883 371.686 158.487 370.256 158.091 368.914L156.067 362.072H152.393L157.255 378ZM181.441 377.34C182.035 377.956 182.893 378.198 183.773 378.198C184.411 378.198 185.005 378.066 185.379 377.868V375.36C185.203 375.448 185.005 375.492 184.829 375.492C184.367 375.492 184.169 375.14 184.169 374.634V370.96C184.169 369.596 183.773 368.628 182.959 367.968C182.101 367.264 180.803 366.934 179.351 366.934C177.767 366.934 176.447 367.33 175.567 367.77V370.652C176.425 370.19 177.525 369.794 178.735 369.794C179.527 369.794 180.099 369.97 180.407 370.256C180.649 370.476 180.825 370.872 180.825 371.4V371.818C180.231 371.686 179.593 371.62 178.955 371.62C177.833 371.62 176.755 371.818 175.919 372.39C175.149 372.918 174.599 373.82 174.599 375.008C174.599 376.13 175.083 376.988 175.875 377.538C176.579 378.022 177.459 378.242 178.383 378.242C179.615 378.242 180.693 377.846 181.397 377.34H181.441ZM180.825 375.338C180.429 375.58 179.879 375.778 179.307 375.778C178.537 375.778 177.921 375.404 177.921 374.7C177.921 373.864 178.779 373.6 179.637 373.6C179.989 373.6 180.473 373.644 180.825 373.754V375.338ZM186.811 377.34C188.109 377.978 189.781 378.242 191.079 378.242C193.851 378.242 195.919 376.944 195.941 374.568C195.941 372.698 194.687 371.906 192.619 371.4C191.013 371.004 189.847 371.07 189.847 370.278C189.847 369.772 190.375 369.508 191.255 369.508C192.223 369.508 193.895 369.86 195.325 370.674V367.792C194.093 367.198 192.487 366.934 191.189 366.934C188.505 366.934 186.481 368.232 186.459 370.52C186.459 372.302 187.669 373.16 189.715 373.666C191.343 374.084 192.553 373.996 192.553 374.832C192.553 375.426 192.003 375.668 191.079 375.668C190.045 375.668 188.307 375.294 186.811 374.414V377.34ZM205.008 374.986C204.568 375.206 203.952 375.426 203.402 375.426C202.39 375.426 202.148 374.634 202.148 373.578V369.948H205.008V367.176H202.148V363.788L198.804 364.36V367.176H197.044V369.948H198.804V373.93C198.804 375.646 199.178 376.548 199.75 377.164C200.432 377.89 201.466 378.242 202.566 378.242C203.512 378.242 204.502 377.978 205.008 377.648V374.986ZM216.94 373.468C216.984 373.182 217.006 372.698 217.006 372.324C217.006 368.694 214.498 366.934 211.836 366.934C208.844 366.934 206.16 369.178 206.16 372.632C206.16 376.02 208.734 378.242 212.298 378.242C213.728 378.242 215.356 377.912 216.412 377.252V374.458C215.268 375.228 213.948 375.646 212.738 375.646C211.198 375.646 209.966 374.964 209.592 373.468H216.94ZM209.57 371.356C209.856 370.124 210.758 369.486 211.792 369.486C212.87 369.486 213.728 370.19 213.926 371.356H209.57ZM105.057 405.622C103.737 406.524 102.197 407.096 100.547 407.096C97.2691 407.096 95.2231 404.852 95.2231 402.014C95.2231 399.132 97.3351 396.976 100.415 396.976C102.043 396.976 103.649 397.57 104.815 398.362V394.82C103.561 394.204 101.999 393.83 100.393 393.83C95.2671 393.83 91.7251 397.438 91.7251 402.058C91.7251 406.7 95.2671 410.242 100.393 410.242C101.977 410.242 103.693 409.912 105.057 409.186V405.622ZM109.978 404.588C109.978 403.048 111.144 401.816 112.662 401.816C114.18 401.816 115.346 403.048 115.346 404.588C115.346 406.128 114.18 407.36 112.662 407.36C111.144 407.36 109.978 406.128 109.978 404.588ZM106.634 404.588C106.634 407.778 109.208 410.242 112.662 410.242C116.116 410.242 118.69 407.778 118.69 404.588C118.69 401.398 116.116 398.934 112.662 398.934C109.208 398.934 106.634 401.398 106.634 404.588ZM120.786 410H124.13V393.192H120.786V410ZM126.909 410H130.253V393.192H126.909V410ZM143.13 405.468C143.174 405.182 143.196 404.698 143.196 404.324C143.196 400.694 140.688 398.934 138.026 398.934C135.034 398.934 132.35 401.178 132.35 404.632C132.35 408.02 134.924 410.242 138.488 410.242C139.918 410.242 141.546 409.912 142.602 409.252V406.458C141.458 407.228 140.138 407.646 138.928 407.646C137.388 407.646 136.156 406.964 135.782 405.468H143.13ZM135.76 403.356C136.046 402.124 136.948 401.486 137.982 401.486C139.06 401.486 139.918 402.19 140.116 403.356H135.76ZM154.275 406.326C153.373 407.008 152.163 407.404 151.107 407.404C149.303 407.404 148.049 406.238 148.049 404.588C148.049 402.96 149.281 401.75 151.063 401.75C152.097 401.75 153.153 402.146 154.121 402.762V399.66C153.241 399.22 152.119 398.934 150.909 398.934C147.521 398.934 144.705 401.2 144.705 404.61C144.705 407.866 147.257 410.242 150.733 410.242C151.965 410.242 153.241 409.978 154.275 409.406V406.326ZM163.64 406.986C163.2 407.206 162.584 407.426 162.034 407.426C161.022 407.426 160.78 406.634 160.78 405.578V401.948H163.64V399.176H160.78V395.788L157.436 396.36V399.176H155.676V401.948H157.436V405.93C157.436 407.646 157.81 408.548 158.382 409.164C159.064 409.89 160.098 410.242 161.198 410.242C162.144 410.242 163.134 409.978 163.64 409.648V406.986ZM165.382 395.744C165.382 396.8 166.262 397.658 167.318 397.658C168.374 397.658 169.254 396.8 169.254 395.744C169.254 394.688 168.374 393.83 167.318 393.83C166.262 393.83 165.382 394.688 165.382 395.744ZM165.646 410H168.99V399.176H165.646V410ZM174.431 404.588C174.431 403.048 175.597 401.816 177.115 401.816C178.633 401.816 179.799 403.048 179.799 404.588C179.799 406.128 178.633 407.36 177.115 407.36C175.597 407.36 174.431 406.128 174.431 404.588ZM171.087 404.588C171.087 407.778 173.661 410.242 177.115 410.242C180.569 410.242 183.143 407.778 183.143 404.588C183.143 401.398 180.569 398.934 177.115 398.934C173.661 398.934 171.087 401.398 171.087 404.588ZM185.24 410H188.584V402.718C189.178 402.256 189.992 401.816 190.85 401.816C191.312 401.816 191.708 401.948 191.994 402.278C192.258 402.586 192.368 402.982 192.368 403.796V410H195.712V403.246C195.712 401.684 195.426 400.738 194.766 400.034C194.084 399.33 193.072 398.934 191.928 398.934C190.564 398.934 189.42 399.506 188.584 400.188L188.54 400.166V399.176H185.24V410Z" fill="#1C3F94"/>
<rect x="384" y="294" width="48" height="48" rx="24" fill="#FBB040"/>
<mask id="mask5_459_34926" style="mask-type:alpha" maskUnits="userSpaceOnUse" x="394" y="304" width="28" height="28">
<rect x="394" y="304" width="28" height="28" fill="#D9D9D9"/>
</mask>
<g mask="url(#mask5_459_34926)">
<path d="M418.529 316.892V326.167C418.529 326.808 418.301 327.358 417.844 327.815C417.387 328.272 416.837 328.5 416.196 328.5H399.862C399.221 328.5 398.672 328.272 398.215 327.815C397.758 327.358 397.529 326.808 397.529 326.167V316.892C397.082 316.483 396.737 315.958 396.494 315.317C396.251 314.675 396.246 313.975 396.479 313.217L397.704 309.25C397.86 308.744 398.137 308.326 398.536 307.996C398.934 307.665 399.396 307.5 399.921 307.5H416.137C416.662 307.5 417.119 307.66 417.508 307.981C417.897 308.302 418.179 308.725 418.354 309.25L419.579 313.217C419.812 313.975 419.808 314.665 419.565 315.287C419.322 315.91 418.976 316.444 418.529 316.892ZM410.596 315.667C411.121 315.667 411.519 315.487 411.792 315.126C412.064 314.767 412.171 314.364 412.112 313.917L411.471 309.833H409.196V314.15C409.196 314.558 409.332 314.913 409.604 315.215C409.876 315.516 410.207 315.667 410.596 315.667ZM405.346 315.667C405.793 315.667 406.158 315.516 406.44 315.215C406.722 314.913 406.862 314.558 406.862 314.15V309.833H404.587L403.946 313.917C403.868 314.383 403.97 314.792 404.253 315.142C404.534 315.492 404.899 315.667 405.346 315.667ZM400.154 315.667C400.504 315.667 400.81 315.54 401.072 315.287C401.335 315.035 401.496 314.714 401.554 314.325L402.196 309.833H399.921L398.754 313.742C398.637 314.131 398.7 314.549 398.943 314.996C399.187 315.443 399.59 315.667 400.154 315.667ZM415.904 315.667C416.468 315.667 416.876 315.443 417.129 314.996C417.382 314.549 417.44 314.131 417.304 313.742L416.079 309.833H413.862L414.504 314.325C414.562 314.714 414.723 315.035 414.986 315.287C415.248 315.54 415.554 315.667 415.904 315.667ZM399.862 326.167H416.196V317.942C416.099 317.981 416.036 318 416.007 318H415.904C415.379 318 414.917 317.912 414.518 317.737C414.12 317.562 413.726 317.281 413.337 316.892C412.987 317.242 412.589 317.514 412.142 317.708C411.694 317.903 411.218 318 410.712 318C410.187 318 409.696 317.903 409.239 317.708C408.782 317.514 408.379 317.242 408.029 316.892C407.699 317.242 407.315 317.514 406.878 317.708C406.44 317.903 405.968 318 405.462 318C404.899 318 404.388 317.903 403.931 317.708C403.474 317.514 403.071 317.242 402.721 316.892C402.312 317.3 401.909 317.587 401.511 317.751C401.112 317.917 400.66 318 400.154 318H400.023C399.974 318 399.921 317.981 399.862 317.942V326.167Z" fill="#061436"/>
</g>
<path d="M320.55 378H325.28C326.974 378 328.338 377.802 329.438 377.384C331.462 376.614 332.474 375.162 332.474 373.204C332.474 371.246 331.462 369.926 329.438 369.332V369.288C330.89 368.76 331.836 367.77 331.836 366.054C331.836 364.734 331.264 363.656 330.032 362.974C328.954 362.38 327.348 362.072 325.192 362.072H320.55V378ZM324.048 368.672V365.064H325.126C326.05 365.064 327.018 365.13 327.59 365.46C328.184 365.79 328.338 366.34 328.338 366.846C328.338 368.144 327.326 368.672 325.896 368.672H324.048ZM324.048 375.008V371.07H326.138C328.008 371.07 328.976 371.708 328.976 373.094C328.976 373.798 328.734 374.392 327.986 374.7C327.458 374.92 326.6 375.008 325.346 375.008H324.048ZM341.728 376.988V378H345.028V367.176H341.684V374.414C341.156 374.92 340.32 375.382 339.484 375.382C339.022 375.382 338.582 375.228 338.296 374.898C338.01 374.59 337.878 374.128 337.878 373.336V367.176H334.534V373.842C334.534 375.448 334.864 376.438 335.568 377.164C336.184 377.802 337.13 378.242 338.384 378.242C339.792 378.242 340.848 377.692 341.684 376.966L341.728 376.988ZM347.547 377.34C348.845 377.978 350.517 378.242 351.815 378.242C354.587 378.242 356.655 376.944 356.677 374.568C356.677 372.698 355.423 371.906 353.355 371.4C351.749 371.004 350.583 371.07 350.583 370.278C350.583 369.772 351.111 369.508 351.991 369.508C352.959 369.508 354.631 369.86 356.061 370.674V367.792C354.829 367.198 353.223 366.934 351.925 366.934C349.241 366.934 347.217 368.232 347.195 370.52C347.195 372.302 348.405 373.16 350.451 373.666C352.079 374.084 353.289 373.996 353.289 374.832C353.289 375.426 352.739 375.668 351.815 375.668C350.781 375.668 349.043 375.294 347.547 374.414V377.34ZM358.462 363.744C358.462 364.8 359.342 365.658 360.398 365.658C361.454 365.658 362.334 364.8 362.334 363.744C362.334 362.688 361.454 361.83 360.398 361.83C359.342 361.83 358.462 362.688 358.462 363.744ZM358.726 378H362.07V367.176H358.726V378ZM364.849 378H368.193V370.718C368.787 370.256 369.601 369.816 370.459 369.816C370.921 369.816 371.317 369.948 371.603 370.278C371.867 370.586 371.977 370.982 371.977 371.796V378H375.321V371.246C375.321 369.684 375.035 368.738 374.375 368.034C373.693 367.33 372.681 366.934 371.537 366.934C370.173 366.934 369.029 367.506 368.193 368.188L368.149 368.166V367.176H364.849V378ZM388.138 373.468C388.182 373.182 388.204 372.698 388.204 372.324C388.204 368.694 385.696 366.934 383.034 366.934C380.042 366.934 377.358 369.178 377.358 372.632C377.358 376.02 379.932 378.242 383.496 378.242C384.926 378.242 386.554 377.912 387.61 377.252V374.458C386.466 375.228 385.146 375.646 383.936 375.646C382.396 375.646 381.164 374.964 380.79 373.468H388.138ZM380.768 371.356C381.054 370.124 381.956 369.486 382.99 369.486C384.068 369.486 384.926 370.19 385.124 371.356H380.768ZM390.064 377.34C391.362 377.978 393.034 378.242 394.332 378.242C397.104 378.242 399.172 376.944 399.194 374.568C399.194 372.698 397.94 371.906 395.872 371.4C394.266 371.004 393.1 371.07 393.1 370.278C393.1 369.772 393.628 369.508 394.508 369.508C395.476 369.508 397.148 369.86 398.578 370.674V367.792C397.346 367.198 395.74 366.934 394.442 366.934C391.758 366.934 389.734 368.232 389.712 370.52C389.712 372.302 390.922 373.16 392.968 373.666C394.596 374.084 395.806 373.996 395.806 374.832C395.806 375.426 395.256 375.668 394.332 375.668C393.298 375.668 391.56 375.294 390.064 374.414V377.34ZM400.935 377.34C402.233 377.978 403.905 378.242 405.203 378.242C407.975 378.242 410.043 376.944 410.065 374.568C410.065 372.698 408.811 371.906 406.743 371.4C405.137 371.004 403.971 371.07 403.971 370.278C403.971 369.772 404.499 369.508 405.379 369.508C406.347 369.508 408.019 369.86 409.449 370.674V367.792C408.217 367.198 406.611 366.934 405.313 366.934C402.629 366.934 400.605 368.232 400.583 370.52C400.583 372.302 401.793 373.16 403.839 373.666C405.467 374.084 406.677 373.996 406.677 374.832C406.677 375.426 406.127 375.668 405.203 375.668C404.169 375.668 402.431 375.294 400.935 374.414V377.34ZM417.401 378H420.899V372.302H421.999C424.331 372.302 425.915 372.038 427.147 371.312C428.489 370.52 429.435 369.112 429.435 367.154C429.435 364.998 428.247 363.634 426.861 362.908C425.607 362.248 424.023 362.072 422.131 362.072H417.401V378ZM420.899 369.464V365.13H422.087C423.319 365.13 424.177 365.174 424.815 365.46C425.541 365.79 425.937 366.428 425.937 367.33C425.937 368.122 425.585 368.716 424.947 369.068C424.353 369.398 423.561 369.464 422.175 369.464H420.899ZM441.14 373.468C441.184 373.182 441.206 372.698 441.206 372.324C441.206 368.694 438.698 366.934 436.036 366.934C433.044 366.934 430.36 369.178 430.36 372.632C430.36 376.02 432.934 378.242 436.498 378.242C437.928 378.242 439.556 377.912 440.612 377.252V374.458C439.468 375.228 438.148 375.646 436.938 375.646C435.398 375.646 434.166 374.964 433.792 373.468H441.14ZM433.77 371.356C434.056 370.124 434.958 369.486 435.992 369.486C437.07 369.486 437.928 370.19 438.126 371.356H433.77ZM443.374 378H446.718V371.444C447.51 370.52 448.478 370.168 449.644 370.168C449.952 370.168 450.282 370.212 450.546 370.278V367.132C450.304 367.066 450.062 367.044 449.842 367.044C448.5 367.044 447.444 367.594 446.696 368.65L446.652 368.628V367.176H443.374V378ZM466.196 378H469.54V371.202C469.54 369.662 469.232 368.716 468.55 368.012C467.912 367.352 466.966 366.934 465.756 366.934C464.392 366.934 463.116 367.44 461.95 368.474C461.312 367.396 459.97 366.934 458.804 366.934C457.484 366.934 456.384 367.462 455.548 368.166L455.504 368.144V367.176H452.204V378H455.548V370.696C456.098 370.234 456.89 369.816 457.66 369.816C458.1 369.816 458.496 369.948 458.804 370.278C459.09 370.586 459.2 371.026 459.2 371.752V378H462.544V371.202C462.544 371.048 462.544 370.872 462.522 370.718C463.094 370.212 463.886 369.816 464.656 369.816C465.096 369.816 465.492 369.948 465.8 370.278C466.064 370.564 466.196 370.938 466.196 371.752V378ZM472.007 363.744C472.007 364.8 472.887 365.658 473.943 365.658C474.999 365.658 475.879 364.8 475.879 363.744C475.879 362.688 474.999 361.83 473.943 361.83C472.887 361.83 472.007 362.688 472.007 363.744ZM472.271 378H475.615V367.176H472.271V378ZM485.412 374.986C484.972 375.206 484.356 375.426 483.806 375.426C482.794 375.426 482.552 374.634 482.552 373.578V369.948H485.412V367.176H482.552V363.788L479.208 364.36V367.176H477.448V369.948H479.208V373.93C479.208 375.646 479.582 376.548 480.154 377.164C480.836 377.89 481.87 378.242 482.97 378.242C483.916 378.242 484.906 377.978 485.412 377.648V374.986ZM487.109 377.34C488.407 377.978 490.079 378.242 491.377 378.242C494.149 378.242 496.217 376.944 496.239 374.568C496.239 372.698 494.985 371.906 492.917 371.4C491.311 371.004 490.145 371.07 490.145 370.278C490.145 369.772 490.673 369.508 491.553 369.508C492.521 369.508 494.193 369.86 495.623 370.674V367.792C494.391 367.198 492.785 366.934 491.487 366.934C488.803 366.934 486.779 368.232 486.757 370.52C486.757 372.302 487.967 373.16 490.013 373.666C491.641 374.084 492.851 373.996 492.851 374.832C492.851 375.426 492.301 375.668 491.377 375.668C490.343 375.668 488.605 375.294 487.109 374.414V377.34Z" fill="#1C3F94"/>
<rect x="648" y="294" width="48" height="48" rx="24" fill="#FBB040"/>
<mask id="mask6_459_34926" style="mask-type:alpha" maskUnits="userSpaceOnUse" x="658" y="304" width="28" height="28">
<rect x="658" y="304" width="28" height="28" fill="#D9D9D9"/>
</mask>
<g mask="url(#mask6_459_34926)">
<path d="M659.167 326.166V314.499L667.333 308.666L675.5 314.499V315.287C675.053 315.501 674.635 315.748 674.246 316.03C673.857 316.312 673.497 316.629 673.167 316.979V315.666L667.333 311.524L661.5 315.666V323.833H663.833V317.999H670.833V323.833H670.921C670.979 324.241 671.067 324.64 671.183 325.029C671.3 325.417 671.446 325.797 671.621 326.166H668.5V320.333H666.167V326.166H659.167ZM684.833 305.166V316.979C684.503 316.629 684.143 316.312 683.754 316.03C683.365 315.748 682.947 315.501 682.5 315.287V307.499H672V309.133L669.667 307.441V305.166H684.833ZM677.833 312.166H680.167V309.833H677.833V312.166ZM679 328.499C677.386 328.499 676.011 327.931 674.874 326.794C673.736 325.656 673.167 324.28 673.167 322.666C673.167 321.052 673.736 319.676 674.874 318.538C676.011 317.401 677.386 316.833 679 316.833C680.614 316.833 681.99 317.401 683.128 318.538C684.265 319.676 684.833 321.052 684.833 322.666C684.833 324.28 684.265 325.656 683.128 326.794C681.99 327.931 680.614 328.499 679 328.499ZM678.417 326.166H679.583V323.249H682.5V322.083H679.583V319.166H678.417V322.083H675.5V323.249H678.417V326.166Z" fill="#061436"/>
</g>
<path d="M572.83 378H576.328V371.708H577.89L581.916 378H585.942L581.454 371.268C583.566 370.586 584.688 368.914 584.688 366.868C584.688 365.042 583.94 363.854 582.774 363.128C581.498 362.336 579.716 362.072 577.824 362.072H572.83V378ZM576.328 369.09V365.13H577.67C578.88 365.13 579.738 365.262 580.288 365.548C580.926 365.878 581.19 366.362 581.19 367.11C581.19 367.88 580.882 368.408 580.288 368.716C579.76 368.98 579.034 369.09 578.088 369.09H576.328ZM596.655 373.468C596.699 373.182 596.721 372.698 596.721 372.324C596.721 368.694 594.213 366.934 591.551 366.934C588.559 366.934 585.875 369.178 585.875 372.632C585.875 376.02 588.449 378.242 592.013 378.242C593.443 378.242 595.071 377.912 596.127 377.252V374.458C594.983 375.228 593.663 375.646 592.453 375.646C590.913 375.646 589.681 374.964 589.307 373.468H596.655ZM589.285 371.356C589.571 370.124 590.473 369.486 591.507 369.486C592.585 369.486 593.443 370.19 593.641 371.356H589.285ZM598.581 377.34C599.879 377.978 601.551 378.242 602.849 378.242C605.621 378.242 607.689 376.944 607.711 374.568C607.711 372.698 606.457 371.906 604.389 371.4C602.783 371.004 601.617 371.07 601.617 370.278C601.617 369.772 602.145 369.508 603.025 369.508C603.993 369.508 605.665 369.86 607.095 370.674V367.792C605.863 367.198 604.257 366.934 602.959 366.934C600.275 366.934 598.251 368.232 598.229 370.52C598.229 372.302 599.439 373.16 601.485 373.666C603.113 374.084 604.323 373.996 604.323 374.832C604.323 375.426 603.773 375.668 602.849 375.668C601.815 375.668 600.077 375.294 598.581 374.414V377.34ZM609.496 363.744C609.496 364.8 610.376 365.658 611.432 365.658C612.488 365.658 613.368 364.8 613.368 363.744C613.368 362.688 612.488 361.83 611.432 361.83C610.376 361.83 609.496 362.688 609.496 363.744ZM609.76 378H613.104V367.176H609.76V378ZM623.165 377.428V378H626.443V361.192H623.099V367.308L623.055 367.33C622.483 367.088 621.823 366.934 621.009 366.934C617.775 366.934 615.289 369.398 615.289 372.808C615.289 376.13 617.643 378.242 620.371 378.242C621.427 378.242 622.395 377.912 623.121 377.406L623.165 377.428ZM623.099 374.964C622.615 375.272 621.955 375.514 621.229 375.514C619.579 375.514 618.655 374.26 618.655 372.654C618.655 371.026 619.601 369.706 621.361 369.706C622.021 369.706 622.615 369.882 623.099 370.124V374.964ZM639.323 373.468C639.367 373.182 639.389 372.698 639.389 372.324C639.389 368.694 636.881 366.934 634.219 366.934C631.227 366.934 628.543 369.178 628.543 372.632C628.543 376.02 631.117 378.242 634.681 378.242C636.111 378.242 637.739 377.912 638.795 377.252V374.458C637.651 375.228 636.331 375.646 635.121 375.646C633.581 375.646 632.349 374.964 631.975 373.468H639.323ZM631.953 371.356C632.239 370.124 633.141 369.486 634.175 369.486C635.253 369.486 636.111 370.19 636.309 371.356H631.953ZM641.557 378H644.901V370.718C645.495 370.256 646.309 369.816 647.167 369.816C647.629 369.816 648.025 369.948 648.311 370.278C648.575 370.586 648.685 370.982 648.685 371.796V378H652.029V371.246C652.029 369.684 651.743 368.738 651.083 368.034C650.401 367.33 649.389 366.934 648.245 366.934C646.881 366.934 645.737 367.506 644.901 368.188L644.857 368.166V367.176H641.557V378ZM661.766 374.986C661.326 375.206 660.71 375.426 660.16 375.426C659.148 375.426 658.906 374.634 658.906 373.578V369.948H661.766V367.176H658.906V363.788L655.562 364.36V367.176H653.802V369.948H655.562V373.93C655.562 375.646 655.936 376.548 656.508 377.164C657.19 377.89 658.224 378.242 659.324 378.242C660.27 378.242 661.26 377.978 661.766 377.648V374.986ZM663.508 363.744C663.508 364.8 664.388 365.658 665.444 365.658C666.5 365.658 667.38 364.8 667.38 363.744C667.38 362.688 666.5 361.83 665.444 361.83C664.388 361.83 663.508 362.688 663.508 363.744ZM663.772 378H667.116V367.176H663.772V378ZM676.033 377.34C676.627 377.956 677.485 378.198 678.365 378.198C679.003 378.198 679.597 378.066 679.971 377.868V375.36C679.795 375.448 679.597 375.492 679.421 375.492C678.959 375.492 678.761 375.14 678.761 374.634V370.96C678.761 369.596 678.365 368.628 677.551 367.968C676.693 367.264 675.395 366.934 673.943 366.934C672.359 366.934 671.039 367.33 670.159 367.77V370.652C671.017 370.19 672.117 369.794 673.327 369.794C674.119 369.794 674.691 369.97 674.999 370.256C675.241 370.476 675.417 370.872 675.417 371.4V371.818C674.823 371.686 674.185 371.62 673.547 371.62C672.425 371.62 671.347 371.818 670.511 372.39C669.741 372.918 669.191 373.82 669.191 375.008C669.191 376.13 669.675 376.988 670.467 377.538C671.171 378.022 672.051 378.242 672.975 378.242C674.207 378.242 675.285 377.846 675.989 377.34H676.033ZM675.417 375.338C675.021 375.58 674.471 375.778 673.899 375.778C673.129 375.778 672.513 375.404 672.513 374.7C672.513 373.864 673.371 373.6 674.229 373.6C674.581 373.6 675.065 373.644 675.417 373.754V375.338ZM681.711 378H685.055V361.192H681.711V378ZM693.121 378H696.619V372.302H697.719C700.051 372.302 701.635 372.038 702.867 371.312C704.209 370.52 705.155 369.112 705.155 367.154C705.155 364.998 703.967 363.634 702.581 362.908C701.327 362.248 699.743 362.072 697.851 362.072H693.121V378ZM696.619 369.464V365.13H697.807C699.039 365.13 699.897 365.174 700.535 365.46C701.261 365.79 701.657 366.428 701.657 367.33C701.657 368.122 701.305 368.716 700.667 369.068C700.073 369.398 699.281 369.464 697.895 369.464H696.619ZM716.86 373.468C716.904 373.182 716.926 372.698 716.926 372.324C716.926 368.694 714.418 366.934 711.756 366.934C708.764 366.934 706.08 369.178 706.08 372.632C706.08 376.02 708.654 378.242 712.218 378.242C713.648 378.242 715.276 377.912 716.332 377.252V374.458C715.188 375.228 713.868 375.646 712.658 375.646C711.118 375.646 709.886 374.964 709.512 373.468H716.86ZM709.49 371.356C709.776 370.124 710.678 369.486 711.712 369.486C712.79 369.486 713.648 370.19 713.846 371.356H709.49ZM719.094 378H722.438V371.444C723.23 370.52 724.198 370.168 725.364 370.168C725.672 370.168 726.002 370.212 726.266 370.278V367.132C726.024 367.066 725.782 367.044 725.562 367.044C724.22 367.044 723.164 367.594 722.416 368.65L722.372 368.628V367.176H719.094V378ZM741.916 378H745.26V371.202C745.26 369.662 744.952 368.716 744.27 368.012C743.632 367.352 742.686 366.934 741.476 366.934C740.112 366.934 738.836 367.44 737.67 368.474C737.032 367.396 735.69 366.934 734.524 366.934C733.204 366.934 732.104 367.462 731.268 368.166L731.224 368.144V367.176H727.924V378H731.268V370.696C731.818 370.234 732.61 369.816 733.38 369.816C733.82 369.816 734.216 369.948 734.524 370.278C734.81 370.586 734.92 371.026 734.92 371.752V378H738.264V371.202C738.264 371.048 738.264 370.872 738.242 370.718C738.814 370.212 739.606 369.816 740.376 369.816C740.816 369.816 741.212 369.948 741.52 370.278C741.784 370.564 741.916 370.938 741.916 371.752V378ZM747.726 363.744C747.726 364.8 748.606 365.658 749.662 365.658C750.718 365.658 751.598 364.8 751.598 363.744C751.598 362.688 750.718 361.83 749.662 361.83C748.606 361.83 747.726 362.688 747.726 363.744ZM747.99 378H751.334V367.176H747.99V378ZM761.132 374.986C760.692 375.206 760.076 375.426 759.526 375.426C758.514 375.426 758.272 374.634 758.272 373.578V369.948H761.132V367.176H758.272V363.788L754.928 364.36V367.176H753.168V369.948H754.928V373.93C754.928 375.646 755.302 376.548 755.874 377.164C756.556 377.89 757.59 378.242 758.69 378.242C759.636 378.242 760.626 377.978 761.132 377.648V374.986ZM762.829 377.34C764.127 377.978 765.799 378.242 767.097 378.242C769.869 378.242 771.937 376.944 771.959 374.568C771.959 372.698 770.705 371.906 768.637 371.4C767.031 371.004 765.865 371.07 765.865 370.278C765.865 369.772 766.393 369.508 767.273 369.508C768.241 369.508 769.913 369.86 771.343 370.674V367.792C770.111 367.198 768.505 366.934 767.207 366.934C764.523 366.934 762.499 368.232 762.477 370.52C762.477 372.302 763.687 373.16 765.733 373.666C767.361 374.084 768.571 373.996 768.571 374.832C768.571 375.426 768.021 375.668 767.097 375.668C766.063 375.668 764.325 375.294 762.829 374.414V377.34Z" fill="#1C3F94"/>
<rect x="912" y="294" width="48" height="48" rx="24" fill="#FBB040"/>
<mask id="mask7_459_34926" style="mask-type:alpha" maskUnits="userSpaceOnUse" x="922" y="304" width="28" height="28">
<rect x="922" y="304" width="28" height="28" fill="#D9D9D9"/>
</mask>
<g mask="url(#mask7_459_34926)">
<path d="M934.863 328.5V325.992C933.832 325.758 932.943 325.311 932.194 324.65C931.445 323.989 930.896 323.056 930.546 321.85L932.704 320.975C932.996 321.908 933.429 322.618 934.003 323.104C934.576 323.59 935.329 323.833 936.263 323.833C937.06 323.833 937.736 323.654 938.29 323.294C938.844 322.934 939.121 322.375 939.121 321.617C939.121 320.936 938.907 320.396 938.479 319.997C938.051 319.599 937.06 319.147 935.504 318.642C933.832 318.117 932.685 317.49 932.063 316.761C931.44 316.031 931.129 315.142 931.129 314.092C931.129 312.828 931.538 311.846 932.354 311.146C933.171 310.446 934.007 310.047 934.863 309.95V307.5H937.196V309.95C938.168 310.106 938.97 310.46 939.603 311.014C940.234 311.569 940.696 312.244 940.988 313.042L938.829 313.975C938.596 313.353 938.265 312.886 937.838 312.575C937.41 312.264 936.826 312.108 936.088 312.108C935.232 312.108 934.581 312.298 934.133 312.678C933.686 313.056 933.463 313.528 933.463 314.092C933.463 314.733 933.754 315.239 934.338 315.608C934.921 315.978 935.932 316.367 937.371 316.775C938.713 317.164 939.729 317.781 940.419 318.626C941.109 319.473 941.454 320.45 941.454 321.558C941.454 322.939 941.046 323.989 940.229 324.708C939.413 325.428 938.401 325.875 937.196 326.05V328.5H934.863Z" fill="#061436"/>
</g>
<path d="M875.201 378H878.699V372.302H879.799C882.131 372.302 883.715 372.038 884.947 371.312C886.289 370.52 887.235 369.112 887.235 367.154C887.235 364.998 886.047 363.634 884.661 362.908C883.407 362.248 881.823 362.072 879.931 362.072H875.201V378ZM878.699 369.464V365.13H879.887C881.119 365.13 881.977 365.174 882.615 365.46C883.341 365.79 883.737 366.428 883.737 367.33C883.737 368.122 883.385 368.716 882.747 369.068C882.153 369.398 881.361 369.464 879.975 369.464H878.699ZM889.035 378H892.379V371.444C893.171 370.52 894.139 370.168 895.305 370.168C895.613 370.168 895.943 370.212 896.207 370.278V367.132C895.965 367.066 895.723 367.044 895.503 367.044C894.161 367.044 893.105 367.594 892.357 368.65L892.313 368.628V367.176H889.035V378ZM900.42 372.588C900.42 371.048 901.586 369.816 903.104 369.816C904.622 369.816 905.788 371.048 905.788 372.588C905.788 374.128 904.622 375.36 903.104 375.36C901.586 375.36 900.42 374.128 900.42 372.588ZM897.076 372.588C897.076 375.778 899.65 378.242 903.104 378.242C906.558 378.242 909.132 375.778 909.132 372.588C909.132 369.398 906.558 366.934 903.104 366.934C899.65 366.934 897.076 369.398 897.076 372.588ZM911.031 363.744C911.031 364.8 911.911 365.658 912.967 365.658C914.023 365.658 914.903 364.8 914.903 363.744C914.903 362.688 914.023 361.83 912.967 361.83C911.911 361.83 911.031 362.688 911.031 363.744ZM911.295 378.528C911.295 379.628 911.119 380.266 909.953 380.266C909.645 380.266 909.205 380.222 908.853 380.156V382.906C909.183 382.994 909.755 383.082 910.371 383.082C911.537 383.082 912.835 382.752 913.649 381.916C914.287 381.256 914.639 380.31 914.639 378.308V367.176H911.295V378.528ZM927.514 373.468C927.558 373.182 927.58 372.698 927.58 372.324C927.58 368.694 925.072 366.934 922.41 366.934C919.418 366.934 916.734 369.178 916.734 372.632C916.734 376.02 919.308 378.242 922.872 378.242C924.302 378.242 925.93 377.912 926.986 377.252V374.458C925.842 375.228 924.522 375.646 923.312 375.646C921.772 375.646 920.54 374.964 920.166 373.468H927.514ZM920.144 371.356C920.43 370.124 921.332 369.486 922.366 369.486C923.444 369.486 924.302 370.19 924.5 371.356H920.144ZM938.658 374.326C937.756 375.008 936.546 375.404 935.49 375.404C933.686 375.404 932.432 374.238 932.432 372.588C932.432 370.96 933.664 369.75 935.446 369.75C936.48 369.75 937.536 370.146 938.504 370.762V367.66C937.624 367.22 936.502 366.934 935.292 366.934C931.904 366.934 929.088 369.2 929.088 372.61C929.088 375.866 931.64 378.242 935.116 378.242C936.348 378.242 937.624 377.978 938.658 377.406V374.326ZM948.024 374.986C947.584 375.206 946.968 375.426 946.418 375.426C945.406 375.426 945.164 374.634 945.164 373.578V369.948H948.024V367.176H945.164V363.788L941.82 364.36V367.176H940.06V369.948H941.82V373.93C941.82 375.646 942.194 376.548 942.766 377.164C943.448 377.89 944.482 378.242 945.582 378.242C946.528 378.242 947.518 377.978 948.024 377.648V374.986ZM955.316 378H960.046C961.74 378 963.104 377.802 964.204 377.384C966.228 376.614 967.24 375.162 967.24 373.204C967.24 371.246 966.228 369.926 964.204 369.332V369.288C965.656 368.76 966.602 367.77 966.602 366.054C966.602 364.734 966.03 363.656 964.798 362.974C963.72 362.38 962.114 362.072 959.958 362.072H955.316V378ZM958.814 368.672V365.064H959.892C960.816 365.064 961.784 365.13 962.356 365.46C962.95 365.79 963.104 366.34 963.104 366.846C963.104 368.144 962.092 368.672 960.662 368.672H958.814ZM958.814 375.008V371.07H960.904C962.774 371.07 963.742 371.708 963.742 373.094C963.742 373.798 963.5 374.392 962.752 374.7C962.224 374.92 961.366 375.008 960.112 375.008H958.814ZM969.037 363.744C969.037 364.8 969.917 365.658 970.973 365.658C972.029 365.658 972.909 364.8 972.909 363.744C972.909 362.688 972.029 361.83 970.973 361.83C969.917 361.83 969.037 362.688 969.037 363.744ZM969.301 378H972.645V367.176H969.301V378ZM982.706 377.428V378H985.984V361.192H982.64V367.308L982.596 367.33C982.024 367.088 981.364 366.934 980.55 366.934C977.316 366.934 974.83 369.398 974.83 372.808C974.83 376.13 977.184 378.242 979.912 378.242C980.968 378.242 981.936 377.912 982.662 377.406L982.706 377.428ZM982.64 374.964C982.156 375.272 981.496 375.514 980.77 375.514C979.12 375.514 978.196 374.26 978.196 372.654C978.196 371.026 979.142 369.706 980.902 369.706C981.562 369.706 982.156 369.882 982.64 370.124V374.964ZM988.458 377.34C989.756 377.978 991.428 378.242 992.726 378.242C995.498 378.242 997.566 376.944 997.588 374.568C997.588 372.698 996.334 371.906 994.266 371.4C992.66 371.004 991.494 371.07 991.494 370.278C991.494 369.772 992.022 369.508 992.902 369.508C993.87 369.508 995.542 369.86 996.972 370.674V367.792C995.74 367.198 994.134 366.934 992.836 366.934C990.152 366.934 988.128 368.232 988.106 370.52C988.106 372.302 989.316 373.16 991.362 373.666C992.99 374.084 994.2 373.996 994.2 374.832C994.2 375.426 993.65 375.668 992.726 375.668C991.692 375.668 989.954 375.294 988.458 374.414V377.34Z" fill="#1C3F94"/>
<rect x="384" y="478" width="48" height="48" rx="24" fill="#FBB040"/>
<mask id="mask8_459_34926" style="mask-type:alpha" maskUnits="userSpaceOnUse" x="394" y="488" width="28" height="28">
<rect x="394" y="488" width="28" height="28" fill="#D9D9D9"/>
</mask>
<g mask="url(#mask8_459_34926)">
<path d="M396.333 505.501V503.167H402.167V502.001H399.833C399.503 502.001 399.225 501.889 399.001 501.665C398.778 501.441 398.667 501.165 398.667 500.834C398.667 500.503 398.778 500.226 399.001 500.002C399.225 499.779 399.503 499.667 399.833 499.667H402.167C402.808 499.667 403.357 499.896 403.814 500.352C404.271 500.809 404.5 501.359 404.5 502.001V503.167H406.833V495.117C406.833 493.776 407.3 492.643 408.233 491.72C409.167 490.796 410.304 490.334 411.646 490.334C412.54 490.334 413.367 490.567 414.125 491.034C414.883 491.501 415.467 492.142 415.875 492.959L417.217 495.642L415.117 496.692L413.775 494.009C413.561 493.601 413.26 493.275 412.871 493.031C412.482 492.789 412.064 492.667 411.617 492.667C410.936 492.667 410.358 492.905 409.882 493.381C409.405 493.858 409.167 494.437 409.167 495.117V503.167H411.5V502.001C411.5 501.359 411.729 500.809 412.186 500.352C412.643 499.896 413.192 499.667 413.833 499.667H416.167C416.497 499.667 416.774 499.779 416.997 500.002C417.221 500.226 417.333 500.503 417.333 500.834C417.333 501.165 417.221 501.441 416.997 501.665C416.774 501.889 416.497 502.001 416.167 502.001H413.833V503.167H419.667V505.501H396.333ZM401 512.501C400.358 512.501 399.809 512.272 399.353 511.816C398.895 511.358 398.667 510.809 398.667 510.167V505.501H401V510.167H415V505.501H417.333V510.167C417.333 510.809 417.105 511.358 416.648 511.816C416.191 512.272 415.642 512.501 415 512.501H401Z" fill="#061436"/>
</g>
<path d="M347.007 546.072H343.641V554.256C343.641 555.928 343.443 557.028 342.959 557.776C342.431 558.59 341.529 559.096 340.143 559.096C338.647 559.096 337.723 558.48 337.239 557.71C336.777 556.962 336.623 555.928 336.623 554.234V546.072H333.125V554.366C333.125 556.632 333.455 558.37 334.313 559.646C335.435 561.296 337.503 562.242 340.055 562.242C342.607 562.242 344.653 561.296 345.775 559.69C346.677 558.414 347.007 556.676 347.007 554.278V546.072ZM356.71 558.986C356.27 559.206 355.654 559.426 355.104 559.426C354.092 559.426 353.85 558.634 353.85 557.578V553.948H356.71V551.176H353.85V547.788L350.506 548.36V551.176H348.746V553.948H350.506V557.93C350.506 559.646 350.88 560.548 351.452 561.164C352.134 561.89 353.168 562.242 354.268 562.242C355.214 562.242 356.204 561.978 356.71 561.648V558.986ZM358.451 547.744C358.451 548.8 359.331 549.658 360.387 549.658C361.443 549.658 362.323 548.8 362.323 547.744C362.323 546.688 361.443 545.83 360.387 545.83C359.331 545.83 358.451 546.688 358.451 547.744ZM358.715 562H362.059V551.176H358.715V562ZM364.838 562H368.182V545.192H364.838V562ZM370.697 547.744C370.697 548.8 371.577 549.658 372.633 549.658C373.689 549.658 374.569 548.8 374.569 547.744C374.569 546.688 373.689 545.83 372.633 545.83C371.577 545.83 370.697 546.688 370.697 547.744ZM370.961 562H374.305V551.176H370.961V562ZM384.102 558.986C383.662 559.206 383.046 559.426 382.496 559.426C381.484 559.426 381.242 558.634 381.242 557.578V553.948H384.102V551.176H381.242V547.788L377.898 548.36V551.176H376.138V553.948H377.898V557.93C377.898 559.646 378.272 560.548 378.844 561.164C379.526 561.89 380.56 562.242 381.66 562.242C382.606 562.242 383.596 561.978 384.102 561.648V558.986ZM385.844 547.744C385.844 548.8 386.724 549.658 387.78 549.658C388.836 549.658 389.716 548.8 389.716 547.744C389.716 546.688 388.836 545.83 387.78 545.83C386.724 545.83 385.844 546.688 385.844 547.744ZM386.108 562H389.452V551.176H386.108V562ZM402.329 557.468C402.373 557.182 402.395 556.698 402.395 556.324C402.395 552.694 399.887 550.934 397.225 550.934C394.233 550.934 391.549 553.178 391.549 556.632C391.549 560.02 394.123 562.242 397.687 562.242C399.117 562.242 400.745 561.912 401.801 561.252V558.458C400.657 559.228 399.337 559.646 398.127 559.646C396.587 559.646 395.355 558.964 394.981 557.468H402.329ZM394.959 555.356C395.245 554.124 396.147 553.486 397.181 553.486C398.259 553.486 399.117 554.19 399.315 555.356H394.959ZM404.255 561.34C405.553 561.978 407.225 562.242 408.523 562.242C411.295 562.242 413.363 560.944 413.385 558.568C413.385 556.698 412.131 555.906 410.063 555.4C408.457 555.004 407.291 555.07 407.291 554.278C407.291 553.772 407.819 553.508 408.699 553.508C409.667 553.508 411.339 553.86 412.769 554.674V551.792C411.537 551.198 409.931 550.934 408.633 550.934C405.949 550.934 403.925 552.232 403.903 554.52C403.903 556.302 405.113 557.16 407.159 557.666C408.787 558.084 409.997 557.996 409.997 558.832C409.997 559.426 409.447 559.668 408.523 559.668C407.489 559.668 405.751 559.294 404.255 558.414V561.34ZM420.721 562H425.451C427.145 562 428.509 561.802 429.609 561.384C431.633 560.614 432.645 559.162 432.645 557.204C432.645 555.246 431.633 553.926 429.609 553.332V553.288C431.061 552.76 432.007 551.77 432.007 550.054C432.007 548.734 431.435 547.656 430.203 546.974C429.125 546.38 427.519 546.072 425.363 546.072H420.721V562ZM424.219 552.672V549.064H425.297C426.221 549.064 427.189 549.13 427.761 549.46C428.355 549.79 428.509 550.34 428.509 550.846C428.509 552.144 427.497 552.672 426.067 552.672H424.219ZM424.219 559.008V555.07H426.309C428.179 555.07 429.147 555.708 429.147 557.094C429.147 557.798 428.905 558.392 428.157 558.7C427.629 558.92 426.771 559.008 425.517 559.008H424.219ZM434.441 547.744C434.441 548.8 435.321 549.658 436.377 549.658C437.433 549.658 438.313 548.8 438.313 547.744C438.313 546.688 437.433 545.83 436.377 545.83C435.321 545.83 434.441 546.688 434.441 547.744ZM434.705 562H438.049V551.176H434.705V562ZM440.828 562H444.172V545.192H440.828V562ZM446.951 562H450.295V545.192H446.951V562ZM452.81 547.744C452.81 548.8 453.69 549.658 454.746 549.658C455.802 549.658 456.682 548.8 456.682 547.744C456.682 546.688 455.802 545.83 454.746 545.83C453.69 545.83 452.81 546.688 452.81 547.744ZM453.074 562H456.418V551.176H453.074V562ZM459.198 562H462.542V554.718C463.136 554.256 463.95 553.816 464.808 553.816C465.27 553.816 465.666 553.948 465.952 554.278C466.216 554.586 466.326 554.982 466.326 555.796V562H469.67V555.246C469.67 553.684 469.384 552.738 468.724 552.034C468.042 551.33 467.03 550.934 465.886 550.934C464.522 550.934 463.378 551.506 462.542 552.188L462.498 552.166V551.176H459.198V562ZM473.269 566.29C474.215 566.752 475.579 567.082 476.965 567.082C480.419 567.082 482.751 565.19 482.751 561.78V551.088L480.133 551.55C479.363 551.176 478.461 550.934 477.427 550.934C474.061 550.934 471.795 553.42 471.795 556.588C471.795 559.866 474.215 561.89 476.833 561.89C477.735 561.89 478.725 561.626 479.363 561.164L479.407 561.186V561.78C479.407 563.386 478.395 564.222 476.767 564.222C475.623 564.222 474.369 563.804 473.269 563.122V566.29ZM479.407 558.7C478.945 558.986 478.307 559.162 477.713 559.162C476.151 559.162 475.183 558.04 475.183 556.456C475.183 555.048 476.019 553.772 477.757 553.772C478.351 553.772 478.989 553.948 479.407 554.168V558.7Z" fill="#1C3F94"/>
<rect x="648" y="478" width="48" height="48" rx="24" fill="#FBB040"/>
<mask id="mask9_459_34926" style="mask-type:alpha" maskUnits="userSpaceOnUse" x="658" y="488" width="28" height="28">
<rect x="658" y="488" width="28" height="28" fill="#D9D9D9"/>
</mask>
<g mask="url(#mask9_459_34926)">
<path d="M672 507.834C672.331 507.834 672.608 507.722 672.832 507.498C673.055 507.275 673.167 506.998 673.167 506.667C673.167 506.337 673.055 506.059 672.832 505.835C672.608 505.612 672.331 505.501 672 505.501C671.669 505.501 671.393 505.612 671.169 505.835C670.945 506.059 670.833 506.337 670.833 506.667C670.833 506.998 670.945 507.275 671.169 507.498C671.393 507.722 671.669 507.834 672 507.834ZM670.833 503.167H673.167V496.167H670.833V503.167ZM672 513.667C670.386 513.667 668.869 513.361 667.45 512.748C666.031 512.136 664.796 511.305 663.746 510.255C662.696 509.205 661.865 507.97 661.253 506.551C660.64 505.131 660.333 503.615 660.333 502.001C660.333 500.387 660.64 498.87 661.253 497.451C661.865 496.031 662.696 494.796 663.746 493.746C664.796 492.696 666.031 491.865 667.45 491.252C668.869 490.64 670.386 490.334 672 490.334C673.614 490.334 675.131 490.64 676.55 491.252C677.969 491.865 679.204 492.696 680.254 493.746C681.304 494.796 682.135 496.031 682.747 497.451C683.36 498.87 683.667 500.387 683.667 502.001C683.667 503.615 683.36 505.131 682.747 506.551C682.135 507.97 681.304 509.205 680.254 510.255C679.204 511.305 677.969 512.136 676.55 512.748C675.131 513.361 673.614 513.667 672 513.667ZM672 511.334C674.606 511.334 676.812 510.43 678.621 508.621C680.429 506.813 681.333 504.606 681.333 502.001C681.333 499.395 680.429 497.188 678.621 495.38C676.812 493.571 674.606 492.667 672 492.667C669.394 492.667 667.187 493.571 665.379 495.38C663.571 497.188 662.667 499.395 662.667 502.001C662.667 504.606 663.571 506.813 665.379 508.621C667.187 510.43 669.394 511.334 672 511.334Z" fill="#061436"/>
</g>
<path d="M603.058 562H606.556V555.708H608.118L612.144 562H616.17L611.682 555.268C613.794 554.586 614.916 552.914 614.916 550.868C614.916 549.042 614.168 547.854 613.002 547.128C611.726 546.336 609.944 546.072 608.052 546.072H603.058V562ZM606.556 553.09V549.13H607.898C609.108 549.13 609.966 549.262 610.516 549.548C611.154 549.878 611.418 550.362 611.418 551.11C611.418 551.88 611.11 552.408 610.516 552.716C609.988 552.98 609.262 553.09 608.316 553.09H606.556ZM626.883 557.468C626.927 557.182 626.949 556.698 626.949 556.324C626.949 552.694 624.441 550.934 621.779 550.934C618.787 550.934 616.103 553.178 616.103 556.632C616.103 560.02 618.677 562.242 622.241 562.242C623.671 562.242 625.299 561.912 626.355 561.252V558.458C625.211 559.228 623.891 559.646 622.681 559.646C621.141 559.646 619.909 558.964 619.535 557.468H626.883ZM619.513 555.356C619.799 554.124 620.701 553.486 621.735 553.486C622.813 553.486 623.671 554.19 623.869 555.356H619.513ZM632.461 561.846L632.505 561.824C633.011 562.066 633.715 562.242 634.595 562.242C637.763 562.242 640.249 559.976 640.249 556.5C640.249 553.134 637.895 550.934 635.123 550.934C634.045 550.934 633.143 551.264 632.439 551.748L632.395 551.726V551.176H629.117V566.84H632.461V561.846ZM632.461 559.118V554.322C632.945 553.97 633.583 553.728 634.265 553.728C635.915 553.728 636.883 555.048 636.883 556.676C636.883 558.282 635.915 559.536 634.177 559.536C633.495 559.536 632.879 559.338 632.461 559.118ZM645.057 556.588C645.057 555.048 646.223 553.816 647.741 553.816C649.259 553.816 650.425 555.048 650.425 556.588C650.425 558.128 649.259 559.36 647.741 559.36C646.223 559.36 645.057 558.128 645.057 556.588ZM641.713 556.588C641.713 559.778 644.287 562.242 647.741 562.242C651.195 562.242 653.769 559.778 653.769 556.588C653.769 553.398 651.195 550.934 647.741 550.934C644.287 550.934 641.713 553.398 641.713 556.588ZM655.865 562H659.209V555.444C660.001 554.52 660.969 554.168 662.135 554.168C662.443 554.168 662.773 554.212 663.037 554.278V551.132C662.795 551.066 662.553 551.044 662.333 551.044C660.991 551.044 659.935 551.594 659.187 552.65L659.143 552.628V551.176H655.865V562ZM671.885 558.986C671.445 559.206 670.829 559.426 670.279 559.426C669.267 559.426 669.025 558.634 669.025 557.578V553.948H671.885V551.176H669.025V547.788L665.681 548.36V551.176H663.921V553.948H665.681V557.93C665.681 559.646 666.055 560.548 666.627 561.164C667.309 561.89 668.343 562.242 669.443 562.242C670.389 562.242 671.379 561.978 671.885 561.648V558.986ZM679.178 562H682.676V546.072H679.178V562ZM685.206 561.34C686.504 561.978 688.176 562.242 689.474 562.242C692.246 562.242 694.314 560.944 694.336 558.568C694.336 556.698 693.082 555.906 691.014 555.4C689.408 555.004 688.242 555.07 688.242 554.278C688.242 553.772 688.77 553.508 689.65 553.508C690.618 553.508 692.29 553.86 693.72 554.674V551.792C692.488 551.198 690.882 550.934 689.584 550.934C686.9 550.934 684.876 552.232 684.854 554.52C684.854 556.302 686.064 557.16 688.11 557.666C689.738 558.084 690.948 557.996 690.948 558.832C690.948 559.426 690.398 559.668 689.474 559.668C688.44 559.668 686.702 559.294 685.206 558.414V561.34ZM696.077 561.34C697.375 561.978 699.047 562.242 700.345 562.242C703.117 562.242 705.185 560.944 705.207 558.568C705.207 556.698 703.953 555.906 701.885 555.4C700.279 555.004 699.113 555.07 699.113 554.278C699.113 553.772 699.641 553.508 700.521 553.508C701.489 553.508 703.161 553.86 704.591 554.674V551.792C703.359 551.198 701.753 550.934 700.455 550.934C697.771 550.934 695.747 552.232 695.725 554.52C695.725 556.302 696.935 557.16 698.981 557.666C700.609 558.084 701.819 557.996 701.819 558.832C701.819 559.426 701.269 559.668 700.345 559.668C699.311 559.668 697.573 559.294 696.077 558.414V561.34ZM714.45 560.988V562H717.75V551.176H714.406V558.414C713.878 558.92 713.042 559.382 712.206 559.382C711.744 559.382 711.304 559.228 711.018 558.898C710.732 558.59 710.6 558.128 710.6 557.336V551.176H707.256V557.842C707.256 559.448 707.586 560.438 708.29 561.164C708.906 561.802 709.852 562.242 711.106 562.242C712.514 562.242 713.57 561.692 714.406 560.966L714.45 560.988ZM730.674 557.468C730.718 557.182 730.74 556.698 730.74 556.324C730.74 552.694 728.232 550.934 725.57 550.934C722.578 550.934 719.894 553.178 719.894 556.632C719.894 560.02 722.468 562.242 726.032 562.242C727.462 562.242 729.09 561.912 730.146 561.252V558.458C729.002 559.228 727.682 559.646 726.472 559.646C724.932 559.646 723.7 558.964 723.326 557.468H730.674ZM723.304 555.356C723.59 554.124 724.492 553.486 725.526 553.486C726.604 553.486 727.462 554.19 727.66 555.356H723.304ZM732.6 561.34C733.898 561.978 735.57 562.242 736.868 562.242C739.64 562.242 741.708 560.944 741.73 558.568C741.73 556.698 740.476 555.906 738.408 555.4C736.802 555.004 735.636 555.07 735.636 554.278C735.636 553.772 736.164 553.508 737.044 553.508C738.012 553.508 739.684 553.86 741.114 554.674V551.792C739.882 551.198 738.276 550.934 736.978 550.934C734.294 550.934 732.27 552.232 732.248 554.52C732.248 556.302 733.458 557.16 735.504 557.666C737.132 558.084 738.342 557.996 738.342 558.832C738.342 559.426 737.792 559.668 736.868 559.668C735.834 559.668 734.096 559.294 732.6 558.414V561.34Z" fill="#1C3F94"/>
</svg>
