<svg width="79" height="58" viewBox="0 0 79 58" fill="none" xmlns="http://www.w3.org/2000/svg">
<path d="M21.4023 50.9299C27.4023 50.9299 33.0393 53.2639 37.2813 57.5059H41.5233C45.7653 53.2639 51.4053 50.9299 57.4023 50.9299C63.3993 50.9299 69.0393 53.2639 73.2813 57.5059L78.4023 55.3849V11.1649L77.5233 9.04395C67.1103 -1.37505 50.5713 -2.00805 39.4023 7.12395C28.2333 -2.01405 11.6943 -1.37205 1.28134 9.04395L0.402344 11.1649V55.3849L5.52335 57.5059C9.76535 53.2639 15.4023 50.9299 21.4023 50.9299ZM72.4023 12.4549V49.2019C63.2433 43.5199 51.5583 43.577 42.4023 49.271V12.4909C50.9073 4.83795 63.8883 4.80495 72.4023 12.4549ZM6.40234 12.4549C14.9133 4.80195 27.8973 4.83795 36.4023 12.4909V49.2349C31.8243 46.3909 26.6193 44.9449 21.4023 44.9449C16.1853 44.9449 10.9773 46.3639 6.40234 49.2019V12.4549Z" fill="#FFFFFF"/>
</svg>
