<svg width="84" height="85" viewBox="0 0 84 85" fill="none" xmlns="http://www.w3.org/2000/svg">
<path d="M39 84.9507C60.504 84.9507 78 67.4547 78 45.9507H72C72 64.1457 57.195 78.9507 39 78.9507C20.805 78.9507 6 64.1457 6 45.9507C6 27.7557 20.805 12.9507 39 12.9507V6.95068C17.496 6.95068 0 24.4467 0 45.9507C0 67.4547 17.496 84.9507 39 84.9507Z" fill="#FFFFFF"/>
<path d="M84 36.9507C84 17.0997 67.851 0.950684 48 0.950684H45V39.9507H84V36.9507ZM51 33.9507V7.10068C65.151 8.51368 76.44 19.7997 77.85 33.9507H51Z" fill="#FFFFFF"/>
</svg>
