<svg width="85" height="85" viewBox="0 0 85 85" fill="none" xmlns="http://www.w3.org/2000/svg">
<path d="M42.4023 0.549316C19.2423 0.549316 0.402344 19.3893 0.402344 42.5493C0.402344 65.7093 19.2423 84.5493 42.4023 84.5493C65.5623 84.5493 84.4023 65.7093 84.4023 42.5493C84.4023 19.3893 65.5623 0.549316 42.4023 0.549316ZM42.4023 78.5493C22.5513 78.5493 6.40234 62.4003 6.40234 42.5493C6.40234 22.6983 22.5513 6.54932 42.4023 6.54932C62.2533 6.54932 78.4023 22.6983 78.4023 42.5493C78.4023 62.4003 62.2533 78.5493 42.4023 78.5493Z" fill="#FFFFFF"/>
<path d="M42.4023 12.5493C25.8603 12.5493 12.4023 26.0073 12.4023 42.5493C12.4023 59.0913 25.8603 72.5493 42.4023 72.5493C58.9443 72.5493 72.4023 59.0913 72.4023 42.5493C72.4023 26.0073 58.9443 12.5493 42.4023 12.5493ZM42.4023 66.5493C29.1693 66.5493 18.4023 55.7823 18.4023 42.5493C18.4023 29.3163 29.1693 18.5493 42.4023 18.5493C55.6353 18.5493 66.4023 29.3163 66.4023 42.5493C66.4023 55.7823 55.6353 66.5493 42.4023 66.5493Z" fill="#FFFFFF"/>
<path d="M42.4023 24.5493C32.4753 24.5493 24.4023 32.6223 24.4023 42.5493C24.4023 52.4763 32.4753 60.5493 42.4023 60.5493C52.3293 60.5493 60.4023 52.4763 60.4023 42.5493C60.4023 32.6223 52.3293 24.5493 42.4023 24.5493ZM42.4023 54.5493C35.7843 54.5493 30.4023 49.1673 30.4023 42.5493C30.4023 35.9313 35.7843 30.5493 42.4023 30.5493C49.0203 30.5493 54.4023 35.9313 54.4023 42.5493C54.4023 49.1673 49.0203 54.5493 42.4023 54.5493Z" fill="#FFFFFF"/>
</svg>
