<svg width="986" height="356" viewBox="0 0 986 356" fill="none" xmlns="http://www.w3.org/2000/svg">
<path d="M0 12C0 5.37258 5.37258 0 12 0H974C980.627 0 986 5.37258 986 12V344C986 350.627 980.627 356 974 356H12C5.37257 356 0 350.627 0 344V12Z" fill="#F5F6FA"/>
<path d="M85.344 84.048C84.448 90.032 80.448 94.384 73.152 94.384C65.664 94.384 61.376 89.392 61.376 82.64C61.376 75.12 66.112 70.256 73.472 70.256C79.872 70.256 83.808 74.064 84.928 79.28L80.448 80.4C79.552 76.688 77.12 74.416 73.536 74.416C69.056 74.416 66.336 77.488 66.336 82.448C66.336 87.312 68.896 90.224 73.408 90.224C77.472 90.224 80.16 87.6 80.736 83.472L85.344 84.048ZM93.4068 94.384C89.6948 94.384 87.8388 92.016 87.8388 89.808C87.8388 87.344 89.4708 85.872 92.4148 85.072L100.159 82.992V82.768C100.159 80.784 98.9748 79.888 96.8628 79.888C94.7188 79.888 93.0548 81.008 92.0628 83.76L88.1908 82.32C89.7268 78.192 92.9588 76.592 97.0548 76.592C102.175 76.592 104.895 79.184 104.895 82.672V88.656C104.895 89.904 105.311 90.576 106.367 90.576C106.847 90.576 107.519 90.416 107.967 90.16V93.648C107.167 94 105.663 94.32 104.543 94.32C102.143 94.32 100.287 93.008 100.287 90.48V90.128H100.159C98.9428 92.688 96.5748 94.384 93.4068 94.384ZM92.5428 89.104C92.5428 89.904 93.2148 90.768 94.7828 90.768C96.7028 90.768 99.3268 89.36 100.159 87.184V85.52L94.5908 87.44C93.3748 87.856 92.5428 88.176 92.5428 89.104ZM110.333 94V70.64H115.133V94H110.333ZM119.552 94V70.64H124.352V94H119.552ZM137.347 94.384C131.555 94.384 127.779 90.864 127.779 85.488C127.779 80.112 131.555 76.56 137.347 76.56C143.139 76.56 146.915 80.112 146.915 85.488C146.915 90.864 143.139 94.384 137.347 94.384ZM132.707 85.488C132.707 88.72 134.403 90.864 137.347 90.864C140.291 90.864 141.987 88.72 141.987 85.488C141.987 82.256 140.291 80.08 137.347 80.08C134.403 80.08 132.707 82.256 132.707 85.488ZM167.453 94H162.781V90.064H162.653C161.661 92.944 159.453 94.384 156.349 94.384C152.349 94.384 150.109 91.984 150.109 87.568V76.944H154.909V86.928C154.909 89.264 156.093 90.512 158.365 90.512C160.893 90.512 162.653 88.944 162.653 86.064V76.944H167.453V94ZM169.912 76.944H173.144L175.288 71.984H177.432V76.944H182.52V80.368H177.432V88.048C177.432 90.192 178.072 90.8 180.024 90.8C180.856 90.8 181.72 90.672 182.68 90.512V93.872C181.176 94.16 180.12 94.32 178.136 94.32C174.008 94.32 172.632 92.72 172.632 89.904V80.368H169.912V76.944ZM192.694 76.944H195.926L198.07 71.984H200.214V76.944H205.302V80.368H200.214V88.048C200.214 90.192 200.854 90.8 202.806 90.8C203.638 90.8 204.502 90.672 205.462 90.512V93.872C203.958 94.16 202.902 94.32 200.918 94.32C196.79 94.32 195.414 92.72 195.414 89.904V80.368H192.694V76.944ZM225.55 88.624C224.11 92.656 220.526 94.384 216.398 94.384C210.766 94.384 207.31 90.896 207.31 85.712C207.31 80.304 210.926 76.56 216.526 76.56C221.966 76.56 225.582 79.92 225.582 86.288H212.046C212.27 88.944 213.55 90.832 216.686 90.832C219.022 90.832 221.006 89.776 221.646 87.408L225.55 88.624ZM212.206 83.44H220.654C220.142 81.104 218.67 80.016 216.526 80.016C214.35 80.016 212.75 81.072 212.206 83.44ZM240.269 94L235.789 88.208L231.245 94H226.125L233.229 85.424L226.445 76.944H232.077L236.269 82.448L240.269 76.944H245.389L238.893 85.36L245.869 94H240.269ZM246.444 76.944H249.676L251.82 71.984H253.964V76.944H259.052V80.368H253.964V88.048C253.964 90.192 254.604 90.8 256.556 90.8C257.388 90.8 258.252 90.672 259.212 90.512V93.872C257.708 94.16 256.652 94.32 254.668 94.32C250.54 94.32 249.164 92.72 249.164 89.904V80.368H246.444V76.944ZM282.441 76.56C286.729 76.56 290.281 79.856 290.281 85.424C290.281 90.864 287.017 94.384 282.345 94.384C279.305 94.384 277.065 92.816 276.073 90.448H275.977V94H271.177V70.64H275.977V80.656H276.073C277.129 78.128 279.305 76.56 282.441 76.56ZM275.945 85.904C275.945 88.656 277.929 90.832 280.745 90.832C283.497 90.832 285.353 88.656 285.353 85.424C285.353 82.288 283.497 80.112 280.745 80.112C277.929 80.112 275.945 82.384 275.945 85.04V85.904ZM302.284 94.384C296.492 94.384 292.716 90.864 292.716 85.488C292.716 80.112 296.492 76.56 302.284 76.56C308.076 76.56 311.852 80.112 311.852 85.488C311.852 90.864 308.076 94.384 302.284 94.384ZM297.644 85.488C297.644 88.72 299.34 90.864 302.284 90.864C305.228 90.864 306.924 88.72 306.924 85.488C306.924 82.256 305.228 80.08 302.284 80.08C299.34 80.08 297.644 82.256 297.644 85.488ZM326.3 94L321.82 88.208L317.276 94H312.156L319.26 85.424L312.476 76.944H318.108L322.3 82.448L326.3 76.944H331.42L324.924 85.36L331.9 94H326.3ZM365.067 76.944H369.771L364.683 94H358.923L355.435 82.032L351.723 94H346.155L341.067 76.944H346.091L349.355 89.424H349.419L353.259 76.944H357.867L361.611 89.424H361.675L365.067 76.944ZM372.177 94V76.944H376.977V94H372.177ZM372.113 74.768V70.64H377.041V74.768H372.113ZM379.444 76.944H382.676L384.82 71.984H386.964V76.944H392.052V80.368H386.964V88.048C386.964 90.192 387.604 90.8 389.556 90.8C390.388 90.8 391.252 90.672 392.212 90.512V93.872C390.708 94.16 389.652 94.32 387.668 94.32C383.54 94.32 382.164 92.72 382.164 89.904V80.368H379.444V76.944ZM395.208 70.64H400.008V80.656H400.104C400.904 78.128 403.048 76.56 406.312 76.56C410.312 76.56 412.552 78.96 412.552 83.376V94H407.752V84.016C407.752 81.68 406.568 80.432 404.296 80.432C401.768 80.432 400.008 82 400.008 84.88V94H395.208V70.64ZM434.284 94.384C428.492 94.384 424.716 90.864 424.716 85.488C424.716 80.112 428.492 76.56 434.284 76.56C440.076 76.56 443.852 80.112 443.852 85.488C443.852 90.864 440.076 94.384 434.284 94.384ZM429.644 85.488C429.644 88.72 431.34 90.864 434.284 90.864C437.228 90.864 438.924 88.72 438.924 85.488C438.924 82.256 437.228 80.08 434.284 80.08C431.34 80.08 429.644 82.256 429.644 85.488ZM458.535 76.56C462.823 76.56 466.375 79.856 466.375 85.424C466.375 90.864 463.111 94.384 458.439 94.384C455.399 94.384 453.159 92.816 452.167 90.448H452.071V100.336H447.271V76.944H452.071V80.656H452.167C453.223 78.128 455.399 76.56 458.535 76.56ZM452.039 85.904C452.039 88.656 454.023 90.832 456.839 90.832C459.591 90.832 461.447 88.656 461.447 85.424C461.447 82.288 459.591 80.112 456.839 80.112C454.023 80.112 452.039 82.384 452.039 85.04V85.904ZM467.85 76.944H471.082L473.226 71.984H475.37V76.944H480.458V80.368H475.37V88.048C475.37 90.192 476.01 90.8 477.962 90.8C478.794 90.8 479.658 90.672 480.618 90.512V93.872C479.114 94.16 478.058 94.32 476.074 94.32C471.946 94.32 470.57 92.72 470.57 89.904V80.368H467.85V76.944ZM483.614 94V76.944H488.414V94H483.614ZM483.55 74.768V70.64H488.478V74.768H483.55ZM501.409 94.384C495.617 94.384 491.841 90.864 491.841 85.488C491.841 80.112 495.617 76.56 501.409 76.56C507.201 76.56 510.977 80.112 510.977 85.488C510.977 90.864 507.201 94.384 501.409 94.384ZM496.769 85.488C496.769 88.72 498.465 90.864 501.409 90.864C504.353 90.864 506.049 88.72 506.049 85.488C506.049 82.256 504.353 80.08 501.409 80.08C498.465 80.08 496.769 82.256 496.769 85.488ZM514.396 76.944H519.068V80.88H519.196C520.188 78 522.396 76.56 525.5 76.56C529.5 76.56 531.74 78.96 531.74 83.376V94H526.94V84.016C526.94 81.68 525.756 80.432 523.484 80.432C520.956 80.432 519.196 81.968 519.196 84.848V94H514.396V76.944ZM540.407 94.384C536.695 94.384 534.839 92.016 534.839 89.808C534.839 87.344 536.471 85.872 539.415 85.072L547.159 82.992V82.768C547.159 80.784 545.975 79.888 543.863 79.888C541.719 79.888 540.055 81.008 539.063 83.76L535.191 82.32C536.727 78.192 539.959 76.592 544.055 76.592C549.175 76.592 551.895 79.184 551.895 82.672V88.656C551.895 89.904 552.311 90.576 553.367 90.576C553.847 90.576 554.519 90.416 554.967 90.16V93.648C554.167 94 552.663 94.32 551.543 94.32C549.143 94.32 547.287 93.008 547.287 90.48V90.128H547.159C545.943 92.688 543.575 94.384 540.407 94.384ZM539.543 89.104C539.543 89.904 540.215 90.768 541.783 90.768C543.703 90.768 546.327 89.36 547.159 87.184V85.52L541.591 87.44C540.375 87.856 539.543 88.176 539.543 89.104ZM557.333 94V70.64H562.133V94H557.333ZM575.521 70.64H580.321V80.656H580.417C581.217 78.128 583.361 76.56 586.625 76.56C590.625 76.56 592.865 78.96 592.865 83.376V94H588.065V84.016C588.065 81.68 586.881 80.432 584.609 80.432C582.081 80.432 580.321 82 580.321 84.88V94H575.521V70.64ZM614.3 88.624C612.86 92.656 609.276 94.384 605.148 94.384C599.516 94.384 596.06 90.896 596.06 85.712C596.06 80.304 599.676 76.56 605.276 76.56C610.716 76.56 614.332 79.92 614.332 86.288H600.796C601.02 88.944 602.3 90.832 605.436 90.832C607.772 90.832 609.756 89.776 610.396 87.408L614.3 88.624ZM600.956 83.44H609.404C608.892 81.104 607.42 80.016 605.276 80.016C603.1 80.016 601.5 81.072 600.956 83.44ZM622.251 94.384C618.539 94.384 616.683 92.016 616.683 89.808C616.683 87.344 618.315 85.872 621.259 85.072L629.003 82.992V82.768C629.003 80.784 627.819 79.888 625.707 79.888C623.562 79.888 621.899 81.008 620.907 83.76L617.035 82.32C618.571 78.192 621.803 76.592 625.899 76.592C631.019 76.592 633.739 79.184 633.739 82.672V88.656C633.739 89.904 634.155 90.576 635.211 90.576C635.691 90.576 636.363 90.416 636.811 90.16V93.648C636.011 94 634.507 94.32 633.387 94.32C630.987 94.32 629.131 93.008 629.131 90.48V90.128H629.003C627.787 92.688 625.419 94.384 622.251 94.384ZM621.387 89.104C621.387 89.904 622.059 90.768 623.627 90.768C625.547 90.768 628.171 89.36 629.003 87.184V85.52L623.435 87.44C622.219 87.856 621.387 88.176 621.387 89.104ZM645.869 94.384C641.581 94.384 638.029 91.088 638.029 85.52C638.029 80.08 641.293 76.56 645.965 76.56C649.005 76.56 651.245 78.128 652.237 80.496H652.333V70.64H657.133V94H652.333V90.288H652.237C651.181 92.816 649.005 94.384 645.869 94.384ZM642.957 85.52C642.957 88.656 644.812 90.832 647.565 90.832C650.381 90.832 652.365 88.56 652.365 85.904V85.04C652.365 82.288 650.381 80.112 647.565 80.112C644.812 80.112 642.957 82.288 642.957 85.52ZM661.552 94V76.944H666.352V94H661.552ZM661.488 74.768V70.64H666.416V74.768H661.488ZM670.771 76.944H675.443V80.88H675.571C676.562 78 678.771 76.56 681.875 76.56C685.875 76.56 688.115 78.96 688.115 83.376V94H683.315V84.016C683.315 81.68 682.131 80.432 679.859 80.432C677.331 80.432 675.571 81.968 675.571 84.848V94H670.771V76.944ZM699.918 100.72C693.806 100.72 691.95 98.512 691.95 96.688C691.95 94.96 693.614 94.192 695.47 94V93.904C692.878 93.84 691.214 92.56 691.214 90.352C691.214 88.72 692.43 86.928 695.406 86.416V86.32C693.55 85.36 692.462 83.888 692.462 81.968C692.462 78.768 695.566 76.56 700.846 76.56C702.222 76.56 703.502 76.72 704.59 77.04L705.134 71.792H710.606V71.952L705.934 77.488C707.918 78.416 709.102 79.92 709.102 81.968C709.102 85.36 705.87 87.408 700.878 87.408C699.662 87.408 698.574 87.312 697.582 87.088C696.078 87.312 695.374 87.824 695.374 88.752C695.374 89.424 695.95 89.904 697.39 89.904H703.918C707.758 89.904 710.574 91.28 710.574 94.448C710.574 98.384 706.222 100.72 699.918 100.72ZM696.27 95.6C696.27 97.008 697.55 97.936 700.91 97.936C703.598 97.936 706.19 97.328 706.19 95.536C706.19 94.416 705.262 94.064 702.158 94.064H698.51C696.942 94.064 696.27 94.576 696.27 95.6ZM697.39 81.968C697.39 83.664 698.542 84.592 700.75 84.592C702.926 84.592 704.174 83.696 704.174 82C704.174 80.272 702.862 79.376 700.814 79.376C698.798 79.376 697.39 80.272 697.39 81.968Z" fill="#191326"/>
<path d="M75.092 149.716V151.9H65.236V158.788H77.416V161H62.688L62.716 158.368V143.612L62.688 140.98H77.416V143.192H65.236V149.716H75.092ZM90.0705 161L86.0385 155.092L81.9505 161H79.2625V160.944L84.6105 153.692L79.7945 147.084V147.028H82.6505L86.0665 152.124L89.5665 147.028H92.2545V147.084L87.4945 153.552L92.9545 160.944V161H90.0705ZM96.5813 150.528L95.0693 149.324C96.1053 147.896 97.8693 146.636 100.893 146.636C104.113 146.636 106.745 148.064 106.745 151.816V157.584C106.745 159.208 106.885 160.244 106.997 161H104.673C104.505 160.132 104.477 159.152 104.421 158.34H104.365C103.693 159.572 101.761 161.364 98.9893 161.364C96.9173 161.364 94.5373 160.384 94.5373 157.528C94.5373 152.488 101.369 152.264 104.421 152.236V151.788C104.421 149.548 103.105 148.54 100.753 148.54C98.8493 148.54 97.7853 149.212 96.5813 150.528ZM99.4093 159.46C101.425 159.46 104.365 158.088 104.421 153.916C101.005 153.972 97.0573 154.672 97.0573 157.416C97.0573 158.648 97.8413 159.46 99.4093 159.46ZM123.086 161H120.622L120.65 158.564V152.516C120.65 149.968 119.754 148.736 117.766 148.736C116.086 148.736 114.546 150.024 113.622 151.844V158.564L113.65 161H111.186L111.214 158.564V149.492L111.186 147.028H113.566V149.296H113.622C114.518 147.952 115.946 146.636 118.158 146.636C120.09 146.636 121.854 147.392 122.666 149.632H122.722C123.59 148.204 125.102 146.636 127.594 146.636C130.618 146.636 132.494 148.596 132.494 152.292V158.564L132.522 161H130.058L130.086 158.564V152.516C130.086 149.968 129.19 148.736 127.202 148.736C125.522 148.736 123.982 150.024 123.058 151.844V158.564L123.086 161ZM144.056 161.392C141.508 161.392 140.164 159.992 139.408 158.508H139.352V164.556L139.38 166.992H136.916L136.944 164.556V149.492L136.916 147.028H139.324V149.576H139.38C140.108 148.176 141.396 146.636 144.056 146.636C147.668 146.636 150.44 149.52 150.44 153.972C150.44 158.452 147.668 161.392 144.056 161.392ZM143.72 148.652C141.228 148.652 139.268 150.528 139.268 153.972V154.084C139.268 157.78 141.452 159.376 143.72 159.376C146.436 159.376 147.892 157.08 147.892 153.944C147.892 150.696 146.352 148.652 143.72 148.652ZM156.607 143.444V158.564L156.635 161H154.171L154.199 158.564V143.444L154.171 140.98H156.635L156.607 143.444ZM172.202 157.332L173.63 158.732C173.154 159.32 170.998 161.392 167.47 161.392C163.326 161.392 160.358 158.9 160.358 154.336C160.358 149.548 163.326 146.636 167.246 146.636C172.174 146.636 174.022 150.36 173.826 154.448H162.822C162.85 157.388 164.754 159.348 167.666 159.348C169.822 159.348 171.67 157.948 172.202 157.332ZM167.33 148.624C165.118 148.624 163.438 149.8 162.962 152.6H171.222C171.222 150.192 169.654 148.624 167.33 148.624ZM195.252 157.332L196.68 158.732C196.204 159.32 194.048 161.392 190.52 161.392C186.376 161.392 183.408 158.9 183.408 154.336C183.408 149.548 186.376 146.636 190.296 146.636C195.224 146.636 197.072 150.36 196.876 154.448H185.872C185.9 157.388 187.804 159.348 190.716 159.348C192.872 159.348 194.72 157.948 195.252 157.332ZM190.38 148.624C188.168 148.624 186.488 149.8 186.012 152.6H194.272C194.272 150.192 192.704 148.624 190.38 148.624ZM213.173 161H210.709L210.737 158.564V152.516C210.737 149.996 209.841 148.736 207.909 148.736C205.921 148.736 204.045 150.052 203.009 151.9V158.564L203.037 161H200.573L200.601 158.564V149.492L200.573 147.028H202.953V149.436H203.009C204.045 148.036 205.669 146.636 208.245 146.636C211.269 146.636 213.145 148.596 213.145 152.292V158.564L213.173 161ZM220.045 143.444V158.564L220.073 161H217.609L217.637 158.564V143.444L217.609 140.98H220.073L220.045 143.444ZM225.671 150.528L224.159 149.324C225.195 147.896 226.959 146.636 229.983 146.636C233.203 146.636 235.835 148.064 235.835 151.816V157.584C235.835 159.208 235.975 160.244 236.087 161H233.763C233.595 160.132 233.567 159.152 233.511 158.34H233.455C232.783 159.572 230.851 161.364 228.079 161.364C226.007 161.364 223.627 160.384 223.627 157.528C223.627 152.488 230.459 152.264 233.511 152.236V151.788C233.511 149.548 232.195 148.54 229.843 148.54C227.939 148.54 226.875 149.212 225.671 150.528ZM228.499 159.46C230.515 159.46 233.455 158.088 233.511 153.916C230.095 153.972 226.147 154.672 226.147 157.416C226.147 158.648 226.931 159.46 228.499 159.46ZM240.276 161L240.304 158.564V149.492L240.276 147.028H242.656V151.76H242.712C243.944 148.092 246.1 146.636 248.116 146.636C248.312 146.636 248.564 146.664 248.676 146.692V148.96C248.48 148.932 248.284 148.932 248.116 148.932C245.12 148.932 242.992 152.964 242.712 155.484V158.564L242.74 161H240.276ZM256.589 156.016C255.609 156.016 254.713 155.876 253.957 155.624C253.369 155.792 252.921 156.352 252.921 156.968C252.921 157.976 254.013 158.592 255.581 158.62L259.389 158.704C262.917 158.788 264.457 160.3 264.457 162.568C264.457 165.956 260.845 167.132 256.673 167.132C252.893 167.132 249.841 166.152 249.841 163.604C249.841 162.232 250.709 160.804 252.781 160.356V160.3C251.661 159.852 250.653 159.012 250.653 157.64C250.653 156.324 251.521 155.428 252.557 154.924C251.437 154.112 250.821 152.88 250.821 151.368C250.821 148.512 253.033 146.636 256.617 146.636C258.269 146.636 259.613 147.056 260.593 147.756C261.181 146.804 262.077 145.852 263.673 145.852C264.233 145.852 264.513 145.964 264.709 146.048V148.008C264.317 147.924 263.897 147.868 263.561 147.868C262.777 147.868 262.021 148.148 261.685 148.876C262.133 149.548 262.385 150.388 262.385 151.312C262.385 154.168 260.145 156.016 256.589 156.016ZM259.389 160.86L254.825 160.748C253.509 161.168 252.249 162.008 252.249 163.24C252.249 164.444 253.481 165.312 257.065 165.312C260.397 165.312 262.077 164.584 262.077 162.932C262.077 162.232 261.769 160.916 259.389 160.86ZM256.589 154.196C258.829 154.196 260.117 153.272 260.117 151.34C260.117 149.408 258.829 148.456 256.589 148.456C254.377 148.456 253.089 149.408 253.089 151.34C253.089 153.272 254.377 154.196 256.589 154.196ZM278.131 157.332L279.559 158.732C279.083 159.32 276.927 161.392 273.399 161.392C269.255 161.392 266.287 158.9 266.287 154.336C266.287 149.548 269.255 146.636 273.175 146.636C278.103 146.636 279.951 150.36 279.755 154.448H268.751C268.779 157.388 270.683 159.348 273.595 159.348C275.751 159.348 277.599 157.948 278.131 157.332ZM273.259 148.624C271.047 148.624 269.367 149.8 268.891 152.6H277.151C277.151 150.192 275.583 148.624 273.259 148.624ZM288.996 161.392C285.356 161.392 282.612 158.48 282.612 154C282.612 149.548 285.356 146.636 288.996 146.636C291.628 146.636 292.888 148.12 293.616 149.464H293.672V143.444L293.644 140.98H296.108L296.08 143.444V158.592L296.108 161H293.756V158.396H293.7C292.916 159.964 291.572 161.392 288.996 161.392ZM289.304 148.652C286.672 148.652 285.132 150.696 285.132 153.972C285.132 157.164 286.588 159.376 289.276 159.376C291.572 159.376 293.756 157.78 293.756 154.084V153.972C293.756 150.5 291.796 148.652 289.304 148.652ZM317.373 156.772L319.305 157.724C319.025 158.396 317.177 161.392 313.313 161.392C309.869 161.392 306.509 159.012 306.509 154.14C306.509 149.828 309.169 146.636 313.369 146.636C317.625 146.636 318.997 149.912 319.137 150.164L317.037 151.144C316.673 150.276 315.441 148.652 313.257 148.652C310.905 148.652 309.029 150.556 309.029 153.944C309.029 157.332 310.905 159.348 313.341 159.348C315.665 159.348 317.037 157.5 317.373 156.772ZM323.589 150.528L322.077 149.324C323.113 147.896 324.877 146.636 327.901 146.636C331.121 146.636 333.753 148.064 333.753 151.816V157.584C333.753 159.208 333.893 160.244 334.005 161H331.681C331.513 160.132 331.485 159.152 331.429 158.34H331.373C330.701 159.572 328.769 161.364 325.997 161.364C323.925 161.364 321.545 160.384 321.545 157.528C321.545 152.488 328.377 152.264 331.429 152.236V151.788C331.429 149.548 330.113 148.54 327.761 148.54C325.857 148.54 324.793 149.212 323.589 150.528ZM326.417 159.46C328.433 159.46 331.373 158.088 331.429 153.916C328.013 153.972 324.065 154.672 324.065 157.416C324.065 158.648 324.849 159.46 326.417 159.46ZM340.658 143.444V158.564L340.686 161H338.222L338.25 158.564V143.444L338.222 140.98H340.686L340.658 143.444ZM347.712 143.444V158.564L347.74 161H345.276L345.304 158.564V143.444L345.276 140.98H347.74L347.712 143.444ZM358.519 161.392C354.179 161.392 351.407 157.892 351.407 154.028C351.407 150.136 354.179 146.636 358.519 146.636C362.859 146.636 365.631 150.136 365.631 154.028C365.631 157.892 362.859 161.392 358.519 161.392ZM358.519 159.376C361.011 159.376 363.111 157.416 363.111 154.028C363.111 150.64 361.011 148.652 358.519 148.652C355.999 148.652 353.927 150.64 353.927 154.028C353.927 157.416 355.999 159.376 358.519 159.376ZM369.116 147.028H371.58L371.552 149.464V155.512C371.552 158.032 372.448 159.292 374.38 159.292C376.368 159.292 378.216 157.976 379.28 156.128V149.464L379.252 147.028H381.716L381.688 149.464V158.536L381.716 161H379.336V158.592H379.28C378.244 160.02 376.62 161.392 374.044 161.392C371.02 161.392 369.144 159.432 369.144 155.736V149.464L369.116 147.028ZM393.572 147.028V148.96H389.736V157.584C389.736 158.816 390.044 159.404 391.36 159.404C392.284 159.404 393.152 159.124 393.684 158.928V160.916C393.124 161.112 392.312 161.392 390.968 161.392C388.952 161.392 387.328 160.748 387.328 157.78V148.96H384.696V147.028H387.384L387.72 143.052H389.736V147.028H393.572ZM410.607 147.028V148.96H406.771V157.584C406.771 158.816 407.079 159.404 408.395 159.404C409.319 159.404 410.187 159.124 410.719 158.928V160.916C410.159 161.112 409.347 161.392 408.003 161.392C405.987 161.392 404.363 160.748 404.363 157.78V148.96H401.731V147.028H404.419L404.755 143.052H406.771V147.028H410.607ZM424.967 157.332L426.395 158.732C425.919 159.32 423.763 161.392 420.235 161.392C416.091 161.392 413.123 158.9 413.123 154.336C413.123 149.548 416.091 146.636 420.011 146.636C424.939 146.636 426.787 150.36 426.591 154.448H415.587C415.615 157.388 417.519 159.348 420.431 159.348C422.587 159.348 424.435 157.948 424.967 157.332ZM420.095 148.624C417.883 148.624 416.203 149.8 415.727 152.6H423.987C423.987 150.192 422.419 148.624 420.095 148.624ZM439.113 161L435.081 155.092L430.993 161H428.305V160.944L433.653 153.692L428.837 147.084V147.028H431.693L435.109 152.124L438.609 147.028H441.297V147.084L436.537 153.552L441.997 160.944V161H439.113ZM452.06 147.028V148.96H448.224V157.584C448.224 158.816 448.532 159.404 449.848 159.404C450.772 159.404 451.64 159.124 452.172 158.928V160.916C451.612 161.112 450.8 161.392 449.456 161.392C447.44 161.392 445.816 160.748 445.816 157.78V148.96H443.184V147.028H445.872L446.208 143.052H448.224V147.028H452.06ZM468.496 161.392C464.156 161.392 461.384 157.892 461.384 154.028C461.384 150.136 464.156 146.636 468.496 146.636C472.836 146.636 475.608 150.136 475.608 154.028C475.608 157.892 472.836 161.392 468.496 161.392ZM468.496 159.376C470.988 159.376 473.088 157.416 473.088 154.028C473.088 150.64 470.988 148.652 468.496 148.652C465.976 148.652 463.904 150.64 463.904 154.028C463.904 157.416 465.976 159.376 468.496 159.376ZM486.4 161.392C483.852 161.392 482.508 159.992 481.752 158.508H481.696V164.556L481.724 166.992H479.26L479.288 164.556V149.492L479.26 147.028H481.668V149.576H481.724C482.452 148.176 483.74 146.636 486.4 146.636C490.012 146.636 492.784 149.52 492.784 153.972C492.784 158.452 490.012 161.392 486.4 161.392ZM486.064 148.652C483.572 148.652 481.612 150.528 481.612 153.972V154.084C481.612 157.78 483.796 159.376 486.064 159.376C488.78 159.376 490.236 157.08 490.236 153.944C490.236 150.696 488.696 148.652 486.064 148.652ZM503.576 147.028V148.96H499.74V157.584C499.74 158.816 500.048 159.404 501.364 159.404C502.288 159.404 503.156 159.124 503.688 158.928V160.916C503.128 161.112 502.316 161.392 500.972 161.392C498.956 161.392 497.332 160.748 497.332 157.78V148.96H494.7V147.028H497.388L497.724 143.052H499.74V147.028H503.576ZM509.533 161H507.069L507.097 158.564V149.492L507.069 147.028H509.533L509.505 149.492V158.564L509.533 161ZM509.505 144.088H507.097V140.98H509.505V144.088ZM520.285 161.392C515.945 161.392 513.173 157.892 513.173 154.028C513.173 150.136 515.945 146.636 520.285 146.636C524.625 146.636 527.397 150.136 527.397 154.028C527.397 157.892 524.625 161.392 520.285 161.392ZM520.285 159.376C522.777 159.376 524.877 157.416 524.877 154.028C524.877 150.64 522.777 148.652 520.285 148.652C517.765 148.652 515.693 150.64 515.693 154.028C515.693 157.416 517.765 159.376 520.285 159.376ZM543.649 161H541.185L541.213 158.564V152.516C541.213 149.996 540.317 148.736 538.385 148.736C536.397 148.736 534.521 150.052 533.485 151.9V158.564L533.513 161H531.049L531.077 158.564V149.492L531.049 147.028H533.429V149.436H533.485C534.521 148.036 536.145 146.636 538.721 146.636C541.745 146.636 543.621 148.596 543.621 152.292V158.564L543.649 161ZM547.833 161V157.892H551.109V161H547.833ZM575.681 143.192H569.045V158.368L569.073 161H566.497L566.525 158.368V143.192H559.889V140.98H575.681V143.192ZM586.76 157.332L588.188 158.732C587.712 159.32 585.556 161.392 582.028 161.392C577.884 161.392 574.916 158.9 574.916 154.336C574.916 149.548 577.884 146.636 581.804 146.636C586.732 146.636 588.58 150.36 588.384 154.448H577.38C577.408 157.388 579.312 159.348 582.224 159.348C584.38 159.348 586.228 157.948 586.76 157.332ZM581.888 148.624C579.676 148.624 577.996 149.8 577.52 152.6H585.78C585.78 150.192 584.212 148.624 581.888 148.624ZM600.906 161L596.874 155.092L592.786 161H590.098V160.944L595.446 153.692L590.63 147.084V147.028H593.486L596.902 152.124L600.402 147.028H603.09V147.084L598.33 153.552L603.79 160.944V161H600.906ZM613.853 147.028V148.96H610.017V157.584C610.017 158.816 610.325 159.404 611.641 159.404C612.565 159.404 613.433 159.124 613.965 158.928V160.916C613.405 161.112 612.593 161.392 611.249 161.392C609.233 161.392 607.609 160.748 607.609 157.78V148.96H604.977V147.028H607.665L608.001 143.052H610.017V147.028H613.853ZM634.069 156.772L636.001 157.724C635.721 158.396 633.873 161.392 630.009 161.392C626.565 161.392 623.205 159.012 623.205 154.14C623.205 149.828 625.865 146.636 630.065 146.636C634.321 146.636 635.693 149.912 635.833 150.164L633.733 151.144C633.369 150.276 632.137 148.652 629.953 148.652C627.601 148.652 625.725 150.556 625.725 153.944C625.725 157.332 627.601 159.348 630.037 159.348C632.361 159.348 633.733 157.5 634.069 156.772ZM640.284 150.528L638.772 149.324C639.808 147.896 641.572 146.636 644.596 146.636C647.816 146.636 650.448 148.064 650.448 151.816V157.584C650.448 159.208 650.588 160.244 650.7 161H648.376C648.208 160.132 648.18 159.152 648.124 158.34H648.068C647.396 159.572 645.464 161.364 642.692 161.364C640.62 161.364 638.24 160.384 638.24 157.528C638.24 152.488 645.072 152.264 648.124 152.236V151.788C648.124 149.548 646.808 148.54 644.456 148.54C642.552 148.54 641.488 149.212 640.284 150.528ZM643.112 159.46C645.128 159.46 648.068 158.088 648.124 153.916C644.708 153.972 640.76 154.672 640.76 157.416C640.76 158.648 641.544 159.46 643.112 159.46ZM667.489 161H665.025L665.053 158.564V152.516C665.053 149.996 664.157 148.736 662.225 148.736C660.237 148.736 658.361 150.052 657.325 151.9V158.564L657.353 161H654.889L654.917 158.564V149.492L654.889 147.028H657.269V149.436H657.325C658.361 148.036 659.985 146.636 662.561 146.636C665.585 146.636 667.461 148.596 667.461 152.292V158.564L667.489 161ZM680.695 161H678.623L678.651 158.592V143.444L678.623 140.98H681.087L681.059 143.444V149.436H681.115C681.927 147.896 683.327 146.636 685.791 146.636C689.543 146.636 692.119 149.716 692.119 154.056C692.119 158.816 689.011 161.392 685.707 161.392C682.935 161.392 681.675 159.628 681.031 158.396H680.975L680.695 161ZM685.427 148.652C682.935 148.652 680.975 150.5 680.975 153.972V154.084C680.975 157.78 683.243 159.376 685.483 159.376C688.143 159.376 689.599 157.136 689.599 153.972C689.599 150.696 688.059 148.652 685.427 148.652ZM706.827 157.332L708.255 158.732C707.779 159.32 705.623 161.392 702.095 161.392C697.951 161.392 694.983 158.9 694.983 154.336C694.983 149.548 697.951 146.636 701.871 146.636C706.799 146.636 708.647 150.36 708.451 154.448H697.447C697.475 157.388 699.379 159.348 702.291 159.348C704.447 159.348 706.295 157.948 706.827 157.332ZM701.955 148.624C699.743 148.624 698.063 149.8 697.587 152.6H705.847C705.847 150.192 704.279 148.624 701.955 148.624ZM721.561 161H718.313C718.313 160.748 718.341 158.676 718.341 158.424V143.584L718.313 140.98H722.877L722.849 143.584V148.176H722.905C724.109 146.804 725.537 146.244 727.217 146.244C730.941 146.244 733.461 149.016 733.461 153.804C733.461 158.956 730.521 161.42 726.853 161.42C723.997 161.42 722.597 159.936 722.009 159.04H721.953L721.561 161ZM725.817 158.48C728.029 158.48 728.757 156.52 728.757 153.86C728.757 150.976 727.917 149.212 725.817 149.212C724.249 149.212 723.269 150.22 722.849 151.424V155.288C722.849 157.276 724.081 158.48 725.817 158.48ZM743.281 161.476C738.493 161.476 735.413 157.948 735.413 153.86C735.413 149.716 738.493 146.216 743.281 146.216C748.069 146.216 751.121 149.716 751.121 153.86C751.121 157.948 748.069 161.476 743.281 161.476ZM743.281 158.48C745.129 158.48 746.417 157.08 746.417 153.86C746.417 150.612 745.129 149.212 743.281 149.212C741.405 149.212 740.117 150.612 740.117 153.86C740.117 157.08 741.405 158.48 743.281 158.48ZM758.342 143.584V158.396C758.342 158.424 758.37 161 758.37 161H753.806C753.806 161 753.834 158.424 753.834 158.396V143.584L753.806 140.98H758.37L758.342 143.584ZM767.249 161.42C763.861 161.42 761.117 158.816 761.117 153.86C761.117 148.904 763.861 146.244 767.585 146.244C769.741 146.244 770.805 146.972 771.673 147.952H771.729V143.584L771.701 140.98H776.265L776.237 143.584V158.424L776.265 161H771.869V159.264H771.813C770.917 160.384 769.489 161.42 767.249 161.42ZM768.845 158.48C770.161 158.48 771.253 157.5 771.729 156.352V151.424C771.309 150.164 770.189 149.212 768.873 149.212C766.689 149.212 765.821 150.864 765.821 153.832C765.821 156.856 766.717 158.48 768.845 158.48ZM780.233 161V157.892H783.509V161L780.905 165.284H779.253L781.633 161H780.233ZM892.488 161.392C888.148 161.392 885.376 157.892 885.376 154.028C885.376 150.136 888.148 146.636 892.488 146.636C896.828 146.636 899.6 150.136 899.6 154.028C899.6 157.892 896.828 161.392 892.488 161.392ZM892.488 159.376C894.98 159.376 897.08 157.416 897.08 154.028C897.08 150.64 894.98 148.652 892.488 148.652C889.968 148.652 887.896 150.64 887.896 154.028C887.896 157.416 889.968 159.376 892.488 159.376ZM903.252 161L903.28 158.564V149.492L903.252 147.028H905.632V151.76H905.688C906.92 148.092 909.076 146.636 911.092 146.636C911.288 146.636 911.54 146.664 911.652 146.692V148.96C911.456 148.932 911.26 148.932 911.092 148.932C908.096 148.932 905.968 152.964 905.688 155.484V158.564L905.716 161H903.252ZM64.732 199H62.268L62.296 196.564V187.492L62.268 185.028H64.732L64.704 187.492V196.564L64.732 199ZM64.704 182.088H62.296V178.98H64.704V182.088ZM81.868 199H79.404L79.432 196.564V190.516C79.432 187.996 78.536 186.736 76.604 186.736C74.616 186.736 72.74 188.052 71.704 189.9V196.564L71.732 199H69.268L69.296 196.564V187.492L69.268 185.028H71.648V187.436H71.704C72.74 186.036 74.364 184.636 76.94 184.636C79.964 184.636 81.84 186.596 81.84 190.292V196.564L81.868 199ZM96.2718 194.772L98.2038 195.724C97.9238 196.396 96.0758 199.392 92.2118 199.392C88.7678 199.392 85.4078 197.012 85.4078 192.14C85.4078 187.828 88.0678 184.636 92.2678 184.636C96.5238 184.636 97.8958 187.912 98.0358 188.164L95.9358 189.144C95.5718 188.276 94.3398 186.652 92.1558 186.652C89.8038 186.652 87.9278 188.556 87.9278 191.944C87.9278 195.332 89.8038 197.348 92.2398 197.348C94.5638 197.348 95.9358 195.5 96.2718 194.772ZM103.916 181.444V196.564L103.944 199H101.48L101.508 196.564V181.444L101.48 178.98H103.944L103.916 181.444ZM108.338 185.028H110.802L110.774 187.464V193.512C110.774 196.032 111.67 197.292 113.602 197.292C115.59 197.292 117.438 195.976 118.502 194.128V187.464L118.474 185.028H120.938L120.91 187.464V196.536L120.938 199H118.558V196.592H118.502C117.466 198.02 115.842 199.392 113.266 199.392C110.242 199.392 108.366 197.432 108.366 193.736V187.464L108.338 185.028ZM131.031 199.392C127.391 199.392 124.647 196.48 124.647 192C124.647 187.548 127.391 184.636 131.031 184.636C133.663 184.636 134.923 186.12 135.651 187.464H135.707V181.444L135.679 178.98H138.143L138.115 181.444V196.592L138.143 199H135.791V196.396H135.735C134.951 197.964 133.607 199.392 131.031 199.392ZM131.339 186.652C128.707 186.652 127.167 188.696 127.167 191.972C127.167 195.164 128.623 197.376 131.311 197.376C133.607 197.376 135.791 195.78 135.791 192.084V191.972C135.791 188.5 133.831 186.652 131.339 186.652ZM153.69 195.332L155.118 196.732C154.642 197.32 152.486 199.392 148.958 199.392C144.814 199.392 141.846 196.9 141.846 192.336C141.846 187.548 144.814 184.636 148.734 184.636C153.662 184.636 155.51 188.36 155.314 192.448H144.31C144.338 195.388 146.242 197.348 149.154 197.348C151.31 197.348 153.158 195.948 153.69 195.332ZM148.818 186.624C146.606 186.624 144.926 187.8 144.45 190.6H152.71C152.71 188.192 151.142 186.624 148.818 186.624ZM166.773 188.528L165.261 187.324C166.297 185.896 168.061 184.636 171.085 184.636C174.305 184.636 176.937 186.064 176.937 189.816V195.584C176.937 197.208 177.077 198.244 177.189 199H174.865C174.697 198.132 174.669 197.152 174.613 196.34H174.557C173.885 197.572 171.953 199.364 169.181 199.364C167.109 199.364 164.729 198.384 164.729 195.528C164.729 190.488 171.561 190.264 174.613 190.236V189.788C174.613 187.548 173.297 186.54 170.945 186.54C169.041 186.54 167.977 187.212 166.773 188.528ZM169.601 197.46C171.617 197.46 174.557 196.088 174.613 191.916C171.197 191.972 167.249 192.672 167.249 195.416C167.249 196.648 168.033 197.46 169.601 197.46ZM190.54 181.444V187.38H190.596C191.632 185.98 193.256 184.636 195.776 184.636C198.8 184.636 200.676 186.596 200.676 190.292V196.564L200.704 199H198.24L198.268 196.564V190.516C198.268 187.996 197.372 186.736 195.44 186.736C193.452 186.736 191.576 188.052 190.54 189.9V196.564L190.568 199H188.104L188.132 196.564V181.444L188.104 178.98H190.568L190.54 181.444ZM216.116 195.332L217.544 196.732C217.068 197.32 214.912 199.392 211.384 199.392C207.24 199.392 204.272 196.9 204.272 192.336C204.272 187.548 207.24 184.636 211.16 184.636C216.088 184.636 217.936 188.36 217.74 192.448H206.736C206.764 195.388 208.668 197.348 211.58 197.348C213.736 197.348 215.584 195.948 216.116 195.332ZM211.244 186.624C209.032 186.624 207.352 187.8 206.876 190.6H215.136C215.136 188.192 213.568 186.624 211.244 186.624ZM222.472 188.528L220.96 187.324C221.996 185.896 223.76 184.636 226.784 184.636C230.004 184.636 232.636 186.064 232.636 189.816V195.584C232.636 197.208 232.776 198.244 232.888 199H230.564C230.396 198.132 230.368 197.152 230.312 196.34H230.256C229.584 197.572 227.652 199.364 224.88 199.364C222.808 199.364 220.428 198.384 220.428 195.528C220.428 190.488 227.26 190.264 230.312 190.236V189.788C230.312 187.548 228.996 186.54 226.644 186.54C224.74 186.54 223.676 187.212 222.472 188.528ZM225.3 197.46C227.316 197.46 230.256 196.088 230.312 191.916C226.896 191.972 222.948 192.672 222.948 195.416C222.948 196.648 223.732 197.46 225.3 197.46ZM242.621 199.392C238.981 199.392 236.237 196.48 236.237 192C236.237 187.548 238.981 184.636 242.621 184.636C245.253 184.636 246.513 186.12 247.241 187.464H247.297V181.444L247.269 178.98H249.733L249.705 181.444V196.592L249.733 199H247.381V196.396H247.325C246.541 197.964 245.197 199.392 242.621 199.392ZM242.929 186.652C240.297 186.652 238.757 188.696 238.757 191.972C238.757 195.164 240.213 197.376 242.901 197.376C245.197 197.376 247.381 195.78 247.381 192.084V191.972C247.381 188.5 245.421 186.652 242.929 186.652ZM256.74 199H254.276L254.304 196.564V187.492L254.276 185.028H256.74L256.712 187.492V196.564L256.74 199ZM256.712 182.088H254.304V178.98H256.712V182.088ZM273.876 199H271.412L271.44 196.564V190.516C271.44 187.996 270.544 186.736 268.612 186.736C266.624 186.736 264.748 188.052 263.712 189.9V196.564L263.74 199H261.276L261.304 196.564V187.492L261.276 185.028H263.656V187.436H263.712C264.748 186.036 266.372 184.636 268.948 184.636C271.972 184.636 273.848 186.596 273.848 190.292V196.564L273.876 199ZM283.632 194.016C282.652 194.016 281.756 193.876 281 193.624C280.412 193.792 279.964 194.352 279.964 194.968C279.964 195.976 281.056 196.592 282.624 196.62L286.432 196.704C289.96 196.788 291.5 198.3 291.5 200.568C291.5 203.956 287.888 205.132 283.716 205.132C279.936 205.132 276.884 204.152 276.884 201.604C276.884 200.232 277.752 198.804 279.824 198.356V198.3C278.704 197.852 277.696 197.012 277.696 195.64C277.696 194.324 278.564 193.428 279.6 192.924C278.48 192.112 277.864 190.88 277.864 189.368C277.864 186.512 280.076 184.636 283.66 184.636C285.312 184.636 286.656 185.056 287.636 185.756C288.224 184.804 289.12 183.852 290.716 183.852C291.276 183.852 291.556 183.964 291.752 184.048V186.008C291.36 185.924 290.94 185.868 290.604 185.868C289.82 185.868 289.064 186.148 288.728 186.876C289.176 187.548 289.428 188.388 289.428 189.312C289.428 192.168 287.188 194.016 283.632 194.016ZM286.432 198.86L281.868 198.748C280.552 199.168 279.292 200.008 279.292 201.24C279.292 202.444 280.524 203.312 284.108 203.312C287.44 203.312 289.12 202.584 289.12 200.932C289.12 200.232 288.812 198.916 286.432 198.86ZM283.632 192.196C285.872 192.196 287.16 191.272 287.16 189.34C287.16 187.408 285.872 186.456 283.632 186.456C281.42 186.456 280.132 187.408 280.132 189.34C280.132 191.272 281.42 192.196 283.632 192.196ZM302.261 188.528L300.749 187.324C301.785 185.896 303.549 184.636 306.573 184.636C309.793 184.636 312.425 186.064 312.425 189.816V195.584C312.425 197.208 312.565 198.244 312.677 199H310.353C310.185 198.132 310.157 197.152 310.101 196.34H310.045C309.373 197.572 307.441 199.364 304.669 199.364C302.597 199.364 300.217 198.384 300.217 195.528C300.217 190.488 307.049 190.264 310.101 190.236V189.788C310.101 187.548 308.785 186.54 306.433 186.54C304.529 186.54 303.465 187.212 302.261 188.528ZM305.089 197.46C307.105 197.46 310.045 196.088 310.101 191.916C306.685 191.972 302.737 192.672 302.737 195.416C302.737 196.648 303.521 197.46 305.089 197.46ZM329.466 199H327.002L327.03 196.564V190.516C327.03 187.996 326.134 186.736 324.202 186.736C322.214 186.736 320.338 188.052 319.302 189.9V196.564L319.33 199H316.866L316.894 196.564V187.492L316.866 185.028H319.246V187.436H319.302C320.338 186.036 321.962 184.636 324.538 184.636C327.562 184.636 329.438 186.596 329.438 190.292V196.564L329.466 199ZM339.417 199.392C335.777 199.392 333.033 196.48 333.033 192C333.033 187.548 335.777 184.636 339.417 184.636C342.049 184.636 343.309 186.12 344.037 187.464H344.093V181.444L344.065 178.98H346.529L346.501 181.444V196.592L346.529 199H344.177V196.396H344.121C343.337 197.964 341.993 199.392 339.417 199.392ZM339.725 186.652C337.093 186.652 335.553 188.696 335.553 191.972C335.553 195.164 337.009 197.376 339.697 197.376C341.993 197.376 344.177 195.78 344.177 192.084V191.972C344.177 188.5 342.217 186.652 339.725 186.652ZM358.835 188.528L357.323 187.324C358.359 185.896 360.123 184.636 363.147 184.636C366.367 184.636 368.999 186.064 368.999 189.816V195.584C368.999 197.208 369.139 198.244 369.251 199H366.927C366.759 198.132 366.731 197.152 366.675 196.34H366.619C365.947 197.572 364.015 199.364 361.243 199.364C359.171 199.364 356.791 198.384 356.791 195.528C356.791 190.488 363.623 190.264 366.675 190.236V189.788C366.675 187.548 365.359 186.54 363.007 186.54C361.103 186.54 360.039 187.212 358.835 188.528ZM361.663 197.46C363.679 197.46 366.619 196.088 366.675 191.916C363.259 191.972 359.311 192.672 359.311 195.416C359.311 196.648 360.095 197.46 361.663 197.46ZM382.238 199H380.166L380.194 196.592V181.444L380.166 178.98H382.63L382.602 181.444V187.436H382.658C383.47 185.896 384.87 184.636 387.334 184.636C391.086 184.636 393.662 187.716 393.662 192.056C393.662 196.816 390.554 199.392 387.25 199.392C384.478 199.392 383.218 197.628 382.574 196.396H382.518L382.238 199ZM386.97 186.652C384.478 186.652 382.518 188.5 382.518 191.972V192.084C382.518 195.78 384.786 197.376 387.026 197.376C389.686 197.376 391.142 195.136 391.142 191.972C391.142 188.696 389.602 186.652 386.97 186.652ZM397.198 185.028H399.662L399.634 187.464V193.512C399.634 196.032 400.53 197.292 402.462 197.292C404.45 197.292 406.298 195.976 407.362 194.128V187.464L407.334 185.028H409.798L409.77 187.464V196.536L409.798 199H407.418V196.592H407.362C406.326 198.02 404.702 199.392 402.126 199.392C399.102 199.392 397.226 197.432 397.226 193.736V187.464L397.198 185.028ZM421.654 185.028V186.96H417.818V195.584C417.818 196.816 418.126 197.404 419.442 197.404C420.366 197.404 421.234 197.124 421.766 196.928V198.916C421.206 199.112 420.394 199.392 419.05 199.392C417.034 199.392 415.41 198.748 415.41 195.78V186.96H412.778V185.028H415.466L415.802 181.052H417.818V185.028H421.654ZM432.455 185.028V186.96H428.619V195.584C428.619 196.816 428.927 197.404 430.243 197.404C431.167 197.404 432.035 197.124 432.567 196.928V198.916C432.007 199.112 431.195 199.392 429.851 199.392C427.835 199.392 426.211 198.748 426.211 195.78V186.96H423.579V185.028H426.267L426.603 181.052H428.619V185.028H432.455ZM442.027 199.392C437.687 199.392 434.915 195.892 434.915 192.028C434.915 188.136 437.687 184.636 442.027 184.636C446.367 184.636 449.139 188.136 449.139 192.028C449.139 195.892 446.367 199.392 442.027 199.392ZM442.027 197.376C444.519 197.376 446.619 195.416 446.619 192.028C446.619 188.64 444.519 186.652 442.027 186.652C439.507 186.652 437.435 188.64 437.435 192.028C437.435 195.416 439.507 197.376 442.027 197.376ZM465.391 199H462.927L462.955 196.564V190.516C462.955 187.996 462.059 186.736 460.127 186.736C458.139 186.736 456.263 188.052 455.227 189.9V196.564L455.255 199H452.791L452.819 196.564V187.492L452.791 185.028H455.171V187.436H455.227C456.263 186.036 457.887 184.636 460.463 184.636C463.487 184.636 465.363 186.596 465.363 190.292V196.564L465.391 199ZM469.575 199V195.892H472.851V199H469.575Z" fill="#191326"/>
<path d="M798.674 143.584V158.396C798.674 158.424 798.702 161 798.702 161H794.138C794.138 161 794.166 158.424 794.166 158.396V143.584L794.138 140.98H798.702L798.674 143.584ZM806.713 161H802.149L802.177 158.396V149.268L802.149 146.664H806.713L806.685 149.268V158.396L806.713 161ZM806.685 144.872H802.177V140.98H806.685V144.872ZM824.47 161H819.906L819.934 158.396V152.208C819.934 150.472 819.262 149.632 817.974 149.632C816.714 149.632 815.454 150.444 814.642 151.648V158.396L814.67 161H810.106L810.134 158.396V149.268L810.106 146.664H814.474V148.876H814.53C815.874 147.224 817.666 146.244 819.822 146.244C822.65 146.244 824.442 147.84 824.442 151.256V158.396L824.47 161ZM843.227 161H838.159L834.491 154.756L832.307 156.856V158.34C832.307 158.396 832.335 161 832.335 161H827.771L827.799 158.34V143.64L827.771 140.98H832.335L832.307 143.64V152.432H832.363L837.879 146.664H842.919V146.72L837.571 151.788L843.227 160.944V161ZM854.873 156.716L858.289 157.92C857.505 159.236 855.405 161.476 851.233 161.476C846.697 161.476 843.477 158.816 843.477 154.084C843.477 149.184 846.753 146.216 851.009 146.216C856.497 146.216 858.625 150.444 858.513 154.616H847.733C847.845 157.332 849.301 158.48 851.345 158.48C853.081 158.48 854.341 157.472 854.873 156.716ZM851.037 149.044C849.357 149.044 848.209 149.996 847.845 152.18H854.005C854.005 150.416 853.025 149.044 851.037 149.044ZM866.562 161.42C863.174 161.42 860.43 158.816 860.43 153.86C860.43 148.904 863.174 146.244 866.898 146.244C869.054 146.244 870.118 146.972 870.986 147.952H871.042V143.584L871.014 140.98H875.578L875.55 143.584V158.424L875.578 161H871.182V159.264H871.126C870.23 160.384 868.802 161.42 866.562 161.42ZM868.158 158.48C869.474 158.48 870.566 157.5 871.042 156.352V151.424C870.622 150.164 869.502 149.212 868.186 149.212C866.002 149.212 865.134 150.864 865.134 153.832C865.134 156.856 866.03 158.48 868.158 158.48Z" fill="#6300C7"/>
<path d="M792.43 164.724H877.286V165.284H792.43V164.724Z" fill="#6300C7"/>
<rect x="60" y="236" width="230" height="60" rx="30" fill="#6300C7"/>
<path d="M95.128 272.342C91.132 272.342 88.702 269.282 88.702 265.556C88.702 261.848 91.132 258.788 95.128 258.788C99.106 258.788 101.572 261.848 101.572 265.556C101.572 269.282 99.106 272.342 95.128 272.342ZM95.128 270.074C96.892 270.074 98.116 268.688 98.116 265.556C98.116 262.442 96.892 261.056 95.128 261.056C93.364 261.056 92.14 262.442 92.14 265.556C92.14 268.688 93.364 270.074 95.128 270.074ZM108.807 272.27C107.637 272.27 106.863 271.838 106.323 271.19H106.287V273.962L106.305 275.618H103.371L103.389 273.962V264.458L103.371 262.784H106.197V263.882H106.233C106.809 263.18 107.673 262.514 109.113 262.514C111.291 262.514 113.109 264.17 113.109 267.32C113.109 270.524 111.381 272.27 108.807 272.27ZM108.141 270.38C109.509 270.38 110.085 269.336 110.085 267.392C110.085 265.484 109.527 264.422 108.123 264.422C107.277 264.422 106.557 265.034 106.287 265.844V269.012C106.593 269.75 107.295 270.38 108.141 270.38ZM120.559 262.784V264.746H118.345V269.138C118.345 269.876 118.561 270.182 119.353 270.182C119.767 270.182 120.289 270.056 120.613 269.966V271.91C120.181 272.144 119.461 272.306 118.543 272.306C116.419 272.306 115.447 271.568 115.447 269.354V264.746H113.917V262.784H115.537L115.825 259.904H118.345V262.784H120.559ZM125.184 272H122.25L122.268 270.326V264.458L122.25 262.784H125.184L125.166 264.458V270.326L125.184 272ZM125.166 261.632H122.268V259.13H125.166V261.632ZM131.938 272.306C128.86 272.306 126.88 270.038 126.88 267.41C126.88 264.746 128.86 262.496 131.938 262.496C135.016 262.496 136.978 264.746 136.978 267.41C136.978 270.038 135.016 272.306 131.938 272.306ZM131.938 270.38C133.126 270.38 133.954 269.48 133.954 267.41C133.954 265.322 133.126 264.422 131.938 264.422C130.732 264.422 129.904 265.322 129.904 267.41C129.904 269.48 130.732 270.38 131.938 270.38ZM147.937 272H145.003L145.021 270.326V266.348C145.021 265.232 144.589 264.692 143.761 264.692C142.951 264.692 142.141 265.214 141.619 265.988V270.326L141.637 272H138.703L138.721 270.326V264.458L138.703 262.784H141.511V264.206H141.547C142.411 263.144 143.563 262.514 144.949 262.514C146.767 262.514 147.919 263.54 147.919 265.736V270.326L147.937 272ZM152.273 265.412L149.915 264.8C150.617 263.144 152.255 262.496 154.361 262.496C156.809 262.496 158.609 263.378 158.609 265.97V270.038C158.609 270.83 158.699 271.532 158.771 272H156.089C156.017 271.604 155.981 271.226 155.945 270.884H155.909C155.297 271.604 154.379 272.27 152.723 272.27C150.707 272.27 149.465 271.226 149.465 269.624C149.465 267.086 152.615 266.258 155.837 266.258V265.862C155.837 264.818 155.297 264.278 154.181 264.278C153.245 264.278 152.777 264.656 152.273 265.412ZM153.695 270.434C154.649 270.434 155.837 269.732 155.837 268.31V267.662C154.289 267.68 152.435 268.094 152.435 269.336C152.435 270.02 152.903 270.434 153.695 270.434ZM163.662 260.804V270.326C163.662 270.344 163.68 272 163.68 272H160.746C160.746 272 160.764 270.344 160.764 270.326V260.804L160.746 259.13H163.68L163.662 260.804ZM172.309 272H170.221C170.221 271.838 170.239 270.506 170.239 270.344V260.804L170.221 259.13H173.155L173.137 260.804V263.756H173.173C173.947 262.874 174.865 262.514 175.945 262.514C178.339 262.514 179.959 264.296 179.959 267.374C179.959 270.686 178.069 272.27 175.711 272.27C173.875 272.27 172.975 271.316 172.597 270.74H172.561L172.309 272ZM175.045 270.38C176.467 270.38 176.935 269.12 176.935 267.41C176.935 265.556 176.395 264.422 175.045 264.422C174.037 264.422 173.407 265.07 173.137 265.844V268.328C173.137 269.606 173.929 270.38 175.045 270.38ZM181.61 262.784H184.544L184.526 264.476V268.454C184.526 269.57 184.958 270.002 185.768 270.002C186.596 270.002 187.406 269.534 187.928 268.796V264.476L187.91 262.784H190.844L190.826 264.476V270.326L190.844 272H188.036V270.596H188C187.136 271.658 185.984 272.27 184.598 272.27C182.78 272.27 181.628 271.226 181.628 269.048V264.476L181.61 262.784ZM198.869 262.784V264.746H196.655V269.138C196.655 269.876 196.871 270.182 197.663 270.182C198.077 270.182 198.599 270.056 198.923 269.966V271.91C198.491 272.144 197.771 272.306 196.853 272.306C194.729 272.306 193.757 271.568 193.757 269.354V264.746H192.227V262.784H193.847L194.135 259.904H196.655V262.784H198.869ZM206.393 262.784V264.746H204.179V269.138C204.179 269.876 204.395 270.182 205.187 270.182C205.601 270.182 206.123 270.056 206.447 269.966V271.91C206.015 272.144 205.295 272.306 204.377 272.306C202.253 272.306 201.281 271.568 201.281 269.354V264.746H199.751V262.784H201.371L201.659 259.904H204.179V262.784H206.393ZM212.568 272.306C209.49 272.306 207.51 270.038 207.51 267.41C207.51 264.746 209.49 262.496 212.568 262.496C215.646 262.496 217.608 264.746 217.608 267.41C217.608 270.038 215.646 272.306 212.568 272.306ZM212.568 270.38C213.756 270.38 214.584 269.48 214.584 267.41C214.584 265.322 213.756 264.422 212.568 264.422C211.362 264.422 210.534 265.322 210.534 267.41C210.534 269.48 211.362 270.38 212.568 270.38ZM228.568 272H225.634L225.652 270.326V266.348C225.652 265.232 225.22 264.692 224.392 264.692C223.582 264.692 222.772 265.214 222.25 265.988V270.326L222.268 272H219.334L219.352 270.326V264.458L219.334 262.784H222.142V264.206H222.178C223.042 263.144 224.194 262.514 225.58 262.514C227.398 262.514 228.55 263.54 228.55 265.736V270.326L228.568 272Z" fill="white"/>
<path fill-rule="evenodd" clip-rule="evenodd" d="M254.035 257.68L261.749 265.394V266.606L254.035 274.32L252.822 273.108L259.074 266.857H238.857V265.143H259.074L252.822 258.892L254.035 257.68Z" fill="white"/>
</svg>
