<svg width="1140" height="420" viewBox="0 0 1140 420" fill="none" xmlns="http://www.w3.org/2000/svg">
<rect width="1140" height="420" rx="20" fill="url(#paint0_linear_476_6680)"/>
<rect x="60" y="60" width="1020" height="300" rx="20" fill="white"/>
<path d="M122.56 154V130.64H140.288V134.768H127.36V140.144H137.76V144.272H127.36V149.872H140.672V154H122.56ZM155.988 154L151.508 148.208L146.964 154H141.844L148.948 145.424L142.164 136.944H147.796L151.988 142.448L155.988 136.944H161.108L154.612 145.36L161.588 154H155.988ZM168.094 154.384C164.382 154.384 162.526 152.016 162.526 149.808C162.526 147.344 164.158 145.872 167.102 145.072L174.846 142.992V142.768C174.846 140.784 173.662 139.888 171.55 139.888C169.406 139.888 167.742 141.008 166.75 143.76L162.878 142.32C164.414 138.192 167.646 136.592 171.742 136.592C176.862 136.592 179.582 139.184 179.582 142.672V148.656C179.582 149.904 179.998 150.576 181.054 150.576C181.534 150.576 182.206 150.416 182.654 150.16V153.648C181.854 154 180.35 154.32 179.23 154.32C176.83 154.32 174.974 153.008 174.974 150.48V150.128H174.846C173.63 152.688 171.262 154.384 168.094 154.384ZM167.23 149.104C167.23 149.904 167.902 150.768 169.47 150.768C171.39 150.768 174.014 149.36 174.846 147.184V145.52L169.278 147.44C168.062 147.856 167.23 148.176 167.23 149.104ZM185.021 136.944H189.693V140.784H189.789C190.717 138.128 192.829 136.56 195.965 136.56C198.972 136.56 200.957 138.064 201.693 140.848H201.757C202.717 138.192 204.893 136.56 208.061 136.56C211.933 136.56 214.141 138.992 214.141 143.376V154H209.341V144.016C209.341 141.68 208.189 140.432 206.109 140.432C203.677 140.432 201.981 142 201.981 144.88V154H197.181V144.016C197.181 141.68 196.061 140.432 193.917 140.432C191.549 140.432 189.821 142 189.821 144.88V154H185.021V136.944ZM229.597 136.56C233.885 136.56 237.437 139.856 237.437 145.424C237.437 150.864 234.173 154.384 229.501 154.384C226.461 154.384 224.221 152.816 223.229 150.448H223.133V160.336H218.333V136.944H223.133V140.656H223.229C224.285 138.128 226.461 136.56 229.597 136.56ZM223.101 145.904C223.101 148.656 225.085 150.832 227.901 150.832C230.653 150.832 232.509 148.656 232.509 145.424C232.509 142.288 230.653 140.112 227.901 140.112C225.085 140.112 223.101 142.384 223.101 145.04V145.904ZM240.864 154V130.64H245.664V154H240.864ZM267.331 148.624C265.891 152.656 262.307 154.384 258.179 154.384C252.547 154.384 249.091 150.896 249.091 145.712C249.091 140.304 252.707 136.56 258.307 136.56C263.747 136.56 267.363 139.92 267.363 146.288H253.827C254.051 148.944 255.331 150.832 258.467 150.832C260.803 150.832 262.787 149.776 263.427 147.408L267.331 148.624ZM253.987 143.44H262.435C261.923 141.104 260.451 140.016 258.307 140.016C256.131 140.016 254.531 141.072 253.987 143.44ZM297.562 146.704C296.827 151.472 293.531 154.384 287.963 154.384C282.363 154.384 278.779 150.864 278.779 145.712C278.779 140.048 283.035 136.56 288.187 136.56C292.859 136.56 296.219 138.896 297.051 143.248L293.115 144.272C292.539 141.872 291.035 140.112 288.283 140.112C285.659 140.112 283.707 141.808 283.707 145.52C283.707 149.136 285.467 150.832 288.347 150.832C291.451 150.832 292.955 148.816 293.339 146.128L297.562 146.704ZM305.188 154.384C301.476 154.384 299.62 152.016 299.62 149.808C299.62 147.344 301.252 145.872 304.196 145.072L311.94 142.992V142.768C311.94 140.784 310.756 139.888 308.644 139.888C306.5 139.888 304.836 141.008 303.844 143.76L299.972 142.32C301.508 138.192 304.74 136.592 308.836 136.592C313.956 136.592 316.676 139.184 316.676 142.672V148.656C316.676 149.904 317.092 150.576 318.148 150.576C318.628 150.576 319.3 150.416 319.748 150.16V153.648C318.948 154 317.444 154.32 316.324 154.32C313.924 154.32 312.068 153.008 312.068 150.48V150.128H311.94C310.724 152.688 308.356 154.384 305.188 154.384ZM304.324 149.104C304.324 149.904 304.996 150.768 306.564 150.768C308.484 150.768 311.108 149.36 311.94 147.184V145.52L306.372 147.44C305.156 147.856 304.324 148.176 304.324 149.104ZM322.114 154V130.64H326.914V154H322.114ZM331.333 154V130.64H336.133V154H331.333ZM347.569 136.944H350.801L352.945 131.984H355.089V136.944H360.177V140.368H355.089V148.048C355.089 150.192 355.729 150.8 357.681 150.8C358.513 150.8 359.377 150.672 360.337 150.512V153.872C358.833 154.16 357.777 154.32 355.793 154.32C351.665 154.32 350.289 152.72 350.289 149.904V140.368H347.569V136.944ZM371.753 154.384C365.961 154.384 362.185 150.864 362.185 145.488C362.185 140.112 365.961 136.56 371.753 136.56C377.545 136.56 381.321 140.112 381.321 145.488C381.321 150.864 377.545 154.384 371.753 154.384ZM367.113 145.488C367.113 148.72 368.809 150.864 371.753 150.864C374.697 150.864 376.393 148.72 376.393 145.488C376.393 142.256 374.697 140.08 371.753 140.08C368.809 140.08 367.113 142.256 367.113 145.488ZM398.188 154.384C394.476 154.384 392.62 152.016 392.62 149.808C392.62 147.344 394.252 145.872 397.196 145.072L404.94 142.992V142.768C404.94 140.784 403.756 139.888 401.644 139.888C399.5 139.888 397.836 141.008 396.844 143.76L392.972 142.32C394.508 138.192 397.74 136.592 401.836 136.592C406.956 136.592 409.676 139.184 409.676 142.672V148.656C409.676 149.904 410.092 150.576 411.148 150.576C411.628 150.576 412.3 150.416 412.748 150.16V153.648C411.948 154 410.444 154.32 409.324 154.32C406.924 154.32 405.068 153.008 405.068 150.48V150.128H404.94C403.724 152.688 401.356 154.384 398.188 154.384ZM397.324 149.104C397.324 149.904 397.996 150.768 399.564 150.768C401.484 150.768 404.108 149.36 404.94 147.184V145.52L399.372 147.44C398.156 147.856 397.324 148.176 397.324 149.104ZM432.75 146.704C432.014 151.472 428.718 154.384 423.15 154.384C417.55 154.384 413.966 150.864 413.966 145.712C413.966 140.048 418.222 136.56 423.374 136.56C428.046 136.56 431.406 138.896 432.238 143.248L428.302 144.272C427.726 141.872 426.222 140.112 423.47 140.112C420.846 140.112 418.894 141.808 418.894 145.52C418.894 149.136 420.654 150.832 423.534 150.832C426.638 150.832 428.142 148.816 428.526 146.128L432.75 146.704ZM433.944 136.944H437.176L439.32 131.984H441.464V136.944H446.552V140.368H441.464V148.048C441.464 150.192 442.104 150.8 444.056 150.8C444.888 150.8 445.752 150.672 446.712 150.512V153.872C445.208 154.16 444.152 154.32 442.168 154.32C438.04 154.32 436.664 152.72 436.664 149.904V140.368H433.944V136.944ZM449.708 154V136.944H454.508V154H449.708ZM449.644 134.768V130.64H454.572V134.768H449.644ZM467.503 154.384C461.711 154.384 457.935 150.864 457.935 145.488C457.935 140.112 461.711 136.56 467.503 136.56C473.295 136.56 477.071 140.112 477.071 145.488C477.071 150.864 473.295 154.384 467.503 154.384ZM462.863 145.488C462.863 148.72 464.559 150.864 467.503 150.864C470.447 150.864 472.143 148.72 472.143 145.488C472.143 142.256 470.447 140.08 467.503 140.08C464.559 140.08 462.863 142.256 462.863 145.488ZM480.489 136.944H485.161V140.88H485.289C486.281 138 488.489 136.56 491.593 136.56C495.593 136.56 497.833 138.96 497.833 143.376V154H493.033V144.016C493.033 141.68 491.849 140.432 489.577 140.432C487.049 140.432 485.289 141.968 485.289 144.848V154H480.489V136.944ZM501.605 148.72H506.885V154H501.605V148.72ZM539.481 154L539.257 148.464H539.161C537.689 152.24 534.425 154.384 530.329 154.384C522.873 154.384 519.001 149.552 519.001 142.608C519.001 135.184 523.929 130.256 531.513 130.256C537.369 130.256 541.529 133.328 543.033 138.16L538.489 139.344C537.593 136.56 535.353 134.416 531.481 134.416C526.873 134.416 523.961 137.52 523.961 142.544C523.961 147.44 526.745 150.256 531.065 150.256C534.617 150.256 537.849 148.368 538.553 145.008H531.641V141.36H543.513V154H539.481ZM565.362 148.624C563.922 152.656 560.338 154.384 556.21 154.384C550.578 154.384 547.122 150.896 547.122 145.712C547.122 140.304 550.738 136.56 556.338 136.56C561.778 136.56 565.394 139.92 565.394 146.288H551.858C552.082 148.944 553.362 150.832 556.498 150.832C558.834 150.832 560.818 149.776 561.458 147.408L565.362 148.624ZM552.018 143.44H560.466C559.954 141.104 558.482 140.016 556.338 140.016C554.162 140.016 552.562 141.072 552.018 143.44ZM566.881 136.944H570.113L572.257 131.984H574.401V136.944H579.489V140.368H574.401V148.048C574.401 150.192 575.041 150.8 576.993 150.8C577.825 150.8 578.689 150.672 579.649 150.512V153.872C578.145 154.16 577.089 154.32 575.105 154.32C570.977 154.32 569.601 152.72 569.601 149.904V140.368H566.881V136.944ZM596.094 154.384C592.382 154.384 590.526 152.016 590.526 149.808C590.526 147.344 592.158 145.872 595.102 145.072L602.846 142.992V142.768C602.846 140.784 601.662 139.888 599.55 139.888C597.406 139.888 595.742 141.008 594.75 143.76L590.878 142.32C592.414 138.192 595.646 136.592 599.742 136.592C604.862 136.592 607.582 139.184 607.582 142.672V148.656C607.582 149.904 607.998 150.576 609.054 150.576C609.534 150.576 610.206 150.416 610.654 150.16V153.648C609.854 154 608.35 154.32 607.23 154.32C604.83 154.32 602.974 153.008 602.974 150.48V150.128H602.846C601.63 152.688 599.262 154.384 596.094 154.384ZM595.23 149.104C595.23 149.904 595.902 150.768 597.47 150.768C599.39 150.768 602.014 149.36 602.846 147.184V145.52L597.278 147.44C596.062 147.856 595.23 148.176 595.23 149.104ZM619.712 154.384C615.424 154.384 611.872 151.088 611.872 145.52C611.872 140.08 615.136 136.56 619.808 136.56C622.848 136.56 625.088 138.128 626.08 140.496H626.176V130.64H630.976V154H626.176V150.288H626.08C625.024 152.816 622.848 154.384 619.712 154.384ZM616.8 145.52C616.8 148.656 618.656 150.832 621.408 150.832C624.224 150.832 626.208 148.56 626.208 145.904V145.04C626.208 142.288 624.224 140.112 621.408 140.112C618.656 140.112 616.8 142.288 616.8 145.52ZM647.556 136.944H652.324L645.38 154H639.972L633.22 136.944H638.18L642.692 149.648H642.884L647.556 136.944ZM662.565 154.384C656.773 154.384 652.997 150.864 652.997 145.488C652.997 140.112 656.773 136.56 662.565 136.56C668.357 136.56 672.133 140.112 672.133 145.488C672.133 150.864 668.357 154.384 662.565 154.384ZM657.925 145.488C657.925 148.72 659.621 150.864 662.565 150.864C665.509 150.864 667.205 148.72 667.205 145.488C667.205 142.256 665.509 140.08 662.565 140.08C659.621 140.08 657.925 142.256 657.925 145.488ZM693.344 146.704C692.608 151.472 689.312 154.384 683.744 154.384C678.144 154.384 674.56 150.864 674.56 145.712C674.56 140.048 678.816 136.56 683.968 136.56C688.64 136.56 692 138.896 692.832 143.248L688.896 144.272C688.32 141.872 686.816 140.112 684.064 140.112C681.44 140.112 679.488 141.808 679.488 145.52C679.488 149.136 681.248 150.832 684.128 150.832C687.232 150.832 688.736 148.816 689.12 146.128L693.344 146.704ZM700.969 154.384C697.257 154.384 695.401 152.016 695.401 149.808C695.401 147.344 697.033 145.872 699.977 145.072L707.721 142.992V142.768C707.721 140.784 706.537 139.888 704.425 139.888C702.281 139.888 700.617 141.008 699.625 143.76L695.753 142.32C697.289 138.192 700.521 136.592 704.617 136.592C709.737 136.592 712.457 139.184 712.457 142.672V148.656C712.457 149.904 712.873 150.576 713.929 150.576C714.409 150.576 715.081 150.416 715.529 150.16V153.648C714.729 154 713.225 154.32 712.105 154.32C709.705 154.32 707.849 153.008 707.849 150.48V150.128H707.721C706.505 152.688 704.137 154.384 700.969 154.384ZM700.105 149.104C700.105 149.904 700.777 150.768 702.345 150.768C704.265 150.768 706.889 149.36 707.721 147.184V145.52L702.153 147.44C700.937 147.856 700.105 148.176 700.105 149.104ZM735.531 146.704C734.795 151.472 731.499 154.384 725.931 154.384C720.331 154.384 716.747 150.864 716.747 145.712C716.747 140.048 721.003 136.56 726.155 136.56C730.827 136.56 734.187 138.896 735.019 143.248L731.083 144.272C730.507 141.872 729.003 140.112 726.251 140.112C723.627 140.112 721.675 141.808 721.675 145.52C721.675 149.136 723.435 150.832 726.315 150.832C729.419 150.832 730.923 148.816 731.307 146.128L735.531 146.704ZM750.495 136.944H755.487L747.935 155.76C746.559 159.216 744.319 160.72 740.415 160.72C738.943 160.72 737.599 160.496 736.735 160.176V156.88C738.015 157.264 739.039 157.392 740.159 157.392C741.311 157.392 741.983 157.2 742.463 156.816C742.943 156.432 743.135 155.888 743.135 155.184C743.135 154.288 742.783 153.136 742.239 151.824L736.062 136.944H741.183L745.887 149.84H746.047L750.495 136.944ZM779.381 141.04C778.965 140.944 778.421 140.848 777.845 140.848C773.909 140.848 771.477 144.112 771.477 148.464V154H766.677V136.944H771.349V142.896H771.413C772.149 139.664 773.109 138.128 775.285 137.2C775.957 136.912 776.885 136.752 777.781 136.752C778.357 136.752 778.901 136.816 779.381 136.944V141.04ZM798.644 148.624C797.204 152.656 793.62 154.384 789.492 154.384C783.86 154.384 780.404 150.896 780.404 145.712C780.404 140.304 784.02 136.56 789.62 136.56C795.06 136.56 798.676 139.92 798.676 146.288H785.14C785.364 148.944 786.644 150.832 789.78 150.832C792.116 150.832 794.1 149.776 794.74 147.408L798.644 148.624ZM785.3 143.44H793.748C793.236 141.104 791.764 140.016 789.62 140.016C787.444 140.016 785.844 141.072 785.3 143.44ZM803.97 147.888C804.994 150.032 807.106 151.024 809.634 151.024C811.938 151.024 813.538 150.192 813.538 148.88C813.538 147.888 812.61 147.44 810.818 147.28C809.57 147.184 808.514 147.152 807.266 147.024C805.154 146.832 801.602 146 801.602 142.224C801.602 138.704 804.93 136.56 809.314 136.56C812.354 136.56 815.362 137.52 817.282 139.952L814.466 142.32C813.154 140.688 811.362 139.888 809.474 139.888C807.49 139.888 806.082 140.592 806.082 141.712C806.082 142.576 806.594 143.024 808.322 143.184C809.282 143.28 810.626 143.312 811.65 143.408C814.306 143.632 817.954 144.56 817.954 148.464C817.954 152.208 814.498 154.384 809.57 154.384C804.962 154.384 801.986 152.656 800.514 149.264L803.97 147.888ZM829.659 154.384C823.867 154.384 820.091 150.864 820.091 145.488C820.091 140.112 823.867 136.56 829.659 136.56C835.451 136.56 839.227 140.112 839.227 145.488C839.227 150.864 835.451 154.384 829.659 154.384ZM825.019 145.488C825.019 148.72 826.715 150.864 829.659 150.864C832.603 150.864 834.299 148.72 834.299 145.488C834.299 142.256 832.603 140.08 829.659 140.08C826.715 140.08 825.019 142.256 825.019 145.488ZM859.766 154H855.094V150.064H854.966C853.974 152.944 851.766 154.384 848.661 154.384C844.661 154.384 842.422 151.984 842.422 147.568V136.944H847.222V146.928C847.222 149.264 848.406 150.512 850.678 150.512C853.206 150.512 854.966 148.944 854.966 146.064V136.944H859.766V154ZM876.881 141.04C876.465 140.944 875.921 140.848 875.345 140.848C871.409 140.848 868.977 144.112 868.977 148.464V154H864.177V136.944H868.849V142.896H868.913C869.649 139.664 870.609 138.128 872.785 137.2C873.457 136.912 874.385 136.752 875.281 136.752C875.857 136.752 876.401 136.816 876.881 136.944V141.04ZM896.688 146.704C895.952 151.472 892.656 154.384 887.088 154.384C881.488 154.384 877.904 150.864 877.904 145.712C877.904 140.048 882.16 136.56 887.312 136.56C891.984 136.56 895.344 138.896 896.176 143.248L892.24 144.272C891.664 141.872 890.16 140.112 887.408 140.112C884.784 140.112 882.832 141.808 882.832 145.52C882.832 149.136 884.592 150.832 887.472 150.832C890.576 150.832 892.08 148.816 892.464 146.128L896.688 146.704ZM917.081 148.624C915.641 152.656 912.057 154.384 907.929 154.384C902.297 154.384 898.841 150.896 898.841 145.712C898.841 140.304 902.457 136.56 908.057 136.56C913.497 136.56 917.113 139.92 917.113 146.288H903.577C903.801 148.944 905.081 150.832 908.217 150.832C910.553 150.832 912.537 149.776 913.177 147.408L917.081 148.624ZM903.737 143.44H912.185C911.673 141.104 910.201 140.016 908.057 140.016C905.881 140.016 904.281 141.072 903.737 143.44ZM922.408 147.888C923.432 150.032 925.544 151.024 928.072 151.024C930.376 151.024 931.976 150.192 931.976 148.88C931.976 147.888 931.048 147.44 929.256 147.28C928.008 147.184 926.952 147.152 925.704 147.024C923.592 146.832 920.04 146 920.04 142.224C920.04 138.704 923.368 136.56 927.752 136.56C930.792 136.56 933.8 137.52 935.72 139.952L932.904 142.32C931.592 140.688 929.8 139.888 927.912 139.888C925.928 139.888 924.52 140.592 924.52 141.712C924.52 142.576 925.032 143.024 926.76 143.184C927.72 143.28 929.064 143.312 930.088 143.408C932.744 143.632 936.392 144.56 936.392 148.464C936.392 152.208 932.936 154.384 928.008 154.384C923.4 154.384 920.424 152.656 918.952 149.264L922.408 147.888ZM938.823 148.72H944.039V155.184C944.039 157.552 942.311 159.504 938.823 159.504V156.656C939.399 156.656 939.847 156.656 940.231 156.592C940.999 156.464 941.351 155.92 941.351 154.992V154H938.823V148.72ZM120.256 180.944H123.488L125.632 175.984H127.776V180.944H132.864V184.368H127.776V192.048C127.776 194.192 128.416 194.8 130.368 194.8C131.2 194.8 132.064 194.672 133.024 194.512V197.872C131.52 198.16 130.464 198.32 128.48 198.32C124.352 198.32 122.976 196.72 122.976 193.904V184.368H120.256V180.944ZM148.725 185.04C148.309 184.944 147.765 184.848 147.189 184.848C143.253 184.848 140.821 188.112 140.821 192.464V198H136.021V180.944H140.693V186.896H140.757C141.493 183.664 142.453 182.128 144.629 181.2C145.301 180.912 146.229 180.752 147.125 180.752C147.701 180.752 148.245 180.816 148.725 180.944V185.04ZM155.376 198.384C151.664 198.384 149.808 196.016 149.808 193.808C149.808 191.344 151.44 189.872 154.384 189.072L162.128 186.992V186.768C162.128 184.784 160.944 183.888 158.832 183.888C156.688 183.888 155.024 185.008 154.032 187.76L150.16 186.32C151.696 182.192 154.928 180.592 159.024 180.592C164.144 180.592 166.864 183.184 166.864 186.672V192.656C166.864 193.904 167.28 194.576 168.336 194.576C168.816 194.576 169.488 194.416 169.936 194.16V197.648C169.136 198 167.632 198.32 166.512 198.32C164.112 198.32 162.256 197.008 162.256 194.48V194.128H162.128C160.912 196.688 158.544 198.384 155.376 198.384ZM154.512 193.104C154.512 193.904 155.184 194.768 156.752 194.768C158.672 194.768 161.296 193.36 162.128 191.184V189.52L156.56 191.44C155.344 191.856 154.512 192.176 154.512 193.104ZM172.302 198V180.944H177.102V198H172.302ZM172.238 178.768V174.64H177.166V178.768H172.238ZM181.521 180.944H186.193V184.88H186.321C187.312 182 189.521 180.56 192.625 180.56C196.625 180.56 198.865 182.96 198.865 187.376V198H194.065V188.016C194.065 185.68 192.881 184.432 190.609 184.432C188.081 184.432 186.321 185.968 186.321 188.848V198H181.521V180.944ZM203.052 198V180.944H207.852V198H203.052ZM202.988 178.768V174.64H207.916V178.768H202.988ZM212.271 180.944H216.943V184.88H217.071C218.062 182 220.271 180.56 223.375 180.56C227.375 180.56 229.615 182.96 229.615 187.376V198H224.815V188.016C224.815 185.68 223.631 184.432 221.359 184.432C218.831 184.432 217.071 185.968 217.071 188.848V198H212.271V180.944ZM241.418 204.72C235.306 204.72 233.45 202.512 233.45 200.688C233.45 198.96 235.114 198.192 236.97 198V197.904C234.378 197.84 232.714 196.56 232.714 194.352C232.714 192.72 233.93 190.928 236.906 190.416V190.32C235.05 189.36 233.962 187.888 233.962 185.968C233.962 182.768 237.066 180.56 242.346 180.56C243.722 180.56 245.002 180.72 246.09 181.04L246.634 175.792H252.106V175.952L247.434 181.488C249.418 182.416 250.602 183.92 250.602 185.968C250.602 189.36 247.37 191.408 242.378 191.408C241.162 191.408 240.074 191.312 239.082 191.088C237.578 191.312 236.874 191.824 236.874 192.752C236.874 193.424 237.45 193.904 238.89 193.904H245.418C249.258 193.904 252.074 195.28 252.074 198.448C252.074 202.384 247.722 204.72 241.418 204.72ZM237.77 199.6C237.77 201.008 239.05 201.936 242.41 201.936C245.098 201.936 247.69 201.328 247.69 199.536C247.69 198.416 246.762 198.064 243.658 198.064H240.01C238.442 198.064 237.77 198.576 237.77 199.6ZM238.89 185.968C238.89 187.664 240.042 188.592 242.25 188.592C244.426 188.592 245.674 187.696 245.674 186C245.674 184.272 244.362 183.376 242.314 183.376C240.298 183.376 238.89 184.272 238.89 185.968ZM287.233 186.16C285.761 188.272 284.001 190.48 282.401 192.368C283.873 193.584 285.345 194.192 287.073 194.192C287.681 194.192 288.289 194.096 288.641 194V197.872C287.969 198.16 286.593 198.256 285.697 198.256C283.137 198.256 281.249 197.168 279.361 195.504C277.473 197.04 274.721 198.384 270.593 198.384C265.953 198.384 262.561 195.632 262.561 191.952C262.561 189.52 263.905 187.184 266.913 185.808L268.641 185.04C267.233 183.6 266.465 181.872 266.465 180.048C266.465 176.848 269.409 174.256 273.985 174.256C278.337 174.256 280.833 176.848 280.833 179.632C280.833 181.616 279.649 183.568 277.377 184.72L275.521 185.648L279.809 189.872C281.217 188.24 283.169 185.712 284.385 183.888L287.233 186.16ZM267.169 191.632C267.169 193.168 268.673 194.544 271.169 194.544C273.441 194.544 275.169 193.872 276.609 192.848L271.425 187.76L269.441 188.752C267.937 189.52 267.169 190.512 267.169 191.632ZM270.977 179.696C270.977 180.72 271.553 181.712 272.545 182.704L272.929 183.088L275.009 182.128C276.097 181.616 276.673 180.752 276.673 179.728C276.673 178.608 275.649 177.616 273.889 177.616C272.033 177.616 270.977 178.48 270.977 179.696ZM300.802 180.944H305.474V184.784H305.57C306.498 182.128 308.61 180.56 311.746 180.56C314.754 180.56 316.738 182.064 317.474 184.848H317.538C318.498 182.192 320.674 180.56 323.842 180.56C327.714 180.56 329.922 182.992 329.922 187.376V198H325.122V188.016C325.122 185.68 323.97 184.432 321.89 184.432C319.458 184.432 317.762 186 317.762 188.88V198H312.962V188.016C312.962 185.68 311.842 184.432 309.698 184.432C307.33 184.432 305.602 186 305.602 188.88V198H300.802V180.944ZM342.69 198.384C336.898 198.384 333.122 194.864 333.122 189.488C333.122 184.112 336.898 180.56 342.69 180.56C348.482 180.56 352.258 184.112 352.258 189.488C352.258 194.864 348.482 198.384 342.69 198.384ZM338.05 189.488C338.05 192.72 339.746 194.864 342.69 194.864C345.634 194.864 347.33 192.72 347.33 189.488C347.33 186.256 345.634 184.08 342.69 184.08C339.746 184.08 338.05 186.256 338.05 189.488ZM368.381 185.04C367.965 184.944 367.421 184.848 366.845 184.848C362.909 184.848 360.477 188.112 360.477 192.464V198H355.677V180.944H360.349V186.896H360.413C361.149 183.664 362.109 182.128 364.285 181.2C364.957 180.912 365.885 180.752 366.781 180.752C367.357 180.752 367.901 180.816 368.381 180.944V185.04ZM387.644 192.624C386.204 196.656 382.62 198.384 378.492 198.384C372.86 198.384 369.404 194.896 369.404 189.712C369.404 184.304 373.02 180.56 378.62 180.56C384.06 180.56 387.676 183.92 387.676 190.288H374.14C374.364 192.944 375.644 194.832 378.78 194.832C381.116 194.832 383.1 193.776 383.74 191.408L387.644 192.624ZM374.3 187.44H382.748C382.236 185.104 380.764 184.016 378.62 184.016C376.444 184.016 374.844 185.072 374.3 187.44ZM389.823 192.72H395.103V198H389.823V192.72Z" fill="#191326"/>
<rect x="120" y="240" width="232" height="60" rx="30" fill="#6300C7"/>
<path d="M157.594 268.332V270.654H152.428V273.678H158.8V276H149.314L149.332 274.308V264.822L149.314 263.13H158.71V265.452H152.428V268.332H157.594ZM166.319 276L164.303 272.94H164.267L162.305 276H159.515V275.964L162.881 271.104L159.893 266.82V266.784H163.205L164.807 269.43H164.843L166.499 266.784H169.289V266.82L166.301 271.158L169.721 275.964V276H166.319ZM172.88 269.412L170.522 268.8C171.224 267.144 172.862 266.496 174.968 266.496C177.416 266.496 179.216 267.378 179.216 269.97V274.038C179.216 274.83 179.306 275.532 179.378 276H176.696C176.624 275.604 176.588 275.226 176.552 274.884H176.516C175.904 275.604 174.986 276.27 173.33 276.27C171.314 276.27 170.072 275.226 170.072 273.624C170.072 271.086 173.222 270.258 176.444 270.258V269.862C176.444 268.818 175.904 268.278 174.788 268.278C173.852 268.278 173.384 268.656 172.88 269.412ZM174.302 274.434C175.256 274.434 176.444 273.732 176.444 272.31V271.662C174.896 271.68 173.042 272.094 173.042 273.336C173.042 274.02 173.51 274.434 174.302 274.434ZM190.318 276H187.384L187.402 274.326V270.348C187.402 269.214 186.988 268.692 186.124 268.692C185.422 268.692 184.738 269.232 184.27 270.006V274.326L184.288 276H181.354L181.372 274.326V268.458L181.354 266.784H184.162V268.17H184.198C185.008 267.144 186.052 266.514 187.348 266.514C188.608 266.514 189.706 266.928 190.102 268.206H190.138C190.966 267.162 192.064 266.514 193.396 266.514C195.214 266.514 196.348 267.54 196.348 269.736V274.326L196.366 276H193.45L193.468 274.326V270.348C193.468 269.214 193.018 268.692 192.19 268.692C191.47 268.692 190.768 269.232 190.3 270.006V274.326L190.318 276ZM203.929 276.27C202.759 276.27 201.985 275.838 201.445 275.19H201.409V277.962L201.427 279.618H198.493L198.511 277.962V268.458L198.493 266.784H201.319V267.882H201.355C201.931 267.18 202.795 266.514 204.235 266.514C206.413 266.514 208.231 268.17 208.231 271.32C208.231 274.524 206.503 276.27 203.929 276.27ZM203.263 274.38C204.631 274.38 205.207 273.336 205.207 271.392C205.207 269.484 204.649 268.422 203.245 268.422C202.399 268.422 201.679 269.034 201.409 269.844V273.012C201.715 273.75 202.417 274.38 203.263 274.38ZM212.905 264.804V274.326C212.905 274.344 212.923 276 212.923 276H209.989C209.989 276 210.007 274.344 210.007 274.326V264.804L209.989 263.13H212.923L212.905 264.804ZM222.015 273.246L224.211 274.02C223.707 274.866 222.357 276.306 219.675 276.306C216.759 276.306 214.689 274.596 214.689 271.554C214.689 268.404 216.795 266.496 219.531 266.496C223.059 266.496 224.427 269.214 224.355 271.896H217.425C217.497 273.642 218.433 274.38 219.747 274.38C220.863 274.38 221.673 273.732 222.015 273.246ZM219.549 268.314C218.469 268.314 217.731 268.926 217.497 270.33H221.457C221.457 269.196 220.827 268.314 219.549 268.314ZM230.596 274.308V264.822C230.596 264.822 230.578 263.148 230.578 263.13H236.464C238.966 263.13 241.558 263.868 241.558 266.334C241.558 268.584 239.434 269.286 238.858 269.34V269.43C239.398 269.466 241.936 270.006 241.936 272.67C241.936 275.226 239.614 276 237.256 276H230.578L230.596 274.308ZM236.14 270.528H233.692V273.858H236.626C238.084 273.858 238.678 273.246 238.678 272.274C238.678 270.924 237.526 270.528 236.14 270.528ZM233.692 265.29V268.422H236.122C237.508 268.422 238.462 267.936 238.462 266.802C238.462 265.74 237.688 265.29 236.284 265.29H233.692ZM243.649 266.784H246.583L246.565 268.476V272.454C246.565 273.57 246.997 274.002 247.807 274.002C248.635 274.002 249.445 273.534 249.967 272.796V268.476L249.949 266.784H252.883L252.865 268.476V274.326L252.883 276H250.075V274.596H250.039C249.175 275.658 248.023 276.27 246.637 276.27C244.819 276.27 243.667 275.226 243.667 273.048V268.476L243.649 266.784ZM260.909 266.784V268.746H258.695V273.138C258.695 273.876 258.911 274.182 259.703 274.182C260.117 274.182 260.639 274.056 260.963 273.966V275.91C260.531 276.144 259.811 276.306 258.893 276.306C256.769 276.306 255.797 275.568 255.797 273.354V268.746H254.267V266.784H255.887L256.175 263.904H258.695V266.784H260.909ZM268.432 266.784V268.746H266.218V273.138C266.218 273.876 266.434 274.182 267.226 274.182C267.64 274.182 268.162 274.056 268.486 273.966V275.91C268.054 276.144 267.334 276.306 266.416 276.306C264.292 276.306 263.32 275.568 263.32 273.354V268.746H261.79V266.784H263.41L263.698 263.904H266.218V266.784H268.432ZM274.608 276.306C271.53 276.306 269.55 274.038 269.55 271.41C269.55 268.746 271.53 266.496 274.608 266.496C277.686 266.496 279.648 268.746 279.648 271.41C279.648 274.038 277.686 276.306 274.608 276.306ZM274.608 274.38C275.796 274.38 276.624 273.48 276.624 271.41C276.624 269.322 275.796 268.422 274.608 268.422C273.402 268.422 272.574 269.322 272.574 271.41C272.574 273.48 273.402 274.38 274.608 274.38ZM290.607 276H287.673L287.691 274.326V270.348C287.691 269.232 287.259 268.692 286.431 268.692C285.621 268.692 284.811 269.214 284.289 269.988V274.326L284.307 276H281.373L281.391 274.326V268.458L281.373 266.784H284.181V268.206H284.217C285.081 267.144 286.233 266.514 287.619 266.514C289.437 266.514 290.589 267.54 290.589 269.736V274.326L290.607 276Z" fill="white"/>
<path fill-rule="evenodd" clip-rule="evenodd" d="M316.035 261.68L323.749 269.394V270.606L316.035 278.32L314.823 277.108L321.074 270.857H300.857V269.143H321.074L314.823 262.892L316.035 261.68Z" fill="white"/>
<defs>
<linearGradient id="paint0_linear_476_6680" x1="6.90109e-06" y1="210" x2="1140" y2="210" gradientUnits="userSpaceOnUse">
<stop offset="0.0677083" stop-color="#FF6D00"/>
<stop offset="0.5" stop-color="#FF2100"/>
<stop offset="0.942708" stop-color="#6300C7"/>
</linearGradient>
</defs>
</svg>
