<svg width="1622" height="955" viewBox="0 0 1622 955" fill="none" xmlns="http://www.w3.org/2000/svg">
<g clip-path="url(#clip0_65_14)">
<rect width="1622" height="955" fill="#2A0080"/>
<g opacity="0.3">
<path d="M263.941 953.941L1216.88 1.00019" stroke="white"/>
<path d="M405.118 953.941L1358.06 1.00025" stroke="white"/>
<path d="M546.294 953.941L1499.24 1.00019" stroke="white"/>
<path d="M122.765 953.941L1075.71 1.00025" stroke="white"/>
</g>
<g opacity="0.3">
<path d="M1 793.89L161.051 953.941" stroke="white"/>
<path d="M1 610.975L343.967 953.941" stroke="white"/>
<path d="M1 428.059L526.882 953.941" stroke="white"/>
</g>
<g opacity="0.3">
<path d="M1621 814.473L1481.53 953.941" stroke="white"/>
<path d="M1621 655.079L1322.14 953.941" stroke="white"/>
<path d="M1621 495.687L1162.75 953.941" stroke="white"/>
<path d="M1621 336.294L1003.35 953.941" stroke="white"/>
</g>
<ellipse opacity="0.3" cx="1409.24" cy="322.177" rx="211.765" ry="211.765" stroke="white"/>
<circle opacity="0.3" cx="142.176" cy="645.118" r="141.176" stroke="white"/>
</g>
<path d="M159.8 285L140.9 358H128.8L111.7 294.2H111.1L93.9 358H82L62.8 285H71.5L87.9 349.2H88.6L105.9 285H117.2L134.6 349.2H135.2L151.5 285H159.8ZM217.738 340.3C213.438 352.9 203.538 359.1 190.838 359.1C173.938 359.1 164.138 348 164.138 332.3C164.138 316 174.137 304 190.938 304C206.738 304 217.238 314.5 217.238 332.8H172.238C172.538 344.9 179.238 352.6 191.438 352.6C200.938 352.6 207.838 347.7 210.638 338.1L217.738 340.3ZM172.538 326.9H208.638C207.438 316.8 200.938 310.5 191.038 310.5C180.738 310.5 174.038 316.3 172.538 326.9ZM230.623 358V285H238.923V358H230.623ZM306.835 335.3C304.735 349.4 295.035 359.1 278.735 359.1C261.835 359.1 251.735 348.1 251.735 332.3C251.735 314.8 263.935 304 279.435 304C293.335 304 303.635 312.1 305.935 324.6L298.135 326.4C296.135 317.1 290.135 310.5 279.535 310.5C268.535 310.5 260.235 317.8 260.235 331.8C260.235 344.9 267.435 352.6 279.435 352.6C291.335 352.6 297.435 345 298.635 334.3L306.835 335.3ZM344.095 359.1C326.795 359.1 315.895 347.3 315.895 331.6C315.895 315.9 326.795 304.1 344.095 304.1C361.295 304.1 372.295 315.9 372.295 331.6C372.295 347.3 361.295 359.1 344.095 359.1ZM324.495 331.6C324.495 344.2 332.095 352.7 344.095 352.7C356.095 352.7 363.695 344.2 363.695 331.6C363.695 319 356.095 310.5 344.095 310.5C332.095 310.5 324.495 319 324.495 331.6ZM385.116 305.2H393.116L393.216 318.3C395.916 309.6 402.816 304.1 413.016 304.1C422.716 304.1 429.216 309.2 431.416 318.3H431.516C434.316 309.7 441.216 304.1 451.416 304.1C463.416 304.1 470.916 312 470.916 325.4V358H462.616V326.7C462.616 316.4 457.416 310.9 448.516 310.9C438.216 310.9 432.116 318.9 432.116 329.6V358H423.816V326.7C423.816 316.4 418.916 310.9 410.016 310.9C399.716 310.9 393.416 318.9 393.416 329.6V358H385.116V305.2ZM536.683 340.3C532.383 352.9 522.483 359.1 509.783 359.1C492.883 359.1 483.083 348 483.083 332.3C483.083 316 493.083 304 509.883 304C525.683 304 536.183 314.5 536.183 332.8H491.183C491.483 344.9 498.183 352.6 510.383 352.6C519.883 352.6 526.783 347.7 529.583 338.1L536.683 340.3ZM491.483 326.9H527.583C526.383 316.8 519.883 310.5 509.983 310.5C499.683 310.5 492.983 316.3 491.483 326.9ZM543.281 347H553.581V362.8C553.581 367.1 550.481 371.1 543.281 371.1V365.5C544.181 365.5 545.181 365.5 545.981 365.4C547.481 365.1 548.281 364 548.281 362V358H543.281V347ZM651.72 358L644.82 341.2H611.32L604.82 358H589.82L619.32 285H636.82L667.72 358H651.72ZM616.22 328.7H639.72L627.92 299.8H627.42L616.22 328.7ZM675.224 304.7H689.824V317H690.224C693.324 308 700.224 303.5 709.924 303.5C722.424 303.5 729.424 311 729.424 324.8V358H714.424V326.8C714.424 319.5 710.724 315.6 703.624 315.6C695.724 315.6 690.224 320.4 690.224 329.4V358H675.224V304.7ZM763.909 359.2C750.509 359.2 739.409 348.9 739.409 331.5C739.409 314.5 749.609 303.5 764.209 303.5C773.709 303.5 780.709 308.4 783.809 315.8H784.109V285H799.109V358H784.109V346.4H783.809C780.509 354.3 773.709 359.2 763.909 359.2ZM754.809 331.5C754.809 341.3 760.609 348.1 769.209 348.1C778.009 348.1 784.209 341 784.209 332.7V330C784.209 321.4 778.009 314.6 769.209 314.6C760.609 314.6 754.809 321.4 754.809 331.5ZM852.62 317.5C851.32 317.2 849.62 316.9 847.82 316.9C835.52 316.9 827.92 327.1 827.92 340.7V358H812.92V304.7H827.52V323.3H827.72C830.02 313.2 833.02 308.4 839.82 305.5C841.92 304.6 844.82 304.1 847.62 304.1C849.42 304.1 851.12 304.3 852.62 304.7V317.5ZM912.816 341.2C908.316 353.8 897.116 359.2 884.216 359.2C866.616 359.2 855.816 348.3 855.816 332.1C855.816 315.2 867.116 303.5 884.616 303.5C901.616 303.5 912.916 314 912.916 333.9H870.616C871.316 342.2 875.316 348.1 885.116 348.1C892.416 348.1 898.616 344.8 900.616 337.4L912.816 341.2ZM871.116 325H897.516C895.916 317.7 891.316 314.3 884.616 314.3C877.816 314.3 872.816 317.6 871.116 325ZM991.776 304.7H1006.48L990.576 358H972.576L961.676 320.6L950.076 358H932.676L916.776 304.7H932.476L942.676 343.7H942.876L954.876 304.7H969.276L980.976 343.7H981.176L991.776 304.7ZM1015.99 337.4L1013.59 299V285H1022.69V299L1020.19 337.4H1015.99ZM1012.79 358H1023.19V347.6H1012.79V358Z" fill="white"/>
<path d="M90.952 448L87.64 439.936H71.56L68.44 448H61.24L75.4 412.96H83.8L98.632 448H90.952ZM73.912 433.936H85.192L79.528 420.064H79.288L73.912 433.936ZM128.547 437.056C127.443 444.208 122.499 448.576 114.147 448.576C105.747 448.576 100.371 443.296 100.371 435.568C100.371 427.072 106.755 421.84 114.483 421.84C121.491 421.84 126.531 425.344 127.779 431.872L121.875 433.408C121.011 429.808 118.755 427.168 114.627 427.168C110.691 427.168 107.763 429.712 107.763 435.28C107.763 440.704 110.403 443.248 114.723 443.248C119.379 443.248 121.635 440.224 122.211 436.192L128.547 437.056ZM159.953 437.056C158.849 444.208 153.905 448.576 145.553 448.576C137.153 448.576 131.777 443.296 131.777 435.568C131.777 427.072 138.161 421.84 145.889 421.84C152.897 421.84 157.937 425.344 159.185 431.872L153.281 433.408C152.417 429.808 150.161 427.168 146.033 427.168C142.097 427.168 139.169 429.712 139.169 435.28C139.169 440.704 141.809 443.248 146.129 443.248C150.785 443.248 153.041 440.224 153.617 436.192L159.953 437.056ZM190.543 439.936C188.383 445.984 183.007 448.576 176.815 448.576C168.367 448.576 163.183 443.344 163.183 435.568C163.183 427.456 168.607 421.84 177.007 421.84C185.167 421.84 190.591 426.88 190.591 436.432H170.287C170.623 440.416 172.543 443.248 177.247 443.248C180.751 443.248 183.727 441.664 184.687 438.112L190.543 439.936ZM170.527 432.16H183.199C182.431 428.656 180.223 427.024 177.007 427.024C173.743 427.024 171.343 428.608 170.527 432.16ZM198.534 438.832C200.07 442.048 203.238 443.536 207.03 443.536C210.486 443.536 212.886 442.288 212.886 440.32C212.886 438.832 211.494 438.16 208.806 437.92C206.934 437.776 205.35 437.728 203.478 437.536C200.31 437.248 194.982 436 194.982 430.336C194.982 425.056 199.974 421.84 206.549 421.84C211.11 421.84 215.622 423.28 218.502 426.928L214.278 430.48C212.31 428.032 209.622 426.832 206.79 426.832C203.814 426.832 201.702 427.888 201.702 429.568C201.702 430.864 202.47 431.536 205.062 431.776C206.502 431.92 208.518 431.968 210.054 432.112C214.038 432.448 219.51 433.84 219.51 439.696C219.51 445.312 214.326 448.576 206.934 448.576C200.022 448.576 195.558 445.984 193.35 440.896L198.534 438.832ZM226.987 438.832C228.523 442.048 231.691 443.536 235.483 443.536C238.939 443.536 241.339 442.288 241.339 440.32C241.339 438.832 239.947 438.16 237.259 437.92C235.387 437.776 233.803 437.728 231.931 437.536C228.763 437.248 223.435 436 223.435 430.336C223.435 425.056 228.427 421.84 235.003 421.84C239.563 421.84 244.075 423.28 246.955 426.928L242.731 430.48C240.763 428.032 238.075 426.832 235.243 426.832C232.267 426.832 230.155 427.888 230.155 429.568C230.155 430.864 230.923 431.536 233.515 431.776C234.955 431.92 236.971 431.968 238.507 432.112C242.491 432.448 247.963 433.84 247.963 439.696C247.963 445.312 242.779 448.576 235.387 448.576C228.475 448.576 224.011 445.984 221.803 440.896L226.987 438.832ZM268.893 438.832C270.429 442.048 273.597 443.536 277.389 443.536C280.845 443.536 283.245 442.288 283.245 440.32C283.245 438.832 281.853 438.16 279.165 437.92C277.293 437.776 275.709 437.728 273.837 437.536C270.669 437.248 265.341 436 265.341 430.336C265.341 425.056 270.333 421.84 276.909 421.84C281.469 421.84 285.981 423.28 288.861 426.928L284.637 430.48C282.669 428.032 279.981 426.832 277.149 426.832C274.173 426.832 272.061 427.888 272.061 429.568C272.061 430.864 272.829 431.536 275.421 431.776C276.861 431.92 278.877 431.968 280.413 432.112C284.397 432.448 289.869 433.84 289.869 439.696C289.869 445.312 284.685 448.576 277.293 448.576C270.381 448.576 265.917 445.984 263.709 440.896L268.893 438.832ZM291.634 422.416H296.482L299.698 414.976H302.914V422.416H310.546V427.552H302.914V439.072C302.914 442.288 303.874 443.2 306.802 443.2C308.05 443.2 309.346 443.008 310.786 442.768V447.808C308.53 448.24 306.946 448.48 303.97 448.48C297.778 448.48 295.714 446.08 295.714 441.856V427.552H291.634V422.416ZM334.337 428.56C333.713 428.416 332.897 428.272 332.033 428.272C326.129 428.272 322.481 433.168 322.481 439.696V448H315.281V422.416H322.289V431.344H322.385C323.489 426.496 324.929 424.192 328.193 422.8C329.201 422.368 330.593 422.128 331.937 422.128C332.801 422.128 333.617 422.224 334.337 422.416V428.56ZM363.231 439.936C361.071 445.984 355.695 448.576 349.503 448.576C341.055 448.576 335.871 443.344 335.871 435.568C335.871 427.456 341.295 421.84 349.695 421.84C357.855 421.84 363.279 426.88 363.279 436.432H342.975C343.311 440.416 345.231 443.248 349.935 443.248C353.439 443.248 356.415 441.664 357.375 438.112L363.231 439.936ZM343.215 432.16H355.887C355.119 428.656 352.911 427.024 349.695 427.024C346.431 427.024 344.031 428.608 343.215 432.16ZM375.157 448.576C369.589 448.576 366.805 445.024 366.805 441.712C366.805 438.016 369.253 435.808 373.669 434.608L385.285 431.488V431.152C385.285 428.176 383.509 426.832 380.341 426.832C377.125 426.832 374.629 428.512 373.141 432.64L367.333 430.48C369.637 424.288 374.485 421.888 380.629 421.888C388.309 421.888 392.389 425.776 392.389 431.008V439.984C392.389 441.856 393.013 442.864 394.597 442.864C395.317 442.864 396.325 442.624 396.997 442.24V447.472C395.797 448 393.541 448.48 391.861 448.48C388.261 448.48 385.477 446.512 385.477 442.72V442.192H385.285C383.461 446.032 379.909 448.576 375.157 448.576ZM373.861 440.656C373.861 441.856 374.869 443.152 377.221 443.152C380.101 443.152 384.037 441.04 385.285 437.776V435.28L376.933 438.16C375.109 438.784 373.861 439.264 373.861 440.656ZM400.546 422.416H407.554V428.176H407.698C409.09 424.192 412.258 421.84 416.962 421.84C421.474 421.84 424.45 424.096 425.554 428.272H425.65C427.09 424.288 430.354 421.84 435.106 421.84C440.914 421.84 444.226 425.488 444.226 432.064V448H437.026V433.024C437.026 429.52 435.298 427.648 432.178 427.648C428.53 427.648 425.986 430 425.986 434.32V448H418.786V433.024C418.786 429.52 417.106 427.648 413.89 427.648C410.338 427.648 407.746 430 407.746 434.32V448H400.546V422.416ZM450.515 448V412.96H457.715V448H450.515ZM464.343 448V422.416H471.543V448H464.343ZM464.247 419.152V412.96H471.639V419.152H464.247ZM478.171 422.416H485.179V428.32H485.371C486.859 424 490.171 421.84 494.827 421.84C500.827 421.84 504.187 425.44 504.187 432.064V448H496.987V433.024C496.987 429.52 495.211 427.648 491.803 427.648C488.011 427.648 485.371 429.952 485.371 434.272V448H478.171V422.416ZM536.34 439.936C534.18 445.984 528.804 448.576 522.612 448.576C514.164 448.576 508.98 443.344 508.98 435.568C508.98 427.456 514.404 421.84 522.804 421.84C530.964 421.84 536.388 426.88 536.388 436.432H516.084C516.42 440.416 518.34 443.248 523.044 443.248C526.548 443.248 529.524 441.664 530.484 438.112L536.34 439.936ZM516.324 432.16H528.996C528.228 428.656 526.02 427.024 522.804 427.024C519.54 427.024 517.14 428.608 516.324 432.16ZM551.818 448.576C545.386 448.576 540.058 443.632 540.058 435.28C540.058 427.12 544.954 421.84 551.962 421.84C556.522 421.84 559.882 424.192 561.37 427.744H561.514V412.96H568.714V448H561.514V442.432H561.37C559.786 446.224 556.522 448.576 551.818 448.576ZM547.45 435.28C547.45 439.984 550.234 443.248 554.362 443.248C558.586 443.248 561.562 439.84 561.562 435.856V434.56C561.562 430.432 558.586 427.168 554.362 427.168C550.234 427.168 547.45 430.432 547.45 435.28ZM585.868 422.416H590.716L593.932 414.976H597.148V422.416H604.78V427.552H597.148V439.072C597.148 442.288 598.108 443.2 601.036 443.2C602.284 443.2 603.58 443.008 605.02 442.768V447.808C602.764 448.24 601.18 448.48 598.204 448.48C592.012 448.48 589.948 446.08 589.948 441.856V427.552H585.868V422.416ZM622.145 448.576C613.457 448.576 607.793 443.296 607.793 435.232C607.793 427.168 613.457 421.84 622.145 421.84C630.833 421.84 636.497 427.168 636.497 435.232C636.497 443.296 630.833 448.576 622.145 448.576ZM615.185 435.232C615.185 440.08 617.729 443.296 622.145 443.296C626.561 443.296 629.105 440.08 629.105 435.232C629.105 430.384 626.561 427.12 622.145 427.12C617.729 427.12 615.185 430.384 615.185 435.232ZM654.489 448.576C645.801 448.576 640.137 443.296 640.137 435.232C640.137 427.168 645.801 421.84 654.489 421.84C663.177 421.84 668.841 427.168 668.841 435.232C668.841 443.296 663.177 448.576 654.489 448.576ZM647.529 435.232C647.529 440.08 650.073 443.296 654.489 443.296C658.905 443.296 661.449 440.08 661.449 435.232C661.449 430.384 658.905 427.12 654.489 427.12C650.073 427.12 647.529 430.384 647.529 435.232ZM673.968 448V412.96H681.168V448H673.968ZM690.58 438.832C692.116 442.048 695.284 443.536 699.076 443.536C702.532 443.536 704.932 442.288 704.932 440.32C704.932 438.832 703.54 438.16 700.852 437.92C698.98 437.776 697.396 437.728 695.524 437.536C692.356 437.248 687.028 436 687.028 430.336C687.028 425.056 692.02 421.84 698.596 421.84C703.156 421.84 707.668 423.28 710.548 426.928L706.324 430.48C704.356 428.032 701.668 426.832 698.836 426.832C695.86 426.832 693.748 427.888 693.748 429.568C693.748 430.864 694.516 431.536 697.108 431.776C698.548 431.92 700.564 431.968 702.1 432.112C706.084 432.448 711.556 433.84 711.556 439.696C711.556 445.312 706.372 448.576 698.98 448.576C692.068 448.576 687.604 445.984 685.396 440.896L690.58 438.832ZM765.319 430.24C763.111 433.408 760.471 436.72 758.071 439.552C760.279 441.376 762.487 442.288 765.079 442.288C765.991 442.288 766.903 442.144 767.431 442V447.808C766.423 448.24 764.359 448.384 763.015 448.384C759.175 448.384 756.343 446.752 753.511 444.256C750.679 446.56 746.551 448.576 740.359 448.576C733.399 448.576 728.311 444.448 728.311 438.928C728.311 435.28 730.327 431.776 734.839 429.712L737.431 428.56C735.319 426.4 734.167 423.808 734.167 421.072C734.167 416.272 738.583 412.384 745.447 412.384C751.975 412.384 755.719 416.272 755.719 420.448C755.719 423.424 753.943 426.352 750.535 428.08L747.751 429.472L754.183 435.808C756.295 433.36 759.223 429.568 761.047 426.832L765.319 430.24ZM735.223 438.448C735.223 440.752 737.479 442.816 741.223 442.816C744.631 442.816 747.223 441.808 749.383 440.272L741.607 432.64L738.631 434.128C736.375 435.28 735.223 436.768 735.223 438.448ZM740.935 420.544C740.935 422.08 741.799 423.568 743.287 425.056L743.863 425.632L746.983 424.192C748.615 423.424 749.479 422.128 749.479 420.592C749.479 418.912 747.943 417.424 745.303 417.424C742.519 417.424 740.935 418.72 740.935 420.544ZM800.887 422.416V427.552H793.927V448H786.727V427.552H782.743V422.416H786.727V419.632C786.727 415.408 790.039 412.384 795.847 412.384C797.815 412.384 799.447 412.672 800.983 413.056V417.232C799.975 417.088 798.823 416.992 797.863 416.992C794.119 416.992 793.927 418.864 793.927 420.16V422.416H800.887ZM829.309 439.936C827.149 445.984 821.773 448.576 815.581 448.576C807.133 448.576 801.949 443.344 801.949 435.568C801.949 427.456 807.373 421.84 815.773 421.84C823.933 421.84 829.357 426.88 829.357 436.432H809.053C809.389 440.416 811.309 443.248 816.013 443.248C819.517 443.248 822.493 441.664 823.453 438.112L829.309 439.936ZM809.293 432.16H821.965C821.197 428.656 818.989 427.024 815.773 427.024C812.509 427.024 810.109 428.608 809.293 432.16ZM841.235 448.576C835.667 448.576 832.883 445.024 832.883 441.712C832.883 438.016 835.331 435.808 839.747 434.608L851.363 431.488V431.152C851.363 428.176 849.587 426.832 846.419 426.832C843.203 426.832 840.707 428.512 839.219 432.64L833.411 430.48C835.715 424.288 840.563 421.888 846.707 421.888C854.387 421.888 858.467 425.776 858.467 431.008V439.984C858.467 441.856 859.091 442.864 860.675 442.864C861.395 442.864 862.403 442.624 863.075 442.24V447.472C861.875 448 859.619 448.48 857.939 448.48C854.339 448.48 851.555 446.512 851.555 442.72V442.192H851.363C849.539 446.032 845.987 448.576 841.235 448.576ZM839.939 440.656C839.939 441.856 840.947 443.152 843.299 443.152C846.179 443.152 850.115 441.04 851.363 437.776V435.28L843.011 438.16C841.187 438.784 839.939 439.264 839.939 440.656ZM863.697 422.416H868.545L871.761 414.976H874.977V422.416H882.609V427.552H874.977V439.072C874.977 442.288 875.937 443.2 878.865 443.2C880.113 443.2 881.409 443.008 882.849 442.768V447.808C880.593 448.24 879.009 448.48 876.033 448.48C869.841 448.48 867.777 446.08 867.777 441.856V427.552H863.697V422.416ZM913.023 448H906.015V442.096H905.823C904.335 446.416 901.023 448.576 896.367 448.576C890.367 448.576 887.007 444.976 887.007 438.352V422.416H894.207V437.392C894.207 440.896 895.983 442.768 899.391 442.768C903.183 442.768 905.823 440.416 905.823 436.096V422.416H913.023V448ZM938.696 428.56C938.072 428.416 937.256 428.272 936.392 428.272C930.488 428.272 926.84 433.168 926.84 439.696V448H919.64V422.416H926.648V431.344H926.744C927.848 426.496 929.288 424.192 932.552 422.8C933.56 422.368 934.952 422.128 936.296 422.128C937.16 422.128 937.976 422.224 938.696 422.416V428.56ZM967.59 439.936C965.43 445.984 960.054 448.576 953.862 448.576C945.414 448.576 940.23 443.344 940.23 435.568C940.23 427.456 945.654 421.84 954.054 421.84C962.214 421.84 967.638 426.88 967.638 436.432H947.334C947.67 440.416 949.59 443.248 954.294 443.248C957.798 443.248 960.774 441.664 961.734 438.112L967.59 439.936ZM947.574 432.16H960.246C959.478 428.656 957.27 427.024 954.054 427.024C950.79 427.024 948.39 428.608 947.574 432.16ZM975.58 438.832C977.116 442.048 980.284 443.536 984.076 443.536C987.532 443.536 989.932 442.288 989.932 440.32C989.932 438.832 988.54 438.16 985.852 437.92C983.98 437.776 982.396 437.728 980.524 437.536C977.356 437.248 972.028 436 972.028 430.336C972.028 425.056 977.02 421.84 983.596 421.84C988.156 421.84 992.668 423.28 995.548 426.928L991.324 430.48C989.356 428.032 986.668 426.832 983.836 426.832C980.86 426.832 978.748 427.888 978.748 429.568C978.748 430.864 979.516 431.536 982.108 431.776C983.548 431.92 985.564 431.968 987.1 432.112C991.084 432.448 996.556 433.84 996.556 439.696C996.556 445.312 991.372 448.576 983.98 448.576C977.068 448.576 972.604 445.984 970.396 440.896L975.58 438.832ZM1011.77 422.416H1016.62L1019.84 414.976H1023.05V422.416H1030.69V427.552H1023.05V439.072C1023.05 442.288 1024.01 443.2 1026.94 443.2C1028.19 443.2 1029.49 443.008 1030.93 442.768V447.808C1028.67 448.24 1027.09 448.48 1024.11 448.48C1017.92 448.48 1015.85 446.08 1015.85 441.856V427.552H1011.77V422.416ZM1048.05 448.576C1039.36 448.576 1033.7 443.296 1033.7 435.232C1033.7 427.168 1039.36 421.84 1048.05 421.84C1056.74 421.84 1062.4 427.168 1062.4 435.232C1062.4 443.296 1056.74 448.576 1048.05 448.576ZM1041.09 435.232C1041.09 440.08 1043.64 443.296 1048.05 443.296C1052.47 443.296 1055.01 440.08 1055.01 435.232C1055.01 430.384 1052.47 427.12 1048.05 427.12C1043.64 427.12 1041.09 430.384 1041.09 435.232ZM1092.41 458.08C1083.24 458.08 1080.46 454.768 1080.46 452.032C1080.46 449.44 1082.95 448.288 1085.74 448V447.856C1081.85 447.76 1079.35 445.84 1079.35 442.528C1079.35 440.08 1081.18 437.392 1085.64 436.624V436.48C1082.86 435.04 1081.22 432.832 1081.22 429.952C1081.22 425.152 1085.88 421.84 1093.8 421.84C1095.86 421.84 1097.78 422.08 1099.42 422.56L1100.23 414.688H1108.44V414.928L1101.43 423.232C1104.41 424.624 1106.18 426.88 1106.18 429.952C1106.18 435.04 1101.34 438.112 1093.85 438.112C1092.02 438.112 1090.39 437.968 1088.9 437.632C1086.65 437.968 1085.59 438.736 1085.59 440.128C1085.59 441.136 1086.46 441.856 1088.62 441.856H1098.41C1104.17 441.856 1108.39 443.92 1108.39 448.672C1108.39 454.576 1101.86 458.08 1092.41 458.08ZM1086.94 450.4C1086.94 452.512 1088.86 453.904 1093.9 453.904C1097.93 453.904 1101.82 452.992 1101.82 450.304C1101.82 448.624 1100.42 448.096 1095.77 448.096H1090.3C1087.94 448.096 1086.94 448.864 1086.94 450.4ZM1088.62 429.952C1088.62 432.496 1090.34 433.888 1093.66 433.888C1096.92 433.888 1098.79 432.544 1098.79 430C1098.79 427.408 1096.82 426.064 1093.75 426.064C1090.73 426.064 1088.62 427.408 1088.62 429.952ZM1131.12 428.56C1130.49 428.416 1129.68 428.272 1128.81 428.272C1122.91 428.272 1119.26 433.168 1119.26 439.696V448H1112.06V422.416H1119.07V431.344H1119.17C1120.27 426.496 1121.71 424.192 1124.97 422.8C1125.98 422.368 1127.37 422.128 1128.72 422.128C1129.58 422.128 1130.4 422.224 1131.12 422.416V428.56ZM1147 448.576C1138.32 448.576 1132.65 443.296 1132.65 435.232C1132.65 427.168 1138.32 421.84 1147 421.84C1155.69 421.84 1161.36 427.168 1161.36 435.232C1161.36 443.296 1155.69 448.576 1147 448.576ZM1140.04 435.232C1140.04 440.08 1142.59 443.296 1147 443.296C1151.42 443.296 1153.96 440.08 1153.96 435.232C1153.96 430.384 1151.42 427.12 1147 427.12C1142.59 427.12 1140.04 430.384 1140.04 435.232ZM1199.18 422.416H1206.23L1198.6 448H1189.96L1184.73 430.048L1179.16 448H1170.81L1163.18 422.416H1170.71L1175.61 441.136H1175.71L1181.47 422.416H1188.38L1193.99 441.136H1194.09L1199.18 422.416ZM1241.63 422.416H1249.12L1237.79 450.64C1235.73 455.824 1232.37 458.08 1226.51 458.08C1224.3 458.08 1222.29 457.744 1220.99 457.264V452.32C1222.91 452.896 1224.45 453.088 1226.13 453.088C1227.86 453.088 1228.86 452.8 1229.58 452.224C1230.3 451.648 1230.59 450.832 1230.59 449.776C1230.59 448.432 1230.06 446.704 1229.25 444.736L1219.98 422.416H1227.66L1234.72 441.76H1234.96L1241.63 422.416ZM1264.47 448.576C1255.78 448.576 1250.12 443.296 1250.12 435.232C1250.12 427.168 1255.78 421.84 1264.47 421.84C1273.16 421.84 1278.82 427.168 1278.82 435.232C1278.82 443.296 1273.16 448.576 1264.47 448.576ZM1257.51 435.232C1257.51 440.08 1260.06 443.296 1264.47 443.296C1268.89 443.296 1271.43 440.08 1271.43 435.232C1271.43 430.384 1268.89 427.12 1264.47 427.12C1260.06 427.12 1257.51 430.384 1257.51 435.232ZM1309.63 448H1302.62V442.096H1302.43C1300.94 446.416 1297.63 448.576 1292.98 448.576C1286.98 448.576 1283.62 444.976 1283.62 438.352V422.416H1290.82V437.392C1290.82 440.896 1292.59 442.768 1296 442.768C1299.79 442.768 1302.43 440.416 1302.43 436.096V422.416H1309.63V448ZM1335.31 428.56C1334.68 428.416 1333.87 428.272 1333 428.272C1327.1 428.272 1323.45 433.168 1323.45 439.696V448H1316.25V422.416H1323.26V431.344H1323.35C1324.46 426.496 1325.9 424.192 1329.16 422.8C1330.17 422.368 1331.56 422.128 1332.91 422.128C1333.77 422.128 1334.59 422.224 1335.31 422.416V428.56ZM64.312 482.416H71.32V488.176H71.464C72.856 484.192 76.024 481.84 80.728 481.84C85.24 481.84 88.216 484.096 89.32 488.272H89.416C90.856 484.288 94.12 481.84 98.872 481.84C104.68 481.84 107.992 485.488 107.992 492.064V508H100.792V493.024C100.792 489.52 99.064 487.648 95.944 487.648C92.296 487.648 89.752 490 89.752 494.32V508H82.552V493.024C82.552 489.52 80.872 487.648 77.656 487.648C74.104 487.648 71.512 490 71.512 494.32V508H64.312V482.416ZM127.145 508.576C118.457 508.576 112.793 503.296 112.793 495.232C112.793 487.168 118.457 481.84 127.145 481.84C135.833 481.84 141.497 487.168 141.497 495.232C141.497 503.296 135.833 508.576 127.145 508.576ZM120.185 495.232C120.185 500.08 122.729 503.296 127.145 503.296C131.561 503.296 134.105 500.08 134.105 495.232C134.105 490.384 131.561 487.12 127.145 487.12C122.729 487.12 120.185 490.384 120.185 495.232ZM164.021 482.416H171.173L160.757 508H152.645L142.517 482.416H149.957L156.725 501.472H157.013L164.021 482.416ZM199.543 499.936C197.383 505.984 192.007 508.576 185.815 508.576C177.367 508.576 172.183 503.344 172.183 495.568C172.183 487.456 177.607 481.84 186.007 481.84C194.167 481.84 199.591 486.88 199.591 496.432H179.287C179.623 500.416 181.543 503.248 186.247 503.248C189.751 503.248 192.727 501.664 193.687 498.112L199.543 499.936ZM179.527 492.16H192.199C191.431 488.656 189.223 487.024 186.007 487.024C182.743 487.024 180.343 488.608 179.527 492.16ZM204.75 482.416H211.758V488.176H211.902C213.294 484.192 216.462 481.84 221.166 481.84C225.677 481.84 228.654 484.096 229.758 488.272H229.854C231.294 484.288 234.558 481.84 239.31 481.84C245.118 481.84 248.43 485.488 248.43 492.064V508H241.23V493.024C241.23 489.52 239.502 487.648 236.382 487.648C232.734 487.648 230.19 490 230.19 494.32V508H222.99V493.024C222.99 489.52 221.31 487.648 218.094 487.648C214.542 487.648 211.95 490 211.95 494.32V508H204.75V482.416ZM280.59 499.936C278.43 505.984 273.054 508.576 266.862 508.576C258.414 508.576 253.23 503.344 253.23 495.568C253.23 487.456 258.654 481.84 267.054 481.84C275.214 481.84 280.638 486.88 280.638 496.432H260.334C260.67 500.416 262.59 503.248 267.294 503.248C270.798 503.248 273.774 501.664 274.734 498.112L280.59 499.936ZM260.574 492.16H273.246C272.478 488.656 270.27 487.024 267.054 487.024C263.79 487.024 261.39 488.608 260.574 492.16ZM285.796 482.416H292.804V488.32H292.996C294.484 484 297.796 481.84 302.452 481.84C308.452 481.84 311.812 485.44 311.812 492.064V508H304.612V493.024C304.612 489.52 302.836 487.648 299.428 487.648C295.636 487.648 292.996 489.952 292.996 494.272V508H285.796V482.416ZM315.165 482.416H320.013L323.229 474.976H326.445V482.416H334.077V487.552H326.445V499.072C326.445 502.288 327.405 503.2 330.333 503.2C331.581 503.2 332.877 503.008 334.317 502.768V507.808C332.061 508.24 330.477 508.48 327.501 508.48C321.309 508.48 319.245 506.08 319.245 501.856V487.552H315.165V482.416ZM387.881 490.24C385.673 493.408 383.033 496.72 380.633 499.552C382.841 501.376 385.049 502.288 387.641 502.288C388.553 502.288 389.465 502.144 389.993 502V507.808C388.985 508.24 386.921 508.384 385.577 508.384C381.737 508.384 378.905 506.752 376.073 504.256C373.241 506.56 369.113 508.576 362.921 508.576C355.961 508.576 350.873 504.448 350.873 498.928C350.873 495.28 352.889 491.776 357.401 489.712L359.993 488.56C357.881 486.4 356.729 483.808 356.729 481.072C356.729 476.272 361.145 472.384 368.009 472.384C374.537 472.384 378.281 476.272 378.281 480.448C378.281 483.424 376.505 486.352 373.097 488.08L370.313 489.472L376.745 495.808C378.857 493.36 381.785 489.568 383.609 486.832L387.881 490.24ZM357.785 498.448C357.785 500.752 360.041 502.816 363.785 502.816C367.193 502.816 369.785 501.808 371.945 500.272L364.169 492.64L361.193 494.128C358.937 495.28 357.785 496.768 357.785 498.448ZM363.497 480.544C363.497 482.08 364.361 483.568 365.849 485.056L366.425 485.632L369.545 484.192C371.177 483.424 372.041 482.128 372.041 480.592C372.041 478.912 370.505 477.424 367.865 477.424C365.081 477.424 363.497 478.72 363.497 480.544ZM419.658 518.08C410.49 518.08 407.706 514.768 407.706 512.032C407.706 509.44 410.202 508.288 412.986 508V507.856C409.098 507.76 406.602 505.84 406.602 502.528C406.602 500.08 408.426 497.392 412.89 496.624V496.48C410.106 495.04 408.474 492.832 408.474 489.952C408.474 485.152 413.13 481.84 421.05 481.84C423.114 481.84 425.034 482.08 426.666 482.56L427.482 474.688H435.69V474.928L428.682 483.232C431.658 484.624 433.434 486.88 433.434 489.952C433.434 495.04 428.586 498.112 421.098 498.112C419.274 498.112 417.642 497.968 416.154 497.632C413.898 497.968 412.842 498.736 412.842 500.128C412.842 501.136 413.706 501.856 415.866 501.856H425.658C431.418 501.856 435.642 503.92 435.642 508.672C435.642 514.576 429.114 518.08 419.658 518.08ZM414.186 510.4C414.186 512.512 416.106 513.904 421.146 513.904C425.178 513.904 429.066 512.992 429.066 510.304C429.066 508.624 427.674 508.096 423.018 508.096H417.546C415.194 508.096 414.186 508.864 414.186 510.4ZM415.866 489.952C415.866 492.496 417.594 493.888 420.906 493.888C424.17 493.888 426.042 492.544 426.042 490C426.042 487.408 424.074 486.064 421.002 486.064C417.978 486.064 415.866 487.408 415.866 489.952ZM464.622 499.936C462.462 505.984 457.086 508.576 450.894 508.576C442.446 508.576 437.262 503.344 437.262 495.568C437.262 487.456 442.686 481.84 451.086 481.84C459.246 481.84 464.67 486.88 464.67 496.432H444.366C444.702 500.416 446.622 503.248 451.326 503.248C454.83 503.248 457.806 501.664 458.766 498.112L464.622 499.936ZM444.606 492.16H457.278C456.51 488.656 454.302 487.024 451.086 487.024C447.822 487.024 445.422 488.608 444.606 492.16ZM469.828 482.416H476.836V488.32H477.028C478.516 484 481.828 481.84 486.484 481.84C492.484 481.84 495.844 485.44 495.844 492.064V508H488.644V493.024C488.644 489.52 486.868 487.648 483.46 487.648C479.668 487.648 477.028 489.952 477.028 494.272V508H469.828V482.416ZM527.997 499.936C525.837 505.984 520.461 508.576 514.269 508.576C505.821 508.576 500.637 503.344 500.637 495.568C500.637 487.456 506.061 481.84 514.461 481.84C522.621 481.84 528.045 486.88 528.045 496.432H507.741C508.077 500.416 509.997 503.248 514.701 503.248C518.205 503.248 521.181 501.664 522.141 498.112L527.997 499.936ZM507.981 492.16H520.653C519.885 488.656 517.677 487.024 514.461 487.024C511.197 487.024 508.797 488.608 507.981 492.16ZM552.259 488.56C551.635 488.416 550.819 488.272 549.955 488.272C544.051 488.272 540.403 493.168 540.403 499.696V508H533.203V482.416H540.211V491.344H540.307C541.411 486.496 542.851 484.192 546.115 482.8C547.123 482.368 548.515 482.128 549.859 482.128C550.723 482.128 551.539 482.224 552.259 482.416V488.56ZM562.235 508.576C556.667 508.576 553.883 505.024 553.883 501.712C553.883 498.016 556.331 495.808 560.747 494.608L572.363 491.488V491.152C572.363 488.176 570.587 486.832 567.419 486.832C564.203 486.832 561.707 488.512 560.219 492.64L554.411 490.48C556.715 484.288 561.563 481.888 567.707 481.888C575.387 481.888 579.467 485.776 579.467 491.008V499.984C579.467 501.856 580.091 502.864 581.675 502.864C582.395 502.864 583.403 502.624 584.075 502.24V507.472C582.875 508 580.619 508.48 578.939 508.48C575.339 508.48 572.555 506.512 572.555 502.72V502.192H572.363C570.539 506.032 566.987 508.576 562.235 508.576ZM560.939 500.656C560.939 501.856 561.947 503.152 564.299 503.152C567.179 503.152 571.115 501.04 572.363 497.776V495.28L564.011 498.16C562.187 498.784 560.939 499.264 560.939 500.656ZM584.697 482.416H589.545L592.761 474.976H595.977V482.416H603.609V487.552H595.977V499.072C595.977 502.288 596.937 503.2 599.865 503.2C601.113 503.2 602.409 503.008 603.849 502.768V507.808C601.593 508.24 600.009 508.48 597.033 508.48C590.841 508.48 588.777 506.08 588.777 501.856V487.552H584.697V482.416ZM633.981 499.936C631.821 505.984 626.445 508.576 620.253 508.576C611.805 508.576 606.621 503.344 606.621 495.568C606.621 487.456 612.045 481.84 620.445 481.84C628.605 481.84 634.029 486.88 634.029 496.432H613.725C614.061 500.416 615.981 503.248 620.685 503.248C624.189 503.248 627.165 501.664 628.125 498.112L633.981 499.936ZM613.965 492.16H626.637C625.869 488.656 623.661 487.024 620.445 487.024C617.181 487.024 614.781 488.608 613.965 492.16ZM659.36 508.576C653.792 508.576 651.008 505.024 651.008 501.712C651.008 498.016 653.456 495.808 657.872 494.608L669.488 491.488V491.152C669.488 488.176 667.712 486.832 664.544 486.832C661.328 486.832 658.832 488.512 657.344 492.64L651.536 490.48C653.84 484.288 658.688 481.888 664.832 481.888C672.512 481.888 676.592 485.776 676.592 491.008V499.984C676.592 501.856 677.216 502.864 678.8 502.864C679.52 502.864 680.528 502.624 681.2 502.24V507.472C680 508 677.744 508.48 676.064 508.48C672.464 508.48 669.68 506.512 669.68 502.72V502.192H669.488C667.664 506.032 664.112 508.576 659.36 508.576ZM658.064 500.656C658.064 501.856 659.072 503.152 661.424 503.152C664.304 503.152 668.24 501.04 669.488 497.776V495.28L661.136 498.16C659.312 498.784 658.064 499.264 658.064 500.656ZM711.203 497.056C710.099 504.208 705.155 508.576 696.803 508.576C688.403 508.576 683.027 503.296 683.027 495.568C683.027 487.072 689.411 481.84 697.139 481.84C704.147 481.84 709.187 485.344 710.435 491.872L704.531 493.408C703.667 489.808 701.411 487.168 697.283 487.168C693.347 487.168 690.419 489.712 690.419 495.28C690.419 500.704 693.059 503.248 697.379 503.248C702.035 503.248 704.291 500.224 704.867 496.192L711.203 497.056ZM712.993 482.416H717.841L721.057 474.976H724.273V482.416H731.905V487.552H724.273V499.072C724.273 502.288 725.233 503.2 728.161 503.2C729.409 503.2 730.705 503.008 732.145 502.768V507.808C729.889 508.24 728.305 508.48 725.329 508.48C719.137 508.48 717.073 506.08 717.073 501.856V487.552H712.993V482.416ZM736.64 508V482.416H743.84V508H736.64ZM736.544 479.152V472.96H743.936V479.152H736.544ZM763.332 508.576C754.644 508.576 748.98 503.296 748.98 495.232C748.98 487.168 754.644 481.84 763.332 481.84C772.02 481.84 777.684 487.168 777.684 495.232C777.684 503.296 772.02 508.576 763.332 508.576ZM756.372 495.232C756.372 500.08 758.916 503.296 763.332 503.296C767.748 503.296 770.292 500.08 770.292 495.232C770.292 490.384 767.748 487.12 763.332 487.12C758.916 487.12 756.372 490.384 756.372 495.232ZM782.812 482.416H789.82V488.32H790.012C791.5 484 794.812 481.84 799.468 481.84C805.468 481.84 808.828 485.44 808.828 492.064V508H801.628V493.024C801.628 489.52 799.852 487.648 796.444 487.648C792.652 487.648 790.012 489.952 790.012 494.272V508H782.812V482.416ZM814.485 500.08H822.405V508H814.485V500.08Z" fill="white"/>
<defs>
<clipPath id="clip0_65_14">
<rect width="1622" height="955" fill="white"/>
</clipPath>
</defs>
</svg>
