<svg width="1500" height="764" viewBox="0 0 1500 764" fill="none" xmlns="http://www.w3.org/2000/svg">
<rect width="1500" height="764" rx="20" fill="#191326"/>
<path d="M81.44 101V87.86H91.178V90.182H84.14V93.476H89.882V95.798H84.14V101H81.44ZM94.8658 101V87.86H104.838V90.182H97.5658V93.206H103.416V95.528H97.5658V98.678H105.054V101H94.8658ZM118.857 101L117.615 97.976H111.585L110.415 101H107.715L113.025 87.86H116.175L121.737 101H118.857ZM112.467 95.726H116.697L114.573 90.524H114.483L112.467 95.726ZM127.498 101V90.182H122.656V87.86H135.04V90.182H130.198V101H127.498ZM144.399 101.216C141.393 101.216 138.549 100.01 138.549 95.276V87.86H141.249V95.222C141.249 97.922 142.581 98.876 144.471 98.876C146.253 98.876 147.513 97.922 147.513 95.222V87.86H150.213V95.276C150.213 99.974 147.477 101.216 144.399 101.216ZM163.753 101C163.321 100.532 163.159 99.182 163.033 98.102C162.871 96.662 162.457 96.194 161.035 96.194H157.615V101H154.915V87.86H161.989C164.851 87.86 166.309 89.282 166.309 91.64C166.309 94.268 164.527 94.952 163.177 95.042V95.096C164.419 95.204 165.409 95.69 165.751 97.652C166.039 99.29 166.237 100.424 166.867 101H163.753ZM157.615 93.908H160.945C161.953 93.908 163.573 93.692 163.573 92.018C163.573 90.902 162.907 90.182 161.359 90.182H157.615V93.908ZM170.872 101V87.86H180.844V90.182H173.572V93.206H179.422V95.528H173.572V98.678H181.06V101H170.872ZM185.071 101V87.86H190.381C194.611 87.86 197.473 90.056 197.473 94.358C197.473 98.534 194.665 101 190.381 101H185.071ZM187.771 98.678H190.183C192.523 98.678 194.683 97.49 194.683 94.43C194.683 91.136 192.523 90.182 190.183 90.182H187.771V98.678ZM217.561 101C217.129 100.532 216.967 99.182 216.841 98.102C216.679 96.662 216.265 96.194 214.843 96.194H211.423V101H208.723V87.86H215.797C218.659 87.86 220.117 89.282 220.117 91.64C220.117 94.268 218.335 94.952 216.985 95.042V95.096C218.227 95.204 219.217 95.69 219.559 97.652C219.847 99.29 220.045 100.424 220.675 101H217.561ZM211.423 93.908H214.753C215.761 93.908 217.381 93.692 217.381 92.018C217.381 90.902 216.715 90.182 215.167 90.182H211.423V93.908ZM224.68 101V87.86H234.652V90.182H227.38V93.206H233.23V95.528H227.38V98.678H234.868V101H224.68ZM240.144 96.41C240.882 98.12 242.358 98.93 244.32 98.93C246.426 98.93 247.236 98.03 247.236 97.13C247.236 96.23 246.534 95.798 245.238 95.618C244.428 95.51 243.33 95.42 242.466 95.312C240.306 95.042 238.56 94.088 238.56 91.748C238.56 89.282 240.774 87.644 243.978 87.644C246.156 87.644 248.154 88.31 249.486 90.326L247.524 91.856C246.552 90.398 245.346 89.912 243.96 89.912C242.304 89.912 241.314 90.686 241.314 91.586C241.314 92.414 241.89 92.774 243.168 92.918C243.924 93.008 244.824 93.098 245.742 93.206C247.686 93.44 249.99 94.232 249.99 96.932C249.99 99.614 247.668 101.216 244.266 101.216C241.278 101.216 239.046 100.064 237.876 97.472L240.144 96.41ZM260.558 101.216C256.346 101.216 253.538 98.462 253.538 94.43C253.538 90.398 256.346 87.644 260.558 87.644C264.788 87.644 267.596 90.398 267.596 94.43C267.596 98.462 264.788 101.216 260.558 101.216ZM256.328 94.43C256.328 97.058 257.912 98.876 260.558 98.876C263.222 98.876 264.806 97.058 264.806 94.43C264.806 91.802 263.222 89.984 260.558 89.984C257.912 89.984 256.328 91.802 256.328 94.43ZM277.483 101.216C274.477 101.216 271.633 100.01 271.633 95.276V87.86H274.333V95.222C274.333 97.922 275.665 98.876 277.555 98.876C279.337 98.876 280.597 97.922 280.597 95.222V87.86H283.297V95.276C283.297 99.974 280.561 101.216 277.483 101.216ZM296.837 101C296.405 100.532 296.243 99.182 296.117 98.102C295.955 96.662 295.541 96.194 294.119 96.194H290.699V101H287.999V87.86H295.073C297.935 87.86 299.393 89.282 299.393 91.64C299.393 94.268 297.611 94.952 296.261 95.042V95.096C297.503 95.204 298.493 95.69 298.835 97.652C299.123 99.29 299.321 100.424 299.951 101H296.837ZM290.699 93.908H294.029C295.037 93.908 296.657 93.692 296.657 92.018C296.657 90.902 295.991 90.182 294.443 90.182H290.699V93.908ZM316.666 95.402C316.162 98.768 313.912 101.216 309.808 101.216C305.596 101.216 303.184 98.408 303.184 94.61C303.184 90.38 305.848 87.644 309.988 87.644C313.588 87.644 315.802 89.786 316.432 92.72L313.912 93.35C313.408 91.262 312.04 89.984 310.024 89.984C307.504 89.984 305.974 91.712 305.974 94.502C305.974 97.238 307.414 98.876 309.952 98.876C312.238 98.876 313.75 97.4 314.074 95.078L316.666 95.402ZM320.792 101V87.86H330.764V90.182H323.492V93.206H329.342V95.528H323.492V98.678H330.98V101H320.792ZM336.255 96.41C336.993 98.12 338.469 98.93 340.431 98.93C342.537 98.93 343.347 98.03 343.347 97.13C343.347 96.23 342.645 95.798 341.349 95.618C340.539 95.51 339.441 95.42 338.577 95.312C336.417 95.042 334.671 94.088 334.671 91.748C334.671 89.282 336.885 87.644 340.089 87.644C342.267 87.644 344.265 88.31 345.597 90.326L343.635 91.856C342.663 90.398 341.457 89.912 340.071 89.912C338.415 89.912 337.425 90.686 337.425 91.586C337.425 92.414 338.001 92.774 339.279 92.918C340.035 93.008 340.935 93.098 341.853 93.206C343.797 93.44 346.101 94.232 346.101 96.932C346.101 99.614 343.779 101.216 340.377 101.216C337.389 101.216 335.157 100.064 333.987 97.472L336.255 96.41Z" fill="white"/>
<path d="M367 94H1420" stroke="white"/>
<path d="M142.268 214.916H140.268V222.916H142.268V214.916Z" fill="white"/>
<path d="M158.694 232.676V230.676C155.505 230.676 152.869 228.297 152.447 225.223L163.464 227.36V210.471L144.803 214.092V223.74L150.405 224.827C150.648 229.195 154.267 232.676 158.694 232.676ZM146.803 215.74L161.464 212.896V224.934L146.803 222.091V215.739V215.74Z" fill="white"/>
<path d="M166.506 213.509L164.506 214.643L165.492 216.383L167.492 215.249L166.506 213.509Z" fill="white"/>
<path d="M168.134 217.916H165V219.916H168.134V217.916Z" fill="white"/>
<path d="M165.493 221.448L164.507 223.188L166.507 224.321L167.493 222.581L165.493 221.448Z" fill="white"/>
<path d="M180.898 224.41C181.636 226.12 183.112 226.93 185.074 226.93C187.18 226.93 187.99 226.03 187.99 225.13C187.99 224.23 187.288 223.798 185.992 223.618C185.182 223.51 184.084 223.42 183.22 223.312C181.06 223.042 179.314 222.088 179.314 219.748C179.314 217.282 181.528 215.644 184.732 215.644C186.91 215.644 188.908 216.31 190.24 218.326L188.278 219.856C187.306 218.398 186.1 217.912 184.714 217.912C183.058 217.912 182.068 218.686 182.068 219.586C182.068 220.414 182.644 220.774 183.922 220.918C184.678 221.008 185.578 221.098 186.496 221.206C188.44 221.44 190.744 222.232 190.744 224.932C190.744 227.614 188.422 229.216 185.02 229.216C182.032 229.216 179.8 228.064 178.63 225.472L180.898 224.41ZM207.774 223.402C207.27 226.768 205.02 229.216 200.916 229.216C196.704 229.216 194.292 226.408 194.292 222.61C194.292 218.38 196.956 215.644 201.096 215.644C204.696 215.644 206.91 217.786 207.54 220.72L205.02 221.35C204.516 219.262 203.148 217.984 201.132 217.984C198.612 217.984 197.082 219.712 197.082 222.502C197.082 225.238 198.522 226.876 201.06 226.876C203.346 226.876 204.858 225.4 205.182 223.078L207.774 223.402ZM220.737 229C220.305 228.532 220.143 227.182 220.017 226.102C219.855 224.662 219.441 224.194 218.019 224.194H214.599V229H211.899V215.86H218.973C221.835 215.86 223.293 217.282 223.293 219.64C223.293 222.268 221.511 222.952 220.161 223.042V223.096C221.403 223.204 222.393 223.69 222.735 225.652C223.023 227.29 223.221 228.424 223.851 229H220.737ZM214.599 221.908H217.929C218.937 221.908 220.557 221.692 220.557 220.018C220.557 218.902 219.891 218.182 218.343 218.182H214.599V221.908ZM227.856 229V215.86H230.556V229H227.856ZM235.428 229V215.86H241.566C244.698 215.86 246.696 217.228 246.696 220.09C246.696 222.934 244.716 224.464 241.458 224.464H238.128V229H235.428ZM238.128 222.142H241.296C243.024 222.142 243.978 221.62 243.978 220.198C243.978 218.704 243.006 218.182 241.386 218.182H238.128V222.142ZM254.442 229V218.182H249.6V215.86H261.984V218.182H257.142V229H254.442ZM272.09 214.015L267.168 231.979H264.865L269.787 214.015H272.09ZM276.163 229V215.86H282.301C285.433 215.86 287.431 217.228 287.431 220.09C287.431 222.934 285.451 224.464 282.193 224.464H278.863V229H276.163ZM278.863 222.142H282.031C283.759 222.142 284.713 221.62 284.713 220.198C284.713 218.704 283.741 218.182 282.121 218.182H278.863V222.142ZM292.628 224.41C293.366 226.12 294.842 226.93 296.804 226.93C298.91 226.93 299.72 226.03 299.72 225.13C299.72 224.23 299.018 223.798 297.722 223.618C296.912 223.51 295.814 223.42 294.95 223.312C292.79 223.042 291.044 222.088 291.044 219.748C291.044 217.282 293.258 215.644 296.462 215.644C298.64 215.644 300.638 216.31 301.97 218.326L300.008 219.856C299.036 218.398 297.83 217.912 296.444 217.912C294.788 217.912 293.798 218.686 293.798 219.586C293.798 220.414 294.374 220.774 295.652 220.918C296.408 221.008 297.308 221.098 298.226 221.206C300.17 221.44 302.474 222.232 302.474 224.932C302.474 227.614 300.152 229.216 296.75 229.216C293.762 229.216 291.53 228.064 290.36 225.472L292.628 224.41ZM316.093 229L314.851 225.976H308.821L307.651 229H304.951L310.261 215.86H313.411L318.973 229H316.093ZM309.703 223.726H313.933L311.809 218.524H311.719L309.703 223.726Z" fill="white"/>
<path d="M143.84 324V288.96H170.432V295.152H151.04V303.216H166.64V309.408H151.04V317.808H171.008V324H143.84ZM193.982 324L187.262 315.312L180.446 324H172.766L183.422 311.136L173.246 298.416H181.694L187.982 306.672L193.982 298.416H201.662L191.918 311.04L202.382 324H193.982ZM212.141 324.576C206.573 324.576 203.789 321.024 203.789 317.712C203.789 314.016 206.237 311.808 210.653 310.608L222.269 307.488V307.152C222.269 304.176 220.493 302.832 217.325 302.832C214.109 302.832 211.613 304.512 210.125 308.64L204.317 306.48C206.621 300.288 211.469 297.888 217.613 297.888C225.293 297.888 229.373 301.776 229.373 307.008V315.984C229.373 317.856 229.997 318.864 231.581 318.864C232.301 318.864 233.309 318.624 233.981 318.24V323.472C232.781 324 230.525 324.48 228.845 324.48C225.245 324.48 222.461 322.512 222.461 318.72V318.192H222.269C220.445 322.032 216.893 324.576 212.141 324.576ZM210.845 316.656C210.845 317.856 211.853 319.152 214.205 319.152C217.085 319.152 221.021 317.04 222.269 313.776V311.28L213.917 314.16C212.093 314.784 210.845 315.264 210.845 316.656ZM237.531 298.416H244.539V304.176H244.683C246.075 300.192 249.243 297.84 253.947 297.84C258.459 297.84 261.435 300.096 262.539 304.272H262.635C264.075 300.288 267.339 297.84 272.091 297.84C277.899 297.84 281.211 301.488 281.211 308.064V324H274.011V309.024C274.011 305.52 272.283 303.648 269.163 303.648C265.515 303.648 262.971 306 262.971 310.32V324H255.771V309.024C255.771 305.52 254.091 303.648 250.875 303.648C247.323 303.648 244.731 306 244.731 310.32V324H237.531V298.416ZM304.396 297.84C310.828 297.84 316.156 302.784 316.156 311.136C316.156 319.296 311.26 324.576 304.252 324.576C299.692 324.576 296.332 322.224 294.844 318.672H294.7V333.504H287.5V298.416H294.7V303.984H294.844C296.428 300.192 299.692 297.84 304.396 297.84ZM294.652 311.856C294.652 315.984 297.628 319.248 301.852 319.248C305.98 319.248 308.764 315.984 308.764 311.136C308.764 306.432 305.98 303.168 301.852 303.168C297.628 303.168 294.652 306.576 294.652 310.56V311.856ZM321.296 324V288.96H328.496V324H321.296ZM360.997 315.936C358.837 321.984 353.461 324.576 347.269 324.576C338.821 324.576 333.637 319.344 333.637 311.568C333.637 303.456 339.061 297.84 347.461 297.84C355.621 297.84 361.045 302.88 361.045 312.432H340.741C341.077 316.416 342.997 319.248 347.701 319.248C351.205 319.248 354.181 317.664 355.141 314.112L360.997 315.936ZM340.981 308.16H353.653C352.885 304.656 350.677 303.024 347.461 303.024C344.197 303.024 341.797 304.608 340.981 308.16ZM394.872 298.416V303.552H387.912V324H380.712V303.552H376.728V298.416H380.712V295.632C380.712 291.408 384.024 288.384 389.832 288.384C391.8 288.384 393.432 288.672 394.968 289.056V293.232C393.96 293.088 392.808 292.992 391.848 292.992C388.104 292.992 387.912 294.864 387.912 296.16V298.416H394.872ZM423.293 315.936C421.133 321.984 415.757 324.576 409.565 324.576C401.117 324.576 395.933 319.344 395.933 311.568C395.933 303.456 401.357 297.84 409.757 297.84C417.917 297.84 423.341 302.88 423.341 312.432H403.037C403.373 316.416 405.293 319.248 409.997 319.248C413.501 319.248 416.477 317.664 417.437 314.112L423.293 315.936ZM403.277 308.16H415.949C415.181 304.656 412.973 303.024 409.757 303.024C406.493 303.024 404.093 304.608 403.277 308.16ZM435.22 324.576C429.652 324.576 426.868 321.024 426.868 317.712C426.868 314.016 429.316 311.808 433.732 310.608L445.348 307.488V307.152C445.348 304.176 443.572 302.832 440.404 302.832C437.188 302.832 434.692 304.512 433.204 308.64L427.396 306.48C429.7 300.288 434.548 297.888 440.692 297.888C448.372 297.888 452.452 301.776 452.452 307.008V315.984C452.452 317.856 453.076 318.864 454.66 318.864C455.38 318.864 456.388 318.624 457.06 318.24V323.472C455.86 324 453.604 324.48 451.924 324.48C448.324 324.48 445.54 322.512 445.54 318.72V318.192H445.348C443.524 322.032 439.972 324.576 435.22 324.576ZM433.924 316.656C433.924 317.856 434.932 319.152 437.284 319.152C440.164 319.152 444.1 317.04 445.348 313.776V311.28L436.996 314.16C435.172 314.784 433.924 315.264 433.924 316.656ZM457.681 298.416H462.529L465.745 290.976H468.961V298.416H476.593V303.552H468.961V315.072C468.961 318.288 469.921 319.2 472.849 319.2C474.097 319.2 475.393 319.008 476.833 318.768V323.808C474.577 324.24 472.993 324.48 470.017 324.48C463.825 324.48 461.761 322.08 461.761 317.856V303.552H457.681V298.416ZM507.008 324H500V318.096H499.808C498.32 322.416 495.008 324.576 490.352 324.576C484.352 324.576 480.992 320.976 480.992 314.352V298.416H488.192V313.392C488.192 316.896 489.968 318.768 493.376 318.768C497.168 318.768 499.808 316.416 499.808 312.096V298.416H507.008V324ZM532.681 304.56C532.057 304.416 531.241 304.272 530.377 304.272C524.473 304.272 520.825 309.168 520.825 315.696V324H513.625V298.416H520.633V307.344H520.729C521.833 302.496 523.273 300.192 526.537 298.8C527.545 298.368 528.937 298.128 530.281 298.128C531.145 298.128 531.961 298.224 532.681 298.416V304.56ZM561.575 315.936C559.415 321.984 554.039 324.576 547.847 324.576C539.399 324.576 534.215 319.344 534.215 311.568C534.215 303.456 539.639 297.84 548.039 297.84C556.199 297.84 561.623 302.88 561.623 312.432H541.319C541.655 316.416 543.575 319.248 548.279 319.248C551.783 319.248 554.759 317.664 555.719 314.112L561.575 315.936ZM541.559 308.16H554.231C553.463 304.656 551.255 303.024 548.039 303.024C544.775 303.024 542.375 304.608 541.559 308.16ZM577.053 324.576C570.621 324.576 565.293 319.632 565.293 311.28C565.293 303.12 570.189 297.84 577.197 297.84C581.757 297.84 585.117 300.192 586.605 303.744H586.749V288.96H593.949V324H586.749V318.432H586.605C585.021 322.224 581.757 324.576 577.053 324.576ZM572.685 311.28C572.685 315.984 575.469 319.248 579.597 319.248C583.821 319.248 586.797 315.84 586.797 311.856V310.56C586.797 306.432 583.821 303.168 579.597 303.168C575.469 303.168 572.685 306.432 572.685 311.28ZM614.031 298.416H621.039V304.176H621.183C622.575 300.192 625.743 297.84 630.447 297.84C634.959 297.84 637.935 300.096 639.039 304.272H639.135C640.575 300.288 643.839 297.84 648.591 297.84C654.399 297.84 657.711 301.488 657.711 308.064V324H650.511V309.024C650.511 305.52 648.783 303.648 645.663 303.648C642.015 303.648 639.471 306 639.471 310.32V324H632.271V309.024C632.271 305.52 630.591 303.648 627.375 303.648C623.823 303.648 621.231 306 621.231 310.32V324H614.031V298.416ZM689.872 315.936C687.712 321.984 682.336 324.576 676.144 324.576C667.696 324.576 662.512 319.344 662.512 311.568C662.512 303.456 667.936 297.84 676.336 297.84C684.496 297.84 689.92 302.88 689.92 312.432H669.616C669.952 316.416 671.872 319.248 676.576 319.248C680.08 319.248 683.056 317.664 684.016 314.112L689.872 315.936ZM669.856 308.16H682.528C681.76 304.656 679.552 303.024 676.336 303.024C673.072 303.024 670.672 304.608 669.856 308.16ZM697.862 314.832C699.398 318.048 702.566 319.536 706.358 319.536C709.814 319.536 712.214 318.288 712.214 316.32C712.214 314.832 710.822 314.16 708.134 313.92C706.262 313.776 704.678 313.728 702.806 313.536C699.638 313.248 694.31 312 694.31 306.336C694.31 301.056 699.302 297.84 705.878 297.84C710.438 297.84 714.95 299.28 717.83 302.928L713.606 306.48C711.638 304.032 708.95 302.832 706.118 302.832C703.142 302.832 701.03 303.888 701.03 305.568C701.03 306.864 701.798 307.536 704.39 307.776C705.83 307.92 707.846 307.968 709.382 308.112C713.366 308.448 718.838 309.84 718.838 315.696C718.838 321.312 713.654 324.576 706.262 324.576C699.35 324.576 694.886 321.984 692.678 316.896L697.862 314.832ZM726.315 314.832C727.851 318.048 731.019 319.536 734.811 319.536C738.267 319.536 740.667 318.288 740.667 316.32C740.667 314.832 739.275 314.16 736.587 313.92C734.715 313.776 733.131 313.728 731.259 313.536C728.091 313.248 722.763 312 722.763 306.336C722.763 301.056 727.755 297.84 734.331 297.84C738.891 297.84 743.403 299.28 746.283 302.928L742.059 306.48C740.091 304.032 737.403 302.832 734.571 302.832C731.595 302.832 729.483 303.888 729.483 305.568C729.483 306.864 730.251 307.536 732.843 307.776C734.283 307.92 736.299 307.968 737.835 308.112C741.819 308.448 747.291 309.84 747.291 315.696C747.291 321.312 742.107 324.576 734.715 324.576C727.803 324.576 723.339 321.984 721.131 316.896L726.315 314.832ZM758.938 324.576C753.37 324.576 750.586 321.024 750.586 317.712C750.586 314.016 753.034 311.808 757.45 310.608L769.066 307.488V307.152C769.066 304.176 767.29 302.832 764.122 302.832C760.906 302.832 758.41 304.512 756.922 308.64L751.114 306.48C753.418 300.288 758.266 297.888 764.41 297.888C772.09 297.888 776.17 301.776 776.17 307.008V315.984C776.17 317.856 776.794 318.864 778.378 318.864C779.098 318.864 780.106 318.624 780.778 318.24V323.472C779.578 324 777.322 324.48 775.642 324.48C772.042 324.48 769.258 322.512 769.258 318.72V318.192H769.066C767.242 322.032 763.69 324.576 758.938 324.576ZM757.642 316.656C757.642 317.856 758.65 319.152 761.002 319.152C763.882 319.152 767.818 317.04 769.066 313.776V311.28L760.714 314.16C758.89 314.784 757.642 315.264 757.642 316.656ZM796.502 334.08C787.334 334.08 784.55 330.768 784.55 328.032C784.55 325.44 787.046 324.288 789.83 324V323.856C785.942 323.76 783.446 321.84 783.446 318.528C783.446 316.08 785.27 313.392 789.734 312.624V312.48C786.95 311.04 785.318 308.832 785.318 305.952C785.318 301.152 789.974 297.84 797.894 297.84C799.958 297.84 801.878 298.08 803.51 298.56L804.326 290.688H812.534V290.928L805.526 299.232C808.502 300.624 810.278 302.88 810.278 305.952C810.278 311.04 805.43 314.112 797.942 314.112C796.118 314.112 794.486 313.968 792.998 313.632C790.742 313.968 789.686 314.736 789.686 316.128C789.686 317.136 790.55 317.856 792.71 317.856H802.502C808.262 317.856 812.486 319.92 812.486 324.672C812.486 330.576 805.958 334.08 796.502 334.08ZM791.03 326.4C791.03 328.512 792.95 329.904 797.99 329.904C802.022 329.904 805.91 328.992 805.91 326.304C805.91 324.624 804.518 324.096 799.862 324.096H794.39C792.038 324.096 791.03 324.864 791.03 326.4ZM792.71 305.952C792.71 308.496 794.438 309.888 797.75 309.888C801.014 309.888 802.886 308.544 802.886 306C802.886 303.408 800.918 302.064 797.846 302.064C794.822 302.064 792.71 303.408 792.71 305.952ZM841.465 315.936C839.305 321.984 833.929 324.576 827.737 324.576C819.289 324.576 814.105 319.344 814.105 311.568C814.105 303.456 819.529 297.84 827.929 297.84C836.089 297.84 841.513 302.88 841.513 312.432H821.209C821.545 316.416 823.465 319.248 828.169 319.248C831.673 319.248 834.649 317.664 835.609 314.112L841.465 315.936ZM821.449 308.16H834.121C833.353 304.656 831.145 303.024 827.929 303.024C824.665 303.024 822.265 304.608 821.449 308.16Z" fill="white"/>
<path d="M82 168C82 158.059 90.0589 150 100 150H1400C1409.94 150 1418 158.059 1418 168V394H82V168Z" stroke="url(#paint0_linear_661_6880)" stroke-width="4"/>
<path d="M163.165 501.121L159.825 504.461L151.841 496.477L151.134 496.184H141.134L140.134 497.184V523.184L141.134 524.184H159.134L160.134 523.184V513.395L167.786 505.743V504.329L164.579 501.122L163.165 501.121ZM152.134 499.598L156.72 504.184H152.134V499.598ZM158.134 522.184H142.134V498.184H150.134V505.184L151.134 506.184H158.103L152.887 511.4L152.675 511.713L150.27 517.325L151.583 518.637L157.195 516.232L157.508 516.02L158.134 515.394V522.184ZM156.23 514.47L153.093 515.815L154.438 512.678L163.873 503.242L165.666 505.035L156.23 514.47Z" fill="white"/>
<path d="M182.898 512.41C183.636 514.12 185.112 514.93 187.074 514.93C189.18 514.93 189.99 514.03 189.99 513.13C189.99 512.23 189.288 511.798 187.992 511.618C187.182 511.51 186.084 511.42 185.22 511.312C183.06 511.042 181.314 510.088 181.314 507.748C181.314 505.282 183.528 503.644 186.732 503.644C188.91 503.644 190.908 504.31 192.24 506.326L190.278 507.856C189.306 506.398 188.1 505.912 186.714 505.912C185.058 505.912 184.068 506.686 184.068 507.586C184.068 508.414 184.644 508.774 185.922 508.918C186.678 509.008 187.578 509.098 188.496 509.206C190.44 509.44 192.744 510.232 192.744 512.932C192.744 515.614 190.422 517.216 187.02 517.216C184.032 517.216 181.8 516.064 180.63 513.472L182.898 512.41ZM202.452 517.216C199.446 517.216 196.602 516.01 196.602 511.276V503.86H199.302V511.222C199.302 513.922 200.634 514.876 202.524 514.876C204.306 514.876 205.566 513.922 205.566 511.222V503.86H208.266V511.276C208.266 515.974 205.53 517.216 202.452 517.216ZM221.805 517C221.373 516.532 221.211 515.182 221.085 514.102C220.923 512.662 220.509 512.194 219.087 512.194H215.667V517H212.967V503.86H220.041C222.903 503.86 224.361 505.282 224.361 507.64C224.361 510.268 222.579 510.952 221.229 511.042V511.096C222.471 511.204 223.461 511.69 223.803 513.652C224.091 515.29 224.289 516.424 224.919 517H221.805ZM215.667 509.908H218.997C220.005 509.908 221.625 509.692 221.625 508.018C221.625 506.902 220.959 506.182 219.411 506.182H215.667V509.908ZM229.98 503.86L234.084 514.246H234.156L238.08 503.86H240.798L235.632 517H232.482L227.1 503.86H229.98ZM244.354 517V503.86H254.326V506.182H247.054V509.206H252.904V511.528H247.054V514.678H254.542V517H244.354ZM270.235 503.86L265.051 512.212V517H262.351V512.176L257.167 503.86H260.227L263.809 509.818L267.391 503.86H270.235Z" fill="white"/>
<path d="M143.84 612V576.96H170.432V583.152H151.04V591.216H166.64V597.408H151.04V605.808H171.008V612H143.84ZM193.982 612L187.262 603.312L180.446 612H172.766L183.422 599.136L173.246 586.416H181.694L187.982 594.672L193.982 586.416H201.662L191.918 599.04L202.382 612H193.982ZM212.141 612.576C206.573 612.576 203.789 609.024 203.789 605.712C203.789 602.016 206.237 599.808 210.653 598.608L222.269 595.488V595.152C222.269 592.176 220.493 590.832 217.325 590.832C214.109 590.832 211.613 592.512 210.125 596.64L204.317 594.48C206.621 588.288 211.469 585.888 217.613 585.888C225.293 585.888 229.373 589.776 229.373 595.008V603.984C229.373 605.856 229.997 606.864 231.581 606.864C232.301 606.864 233.309 606.624 233.981 606.24V611.472C232.781 612 230.525 612.48 228.845 612.48C225.245 612.48 222.461 610.512 222.461 606.72V606.192H222.269C220.445 610.032 216.893 612.576 212.141 612.576ZM210.845 604.656C210.845 605.856 211.853 607.152 214.205 607.152C217.085 607.152 221.021 605.04 222.269 601.776V599.28L213.917 602.16C212.093 602.784 210.845 603.264 210.845 604.656ZM237.531 586.416H244.539V592.176H244.683C246.075 588.192 249.243 585.84 253.947 585.84C258.459 585.84 261.435 588.096 262.539 592.272H262.635C264.075 588.288 267.339 585.84 272.091 585.84C277.899 585.84 281.211 589.488 281.211 596.064V612H274.011V597.024C274.011 593.52 272.283 591.648 269.163 591.648C265.515 591.648 262.971 594 262.971 598.32V612H255.771V597.024C255.771 593.52 254.091 591.648 250.875 591.648C247.323 591.648 244.731 594 244.731 598.32V612H237.531V586.416ZM304.396 585.84C310.828 585.84 316.156 590.784 316.156 599.136C316.156 607.296 311.26 612.576 304.252 612.576C299.692 612.576 296.332 610.224 294.844 606.672H294.7V621.504H287.5V586.416H294.7V591.984H294.844C296.428 588.192 299.692 585.84 304.396 585.84ZM294.652 599.856C294.652 603.984 297.628 607.248 301.852 607.248C305.98 607.248 308.764 603.984 308.764 599.136C308.764 594.432 305.98 591.168 301.852 591.168C297.628 591.168 294.652 594.576 294.652 598.56V599.856ZM321.296 612V576.96H328.496V612H321.296ZM360.997 603.936C358.837 609.984 353.461 612.576 347.269 612.576C338.821 612.576 333.637 607.344 333.637 599.568C333.637 591.456 339.061 585.84 347.461 585.84C355.621 585.84 361.045 590.88 361.045 600.432H340.741C341.077 604.416 342.997 607.248 347.701 607.248C351.205 607.248 354.181 605.664 355.141 602.112L360.997 603.936ZM340.981 596.16H353.653C352.885 592.656 350.677 591.024 347.461 591.024C344.197 591.024 341.797 592.608 340.981 596.16ZM394.872 586.416V591.552H387.912V612H380.712V591.552H376.728V586.416H380.712V583.632C380.712 579.408 384.024 576.384 389.832 576.384C391.8 576.384 393.432 576.672 394.968 577.056V581.232C393.96 581.088 392.808 580.992 391.848 580.992C388.104 580.992 387.912 582.864 387.912 584.16V586.416H394.872ZM423.293 603.936C421.133 609.984 415.757 612.576 409.565 612.576C401.117 612.576 395.933 607.344 395.933 599.568C395.933 591.456 401.357 585.84 409.757 585.84C417.917 585.84 423.341 590.88 423.341 600.432H403.037C403.373 604.416 405.293 607.248 409.997 607.248C413.501 607.248 416.477 605.664 417.437 602.112L423.293 603.936ZM403.277 596.16H415.949C415.181 592.656 412.973 591.024 409.757 591.024C406.493 591.024 404.093 592.608 403.277 596.16ZM435.22 612.576C429.652 612.576 426.868 609.024 426.868 605.712C426.868 602.016 429.316 599.808 433.732 598.608L445.348 595.488V595.152C445.348 592.176 443.572 590.832 440.404 590.832C437.188 590.832 434.692 592.512 433.204 596.64L427.396 594.48C429.7 588.288 434.548 585.888 440.692 585.888C448.372 585.888 452.452 589.776 452.452 595.008V603.984C452.452 605.856 453.076 606.864 454.66 606.864C455.38 606.864 456.388 606.624 457.06 606.24V611.472C455.86 612 453.604 612.48 451.924 612.48C448.324 612.48 445.54 610.512 445.54 606.72V606.192H445.348C443.524 610.032 439.972 612.576 435.22 612.576ZM433.924 604.656C433.924 605.856 434.932 607.152 437.284 607.152C440.164 607.152 444.1 605.04 445.348 601.776V599.28L436.996 602.16C435.172 602.784 433.924 603.264 433.924 604.656ZM457.681 586.416H462.529L465.745 578.976H468.961V586.416H476.593V591.552H468.961V603.072C468.961 606.288 469.921 607.2 472.849 607.2C474.097 607.2 475.393 607.008 476.833 606.768V611.808C474.577 612.24 472.993 612.48 470.017 612.48C463.825 612.48 461.761 610.08 461.761 605.856V591.552H457.681V586.416ZM507.008 612H500V606.096H499.808C498.32 610.416 495.008 612.576 490.352 612.576C484.352 612.576 480.992 608.976 480.992 602.352V586.416H488.192V601.392C488.192 604.896 489.968 606.768 493.376 606.768C497.168 606.768 499.808 604.416 499.808 600.096V586.416H507.008V612ZM532.681 592.56C532.057 592.416 531.241 592.272 530.377 592.272C524.473 592.272 520.825 597.168 520.825 603.696V612H513.625V586.416H520.633V595.344H520.729C521.833 590.496 523.273 588.192 526.537 586.8C527.545 586.368 528.937 586.128 530.281 586.128C531.145 586.128 531.961 586.224 532.681 586.416V592.56ZM561.575 603.936C559.415 609.984 554.039 612.576 547.847 612.576C539.399 612.576 534.215 607.344 534.215 599.568C534.215 591.456 539.639 585.84 548.039 585.84C556.199 585.84 561.623 590.88 561.623 600.432H541.319C541.655 604.416 543.575 607.248 548.279 607.248C551.783 607.248 554.759 605.664 555.719 602.112L561.575 603.936ZM541.559 596.16H554.231C553.463 592.656 551.255 591.024 548.039 591.024C544.775 591.024 542.375 592.608 541.559 596.16ZM577.053 612.576C570.621 612.576 565.293 607.632 565.293 599.28C565.293 591.12 570.189 585.84 577.197 585.84C581.757 585.84 585.117 588.192 586.605 591.744H586.749V576.96H593.949V612H586.749V606.432H586.605C585.021 610.224 581.757 612.576 577.053 612.576ZM572.685 599.28C572.685 603.984 575.469 607.248 579.597 607.248C583.821 607.248 586.797 603.84 586.797 599.856V598.56C586.797 594.432 583.821 591.168 579.597 591.168C575.469 591.168 572.685 594.432 572.685 599.28ZM633.087 592.56C632.463 592.416 631.647 592.272 630.783 592.272C624.879 592.272 621.231 597.168 621.231 603.696V612H614.031V586.416H621.039V595.344H621.135C622.239 590.496 623.679 588.192 626.943 586.8C627.951 586.368 629.343 586.128 630.687 586.128C631.551 586.128 632.367 586.224 633.087 586.416V592.56ZM661.981 603.936C659.821 609.984 654.445 612.576 648.253 612.576C639.805 612.576 634.621 607.344 634.621 599.568C634.621 591.456 640.045 585.84 648.445 585.84C656.605 585.84 662.029 590.88 662.029 600.432H641.725C642.061 604.416 643.981 607.248 648.685 607.248C652.189 607.248 655.165 605.664 656.125 602.112L661.981 603.936ZM641.965 596.16H654.637C653.869 592.656 651.661 591.024 648.445 591.024C645.181 591.024 642.781 592.608 641.965 596.16ZM669.971 602.832C671.507 606.048 674.675 607.536 678.467 607.536C681.923 607.536 684.323 606.288 684.323 604.32C684.323 602.832 682.931 602.16 680.243 601.92C678.371 601.776 676.787 601.728 674.915 601.536C671.747 601.248 666.419 600 666.419 594.336C666.419 589.056 671.411 585.84 677.987 585.84C682.547 585.84 687.059 587.28 689.939 590.928L685.715 594.48C683.747 592.032 681.059 590.832 678.227 590.832C675.251 590.832 673.139 591.888 673.139 593.568C673.139 594.864 673.907 595.536 676.499 595.776C677.939 595.92 679.955 595.968 681.491 596.112C685.475 596.448 690.947 597.84 690.947 603.696C690.947 609.312 685.763 612.576 678.371 612.576C671.459 612.576 666.995 609.984 664.787 604.896L669.971 602.832ZM721.512 603.936C719.352 609.984 713.976 612.576 707.784 612.576C699.336 612.576 694.152 607.344 694.152 599.568C694.152 591.456 699.576 585.84 707.976 585.84C716.136 585.84 721.56 590.88 721.56 600.432H701.256C701.592 604.416 703.512 607.248 708.216 607.248C711.72 607.248 714.696 605.664 715.656 602.112L721.512 603.936ZM701.496 596.16H714.168C713.4 592.656 711.192 591.024 707.976 591.024C704.712 591.024 702.312 592.608 701.496 596.16ZM733.438 612.576C727.87 612.576 725.086 609.024 725.086 605.712C725.086 602.016 727.534 599.808 731.95 598.608L743.566 595.488V595.152C743.566 592.176 741.79 590.832 738.622 590.832C735.406 590.832 732.91 592.512 731.422 596.64L725.614 594.48C727.918 588.288 732.766 585.888 738.91 585.888C746.59 585.888 750.67 589.776 750.67 595.008V603.984C750.67 605.856 751.294 606.864 752.878 606.864C753.598 606.864 754.606 606.624 755.278 606.24V611.472C754.078 612 751.822 612.48 750.142 612.48C746.542 612.48 743.758 610.512 743.758 606.72V606.192H743.566C741.742 610.032 738.19 612.576 733.438 612.576ZM732.142 604.656C732.142 605.856 733.15 607.152 735.502 607.152C738.382 607.152 742.318 605.04 743.566 601.776V599.28L735.214 602.16C733.39 602.784 732.142 603.264 732.142 604.656ZM777.884 592.56C777.26 592.416 776.444 592.272 775.58 592.272C769.676 592.272 766.028 597.168 766.028 603.696V612H758.828V586.416H765.836V595.344H765.932C767.036 590.496 768.476 588.192 771.74 586.8C772.748 586.368 774.14 586.128 775.484 586.128C776.348 586.128 777.164 586.224 777.884 586.416V592.56ZM807.594 601.056C806.49 608.208 801.546 612.576 793.194 612.576C784.794 612.576 779.418 607.296 779.418 599.568C779.418 591.072 785.802 585.84 793.53 585.84C800.538 585.84 805.578 589.344 806.826 595.872L800.922 597.408C800.058 593.808 797.802 591.168 793.674 591.168C789.738 591.168 786.81 593.712 786.81 599.28C786.81 604.704 789.45 607.248 793.77 607.248C798.426 607.248 800.682 604.224 801.258 600.192L807.594 601.056ZM812.312 576.96H819.512V591.984H819.656C820.856 588.192 824.072 585.84 828.968 585.84C834.968 585.84 838.328 589.44 838.328 596.064V612H831.128V597.024C831.128 593.52 829.352 591.648 825.944 591.648C822.152 591.648 819.512 594 819.512 598.32V612H812.312V576.96ZM874.958 585.84C881.39 585.84 886.718 590.784 886.718 599.136C886.718 607.296 881.822 612.576 874.814 612.576C870.254 612.576 866.894 610.224 865.406 606.672H865.262V621.504H858.062V586.416H865.262V591.984H865.406C866.99 588.192 870.254 585.84 874.958 585.84ZM865.214 599.856C865.214 603.984 868.19 607.248 872.414 607.248C876.542 607.248 879.326 603.984 879.326 599.136C879.326 594.432 876.542 591.168 872.414 591.168C868.19 591.168 865.214 594.576 865.214 598.56V599.856ZM891.859 612V586.416H899.059V612H891.859ZM891.763 583.152V576.96H899.155V583.152H891.763ZM931.559 603.936C929.399 609.984 924.023 612.576 917.831 612.576C909.383 612.576 904.199 607.344 904.199 599.568C904.199 591.456 909.623 585.84 918.023 585.84C926.183 585.84 931.607 590.88 931.607 600.432H911.303C911.639 604.416 913.559 607.248 918.263 607.248C921.767 607.248 924.743 605.664 925.703 602.112L931.559 603.936ZM911.543 596.16H924.215C923.447 592.656 921.239 591.024 918.023 591.024C914.759 591.024 912.359 592.608 911.543 596.16ZM963.453 601.056C962.349 608.208 957.405 612.576 949.053 612.576C940.653 612.576 935.277 607.296 935.277 599.568C935.277 591.072 941.661 585.84 949.389 585.84C956.397 585.84 961.437 589.344 962.685 595.872L956.781 597.408C955.917 593.808 953.661 591.168 949.533 591.168C945.597 591.168 942.669 593.712 942.669 599.28C942.669 604.704 945.309 607.248 949.629 607.248C954.285 607.248 956.541 604.224 957.117 600.192L963.453 601.056ZM994.043 603.936C991.883 609.984 986.507 612.576 980.315 612.576C971.867 612.576 966.683 607.344 966.683 599.568C966.683 591.456 972.107 585.84 980.507 585.84C988.667 585.84 994.091 590.88 994.091 600.432H973.787C974.123 604.416 976.043 607.248 980.747 607.248C984.251 607.248 987.227 605.664 988.187 602.112L994.043 603.936ZM974.027 596.16H986.699C985.931 592.656 983.723 591.024 980.507 591.024C977.243 591.024 974.843 592.608 974.027 596.16Z" fill="white"/>
<path d="M82 456C82 446.059 90.0589 438 100 438H1400C1409.94 438 1418 446.059 1418 456V682H82V456Z" stroke="url(#paint1_linear_661_6880)" stroke-width="4"/>
<defs>
<linearGradient id="paint0_linear_661_6880" x1="750" y1="148" x2="750" y2="396" gradientUnits="userSpaceOnUse">
<stop stop-color="#FF6D00"/>
<stop offset="0.921875" stop-color="#6300C7" stop-opacity="0"/>
</linearGradient>
<linearGradient id="paint1_linear_661_6880" x1="750" y1="436" x2="750" y2="684" gradientUnits="userSpaceOnUse">
<stop stop-color="#FF6D00"/>
<stop offset="0.921875" stop-color="#6300C7" stop-opacity="0"/>
</linearGradient>
</defs>
</svg>
