<svg width="1500" height="268" viewBox="0 0 1500 268" fill="none" xmlns="http://www.w3.org/2000/svg">
<rect width="1500" height="268" fill="url(#paint0_linear_557_12251)"/>
<defs>
<linearGradient id="paint0_linear_557_12251" x1="2.2701e-06" y1="391.5" x2="1200" y2="391.5" gradientUnits="userSpaceOnUse">
<stop offset="0.0677083" stop-color="#FF6D00"/>
<stop offset="0.5" stop-color="#FF2100"/>
<stop offset="0.942708" stop-color="#6300C7"/>
</linearGradient>
</defs>
<rect width="473.333" height="268" rx="20" fill="white"/>
<path d="M61.856 74L61.632 68.464H61.536C60.064 72.24 56.8 74.384 52.704 74.384C45.248 74.384 41.376 69.552 41.376 62.608C41.376 55.184 46.304 50.256 53.888 50.256C59.744 50.256 63.904 53.328 65.408 58.16L60.864 59.344C59.968 56.56 57.728 54.416 53.856 54.416C49.248 54.416 46.336 57.52 46.336 62.544C46.336 67.44 49.12 70.256 53.44 70.256C56.992 70.256 60.224 68.368 60.928 65.008H54.016V61.36H65.888V74H61.856ZM87.7373 68.624C86.2973 72.656 82.7133 74.384 78.5853 74.384C72.9533 74.384 69.4973 70.896 69.4973 65.712C69.4973 60.304 73.1133 56.56 78.7133 56.56C84.1533 56.56 87.7693 59.92 87.7693 66.288H74.2333C74.4573 68.944 75.7373 70.832 78.8733 70.832C81.2093 70.832 83.1933 69.776 83.8333 67.408L87.7373 68.624ZM74.3933 63.44H82.8413C82.3293 61.104 80.8573 60.016 78.7133 60.016C76.5373 60.016 74.9373 61.072 74.3933 63.44ZM89.256 56.944H92.488L94.632 51.984H96.776V56.944H101.864V60.368H96.776V68.048C96.776 70.192 97.416 70.8 99.368 70.8C100.2 70.8 101.064 70.672 102.024 70.512V73.872C100.52 74.16 99.464 74.32 97.48 74.32C93.352 74.32 91.976 72.72 91.976 69.904V60.368H89.256V56.944ZM131.781 66.704C131.045 71.472 127.749 74.384 122.181 74.384C116.581 74.384 112.997 70.864 112.997 65.712C112.997 60.048 117.253 56.56 122.405 56.56C127.077 56.56 130.437 58.896 131.269 63.248L127.333 64.272C126.757 61.872 125.253 60.112 122.501 60.112C119.877 60.112 117.925 61.808 117.925 65.52C117.925 69.136 119.685 70.832 122.565 70.832C125.669 70.832 127.173 68.816 127.557 66.128L131.781 66.704ZM152.047 74H147.375V70.064H147.247C146.255 72.944 144.047 74.384 140.943 74.384C136.943 74.384 134.703 71.984 134.703 67.568V56.944H139.503V66.928C139.503 69.264 140.687 70.512 142.959 70.512C145.487 70.512 147.247 68.944 147.247 66.064V56.944H152.047V74ZM158.314 67.888C159.338 70.032 161.45 71.024 163.978 71.024C166.282 71.024 167.882 70.192 167.882 68.88C167.882 67.888 166.954 67.44 165.162 67.28C163.914 67.184 162.858 67.152 161.61 67.024C159.498 66.832 155.946 66 155.946 62.224C155.946 58.704 159.274 56.56 163.658 56.56C166.698 56.56 169.706 57.52 171.626 59.952L168.81 62.32C167.498 60.688 165.706 59.888 163.818 59.888C161.834 59.888 160.426 60.592 160.426 61.712C160.426 62.576 160.938 63.024 162.666 63.184C163.626 63.28 164.97 63.312 165.994 63.408C168.65 63.632 172.298 64.56 172.298 68.464C172.298 72.208 168.842 74.384 163.914 74.384C159.306 74.384 156.33 72.656 154.858 69.264L158.314 67.888ZM173.475 56.944H176.707L178.851 51.984H180.995V56.944H186.083V60.368H180.995V68.048C180.995 70.192 181.635 70.8 183.587 70.8C184.419 70.8 185.283 70.672 186.243 70.512V73.872C184.739 74.16 183.683 74.32 181.699 74.32C177.571 74.32 176.195 72.72 176.195 69.904V60.368H173.475V56.944ZM197.659 74.384C191.867 74.384 188.091 70.864 188.091 65.488C188.091 60.112 191.867 56.56 197.659 56.56C203.451 56.56 207.227 60.112 207.227 65.488C207.227 70.864 203.451 74.384 197.659 74.384ZM193.019 65.488C193.019 68.72 194.715 70.864 197.659 70.864C200.603 70.864 202.299 68.72 202.299 65.488C202.299 62.256 200.603 60.08 197.659 60.08C194.715 60.08 193.019 62.256 193.019 65.488ZM210.646 56.944H215.318V60.784H215.414C216.342 58.128 218.454 56.56 221.59 56.56C224.597 56.56 226.582 58.064 227.318 60.848H227.382C228.342 58.192 230.518 56.56 233.686 56.56C237.558 56.56 239.766 58.992 239.766 63.376V74H234.966V64.016C234.966 61.68 233.814 60.432 231.734 60.432C229.302 60.432 227.606 62 227.606 64.88V74H222.806V64.016C222.806 61.68 221.686 60.432 219.542 60.432C217.174 60.432 215.446 62 215.446 64.88V74H210.646V56.944ZM250.975 56.944H254.207L256.351 51.984H258.495V56.944H263.583V60.368H258.495V68.048C258.495 70.192 259.135 70.8 261.087 70.8C261.919 70.8 262.783 70.672 263.743 70.512V73.872C262.239 74.16 261.183 74.32 259.199 74.32C255.071 74.32 253.695 72.72 253.695 69.904V60.368H250.975V56.944ZM283.831 68.624C282.391 72.656 278.807 74.384 274.679 74.384C269.047 74.384 265.591 70.896 265.591 65.712C265.591 60.304 269.207 56.56 274.807 56.56C280.247 56.56 283.863 59.92 283.863 66.288H270.327C270.551 68.944 271.831 70.832 274.967 70.832C277.303 70.832 279.287 69.776 279.927 67.408L283.831 68.624ZM270.487 63.44H278.935C278.423 61.104 276.951 60.016 274.807 60.016C272.631 60.016 271.031 61.072 270.487 63.44ZM305.094 66.704C304.358 71.472 301.062 74.384 295.494 74.384C289.894 74.384 286.31 70.864 286.31 65.712C286.31 60.048 290.566 56.56 295.718 56.56C300.39 56.56 303.75 58.896 304.582 63.248L300.646 64.272C300.07 61.872 298.566 60.112 295.814 60.112C293.19 60.112 291.238 61.808 291.238 65.52C291.238 69.136 292.998 70.832 295.878 70.832C298.982 70.832 300.486 68.816 300.87 66.128L305.094 66.704ZM308.239 50.64H313.039V60.656H313.135C313.935 58.128 316.079 56.56 319.343 56.56C323.343 56.56 325.583 58.96 325.583 63.376V74H320.783V64.016C320.783 61.68 319.599 60.432 317.327 60.432C314.799 60.432 313.039 62 313.039 64.88V74H308.239V50.64ZM329.771 56.944H334.443V60.88H334.571C335.562 58 337.771 56.56 340.875 56.56C344.875 56.56 347.115 58.96 347.115 63.376V74H342.315V64.016C342.315 61.68 341.131 60.432 338.859 60.432C336.331 60.432 334.571 61.968 334.571 64.848V74H329.771V56.944ZM351.302 74V56.944H356.102V74H351.302ZM351.238 54.768V50.64H356.166V54.768H351.238ZM378.312 66.704C377.577 71.472 374.281 74.384 368.713 74.384C363.113 74.384 359.529 70.864 359.529 65.712C359.529 60.048 363.785 56.56 368.937 56.56C373.609 56.56 376.969 58.896 377.801 63.248L373.865 64.272C373.289 61.872 371.785 60.112 369.033 60.112C366.409 60.112 364.457 61.808 364.457 65.52C364.457 69.136 366.217 70.832 369.097 70.832C372.201 70.832 373.705 68.816 374.089 66.128L378.312 66.704ZM385.938 74.384C382.226 74.384 380.37 72.016 380.37 69.808C380.37 67.344 382.002 65.872 384.946 65.072L392.69 62.992V62.768C392.69 60.784 391.506 59.888 389.394 59.888C387.25 59.888 385.586 61.008 384.594 63.76L380.722 62.32C382.258 58.192 385.49 56.592 389.586 56.592C394.706 56.592 397.426 59.184 397.426 62.672V68.656C397.426 69.904 397.842 70.576 398.898 70.576C399.378 70.576 400.05 70.416 400.498 70.16V73.648C399.698 74 398.194 74.32 397.074 74.32C394.674 74.32 392.818 73.008 392.818 70.48V70.128H392.69C391.474 72.688 389.106 74.384 385.938 74.384ZM385.074 69.104C385.074 69.904 385.746 70.768 387.314 70.768C389.234 70.768 391.858 69.36 392.69 67.184V65.52L387.122 67.44C385.906 67.856 385.074 68.176 385.074 69.104ZM402.864 74V50.64H407.664V74H402.864ZM46.688 118.384C42.976 118.384 41.12 116.016 41.12 113.808C41.12 111.344 42.752 109.872 45.696 109.072L53.44 106.992V106.768C53.44 104.784 52.256 103.888 50.144 103.888C48 103.888 46.336 105.008 45.344 107.76L41.472 106.32C43.008 102.192 46.24 100.592 50.336 100.592C55.456 100.592 58.176 103.184 58.176 106.672V112.656C58.176 113.904 58.592 114.576 59.648 114.576C60.128 114.576 60.8 114.416 61.248 114.16V117.648C60.448 118 58.944 118.32 57.824 118.32C55.424 118.32 53.568 117.008 53.568 114.48V114.128H53.44C52.224 116.688 49.856 118.384 46.688 118.384ZM45.824 113.104C45.824 113.904 46.496 114.768 48.064 114.768C49.984 114.768 52.608 113.36 53.44 111.184V109.52L47.872 111.44C46.656 111.856 45.824 112.176 45.824 113.104ZM65.9703 111.888C66.9943 114.032 69.1063 115.024 71.6343 115.024C73.9383 115.024 75.5383 114.192 75.5383 112.88C75.5383 111.888 74.6103 111.44 72.8183 111.28C71.5703 111.184 70.5143 111.152 69.2663 111.024C67.1543 110.832 63.6023 110 63.6023 106.224C63.6023 102.704 66.9303 100.56 71.3142 100.56C74.3543 100.56 77.3623 101.52 79.2823 103.952L76.4663 106.32C75.1543 104.688 73.3623 103.888 71.4743 103.888C69.4903 103.888 68.0823 104.592 68.0823 105.712C68.0823 106.576 68.5943 107.024 70.3223 107.184C71.2823 107.28 72.6263 107.312 73.6503 107.408C76.3063 107.632 79.9543 108.56 79.9543 112.464C79.9543 116.208 76.4983 118.384 71.5703 118.384C66.9623 118.384 63.9863 116.656 62.5143 113.264L65.9703 111.888ZM84.939 111.888C85.963 114.032 88.075 115.024 90.603 115.024C92.907 115.024 94.507 114.192 94.507 112.88C94.507 111.888 93.579 111.44 91.787 111.28C90.539 111.184 89.483 111.152 88.235 111.024C86.123 110.832 82.571 110 82.571 106.224C82.571 102.704 85.899 100.56 90.283 100.56C93.323 100.56 96.331 101.52 98.251 103.952L95.435 106.32C94.123 104.688 92.331 103.888 90.443 103.888C88.459 103.888 87.051 104.592 87.051 105.712C87.051 106.576 87.563 107.024 89.291 107.184C90.251 107.28 91.595 107.312 92.619 107.408C95.275 107.632 98.923 108.56 98.923 112.464C98.923 116.208 95.467 118.384 90.539 118.384C85.931 118.384 82.955 116.656 81.483 113.264L84.939 111.888ZM102.052 118V100.944H106.852V118H102.052ZM101.988 98.768V94.64H106.916V98.768H101.988ZM113.127 111.888C114.151 114.032 116.263 115.024 118.791 115.024C121.095 115.024 122.695 114.192 122.695 112.88C122.695 111.888 121.767 111.44 119.975 111.28C118.727 111.184 117.671 111.152 116.423 111.024C114.311 110.832 110.759 110 110.759 106.224C110.759 102.704 114.087 100.56 118.47 100.56C121.511 100.56 124.519 101.52 126.439 103.952L123.623 106.32C122.311 104.688 120.519 103.888 118.631 103.888C116.647 103.888 115.239 104.592 115.239 105.712C115.239 106.576 115.751 107.024 117.479 107.184C118.439 107.28 119.783 107.312 120.807 107.408C123.463 107.632 127.111 108.56 127.111 112.464C127.111 116.208 123.655 118.384 118.727 118.384C114.119 118.384 111.143 116.656 109.671 113.264L113.127 111.888ZM128.287 100.944H131.519L133.663 95.984H135.807V100.944H140.895V104.368H135.807V112.048C135.807 114.192 136.447 114.8 138.399 114.8C139.231 114.8 140.095 114.672 141.055 114.512V117.872C139.551 118.16 138.495 118.32 136.511 118.32C132.383 118.32 131.007 116.72 131.007 113.904V104.368H128.287V100.944ZM148.532 118.384C144.82 118.384 142.964 116.016 142.964 113.808C142.964 111.344 144.596 109.872 147.54 109.072L155.284 106.992V106.768C155.284 104.784 154.1 103.888 151.988 103.888C149.844 103.888 148.18 105.008 147.188 107.76L143.316 106.32C144.852 102.192 148.084 100.592 152.18 100.592C157.3 100.592 160.02 103.184 160.02 106.672V112.656C160.02 113.904 160.436 114.576 161.492 114.576C161.972 114.576 162.644 114.416 163.092 114.16V117.648C162.292 118 160.788 118.32 159.668 118.32C157.268 118.32 155.412 117.008 155.412 114.48V114.128H155.284C154.068 116.688 151.7 118.384 148.532 118.384ZM147.668 113.104C147.668 113.904 148.34 114.768 149.908 114.768C151.828 114.768 154.452 113.36 155.284 111.184V109.52L149.716 111.44C148.5 111.856 147.668 112.176 147.668 113.104ZM165.458 100.944H170.13V104.88H170.258C171.25 102 173.458 100.56 176.562 100.56C180.562 100.56 182.802 102.96 182.802 107.376V118H178.002V108.016C178.002 105.68 176.818 104.432 174.546 104.432C172.018 104.432 170.258 105.968 170.258 108.848V118H165.458V100.944ZM204.781 110.704C204.045 115.472 200.749 118.384 195.181 118.384C189.581 118.384 185.997 114.864 185.997 109.712C185.997 104.048 190.253 100.56 195.405 100.56C200.077 100.56 203.437 102.896 204.269 107.248L200.333 108.272C199.757 105.872 198.253 104.112 195.501 104.112C192.877 104.112 190.925 105.808 190.925 109.52C190.925 113.136 192.685 114.832 195.565 114.832C198.669 114.832 200.173 112.816 200.557 110.128L204.781 110.704ZM225.175 112.624C223.735 116.656 220.151 118.384 216.023 118.384C210.391 118.384 206.935 114.896 206.935 109.712C206.935 104.304 210.551 100.56 216.151 100.56C221.591 100.56 225.207 103.92 225.207 110.288H211.671C211.895 112.944 213.175 114.832 216.311 114.832C218.647 114.832 220.631 113.776 221.271 111.408L225.175 112.624ZM211.831 107.44H220.279C219.767 105.104 218.295 104.016 216.151 104.016C213.975 104.016 212.375 105.072 211.831 107.44ZM261.358 106.16C259.886 108.272 258.126 110.48 256.526 112.368C257.998 113.584 259.47 114.192 261.198 114.192C261.806 114.192 262.414 114.096 262.766 114V117.872C262.094 118.16 260.718 118.256 259.822 118.256C257.262 118.256 255.374 117.168 253.486 115.504C251.598 117.04 248.846 118.384 244.718 118.384C240.078 118.384 236.686 115.632 236.686 111.952C236.686 109.52 238.03 107.184 241.038 105.808L242.766 105.04C241.358 103.6 240.59 101.872 240.59 100.048C240.59 96.848 243.534 94.256 248.11 94.256C252.462 94.256 254.958 96.848 254.958 99.632C254.958 101.616 253.774 103.568 251.502 104.72L249.646 105.648L253.934 109.872C255.342 108.24 257.294 105.712 258.51 103.888L261.358 106.16ZM241.294 111.632C241.294 113.168 242.798 114.544 245.294 114.544C247.566 114.544 249.294 113.872 250.734 112.848L245.55 107.76L243.566 108.752C242.062 109.52 241.294 110.512 241.294 111.632ZM245.102 99.696C245.102 100.72 245.678 101.712 246.67 102.704L247.054 103.088L249.134 102.128C250.222 101.616 250.798 100.752 250.798 99.728C250.798 98.608 249.774 97.616 248.014 97.616C246.158 97.616 245.102 98.48 245.102 99.696ZM272.975 100.944H276.207L278.351 95.984H280.495V100.944H285.583V104.368H280.495V112.048C280.495 114.192 281.135 114.8 283.087 114.8C283.919 114.8 284.783 114.672 285.743 114.512V117.872C284.239 118.16 283.183 118.32 281.199 118.32C277.071 118.32 275.695 116.72 275.695 113.904V104.368H272.975V100.944ZM301.443 105.04C301.027 104.944 300.483 104.848 299.907 104.848C295.971 104.848 293.539 108.112 293.539 112.464V118H288.739V100.944H293.411V106.896H293.475C294.211 103.664 295.171 102.128 297.347 101.2C298.019 100.912 298.947 100.752 299.843 100.752C300.419 100.752 300.963 100.816 301.443 100.944V105.04ZM308.094 118.384C304.382 118.384 302.526 116.016 302.526 113.808C302.526 111.344 304.158 109.872 307.102 109.072L314.846 106.992V106.768C314.846 104.784 313.662 103.888 311.55 103.888C309.406 103.888 307.742 105.008 306.75 107.76L302.878 106.32C304.414 102.192 307.646 100.592 311.742 100.592C316.862 100.592 319.582 103.184 319.582 106.672V112.656C319.582 113.904 319.998 114.576 321.054 114.576C321.534 114.576 322.206 114.416 322.654 114.16V117.648C321.854 118 320.35 118.32 319.23 118.32C316.83 118.32 314.974 117.008 314.974 114.48V114.128H314.846C313.63 116.688 311.262 118.384 308.094 118.384ZM307.23 113.104C307.23 113.904 307.902 114.768 309.47 114.768C311.39 114.768 314.014 113.36 314.846 111.184V109.52L309.278 111.44C308.062 111.856 307.23 112.176 307.23 113.104ZM325.021 118V100.944H329.821V118H325.021ZM324.957 98.768V94.64H329.885V98.768H324.957ZM334.239 100.944H338.911V104.88H339.039C340.031 102 342.239 100.56 345.343 100.56C349.343 100.56 351.583 102.96 351.583 107.376V118H346.783V108.016C346.783 105.68 345.599 104.432 343.327 104.432C340.799 104.432 339.039 105.968 339.039 108.848V118H334.239V100.944ZM355.771 118V100.944H360.571V118H355.771ZM355.707 98.768V94.64H360.635V98.768H355.707ZM364.989 100.944H369.661V104.88H369.789C370.781 102 372.989 100.56 376.093 100.56C380.093 100.56 382.333 102.96 382.333 107.376V118H377.533V108.016C377.533 105.68 376.349 104.432 374.077 104.432C371.549 104.432 369.789 105.968 369.789 108.848V118H364.989V100.944ZM394.137 124.72C388.025 124.72 386.169 122.512 386.169 120.688C386.169 118.96 387.833 118.192 389.689 118V117.904C387.097 117.84 385.433 116.56 385.433 114.352C385.433 112.72 386.649 110.928 389.625 110.416V110.32C387.769 109.36 386.681 107.888 386.681 105.968C386.681 102.768 389.785 100.56 395.065 100.56C396.441 100.56 397.721 100.72 398.809 101.04L399.353 95.792H404.825V95.952L400.153 101.488C402.137 102.416 403.321 103.92 403.321 105.968C403.321 109.36 400.089 111.408 395.097 111.408C393.881 111.408 392.793 111.312 391.801 111.088C390.297 111.312 389.593 111.824 389.593 112.752C389.593 113.424 390.169 113.904 391.609 113.904H398.137C401.977 113.904 404.793 115.28 404.793 118.448C404.793 122.384 400.441 124.72 394.137 124.72ZM390.489 119.6C390.489 121.008 391.769 121.936 395.129 121.936C397.817 121.936 400.409 121.328 400.409 119.536C400.409 118.416 399.481 118.064 396.377 118.064H392.729C391.161 118.064 390.489 118.576 390.489 119.6ZM391.609 105.968C391.609 107.664 392.76 108.592 394.969 108.592C397.145 108.592 398.393 107.696 398.393 106C398.393 104.272 397.081 103.376 395.033 103.376C393.017 103.376 391.609 104.272 391.609 105.968ZM409.408 111.888C410.432 114.032 412.544 115.024 415.072 115.024C417.376 115.024 418.976 114.192 418.976 112.88C418.976 111.888 418.048 111.44 416.256 111.28C415.008 111.184 413.952 111.152 412.704 111.024C410.592 110.832 407.04 110 407.04 106.224C407.04 102.704 410.368 100.56 414.752 100.56C417.792 100.56 420.8 101.52 422.72 103.952L419.904 106.32C418.592 104.688 416.8 103.888 414.912 103.888C412.928 103.888 411.52 104.592 411.52 105.712C411.52 106.576 412.032 107.024 413.76 107.184C414.72 107.28 416.064 107.312 417.088 107.408C419.744 107.632 423.392 108.56 423.392 112.464C423.392 116.208 419.936 118.384 415.008 118.384C410.4 118.384 407.424 116.656 405.952 113.264L409.408 111.888Z" fill="#191326"/>
<rect x="40" y="168" width="267" height="60" rx="30" fill="#6300C7"/>
<path d="M80.366 204H76.82L74.678 198.996H72.428V202.308L72.446 204H69.314L69.332 202.308V192.822L69.314 191.13H75.254C77.468 191.13 80.15 191.778 80.15 194.982C80.15 196.944 79.052 198.042 77.63 198.582L80.366 203.964V204ZM72.428 193.38V196.746H74.714C75.866 196.746 77.018 196.458 77.018 195.072C77.018 193.596 75.866 193.38 74.642 193.38H72.428ZM92.5491 196.332V198.654H87.3831V201.678H93.7551V204H84.2691L84.2871 202.308V192.822L84.2691 191.13H93.6651V193.452H87.3831V196.332H92.5491ZM103.263 204.342C99.2668 204.342 96.8368 201.282 96.8368 197.556C96.8368 193.848 99.2668 190.788 103.263 190.788C107.241 190.788 109.707 193.848 109.707 197.556C109.707 200.256 108.411 202.614 106.179 203.694C106.521 204.288 107.295 204.414 107.979 204.414C108.249 204.414 108.537 204.396 108.897 204.378V206.898C108.483 206.934 108.087 206.97 107.781 206.97C105.945 206.97 104.289 206.448 103.731 204.324C103.569 204.324 103.425 204.342 103.263 204.342ZM103.263 202.074C105.027 202.074 106.251 200.688 106.251 197.556C106.251 194.442 105.027 193.056 103.263 193.056C101.499 193.056 100.275 194.442 100.275 197.556C100.275 200.688 101.499 202.074 103.263 202.074ZM116.746 191.13L116.728 192.822V199.41C116.728 200.148 116.89 200.76 117.358 201.228C117.772 201.642 118.402 201.894 119.248 201.894C120.076 201.894 120.688 201.642 121.066 201.264C121.534 200.796 121.696 200.148 121.696 199.428V192.822L121.678 191.13H124.54L124.522 192.822V199.392C124.522 200.742 124.216 202.038 123.226 203.01C122.344 203.874 120.94 204.342 119.14 204.342C117.232 204.342 115.756 203.838 114.874 202.992C113.812 201.966 113.632 200.598 113.632 198.978V192.822L113.614 191.13H116.746ZM137.344 196.332V198.654H132.178V201.678H138.55V204H129.064L129.082 202.308V192.822L129.064 191.13H138.46V193.452H132.178V196.332H137.344ZM152.893 192.912L151.219 194.73C150.391 193.956 149.311 193.128 147.493 193.128C146.107 193.128 145.153 193.614 145.153 194.532C145.153 195.774 146.953 195.846 148.501 196.116C150.913 196.53 153.253 197.376 153.253 200.022C153.253 202.488 151.237 204.342 147.673 204.342C144.811 204.342 142.795 203.154 141.661 201.984L143.335 200.184C144.307 201.066 145.549 202.002 147.655 202.002C149.113 202.002 150.175 201.552 150.175 200.544C150.175 199.176 148.285 199.068 146.611 198.78C144.199 198.366 142.075 197.52 142.075 195.018C142.075 192.624 144.019 190.788 147.313 190.788C149.887 190.788 151.885 191.922 152.893 192.912ZM166.512 193.452H162.786V202.308L162.804 204H159.654L159.672 202.308V193.452H155.946V191.13H166.512V193.452ZM185.278 193.452H181.552V202.308L181.57 204H178.42L178.438 202.308V193.452H174.712V191.13H185.278V193.452ZM200.003 204H196.457L194.315 198.996H192.065V202.308L192.083 204H188.951L188.969 202.308V192.822L188.951 191.13H194.891C197.105 191.13 199.787 191.778 199.787 194.982C199.787 196.944 198.689 198.042 197.267 198.582L200.003 203.964V204ZM192.065 193.38V196.746H194.351C195.503 196.746 196.655 196.458 196.655 195.072C196.655 193.596 195.503 193.38 194.279 193.38H192.065ZM206.372 201.102L205.436 204H202.592L207.182 191.13H210.53L215.048 204H211.718L210.836 201.102H206.372ZM208.694 194.064L207.092 198.906H210.17L208.73 194.064H208.694ZM221.553 204H218.421L218.439 202.308V192.822L218.421 191.13H221.553L221.535 192.822V202.308L221.553 204ZM234.75 192.822L234.732 191.13H237.468L237.45 192.822V202.308L237.468 204H235.074L229.098 195.918H229.062L229.098 197.052V202.308L229.116 204H226.38L226.398 202.308V192.822L226.38 191.13H229.152L234.75 198.672H234.786L234.75 197.538V192.822ZM245.417 204H242.285L242.303 202.308V192.822L242.285 191.13H245.417L245.399 192.822V202.308L245.417 204ZM258.614 192.822L258.596 191.13H261.332L261.314 192.822V202.308L261.332 204H258.938L252.962 195.918H252.926L252.962 197.052V202.308L252.98 204H250.244L250.262 202.308V192.822L250.244 191.13H253.016L258.614 198.672H258.65L258.614 197.538V192.822ZM277.457 198.906V204H275.603L275.459 202.416H275.423C274.685 203.532 273.515 204.342 271.481 204.342C268.043 204.342 265.361 202.074 265.361 197.664C265.361 193.452 267.953 190.788 271.769 190.788C274.505 190.788 276.593 192.138 277.331 194.676L274.469 195.288C274.163 194.208 273.263 193.056 271.733 193.056C270.077 193.056 268.673 194.406 268.673 197.61C268.673 200.904 270.239 202.092 271.787 202.092C273.371 202.092 274.559 200.994 274.595 199.284H271.805V197.214H277.475L277.457 198.906Z" fill="white"/>
<rect x="513.333" width="473.333" height="268" rx="20" fill="white"/>
<path d="M572.693 50.64H577.269V74H571.253L561.749 58.832L560.469 56.592V74H555.893V50.64H561.909L571.381 65.904L572.693 68.24V50.64ZM599.289 68.624C597.849 72.656 594.265 74.384 590.137 74.384C584.505 74.384 581.049 70.896 581.049 65.712C581.049 60.304 584.665 56.56 590.265 56.56C595.705 56.56 599.321 59.92 599.321 66.288H585.785C586.009 68.944 587.289 70.832 590.425 70.832C592.761 70.832 594.745 69.776 595.385 67.408L599.289 68.624ZM585.945 63.44H594.393C593.881 61.104 592.409 60.016 590.265 60.016C588.089 60.016 586.489 61.072 585.945 63.44ZM620.008 68.624C618.568 72.656 614.984 74.384 610.856 74.384C605.224 74.384 601.768 70.896 601.768 65.712C601.768 60.304 605.384 56.56 610.984 56.56C616.424 56.56 620.04 59.92 620.04 66.288H606.504C606.728 68.944 608.008 70.832 611.144 70.832C613.48 70.832 615.464 69.776 616.104 67.408L620.008 68.624ZM606.664 63.44H615.112C614.6 61.104 613.128 60.016 610.984 60.016C608.808 60.016 607.208 61.072 606.664 63.44ZM630.327 74.384C626.039 74.384 622.487 71.088 622.487 65.52C622.487 60.08 625.751 56.56 630.423 56.56C633.463 56.56 635.703 58.128 636.695 60.496H636.791V50.64H641.591V74H636.791V70.288H636.695C635.639 72.816 633.463 74.384 630.327 74.384ZM627.415 65.52C627.415 68.656 629.271 70.832 632.023 70.832C634.839 70.832 636.823 68.56 636.823 65.904V65.04C636.823 62.288 634.839 60.112 632.023 60.112C629.271 60.112 627.415 62.288 627.415 65.52ZM659.459 74.384C655.747 74.384 653.891 72.016 653.891 69.808C653.891 67.344 655.523 65.872 658.467 65.072L666.211 62.992V62.768C666.211 60.784 665.027 59.888 662.915 59.888C660.771 59.888 659.107 61.008 658.115 63.76L654.243 62.32C655.779 58.192 659.011 56.592 663.107 56.592C668.227 56.592 670.947 59.184 670.947 62.672V68.656C670.947 69.904 671.363 70.576 672.419 70.576C672.899 70.576 673.571 70.416 674.019 70.16V73.648C673.219 74 671.715 74.32 670.595 74.32C668.195 74.32 666.339 73.008 666.339 70.48V70.128H666.211C664.995 72.688 662.627 74.384 659.459 74.384ZM658.595 69.104C658.595 69.904 659.267 70.768 660.835 70.768C662.755 70.768 665.379 69.36 666.211 67.184V65.52L660.643 67.44C659.427 67.856 658.595 68.176 658.595 69.104ZM676.385 56.944H681.057V60.88H681.185C682.177 58 684.385 56.56 687.489 56.56C691.489 56.56 693.729 58.96 693.729 63.376V74H688.929V64.016C688.929 61.68 687.745 60.432 685.473 60.432C682.945 60.432 681.185 61.968 681.185 64.848V74H676.385V56.944ZM709.89 56.944H714.882L707.33 75.76C705.954 79.216 703.714 80.72 699.81 80.72C698.338 80.72 696.994 80.496 696.13 80.176V76.88C697.41 77.264 698.434 77.392 699.554 77.392C700.706 77.392 701.378 77.2 701.858 76.816C702.338 76.432 702.53 75.888 702.53 75.184C702.53 74.288 702.178 73.136 701.634 71.824L695.458 56.944H700.578L705.282 69.84H705.442L709.89 56.944ZM715.777 56.944H719.009L721.153 51.984H723.297V56.944H728.385V60.368H723.297V68.048C723.297 70.192 723.937 70.8 725.889 70.8C726.721 70.8 727.585 70.672 728.545 70.512V73.872C727.041 74.16 725.985 74.32 724.001 74.32C719.873 74.32 718.497 72.72 718.497 69.904V60.368H715.777V56.944ZM731.541 50.64H736.341V60.656H736.437C737.237 58.128 739.381 56.56 742.645 56.56C746.645 56.56 748.885 58.96 748.885 63.376V74H744.085V64.016C744.085 61.68 742.901 60.432 740.629 60.432C738.101 60.432 736.341 62 736.341 64.88V74H731.541V50.64ZM753.072 74V56.944H757.872V74H753.072ZM753.008 54.768V50.64H757.936V54.768H753.008ZM762.291 56.944H766.963V60.88H767.091C768.083 58 770.291 56.56 773.395 56.56C777.395 56.56 779.635 58.96 779.635 63.376V74H774.835V64.016C774.835 61.68 773.651 60.432 771.379 60.432C768.851 60.432 767.091 61.968 767.091 64.848V74H762.291V56.944ZM791.438 80.72C785.326 80.72 783.47 78.512 783.47 76.688C783.47 74.96 785.134 74.192 786.99 74V73.904C784.398 73.84 782.734 72.56 782.734 70.352C782.734 68.72 783.95 66.928 786.926 66.416V66.32C785.07 65.36 783.982 63.888 783.982 61.968C783.982 58.768 787.086 56.56 792.366 56.56C793.742 56.56 795.022 56.72 796.11 57.04L796.654 51.792H802.126V51.952L797.454 57.488C799.438 58.416 800.622 59.92 800.622 61.968C800.622 65.36 797.39 67.408 792.398 67.408C791.182 67.408 790.094 67.312 789.102 67.088C787.598 67.312 786.894 67.824 786.894 68.752C786.894 69.424 787.47 69.904 788.91 69.904H795.438C799.278 69.904 802.094 71.28 802.094 74.448C802.094 78.384 797.742 80.72 791.438 80.72ZM787.79 75.6C787.79 77.008 789.07 77.936 792.43 77.936C795.118 77.936 797.71 77.328 797.71 75.536C797.71 74.416 796.782 74.064 793.678 74.064H790.03C788.462 74.064 787.79 74.576 787.79 75.6ZM788.91 61.968C788.91 63.664 790.062 64.592 792.27 64.592C794.446 64.592 795.694 63.696 795.694 62C795.694 60.272 794.382 59.376 792.334 59.376C790.318 59.376 788.91 60.272 788.91 61.968ZM811.301 50.256C817.125 50.256 819.813 53.488 819.813 56.912C819.813 60.496 817.413 61.584 815.141 62.544C813.221 63.376 811.365 64.176 811.365 66.608H808.005V66.416C808.005 63.28 810.053 61.712 811.781 60.432C813.157 59.408 814.373 58.48 814.373 56.912C814.373 55.056 813.221 53.648 811.013 53.648C808.645 53.648 807.205 55.216 807.205 58.704H802.661C802.661 52.88 805.413 50.256 811.301 50.256ZM806.917 74V68.72H812.197V74H806.917ZM851.283 74L851.059 68.464H850.963C849.491 72.24 846.227 74.384 842.131 74.384C834.675 74.384 830.803 69.552 830.803 62.608C830.803 55.184 835.731 50.256 843.315 50.256C849.171 50.256 853.331 53.328 854.835 58.16L850.291 59.344C849.395 56.56 847.155 54.416 843.283 54.416C838.675 54.416 835.763 57.52 835.763 62.544C835.763 67.44 838.547 70.256 842.867 70.256C846.419 70.256 849.651 68.368 850.355 65.008H843.443V61.36H855.315V74H851.283ZM877.164 68.624C875.724 72.656 872.14 74.384 868.012 74.384C862.38 74.384 858.924 70.896 858.924 65.712C858.924 60.304 862.54 56.56 868.14 56.56C873.58 56.56 877.196 59.92 877.196 66.288H863.66C863.884 68.944 865.164 70.832 868.3 70.832C870.636 70.832 872.62 69.776 873.26 67.408L877.164 68.624ZM863.82 63.44H872.268C871.756 61.104 870.284 60.016 868.14 60.016C865.964 60.016 864.364 61.072 863.82 63.44ZM878.683 56.944H881.915L884.059 51.984H886.203V56.944H891.291V60.368H886.203V68.048C886.203 70.192 886.843 70.8 888.795 70.8C889.627 70.8 890.491 70.672 891.451 70.512V73.872C889.947 74.16 888.891 74.32 886.907 74.32C882.779 74.32 881.403 72.72 881.403 69.904V60.368H878.683V56.944ZM903.416 74V56.944H908.216V74H903.416ZM903.352 54.768V50.64H908.28V54.768H903.352ZM912.635 56.944H917.307V60.88H917.435C918.427 58 920.635 56.56 923.739 56.56C927.739 56.56 929.979 58.96 929.979 63.376V74H925.179V64.016C925.179 61.68 923.995 60.432 921.723 60.432C919.195 60.432 917.435 61.968 917.435 64.848V74H912.635V56.944ZM553.589 100.944H556.821L558.965 95.984H561.109V100.944H566.197V104.368H561.109V112.048C561.109 114.192 561.749 114.8 563.701 114.8C564.533 114.8 565.397 114.672 566.357 114.512V117.872C564.853 118.16 563.797 118.32 561.813 118.32C557.685 118.32 556.309 116.72 556.309 113.904V104.368H553.589V100.944ZM577.773 118.384C571.981 118.384 568.205 114.864 568.205 109.488C568.205 104.112 571.981 100.56 577.773 100.56C583.565 100.56 587.341 104.112 587.341 109.488C587.341 114.864 583.565 118.384 577.773 118.384ZM573.133 109.488C573.133 112.72 574.829 114.864 577.773 114.864C580.717 114.864 582.413 112.72 582.413 109.488C582.413 106.256 580.717 104.08 577.773 104.08C574.829 104.08 573.133 106.256 573.133 109.488ZM607.88 118H603.208V114.064H603.08C602.088 116.944 599.88 118.384 596.776 118.384C592.776 118.384 590.536 115.984 590.536 111.568V100.944H595.336V110.928C595.336 113.264 596.52 114.512 598.792 114.512C601.32 114.512 603.08 112.944 603.08 110.064V100.944H607.88V118ZM630.083 110.704C629.347 115.472 626.051 118.384 620.483 118.384C614.883 118.384 611.299 114.864 611.299 109.712C611.299 104.048 615.555 100.56 620.707 100.56C625.379 100.56 628.739 102.896 629.571 107.248L625.635 108.272C625.059 105.872 623.555 104.112 620.803 104.112C618.179 104.112 616.227 105.808 616.227 109.52C616.227 113.136 617.987 114.832 620.867 114.832C623.971 114.832 625.475 112.816 625.859 110.128L630.083 110.704ZM633.229 94.64H638.029V104.656H638.125C638.925 102.128 641.069 100.56 644.333 100.56C648.333 100.56 650.573 102.96 650.573 107.376V118H645.773V108.016C645.773 105.68 644.589 104.432 642.317 104.432C639.789 104.432 638.029 106 638.029 108.88V118H633.229V94.64ZM654.344 112.72H659.624V118H654.344V112.72Z" fill="#191326"/>
<rect x="553.333" y="168" width="192" height="60" rx="30" fill="#6300C7"/>
<path d="M591.323 199.536L594.113 200.202C593.753 201.696 592.061 204.342 588.317 204.342C584.897 204.342 582.053 202.11 582.053 197.7C582.053 193.596 584.609 190.788 588.425 190.788C591.791 190.788 593.411 192.93 594.005 194.946L591.125 195.45C590.783 194.316 589.955 193.056 588.353 193.056C586.679 193.056 585.401 194.55 585.401 197.574C585.401 201.102 586.985 202.074 588.425 202.074C590.027 202.074 591.053 200.85 591.323 199.536ZM603.609 204.342C599.613 204.342 597.183 201.282 597.183 197.556C597.183 193.848 599.613 190.788 603.609 190.788C607.587 190.788 610.053 193.848 610.053 197.556C610.053 201.282 607.587 204.342 603.609 204.342ZM603.609 202.074C605.373 202.074 606.597 200.688 606.597 197.556C606.597 194.442 605.373 193.056 603.609 193.056C601.845 193.056 600.621 194.442 600.621 197.556C600.621 200.688 601.845 202.074 603.609 202.074ZM622.439 192.822L622.421 191.13H625.157L625.139 192.822V202.308L625.157 204H622.763L616.787 195.918H616.751L616.787 197.052V202.308L616.805 204H614.069L614.087 202.308V192.822L614.069 191.13H616.841L622.439 198.672H622.475L622.439 197.538V192.822ZM639.392 193.452H635.666V202.308L635.684 204H632.534L632.552 202.308V193.452H628.826V191.13H639.392V193.452ZM644.265 201.102L643.329 204H640.485L645.075 191.13H648.423L652.941 204H649.611L648.729 201.102H644.265ZM646.587 194.064L644.985 198.906H648.063L646.623 194.064H646.587ZM664.639 199.536L667.429 200.202C667.069 201.696 665.377 204.342 661.633 204.342C658.213 204.342 655.369 202.11 655.369 197.7C655.369 193.596 657.925 190.788 661.741 190.788C665.107 190.788 666.727 192.93 667.321 194.946L664.441 195.45C664.099 194.316 663.271 193.056 661.669 193.056C659.995 193.056 658.717 194.55 658.717 197.574C658.717 201.102 660.301 202.074 661.741 202.074C663.343 202.074 664.369 200.85 664.639 199.536ZM680.53 193.452H676.804V202.308L676.822 204H673.672L673.69 202.308V193.452H669.964V191.13H680.53V193.452ZM693.13 191.13L693.112 192.822V199.41C693.112 200.148 693.274 200.76 693.742 201.228C694.156 201.642 694.786 201.894 695.632 201.894C696.46 201.894 697.072 201.642 697.45 201.264C697.918 200.796 698.08 200.148 698.08 199.428V192.822L698.062 191.13H700.924L700.906 192.822V199.392C700.906 200.742 700.6 202.038 699.61 203.01C698.728 203.874 697.324 204.342 695.524 204.342C693.616 204.342 692.14 203.838 691.258 202.992C690.196 201.966 690.016 200.598 690.016 198.978V192.822L689.998 191.13H693.13ZM715.834 192.912L714.16 194.73C713.332 193.956 712.252 193.128 710.434 193.128C709.048 193.128 708.094 193.614 708.094 194.532C708.094 195.774 709.894 195.846 711.442 196.116C713.854 196.53 716.194 197.376 716.194 200.022C716.194 202.488 714.178 204.342 710.614 204.342C707.752 204.342 705.736 203.154 704.602 201.984L706.276 200.184C707.248 201.066 708.49 202.002 710.596 202.002C712.054 202.002 713.116 201.552 713.116 200.544C713.116 199.176 711.226 199.068 709.552 198.78C707.14 198.366 705.016 197.52 705.016 195.018C705.016 192.624 706.96 190.788 710.254 190.788C712.828 190.788 714.826 191.922 715.834 192.912Z" fill="white"/>
<rect x="1026.67" width="473.333" height="268" rx="20" fill="white"/>
<path d="M1092.01 64.048C1091.11 70.032 1087.11 74.384 1079.82 74.384C1072.33 74.384 1068.04 69.392 1068.04 62.64C1068.04 55.12 1072.78 50.256 1080.14 50.256C1086.54 50.256 1090.47 54.064 1091.59 59.28L1087.11 60.4C1086.22 56.688 1083.79 54.416 1080.2 54.416C1075.72 54.416 1073 57.488 1073 62.448C1073 67.312 1075.56 70.224 1080.07 70.224C1084.14 70.224 1086.83 67.6 1087.4 63.472L1092.01 64.048ZM1095.44 50.64H1100.24V60.656H1100.33C1101.13 58.128 1103.28 56.56 1106.54 56.56C1110.54 56.56 1112.78 58.96 1112.78 63.376V74H1107.98V64.016C1107.98 61.68 1106.8 60.432 1104.53 60.432C1102 60.432 1100.24 62 1100.24 64.88V74H1095.44V50.64ZM1134.22 68.624C1132.78 72.656 1129.19 74.384 1125.06 74.384C1119.43 74.384 1115.98 70.896 1115.98 65.712C1115.98 60.304 1119.59 56.56 1125.19 56.56C1130.63 56.56 1134.25 59.92 1134.25 66.288H1120.71C1120.94 68.944 1122.22 70.832 1125.35 70.832C1127.69 70.832 1129.67 69.776 1130.31 67.408L1134.22 68.624ZM1120.87 63.44H1129.32C1128.81 61.104 1127.34 60.016 1125.19 60.016C1123.02 60.016 1121.42 61.072 1120.87 63.44ZM1155.48 66.704C1154.74 71.472 1151.45 74.384 1145.88 74.384C1140.28 74.384 1136.7 70.864 1136.7 65.712C1136.7 60.048 1140.95 56.56 1146.1 56.56C1150.78 56.56 1154.14 58.896 1154.97 63.248L1151.03 64.272C1150.46 61.872 1148.95 60.112 1146.2 60.112C1143.58 60.112 1141.62 61.808 1141.62 65.52C1141.62 69.136 1143.38 70.832 1146.26 70.832C1149.37 70.832 1150.87 68.816 1151.26 66.128L1155.48 66.704ZM1158.62 50.64H1163.42V63.92L1171.46 56.944H1177.28L1169.79 63.408L1177.73 74H1172.16L1166.4 66.128L1163.42 68.656V74H1158.62V50.64ZM1197.45 74.384C1191.66 74.384 1187.88 70.864 1187.88 65.488C1187.88 60.112 1191.66 56.56 1197.45 56.56C1203.24 56.56 1207.02 60.112 1207.02 65.488C1207.02 70.864 1203.24 74.384 1197.45 74.384ZM1192.81 65.488C1192.81 68.72 1194.51 70.864 1197.45 70.864C1200.39 70.864 1202.09 68.72 1202.09 65.488C1202.09 62.256 1200.39 60.08 1197.45 60.08C1194.51 60.08 1192.81 62.256 1192.81 65.488ZM1227.56 74H1222.89V70.064H1222.76C1221.77 72.944 1219.56 74.384 1216.45 74.384C1212.45 74.384 1210.21 71.984 1210.21 67.568V56.944H1215.01V66.928C1215.01 69.264 1216.2 70.512 1218.47 70.512C1221 70.512 1222.76 68.944 1222.76 66.064V56.944H1227.56V74ZM1230.02 56.944H1233.25L1235.39 51.984H1237.54V56.944H1242.62V60.368H1237.54V68.048C1237.54 70.192 1238.18 70.8 1240.13 70.8C1240.96 70.8 1241.82 70.672 1242.78 70.512V73.872C1241.28 74.16 1240.22 74.32 1238.24 74.32C1234.11 74.32 1232.74 72.72 1232.74 69.904V60.368H1230.02V56.944ZM1263.33 74.384C1257.53 74.384 1253.76 70.864 1253.76 65.488C1253.76 60.112 1257.53 56.56 1263.33 56.56C1269.12 56.56 1272.89 60.112 1272.89 65.488C1272.89 70.864 1269.12 74.384 1263.33 74.384ZM1258.69 65.488C1258.69 68.72 1260.38 70.864 1263.33 70.864C1266.27 70.864 1267.97 68.72 1267.97 65.488C1267.97 62.256 1266.27 60.08 1263.33 60.08C1260.38 60.08 1258.69 62.256 1258.69 65.488ZM1293.43 74H1288.76V70.064H1288.63C1287.64 72.944 1285.43 74.384 1282.33 74.384C1278.33 74.384 1276.09 71.984 1276.09 67.568V56.944H1280.89V66.928C1280.89 69.264 1282.07 70.512 1284.34 70.512C1286.87 70.512 1288.63 68.944 1288.63 66.064V56.944H1293.43V74ZM1310.55 61.04C1310.13 60.944 1309.59 60.848 1309.01 60.848C1305.08 60.848 1302.64 64.112 1302.64 68.464V74H1297.84V56.944H1302.52V62.896H1302.58C1303.32 59.664 1304.28 58.128 1306.45 57.2C1307.12 56.912 1308.05 56.752 1308.95 56.752C1309.52 56.752 1310.07 56.816 1310.55 56.944V61.04ZM1341.68 74L1341.46 68.464H1341.36C1339.89 72.24 1336.62 74.384 1332.53 74.384C1325.07 74.384 1321.2 69.552 1321.2 62.608C1321.2 55.184 1326.13 50.256 1333.71 50.256C1339.57 50.256 1343.73 53.328 1345.23 58.16L1340.69 59.344C1339.79 56.56 1337.55 54.416 1333.68 54.416C1329.07 54.416 1326.16 57.52 1326.16 62.544C1326.16 67.44 1328.94 70.256 1333.26 70.256C1336.82 70.256 1340.05 68.368 1340.75 65.008H1333.84V61.36H1345.71V74H1341.68ZM1367.56 68.624C1366.12 72.656 1362.54 74.384 1358.41 74.384C1352.78 74.384 1349.32 70.896 1349.32 65.712C1349.32 60.304 1352.94 56.56 1358.54 56.56C1363.98 56.56 1367.59 59.92 1367.59 66.288H1354.06C1354.28 68.944 1355.56 70.832 1358.7 70.832C1361.03 70.832 1363.02 69.776 1363.66 67.408L1367.56 68.624ZM1354.22 63.44H1362.66C1362.15 61.104 1360.68 60.016 1358.54 60.016C1356.36 60.016 1354.76 61.072 1354.22 63.44ZM1379.61 74.384C1373.82 74.384 1370.04 70.864 1370.04 65.488C1370.04 60.112 1373.82 56.56 1379.61 56.56C1385.4 56.56 1389.18 60.112 1389.18 65.488C1389.18 70.864 1385.4 74.384 1379.61 74.384ZM1374.97 65.488C1374.97 68.72 1376.66 70.864 1379.61 70.864C1382.55 70.864 1384.25 68.72 1384.25 65.488C1384.25 62.256 1382.55 60.08 1379.61 60.08C1376.66 60.08 1374.97 62.256 1374.97 65.488ZM1405.3 61.04C1404.88 60.944 1404.34 60.848 1403.76 60.848C1399.83 60.848 1397.39 64.112 1397.39 68.464V74H1392.59V56.944H1397.27V62.896H1397.33C1398.07 59.664 1399.03 58.128 1401.2 57.2C1401.87 56.912 1402.8 56.752 1403.7 56.752C1404.27 56.752 1404.82 56.816 1405.3 56.944V61.04ZM1414.87 80.72C1408.75 80.72 1406.9 78.512 1406.9 76.688C1406.9 74.96 1408.56 74.192 1410.42 74V73.904C1407.83 73.84 1406.16 72.56 1406.16 70.352C1406.16 68.72 1407.38 66.928 1410.35 66.416V66.32C1408.5 65.36 1407.41 63.888 1407.41 61.968C1407.41 58.768 1410.51 56.56 1415.79 56.56C1417.17 56.56 1418.45 56.72 1419.54 57.04L1420.08 51.792H1425.55V51.952L1420.88 57.488C1422.87 58.416 1424.05 59.92 1424.05 61.968C1424.05 65.36 1420.82 67.408 1415.83 67.408C1414.61 67.408 1413.52 67.312 1412.53 67.088C1411.03 67.312 1410.32 67.824 1410.32 68.752C1410.32 69.424 1410.9 69.904 1412.34 69.904H1418.87C1422.71 69.904 1425.52 71.28 1425.52 74.448C1425.52 78.384 1421.17 80.72 1414.87 80.72ZM1411.22 75.6C1411.22 77.008 1412.5 77.936 1415.86 77.936C1418.55 77.936 1421.14 77.328 1421.14 75.536C1421.14 74.416 1420.21 74.064 1417.11 74.064H1413.46C1411.89 74.064 1411.22 74.576 1411.22 75.6ZM1412.34 61.968C1412.34 63.664 1413.49 64.592 1415.7 64.592C1417.87 64.592 1419.12 63.696 1419.12 62C1419.12 60.272 1417.81 59.376 1415.76 59.376C1413.75 59.376 1412.34 60.272 1412.34 61.968ZM1427.97 74V56.944H1432.77V74H1427.97ZM1427.9 54.768V50.64H1432.83V54.768H1427.9ZM1441.67 74.384C1437.96 74.384 1436.1 72.016 1436.1 69.808C1436.1 67.344 1437.73 65.872 1440.68 65.072L1448.42 62.992V62.768C1448.42 60.784 1447.24 59.888 1445.12 59.888C1442.98 59.888 1441.32 61.008 1440.32 63.76L1436.45 62.32C1437.99 58.192 1441.22 56.592 1445.32 56.592C1450.44 56.592 1453.16 59.184 1453.16 62.672V68.656C1453.16 69.904 1453.57 70.576 1454.63 70.576C1455.11 70.576 1455.78 70.416 1456.23 70.16V73.648C1455.43 74 1453.92 74.32 1452.8 74.32C1450.4 74.32 1448.55 73.008 1448.55 70.48V70.128H1448.42C1447.2 72.688 1444.84 74.384 1441.67 74.384ZM1440.8 69.104C1440.8 69.904 1441.48 70.768 1443.04 70.768C1444.96 70.768 1447.59 69.36 1448.42 67.184V65.52L1442.85 67.44C1441.64 67.856 1440.8 68.176 1440.8 69.104ZM1080.14 100.56C1084.43 100.56 1087.98 103.856 1087.98 109.424C1087.98 114.864 1084.71 118.384 1080.04 118.384C1077 118.384 1074.76 116.816 1073.77 114.448H1073.67V124.336H1068.87V100.944H1073.67V104.656H1073.77C1074.83 102.128 1077 100.56 1080.14 100.56ZM1073.64 109.904C1073.64 112.656 1075.63 114.832 1078.44 114.832C1081.19 114.832 1083.05 112.656 1083.05 109.424C1083.05 106.288 1081.19 104.112 1078.44 104.112C1075.63 104.112 1073.64 106.384 1073.64 109.04V109.904ZM1091.41 118V100.944H1096.21V118H1091.41ZM1091.34 98.768V94.64H1096.27V98.768H1091.34ZM1100.62 118V94.64H1105.42V118H1100.62ZM1118.42 118.384C1112.63 118.384 1108.85 114.864 1108.85 109.488C1108.85 104.112 1112.63 100.56 1118.42 100.56C1124.21 100.56 1127.99 104.112 1127.99 109.488C1127.99 114.864 1124.21 118.384 1118.42 118.384ZM1113.78 109.488C1113.78 112.72 1115.48 114.864 1118.42 114.864C1121.36 114.864 1123.06 112.72 1123.06 109.488C1123.06 106.256 1121.36 104.08 1118.42 104.08C1115.48 104.08 1113.78 106.256 1113.78 109.488ZM1129.45 100.944H1132.69L1134.83 95.984H1136.97V100.944H1142.06V104.368H1136.97V112.048C1136.97 114.192 1137.61 114.8 1139.57 114.8C1140.4 114.8 1141.26 114.672 1142.22 114.512V117.872C1140.72 118.16 1139.66 118.32 1137.68 118.32C1133.55 118.32 1132.17 116.72 1132.17 113.904V104.368H1129.45V100.944ZM1165.45 100.56C1169.74 100.56 1173.29 103.856 1173.29 109.424C1173.29 114.864 1170.03 118.384 1165.36 118.384C1162.32 118.384 1160.08 116.816 1159.08 114.448H1158.99V124.336H1154.19V100.944H1158.99V104.656H1159.08C1160.14 102.128 1162.32 100.56 1165.45 100.56ZM1158.96 109.904C1158.96 112.656 1160.94 114.832 1163.76 114.832C1166.51 114.832 1168.36 112.656 1168.36 109.424C1168.36 106.288 1166.51 104.112 1163.76 104.112C1160.94 104.112 1158.96 106.384 1158.96 109.04V109.904ZM1189.42 105.04C1189.01 104.944 1188.46 104.848 1187.89 104.848C1183.95 104.848 1181.52 108.112 1181.52 112.464V118H1176.72V100.944H1181.39V106.896H1181.45C1182.19 103.664 1183.15 102.128 1185.33 101.2C1186 100.912 1186.93 100.752 1187.82 100.752C1188.4 100.752 1188.94 100.816 1189.42 100.944V105.04ZM1200.01 118.384C1194.22 118.384 1190.45 114.864 1190.45 109.488C1190.45 104.112 1194.22 100.56 1200.01 100.56C1205.81 100.56 1209.58 104.112 1209.58 109.488C1209.58 114.864 1205.81 118.384 1200.01 118.384ZM1195.37 109.488C1195.37 112.72 1197.07 114.864 1200.01 114.864C1202.96 114.864 1204.65 112.72 1204.65 109.488C1204.65 106.256 1202.96 104.08 1200.01 104.08C1197.07 104.08 1195.37 106.256 1195.37 109.488ZM1220.62 124.72C1214.5 124.72 1212.65 122.512 1212.65 120.688C1212.65 118.96 1214.31 118.192 1216.17 118V117.904C1213.58 117.84 1211.91 116.56 1211.91 114.352C1211.91 112.72 1213.13 110.928 1216.1 110.416V110.32C1214.25 109.36 1213.16 107.888 1213.16 105.968C1213.16 102.768 1216.26 100.56 1221.54 100.56C1222.92 100.56 1224.2 100.72 1225.29 101.04L1225.83 95.792H1231.3V95.952L1226.63 101.488C1228.62 102.416 1229.8 103.92 1229.8 105.968C1229.8 109.36 1226.57 111.408 1221.58 111.408C1220.36 111.408 1219.27 111.312 1218.28 111.088C1216.78 111.312 1216.07 111.824 1216.07 112.752C1216.07 113.424 1216.65 113.904 1218.09 113.904H1224.62C1228.46 113.904 1231.27 115.28 1231.27 118.448C1231.27 122.384 1226.92 124.72 1220.62 124.72ZM1216.97 119.6C1216.97 121.008 1218.25 121.936 1221.61 121.936C1224.3 121.936 1226.89 121.328 1226.89 119.536C1226.89 118.416 1225.96 118.064 1222.86 118.064H1219.21C1217.64 118.064 1216.97 118.576 1216.97 119.6ZM1218.09 105.968C1218.09 107.664 1219.24 108.592 1221.45 108.592C1223.62 108.592 1224.87 107.696 1224.87 106C1224.87 104.272 1223.56 103.376 1221.51 103.376C1219.5 103.376 1218.09 104.272 1218.09 105.968ZM1246.42 105.04C1246.01 104.944 1245.46 104.848 1244.89 104.848C1240.95 104.848 1238.52 108.112 1238.52 112.464V118H1233.72V100.944H1238.39V106.896H1238.45C1239.19 103.664 1240.15 102.128 1242.33 101.2C1243 100.912 1243.93 100.752 1244.82 100.752C1245.4 100.752 1245.94 100.816 1246.42 100.944V105.04ZM1253.07 118.384C1249.36 118.384 1247.51 116.016 1247.51 113.808C1247.51 111.344 1249.14 109.872 1252.08 109.072L1259.83 106.992V106.768C1259.83 104.784 1258.64 103.888 1256.53 103.888C1254.39 103.888 1252.72 105.008 1251.73 107.76L1247.86 106.32C1249.39 102.192 1252.63 100.592 1256.72 100.592C1261.84 100.592 1264.56 103.184 1264.56 106.672V112.656C1264.56 113.904 1264.98 114.576 1266.03 114.576C1266.51 114.576 1267.19 114.416 1267.63 114.16V117.648C1266.83 118 1265.33 118.32 1264.21 118.32C1261.81 118.32 1259.95 117.008 1259.95 114.48V114.128H1259.83C1258.61 116.688 1256.24 118.384 1253.07 118.384ZM1252.21 113.104C1252.21 113.904 1252.88 114.768 1254.45 114.768C1256.37 114.768 1258.99 113.36 1259.83 111.184V109.52L1254.26 111.44C1253.04 111.856 1252.21 112.176 1252.21 113.104ZM1270 100.944H1274.67V104.784H1274.77C1275.7 102.128 1277.81 100.56 1280.94 100.56C1283.95 100.56 1285.94 102.064 1286.67 104.848H1286.74C1287.7 102.192 1289.87 100.56 1293.04 100.56C1296.91 100.56 1299.12 102.992 1299.12 107.376V118H1294.32V108.016C1294.32 105.68 1293.17 104.432 1291.09 104.432C1288.66 104.432 1286.96 106 1286.96 108.88V118H1282.16V108.016C1282.16 105.68 1281.04 104.432 1278.9 104.432C1276.53 104.432 1274.8 106 1274.8 108.88V118H1270V100.944ZM1302.9 112.72H1308.18V118H1302.9V112.72Z" fill="#191326"/>
<rect x="1066.67" y="168" width="195" height="60" rx="30" fill="#6300C7"/>
<path d="M1104.89 204H1095.98L1096 202.308V192.822L1095.98 191.13H1099.11L1099.09 192.822V201.678H1104.89V204ZM1116.84 196.332V198.654H1111.68V201.678H1118.05V204H1108.56L1108.58 202.308V192.822L1108.56 191.13H1117.96V193.452H1111.68V196.332H1116.84ZM1124.47 201.102L1123.54 204H1120.69L1125.28 191.13H1128.63L1133.15 204H1129.82L1128.94 201.102H1124.47ZM1126.79 194.064L1125.19 198.906H1128.27L1126.83 194.064H1126.79ZM1147.57 204H1144.03L1141.89 198.996H1139.64V202.308L1139.65 204H1136.52L1136.54 202.308V192.822L1136.52 191.13H1142.46C1144.68 191.13 1147.36 191.778 1147.36 194.982C1147.36 196.944 1146.26 198.042 1144.84 198.582L1147.57 203.964V204ZM1139.64 193.38V196.746H1141.92C1143.07 196.746 1144.23 196.458 1144.23 195.072C1144.23 193.596 1143.07 193.38 1141.85 193.38H1139.64ZM1159.85 192.822L1159.83 191.13H1162.57L1162.55 192.822V202.308L1162.57 204H1160.17L1154.2 195.918H1154.16L1154.2 197.052V202.308L1154.21 204H1151.48L1151.5 202.308V192.822L1151.48 191.13H1154.25L1159.85 198.672H1159.88L1159.85 197.538V192.822ZM1173.51 204L1173.53 202.308V192.822L1173.51 191.13H1177.69L1180.6 198.906H1180.64L1183.54 191.13H1187.66L1187.64 192.822V202.308L1187.66 204H1184.58L1184.6 202.308V196.188L1184.64 194.964H1184.6L1181.36 204H1179.38L1176.14 194.964H1176.1L1176.14 196.188V202.308L1176.16 204H1173.51ZM1198.1 204.342C1194.1 204.342 1191.67 201.282 1191.67 197.556C1191.67 193.848 1194.1 190.788 1198.1 190.788C1202.07 190.788 1204.54 193.848 1204.54 197.556C1204.54 201.282 1202.07 204.342 1198.1 204.342ZM1198.1 202.074C1199.86 202.074 1201.08 200.688 1201.08 197.556C1201.08 194.442 1199.86 193.056 1198.1 193.056C1196.33 193.056 1195.11 194.442 1195.11 197.556C1195.11 200.688 1196.33 202.074 1198.1 202.074ZM1219.61 204H1216.06L1213.92 198.996H1211.67V202.308L1211.69 204H1208.56L1208.57 202.308V192.822L1208.56 191.13H1214.5C1216.71 191.13 1219.39 191.778 1219.39 194.982C1219.39 196.944 1218.29 198.042 1216.87 198.582L1219.61 203.964V204ZM1211.67 193.38V196.746H1213.96C1215.11 196.746 1216.26 196.458 1216.26 195.072C1216.26 193.596 1215.11 193.38 1213.88 193.38H1211.67ZM1231.79 196.332V198.654H1226.62V201.678H1233V204H1223.51L1223.53 202.308V192.822L1223.51 191.13H1232.91V193.452H1226.62V196.332H1231.79Z" fill="white"/>
</svg>
