<svg width="1500" height="562" viewBox="0 0 1500 562" fill="none" xmlns="http://www.w3.org/2000/svg">
<rect width="1500" height="562" rx="20" fill="white"/>
<path d="M85.094 101V90.182H80.252V87.86H92.636V90.182H87.794V101H85.094ZM101.993 101.216C97.7812 101.216 94.9732 98.462 94.9732 94.43C94.9732 90.398 97.7812 87.644 101.993 87.644C106.223 87.644 109.031 90.398 109.031 94.43C109.031 98.462 106.223 101.216 101.993 101.216ZM97.7632 94.43C97.7632 97.058 99.3472 98.876 101.993 98.876C104.657 98.876 106.241 97.058 106.241 94.43C106.241 91.802 104.657 89.984 101.993 89.984C99.3472 89.984 97.7632 91.802 97.7632 94.43ZM119.603 101.216C115.391 101.216 112.583 98.462 112.583 94.43C112.583 90.398 115.391 87.644 119.603 87.644C123.833 87.644 126.641 90.398 126.641 94.43C126.641 98.462 123.833 101.216 119.603 101.216ZM115.373 94.43C115.373 97.058 116.957 98.876 119.603 98.876C122.267 98.876 123.851 97.058 123.851 94.43C123.851 91.802 122.267 89.984 119.603 89.984C116.957 89.984 115.373 91.802 115.373 94.43ZM130.858 101V87.86H133.558V98.678H140.542V101H130.858ZM145.496 96.41C146.234 98.12 147.71 98.93 149.672 98.93C151.778 98.93 152.588 98.03 152.588 97.13C152.588 96.23 151.886 95.798 150.59 95.618C149.78 95.51 148.682 95.42 147.818 95.312C145.658 95.042 143.912 94.088 143.912 91.748C143.912 89.282 146.126 87.644 149.33 87.644C151.508 87.644 153.506 88.31 154.838 90.326L152.876 91.856C151.904 90.398 150.698 89.912 149.312 89.912C147.656 89.912 146.666 90.686 146.666 91.586C146.666 92.414 147.242 92.774 148.52 92.918C149.276 93.008 150.176 93.098 151.094 93.206C153.038 93.44 155.342 94.232 155.342 96.932C155.342 99.614 153.02 101.216 149.618 101.216C146.63 101.216 144.398 100.064 143.228 97.472L145.496 96.41Z" fill="#191326"/>
<path d="M177 94H1420" stroke="#ACB0BF"/>
<rect x="177" y="94" width="1243" height="0" stroke="#CACFE0"/>
<path d="M121.944 210.258L120.229 211.972V238.941L121.944 240.656H142.143L155.355 253.868L158.281 252.656V240.656H166.515L168.229 238.941V211.972L166.515 210.258H121.944ZM164.801 237.227H156.567L154.853 238.941V248.517L144.065 237.729L142.853 237.227H123.658V213.686H164.801V237.227Z" fill="#FF6D00"/>
<path d="M149.536 286.64V310H144.736V291.824H144.576L138.272 310H133.76L127.264 291.824H127.136V310H122.56V286.64H130.144L136.128 304.24H136.224L142.144 286.64H149.536ZM171.55 304.624C170.11 308.656 166.526 310.384 162.398 310.384C156.766 310.384 153.31 306.896 153.31 301.712C153.31 296.304 156.926 292.56 162.526 292.56C167.966 292.56 171.582 295.92 171.582 302.288H158.046C158.27 304.944 159.55 306.832 162.686 306.832C165.022 306.832 167.006 305.776 167.646 303.408L171.55 304.624ZM158.206 299.44H166.654C166.142 297.104 164.67 296.016 162.526 296.016C160.35 296.016 158.75 297.072 158.206 299.44ZM176.877 303.888C177.901 306.032 180.013 307.024 182.541 307.024C184.845 307.024 186.445 306.192 186.445 304.88C186.445 303.888 185.517 303.44 183.725 303.28C182.477 303.184 181.421 303.152 180.173 303.024C178.061 302.832 174.509 302 174.509 298.224C174.509 294.704 177.837 292.56 182.22 292.56C185.261 292.56 188.269 293.52 190.189 295.952L187.373 298.32C186.061 296.688 184.269 295.888 182.381 295.888C180.397 295.888 178.989 296.592 178.989 297.712C178.989 298.576 179.501 299.024 181.229 299.184C182.189 299.28 183.533 299.312 184.557 299.408C187.213 299.632 190.861 300.56 190.861 304.464C190.861 308.208 187.405 310.384 182.477 310.384C177.869 310.384 174.893 308.656 173.421 305.264L176.877 303.888ZM195.845 303.888C196.869 306.032 198.981 307.024 201.509 307.024C203.813 307.024 205.413 306.192 205.413 304.88C205.413 303.888 204.485 303.44 202.693 303.28C201.445 303.184 200.389 303.152 199.141 303.024C197.029 302.832 193.477 302 193.477 298.224C193.477 294.704 196.805 292.56 201.189 292.56C204.229 292.56 207.237 293.52 209.157 295.952L206.341 298.32C205.029 296.688 203.237 295.888 201.349 295.888C199.365 295.888 197.957 296.592 197.957 297.712C197.957 298.576 198.469 299.024 200.197 299.184C201.157 299.28 202.501 299.312 203.525 299.408C206.181 299.632 209.829 300.56 209.829 304.464C209.829 308.208 206.373 310.384 201.445 310.384C196.837 310.384 193.861 308.656 192.389 305.264L195.845 303.888ZM217.594 310.384C213.882 310.384 212.026 308.016 212.026 305.808C212.026 303.344 213.658 301.872 216.602 301.072L224.346 298.992V298.768C224.346 296.784 223.162 295.888 221.05 295.888C218.906 295.888 217.242 297.008 216.25 299.76L212.378 298.32C213.914 294.192 217.146 292.592 221.242 292.592C226.362 292.592 229.082 295.184 229.082 298.672V304.656C229.082 305.904 229.498 306.576 230.554 306.576C231.034 306.576 231.706 306.416 232.154 306.16V309.648C231.354 310 229.85 310.32 228.73 310.32C226.33 310.32 224.474 309.008 224.474 306.48V306.128H224.346C223.13 308.688 220.762 310.384 217.594 310.384ZM216.73 305.104C216.73 305.904 217.402 306.768 218.97 306.768C220.89 306.768 223.514 305.36 224.346 303.184V301.52L218.778 303.44C217.562 303.856 216.73 304.176 216.73 305.104ZM242.637 316.72C236.525 316.72 234.669 314.512 234.669 312.688C234.669 310.96 236.333 310.192 238.189 310V309.904C235.597 309.84 233.933 308.56 233.933 306.352C233.933 304.72 235.149 302.928 238.125 302.416V302.32C236.269 301.36 235.181 299.888 235.181 297.968C235.181 294.768 238.285 292.56 243.565 292.56C244.941 292.56 246.221 292.72 247.309 293.04L247.853 287.792H253.325V287.952L248.653 293.488C250.637 294.416 251.821 295.92 251.821 297.968C251.821 301.36 248.589 303.408 243.597 303.408C242.381 303.408 241.293 303.312 240.301 303.088C238.797 303.312 238.093 303.824 238.093 304.752C238.093 305.424 238.669 305.904 240.109 305.904H246.637C250.477 305.904 253.293 307.28 253.293 310.448C253.293 314.384 248.941 316.72 242.637 316.72ZM238.989 311.6C238.989 313.008 240.269 313.936 243.629 313.936C246.317 313.936 248.909 313.328 248.909 311.536C248.909 310.416 247.981 310.064 244.877 310.064H241.229C239.661 310.064 238.989 310.576 238.989 311.6ZM240.109 297.968C240.109 299.664 241.26 300.592 243.469 300.592C245.645 300.592 246.893 299.696 246.893 298C246.893 296.272 245.581 295.376 243.533 295.376C241.517 295.376 240.109 296.272 240.109 297.968ZM272.612 304.624C271.172 308.656 267.588 310.384 263.46 310.384C257.828 310.384 254.372 306.896 254.372 301.712C254.372 296.304 257.988 292.56 263.588 292.56C269.028 292.56 272.644 295.92 272.644 302.288H259.108C259.332 304.944 260.612 306.832 263.748 306.832C266.084 306.832 268.068 305.776 268.708 303.408L272.612 304.624ZM259.268 299.44H267.716C267.204 297.104 265.732 296.016 263.588 296.016C261.412 296.016 259.812 297.072 259.268 299.44ZM285.404 310V286.64H290.204V305.872H302.62V310H285.404ZM310.344 310.384C306.632 310.384 304.776 308.016 304.776 305.808C304.776 303.344 306.408 301.872 309.352 301.072L317.096 298.992V298.768C317.096 296.784 315.912 295.888 313.8 295.888C311.656 295.888 309.992 297.008 309 299.76L305.128 298.32C306.664 294.192 309.896 292.592 313.992 292.592C319.112 292.592 321.832 295.184 321.832 298.672V304.656C321.832 305.904 322.248 306.576 323.304 306.576C323.784 306.576 324.456 306.416 324.904 306.16V309.648C324.104 310 322.6 310.32 321.48 310.32C319.08 310.32 317.224 309.008 317.224 306.48V306.128H317.096C315.88 308.688 313.512 310.384 310.344 310.384ZM309.48 305.104C309.48 305.904 310.152 306.768 311.72 306.768C313.64 306.768 316.264 305.36 317.096 303.184V301.52L311.528 303.44C310.312 303.856 309.48 304.176 309.48 305.104ZM338.535 292.56C342.823 292.56 346.375 295.856 346.375 301.424C346.375 306.864 343.111 310.384 338.439 310.384C335.399 310.384 333.159 308.816 332.167 306.448H332.071V310H327.271V286.64H332.071V296.656H332.167C333.223 294.128 335.399 292.56 338.535 292.56ZM332.039 301.904C332.039 304.656 334.023 306.832 336.839 306.832C339.591 306.832 341.447 304.656 341.447 301.424C341.447 298.288 339.591 296.112 336.839 296.112C334.023 296.112 332.039 298.384 332.039 301.04V301.904Z" fill="#2A0080"/>
<path d="M124.392 360.816L122.544 366H120.408L126.72 348.84H129.504L135.816 366H133.488L131.64 360.816H124.392ZM127.992 350.64L125.04 358.944H130.968L128.04 350.64H127.992ZM142.751 366.336C139.631 366.336 137.279 363.84 137.279 360C137.279 356.184 139.631 353.688 142.751 353.688C145.007 353.688 146.087 354.96 146.711 356.112H146.759V350.952L146.735 348.84H148.847L148.823 350.952V363.936L148.847 366H146.831V363.768H146.783C146.111 365.112 144.959 366.336 142.751 366.336ZM143.015 355.416C140.759 355.416 139.439 357.168 139.439 359.976C139.439 362.712 140.687 364.608 142.991 364.608C144.959 364.608 146.831 363.24 146.831 360.072V359.976C146.831 357 145.151 355.416 143.015 355.416ZM154.853 366H152.741L152.765 363.912V356.136L152.741 354.024H154.853L154.829 356.136V363.912L154.853 366ZM154.829 351.504H152.765V348.84H154.829V351.504ZM164.861 366.336C162.677 366.336 161.525 365.136 160.877 363.864H160.829V369.048L160.853 371.136H158.741L158.765 369.048V356.136L158.741 354.024H160.805V356.208H160.853C161.477 355.008 162.581 353.688 164.861 353.688C167.957 353.688 170.333 356.16 170.333 359.976C170.333 363.816 167.957 366.336 164.861 366.336ZM164.573 355.416C162.437 355.416 160.757 357.024 160.757 359.976V360.072C160.757 363.24 162.629 364.608 164.573 364.608C166.901 364.608 168.149 362.64 168.149 359.952C168.149 357.168 166.829 355.416 164.573 355.416ZM175.619 366H173.507L173.531 363.912V356.136L173.507 354.024H175.619L175.595 356.136V363.912L175.619 366ZM175.595 351.504H173.531V348.84H175.595V351.504ZM178.499 364.104L179.723 362.856C180.515 363.504 181.763 364.728 184.091 364.728C185.579 364.728 187.235 364.152 187.235 362.688C187.235 361.128 185.339 361.008 183.779 360.792C181.691 360.504 178.931 360.072 178.931 357.408C178.931 355.392 180.539 353.64 183.611 353.64C186.251 353.64 188.099 354.984 188.795 355.752L187.571 357.024C186.923 356.4 185.627 355.296 183.755 355.296C182.387 355.296 180.875 355.896 180.875 357.192C180.875 358.512 182.459 358.68 184.139 358.896C186.131 359.136 189.179 359.568 189.179 362.496C189.179 364.608 187.547 366.384 184.163 366.384C181.115 366.384 179.243 364.968 178.499 364.104ZM200.754 362.376L202.41 363.192C202.17 363.768 200.586 366.336 197.274 366.336C194.322 366.336 191.442 364.296 191.442 360.12C191.442 356.424 193.722 353.688 197.322 353.688C200.97 353.688 202.146 356.496 202.266 356.712L200.466 357.552C200.154 356.808 199.098 355.416 197.226 355.416C195.21 355.416 193.602 357.048 193.602 359.952C193.602 362.856 195.21 364.584 197.298 364.584C199.29 364.584 200.466 363 200.754 362.376ZM207.306 366H205.194L205.218 363.912V356.136L205.194 354.024H207.306L207.282 356.136V363.912L207.306 366ZM207.282 351.504H205.218V348.84H207.282V351.504ZM221.994 366H219.882L219.906 363.912V358.728C219.906 356.568 219.138 355.488 217.482 355.488C215.778 355.488 214.17 356.616 213.282 358.2V363.912L213.306 366H211.194L211.218 363.912V356.136L211.194 354.024H213.234V356.088H213.282C214.17 354.888 215.562 353.688 217.77 353.688C220.362 353.688 221.97 355.368 221.97 358.536V363.912L221.994 366ZM230.356 361.728C229.516 361.728 228.748 361.608 228.1 361.392C227.596 361.536 227.212 362.016 227.212 362.544C227.212 363.408 228.148 363.936 229.492 363.96L232.756 364.032C235.78 364.104 237.1 365.4 237.1 367.344C237.1 370.248 234.004 371.256 230.428 371.256C227.188 371.256 224.572 370.416 224.572 368.232C224.572 367.056 225.316 365.832 227.092 365.448V365.4C226.132 365.016 225.268 364.296 225.268 363.12C225.268 361.992 226.012 361.224 226.9 360.792C225.94 360.096 225.412 359.04 225.412 357.744C225.412 355.296 227.308 353.688 230.38 353.688C231.796 353.688 232.948 354.048 233.788 354.648C234.292 353.832 235.06 353.016 236.428 353.016C236.908 353.016 237.148 353.112 237.316 353.184V354.864C236.98 354.792 236.62 354.744 236.332 354.744C235.66 354.744 235.012 354.984 234.724 355.608C235.108 356.184 235.324 356.904 235.324 357.696C235.324 360.144 233.404 361.728 230.356 361.728ZM232.756 365.88L228.844 365.784C227.716 366.144 226.636 366.864 226.636 367.92C226.636 368.952 227.692 369.696 230.764 369.696C233.62 369.696 235.06 369.072 235.06 367.656C235.06 367.056 234.796 365.928 232.756 365.88ZM230.356 360.168C232.276 360.168 233.38 359.376 233.38 357.72C233.38 356.064 232.276 355.248 230.356 355.248C228.46 355.248 227.356 356.064 227.356 357.72C227.356 359.376 228.46 360.168 230.356 360.168ZM248.209 366L243.529 354.024H245.785L249.505 364.608H249.553L253.201 354.024H255.337L250.777 366H248.209ZM260.017 366H257.905L257.929 363.912V356.136L257.905 354.024H260.017L259.993 356.136V363.912L260.017 366ZM259.993 351.504H257.929V348.84H259.993V351.504ZM267.217 366L262.537 354.024H264.793L268.513 364.608H268.561L272.209 354.024H274.345L269.785 366H267.217ZM285.993 362.856L287.217 364.056C286.809 364.56 284.961 366.336 281.937 366.336C278.385 366.336 275.841 364.2 275.841 360.288C275.841 356.184 278.385 353.688 281.745 353.688C285.969 353.688 287.553 356.88 287.385 360.384H277.953C277.977 362.904 279.609 364.584 282.105 364.584C283.953 364.584 285.537 363.384 285.993 362.856ZM281.817 355.392C279.921 355.392 278.481 356.4 278.073 358.8H285.153C285.153 356.736 283.809 355.392 281.817 355.392ZM290.553 366L290.577 363.912V356.136L290.553 354.024H292.593V358.08H292.641C293.697 354.936 295.545 353.688 297.273 353.688C297.441 353.688 297.657 353.712 297.753 353.736V355.68C297.585 355.656 297.417 355.656 297.273 355.656C294.705 355.656 292.881 359.112 292.641 361.272V363.912L292.665 366H290.553ZM300.139 366L300.163 363.912V356.136L300.139 354.024H302.179V358.08H302.227C303.283 354.936 305.131 353.688 306.859 353.688C307.027 353.688 307.243 353.712 307.339 353.736V355.68C307.171 355.656 307.003 355.656 306.859 355.656C304.291 355.656 302.467 359.112 302.227 361.272V363.912L302.251 366H300.139ZM310.449 357.024L309.153 355.992C310.041 354.768 311.553 353.688 314.145 353.688C316.905 353.688 319.161 354.912 319.161 358.128V363.072C319.161 364.464 319.281 365.352 319.377 366H317.385C317.241 365.256 317.217 364.416 317.169 363.72H317.121C316.545 364.776 314.889 366.312 312.513 366.312C310.737 366.312 308.697 365.472 308.697 363.024C308.697 358.704 314.553 358.512 317.169 358.488V358.104C317.169 356.184 316.041 355.32 314.025 355.32C312.393 355.32 311.481 355.896 310.449 357.024ZM312.873 364.68C314.601 364.68 317.121 363.504 317.169 359.928C314.241 359.976 310.857 360.576 310.857 362.928C310.857 363.984 311.529 364.68 312.873 364.68ZM333.485 366.336C330.365 366.336 328.013 363.84 328.013 360C328.013 356.184 330.365 353.688 333.485 353.688C335.741 353.688 336.821 354.96 337.445 356.112H337.493V350.952L337.469 348.84H339.581L339.557 350.952V363.936L339.581 366H337.565V363.768H337.517C336.845 365.112 335.693 366.336 333.485 366.336ZM333.749 355.416C331.493 355.416 330.173 357.168 330.173 359.976C330.173 362.712 331.421 364.608 333.725 364.608C335.693 364.608 337.565 363.24 337.565 360.072V359.976C337.565 357 335.885 355.416 333.749 355.416ZM345.587 366H343.475L343.499 363.912V356.136L343.475 354.024H345.587L345.563 356.136V363.912L345.587 366ZM345.563 351.504H343.499V348.84H345.563V351.504ZM350.363 357.024L349.067 355.992C349.955 354.768 351.467 353.688 354.059 353.688C356.819 353.688 359.075 354.912 359.075 358.128V363.072C359.075 364.464 359.195 365.352 359.291 366H357.299C357.155 365.256 357.131 364.416 357.083 363.72H357.035C356.459 364.776 354.803 366.312 352.427 366.312C350.651 366.312 348.611 365.472 348.611 363.024C348.611 358.704 354.467 358.512 357.083 358.488V358.104C357.083 356.184 355.955 355.32 353.939 355.32C352.307 355.32 351.395 355.896 350.363 357.024ZM352.787 364.68C354.515 364.68 357.035 363.504 357.083 359.928C354.155 359.976 350.771 360.576 350.771 362.928C350.771 363.984 351.443 364.68 352.787 364.68ZM373.082 366H370.97L370.994 363.912V358.728C370.994 356.544 370.226 355.488 368.522 355.488C367.082 355.488 365.762 356.592 364.97 358.152V363.912L364.994 366H362.882L362.906 363.912V356.136L362.882 354.024H364.922V355.968H364.97C365.738 354.816 366.962 353.688 368.858 353.688C370.514 353.688 372.026 354.336 372.722 356.256H372.77C373.514 355.032 374.81 353.688 376.946 353.688C379.538 353.688 381.146 355.368 381.146 358.536V363.912L381.17 366H379.058L379.082 363.912V358.728C379.082 356.544 378.314 355.488 376.61 355.488C375.17 355.488 373.85 356.592 373.057 358.152V363.912L373.082 366ZM125.256 400L120.576 388.024H122.832L126.552 398.608H126.6L130.248 388.024H132.384L127.824 400H125.256ZM144.032 396.856L145.256 398.056C144.848 398.56 143 400.336 139.976 400.336C136.424 400.336 133.88 398.2 133.88 394.288C133.88 390.184 136.424 387.688 139.784 387.688C144.008 387.688 145.592 390.88 145.424 394.384H135.992C136.016 396.904 137.648 398.584 140.144 398.584C141.992 398.584 143.576 397.384 144.032 396.856ZM139.856 389.392C137.96 389.392 136.52 390.4 136.112 392.8H143.192C143.192 390.736 141.848 389.392 139.856 389.392ZM147.584 398.104L148.808 396.856C149.6 397.504 150.848 398.728 153.176 398.728C154.664 398.728 156.32 398.152 156.32 396.688C156.32 395.128 154.424 395.008 152.864 394.792C150.776 394.504 148.016 394.072 148.016 391.408C148.016 389.392 149.624 387.64 152.696 387.64C155.336 387.64 157.184 388.984 157.88 389.752L156.656 391.024C156.008 390.4 154.712 389.296 152.84 389.296C151.472 389.296 149.96 389.896 149.96 391.192C149.96 392.512 151.544 392.68 153.224 392.896C155.216 393.136 158.264 393.568 158.264 396.496C158.264 398.608 156.632 400.384 153.248 400.384C150.2 400.384 148.328 398.968 147.584 398.104ZM167.442 388.024V389.68H164.154V397.072C164.154 398.128 164.418 398.632 165.546 398.632C166.338 398.632 167.082 398.392 167.538 398.224V399.928C167.058 400.096 166.362 400.336 165.21 400.336C163.482 400.336 162.09 399.784 162.09 397.24V389.68H159.834V388.024H162.138L162.426 384.616H164.154V388.024H167.442ZM172.548 400H170.436L170.46 397.912V390.136L170.436 388.024H172.548L172.524 390.136V397.912L172.548 400ZM172.524 385.504H170.46V382.84H172.524V385.504ZM178.212 400H176.436L176.46 397.936V384.952L176.436 382.84H178.548L178.524 384.952V390.088H178.572C179.268 388.768 180.468 387.688 182.58 387.688C185.796 387.688 188.004 390.328 188.004 394.048C188.004 398.128 185.34 400.336 182.508 400.336C180.132 400.336 179.052 398.824 178.5 397.768H178.452L178.212 400ZM182.268 389.416C180.132 389.416 178.452 391 178.452 393.976V394.072C178.452 397.24 180.396 398.608 182.316 398.608C184.596 398.608 185.844 396.688 185.844 393.976C185.844 391.168 184.524 389.416 182.268 389.416ZM191.034 388.024H193.146L193.122 390.112V395.296C193.122 397.456 193.89 398.536 195.546 398.536C197.25 398.536 198.834 397.408 199.746 395.824V390.112L199.722 388.024H201.834L201.81 390.112V397.888L201.834 400H199.794V397.936H199.746C198.858 399.16 197.466 400.336 195.258 400.336C192.666 400.336 191.058 398.656 191.058 395.488V390.112L191.034 388.024ZM207.845 384.952V397.912L207.869 400H205.757L205.781 397.912V384.952L205.757 382.84H207.869L207.845 384.952ZM211.636 388.024H213.748L213.724 390.112V395.296C213.724 397.456 214.492 398.536 216.148 398.536C217.852 398.536 219.436 397.408 220.348 395.824V390.112L220.324 388.024H222.436L222.412 390.112V397.888L222.436 400H220.396V397.936H220.348C219.46 399.16 218.068 400.336 215.86 400.336C213.268 400.336 211.66 398.656 211.66 395.488V390.112L211.636 388.024ZM236.535 400H234.423L234.447 397.912V392.728C234.447 390.544 233.679 389.488 231.975 389.488C230.535 389.488 229.215 390.592 228.423 392.152V397.912L228.447 400H226.335L226.359 397.912V390.136L226.335 388.024H228.375V389.968H228.423C229.191 388.816 230.415 387.688 232.311 387.688C233.967 387.688 235.479 388.336 236.175 390.256H236.223C236.967 389.032 238.263 387.688 240.399 387.688C242.991 387.688 244.599 389.368 244.599 392.536V397.912L244.623 400H242.511L242.535 397.912V392.728C242.535 390.544 241.767 389.488 240.063 389.488C238.623 389.488 237.303 390.592 236.511 392.152V397.912L236.535 400ZM259.997 388.024V389.68H256.709V397.072C256.709 398.128 256.973 398.632 258.101 398.632C258.893 398.632 259.637 398.392 260.093 398.224V399.928C259.613 400.096 258.917 400.336 257.765 400.336C256.037 400.336 254.645 399.784 254.645 397.24V389.68H252.389V388.024H254.693L254.981 384.616H256.709V388.024H259.997ZM265.103 400H262.991L263.015 397.912V390.136L262.991 388.024H265.103L265.079 390.136V397.912L265.103 400ZM265.079 385.504H263.015V382.84H265.079V385.504ZM279.791 400H277.679L277.703 397.912V392.728C277.703 390.568 276.935 389.488 275.279 389.488C273.575 389.488 271.967 390.616 271.079 392.2V397.912L271.103 400H268.991L269.015 397.912V390.136L268.991 388.024H271.031V390.088H271.079C271.967 388.888 273.359 387.688 275.567 387.688C278.159 387.688 279.767 389.368 279.767 392.536V397.912L279.791 400ZM292.137 396.376L293.793 397.192C293.553 397.768 291.969 400.336 288.657 400.336C285.705 400.336 282.825 398.296 282.825 394.12C282.825 390.424 285.105 387.688 288.705 387.688C292.353 387.688 293.529 390.496 293.649 390.712L291.849 391.552C291.537 390.808 290.481 389.416 288.609 389.416C286.593 389.416 284.985 391.048 284.985 393.952C284.985 396.856 286.593 398.584 288.681 398.584C290.673 398.584 291.849 397 292.137 396.376ZM298.689 400H296.577L296.601 397.912V390.136L296.577 388.024H298.689L298.665 390.136V397.912L298.689 400ZM298.665 385.504H296.601V382.84H298.665V385.504ZM307.329 400.336C304.209 400.336 301.857 397.84 301.857 394C301.857 390.184 304.209 387.688 307.329 387.688C309.585 387.688 310.665 388.96 311.289 390.112H311.337V384.952L311.313 382.84H313.425L313.401 384.952V397.936L313.425 400H311.409V397.768H311.361C310.689 399.112 309.537 400.336 307.329 400.336ZM307.593 389.416C305.337 389.416 304.017 391.168 304.017 393.976C304.017 396.712 305.265 398.608 307.569 398.608C309.537 398.608 311.409 397.24 311.409 394.072V393.976C311.409 391 309.729 389.416 307.593 389.416ZM317.175 388.024H319.287L319.263 390.112V395.296C319.263 397.456 320.031 398.536 321.687 398.536C323.391 398.536 324.975 397.408 325.887 395.824V390.112L325.863 388.024H327.975L327.951 390.112V397.888L327.975 400H325.935V397.936H325.887C324.999 399.16 323.607 400.336 321.399 400.336C318.807 400.336 317.199 398.656 317.199 395.488V390.112L317.175 388.024ZM342.674 400H340.562L340.586 397.912V392.728C340.586 390.568 339.818 389.488 338.162 389.488C336.458 389.488 334.85 390.616 333.962 392.2V397.912L333.986 400H331.874L331.898 397.912V390.136L331.874 388.024H333.914V390.088H333.962C334.85 388.888 336.242 387.688 338.45 387.688C341.042 387.688 342.65 389.368 342.65 392.536V397.912L342.674 400ZM352.622 388.024V389.68H349.334V397.072C349.334 398.128 349.598 398.632 350.726 398.632C351.518 398.632 352.262 398.392 352.718 398.224V399.928C352.238 400.096 351.542 400.336 350.39 400.336C348.662 400.336 347.27 399.784 347.27 397.24V389.68H345.014V388.024H347.318L347.606 384.616H349.334V388.024H352.622ZM370.814 396.856L372.038 398.056C371.63 398.56 369.782 400.336 366.758 400.336C363.206 400.336 360.662 398.2 360.662 394.288C360.662 390.184 363.206 387.688 366.566 387.688C370.79 387.688 372.374 390.88 372.206 394.384H362.774C362.798 396.904 364.43 398.584 366.926 398.584C368.774 398.584 370.358 397.384 370.814 396.856ZM366.638 389.392C364.742 389.392 363.302 390.4 362.894 392.8H369.974C369.974 390.736 368.63 389.392 366.638 389.392ZM386.174 400H384.062L384.086 397.912V392.728C384.086 390.568 383.318 389.488 381.662 389.488C379.958 389.488 378.35 390.616 377.462 392.2V397.912L377.486 400H375.374L375.398 397.912V390.136L375.374 388.024H377.414V390.088H377.462C378.35 388.888 379.742 387.688 381.95 387.688C384.542 387.688 386.15 389.368 386.15 392.536V397.912L386.174 400ZM392.064 400H389.952L389.976 397.912V390.136L389.952 388.024H392.064L392.04 390.136V397.912L392.064 400ZM392.04 385.504H389.976V382.84H392.04V385.504ZM406.152 400H404.04L404.064 397.912V392.728C404.064 390.544 403.296 389.488 401.592 389.488C400.152 389.488 398.832 390.592 398.04 392.152V397.912L398.064 400H395.952L395.976 397.912V390.136L395.952 388.024H397.992V389.968H398.04C398.808 388.816 400.032 387.688 401.928 387.688C403.584 387.688 405.096 388.336 405.792 390.256H405.84C406.584 389.032 407.88 387.688 410.016 387.688C412.608 387.688 414.216 389.368 414.216 392.536V397.912L414.24 400H412.128L412.152 397.912V392.728C412.152 390.544 411.384 389.488 409.68 389.488C408.24 389.488 406.92 390.592 406.128 392.152V397.912L406.152 400ZM131.376 430.856L132.6 432.056C132.192 432.56 130.344 434.336 127.32 434.336C123.768 434.336 121.224 432.2 121.224 428.288C121.224 424.184 123.768 421.688 127.128 421.688C131.352 421.688 132.936 424.88 132.768 428.384H123.336C123.36 430.904 124.992 432.584 127.488 432.584C129.336 432.584 130.92 431.384 131.376 430.856ZM127.2 423.392C125.304 423.392 123.864 424.4 123.456 426.8H130.536C130.536 424.736 129.192 423.392 127.2 423.392ZM140.52 429.728C139.68 429.728 138.912 429.608 138.264 429.392C137.76 429.536 137.376 430.016 137.376 430.544C137.376 431.408 138.312 431.936 139.656 431.96L142.92 432.032C145.944 432.104 147.264 433.4 147.264 435.344C147.264 438.248 144.168 439.256 140.592 439.256C137.352 439.256 134.736 438.416 134.736 436.232C134.736 435.056 135.48 433.832 137.256 433.448V433.4C136.296 433.016 135.432 432.296 135.432 431.12C135.432 429.992 136.176 429.224 137.064 428.792C136.104 428.096 135.576 427.04 135.576 425.744C135.576 423.296 137.472 421.688 140.544 421.688C141.96 421.688 143.112 422.048 143.952 422.648C144.456 421.832 145.224 421.016 146.592 421.016C147.072 421.016 147.312 421.112 147.48 421.184V422.864C147.144 422.792 146.784 422.744 146.496 422.744C145.824 422.744 145.176 422.984 144.888 423.608C145.272 424.184 145.488 424.904 145.488 425.696C145.488 428.144 143.568 429.728 140.52 429.728ZM142.92 433.88L139.008 433.784C137.88 434.144 136.8 434.864 136.8 435.92C136.8 436.952 137.856 437.696 140.928 437.696C143.784 437.696 145.224 437.072 145.224 435.656C145.224 435.056 144.96 433.928 142.92 433.88ZM140.52 428.168C142.44 428.168 143.544 427.376 143.544 425.72C143.544 424.064 142.44 423.248 140.52 423.248C138.624 423.248 137.52 424.064 137.52 425.72C137.52 427.376 138.624 428.168 140.52 428.168ZM158.985 430.856L160.209 432.056C159.801 432.56 157.953 434.336 154.929 434.336C151.377 434.336 148.833 432.2 148.833 428.288C148.833 424.184 151.377 421.688 154.737 421.688C158.961 421.688 160.545 424.88 160.377 428.384H150.945C150.969 430.904 152.601 432.584 155.097 432.584C156.945 432.584 158.529 431.384 158.985 430.856ZM154.809 423.392C152.913 423.392 151.473 424.4 151.065 426.8H158.145C158.145 424.736 156.801 423.392 154.809 423.392ZM162.538 432.104L163.762 430.856C164.554 431.504 165.802 432.728 168.13 432.728C169.618 432.728 171.274 432.152 171.274 430.688C171.274 429.128 169.378 429.008 167.818 428.792C165.73 428.504 162.97 428.072 162.97 425.408C162.97 423.392 164.578 421.64 167.65 421.64C170.29 421.64 172.138 422.984 172.834 423.752L171.61 425.024C170.962 424.4 169.666 423.296 167.794 423.296C166.426 423.296 164.914 423.896 164.914 425.192C164.914 426.512 166.498 426.68 168.178 426.896C170.17 427.136 173.218 427.568 173.218 430.496C173.218 432.608 171.586 434.384 168.202 434.384C165.154 434.384 163.282 432.968 162.538 432.104ZM182.396 422.024V423.68H179.108V431.072C179.108 432.128 179.372 432.632 180.5 432.632C181.292 432.632 182.036 432.392 182.492 432.224V433.928C182.012 434.096 181.316 434.336 180.164 434.336C178.436 434.336 177.044 433.784 177.044 431.24V423.68H174.788V422.024H177.092L177.38 418.616H179.108V422.024H182.396ZM186.277 425.024L184.981 423.992C185.869 422.768 187.381 421.688 189.973 421.688C192.733 421.688 194.989 422.912 194.989 426.128V431.072C194.989 432.464 195.109 433.352 195.205 434H193.213C193.069 433.256 193.045 432.416 192.997 431.72H192.949C192.373 432.776 190.717 434.312 188.341 434.312C186.565 434.312 184.525 433.472 184.525 431.024C184.525 426.704 190.381 426.512 192.997 426.488V426.104C192.997 424.184 191.869 423.32 189.853 423.32C188.221 423.32 187.309 423.896 186.277 425.024ZM188.701 432.68C190.429 432.68 192.949 431.504 192.997 427.928C190.069 427.976 186.685 428.576 186.685 430.928C186.685 431.984 187.357 432.68 188.701 432.68ZM197.788 432.104L199.012 430.856C199.804 431.504 201.052 432.728 203.38 432.728C204.868 432.728 206.524 432.152 206.524 430.688C206.524 429.128 204.628 429.008 203.068 428.792C200.98 428.504 198.22 428.072 198.22 425.408C198.22 423.392 199.828 421.64 202.9 421.64C205.54 421.64 207.388 422.984 208.084 423.752L206.86 425.024C206.212 424.4 204.916 423.296 203.044 423.296C201.676 423.296 200.164 423.896 200.164 425.192C200.164 426.512 201.748 426.68 203.428 426.896C205.42 427.136 208.468 427.568 208.468 430.496C208.468 432.608 206.836 434.384 203.452 434.384C200.404 434.384 198.532 432.968 197.788 432.104ZM226.001 439.136L226.025 437.024V431.912H225.977C225.329 433.16 224.105 434.336 221.921 434.336C218.657 434.336 216.521 431.624 216.521 427.976C216.521 423.944 219.161 421.688 221.993 421.688C224.345 421.688 225.497 423.176 226.049 424.208H226.097L226.337 422.024H228.113L228.089 424.088V437.024L228.113 439.136H226.001ZM222.257 423.416C220.001 423.416 218.681 425.168 218.681 427.976C218.681 430.712 219.929 432.608 222.233 432.608C224.201 432.608 226.073 431.24 226.073 428.072V427.976C226.073 425 224.393 423.416 222.257 423.416ZM231.863 422.024H233.975L233.951 424.112V429.296C233.951 431.456 234.719 432.536 236.375 432.536C238.079 432.536 239.663 431.408 240.575 429.824V424.112L240.551 422.024H242.663L242.639 424.112V431.888L242.663 434H240.623V431.936H240.575C239.687 433.16 238.295 434.336 236.087 434.336C233.495 434.336 231.887 432.656 231.887 429.488V424.112L231.863 422.024ZM247.449 425.024L246.153 423.992C247.041 422.768 248.553 421.688 251.145 421.688C253.905 421.688 256.161 422.912 256.161 426.128V431.072C256.161 432.464 256.281 433.352 256.377 434H254.385C254.241 433.256 254.217 432.416 254.169 431.72H254.121C253.545 432.776 251.889 434.312 249.513 434.312C247.737 434.312 245.697 433.472 245.697 431.024C245.697 426.704 251.553 426.512 254.169 426.488V426.104C254.169 424.184 253.041 423.32 251.025 423.32C249.393 423.32 248.481 423.896 247.449 425.024ZM249.873 432.68C251.601 432.68 254.121 431.504 254.169 427.928C251.241 427.976 247.857 428.576 247.857 430.928C247.857 431.984 248.529 432.68 249.873 432.68ZM270.167 434H268.055L268.079 431.912V426.728C268.079 424.544 267.311 423.488 265.607 423.488C264.167 423.488 262.847 424.592 262.055 426.152V431.912L262.079 434H259.967L259.991 431.912V424.136L259.967 422.024H262.007V423.968H262.055C262.823 422.816 264.047 421.688 265.943 421.688C267.599 421.688 269.111 422.336 269.807 424.256H269.855C270.599 423.032 271.895 421.688 274.031 421.688C276.623 421.688 278.231 423.368 278.231 426.536V431.912L278.255 434H276.143L276.167 431.912V426.728C276.167 424.544 275.399 423.488 273.695 423.488C272.255 423.488 270.935 424.592 270.143 426.152V431.912L270.167 434ZM297.988 434H295.876L295.9 431.912V426.728C295.9 424.544 295.132 423.488 293.428 423.488C291.988 423.488 290.668 424.592 289.876 426.152V431.912L289.9 434H287.788L287.812 431.912V424.136L287.788 422.024H289.828V423.968H289.876C290.644 422.816 291.868 421.688 293.764 421.688C295.42 421.688 296.932 422.336 297.628 424.256H297.676C298.42 423.032 299.716 421.688 301.852 421.688C304.444 421.688 306.052 423.368 306.052 426.536V431.912L306.076 434H303.964L303.988 431.912V426.728C303.988 424.544 303.22 423.488 301.516 423.488C300.076 423.488 298.756 424.592 297.964 426.152V431.912L297.988 434ZM311.954 434H309.842L309.866 431.912V424.136L309.842 422.024H311.954L311.93 424.136V431.912L311.954 434ZM311.93 419.504H309.866V416.84H311.93V419.504ZM332.408 434H330.296L330.32 431.912V426.728C330.32 424.568 329.552 423.488 327.896 423.488C326.192 423.488 324.584 424.616 323.696 426.2V431.912L323.72 434H321.608L321.632 431.912V424.136L321.608 422.024H323.648V424.088H323.696C324.584 422.888 325.976 421.688 328.184 421.688C330.776 421.688 332.384 423.368 332.384 426.536V431.912L332.408 434ZM338.298 434H336.186L336.21 431.912V424.136L336.186 422.024H338.298L338.274 424.136V431.912L338.298 434ZM338.274 419.504H336.21V416.84H338.274V419.504ZM343.962 434H342.186L342.21 431.936V418.952L342.186 416.84H344.298L344.274 418.952V424.088H344.322C345.018 422.768 346.218 421.688 348.33 421.688C351.546 421.688 353.754 424.328 353.754 428.048C353.754 432.128 351.09 434.336 348.258 434.336C345.882 434.336 344.802 432.824 344.25 431.768H344.202L343.962 434ZM348.018 423.416C345.882 423.416 344.202 425 344.202 427.976V428.072C344.202 431.24 346.146 432.608 348.066 432.608C350.346 432.608 351.594 430.688 351.594 427.976C351.594 425.168 350.274 423.416 348.018 423.416ZM359.016 418.952V424.04H359.064C359.952 422.84 361.344 421.688 363.504 421.688C366.096 421.688 367.704 423.368 367.704 426.536V431.912L367.728 434H365.616L365.64 431.912V426.728C365.64 424.568 364.872 423.488 363.216 423.488C361.512 423.488 359.904 424.616 359.016 426.2V431.912L359.04 434H356.928L356.952 431.912V418.952L356.928 416.84H359.04L359.016 418.952ZM371.315 434V431.336H374.123V434H371.315Z" fill="#191326"/>
<path d="M82 188C82 178.059 90.0589 170 100 170H480C489.941 170 498 178.059 498 188V480H82V188Z" stroke="url(#paint0_linear_661_6863)" stroke-width="4"/>
<path d="M622.829 215.093C622.105 211.114 619.426 208.543 616.001 208.543C612.911 208.543 610.616 210.401 609.541 213.686H598.931C597.889 210.52 595.462 208.543 592.46 208.543C588.965 208.543 586.479 210.919 585.637 215.061C585.022 218.095 581.159 239.57 580.957 240.691C580.638 241.768 580.46 242.906 580.46 244.084C580.46 250.699 585.845 256.084 592.46 256.084C598.283 256.084 603.147 251.911 604.23 246.401C605.314 251.911 610.179 256.084 616.001 256.084C622.616 256.084 628.001 250.699 628.001 244.084C628.001 242.83 627.807 241.624 627.449 240.487L622.829 215.093ZM612.538 215.74C613.043 213.238 614.209 211.972 616.001 211.972C618.047 211.972 619.127 213.902 619.458 215.707L622.827 234.228C620.886 232.881 618.536 232.085 616.001 232.085C613.451 232.085 611.089 232.891 609.142 234.252C610.386 227.362 612.149 217.654 612.538 215.74ZM599.655 217.114H608.782C607.611 223.37 604.671 239.716 604.496 240.691C604.391 241.044 604.301 241.401 604.229 241.766C604.143 241.33 604.037 240.904 603.906 240.487L599.655 217.114ZM588.997 215.741C589.505 213.24 590.67 211.972 592.46 211.972C594.507 211.972 595.587 213.902 595.918 215.707L599.286 234.228C597.346 232.881 594.995 232.085 592.46 232.085C589.911 232.085 587.549 232.891 585.603 234.252C586.847 227.362 588.611 217.654 588.999 215.743L588.997 215.741ZM592.46 252.655C587.734 252.655 583.889 248.81 583.889 244.084C583.889 239.357 587.734 235.512 592.46 235.512C597.186 235.512 601.031 239.357 601.031 244.084C601.031 248.81 597.186 252.655 592.46 252.655ZM616.001 252.655C611.274 252.655 607.429 248.81 607.429 244.084C607.429 239.357 611.274 235.512 616.001 235.512C620.727 235.512 624.572 239.357 624.572 244.084C624.572 248.81 620.727 252.655 616.001 252.655Z" fill="#DB0000"/>
<path d="M590.735 238.136V241.564C593.075 241.564 594.982 243.469 594.982 245.811H598.41C598.41 241.578 594.968 238.136 590.735 238.136Z" fill="#DB0000"/>
<path d="M614.06 238.136V241.564C616.4 241.564 618.306 243.469 618.306 245.811H621.734C621.734 241.578 618.292 238.136 614.06 238.136Z" fill="#DB0000"/>
<path d="M598.272 310C597.504 309.168 597.216 306.768 596.992 304.848C596.704 302.288 595.968 301.456 593.44 301.456H587.36V310H582.56V286.64H595.136C600.224 286.64 602.816 289.168 602.816 293.36C602.816 298.032 599.648 299.248 597.248 299.408V299.504C599.456 299.696 601.216 300.56 601.824 304.048C602.336 306.96 602.688 308.976 603.808 310H598.272ZM587.36 297.392H593.28C595.072 297.392 597.952 297.008 597.952 294.032C597.952 292.048 596.768 290.768 594.016 290.768H587.36V297.392ZM624.081 304.624C622.641 308.656 619.057 310.384 614.929 310.384C609.297 310.384 605.841 306.896 605.841 301.712C605.841 296.304 609.457 292.56 615.057 292.56C620.497 292.56 624.113 295.92 624.113 302.288H610.577C610.801 304.944 612.081 306.832 615.217 306.832C617.553 306.832 619.537 305.776 620.177 303.408L624.081 304.624ZM610.737 299.44H619.185C618.673 297.104 617.201 296.016 615.057 296.016C612.881 296.016 611.281 297.072 610.737 299.44ZM629.408 303.888C630.432 306.032 632.544 307.024 635.072 307.024C637.376 307.024 638.976 306.192 638.976 304.88C638.976 303.888 638.048 303.44 636.256 303.28C635.008 303.184 633.952 303.152 632.704 303.024C630.592 302.832 627.04 302 627.04 298.224C627.04 294.704 630.368 292.56 634.752 292.56C637.792 292.56 640.8 293.52 642.72 295.952L639.904 298.32C638.592 296.688 636.8 295.888 634.912 295.888C632.928 295.888 631.52 296.592 631.52 297.712C631.52 298.576 632.032 299.024 633.76 299.184C634.72 299.28 636.064 299.312 637.088 299.408C639.744 299.632 643.392 300.56 643.392 304.464C643.392 308.208 639.936 310.384 635.008 310.384C630.4 310.384 627.424 308.656 625.952 305.264L629.408 303.888ZM663.769 304.624C662.329 308.656 658.745 310.384 654.617 310.384C648.985 310.384 645.529 306.896 645.529 301.712C645.529 296.304 649.145 292.56 654.745 292.56C660.185 292.56 663.801 295.92 663.801 302.288H650.265C650.489 304.944 651.769 306.832 654.905 306.832C657.241 306.832 659.225 305.776 659.865 303.408L663.769 304.624ZM650.425 299.44H658.873C658.361 297.104 656.889 296.016 654.745 296.016C652.569 296.016 650.969 297.072 650.425 299.44ZM671.719 310.384C668.007 310.384 666.151 308.016 666.151 305.808C666.151 303.344 667.783 301.872 670.727 301.072L678.471 298.992V298.768C678.471 296.784 677.287 295.888 675.175 295.888C673.031 295.888 671.367 297.008 670.375 299.76L666.503 298.32C668.039 294.192 671.271 292.592 675.367 292.592C680.487 292.592 683.207 295.184 683.207 298.672V304.656C683.207 305.904 683.623 306.576 684.679 306.576C685.159 306.576 685.831 306.416 686.279 306.16V309.648C685.479 310 683.975 310.32 682.855 310.32C680.455 310.32 678.599 309.008 678.599 306.48V306.128H678.471C677.255 308.688 674.887 310.384 671.719 310.384ZM670.855 305.104C670.855 305.904 671.527 306.768 673.095 306.768C675.015 306.768 677.639 305.36 678.471 303.184V301.52L672.903 303.44C671.687 303.856 670.855 304.176 670.855 305.104ZM701.35 297.04C700.934 296.944 700.39 296.848 699.814 296.848C695.878 296.848 693.446 300.112 693.446 304.464V310H688.646V292.944H693.318V298.896H693.382C694.118 295.664 695.078 294.128 697.254 293.2C697.926 292.912 698.854 292.752 699.75 292.752C700.326 292.752 700.87 292.816 701.35 292.944V297.04ZM721.156 302.704C720.42 307.472 717.124 310.384 711.556 310.384C705.956 310.384 702.372 306.864 702.372 301.712C702.372 296.048 706.628 292.56 711.78 292.56C716.452 292.56 719.812 294.896 720.644 299.248L716.708 300.272C716.132 297.872 714.628 296.112 711.876 296.112C709.252 296.112 707.3 297.808 707.3 301.52C707.3 305.136 709.06 306.832 711.94 306.832C715.044 306.832 716.548 304.816 716.932 302.128L721.156 302.704ZM724.302 286.64H729.102V296.656H729.198C729.998 294.128 732.142 292.56 735.406 292.56C739.406 292.56 741.646 294.96 741.646 299.376V310H736.846V300.016C736.846 297.68 735.662 296.432 733.39 296.432C730.862 296.432 729.102 298 729.102 300.88V310H724.302V286.64Z" fill="#2A0080"/>
<path d="M586.816 366L580.312 348.84H582.904L588.328 364.2H588.376L593.536 348.84H595.984L589.72 366H586.816ZM606.587 362.856L607.811 364.056C607.403 364.56 605.555 366.336 602.531 366.336C598.979 366.336 596.435 364.2 596.435 360.288C596.435 356.184 598.979 353.688 602.339 353.688C606.563 353.688 608.147 356.88 607.979 360.384H598.547C598.571 362.904 600.203 364.584 602.699 364.584C604.547 364.584 606.131 363.384 606.587 362.856ZM602.411 355.392C600.515 355.392 599.075 356.4 598.667 358.8H605.747C605.747 356.736 604.403 355.392 602.411 355.392ZM613.259 350.952V363.912L613.283 366H611.171L611.195 363.912V350.952L611.171 348.84H613.283L613.259 350.952ZM619.306 366H617.194L617.218 363.912V356.136L617.194 354.024H619.306L619.282 356.136V363.912L619.306 366ZM619.282 351.504H617.218V348.84H619.282V351.504ZM629.458 354.024V355.68H626.17V363.072C626.17 364.128 626.434 364.632 627.562 364.632C628.354 364.632 629.098 364.392 629.554 364.224V365.928C629.074 366.096 628.378 366.336 627.226 366.336C625.498 366.336 624.106 365.784 624.106 363.24V355.68H621.85V354.024H624.154L624.442 350.616H626.17V354.024H629.458ZM649.017 366H646.905L646.929 363.912V358.728C646.929 356.568 646.161 355.488 644.505 355.488C642.801 355.488 641.193 356.616 640.305 358.2V363.912L640.329 366H638.217L638.241 363.912V356.136L638.217 354.024H640.257V356.088H640.305C641.193 354.888 642.585 353.688 644.793 353.688C647.385 353.688 648.993 355.368 648.993 358.536V363.912L649.017 366ZM652.652 354.024H654.764L654.74 356.112V361.296C654.74 363.456 655.508 364.536 657.164 364.536C658.868 364.536 660.452 363.408 661.364 361.824V356.112L661.34 354.024H663.452L663.428 356.112V363.888L663.452 366H661.412V363.936H661.364C660.476 365.16 659.084 366.336 656.876 366.336C654.284 366.336 652.676 364.656 652.676 361.488V356.112L652.652 354.024ZM678.15 366H676.038L676.062 363.912V358.728C676.062 356.568 675.294 355.488 673.638 355.488C671.934 355.488 670.326 356.616 669.438 358.2V363.912L669.462 366H667.35L667.374 363.912V356.136L667.35 354.024H669.39V356.088H669.438C670.326 354.888 671.718 353.688 673.926 353.688C676.518 353.688 678.126 355.368 678.126 358.536V363.912L678.15 366ZM690.496 362.376L692.152 363.192C691.912 363.768 690.328 366.336 687.016 366.336C684.064 366.336 681.184 364.296 681.184 360.12C681.184 356.424 683.464 353.688 687.064 353.688C690.712 353.688 691.888 356.496 692.008 356.712L690.208 357.552C689.896 356.808 688.84 355.416 686.968 355.416C684.952 355.416 683.344 357.048 683.344 359.952C683.344 362.856 684.952 364.584 687.04 364.584C689.032 364.584 690.208 363 690.496 362.376ZM702.814 350.952V363.912L702.838 366H700.726L700.75 363.912V350.952L700.726 348.84H702.838L702.814 350.952ZM712.077 366.336C708.357 366.336 705.981 363.336 705.981 360.024C705.981 356.688 708.357 353.688 712.077 353.688C715.797 353.688 718.173 356.688 718.173 360.024C718.173 363.336 715.797 366.336 712.077 366.336ZM712.077 364.608C714.213 364.608 716.013 362.928 716.013 360.024C716.013 357.12 714.213 355.416 712.077 355.416C709.917 355.416 708.141 357.12 708.141 360.024C708.141 362.928 709.917 364.608 712.077 364.608ZM721.303 366L721.327 363.912V356.136L721.303 354.024H723.343V358.08H723.391C724.447 354.936 726.295 353.688 728.023 353.688C728.191 353.688 728.407 353.712 728.503 353.736V355.68C728.335 355.656 728.167 355.656 728.023 355.656C725.455 355.656 723.631 359.112 723.391 361.272V363.912L723.415 366H721.303ZM739.946 362.856L741.17 364.056C740.762 364.56 738.914 366.336 735.89 366.336C732.338 366.336 729.794 364.2 729.794 360.288C729.794 356.184 732.338 353.688 735.698 353.688C739.922 353.688 741.506 356.88 741.338 360.384H731.906C731.93 362.904 733.562 364.584 736.058 364.584C737.906 364.584 739.49 363.384 739.946 362.856ZM735.77 355.392C733.874 355.392 732.434 356.4 732.026 358.8H739.106C739.106 356.736 737.762 355.392 735.77 355.392ZM754.707 366H752.595L752.619 363.912V358.728C752.619 356.544 751.851 355.488 750.147 355.488C748.707 355.488 747.387 356.592 746.595 358.152V363.912L746.619 366H744.507L744.531 363.912V356.136L744.507 354.024H746.547V355.968H746.595C747.363 354.816 748.587 353.688 750.483 353.688C752.139 353.688 753.651 354.336 754.347 356.256H754.395C755.139 355.032 756.435 353.688 758.571 353.688C761.163 353.688 762.771 355.368 762.771 358.536V363.912L762.795 366H760.683L760.707 363.912V358.728C760.707 356.544 759.939 355.488 758.235 355.488C756.795 355.488 755.475 356.592 754.682 358.152V363.912L754.707 366ZM783.127 366H781.015L781.039 363.912V358.728C781.039 356.568 780.271 355.488 778.615 355.488C776.911 355.488 775.303 356.616 774.415 358.2V363.912L774.439 366H772.327L772.351 363.912V356.136L772.327 354.024H774.367V356.088H774.415C775.303 354.888 776.695 353.688 778.903 353.688C781.495 353.688 783.103 355.368 783.103 358.536V363.912L783.127 366ZM786.761 354.024H788.873L788.849 356.112V361.296C788.849 363.456 789.617 364.536 791.273 364.536C792.977 364.536 794.561 363.408 795.473 361.824V356.112L795.449 354.024H797.561L797.537 356.112V363.888L797.561 366H795.521V363.936H795.473C794.585 365.16 793.193 366.336 790.985 366.336C788.393 366.336 786.785 364.656 786.785 361.488V356.112L786.761 354.024ZM812.26 366H810.148L810.172 363.912V358.728C810.172 356.568 809.404 355.488 807.748 355.488C806.044 355.488 804.436 356.616 803.548 358.2V363.912L803.572 366H801.46L801.484 363.912V356.136L801.46 354.024H803.5V356.088H803.548C804.436 354.888 805.828 353.688 808.036 353.688C810.628 353.688 812.236 355.368 812.236 358.536V363.912L812.26 366ZM824.606 362.376L826.262 363.192C826.022 363.768 824.438 366.336 821.126 366.336C818.174 366.336 815.294 364.296 815.294 360.12C815.294 356.424 817.574 353.688 821.174 353.688C824.822 353.688 825.998 356.496 826.118 356.712L824.318 357.552C824.006 356.808 822.95 355.416 821.078 355.416C819.062 355.416 817.454 357.048 817.454 359.952C817.454 362.856 819.062 364.584 821.15 364.584C823.142 364.584 824.318 363 824.606 362.376ZM843.379 362.376L845.035 363.192C844.795 363.768 843.211 366.336 839.899 366.336C836.947 366.336 834.067 364.296 834.067 360.12C834.067 356.424 836.347 353.688 839.947 353.688C843.595 353.688 844.771 356.496 844.891 356.712L843.091 357.552C842.779 356.808 841.723 355.416 839.851 355.416C837.835 355.416 836.227 357.048 836.227 359.952C836.227 362.856 837.835 364.584 839.923 364.584C841.915 364.584 843.091 363 843.379 362.376ZM847.819 366L847.843 363.912V356.136L847.819 354.024H849.859V358.08H849.907C850.963 354.936 852.811 353.688 854.539 353.688C854.707 353.688 854.923 353.712 855.019 353.736V355.68C854.851 355.656 854.683 355.656 854.539 355.656C851.971 355.656 850.147 359.112 849.907 361.272V363.912L849.931 366H847.819ZM858.129 357.024L856.833 355.992C857.721 354.768 859.233 353.688 861.825 353.688C864.585 353.688 866.841 354.912 866.841 358.128V363.072C866.841 364.464 866.961 365.352 867.057 366H865.065C864.921 365.256 864.897 364.416 864.849 363.72H864.801C864.225 364.776 862.569 366.312 860.193 366.312C858.417 366.312 856.377 365.472 856.377 363.024C856.377 358.704 862.233 358.512 864.849 358.488V358.104C864.849 356.184 863.721 355.32 861.705 355.32C860.073 355.32 859.161 355.896 858.129 357.024ZM860.553 364.68C862.281 364.68 864.801 363.504 864.849 359.928C861.921 359.976 858.537 360.576 858.537 362.928C858.537 363.984 859.209 364.68 860.553 364.68ZM869.639 364.104L870.863 362.856C871.655 363.504 872.903 364.728 875.231 364.728C876.719 364.728 878.375 364.152 878.375 362.688C878.375 361.128 876.479 361.008 874.919 360.792C872.831 360.504 870.071 360.072 870.071 357.408C870.071 355.392 871.679 353.64 874.751 353.64C877.391 353.64 879.239 354.984 879.935 355.752L878.711 357.024C878.063 356.4 876.767 355.296 874.895 355.296C873.527 355.296 872.015 355.896 872.015 357.192C872.015 358.512 873.599 358.68 875.279 358.896C877.271 359.136 880.319 359.568 880.319 362.496C880.319 364.608 878.687 366.384 875.303 366.384C872.255 366.384 870.383 364.968 869.639 364.104ZM891.865 366L887.185 354.024H889.441L893.161 364.608H893.209L896.857 354.024H898.993L894.433 366H891.865ZM910.642 362.856L911.866 364.056C911.458 364.56 909.61 366.336 906.586 366.336C903.034 366.336 900.49 364.2 900.49 360.288C900.49 356.184 903.034 353.688 906.394 353.688C910.618 353.688 912.202 356.88 912.034 360.384H902.602C902.626 362.904 904.258 364.584 906.754 364.584C908.602 364.584 910.186 363.384 910.642 362.856ZM906.466 355.392C904.57 355.392 903.13 356.4 902.722 358.8H909.802C909.802 356.736 908.458 355.392 906.466 355.392ZM917.314 350.952V363.912L917.338 366H915.226L915.25 363.912V350.952L915.226 348.84H917.338L917.314 350.952ZM592.144 400H590.032L590.056 397.912V392.728C590.056 390.544 589.288 389.488 587.584 389.488C586.144 389.488 584.824 390.592 584.032 392.152V397.912L584.056 400H581.944L581.968 397.912V390.136L581.944 388.024H583.984V389.968H584.032C584.8 388.816 586.024 387.688 587.92 387.688C589.576 387.688 591.088 388.336 591.784 390.256H591.832C592.576 389.032 593.872 387.688 596.008 387.688C598.6 387.688 600.208 389.368 600.208 392.536V397.912L600.232 400H598.12L598.144 397.912V392.728C598.144 390.544 597.376 389.488 595.672 389.488C594.232 389.488 592.912 390.592 592.12 392.152V397.912L592.144 400ZM604.887 391.024L603.591 389.992C604.479 388.768 605.991 387.688 608.583 387.688C611.343 387.688 613.599 388.912 613.599 392.128V397.072C613.599 398.464 613.719 399.352 613.815 400H611.823C611.679 399.256 611.655 398.416 611.607 397.72H611.559C610.983 398.776 609.327 400.312 606.951 400.312C605.175 400.312 603.135 399.472 603.135 397.024C603.135 392.704 608.991 392.512 611.607 392.488V392.104C611.607 390.184 610.479 389.32 608.463 389.32C606.831 389.32 605.919 389.896 604.887 391.024ZM607.311 398.68C609.039 398.68 611.559 397.504 611.607 393.928C608.679 393.976 605.295 394.576 605.295 396.928C605.295 397.984 605.967 398.68 607.311 398.68ZM617.261 388.024H619.373L619.349 390.112V395.296C619.349 397.456 620.117 398.536 621.773 398.536C623.477 398.536 625.061 397.408 625.973 395.824V390.112L625.949 388.024H628.061L628.037 390.112V397.888L628.061 400H626.021V397.936H625.973C625.085 399.16 623.693 400.336 621.485 400.336C618.893 400.336 617.285 398.656 617.285 395.488V390.112L617.261 388.024ZM631.96 400L631.984 397.912V390.136L631.96 388.024H634V392.08H634.048C635.104 388.936 636.952 387.688 638.68 387.688C638.848 387.688 639.064 387.712 639.16 387.736V389.68C638.992 389.656 638.824 389.656 638.68 389.656C636.112 389.656 634.288 393.112 634.048 395.272V397.912L634.072 400H631.96ZM643.658 400H641.546L641.57 397.912V390.136L641.546 388.024H643.658L643.634 390.136V397.912L643.658 400ZM643.634 385.504H641.57V382.84H643.634V385.504ZM646.538 398.104L647.762 396.856C648.554 397.504 649.802 398.728 652.13 398.728C653.618 398.728 655.274 398.152 655.274 396.688C655.274 395.128 653.378 395.008 651.818 394.792C649.73 394.504 646.97 394.072 646.97 391.408C646.97 389.392 648.578 387.64 651.65 387.64C654.29 387.64 656.138 388.984 656.834 389.752L655.61 391.024C654.962 390.4 653.666 389.296 651.794 389.296C650.426 389.296 648.914 389.896 648.914 391.192C648.914 392.512 650.498 392.68 652.178 392.896C654.17 393.136 657.218 393.568 657.218 396.496C657.218 398.608 655.586 400.384 652.202 400.384C649.154 400.384 647.282 398.968 646.538 398.104ZM664.983 398.104L666.207 396.856C666.999 397.504 668.247 398.728 670.575 398.728C672.063 398.728 673.719 398.152 673.719 396.688C673.719 395.128 671.823 395.008 670.263 394.792C668.175 394.504 665.415 394.072 665.415 391.408C665.415 389.392 667.023 387.64 670.095 387.64C672.735 387.64 674.583 388.984 675.279 389.752L674.055 391.024C673.407 390.4 672.111 389.296 670.239 389.296C668.871 389.296 667.359 389.896 667.359 391.192C667.359 392.512 668.943 392.68 670.623 392.896C672.615 393.136 675.663 393.568 675.663 396.496C675.663 398.608 674.031 400.384 670.647 400.384C667.599 400.384 665.727 398.968 664.983 398.104ZM687.239 396.376L688.895 397.192C688.655 397.768 687.071 400.336 683.759 400.336C680.807 400.336 677.927 398.296 677.927 394.12C677.927 390.424 680.207 387.688 683.807 387.688C687.455 387.688 688.631 390.496 688.751 390.712L686.951 391.552C686.639 390.808 685.583 389.416 683.711 389.416C681.695 389.416 680.087 391.048 680.087 393.952C680.087 396.856 681.695 398.584 683.783 398.584C685.775 398.584 686.951 397 687.239 396.376ZM701.11 396.856L702.334 398.056C701.926 398.56 700.078 400.336 697.054 400.336C693.502 400.336 690.958 398.2 690.958 394.288C690.958 390.184 693.502 387.688 696.862 387.688C701.086 387.688 702.67 390.88 702.502 394.384H693.07C693.094 396.904 694.726 398.584 697.222 398.584C699.07 398.584 700.654 397.384 701.11 396.856ZM696.934 389.392C695.038 389.392 693.598 390.4 693.19 392.8H700.27C700.27 390.736 698.926 389.392 696.934 389.392ZM707.783 384.952V397.912L707.807 400H705.695L705.719 397.912V384.952L705.695 382.84H707.807L707.783 384.952ZM721.149 396.856L722.373 398.056C721.965 398.56 720.117 400.336 717.093 400.336C713.541 400.336 710.997 398.2 710.997 394.288C710.997 390.184 713.541 387.688 716.901 387.688C721.125 387.688 722.709 390.88 722.541 394.384H713.109C713.133 396.904 714.765 398.584 717.261 398.584C719.109 398.584 720.693 397.384 721.149 396.856ZM716.973 389.392C715.077 389.392 713.637 390.4 713.229 392.8H720.309C720.309 390.736 718.965 389.392 716.973 389.392ZM725.71 400L725.734 397.912V390.136L725.71 388.024H727.75V392.08H727.798C728.854 388.936 730.702 387.688 732.43 387.688C732.598 387.688 732.814 387.712 732.91 387.736V389.68C732.742 389.656 732.574 389.656 732.43 389.656C729.862 389.656 728.038 393.112 727.798 395.272V397.912L727.822 400H725.71ZM737.408 400H735.296L735.32 397.912V390.136L735.296 388.024H737.408L737.384 390.136V397.912L737.408 400ZM737.384 385.504H735.32V382.84H737.384V385.504ZM740.288 398.104L741.512 396.856C742.304 397.504 743.552 398.728 745.88 398.728C747.368 398.728 749.024 398.152 749.024 396.688C749.024 395.128 747.128 395.008 745.568 394.792C743.48 394.504 740.72 394.072 740.72 391.408C740.72 389.392 742.328 387.64 745.4 387.64C748.04 387.64 749.888 388.984 750.584 389.752L749.36 391.024C748.712 390.4 747.416 389.296 745.544 389.296C744.176 389.296 742.664 389.896 742.664 391.192C742.664 392.512 744.248 392.68 745.928 392.896C747.92 393.136 750.968 393.568 750.968 396.496C750.968 398.608 749.336 400.384 745.952 400.384C742.904 400.384 741.032 398.968 740.288 398.104ZM762.735 405.136L762.759 403.024V397.912H762.711C762.063 399.16 760.839 400.336 758.655 400.336C755.391 400.336 753.255 397.624 753.255 393.976C753.255 389.944 755.895 387.688 758.727 387.688C761.079 387.688 762.231 389.176 762.783 390.208H762.831L763.071 388.024H764.847L764.823 390.088V403.024L764.847 405.136H762.735ZM758.991 389.416C756.735 389.416 755.415 391.168 755.415 393.976C755.415 396.712 756.663 398.608 758.967 398.608C760.935 398.608 762.807 397.24 762.807 394.072V393.976C762.807 391 761.127 389.416 758.991 389.416ZM768.597 388.024H770.709L770.685 390.112V395.296C770.685 397.456 771.453 398.536 773.109 398.536C774.813 398.536 776.397 397.408 777.309 395.824V390.112L777.285 388.024H779.397L779.373 390.112V397.888L779.397 400H777.357V397.936H777.309C776.421 399.16 775.029 400.336 772.821 400.336C770.229 400.336 768.621 398.656 768.621 395.488V390.112L768.597 388.024ZM792.728 396.856L793.952 398.056C793.544 398.56 791.696 400.336 788.672 400.336C785.12 400.336 782.576 398.2 782.576 394.288C782.576 390.184 785.12 387.688 788.48 387.688C792.704 387.688 794.288 390.88 794.12 394.384H784.688C784.712 396.904 786.344 398.584 788.84 398.584C790.688 398.584 792.272 397.384 792.728 396.856ZM788.552 389.392C786.656 389.392 785.216 390.4 784.808 392.8H791.888C791.888 390.736 790.544 389.392 788.552 389.392ZM803.941 391.024L802.645 389.992C803.533 388.768 805.045 387.688 807.637 387.688C810.397 387.688 812.653 388.912 812.653 392.128V397.072C812.653 398.464 812.773 399.352 812.869 400H810.877C810.733 399.256 810.709 398.416 810.661 397.72H810.613C810.037 398.776 808.381 400.312 806.005 400.312C804.229 400.312 802.189 399.472 802.189 397.024C802.189 392.704 808.045 392.512 810.661 392.488V392.104C810.661 390.184 809.533 389.32 807.517 389.32C805.885 389.32 804.973 389.896 803.941 391.024ZM806.365 398.68C808.093 398.68 810.613 397.504 810.661 393.928C807.733 393.976 804.349 394.576 804.349 396.928C804.349 397.984 805.021 398.68 806.365 398.68ZM833.025 400H830.913L830.937 397.912V392.728C830.937 390.568 830.169 389.488 828.513 389.488C826.809 389.488 825.201 390.616 824.313 392.2V397.912L824.337 400H822.225L822.249 397.912V390.136L822.225 388.024H824.265V390.088H824.313C825.201 388.888 826.593 387.688 828.801 387.688C831.393 387.688 833.001 389.368 833.001 392.536V397.912L833.025 400ZM838.915 400H836.803L836.827 397.912V390.136L836.803 388.024H838.915L838.891 390.136V397.912L838.915 400ZM838.891 385.504H836.827V382.84H838.891V385.504ZM841.795 398.104L843.019 396.856C843.811 397.504 845.059 398.728 847.387 398.728C848.875 398.728 850.531 398.152 850.531 396.688C850.531 395.128 848.635 395.008 847.075 394.792C844.987 394.504 842.227 394.072 842.227 391.408C842.227 389.392 843.835 387.64 846.907 387.64C849.547 387.64 851.395 388.984 852.091 389.752L850.867 391.024C850.219 390.4 848.923 389.296 847.051 389.296C845.683 389.296 844.171 389.896 844.171 391.192C844.171 392.512 845.755 392.68 847.435 392.896C849.427 393.136 852.475 393.568 852.475 396.496C852.475 398.608 850.843 400.384 847.459 400.384C844.411 400.384 842.539 398.968 841.795 398.104ZM857.595 384.952V397.912L857.619 400H855.507L855.531 397.912V384.952L855.507 382.84H857.619L857.595 384.952ZM869.408 400H867.296L867.32 397.912V390.136L867.296 388.024H869.408L869.384 390.136V397.912L869.408 400ZM869.384 385.504H867.32V382.84H869.384V385.504ZM878.048 400.336C874.928 400.336 872.576 397.84 872.576 394C872.576 390.184 874.928 387.688 878.048 387.688C880.304 387.688 881.384 388.96 882.008 390.112H882.056V384.952L882.032 382.84H884.144L884.12 384.952V397.936L884.144 400H882.128V397.768H882.08C881.408 399.112 880.256 400.336 878.048 400.336ZM878.312 389.416C876.056 389.416 874.736 391.168 874.736 393.976C874.736 396.712 875.984 398.608 878.288 398.608C880.256 398.608 882.128 397.24 882.128 394.072V393.976C882.128 391 880.448 389.416 878.312 389.416ZM903.235 396.856L904.459 398.056C904.051 398.56 902.203 400.336 899.179 400.336C895.627 400.336 893.083 398.2 893.083 394.288C893.083 390.184 895.627 387.688 898.987 387.688C903.211 387.688 904.795 390.88 904.627 394.384H895.195C895.219 396.904 896.851 398.584 899.347 398.584C901.195 398.584 902.779 397.384 903.235 396.856ZM899.059 389.392C897.163 389.392 895.723 390.4 895.315 392.8H902.395C902.395 390.736 901.051 389.392 899.059 389.392ZM913.872 388.024V389.68H910.584V397.072C910.584 398.128 910.848 398.632 911.976 398.632C912.768 398.632 913.512 398.392 913.968 398.224V399.928C913.488 400.096 912.792 400.336 911.64 400.336C909.912 400.336 908.52 399.784 908.52 397.24V389.68H906.264V388.024H908.568L908.856 384.616H910.584V388.024H913.872ZM584.056 418.952V431.912L584.08 434H581.968L581.992 431.912V418.952L581.968 416.84H584.08L584.056 418.952ZM593.319 434.336C589.599 434.336 587.223 431.336 587.223 428.024C587.223 424.688 589.599 421.688 593.319 421.688C597.039 421.688 599.415 424.688 599.415 428.024C599.415 431.336 597.039 434.336 593.319 434.336ZM593.319 432.608C595.455 432.608 597.255 430.928 597.255 428.024C597.255 425.12 595.455 423.416 593.319 423.416C591.159 423.416 589.383 425.12 589.383 428.024C589.383 430.928 591.159 432.608 593.319 432.608ZM602.546 434L602.57 431.912V424.136L602.546 422.024H604.586V426.08H604.634C605.69 422.936 607.538 421.688 609.266 421.688C609.434 421.688 609.65 421.712 609.746 421.736V423.68C609.578 423.656 609.41 423.656 609.266 423.656C606.698 423.656 604.874 427.112 604.634 429.272V431.912L604.658 434H602.546ZM621.189 430.856L622.413 432.056C622.005 432.56 620.157 434.336 617.133 434.336C613.581 434.336 611.037 432.2 611.037 428.288C611.037 424.184 613.581 421.688 616.941 421.688C621.165 421.688 622.749 424.88 622.581 428.384H613.149C613.173 430.904 614.805 432.584 617.301 432.584C619.149 432.584 620.733 431.384 621.189 430.856ZM617.013 423.392C615.117 423.392 613.677 424.4 613.269 426.8H620.349C620.349 424.736 619.005 423.392 617.013 423.392ZM635.949 434H633.837L633.861 431.912V426.728C633.861 424.544 633.093 423.488 631.389 423.488C629.949 423.488 628.629 424.592 627.837 426.152V431.912L627.861 434H625.749L625.773 431.912V424.136L625.749 422.024H627.789V423.968H627.837C628.605 422.816 629.829 421.688 631.725 421.688C633.381 421.688 634.893 422.336 635.589 424.256H635.637C636.381 423.032 637.677 421.688 639.813 421.688C642.405 421.688 644.013 423.368 644.013 426.536V431.912L644.037 434H641.925L641.949 431.912V426.728C641.949 424.544 641.181 423.488 639.477 423.488C638.037 423.488 636.717 424.592 635.925 426.152V431.912L635.949 434ZM655.681 434H653.569L653.593 431.912V424.136L653.569 422.024H655.681L655.657 424.136V431.912L655.681 434ZM655.657 419.504H653.593V416.84H655.657V419.504ZM665.689 434.336C663.505 434.336 662.353 433.136 661.705 431.864H661.657V437.048L661.681 439.136H659.569L659.593 437.048V424.136L659.569 422.024H661.633V424.208H661.681C662.305 423.008 663.409 421.688 665.689 421.688C668.785 421.688 671.161 424.16 671.161 427.976C671.161 431.816 668.785 434.336 665.689 434.336ZM665.401 423.416C663.265 423.416 661.585 425.024 661.585 427.976V428.072C661.585 431.24 663.457 432.608 665.401 432.608C667.729 432.608 668.977 430.64 668.977 427.952C668.977 425.168 667.657 423.416 665.401 423.416ZM673.327 432.104L674.551 430.856C675.343 431.504 676.591 432.728 678.919 432.728C680.407 432.728 682.063 432.152 682.063 430.688C682.063 429.128 680.167 429.008 678.607 428.792C676.519 428.504 673.759 428.072 673.759 425.408C673.759 423.392 675.367 421.64 678.439 421.64C681.079 421.64 682.927 422.984 683.623 423.752L682.399 425.024C681.751 424.4 680.455 423.296 678.583 423.296C677.215 423.296 675.703 423.896 675.703 425.192C675.703 426.512 677.287 426.68 678.967 426.896C680.959 427.136 684.007 427.568 684.007 430.496C684.007 432.608 682.375 434.384 678.991 434.384C675.943 434.384 674.071 432.968 673.327 432.104ZM686.87 422.024H688.982L688.958 424.112V429.296C688.958 431.456 689.726 432.536 691.382 432.536C693.086 432.536 694.67 431.408 695.582 429.824V424.112L695.558 422.024H697.67L697.646 424.112V431.888L697.67 434H695.63V431.936H695.582C694.694 433.16 693.302 434.336 691.094 434.336C688.502 434.336 686.894 432.656 686.894 429.488V424.112L686.87 422.024ZM711.769 434H709.657L709.681 431.912V426.728C709.681 424.544 708.913 423.488 707.209 423.488C705.769 423.488 704.449 424.592 703.657 426.152V431.912L703.681 434H701.569L701.593 431.912V424.136L701.569 422.024H703.609V423.968H703.657C704.425 422.816 705.649 421.688 707.545 421.688C709.201 421.688 710.713 422.336 711.409 424.256H711.457C712.201 423.032 713.497 421.688 715.633 421.688C718.225 421.688 719.833 423.368 719.833 426.536V431.912L719.857 434H717.745L717.769 431.912V426.728C717.769 424.544 717.001 423.488 715.297 423.488C713.857 423.488 712.537 424.592 711.745 426.152V431.912L711.769 434ZM723.432 434V431.336H726.24V434H723.432Z" fill="#191326"/>
<path d="M542 188C542 178.059 550.059 170 560 170H940C949.941 170 958 178.059 958 188V480H542V188Z" stroke="url(#paint1_linear_661_6863)" stroke-width="4"/>
<path d="M1050.23 255.457H1068.46C1072.88 255.457 1083.17 253.768 1083.17 238.115C1083.17 225.285 1071.06 219.863 1065.42 219.535C1063.82 218.387 1062.84 215.829 1062.04 213.746C1061.1 211.291 1060.28 209.171 1058.23 209.171C1055.2 209.171 1052.77 212.385 1052.77 215.14C1052.8 215.699 1053.09 220.67 1053.7 222.561L1055.76 226.022H1050.23C1047.51 226.022 1045.29 228.242 1045.29 231.002C1045.29 232.245 1045.76 233.37 1046.52 234.239C1045.76 235.113 1045.29 236.246 1045.29 237.505C1045.29 238.747 1045.76 239.872 1046.52 240.741C1045.76 241.615 1045.29 242.747 1045.29 244.005C1045.29 245.248 1045.76 246.373 1046.52 247.242C1045.76 248.116 1045.29 249.249 1045.29 250.507C1045.29 253.237 1047.51 255.457 1050.23 255.457ZM1055.45 252.028H1050.23C1049.4 252.028 1048.71 251.347 1048.71 250.475C1048.71 249.637 1049.4 248.954 1050.23 248.954H1056.99C1057.82 248.954 1058.51 249.635 1058.51 250.507C1058.51 251.346 1057.82 252.028 1056.99 252.028H1055.45ZM1048.71 243.974C1048.71 243.136 1049.4 242.454 1050.23 242.454H1056.99C1057.82 242.454 1058.51 243.134 1058.51 244.005C1058.51 244.843 1057.82 245.526 1056.99 245.526H1050.23C1049.4 245.526 1048.71 244.845 1048.71 243.974ZM1048.71 237.472C1048.71 236.634 1049.4 235.951 1050.23 235.951H1056.99C1057.82 235.951 1058.51 236.632 1058.51 237.505C1058.51 238.343 1057.82 239.025 1056.99 239.025H1050.23C1049.4 239.025 1048.71 238.345 1048.71 237.472ZM1057.86 212.673C1058.15 213.179 1058.54 214.195 1058.84 214.977C1059.89 217.706 1061.19 221.101 1064.04 222.726L1064.89 222.95C1069.12 222.95 1079.74 227.462 1079.74 238.117C1079.74 247.219 1075.84 252.03 1068.46 252.03H1061.67C1061.83 251.538 1061.93 251.023 1061.93 250.477C1061.93 249.234 1061.46 248.109 1060.7 247.24C1061.46 246.366 1061.93 245.234 1061.93 243.976C1061.93 242.733 1061.46 241.609 1060.7 240.739C1061.07 240.311 1061.38 239.826 1061.58 239.287C1063.93 242.025 1067.4 243.77 1071.28 243.77V240.342C1066.13 240.342 1061.93 236.147 1061.93 230.99C1061.93 230.99 1061.93 230.98 1061.93 230.975C1061.93 229.847 1061.54 228.818 1060.9 227.985L1056.91 221.342C1056.57 220.084 1056.29 216.818 1056.19 215.051C1056.19 214.23 1057.03 212.99 1057.85 212.677L1057.86 212.673ZM1050.23 229.451H1056.98C1057.41 229.451 1057.79 229.626 1058.07 229.912L1058.4 230.476C1058.46 230.642 1058.5 230.815 1058.5 231.004C1058.5 231.842 1057.82 232.525 1056.98 232.525H1050.23C1049.39 232.525 1048.71 231.844 1048.71 230.973C1048.71 230.135 1049.39 229.453 1050.23 229.453L1050.23 229.451Z" fill="#6300C7"/>
<path d="M1045.15 301.84C1046.46 304.88 1049.09 306.32 1052.58 306.32C1056.32 306.32 1057.76 304.72 1057.76 303.12C1057.76 301.52 1056.51 300.752 1054.21 300.432C1052.77 300.24 1050.82 300.08 1049.28 299.888C1045.44 299.408 1042.34 297.712 1042.34 293.552C1042.34 289.168 1046.27 286.256 1051.97 286.256C1055.84 286.256 1059.39 287.44 1061.76 291.024L1058.27 293.744C1056.54 291.152 1054.4 290.288 1051.94 290.288C1048.99 290.288 1047.23 291.664 1047.23 293.264C1047.23 294.736 1048.26 295.376 1050.53 295.632C1051.87 295.792 1053.47 295.952 1055.1 296.144C1058.56 296.56 1062.66 297.968 1062.66 302.768C1062.66 307.536 1058.53 310.384 1052.48 310.384C1047.17 310.384 1043.2 308.336 1041.12 303.728L1045.15 301.84ZM1075.13 310.384C1069.34 310.384 1065.56 306.864 1065.56 301.488C1065.56 296.112 1069.34 292.56 1075.13 292.56C1080.92 292.56 1084.7 296.112 1084.7 301.488C1084.7 306.864 1080.92 310.384 1075.13 310.384ZM1070.49 301.488C1070.49 304.72 1072.18 306.864 1075.13 306.864C1078.07 306.864 1079.77 304.72 1079.77 301.488C1079.77 298.256 1078.07 296.08 1075.13 296.08C1072.18 296.08 1070.49 298.256 1070.49 301.488ZM1105.91 302.704C1105.17 307.472 1101.87 310.384 1096.31 310.384C1090.71 310.384 1087.12 306.864 1087.12 301.712C1087.12 296.048 1091.38 292.56 1096.53 292.56C1101.2 292.56 1104.56 294.896 1105.39 299.248L1101.46 300.272C1100.88 297.872 1099.38 296.112 1096.63 296.112C1094 296.112 1092.05 297.808 1092.05 301.52C1092.05 305.136 1093.81 306.832 1096.69 306.832C1099.79 306.832 1101.3 304.816 1101.68 302.128L1105.91 302.704ZM1109.05 310V292.944H1113.85V310H1109.05ZM1108.99 290.768V286.64H1113.92V290.768H1108.99ZM1122.75 310.384C1119.04 310.384 1117.18 308.016 1117.18 305.808C1117.18 303.344 1118.81 301.872 1121.76 301.072L1129.5 298.992V298.768C1129.5 296.784 1128.32 295.888 1126.21 295.888C1124.06 295.888 1122.4 297.008 1121.41 299.76L1117.53 298.32C1119.07 294.192 1122.3 292.592 1126.4 292.592C1131.52 292.592 1134.24 295.184 1134.24 298.672V304.656C1134.24 305.904 1134.65 306.576 1135.71 306.576C1136.19 306.576 1136.86 306.416 1137.31 306.16V309.648C1136.51 310 1135.01 310.32 1133.89 310.32C1131.49 310.32 1129.63 309.008 1129.63 306.48V306.128H1129.5C1128.29 308.688 1125.92 310.384 1122.75 310.384ZM1121.89 305.104C1121.89 305.904 1122.56 306.768 1124.13 306.768C1126.05 306.768 1128.67 305.36 1129.5 303.184V301.52L1123.93 303.44C1122.72 303.856 1121.89 304.176 1121.89 305.104ZM1139.68 310V286.64H1144.48V310H1139.68ZM1158.22 310V286.64H1167.66C1175.18 286.64 1180.26 290.544 1180.26 298.192C1180.26 305.616 1175.27 310 1167.66 310H1158.22ZM1163.02 305.872H1167.3C1171.46 305.872 1175.3 303.76 1175.3 298.32C1175.3 292.464 1171.46 290.768 1167.3 290.768H1163.02V305.872ZM1188.31 310.384C1184.6 310.384 1182.75 308.016 1182.75 305.808C1182.75 303.344 1184.38 301.872 1187.32 301.072L1195.07 298.992V298.768C1195.07 296.784 1193.88 295.888 1191.77 295.888C1189.62 295.888 1187.96 297.008 1186.97 299.76L1183.1 298.32C1184.63 294.192 1187.87 292.592 1191.96 292.592C1197.08 292.592 1199.8 295.184 1199.8 298.672V304.656C1199.8 305.904 1200.22 306.576 1201.27 306.576C1201.75 306.576 1202.43 306.416 1202.87 306.16V309.648C1202.07 310 1200.57 310.32 1199.45 310.32C1197.05 310.32 1195.19 309.008 1195.19 306.48V306.128H1195.07C1193.85 308.688 1191.48 310.384 1188.31 310.384ZM1187.45 305.104C1187.45 305.904 1188.12 306.768 1189.69 306.768C1191.61 306.768 1194.23 305.36 1195.07 303.184V301.52L1189.5 303.44C1188.28 303.856 1187.45 304.176 1187.45 305.104ZM1207.6 303.888C1208.62 306.032 1210.73 307.024 1213.26 307.024C1215.56 307.024 1217.16 306.192 1217.16 304.88C1217.16 303.888 1216.24 303.44 1214.44 303.28C1213.2 303.184 1212.14 303.152 1210.89 303.024C1208.78 302.832 1205.23 302 1205.23 298.224C1205.23 294.704 1208.56 292.56 1212.94 292.56C1215.98 292.56 1218.99 293.52 1220.91 295.952L1218.09 298.32C1216.78 296.688 1214.99 295.888 1213.1 295.888C1211.12 295.888 1209.71 296.592 1209.71 297.712C1209.71 298.576 1210.22 299.024 1211.95 299.184C1212.91 299.28 1214.25 299.312 1215.28 299.408C1217.93 299.632 1221.58 300.56 1221.58 304.464C1221.58 308.208 1218.12 310.384 1213.2 310.384C1208.59 310.384 1205.61 308.656 1204.14 305.264L1207.6 303.888ZM1224.71 286.64H1229.51V296.656H1229.6C1230.4 294.128 1232.55 292.56 1235.81 292.56C1239.81 292.56 1242.05 294.96 1242.05 299.376V310H1237.25V300.016C1237.25 297.68 1236.07 296.432 1233.8 296.432C1231.27 296.432 1229.51 298 1229.51 300.88V310H1224.71V286.64ZM1257.5 292.56C1261.79 292.56 1265.34 295.856 1265.34 301.424C1265.34 306.864 1262.08 310.384 1257.41 310.384C1254.37 310.384 1252.13 308.816 1251.14 306.448H1251.04V310H1246.24V286.64H1251.04V296.656H1251.14C1252.19 294.128 1254.37 292.56 1257.5 292.56ZM1251.01 301.904C1251.01 304.656 1252.99 306.832 1255.81 306.832C1258.56 306.832 1260.42 304.656 1260.42 301.424C1260.42 298.288 1258.56 296.112 1255.81 296.112C1252.99 296.112 1251.01 298.384 1251.01 301.04V301.904ZM1277.35 310.384C1271.55 310.384 1267.78 306.864 1267.78 301.488C1267.78 296.112 1271.55 292.56 1277.35 292.56C1283.14 292.56 1286.91 296.112 1286.91 301.488C1286.91 306.864 1283.14 310.384 1277.35 310.384ZM1272.71 301.488C1272.71 304.72 1274.4 306.864 1277.35 306.864C1280.29 306.864 1281.99 304.72 1281.99 301.488C1281.99 298.256 1280.29 296.08 1277.35 296.08C1274.4 296.08 1272.71 298.256 1272.71 301.488ZM1294.81 310.384C1291.1 310.384 1289.25 308.016 1289.25 305.808C1289.25 303.344 1290.88 301.872 1293.82 301.072L1301.57 298.992V298.768C1301.57 296.784 1300.38 295.888 1298.27 295.888C1296.12 295.888 1294.46 297.008 1293.47 299.76L1289.6 298.32C1291.13 294.192 1294.37 292.592 1298.46 292.592C1303.58 292.592 1306.3 295.184 1306.3 298.672V304.656C1306.3 305.904 1306.72 306.576 1307.77 306.576C1308.25 306.576 1308.93 306.416 1309.37 306.16V309.648C1308.57 310 1307.07 310.32 1305.95 310.32C1303.55 310.32 1301.69 309.008 1301.69 306.48V306.128H1301.57C1300.35 308.688 1297.98 310.384 1294.81 310.384ZM1293.95 305.104C1293.95 305.904 1294.62 306.768 1296.19 306.768C1298.11 306.768 1300.73 305.36 1301.57 303.184V301.52L1296 303.44C1294.78 303.856 1293.95 304.176 1293.95 305.104ZM1324.44 297.04C1324.03 296.944 1323.48 296.848 1322.91 296.848C1318.97 296.848 1316.54 300.112 1316.54 304.464V310H1311.74V292.944H1316.41V298.896H1316.48C1317.21 295.664 1318.17 294.128 1320.35 293.2C1321.02 292.912 1321.95 292.752 1322.84 292.752C1323.42 292.752 1323.96 292.816 1324.44 292.944V297.04ZM1333.31 310.384C1329.02 310.384 1325.47 307.088 1325.47 301.52C1325.47 296.08 1328.73 292.56 1333.4 292.56C1336.44 292.56 1338.68 294.128 1339.67 296.496H1339.77V286.64H1344.57V310H1339.77V306.288H1339.67C1338.62 308.816 1336.44 310.384 1333.31 310.384ZM1330.39 301.52C1330.39 304.656 1332.25 306.832 1335 306.832C1337.82 306.832 1339.8 304.56 1339.8 301.904V301.04C1339.8 298.288 1337.82 296.112 1335 296.112C1332.25 296.112 1330.39 298.288 1330.39 301.52ZM1350.85 303.888C1351.87 306.032 1353.98 307.024 1356.51 307.024C1358.81 307.024 1360.41 306.192 1360.41 304.88C1360.41 303.888 1359.49 303.44 1357.69 303.28C1356.45 303.184 1355.39 303.152 1354.14 303.024C1352.03 302.832 1348.48 302 1348.48 298.224C1348.48 294.704 1351.81 292.56 1356.19 292.56C1359.23 292.56 1362.24 293.52 1364.16 295.952L1361.34 298.32C1360.03 296.688 1358.24 295.888 1356.35 295.888C1354.37 295.888 1352.96 296.592 1352.96 297.712C1352.96 298.576 1353.47 299.024 1355.2 299.184C1356.16 299.28 1357.5 299.312 1358.53 299.408C1361.18 299.632 1364.83 300.56 1364.83 304.464C1364.83 308.208 1361.37 310.384 1356.45 310.384C1351.84 310.384 1348.86 308.656 1347.39 305.264L1350.85 303.888Z" fill="#2A0080"/>
<path d="M1046.82 366L1040.31 348.84H1042.9L1048.33 364.2H1048.38L1053.54 348.84H1055.98L1049.72 366H1046.82ZM1060.46 366H1058.35L1058.37 363.912V356.136L1058.35 354.024H1060.46L1060.44 356.136V363.912L1060.46 366ZM1060.44 351.504H1058.37V348.84H1060.44V351.504ZM1067.66 366L1062.98 354.024H1065.24L1068.96 364.608H1069.01L1072.65 354.024H1074.79L1070.23 366H1067.66ZM1086.44 362.856L1087.66 364.056C1087.25 364.56 1085.41 366.336 1082.38 366.336C1078.83 366.336 1076.29 364.2 1076.29 360.288C1076.29 356.184 1078.83 353.688 1082.19 353.688C1086.41 353.688 1088 356.88 1087.83 360.384H1078.4C1078.42 362.904 1080.05 364.584 1082.55 364.584C1084.4 364.584 1085.98 363.384 1086.44 362.856ZM1082.26 355.392C1080.37 355.392 1078.93 356.4 1078.52 358.8H1085.6C1085.6 356.736 1084.25 355.392 1082.26 355.392ZM1091 366L1091.02 363.912V356.136L1091 354.024H1093.04V358.08H1093.09C1094.14 354.936 1095.99 353.688 1097.72 353.688C1097.89 353.688 1098.1 353.712 1098.2 353.736V355.68C1098.03 355.656 1097.86 355.656 1097.72 355.656C1095.15 355.656 1093.33 359.112 1093.09 361.272V363.912L1093.11 366H1091ZM1100.58 366L1100.61 363.912V356.136L1100.58 354.024H1102.62V358.08H1102.67C1103.73 354.936 1105.58 353.688 1107.3 353.688C1107.47 353.688 1107.69 353.712 1107.78 353.736V355.68C1107.62 355.656 1107.45 355.656 1107.3 355.656C1104.74 355.656 1102.91 359.112 1102.67 361.272V363.912L1102.7 366H1100.58ZM1110.89 357.024L1109.6 355.992C1110.49 354.768 1112 353.688 1114.59 353.688C1117.35 353.688 1119.61 354.912 1119.61 358.128V363.072C1119.61 364.464 1119.73 365.352 1119.82 366H1117.83C1117.69 365.256 1117.66 364.416 1117.61 363.72H1117.57C1116.99 364.776 1115.33 366.312 1112.96 366.312C1111.18 366.312 1109.14 365.472 1109.14 363.024C1109.14 358.704 1115 358.512 1117.61 358.488V358.104C1117.61 356.184 1116.49 355.32 1114.47 355.32C1112.84 355.32 1111.93 355.896 1110.89 357.024ZM1113.32 364.68C1115.05 364.68 1117.57 363.504 1117.61 359.928C1114.69 359.976 1111.3 360.576 1111.3 362.928C1111.3 363.984 1111.97 364.68 1113.32 364.68ZM1135.3 366.336C1133.11 366.336 1131.96 365.136 1131.31 363.864H1131.27V369.048L1131.29 371.136H1129.18L1129.2 369.048V356.136L1129.18 354.024H1131.24V356.208H1131.29C1131.91 355.008 1133.02 353.688 1135.3 353.688C1138.39 353.688 1140.77 356.16 1140.77 359.976C1140.77 363.816 1138.39 366.336 1135.3 366.336ZM1135.01 355.416C1132.87 355.416 1131.19 357.024 1131.19 359.976V360.072C1131.19 363.24 1133.07 364.608 1135.01 364.608C1137.34 364.608 1138.59 362.64 1138.59 359.952C1138.59 357.168 1137.27 355.416 1135.01 355.416ZM1146.03 350.952V356.04H1146.08C1146.97 354.84 1148.36 353.688 1150.52 353.688C1153.11 353.688 1154.72 355.368 1154.72 358.536V363.912L1154.74 366H1152.63L1152.66 363.912V358.728C1152.66 356.568 1151.89 355.488 1150.23 355.488C1148.53 355.488 1146.92 356.616 1146.03 358.2V363.912L1146.06 366H1143.94L1143.97 363.912V350.952L1143.94 348.84H1146.06L1146.03 350.952ZM1159.41 357.024L1158.11 355.992C1159 354.768 1160.51 353.688 1163.11 353.688C1165.87 353.688 1168.12 354.912 1168.12 358.128V363.072C1168.12 364.464 1168.24 365.352 1168.34 366H1166.35C1166.2 365.256 1166.18 364.416 1166.13 363.72H1166.08C1165.51 364.776 1163.85 366.312 1161.47 366.312C1159.7 366.312 1157.66 365.472 1157.66 363.024C1157.66 358.704 1163.51 358.512 1166.13 358.488V358.104C1166.13 356.184 1165 355.32 1162.99 355.32C1161.35 355.32 1160.44 355.896 1159.41 357.024ZM1161.83 364.68C1163.56 364.68 1166.08 363.504 1166.13 359.928C1163.2 359.976 1159.82 360.576 1159.82 362.928C1159.82 363.984 1160.49 364.68 1161.83 364.68ZM1171.93 366L1171.95 363.912V356.136L1171.93 354.024H1173.97V358.08H1174.02C1175.07 354.936 1176.92 353.688 1178.65 353.688C1178.82 353.688 1179.03 353.712 1179.13 353.736V355.68C1178.96 355.656 1178.79 355.656 1178.65 355.656C1176.08 355.656 1174.26 359.112 1174.02 361.272V363.912L1174.04 366H1171.93ZM1190.57 362.856L1191.8 364.056C1191.39 364.56 1189.54 366.336 1186.52 366.336C1182.96 366.336 1180.42 364.2 1180.42 360.288C1180.42 356.184 1182.96 353.688 1186.32 353.688C1190.55 353.688 1192.13 356.88 1191.96 360.384H1182.53C1182.56 362.904 1184.19 364.584 1186.68 364.584C1188.53 364.584 1190.12 363.384 1190.57 362.856ZM1186.4 355.392C1184.5 355.392 1183.06 356.4 1182.65 358.8H1189.73C1189.73 356.736 1188.39 355.392 1186.4 355.392ZM1201.21 354.024V355.68H1197.92V363.072C1197.92 364.128 1198.18 364.632 1199.31 364.632C1200.1 364.632 1200.85 364.392 1201.3 364.224V365.928C1200.82 366.096 1200.13 366.336 1198.98 366.336C1197.25 366.336 1195.86 365.784 1195.86 363.24V355.68H1193.6V354.024H1195.9L1196.19 350.616H1197.92V354.024H1201.21ZM1204.2 366L1204.23 363.912V356.136L1204.2 354.024H1206.24V358.08H1206.29C1207.35 354.936 1209.19 353.688 1210.92 353.688C1211.09 353.688 1211.31 353.712 1211.4 353.736V355.68C1211.23 355.656 1211.07 355.656 1210.92 355.656C1208.35 355.656 1206.53 359.112 1206.29 361.272V363.912L1206.31 366H1204.2ZM1214.51 357.024L1213.22 355.992C1214.1 354.768 1215.62 353.688 1218.21 353.688C1220.97 353.688 1223.22 354.912 1223.22 358.128V363.072C1223.22 364.464 1223.34 365.352 1223.44 366H1221.45C1221.3 365.256 1221.28 364.416 1221.23 363.72H1221.18C1220.61 364.776 1218.95 366.312 1216.58 366.312C1214.8 366.312 1212.76 365.472 1212.76 363.024C1212.76 358.704 1218.62 358.512 1221.23 358.488V358.104C1221.23 356.184 1220.1 355.32 1218.09 355.32C1216.46 355.32 1215.54 355.896 1214.51 357.024ZM1216.94 364.68C1218.66 364.68 1221.18 363.504 1221.23 359.928C1218.3 359.976 1214.92 360.576 1214.92 362.928C1214.92 363.984 1215.59 364.68 1216.94 364.68ZM1243 366H1240.88L1240.91 363.912V358.728C1240.91 356.544 1240.14 355.488 1238.44 355.488C1237 355.488 1235.68 356.592 1234.88 358.152V363.912L1234.91 366H1232.8L1232.82 363.912V356.136L1232.8 354.024H1234.84V355.968H1234.88C1235.65 354.816 1236.88 353.688 1238.77 353.688C1240.43 353.688 1241.94 354.336 1242.64 356.256H1242.68C1243.43 355.032 1244.72 353.688 1246.86 353.688C1249.45 353.688 1251.06 355.368 1251.06 358.536V363.912L1251.08 366H1248.97L1249 363.912V358.728C1249 356.544 1248.23 355.488 1246.52 355.488C1245.08 355.488 1243.76 356.592 1242.97 358.152V363.912L1243 366ZM1255.74 357.024L1254.44 355.992C1255.33 354.768 1256.84 353.688 1259.43 353.688C1262.19 353.688 1264.45 354.912 1264.45 358.128V363.072C1264.45 364.464 1264.57 365.352 1264.67 366H1262.67C1262.53 365.256 1262.51 364.416 1262.46 363.72H1262.41C1261.83 364.776 1260.18 366.312 1257.8 366.312C1256.03 366.312 1253.99 365.472 1253.99 363.024C1253.99 358.704 1259.84 358.512 1262.46 358.488V358.104C1262.46 356.184 1261.33 355.32 1259.31 355.32C1257.68 355.32 1256.77 355.896 1255.74 357.024ZM1258.16 364.68C1259.89 364.68 1262.41 363.504 1262.46 359.928C1259.53 359.976 1256.15 360.576 1256.15 362.928C1256.15 363.984 1256.82 364.68 1258.16 364.68ZM1274.43 354.024V355.68H1271.14V363.072C1271.14 364.128 1271.4 364.632 1272.53 364.632C1273.32 364.632 1274.07 364.392 1274.52 364.224V365.928C1274.04 366.096 1273.35 366.336 1272.19 366.336C1270.47 366.336 1269.07 365.784 1269.07 363.24V355.68H1266.82V354.024H1269.12L1269.41 350.616H1271.14V354.024H1274.43ZM1283.68 354.024V355.68H1280.4V363.072C1280.4 364.128 1280.66 364.632 1281.79 364.632C1282.58 364.632 1283.32 364.392 1283.78 364.224V365.928C1283.3 366.096 1282.6 366.336 1281.45 366.336C1279.72 366.336 1278.33 365.784 1278.33 363.24V355.68H1276.08V354.024H1278.38L1278.67 350.616H1280.4V354.024H1283.68ZM1288.79 366H1286.68L1286.7 363.912V356.136L1286.68 354.024H1288.79L1288.77 356.136V363.912L1288.79 366ZM1288.77 351.504H1286.7V348.84H1288.77V351.504ZM1291.67 364.104L1292.89 362.856C1293.69 363.504 1294.93 364.728 1297.26 364.728C1298.75 364.728 1300.41 364.152 1300.41 362.688C1300.41 361.128 1298.51 361.008 1296.95 360.792C1294.86 360.504 1292.1 360.072 1292.1 357.408C1292.1 355.392 1293.71 353.64 1296.78 353.64C1299.42 353.64 1301.27 354.984 1301.97 355.752L1300.74 357.024C1300.09 356.4 1298.8 355.296 1296.93 355.296C1295.56 355.296 1294.05 355.896 1294.05 357.192C1294.05 358.512 1295.63 358.68 1297.31 358.896C1299.3 359.136 1302.35 359.568 1302.35 362.496C1302.35 364.608 1300.72 366.384 1297.33 366.384C1294.29 366.384 1292.41 364.968 1291.67 364.104ZM1045.26 400L1040.58 388.024H1042.83L1046.55 398.608H1046.6L1050.25 388.024H1052.38L1047.82 400H1045.26ZM1064.03 396.856L1065.26 398.056C1064.85 398.56 1063 400.336 1059.98 400.336C1056.42 400.336 1053.88 398.2 1053.88 394.288C1053.88 390.184 1056.42 387.688 1059.78 387.688C1064.01 387.688 1065.59 390.88 1065.42 394.384H1055.99C1056.02 396.904 1057.65 398.584 1060.14 398.584C1061.99 398.584 1063.58 397.384 1064.03 396.856ZM1059.86 389.392C1057.96 389.392 1056.52 390.4 1056.11 392.8H1063.19C1063.19 390.736 1061.85 389.392 1059.86 389.392ZM1079.39 400H1077.28L1077.3 397.912V392.728C1077.3 390.568 1076.54 389.488 1074.88 389.488C1073.18 389.488 1071.57 390.616 1070.68 392.2V397.912L1070.7 400H1068.59L1068.62 397.912V390.136L1068.59 388.024H1070.63V390.088H1070.68C1071.57 388.888 1072.96 387.688 1075.17 387.688C1077.76 387.688 1079.37 389.368 1079.37 392.536V397.912L1079.39 400ZM1092.6 396.856L1093.83 398.056C1093.42 398.56 1091.57 400.336 1088.55 400.336C1084.99 400.336 1082.45 398.2 1082.45 394.288C1082.45 390.184 1084.99 387.688 1088.35 387.688C1092.58 387.688 1094.16 390.88 1093.99 394.384H1084.56C1084.59 396.904 1086.22 398.584 1088.71 398.584C1090.56 398.584 1092.15 397.384 1092.6 396.856ZM1088.43 389.392C1086.53 389.392 1085.09 390.4 1084.68 392.8H1091.76C1091.76 390.736 1090.42 389.392 1088.43 389.392ZM1107.96 400H1105.85L1105.87 397.912V392.728C1105.87 390.568 1105.11 389.488 1103.45 389.488C1101.75 389.488 1100.14 390.616 1099.25 392.2V397.912L1099.27 400H1097.16L1097.19 397.912V390.136L1097.16 388.024H1099.2V390.088H1099.25C1100.14 388.888 1101.53 387.688 1103.74 387.688C1106.33 387.688 1107.94 389.368 1107.94 392.536V397.912L1107.96 400ZM1112.63 391.024L1111.33 389.992C1112.22 388.768 1113.73 387.688 1116.32 387.688C1119.08 387.688 1121.34 388.912 1121.34 392.128V397.072C1121.34 398.464 1121.46 399.352 1121.56 400H1119.56C1119.42 399.256 1119.4 398.416 1119.35 397.72H1119.3C1118.72 398.776 1117.07 400.312 1114.69 400.312C1112.92 400.312 1110.88 399.472 1110.88 397.024C1110.88 392.704 1116.73 392.512 1119.35 392.488V392.104C1119.35 390.184 1118.22 389.32 1116.2 389.32C1114.57 389.32 1113.66 389.896 1112.63 391.024ZM1115.05 398.68C1116.78 398.68 1119.3 397.504 1119.35 393.928C1116.42 393.976 1113.04 394.576 1113.04 396.928C1113.04 397.984 1113.71 398.68 1115.05 398.68ZM1131.32 388.024V389.68H1128.03V397.072C1128.03 398.128 1128.29 398.632 1129.42 398.632C1130.21 398.632 1130.96 398.392 1131.41 398.224V399.928C1130.93 400.096 1130.24 400.336 1129.09 400.336C1127.36 400.336 1125.97 399.784 1125.97 397.24V389.68H1123.71V388.024H1126.01L1126.3 384.616H1128.03V388.024H1131.32ZM1136.42 400H1134.31L1134.34 397.912V390.136L1134.31 388.024H1136.42L1136.4 390.136V397.912L1136.42 400ZM1136.4 385.504H1134.34V382.84H1136.4V385.504ZM1139.3 398.104L1140.53 396.856C1141.32 397.504 1142.57 398.728 1144.9 398.728C1146.38 398.728 1148.04 398.152 1148.04 396.688C1148.04 395.128 1146.14 395.008 1144.58 394.792C1142.5 394.504 1139.74 394.072 1139.74 391.408C1139.74 389.392 1141.34 387.64 1144.42 387.64C1147.06 387.64 1148.9 388.984 1149.6 389.752L1148.38 391.024C1147.73 390.4 1146.43 389.296 1144.56 389.296C1143.19 389.296 1141.68 389.896 1141.68 391.192C1141.68 392.512 1143.26 392.68 1144.94 392.896C1146.94 393.136 1149.98 393.568 1149.98 396.496C1149.98 398.608 1148.35 400.384 1144.97 400.384C1141.92 400.384 1140.05 398.968 1139.3 398.104ZM1164.88 400.336C1162.69 400.336 1161.54 399.136 1160.89 397.864H1160.84V403.048L1160.87 405.136H1158.76L1158.78 403.048V390.136L1158.76 388.024H1160.82V390.208H1160.87C1161.49 389.008 1162.6 387.688 1164.88 387.688C1167.97 387.688 1170.35 390.16 1170.35 393.976C1170.35 397.816 1167.97 400.336 1164.88 400.336ZM1164.59 389.416C1162.45 389.416 1160.77 391.024 1160.77 393.976V394.072C1160.77 397.24 1162.64 398.608 1164.59 398.608C1166.92 398.608 1168.16 396.64 1168.16 393.952C1168.16 391.168 1166.84 389.416 1164.59 389.416ZM1175.61 384.952V390.04H1175.66C1176.55 388.84 1177.94 387.688 1180.1 387.688C1182.69 387.688 1184.3 389.368 1184.3 392.536V397.912L1184.32 400H1182.21L1182.23 397.912V392.728C1182.23 390.568 1181.47 389.488 1179.81 389.488C1178.11 389.488 1176.5 390.616 1175.61 392.2V397.912L1175.63 400H1173.52L1173.55 397.912V384.952L1173.52 382.84H1175.63L1175.61 384.952ZM1188.99 391.024L1187.69 389.992C1188.58 388.768 1190.09 387.688 1192.68 387.688C1195.44 387.688 1197.7 388.912 1197.7 392.128V397.072C1197.7 398.464 1197.82 399.352 1197.92 400H1195.92C1195.78 399.256 1195.76 398.416 1195.71 397.72H1195.66C1195.08 398.776 1193.43 400.312 1191.05 400.312C1189.28 400.312 1187.24 399.472 1187.24 397.024C1187.24 392.704 1193.09 392.512 1195.71 392.488V392.104C1195.71 390.184 1194.58 389.32 1192.56 389.32C1190.93 389.32 1190.02 389.896 1188.99 391.024ZM1191.41 398.68C1193.14 398.68 1195.66 397.504 1195.71 393.928C1192.78 393.976 1189.4 394.576 1189.4 396.928C1189.4 397.984 1190.07 398.68 1191.41 398.68ZM1201.51 400L1201.53 397.912V390.136L1201.51 388.024H1203.55V392.08H1203.59C1204.65 388.936 1206.5 387.688 1208.23 387.688C1208.39 387.688 1208.61 387.712 1208.71 387.736V389.68C1208.54 389.656 1208.37 389.656 1208.23 389.656C1205.66 389.656 1203.83 393.112 1203.59 395.272V397.912L1203.62 400H1201.51ZM1220.15 396.856L1221.37 398.056C1220.97 398.56 1219.12 400.336 1216.09 400.336C1212.54 400.336 1210 398.2 1210 394.288C1210 390.184 1212.54 387.688 1215.9 387.688C1220.13 387.688 1221.71 390.88 1221.54 394.384H1212.11C1212.13 396.904 1213.77 398.584 1216.26 398.584C1218.11 398.584 1219.69 397.384 1220.15 396.856ZM1215.97 389.392C1214.08 389.392 1212.64 390.4 1212.23 392.8H1219.31C1219.31 390.736 1217.97 389.392 1215.97 389.392ZM1230.79 388.024V389.68H1227.5V397.072C1227.5 398.128 1227.76 398.632 1228.89 398.632C1229.68 398.632 1230.43 398.392 1230.88 398.224V399.928C1230.4 400.096 1229.71 400.336 1228.55 400.336C1226.83 400.336 1225.43 399.784 1225.43 397.24V389.68H1223.18V388.024H1225.48L1225.77 384.616H1227.5V388.024H1230.79ZM1233.78 400L1233.8 397.912V390.136L1233.78 388.024H1235.82V392.08H1235.87C1236.92 388.936 1238.77 387.688 1240.5 387.688C1240.67 387.688 1240.88 387.712 1240.98 387.736V389.68C1240.81 389.656 1240.64 389.656 1240.5 389.656C1237.93 389.656 1236.11 393.112 1235.87 395.272V397.912L1235.89 400H1233.78ZM1244.09 391.024L1242.79 389.992C1243.68 388.768 1245.19 387.688 1247.79 387.688C1250.55 387.688 1252.8 388.912 1252.8 392.128V397.072C1252.8 398.464 1252.92 399.352 1253.02 400H1251.03C1250.88 399.256 1250.86 398.416 1250.81 397.72H1250.76C1250.19 398.776 1248.53 400.312 1246.15 400.312C1244.38 400.312 1242.34 399.472 1242.34 397.024C1242.34 392.704 1248.19 392.512 1250.81 392.488V392.104C1250.81 390.184 1249.68 389.32 1247.67 389.32C1246.03 389.32 1245.12 389.896 1244.09 391.024ZM1246.51 398.68C1248.24 398.68 1250.76 397.504 1250.81 393.928C1247.88 393.976 1244.5 394.576 1244.5 396.928C1244.5 397.984 1245.17 398.68 1246.51 398.68ZM1271.81 396.856L1273.03 398.056C1272.62 398.56 1270.77 400.336 1267.75 400.336C1264.2 400.336 1261.65 398.2 1261.65 394.288C1261.65 390.184 1264.2 387.688 1267.56 387.688C1271.78 387.688 1273.37 390.88 1273.2 394.384H1263.77C1263.79 396.904 1265.42 398.584 1267.92 398.584C1269.77 398.584 1271.35 397.384 1271.81 396.856ZM1267.63 389.392C1265.73 389.392 1264.29 390.4 1263.89 392.8H1270.97C1270.97 390.736 1269.62 389.392 1267.63 389.392ZM1282.44 388.024V389.68H1279.15V397.072C1279.15 398.128 1279.42 398.632 1280.55 398.632C1281.34 398.632 1282.08 398.392 1282.54 398.224V399.928C1282.06 400.096 1281.36 400.336 1280.21 400.336C1278.48 400.336 1277.09 399.784 1277.09 397.24V389.68H1274.83V388.024H1277.14L1277.43 384.616H1279.15V388.024H1282.44ZM1293.31 384.952V397.912L1293.34 400H1291.23L1291.25 397.912V384.952L1291.23 382.84H1293.34L1293.31 384.952ZM1306.68 396.856L1307.9 398.056C1307.5 398.56 1305.65 400.336 1302.62 400.336C1299.07 400.336 1296.53 398.2 1296.53 394.288C1296.53 390.184 1299.07 387.688 1302.43 387.688C1306.66 387.688 1308.24 390.88 1308.07 394.384H1298.64C1298.66 396.904 1300.3 398.584 1302.79 398.584C1304.64 398.584 1306.22 397.384 1306.68 396.856ZM1302.5 389.392C1300.61 389.392 1299.17 390.4 1298.76 392.8H1305.84C1305.84 390.736 1304.5 389.392 1302.5 389.392ZM1319.81 396.376L1321.46 397.192C1321.22 397.768 1319.64 400.336 1316.33 400.336C1313.38 400.336 1310.5 398.296 1310.5 394.12C1310.5 390.424 1312.78 387.688 1316.38 387.688C1320.02 387.688 1321.2 390.496 1321.32 390.712L1319.52 391.552C1319.21 390.808 1318.15 389.416 1316.28 389.416C1314.26 389.416 1312.66 391.048 1312.66 393.952C1312.66 396.856 1314.26 398.584 1316.35 398.584C1318.34 398.584 1319.52 397 1319.81 396.376ZM1330.51 388.024V389.68H1327.22V397.072C1327.22 398.128 1327.49 398.632 1328.62 398.632C1329.41 398.632 1330.15 398.392 1330.61 398.224V399.928C1330.13 400.096 1329.43 400.336 1328.28 400.336C1326.55 400.336 1325.16 399.784 1325.16 397.24V389.68H1322.9V388.024H1325.21L1325.5 384.616H1327.22V388.024H1330.51ZM1333.36 388.024H1335.47L1335.45 390.112V395.296C1335.45 397.456 1336.22 398.536 1337.87 398.536C1339.58 398.536 1341.16 397.408 1342.07 395.824V390.112L1342.05 388.024H1344.16L1344.14 390.112V397.888L1344.16 400H1342.12V397.936H1342.07C1341.19 399.16 1339.79 400.336 1337.59 400.336C1334.99 400.336 1333.39 398.656 1333.39 395.488V390.112L1333.36 388.024ZM1347.05 398.104L1348.28 396.856C1349.07 397.504 1350.32 398.728 1352.65 398.728C1354.13 398.728 1355.79 398.152 1355.79 396.688C1355.79 395.128 1353.89 395.008 1352.33 394.792C1350.25 394.504 1347.49 394.072 1347.49 391.408C1347.49 389.392 1349.09 387.64 1352.17 387.64C1354.81 387.64 1356.65 388.984 1357.35 389.752L1356.13 391.024C1355.48 390.4 1354.18 389.296 1352.31 389.296C1350.94 389.296 1349.43 389.896 1349.43 391.192C1349.43 392.512 1351.01 392.68 1352.69 392.896C1354.69 393.136 1357.73 393.568 1357.73 396.496C1357.73 398.608 1356.1 400.384 1352.72 400.384C1349.67 400.384 1347.8 398.968 1347.05 398.104ZM1050.7 439.136L1050.73 437.024V431.912H1050.68C1050.03 433.16 1048.81 434.336 1046.62 434.336C1043.36 434.336 1041.22 431.624 1041.22 427.976C1041.22 423.944 1043.86 421.688 1046.7 421.688C1049.05 421.688 1050.2 423.176 1050.75 424.208H1050.8L1051.04 422.024H1052.82L1052.79 424.088V437.024L1052.82 439.136H1050.7ZM1046.96 423.416C1044.7 423.416 1043.38 425.168 1043.38 427.976C1043.38 430.712 1044.63 432.608 1046.94 432.608C1048.9 432.608 1050.78 431.24 1050.78 428.072V427.976C1050.78 425 1049.1 423.416 1046.96 423.416ZM1056.57 422.024H1058.68L1058.65 424.112V429.296C1058.65 431.456 1059.42 432.536 1061.08 432.536C1062.78 432.536 1064.37 431.408 1065.28 429.824V424.112L1065.25 422.024H1067.37L1067.34 424.112V431.888L1067.37 434H1065.33V431.936H1065.28C1064.39 433.16 1063 434.336 1060.79 434.336C1058.2 434.336 1056.59 432.656 1056.59 429.488V424.112L1056.57 422.024ZM1073.38 434H1071.26L1071.29 431.912V424.136L1071.26 422.024H1073.38L1073.35 424.136V431.912L1073.38 434ZM1073.35 419.504H1071.29V416.84H1073.35V419.504ZM1076.26 432.104L1077.48 430.856C1078.27 431.504 1079.52 432.728 1081.85 432.728C1083.34 432.728 1084.99 432.152 1084.99 430.688C1084.99 429.128 1083.1 429.008 1081.54 428.792C1079.45 428.504 1076.69 428.072 1076.69 425.408C1076.69 423.392 1078.3 421.64 1081.37 421.64C1084.01 421.64 1085.86 422.984 1086.55 423.752L1085.33 425.024C1084.68 424.4 1083.38 423.296 1081.51 423.296C1080.14 423.296 1078.63 423.896 1078.63 425.192C1078.63 426.512 1080.22 426.68 1081.9 426.896C1083.89 427.136 1086.94 427.568 1086.94 430.496C1086.94 432.608 1085.3 434.384 1081.92 434.384C1078.87 434.384 1077 432.968 1076.26 432.104ZM1098.7 439.136L1098.73 437.024V431.912H1098.68C1098.03 433.16 1096.81 434.336 1094.62 434.336C1091.36 434.336 1089.22 431.624 1089.22 427.976C1089.22 423.944 1091.86 421.688 1094.7 421.688C1097.05 421.688 1098.2 423.176 1098.75 424.208H1098.8L1099.04 422.024H1100.82L1100.79 424.088V437.024L1100.82 439.136H1098.7ZM1094.96 423.416C1092.7 423.416 1091.38 425.168 1091.38 427.976C1091.38 430.712 1092.63 432.608 1094.94 432.608C1096.9 432.608 1098.78 431.24 1098.78 428.072V427.976C1098.78 425 1097.1 423.416 1094.96 423.416ZM1104.57 422.024H1106.68L1106.65 424.112V429.296C1106.65 431.456 1107.42 432.536 1109.08 432.536C1110.78 432.536 1112.37 431.408 1113.28 429.824V424.112L1113.25 422.024H1115.37L1115.34 424.112V431.888L1115.37 434H1113.33V431.936H1113.28C1112.39 433.16 1111 434.336 1108.79 434.336C1106.2 434.336 1104.59 432.656 1104.59 429.488V424.112L1104.57 422.024ZM1128.7 430.856L1129.92 432.056C1129.51 432.56 1127.66 434.336 1124.64 434.336C1121.09 434.336 1118.54 432.2 1118.54 428.288C1118.54 424.184 1121.09 421.688 1124.45 421.688C1128.67 421.688 1130.26 424.88 1130.09 428.384H1120.66C1120.68 430.904 1122.31 432.584 1124.81 432.584C1126.66 432.584 1128.24 431.384 1128.7 430.856ZM1124.52 423.392C1122.62 423.392 1121.18 424.4 1120.78 426.8H1127.86C1127.86 424.736 1126.51 423.392 1124.52 423.392ZM1141.8 434L1137.12 422.024H1139.37L1143.09 432.608H1143.14L1146.79 422.024H1148.92L1144.36 434H1141.8ZM1153.6 434H1151.49L1151.51 431.912V424.136L1151.49 422.024H1153.6L1153.58 424.136V431.912L1153.6 434ZM1153.58 419.504H1151.51V416.84H1153.58V419.504ZM1160.8 434L1156.12 422.024H1158.38L1162.1 432.608H1162.15L1165.79 422.024H1167.93L1163.37 434H1160.8ZM1170.99 425.024L1169.69 423.992C1170.58 422.768 1172.09 421.688 1174.68 421.688C1177.44 421.688 1179.7 422.912 1179.7 426.128V431.072C1179.7 432.464 1179.82 433.352 1179.92 434H1177.92C1177.78 433.256 1177.76 432.416 1177.71 431.72H1177.66C1177.08 432.776 1175.43 434.312 1173.05 434.312C1171.28 434.312 1169.24 433.472 1169.24 431.024C1169.24 426.704 1175.09 426.512 1177.71 426.488V426.104C1177.71 424.184 1176.58 423.32 1174.56 423.32C1172.93 423.32 1172.02 423.896 1170.99 425.024ZM1173.41 432.68C1175.14 432.68 1177.66 431.504 1177.71 427.928C1174.78 427.976 1171.4 428.576 1171.4 430.928C1171.4 431.984 1172.07 432.68 1173.41 432.68ZM1193.71 434H1191.59L1191.62 431.912V426.728C1191.62 424.544 1190.85 423.488 1189.15 423.488C1187.71 423.488 1186.39 424.592 1185.59 426.152V431.912L1185.62 434H1183.51L1183.53 431.912V424.136L1183.51 422.024H1185.55V423.968H1185.59C1186.36 422.816 1187.59 421.688 1189.48 421.688C1191.14 421.688 1192.65 422.336 1193.35 424.256H1193.39C1194.14 423.032 1195.43 421.688 1197.57 421.688C1200.16 421.688 1201.77 423.368 1201.77 426.536V431.912L1201.79 434H1199.68L1199.71 431.912V426.728C1199.71 424.544 1198.94 423.488 1197.23 423.488C1195.79 423.488 1194.47 424.592 1193.68 426.152V431.912L1193.71 434ZM1205.42 422.024H1207.53L1207.51 424.112V429.296C1207.51 431.456 1208.27 432.536 1209.93 432.536C1211.63 432.536 1213.22 431.408 1214.13 429.824V424.112L1214.11 422.024H1216.22L1216.19 424.112V431.888L1216.22 434H1214.18V431.936H1214.13C1213.24 433.16 1211.85 434.336 1209.64 434.336C1207.05 434.336 1205.44 432.656 1205.44 429.488V424.112L1205.42 422.024ZM1219.11 432.104L1220.33 430.856C1221.12 431.504 1222.37 432.728 1224.7 432.728C1226.19 432.728 1227.84 432.152 1227.84 430.688C1227.84 429.128 1225.95 429.008 1224.39 428.792C1222.3 428.504 1219.54 428.072 1219.54 425.408C1219.54 423.392 1221.15 421.64 1224.22 421.64C1226.86 421.64 1228.71 422.984 1229.4 423.752L1228.18 425.024C1227.53 424.4 1226.24 423.296 1224.36 423.296C1223 423.296 1221.48 423.896 1221.48 425.192C1221.48 426.512 1223.07 426.68 1224.75 426.896C1226.74 427.136 1229.79 427.568 1229.79 430.496C1229.79 432.608 1228.16 434.384 1224.77 434.384C1221.72 434.384 1219.85 432.968 1219.11 432.104ZM1247.99 430.856L1249.22 432.056C1248.81 432.56 1246.96 434.336 1243.94 434.336C1240.39 434.336 1237.84 432.2 1237.84 428.288C1237.84 424.184 1240.39 421.688 1243.75 421.688C1247.97 421.688 1249.55 424.88 1249.39 428.384H1239.95C1239.98 430.904 1241.61 432.584 1244.11 432.584C1245.95 432.584 1247.54 431.384 1247.99 430.856ZM1243.82 423.392C1241.92 423.392 1240.48 424.4 1240.07 426.8H1247.15C1247.15 424.736 1245.81 423.392 1243.82 423.392ZM1254.67 418.952V431.912L1254.69 434H1252.58L1252.6 431.912V418.952L1252.58 416.84H1254.69L1254.67 418.952ZM1260.71 434H1258.6L1258.62 431.912V424.136L1258.6 422.024H1260.71L1260.69 424.136V431.912L1260.71 434ZM1260.69 419.504H1258.62V416.84H1260.69V419.504ZM1270.86 422.024V423.68H1267.58V431.072C1267.58 432.128 1267.84 432.632 1268.97 432.632C1269.76 432.632 1270.5 432.392 1270.96 432.224V433.928C1270.48 434.096 1269.78 434.336 1268.63 434.336C1266.9 434.336 1265.51 433.784 1265.51 431.24V423.68H1263.26V422.024H1265.56L1265.85 418.616H1267.58V422.024H1270.86ZM1273.67 434V431.336H1276.47V434H1273.67Z" fill="#191326"/>
<path d="M1002 188C1002 178.059 1010.06 170 1020 170H1400C1409.94 170 1418 178.059 1418 188V480H1002V188Z" stroke="url(#paint2_linear_661_6863)" stroke-width="4"/>
<defs>
<linearGradient id="paint0_linear_661_6863" x1="290" y1="168" x2="290" y2="482" gradientUnits="userSpaceOnUse">
<stop stop-color="#FF6D00"/>
<stop offset="0.932292" stop-color="#6300C7" stop-opacity="0"/>
</linearGradient>
<linearGradient id="paint1_linear_661_6863" x1="750" y1="168" x2="750" y2="482" gradientUnits="userSpaceOnUse">
<stop stop-color="#FF2100"/>
<stop offset="0.901042" stop-color="#6300C7" stop-opacity="0"/>
</linearGradient>
<linearGradient id="paint2_linear_661_6863" x1="1210" y1="168" x2="1210" y2="482" gradientUnits="userSpaceOnUse">
<stop stop-color="#9D3AFF"/>
<stop offset="0.942708" stop-color="#6300C7" stop-opacity="0"/>
</linearGradient>
</defs>
</svg>
