<svg width="1620" height="854" viewBox="0 0 1620 854" fill="none" xmlns="http://www.w3.org/2000/svg">
<g clip-path="url(#clip0_65_14)">
<rect width="1620" height="854" fill="#2A0080"/>
<rect width="1620" height="254" transform="translate(0 600)" fill="url(#paint0_linear_65_14)"/>
<rect x="60" y="660" width="876" height="74" rx="20" fill="white"/>
<path d="M116.392 706L116.224 701.848H116.152C115.048 704.68 112.6 706.288 109.528 706.288C103.936 706.288 101.032 702.664 101.032 697.456C101.032 691.888 104.728 688.192 110.416 688.192C114.808 688.192 117.928 690.496 119.056 694.12L115.648 695.008C114.976 692.92 113.296 691.312 110.392 691.312C106.936 691.312 104.752 693.64 104.752 697.408C104.752 701.08 106.84 703.192 110.08 703.192C112.744 703.192 115.168 701.776 115.696 699.256H110.512V696.52H119.416V706H116.392ZM135.803 701.968C134.723 704.992 132.035 706.288 128.939 706.288C124.715 706.288 122.123 703.672 122.123 699.784C122.123 695.728 124.835 692.92 129.035 692.92C133.115 692.92 135.827 695.44 135.827 700.216H125.675C125.843 702.208 126.803 703.624 129.155 703.624C130.907 703.624 132.395 702.832 132.875 701.056L135.803 701.968ZM125.795 698.08H132.131C131.747 696.328 130.643 695.512 129.035 695.512C127.403 695.512 126.203 696.304 125.795 698.08ZM136.942 693.208H139.366L140.974 689.488H142.582V693.208H146.398V695.776H142.582V701.536C142.582 703.144 143.062 703.6 144.526 703.6C145.15 703.6 145.798 703.504 146.518 703.384V705.904C145.39 706.12 144.598 706.24 143.11 706.24C140.014 706.24 138.982 705.04 138.982 702.928V695.776H136.942V693.208ZM158.852 706.288C156.068 706.288 154.676 704.512 154.676 702.856C154.676 701.008 155.9 699.904 158.108 699.304L163.916 697.744V697.576C163.916 696.088 163.028 695.416 161.444 695.416C159.836 695.416 158.588 696.256 157.844 698.32L154.94 697.24C156.092 694.144 158.516 692.944 161.588 692.944C165.428 692.944 167.468 694.888 167.468 697.504V701.992C167.468 702.928 167.78 703.432 168.572 703.432C168.932 703.432 169.436 703.312 169.772 703.12V705.736C169.172 706 168.044 706.24 167.204 706.24C165.404 706.24 164.012 705.256 164.012 703.36V703.096H163.916C163.004 705.016 161.228 706.288 158.852 706.288ZM158.204 702.328C158.204 702.928 158.708 703.576 159.884 703.576C161.324 703.576 163.292 702.52 163.916 700.888V699.64L159.74 701.08C158.828 701.392 158.204 701.632 158.204 702.328ZM176.565 706.288C173.349 706.288 170.685 703.816 170.685 699.64C170.685 695.56 173.133 692.92 176.637 692.92C178.917 692.92 180.597 694.096 181.341 695.872H181.413V688.48H185.013V706H181.413V703.216H181.341C180.549 705.112 178.917 706.288 176.565 706.288ZM174.381 699.64C174.381 701.992 175.773 703.624 177.837 703.624C179.949 703.624 181.437 701.92 181.437 699.928V699.28C181.437 697.216 179.949 695.584 177.837 695.584C175.773 695.584 174.381 697.216 174.381 699.64ZM197.448 693.208H201.024L195.816 706H191.76L186.696 693.208H190.416L193.8 702.736H193.944L197.448 693.208ZM208.705 706.288C204.361 706.288 201.529 703.648 201.529 699.616C201.529 695.584 204.361 692.92 208.705 692.92C213.049 692.92 215.881 695.584 215.881 699.616C215.881 703.648 213.049 706.288 208.705 706.288ZM205.225 699.616C205.225 702.04 206.497 703.648 208.705 703.648C210.913 703.648 212.185 702.04 212.185 699.616C212.185 697.192 210.913 695.56 208.705 695.56C206.497 695.56 205.225 697.192 205.225 699.616ZM231.789 700.528C231.237 704.104 228.765 706.288 224.589 706.288C220.389 706.288 217.701 703.648 217.701 699.784C217.701 695.536 220.893 692.92 224.757 692.92C228.261 692.92 230.781 694.672 231.405 697.936L228.453 698.704C228.021 696.904 226.893 695.584 224.829 695.584C222.861 695.584 221.397 696.856 221.397 699.64C221.397 702.352 222.717 703.624 224.877 703.624C227.205 703.624 228.333 702.112 228.621 700.096L231.789 700.528ZM237.508 706.288C234.724 706.288 233.332 704.512 233.332 702.856C233.332 701.008 234.556 699.904 236.764 699.304L242.572 697.744V697.576C242.572 696.088 241.684 695.416 240.1 695.416C238.492 695.416 237.244 696.256 236.5 698.32L233.596 697.24C234.748 694.144 237.172 692.944 240.244 692.944C244.084 692.944 246.124 694.888 246.124 697.504V701.992C246.124 702.928 246.436 703.432 247.228 703.432C247.588 703.432 248.092 703.312 248.428 703.12V705.736C247.828 706 246.7 706.24 245.86 706.24C244.06 706.24 242.668 705.256 242.668 703.36V703.096H242.572C241.66 705.016 239.884 706.288 237.508 706.288ZM236.86 702.328C236.86 702.928 237.364 703.576 238.54 703.576C239.98 703.576 241.948 702.52 242.572 700.888V699.64L238.396 701.08C237.484 701.392 236.86 701.632 236.86 702.328ZM263.43 700.528C262.878 704.104 260.406 706.288 256.23 706.288C252.03 706.288 249.342 703.648 249.342 699.784C249.342 695.536 252.534 692.92 256.398 692.92C259.902 692.92 262.422 694.672 263.046 697.936L260.094 698.704C259.662 696.904 258.534 695.584 256.47 695.584C254.502 695.584 253.038 696.856 253.038 699.64C253.038 702.352 254.358 703.624 256.518 703.624C258.846 703.624 259.974 702.112 260.262 700.096L263.43 700.528ZM274.652 693.208H278.396L272.732 707.32C271.7 709.912 270.02 711.04 267.092 711.04C265.988 711.04 264.98 710.872 264.332 710.632V708.16C265.292 708.448 266.06 708.544 266.9 708.544C267.764 708.544 268.268 708.4 268.628 708.112C268.988 707.824 269.132 707.416 269.132 706.888C269.132 706.216 268.868 705.352 268.46 704.368L263.828 693.208H267.668L271.196 702.88H271.316L274.652 693.208ZM296.317 696.28C296.005 696.208 295.597 696.136 295.165 696.136C292.213 696.136 290.389 698.584 290.389 701.848V706H286.789V693.208H290.293V697.672H290.341C290.893 695.248 291.613 694.096 293.245 693.4C293.749 693.184 294.445 693.064 295.117 693.064C295.549 693.064 295.957 693.112 296.317 693.208V696.28ZM310.764 701.968C309.684 704.992 306.996 706.288 303.9 706.288C299.676 706.288 297.084 703.672 297.084 699.784C297.084 695.728 299.796 692.92 303.996 692.92C308.076 692.92 310.788 695.44 310.788 700.216H300.636C300.804 702.208 301.764 703.624 304.116 703.624C305.868 703.624 307.356 702.832 307.836 701.056L310.764 701.968ZM300.756 698.08H307.092C306.708 696.328 305.604 695.512 303.996 695.512C302.364 695.512 301.164 696.304 300.756 698.08ZM314.759 701.416C315.527 703.024 317.111 703.768 319.007 703.768C320.735 703.768 321.935 703.144 321.935 702.16C321.935 701.416 321.239 701.08 319.895 700.96C318.959 700.888 318.167 700.864 317.231 700.768C315.647 700.624 312.983 700 312.983 697.168C312.983 694.528 315.479 692.92 318.767 692.92C321.047 692.92 323.303 693.64 324.743 695.464L322.631 697.24C321.647 696.016 320.303 695.416 318.887 695.416C317.399 695.416 316.343 695.944 316.343 696.784C316.343 697.432 316.727 697.768 318.023 697.888C318.743 697.96 319.751 697.984 320.519 698.056C322.511 698.224 325.247 698.92 325.247 701.848C325.247 704.656 322.655 706.288 318.959 706.288C315.503 706.288 313.271 704.992 312.167 702.448L314.759 701.416ZM334.026 706.288C329.682 706.288 326.85 703.648 326.85 699.616C326.85 695.584 329.682 692.92 334.026 692.92C338.37 692.92 341.202 695.584 341.202 699.616C341.202 703.648 338.37 706.288 334.026 706.288ZM330.546 699.616C330.546 702.04 331.818 703.648 334.026 703.648C336.234 703.648 337.506 702.04 337.506 699.616C337.506 697.192 336.234 695.56 334.026 695.56C331.818 695.56 330.546 697.192 330.546 699.616ZM356.605 706H353.101V703.048H353.005C352.261 705.208 350.605 706.288 348.277 706.288C345.277 706.288 343.597 704.488 343.597 701.176V693.208H347.197V700.696C347.197 702.448 348.085 703.384 349.789 703.384C351.685 703.384 353.005 702.208 353.005 700.048V693.208H356.605V706ZM369.442 696.28C369.13 696.208 368.722 696.136 368.29 696.136C365.338 696.136 363.514 698.584 363.514 701.848V706H359.914V693.208H363.418V697.672H363.466C364.018 695.248 364.738 694.096 366.37 693.4C366.874 693.184 367.57 693.064 368.242 693.064C368.674 693.064 369.082 693.112 369.442 693.208V696.28ZM384.297 700.528C383.745 704.104 381.273 706.288 377.097 706.288C372.897 706.288 370.209 703.648 370.209 699.784C370.209 695.536 373.401 692.92 377.265 692.92C380.769 692.92 383.289 694.672 383.913 697.936L380.961 698.704C380.529 696.904 379.401 695.584 377.337 695.584C375.369 695.584 373.905 696.856 373.905 699.64C373.905 702.352 375.225 703.624 377.385 703.624C379.713 703.624 380.841 702.112 381.129 700.096L384.297 700.528ZM399.592 701.968C398.512 704.992 395.824 706.288 392.728 706.288C388.504 706.288 385.912 703.672 385.912 699.784C385.912 695.728 388.624 692.92 392.824 692.92C396.904 692.92 399.616 695.44 399.616 700.216H389.464C389.632 702.208 390.592 703.624 392.944 703.624C394.696 703.624 396.184 702.832 396.664 701.056L399.592 701.968ZM389.584 698.08H395.92C395.536 696.328 394.432 695.512 392.824 695.512C391.192 695.512 389.992 696.304 389.584 698.08ZM403.587 701.416C404.355 703.024 405.939 703.768 407.835 703.768C409.563 703.768 410.763 703.144 410.763 702.16C410.763 701.416 410.067 701.08 408.723 700.96C407.787 700.888 406.995 700.864 406.059 700.768C404.475 700.624 401.811 700 401.811 697.168C401.811 694.528 404.307 692.92 407.595 692.92C409.875 692.92 412.131 693.64 413.571 695.464L411.459 697.24C410.475 696.016 409.131 695.416 407.715 695.416C406.227 695.416 405.171 695.944 405.171 696.784C405.171 697.432 405.555 697.768 406.851 697.888C407.571 697.96 408.579 697.984 409.347 698.056C411.339 698.224 414.075 698.92 414.075 701.848C414.075 704.656 411.483 706.288 407.787 706.288C404.331 706.288 402.099 704.992 400.995 702.448L403.587 701.416ZM415.899 702.04H419.811V706.888C419.811 708.664 418.515 710.128 415.899 710.128V707.992C416.331 707.992 416.667 707.992 416.955 707.944C417.531 707.848 417.795 707.44 417.795 706.744V706H415.899V702.04ZM428.059 693.208H430.483L432.091 689.488H433.699V693.208H437.515V695.776H433.699V701.536C433.699 703.144 434.179 703.6 435.643 703.6C436.267 703.6 436.915 703.504 437.635 703.384V705.904C436.507 706.12 435.715 706.24 434.227 706.24C431.131 706.24 430.099 705.04 430.099 702.928V695.776H428.059V693.208ZM449.411 696.28C449.099 696.208 448.691 696.136 448.259 696.136C445.307 696.136 443.483 698.584 443.483 701.848V706H439.883V693.208H443.387V697.672H443.435C443.987 695.248 444.707 694.096 446.339 693.4C446.843 693.184 447.539 693.064 448.211 693.064C448.643 693.064 449.051 693.112 449.411 693.208V696.28ZM454.399 706.288C451.615 706.288 450.223 704.512 450.223 702.856C450.223 701.008 451.447 699.904 453.655 699.304L459.463 697.744V697.576C459.463 696.088 458.575 695.416 456.991 695.416C455.383 695.416 454.135 696.256 453.391 698.32L450.487 697.24C451.639 694.144 454.063 692.944 457.135 692.944C460.975 692.944 463.015 694.888 463.015 697.504V701.992C463.015 702.928 463.327 703.432 464.119 703.432C464.479 703.432 464.983 703.312 465.319 703.12V705.736C464.719 706 463.591 706.24 462.751 706.24C460.951 706.24 459.559 705.256 459.559 703.36V703.096H459.463C458.551 705.016 456.775 706.288 454.399 706.288ZM453.751 702.328C453.751 702.928 454.255 703.576 455.431 703.576C456.871 703.576 458.839 702.52 459.463 700.888V699.64L455.287 701.08C454.375 701.392 453.751 701.632 453.751 702.328ZM467.094 706V693.208H470.694V706H467.094ZM467.046 691.576V688.48H470.742V691.576H467.046ZM474.008 693.208H477.512V696.16H477.608C478.352 694 480.008 692.92 482.336 692.92C485.336 692.92 487.016 694.72 487.016 698.032V706H483.416V698.512C483.416 696.76 482.528 695.824 480.824 695.824C478.928 695.824 477.608 696.976 477.608 699.136V706H474.008V693.208ZM490.156 706V693.208H493.756V706H490.156ZM490.108 691.576V688.48H493.804V691.576H490.108ZM497.07 693.208H500.574V696.16H500.67C501.414 694 503.07 692.92 505.398 692.92C508.398 692.92 510.078 694.72 510.078 698.032V706H506.478V698.512C506.478 696.76 505.59 695.824 503.886 695.824C501.99 695.824 500.67 696.976 500.67 699.136V706H497.07V693.208ZM518.931 711.04C514.347 711.04 512.955 709.384 512.955 708.016C512.955 706.72 514.203 706.144 515.595 706V705.928C513.651 705.88 512.403 704.92 512.403 703.264C512.403 702.04 513.315 700.696 515.547 700.312V700.24C514.155 699.52 513.339 698.416 513.339 696.976C513.339 694.576 515.667 692.92 519.627 692.92C520.659 692.92 521.619 693.04 522.435 693.28L522.843 689.344H526.947V689.464L523.443 693.616C524.931 694.312 525.819 695.44 525.819 696.976C525.819 699.52 523.395 701.056 519.651 701.056C518.739 701.056 517.923 700.984 517.179 700.816C516.051 700.984 515.523 701.368 515.523 702.064C515.523 702.568 515.955 702.928 517.035 702.928H521.931C524.811 702.928 526.923 703.96 526.923 706.336C526.923 709.288 523.659 711.04 518.931 711.04ZM516.195 707.2C516.195 708.256 517.155 708.952 519.675 708.952C521.691 708.952 523.635 708.496 523.635 707.152C523.635 706.312 522.939 706.048 520.611 706.048H517.875C516.699 706.048 516.195 706.432 516.195 707.2ZM517.035 696.976C517.035 698.248 517.898 698.944 519.555 698.944C521.187 698.944 522.123 698.272 522.123 697C522.123 695.704 521.139 695.032 519.603 695.032C518.091 695.032 517.035 695.704 517.035 696.976ZM553.292 697.12C552.188 698.704 550.868 700.36 549.668 701.776C550.772 702.688 551.876 703.144 553.172 703.144C553.628 703.144 554.084 703.072 554.348 703V705.904C553.844 706.12 552.812 706.192 552.14 706.192C550.22 706.192 548.804 705.376 547.388 704.128C545.972 705.28 543.908 706.288 540.812 706.288C537.332 706.288 534.788 704.224 534.788 701.464C534.788 699.64 535.796 697.888 538.052 696.856L539.348 696.28C538.292 695.2 537.716 693.904 537.716 692.536C537.716 690.136 539.924 688.192 543.356 688.192C546.62 688.192 548.492 690.136 548.492 692.224C548.492 693.712 547.604 695.176 545.9 696.04L544.508 696.736L547.724 699.904C548.78 698.68 550.244 696.784 551.156 695.416L553.292 697.12ZM538.244 701.224C538.244 702.376 539.372 703.408 541.244 703.408C542.948 703.408 544.244 702.904 545.324 702.136L541.436 698.32L539.948 699.064C538.82 699.64 538.244 700.384 538.244 701.224ZM541.1 692.272C541.1 693.04 541.532 693.784 542.276 694.528L542.564 694.816L544.124 694.096C544.94 693.712 545.372 693.064 545.372 692.296C545.372 691.456 544.604 690.712 543.284 690.712C541.892 690.712 541.1 691.36 541.1 692.272ZM563.469 693.208H566.973V696.088H567.045C567.741 694.096 569.325 692.92 571.677 692.92C573.932 692.92 575.421 694.048 575.973 696.136H576.021C576.741 694.144 578.373 692.92 580.749 692.92C583.653 692.92 585.309 694.744 585.309 698.032V706H581.709V698.512C581.709 696.76 580.845 695.824 579.285 695.824C577.461 695.824 576.189 697 576.189 699.16V706H572.589V698.512C572.589 696.76 571.749 695.824 570.141 695.824C568.365 695.824 567.069 697 567.069 699.16V706H563.469V693.208ZM594.885 706.288C590.541 706.288 587.709 703.648 587.709 699.616C587.709 695.584 590.541 692.92 594.885 692.92C599.229 692.92 602.061 695.584 602.061 699.616C602.061 703.648 599.229 706.288 594.885 706.288ZM591.405 699.616C591.405 702.04 592.677 703.648 594.885 703.648C597.093 703.648 598.365 702.04 598.365 699.616C598.365 697.192 597.093 695.56 594.885 695.56C592.677 695.56 591.405 697.192 591.405 699.616ZM614.153 696.28C613.841 696.208 613.433 696.136 613.001 696.136C610.049 696.136 608.225 698.584 608.225 701.848V706H604.625V693.208H608.129V697.672H608.177C608.729 695.248 609.449 694.096 611.081 693.4C611.585 693.184 612.281 693.064 612.953 693.064C613.385 693.064 613.793 693.112 614.153 693.208V696.28ZM628.6 701.968C627.52 704.992 624.832 706.288 621.736 706.288C617.512 706.288 614.92 703.672 614.92 699.784C614.92 695.728 617.632 692.92 621.832 692.92C625.912 692.92 628.624 695.44 628.624 700.216H618.472C618.64 702.208 619.6 703.624 621.952 703.624C623.704 703.624 625.192 702.832 625.672 701.056L628.6 701.968ZM618.592 698.08H624.928C624.544 696.328 623.44 695.512 621.832 695.512C620.2 695.512 619 696.304 618.592 698.08Z" fill="#191326"/>
<path d="M670.45 703.036V700.588C670.9 700.678 671.26 700.714 671.638 700.714C673.096 700.714 673.42 700.048 673.42 698.14V691.822C673.42 691.48 673.402 690.454 673.402 690.13H676.534C676.534 690.454 676.516 691.498 676.516 691.822V699.418C676.516 702.424 674.554 703.324 672.376 703.324C671.746 703.324 670.882 703.216 670.45 703.036ZM683.422 703.306C680.344 703.306 678.364 701.038 678.364 698.41C678.364 695.746 680.344 693.496 683.422 693.496C686.5 693.496 688.462 695.746 688.462 698.41C688.462 701.038 686.5 703.306 683.422 703.306ZM683.422 701.38C684.61 701.38 685.438 700.48 685.438 698.41C685.438 696.322 684.61 695.422 683.422 695.422C682.216 695.422 681.388 696.322 681.388 698.41C681.388 700.48 682.216 701.38 683.422 701.38ZM693.122 703H690.188L690.206 701.326V695.458L690.188 693.784H693.122L693.104 695.458V701.326L693.122 703ZM693.104 692.632H690.206V690.13H693.104V692.632ZM704.537 703H701.603L701.621 701.326V697.348C701.621 696.232 701.189 695.692 700.361 695.692C699.551 695.692 698.741 696.214 698.219 696.988V701.326L698.237 703H695.303L695.321 701.326V695.458L695.303 693.784H698.111V695.206H698.147C699.011 694.144 700.163 693.514 701.549 693.514C703.367 693.514 704.519 694.54 704.519 696.736V701.326L704.537 703ZM716.534 693.784V695.746H714.32V700.138C714.32 700.876 714.536 701.182 715.328 701.182C715.742 701.182 716.264 701.056 716.588 700.966V702.91C716.156 703.144 715.436 703.306 714.518 703.306C712.394 703.306 711.422 702.568 711.422 700.354V695.746H709.892V693.784H711.512L711.8 690.904H714.32V693.784H716.534ZM721.141 691.804V695.062H721.177C722.023 694.09 723.139 693.514 724.471 693.514C726.289 693.514 727.441 694.54 727.441 696.736V701.326L727.459 703H724.525L724.543 701.326V697.348C724.543 696.232 724.111 695.692 723.283 695.692C722.473 695.692 721.663 696.214 721.141 696.988V701.326L721.159 703H718.225L718.243 701.326V691.804L718.225 690.13H721.159L721.141 691.804ZM736.456 700.246L738.652 701.02C738.148 701.866 736.798 703.306 734.116 703.306C731.2 703.306 729.13 701.596 729.13 698.554C729.13 695.404 731.236 693.496 733.972 693.496C737.5 693.496 738.868 696.214 738.796 698.896H731.866C731.938 700.642 732.874 701.38 734.188 701.38C735.304 701.38 736.114 700.732 736.456 700.246ZM733.99 695.314C732.91 695.314 732.172 695.926 731.938 697.33H735.898C735.898 696.196 735.268 695.314 733.99 695.314ZM753.695 698.536L756.485 699.202C756.125 700.696 754.433 703.342 750.689 703.342C747.269 703.342 744.425 701.11 744.425 696.7C744.425 692.596 746.981 689.788 750.797 689.788C754.163 689.788 755.783 691.93 756.377 693.946L753.497 694.45C753.155 693.316 752.327 692.056 750.725 692.056C749.051 692.056 747.773 693.55 747.773 696.574C747.773 700.102 749.357 701.074 750.797 701.074C752.399 701.074 753.425 699.85 753.695 698.536ZM762.524 703.306C759.446 703.306 757.466 701.038 757.466 698.41C757.466 695.746 759.446 693.496 762.524 693.496C765.602 693.496 767.564 695.746 767.564 698.41C767.564 701.038 765.602 703.306 762.524 703.306ZM762.524 701.38C763.712 701.38 764.54 700.48 764.54 698.41C764.54 696.322 763.712 695.422 762.524 695.422C761.318 695.422 760.49 696.322 760.49 698.41C760.49 700.48 761.318 701.38 762.524 701.38ZM772.205 691.804V701.326C772.205 701.344 772.223 703 772.223 703H769.289C769.289 703 769.307 701.344 769.307 701.326V691.804L769.289 690.13H772.223L772.205 691.804ZM777.356 691.804V701.326C777.356 701.344 777.374 703 777.374 703H774.44C774.44 703 774.458 701.344 774.458 701.326V691.804L774.44 690.13H777.374L777.356 691.804ZM781.804 696.412L779.446 695.8C780.148 694.144 781.786 693.496 783.892 693.496C786.34 693.496 788.14 694.378 788.14 696.97V701.038C788.14 701.83 788.23 702.532 788.302 703H785.62C785.548 702.604 785.512 702.226 785.476 701.884H785.44C784.828 702.604 783.91 703.27 782.254 703.27C780.238 703.27 778.996 702.226 778.996 700.624C778.996 698.086 782.146 697.258 785.368 697.258V696.862C785.368 695.818 784.828 695.278 783.712 695.278C782.776 695.278 782.308 695.656 781.804 696.412ZM783.226 701.434C784.18 701.434 785.368 700.732 785.368 699.31V698.662C783.82 698.68 781.966 699.094 781.966 700.336C781.966 701.02 782.434 701.434 783.226 701.434ZM792.366 703H790.278C790.278 702.838 790.296 701.506 790.296 701.344V691.804L790.278 690.13H793.212L793.194 691.804V694.756H793.23C794.004 693.874 794.922 693.514 796.002 693.514C798.396 693.514 800.016 695.296 800.016 698.374C800.016 701.686 798.126 703.27 795.768 703.27C793.932 703.27 793.032 702.316 792.654 701.74H792.618L792.366 703ZM795.102 701.38C796.524 701.38 796.992 700.12 796.992 698.41C796.992 696.556 796.452 695.422 795.102 695.422C794.094 695.422 793.464 696.07 793.194 696.844V699.328C793.194 700.606 793.986 701.38 795.102 701.38ZM806.328 703.306C803.25 703.306 801.27 701.038 801.27 698.41C801.27 695.746 803.25 693.496 806.328 693.496C809.406 693.496 811.368 695.746 811.368 698.41C811.368 701.038 809.406 703.306 806.328 703.306ZM806.328 701.38C807.516 701.38 808.344 700.48 808.344 698.41C808.344 696.322 807.516 695.422 806.328 695.422C805.122 695.422 804.294 696.322 804.294 698.41C804.294 700.48 805.122 701.38 806.328 701.38ZM813.094 703L813.112 701.326V695.458L813.094 693.784H815.74V696.124H815.776C816.46 694.306 817.648 693.514 818.854 693.514C819.016 693.514 819.142 693.532 819.25 693.55V696.16C819.034 696.106 818.8 696.07 818.584 696.07C817.108 696.07 816.154 697.618 816.01 699.13V701.326L816.028 703H813.094ZM822.708 696.412L820.35 695.8C821.052 694.144 822.69 693.496 824.796 693.496C827.244 693.496 829.044 694.378 829.044 696.97V701.038C829.044 701.83 829.134 702.532 829.206 703H826.524C826.452 702.604 826.416 702.226 826.38 701.884H826.344C825.732 702.604 824.814 703.27 823.158 703.27C821.142 703.27 819.9 702.226 819.9 700.624C819.9 698.086 823.05 697.258 826.272 697.258V696.862C826.272 695.818 825.732 695.278 824.616 695.278C823.68 695.278 823.212 695.656 822.708 696.412ZM824.13 701.434C825.084 701.434 826.272 700.732 826.272 699.31V698.662C824.724 698.68 822.87 699.094 822.87 700.336C822.87 701.02 823.338 701.434 824.13 701.434ZM837.014 693.784V695.746H834.8V700.138C834.8 700.876 835.016 701.182 835.808 701.182C836.222 701.182 836.744 701.056 837.068 700.966V702.91C836.636 703.144 835.916 703.306 834.998 703.306C832.874 703.306 831.902 702.568 831.902 700.354V695.746H830.372V693.784H831.992L832.28 690.904H834.8V693.784H837.014ZM841.639 703H838.705L838.723 701.326V695.458L838.705 693.784H841.639L841.621 695.458V701.326L841.639 703ZM841.621 692.632H838.723V690.13H841.621V692.632ZM846.341 703L842.921 693.784H845.927L847.979 699.85H848.015L849.995 693.784H852.461L849.113 703H846.341ZM860.312 700.246L862.508 701.02C862.004 701.866 860.654 703.306 857.972 703.306C855.056 703.306 852.986 701.596 852.986 698.554C852.986 695.404 855.092 693.496 857.828 693.496C861.356 693.496 862.724 696.214 862.652 698.896H855.722C855.794 700.642 856.73 701.38 858.044 701.38C859.16 701.38 859.97 700.732 860.312 700.246ZM857.846 695.314C856.766 695.314 856.028 695.926 855.794 697.33H859.754C859.754 696.196 859.124 695.314 857.846 695.314Z" fill="#6300C7"/>
<path d="M670 705.394H863.228V705.754H670V705.394Z" fill="#6300C7"/>
<path fill-rule="evenodd" clip-rule="evenodd" d="M888.034 688.68L895.749 696.394V697.606L888.034 705.32L886.822 704.108L893.073 697.857H872.857V696.143H893.073L886.822 689.892L888.034 688.68Z" fill="#6300C7"/>
<g opacity="0.3">
<path d="M262.941 952.941L1215.88 0.000192366" stroke="white"/>
<path d="M404.118 952.941L1357.06 0.000249825" stroke="white"/>
<path d="M545.294 952.941L1498.24 0.000192366" stroke="white"/>
<path d="M121.765 952.941L1074.71 0.000249825" stroke="white"/>
</g>
<g opacity="0.3">
<path d="M0 792.89L160.051 952.941" stroke="white"/>
<path d="M0 609.974L342.967 952.941" stroke="white"/>
<path d="M0 427.059L525.882 952.941" stroke="white"/>
</g>
<g opacity="0.3">
<path d="M1620 813.473L1480.53 952.941" stroke="white"/>
<path d="M1620 654.08L1321.14 952.941" stroke="white"/>
<path d="M1620 494.687L1161.75 952.941" stroke="white"/>
<path d="M1620 335.294L1002.35 952.941" stroke="white"/>
</g>
<ellipse opacity="0.3" cx="1408.24" cy="321.177" rx="211.765" ry="211.765" stroke="white"/>
<circle opacity="0.3" cx="141.176" cy="644.117" r="141.176" stroke="white"/>
</g>
<path d="M139.04 236.6L123.92 295H114.24L100.56 243.96H100.08L86.32 295H76.8L61.44 236.6H68.4L81.52 287.96H82.08L95.92 236.6H104.96L118.88 287.96H119.36L132.4 236.6H139.04ZM185.39 280.84C181.95 290.92 174.03 295.88 163.87 295.88C150.35 295.88 142.51 287 142.51 274.44C142.51 261.4 150.51 251.8 163.95 251.8C176.59 251.8 184.99 260.2 184.99 274.84H148.99C149.23 284.52 154.59 290.68 164.35 290.68C171.95 290.68 177.47 286.76 179.71 279.08L185.39 280.84ZM149.23 270.12H178.11C177.15 262.04 171.95 257 164.03 257C155.79 257 150.43 261.64 149.23 270.12ZM189.341 236.6H197.741V246.04C197.741 249.72 195.341 253.16 189.341 253.16V248.92C189.981 248.92 190.541 248.92 191.261 248.76C192.701 248.52 193.421 247.56 193.421 245.72V244.28H189.341V236.6ZM234.776 258.44C233.656 258.2 232.376 257.96 231.016 257.96C220.456 257.96 214.136 266.68 214.136 278.68V295H207.496V252.76H213.896V266.76H214.056C215.496 260.92 218.376 256.2 223.496 253.8C225.656 252.76 228.456 252.2 231.176 252.2C232.376 252.2 233.656 252.28 234.776 252.6V258.44ZM279.765 280.84C276.325 290.92 268.405 295.88 258.245 295.88C244.725 295.88 236.885 287 236.885 274.44C236.885 261.4 244.885 251.8 258.325 251.8C270.965 251.8 279.365 260.2 279.365 274.84H243.365C243.605 284.52 248.965 290.68 258.725 290.68C266.325 290.68 271.845 286.76 274.085 279.08L279.765 280.84ZM243.605 270.12H272.485C271.525 262.04 266.325 257 258.405 257C250.165 257 244.805 261.64 243.605 270.12ZM337.753 251.88C349.273 251.88 358.153 260.6 358.153 273.8C358.153 286.92 349.433 295.88 337.593 295.88C329.673 295.88 322.953 291.56 320.233 285.24H320.073V295H313.433V236.6H320.073V262.6H320.233C323.033 256.2 329.673 251.88 337.753 251.88ZM319.913 274.92C319.913 283.88 326.633 290.68 335.913 290.68C344.953 290.68 351.273 283.96 351.273 273.8C351.273 263.8 344.953 257 335.913 257C326.633 257 319.913 263.96 319.913 272.84V274.92ZM407.555 295H401.155V284.68H400.995C398.515 291.72 392.595 295.88 384.195 295.88C373.955 295.88 367.875 289.56 367.875 278.76V252.76H374.515V277.8C374.515 286.04 378.755 290.36 386.595 290.36C395.555 290.36 400.915 284.04 400.915 275.48V252.76H407.555V295ZM420.621 295V252.76H427.261V295H420.621ZM420.541 244.76V236.6H427.341V244.76H420.541ZM440.308 295V236.6H446.948V295H440.308ZM477.518 295.88C465.998 295.88 457.198 287.08 457.198 273.88C457.198 260.84 465.918 251.88 477.678 251.88C485.678 251.88 492.318 256.2 495.118 262.44H495.278V236.6H501.918V295H495.278V285.08H495.118C492.238 291.56 485.678 295.88 477.518 295.88ZM464.078 273.88C464.078 283.96 470.318 290.68 479.438 290.68C488.638 290.68 495.358 283.72 495.358 274.92V272.84C495.358 263.8 488.638 257 479.438 257C470.318 257 464.078 263.72 464.078 273.88ZM514.839 295V252.76H521.479V295H514.839ZM514.759 244.76V236.6H521.559V244.76H514.759ZM534.527 252.76H540.927V263.08H541.167C543.567 256.04 549.487 251.88 557.887 251.88C568.127 251.88 574.207 258.12 574.207 268.92V295H567.567V269.88C567.567 261.64 563.327 257.32 555.567 257.32C546.527 257.32 541.167 263.64 541.167 272.2V295H534.527V252.76ZM605.513 311.72C591.033 311.72 585.753 306.36 585.753 300.6C585.753 295.24 590.393 293.48 593.273 292.84V292.68C587.273 292.2 584.393 289 584.393 284.76C584.393 280.52 587.673 277 594.233 275.88V275.72C589.993 273.32 587.593 269.48 587.593 265.16C587.593 257.64 594.553 251.88 606.473 251.88C610.073 251.88 613.273 252.44 615.993 253.4L620.712 240.36H628.633V240.76L618.153 254.36C622.633 256.68 625.193 260.52 625.193 265.16C625.193 272.76 618.153 278.52 606.473 278.52C603.593 278.52 600.872 278.12 598.553 277.48C593.753 277.88 590.073 279.48 590.073 283.08C590.073 286.04 592.953 287.24 597.353 287.24H613.833C623.273 287.24 629.433 290.44 629.433 297.64C629.433 306.44 619.913 311.72 605.513 311.72ZM591.913 299.24C591.913 304.12 596.553 307.32 606.633 307.32C615.993 307.32 623.193 304.52 623.193 298.68C623.193 294.76 619.913 293 611.513 293H601.353C596.073 293 591.913 294.84 591.913 299.24ZM594.313 265.16C594.313 270.28 598.393 274.12 606.313 274.12C613.993 274.12 618.473 270.52 618.473 265.24C618.473 259.96 614.153 256.2 606.393 256.2C598.793 256.2 594.313 259.96 594.313 265.16ZM671.266 295.88C661.826 295.88 657.746 289.88 657.746 284.76C657.746 278.44 661.906 275.16 669.346 273.08L690.146 267.32V266.84C690.146 260.52 686.226 256.76 678.946 256.76C671.826 256.76 667.266 260.2 664.306 268.36L658.706 266.2C662.466 255.96 670.066 251.88 679.266 251.88C690.626 251.88 696.626 258.12 696.626 266.52V284.44C696.626 288.04 697.746 290.52 701.026 290.52C702.386 290.52 703.906 289.96 705.026 289.32V294.44C703.506 295.16 701.266 295.8 698.866 295.8C693.666 295.8 690.226 292.6 690.226 287.08V284.2C687.026 290.84 680.466 295.88 671.266 295.88ZM664.386 283.8C664.386 287.16 666.626 290.6 673.346 290.6C680.386 290.6 687.986 285.56 690.146 278.84V271.48L672.466 277.08C667.106 278.76 664.386 280.12 664.386 283.8ZM736.402 252.76H742.802V263.08H743.042C745.442 256.04 751.362 251.88 759.762 251.88C770.002 251.88 776.082 258.12 776.082 268.92V295H769.442V269.88C769.442 261.64 765.202 257.32 757.442 257.32C748.402 257.32 743.042 263.64 743.042 272.2V295H736.402V252.76ZM799.548 295.88C790.108 295.88 786.028 289.88 786.028 284.76C786.028 278.44 790.188 275.16 797.628 273.08L818.428 267.32V266.84C818.428 260.52 814.508 256.76 807.228 256.76C800.108 256.76 795.548 260.2 792.588 268.36L786.988 266.2C790.748 255.96 798.348 251.88 807.548 251.88C818.908 251.88 824.908 258.12 824.908 266.52V284.44C824.908 288.04 826.028 290.52 829.308 290.52C830.668 290.52 832.188 289.96 833.308 289.32V294.44C831.788 295.16 829.548 295.8 827.148 295.8C821.948 295.8 818.508 292.6 818.508 287.08V284.2C815.308 290.84 808.748 295.88 799.548 295.88ZM792.668 283.8C792.668 287.16 794.908 290.6 801.628 290.6C808.668 290.6 816.268 285.56 818.428 278.84V271.48L800.748 277.08C795.388 278.76 792.668 280.12 792.668 283.8ZM835.644 252.76H843.964L846.844 240.28H850.124V252.76H864.604V257.72H850.124V283.56C850.124 288.6 851.564 290.44 857.404 290.44C859.644 290.44 861.804 290.12 864.684 289.48V294.44C861.164 295.24 858.604 295.56 854.924 295.56C845.964 295.56 843.484 291.8 843.484 285.88V257.72H835.644V252.76ZM873.121 295V252.76H879.761V295H873.121ZM873.041 244.76V236.6H879.841V244.76H873.041ZM912.648 295.88C898.808 295.88 890.088 286.44 890.088 273.88C890.088 261.32 898.808 251.88 912.648 251.88C926.408 251.88 935.208 261.32 935.208 273.88C935.208 286.44 926.408 295.88 912.648 295.88ZM896.968 273.88C896.968 283.96 903.048 290.76 912.648 290.76C922.248 290.76 928.328 283.96 928.328 273.88C928.328 263.8 922.248 257 912.648 257C903.048 257 896.968 263.8 896.968 273.88ZM945.464 252.76H951.864V263.08H952.104C954.504 256.04 960.424 251.88 968.824 251.88C979.064 251.88 985.144 258.12 985.144 268.92V295H978.504V269.88C978.504 261.64 974.264 257.32 966.504 257.32C957.464 257.32 952.104 263.64 952.104 272.2V295H945.464V252.76ZM1052.61 252.68H1059.09L1045.65 295H1037.41L1025.73 259.88H1025.41L1013.41 295H1005.41L992.054 252.68H998.934L1009.65 288.2H1010.05L1022.05 252.68H1029.41L1041.33 288.2H1041.65L1052.61 252.68ZM1066.56 295V252.76H1073.2V295H1066.56ZM1066.48 244.76V236.6H1073.28V244.76H1066.48ZM1103.85 295.88C1092.33 295.88 1083.53 287.08 1083.53 273.88C1083.53 260.84 1092.25 251.88 1104.01 251.88C1112.01 251.88 1118.65 256.2 1121.45 262.44H1121.61V236.6H1128.25V295H1121.61V285.08H1121.45C1118.57 291.56 1112.01 295.88 1103.85 295.88ZM1090.41 273.88C1090.41 283.96 1096.65 290.68 1105.77 290.68C1114.97 290.68 1121.69 283.72 1121.69 274.92V272.84C1121.69 263.8 1114.97 257 1105.77 257C1096.65 257 1090.41 263.72 1090.41 273.88ZM1181.33 280.84C1177.89 290.92 1169.97 295.88 1159.81 295.88C1146.29 295.88 1138.45 287 1138.45 274.44C1138.45 261.4 1146.45 251.8 1159.89 251.8C1172.53 251.8 1180.93 260.2 1180.93 274.84H1144.93C1145.17 284.52 1150.53 290.68 1160.29 290.68C1167.89 290.68 1173.41 286.76 1175.65 279.08L1181.33 280.84ZM1145.17 270.12H1174.05C1173.09 262.04 1167.89 257 1159.97 257C1151.73 257 1146.37 261.64 1145.17 270.12ZM66.48 342.76H72.88L72.96 353.24C75.12 346.28 80.64 341.88 88.8 341.88C96.56 341.88 101.76 345.96 103.52 353.24H103.6C105.84 346.36 111.36 341.88 119.52 341.88C129.12 341.88 135.12 348.2 135.12 358.92V385H128.48V359.96C128.48 351.72 124.32 347.32 117.2 347.32C108.96 347.32 104.08 353.72 104.08 362.28V385H97.44V359.96C97.44 351.72 93.52 347.32 86.4 347.32C78.16 347.32 73.12 353.72 73.12 362.28V385H66.48V342.76ZM167.414 385.88C153.574 385.88 144.854 376.44 144.854 363.88C144.854 351.32 153.574 341.88 167.414 341.88C181.174 341.88 189.974 351.32 189.974 363.88C189.974 376.44 181.174 385.88 167.414 385.88ZM151.734 363.88C151.734 373.96 157.814 380.76 167.414 380.76C177.014 380.76 183.094 373.96 183.094 363.88C183.094 353.8 177.014 347 167.414 347C157.814 347 151.734 353.8 151.734 363.88ZM229.94 342.76H236.58L218.34 385H211.06L193.06 342.76H200.02L214.58 378.36H215.14L229.94 342.76ZM282.578 370.84C279.138 380.92 271.218 385.88 261.058 385.88C247.538 385.88 239.698 377 239.698 364.44C239.698 351.4 247.697 341.8 261.138 341.8C273.778 341.8 282.178 350.2 282.178 364.84H246.178C246.418 374.52 251.778 380.68 261.538 380.68C269.138 380.68 274.658 376.76 276.898 369.08L282.578 370.84ZM246.418 360.12H275.298C274.338 352.04 269.138 347 261.218 347C252.978 347 247.618 351.64 246.418 360.12ZM292.886 342.76H299.286L299.366 353.24C301.526 346.28 307.046 341.88 315.206 341.88C322.966 341.88 328.166 345.96 329.926 353.24H330.006C332.246 346.36 337.766 341.88 345.926 341.88C355.526 341.88 361.526 348.2 361.526 358.92V385H354.886V359.96C354.886 351.72 350.726 347.32 343.606 347.32C335.366 347.32 330.486 353.72 330.486 362.28V385H323.846V359.96C323.846 351.72 319.926 347.32 312.806 347.32C304.566 347.32 299.526 353.72 299.526 362.28V385H292.886V342.76ZM414.14 370.84C410.7 380.92 402.78 385.88 392.62 385.88C379.1 385.88 371.26 377 371.26 364.44C371.26 351.4 379.26 341.8 392.7 341.8C405.34 341.8 413.74 350.2 413.74 364.84H377.74C377.98 374.52 383.34 380.68 393.1 380.68C400.7 380.68 406.22 376.76 408.46 369.08L414.14 370.84ZM377.98 360.12H406.86C405.9 352.04 400.7 347 392.78 347C384.54 347 379.18 351.64 377.98 360.12ZM424.449 342.76H430.849V353.08H431.089C433.489 346.04 439.409 341.88 447.809 341.88C458.049 341.88 464.129 348.12 464.129 358.92V385H457.489V359.88C457.489 351.64 453.249 347.32 445.489 347.32C436.449 347.32 431.089 353.64 431.089 362.2V385H424.449V342.76ZM471.034 342.76H479.354L482.234 330.28H485.514V342.76H499.994V347.72H485.514V373.56C485.514 378.6 486.954 380.44 492.794 380.44C495.034 380.44 497.194 380.12 500.074 379.48V384.44C496.554 385.24 493.994 385.56 490.314 385.56C481.354 385.56 478.874 381.8 478.874 375.88V347.72H471.034V342.76ZM554.271 342.76V347.72H541.231V385H534.591V347.72H526.191V342.76H534.591V336.44C534.591 329.56 539.231 325.72 547.391 325.72C549.951 325.72 551.951 326.12 554.351 326.68V331.08C552.271 330.6 550.351 330.44 548.751 330.44C542.431 330.44 541.231 333.08 541.231 336.52V342.76H554.271ZM578.429 385.88C564.589 385.88 555.869 376.44 555.869 363.88C555.869 351.32 564.589 341.88 578.429 341.88C592.189 341.88 600.989 351.32 600.989 363.88C600.989 376.44 592.189 385.88 578.429 385.88ZM562.749 363.88C562.749 373.96 568.829 380.76 578.429 380.76C588.029 380.76 594.109 373.96 594.109 363.88C594.109 353.8 588.029 347 578.429 347C568.829 347 562.749 353.8 562.749 363.88ZM638.526 348.44C637.406 348.2 636.126 347.96 634.766 347.96C624.206 347.96 617.886 356.68 617.886 368.68V385H611.246V342.76H617.646V356.76H617.806C619.246 350.92 622.126 346.2 627.246 343.8C629.406 342.76 632.206 342.2 634.926 342.2C636.126 342.2 637.406 342.28 638.526 342.6V348.44ZM696.18 341.4C706.9 341.4 715.78 349.64 715.78 363.56C715.78 377.16 707.62 385.96 695.94 385.96C688.34 385.96 682.74 382.04 680.26 376.12H680.02V385H668.02V326.6H680.02V351.64H680.26C682.9 345.32 688.34 341.4 696.18 341.4ZM679.94 364.76C679.94 371.64 684.9 377.08 691.94 377.08C698.82 377.08 703.46 371.64 703.46 363.56C703.46 355.72 698.82 350.28 691.94 350.28C684.9 350.28 679.94 355.96 679.94 362.6V364.76ZM745.788 385.96C731.308 385.96 721.868 377.16 721.868 363.72C721.868 350.28 731.308 341.4 745.788 341.4C760.268 341.4 769.708 350.28 769.708 363.72C769.708 377.16 760.268 385.96 745.788 385.96ZM734.188 363.72C734.188 371.8 738.428 377.16 745.788 377.16C753.148 377.16 757.388 371.8 757.388 363.72C757.388 355.64 753.148 350.2 745.788 350.2C738.428 350.2 734.188 355.64 734.188 363.72ZM778.254 385V326.6H790.254V385H778.254ZM818.421 385.96C807.701 385.96 798.821 377.72 798.821 363.8C798.821 350.2 806.981 341.4 818.661 341.4C826.261 341.4 831.861 345.32 834.341 351.24H834.581V326.6H846.581V385H834.581V375.72H834.341C831.701 382.04 826.261 385.96 818.421 385.96ZM811.141 363.8C811.141 371.64 815.781 377.08 822.661 377.08C829.701 377.08 834.661 371.4 834.661 364.76V362.6C834.661 355.72 829.701 350.28 822.661 350.28C815.781 350.28 811.141 355.72 811.141 363.8ZM880.051 326.6H892.051V351.64H892.291C894.291 345.32 899.651 341.4 907.811 341.4C917.811 341.4 923.411 347.4 923.411 358.44V385H911.411V360.04C911.411 354.2 908.451 351.08 902.771 351.08C896.451 351.08 892.051 355 892.051 362.2V385H880.051V326.6ZM976.999 371.56C973.399 381.64 964.439 385.96 954.119 385.96C940.039 385.96 931.399 377.24 931.399 364.28C931.399 350.76 940.439 341.4 954.439 341.4C968.039 341.4 977.079 349.8 977.079 365.72H943.239C943.799 372.36 946.999 377.08 954.839 377.08C960.679 377.08 965.639 374.44 967.239 368.52L976.999 371.56ZM943.639 358.6H964.759C963.479 352.76 959.799 350.04 954.439 350.04C948.999 350.04 944.999 352.68 943.639 358.6ZM996.876 385.96C987.596 385.96 982.956 380.04 982.956 374.52C982.956 368.36 987.036 364.68 994.396 362.68L1013.76 357.48V356.92C1013.76 351.96 1010.8 349.72 1005.52 349.72C1000.16 349.72 995.996 352.52 993.516 359.4L983.836 355.8C987.676 345.48 995.756 341.48 1006 341.48C1018.8 341.48 1025.6 347.96 1025.6 356.68V371.64C1025.6 374.76 1026.64 376.44 1029.28 376.44C1030.48 376.44 1032.16 376.04 1033.28 375.4V384.12C1031.28 385 1027.52 385.8 1024.72 385.8C1018.72 385.8 1014.08 382.52 1014.08 376.2V375.32H1013.76C1010.72 381.72 1004.8 385.96 996.876 385.96ZM994.716 372.76C994.716 374.76 996.396 376.92 1000.32 376.92C1005.12 376.92 1011.68 373.4 1013.76 367.96V363.8L999.836 368.6C996.796 369.64 994.716 370.44 994.716 372.76ZM1039.19 385V326.6H1051.19V385H1039.19ZM1057.36 342.36H1065.44L1070.8 329.96H1076.16V342.36H1088.88V350.92H1076.16V370.12C1076.16 375.48 1077.76 377 1082.64 377C1084.72 377 1086.88 376.68 1089.28 376.28V384.68C1085.52 385.4 1082.88 385.8 1077.92 385.8C1067.6 385.8 1064.16 381.8 1064.16 374.76V350.92H1057.36V342.36ZM1096.77 326.6H1108.77V351.64H1109.01C1111.01 345.32 1116.37 341.4 1124.53 341.4C1134.53 341.4 1140.13 347.4 1140.13 358.44V385H1128.13V360.04C1128.13 354.2 1125.17 351.08 1119.49 351.08C1113.17 351.08 1108.77 355 1108.77 362.2V385H1096.77V326.6ZM1195.08 366.76C1193.24 378.68 1185 385.96 1171.08 385.96C1157.08 385.96 1148.12 377.16 1148.12 364.28C1148.12 350.12 1158.76 341.4 1171.64 341.4C1183.32 341.4 1191.72 347.24 1193.8 358.12L1183.96 360.68C1182.52 354.68 1178.76 350.28 1171.88 350.28C1165.32 350.28 1160.44 354.52 1160.44 363.8C1160.44 372.84 1164.84 377.08 1172.04 377.08C1179.8 377.08 1183.56 372.04 1184.52 365.32L1195.08 366.76ZM1214.14 385.96C1204.86 385.96 1200.22 380.04 1200.22 374.52C1200.22 368.36 1204.3 364.68 1211.66 362.68L1231.02 357.48V356.92C1231.02 351.96 1228.06 349.72 1222.78 349.72C1217.42 349.72 1213.26 352.52 1210.78 359.4L1201.1 355.8C1204.94 345.48 1213.02 341.48 1223.26 341.48C1236.06 341.48 1242.86 347.96 1242.86 356.68V371.64C1242.86 374.76 1243.9 376.44 1246.54 376.44C1247.74 376.44 1249.42 376.04 1250.54 375.4V384.12C1248.54 385 1244.78 385.8 1241.98 385.8C1235.98 385.8 1231.34 382.52 1231.34 376.2V375.32H1231.02C1227.98 381.72 1222.06 385.96 1214.14 385.96ZM1211.98 372.76C1211.98 374.76 1213.66 376.92 1217.58 376.92C1222.38 376.92 1228.94 373.4 1231.02 367.96V363.8L1217.1 368.6C1214.06 369.64 1211.98 370.44 1211.98 372.76ZM1288.22 352.6C1287.18 352.36 1285.82 352.12 1284.38 352.12C1274.54 352.12 1268.46 360.28 1268.46 371.16V385H1256.46V342.36H1268.14V357.24H1268.3C1270.14 349.16 1272.54 345.32 1277.98 343C1279.66 342.28 1281.98 341.88 1284.22 341.88C1285.66 341.88 1287.02 342.04 1288.22 342.36V352.6ZM1336.37 371.56C1332.77 381.64 1323.81 385.96 1313.49 385.96C1299.41 385.96 1290.77 377.24 1290.77 364.28C1290.77 350.76 1299.81 341.4 1313.81 341.4C1327.41 341.4 1336.45 349.8 1336.45 365.72H1302.61C1303.17 372.36 1306.37 377.08 1314.21 377.08C1320.05 377.08 1325.01 374.44 1326.61 368.52L1336.37 371.56ZM1303.01 358.6H1324.13C1322.85 352.76 1319.17 350.04 1313.81 350.04C1308.37 350.04 1304.37 352.68 1303.01 358.6ZM97.28 442.6C96.24 442.36 94.88 442.12 93.44 442.12C83.6 442.12 77.52 450.28 77.52 461.16V475H65.52V432.36H77.2V447.24H77.36C79.2 439.16 81.6 435.32 87.04 433C88.72 432.28 91.04 431.88 93.28 431.88C94.72 431.88 96.08 432.04 97.28 432.36V442.6ZM145.437 461.56C141.837 471.64 132.877 475.96 122.557 475.96C108.477 475.96 99.8369 467.24 99.8369 454.28C99.8369 440.76 108.877 431.4 122.877 431.4C136.477 431.4 145.517 439.8 145.517 455.72H111.677C112.237 462.36 115.437 467.08 123.277 467.08C129.117 467.08 134.077 464.44 135.677 458.52L145.437 461.56ZM112.077 448.6H133.197C131.917 442.76 128.237 440.04 122.877 440.04C117.437 440.04 113.437 442.68 112.077 448.6ZM178.927 432.36V440.92H167.327V475H155.327V440.92H148.687V432.36H155.327V427.72C155.327 420.68 160.847 415.64 170.527 415.64C173.807 415.64 176.527 416.12 179.087 416.76V423.72C177.407 423.48 175.487 423.32 173.887 423.32C167.647 423.32 167.327 426.44 167.327 428.6V432.36H178.927ZM204.616 475.96C190.136 475.96 180.696 467.16 180.696 453.72C180.696 440.28 190.136 431.4 204.616 431.4C219.096 431.4 228.536 440.28 228.536 453.72C228.536 467.16 219.096 475.96 204.616 475.96ZM193.016 453.72C193.016 461.8 197.256 467.16 204.616 467.16C211.976 467.16 216.216 461.8 216.216 453.72C216.216 445.64 211.976 440.2 204.616 440.2C197.256 440.2 193.016 445.64 193.016 453.72ZM268.843 442.6C267.803 442.36 266.443 442.12 265.003 442.12C255.163 442.12 249.083 450.28 249.083 461.16V475H237.083V432.36H248.763V447.24H248.923C250.763 439.16 253.163 435.32 258.603 433C260.283 432.28 262.603 431.88 264.843 431.88C266.283 431.88 267.643 432.04 268.843 432.36V442.6ZM275.129 432.36H286.809V441.96H287.049C289.369 435.32 294.649 431.4 302.489 431.4C310.009 431.4 314.969 435.16 316.809 442.12H316.969C319.369 435.48 324.809 431.4 332.729 431.4C342.409 431.4 347.929 437.48 347.929 448.44V475H335.929V450.04C335.929 444.2 333.049 441.08 327.849 441.08C321.769 441.08 317.529 445 317.529 452.2V475H305.529V450.04C305.529 444.2 302.729 441.08 297.369 441.08C291.449 441.08 287.129 445 287.129 452.2V475H275.129V432.36Z" fill="white"/>
<rect x="1399" y="325" width="161" height="60" rx="30" fill="white"/>
<path d="M1437.22 361H1428.31L1428.33 359.308V349.822L1428.31 348.13H1431.45L1431.43 349.822V358.678H1437.22V361ZM1446.18 361.342C1442.19 361.342 1439.76 358.282 1439.76 354.556C1439.76 350.848 1442.19 347.788 1446.18 347.788C1450.16 347.788 1452.63 350.848 1452.63 354.556C1452.63 358.282 1450.16 361.342 1446.18 361.342ZM1446.18 359.074C1447.95 359.074 1449.17 357.688 1449.17 354.556C1449.17 351.442 1447.95 350.056 1446.18 350.056C1444.42 350.056 1443.19 351.442 1443.19 354.556C1443.19 357.688 1444.42 359.074 1446.18 359.074ZM1468.14 355.906V361H1466.29L1466.15 359.416H1466.11C1465.37 360.532 1464.2 361.342 1462.17 361.342C1458.73 361.342 1456.05 359.074 1456.05 354.664C1456.05 350.452 1458.64 347.788 1462.46 347.788C1465.19 347.788 1467.28 349.138 1468.02 351.676L1465.16 352.288C1464.85 351.208 1463.95 350.056 1462.42 350.056C1460.76 350.056 1459.36 351.406 1459.36 354.61C1459.36 357.904 1460.93 359.092 1462.47 359.092C1464.06 359.092 1465.25 357.994 1465.28 356.284H1462.49V354.214H1468.16L1468.14 355.906ZM1481.84 361H1478.71L1478.73 359.308V349.822L1478.71 348.13H1481.84L1481.83 349.822V359.308L1481.84 361ZM1495.04 349.822L1495.02 348.13H1497.76L1497.74 349.822V359.308L1497.76 361H1495.37L1489.39 352.918H1489.35L1489.39 354.052V359.308L1489.41 361H1486.67L1486.69 359.308V349.822L1486.67 348.13H1489.44L1495.04 355.672H1495.08L1495.04 354.538V349.822Z" fill="#6300C7"/>
<path fill-rule="evenodd" clip-rule="evenodd" d="M1524.03 346.68L1531.75 354.394V355.606L1524.03 363.32L1522.82 362.108L1529.07 355.857H1508.86V354.143H1529.07L1522.82 347.892L1524.03 346.68Z" fill="#6300C7"/>
<defs>
<linearGradient id="paint0_linear_65_14" x1="9.80682e-06" y1="127" x2="1620" y2="127" gradientUnits="userSpaceOnUse">
<stop offset="0.0677083" stop-color="#FF6D00"/>
<stop offset="0.5" stop-color="#FF2100"/>
<stop offset="0.942708" stop-color="#6300C7"/>
</linearGradient>
<clipPath id="clip0_65_14">
<rect width="1620" height="854" fill="white"/>
</clipPath>
</defs>
</svg>
