<svg width="1540" height="380" viewBox="0 0 1540 380" fill="none" xmlns="http://www.w3.org/2000/svg">
<path d="M13.6569 366.343L366.343 13.6568C371.383 8.6171 367.814 -3.1583e-05 360.686 -3.2206e-05L20 -6.19898e-05C8.95435 -6.29554e-05 3.24378e-05 8.95425 3.14722e-05 19.9999L1.68846e-06 360.686C1.06538e-06 367.813 8.61716 371.383 13.6569 366.343Z" fill="url(#paint0_linear_510_13878)"/>
<g clip-path="url(#clip0_510_13878)">
<rect x="40" y="40" width="1500" height="328" rx="20" fill="url(#paint1_linear_510_13878)"/>
<g opacity="0.3">
<path d="M283.464 645.353L1165.82 -237" stroke="white"/>
<path d="M414.183 645.353L1296.54 -237" stroke="white"/>
<path d="M544.902 645.353L1427.25 -237" stroke="white"/>
<path d="M152.745 645.353L1035.1 -237" stroke="white"/>
</g>
<g opacity="0.3">
<path d="M40 327.791L357.562 645.353" stroke="white"/>
<path d="M40 158.425L526.928 645.353" stroke="white"/>
</g>
<g opacity="0.3">
<path d="M1540 221.043L1115.69 645.353" stroke="white"/>
<path d="M1540 73.4575L968.105 645.353" stroke="white"/>
</g>
<circle opacity="0.3" cx="1343.92" cy="60.3856" r="196.078" stroke="white"/>
<circle opacity="0.3" cx="170.719" cy="359.405" r="130.719" stroke="white"/>
<path d="M134.26 158C132.82 156.44 132.28 151.94 131.86 148.34C131.32 143.54 129.94 141.98 125.2 141.98H113.8V158H104.8V114.2H128.38C137.92 114.2 142.78 118.94 142.78 126.8C142.78 135.56 136.84 137.84 132.34 138.14V138.32C136.48 138.68 139.78 140.3 140.92 146.84C141.88 152.3 142.54 156.08 144.64 158H134.26ZM113.8 134.36H124.9C128.26 134.36 133.66 133.64 133.66 128.06C133.66 124.34 131.44 121.94 126.28 121.94H113.8V134.36ZM182.652 147.92C179.952 155.48 173.232 158.72 165.492 158.72C154.932 158.72 148.452 152.18 148.452 142.46C148.452 132.32 155.232 125.3 165.732 125.3C175.932 125.3 182.712 131.6 182.712 143.54H157.332C157.752 148.52 160.152 152.06 166.032 152.06C170.412 152.06 174.132 150.08 175.332 145.64L182.652 147.92ZM157.632 138.2H173.472C172.512 133.82 169.752 131.78 165.732 131.78C161.652 131.78 158.652 133.76 157.632 138.2ZM192.64 146.54C194.56 150.56 198.52 152.42 203.26 152.42C207.58 152.42 210.58 150.86 210.58 148.4C210.58 146.54 208.84 145.7 205.48 145.4C203.14 145.22 201.16 145.16 198.82 144.92C194.86 144.56 188.2 143 188.2 135.92C188.2 129.32 194.44 125.3 202.66 125.3C208.36 125.3 214 127.1 217.6 131.66L212.32 136.1C209.86 133.04 206.5 131.54 202.96 131.54C199.24 131.54 196.6 132.86 196.6 134.96C196.6 136.58 197.56 137.42 200.8 137.72C202.6 137.9 205.12 137.96 207.04 138.14C212.02 138.56 218.86 140.3 218.86 147.62C218.86 154.64 212.38 158.72 203.14 158.72C194.5 158.72 188.92 155.48 186.16 149.12L192.64 146.54ZM240.806 158.72C229.946 158.72 222.866 152.12 222.866 142.04C222.866 131.96 229.946 125.3 240.806 125.3C251.666 125.3 258.746 131.96 258.746 142.04C258.746 152.12 251.666 158.72 240.806 158.72ZM232.106 142.04C232.106 148.1 235.286 152.12 240.806 152.12C246.326 152.12 249.506 148.1 249.506 142.04C249.506 135.98 246.326 131.9 240.806 131.9C235.286 131.9 232.106 135.98 232.106 142.04ZM297.256 158H288.496V150.62H288.256C286.396 156.02 282.256 158.72 276.436 158.72C268.936 158.72 264.736 154.22 264.736 145.94V126.02H273.736V144.74C273.736 149.12 275.956 151.46 280.216 151.46C284.956 151.46 288.256 148.52 288.256 143.12V126.02H297.256V158ZM329.347 133.7C328.567 133.52 327.547 133.34 326.467 133.34C319.087 133.34 314.527 139.46 314.527 147.62V158H305.527V126.02H314.287V137.18H314.407C315.787 131.12 317.587 128.24 321.667 126.5C322.927 125.96 324.667 125.66 326.347 125.66C327.427 125.66 328.447 125.78 329.347 126.02V133.7ZM366.484 144.32C365.104 153.26 358.924 158.72 348.484 158.72C337.984 158.72 331.264 152.12 331.264 142.46C331.264 131.84 339.244 125.3 348.904 125.3C357.664 125.3 363.964 129.68 365.524 137.84L358.144 139.76C357.064 135.26 354.244 131.96 349.084 131.96C344.164 131.96 340.504 135.14 340.504 142.1C340.504 148.88 343.804 152.06 349.204 152.06C355.024 152.06 357.844 148.28 358.564 143.24L366.484 144.32ZM404.722 147.92C402.022 155.48 395.302 158.72 387.562 158.72C377.002 158.72 370.522 152.18 370.522 142.46C370.522 132.32 377.302 125.3 387.802 125.3C398.002 125.3 404.782 131.6 404.782 143.54H379.402C379.822 148.52 382.222 152.06 388.102 152.06C392.482 152.06 396.202 150.08 397.402 145.64L404.722 147.92ZM379.702 138.2H395.542C394.582 133.82 391.822 131.78 387.802 131.78C383.722 131.78 380.722 133.76 379.702 138.2ZM449.166 125.3C457.206 125.3 463.866 131.48 463.866 141.92C463.866 152.12 457.746 158.72 448.986 158.72C443.286 158.72 439.086 155.78 437.226 151.34H437.046V169.88H428.046V126.02H437.046V132.98H437.226C439.206 128.24 443.286 125.3 449.166 125.3ZM436.986 142.82C436.986 147.98 440.706 152.06 445.986 152.06C451.146 152.06 454.626 147.98 454.626 141.92C454.626 136.04 451.146 131.96 445.986 131.96C440.706 131.96 436.986 136.22 436.986 141.2V142.82ZM478.692 158.72C471.732 158.72 468.252 154.28 468.252 150.14C468.252 145.52 471.312 142.76 476.832 141.26L491.352 137.36V136.94C491.352 133.22 489.132 131.54 485.172 131.54C481.152 131.54 478.032 133.64 476.172 138.8L468.912 136.1C471.792 128.36 477.852 125.36 485.532 125.36C495.132 125.36 500.232 130.22 500.232 136.76V147.98C500.232 150.32 501.012 151.58 502.992 151.58C503.892 151.58 505.152 151.28 505.992 150.8V157.34C504.492 158 501.672 158.6 499.572 158.6C495.072 158.6 491.592 156.14 491.592 151.4V150.74H491.352C489.072 155.54 484.632 158.72 478.692 158.72ZM477.072 148.82C477.072 150.32 478.332 151.94 481.272 151.94C484.872 151.94 489.792 149.3 491.352 145.22V142.1L480.912 145.7C478.632 146.48 477.072 147.08 477.072 148.82ZM525.647 170.6C514.187 170.6 510.707 166.46 510.707 163.04C510.707 159.8 513.827 158.36 517.307 158V157.82C512.447 157.7 509.327 155.3 509.327 151.16C509.327 148.1 511.607 144.74 517.187 143.78V143.6C513.707 141.8 511.667 139.04 511.667 135.44C511.667 129.44 517.487 125.3 527.387 125.3C529.967 125.3 532.367 125.6 534.407 126.2L535.427 116.36H545.687V116.66L536.927 127.04C540.647 128.78 542.867 131.6 542.867 135.44C542.867 141.8 536.807 145.64 527.447 145.64C525.167 145.64 523.127 145.46 521.267 145.04C518.447 145.46 517.127 146.42 517.127 148.16C517.127 149.42 518.207 150.32 520.907 150.32H533.147C540.347 150.32 545.627 152.9 545.627 158.84C545.627 166.22 537.467 170.6 525.647 170.6ZM518.807 161C518.807 163.64 521.207 165.38 527.507 165.38C532.547 165.38 537.407 164.24 537.407 160.88C537.407 158.78 535.667 158.12 529.847 158.12H523.007C520.067 158.12 518.807 159.08 518.807 161ZM520.907 135.44C520.907 138.62 523.067 140.36 527.207 140.36C531.287 140.36 533.627 138.68 533.627 135.5C533.627 132.26 531.167 130.58 527.327 130.58C523.547 130.58 520.907 132.26 520.907 135.44ZM581.851 147.92C579.151 155.48 572.431 158.72 564.691 158.72C554.131 158.72 547.651 152.18 547.651 142.46C547.651 132.32 554.431 125.3 564.931 125.3C575.131 125.3 581.911 131.6 581.911 143.54H556.531C556.951 148.52 559.351 152.06 565.231 152.06C569.611 152.06 573.331 150.08 574.531 145.64L581.851 147.92ZM556.831 138.2H572.671C571.711 133.82 568.951 131.78 564.931 131.78C560.851 131.78 557.851 133.76 556.831 138.2ZM601.515 126.02H607.575L611.595 116.72H615.615V126.02H625.155V132.44H615.615V146.84C615.615 150.86 616.815 152 620.475 152C622.035 152 623.655 151.76 625.455 151.46V157.76C622.635 158.3 620.655 158.6 616.935 158.6C609.195 158.6 606.615 155.6 606.615 150.32V132.44H601.515V126.02ZM631.074 158V126.02H640.074V158H631.074ZM630.954 121.94V114.2H640.194V121.94H630.954ZM644.699 126.02H650.759L654.779 116.72H658.799V126.02H668.339V132.44H658.799V146.84C658.799 150.86 659.999 152 663.659 152C665.219 152 666.839 151.76 668.639 151.46V157.76C665.819 158.3 663.839 158.6 660.119 158.6C652.379 158.6 649.799 155.6 649.799 150.32V132.44H644.699V126.02ZM674.257 158V114.2H683.257V158H674.257ZM723.882 147.92C721.182 155.48 714.462 158.72 706.722 158.72C696.162 158.72 689.682 152.18 689.682 142.46C689.682 132.32 696.462 125.3 706.962 125.3C717.162 125.3 723.942 131.6 723.942 143.54H698.562C698.982 148.52 701.382 152.06 707.262 152.06C711.642 152.06 715.362 150.08 716.562 145.64L723.882 147.92ZM698.862 138.2H714.702C713.742 133.82 710.982 131.78 706.962 131.78C702.882 131.78 699.882 133.76 698.862 138.2Z" fill="white"/>
<path d="M102.716 205.612L102.688 202.98H109.212C113.832 202.98 120.132 204.408 120.132 212.976C120.132 221.46 113.916 223 109.212 223H102.688L102.716 220.368V205.612ZM105.236 205.192V220.788H109.184C114.28 220.788 117.36 218.744 117.36 213.228C117.36 207.712 114.28 205.192 109.184 205.192H105.236ZM135.01 219.332L136.438 220.732C135.962 221.32 133.806 223.392 130.278 223.392C126.134 223.392 123.166 220.9 123.166 216.336C123.166 211.548 126.134 208.636 130.054 208.636C134.982 208.636 136.83 212.36 136.634 216.448H125.63C125.658 219.388 127.562 221.348 130.474 221.348C132.63 221.348 134.478 219.948 135.01 219.332ZM130.138 210.624C127.926 210.624 126.246 211.8 125.77 214.6H134.03C134.03 212.192 132.462 210.624 130.138 210.624ZM139.155 220.788L140.583 219.332C141.507 220.088 142.963 221.516 145.679 221.516C147.415 221.516 149.347 220.844 149.347 219.136C149.347 217.316 147.135 217.176 145.315 216.924C142.879 216.588 139.659 216.084 139.659 212.976C139.659 210.624 141.535 208.58 145.119 208.58C148.199 208.58 150.355 210.148 151.167 211.044L149.739 212.528C148.983 211.8 147.471 210.512 145.287 210.512C143.691 210.512 141.927 211.212 141.927 212.724C141.927 214.264 143.775 214.46 145.735 214.712C148.059 214.992 151.615 215.496 151.615 218.912C151.615 221.376 149.711 223.448 145.763 223.448C142.207 223.448 140.023 221.796 139.155 220.788ZM165.119 218.772L167.051 219.724C166.771 220.396 164.923 223.392 161.059 223.392C157.615 223.392 154.255 221.012 154.255 216.14C154.255 211.828 156.915 208.636 161.115 208.636C165.371 208.636 166.743 211.912 166.883 212.164L164.783 213.144C164.419 212.276 163.187 210.652 161.003 210.652C158.651 210.652 156.775 212.556 156.775 215.944C156.775 219.332 158.651 221.348 161.087 221.348C163.411 221.348 164.783 219.5 165.119 218.772ZM170.299 223L170.327 220.564V211.492L170.299 209.028H172.679V213.76H172.735C173.967 210.092 176.123 208.636 178.139 208.636C178.335 208.636 178.587 208.664 178.699 208.692V210.96C178.503 210.932 178.307 210.932 178.139 210.932C175.143 210.932 173.015 214.964 172.735 217.484V220.564L172.763 223H170.299ZM183.947 223H181.483L181.511 220.564V211.492L181.483 209.028H183.947L183.919 211.492V220.564L183.947 223ZM183.919 206.088H181.511V202.98H183.919V206.088ZM195.623 223.392C193.075 223.392 191.731 221.992 190.975 220.508H190.919V226.556L190.947 228.992H188.483L188.511 226.556V211.492L188.483 209.028H190.891V211.576H190.947C191.675 210.176 192.963 208.636 195.623 208.636C199.235 208.636 202.007 211.52 202.007 215.972C202.007 220.452 199.235 223.392 195.623 223.392ZM195.287 210.652C192.795 210.652 190.835 212.528 190.835 215.972V216.084C190.835 219.78 193.019 221.376 195.287 221.376C198.003 221.376 199.459 219.08 199.459 215.944C199.459 212.696 197.919 210.652 195.287 210.652ZM212.799 209.028V210.96H208.963V219.584C208.963 220.816 209.271 221.404 210.587 221.404C211.511 221.404 212.379 221.124 212.911 220.928V222.916C212.351 223.112 211.539 223.392 210.195 223.392C208.179 223.392 206.555 222.748 206.555 219.78V210.96H203.923V209.028H206.611L206.947 205.052H208.963V209.028H212.799ZM218.755 223H216.291L216.319 220.564V211.492L216.291 209.028H218.755L218.727 211.492V220.564L218.755 223ZM218.727 206.088H216.319V202.98H218.727V206.088ZM229.507 223.392C225.167 223.392 222.395 219.892 222.395 216.028C222.395 212.136 225.167 208.636 229.507 208.636C233.847 208.636 236.619 212.136 236.619 216.028C236.619 219.892 233.847 223.392 229.507 223.392ZM229.507 221.376C231.999 221.376 234.099 219.416 234.099 216.028C234.099 212.64 231.999 210.652 229.507 210.652C226.987 210.652 224.915 212.64 224.915 216.028C224.915 219.416 226.987 221.376 229.507 221.376ZM252.872 223H250.408L250.436 220.564V214.516C250.436 211.996 249.54 210.736 247.608 210.736C245.62 210.736 243.744 212.052 242.708 213.9V220.564L242.736 223H240.272L240.3 220.564V211.492L240.272 209.028H242.652V211.436H242.708C243.744 210.036 245.368 208.636 247.944 208.636C250.968 208.636 252.844 210.596 252.844 214.292V220.564L252.872 223ZM269.354 218.016C268.374 218.016 267.478 217.876 266.722 217.624C266.134 217.792 265.686 218.352 265.686 218.968C265.686 219.976 266.778 220.592 268.346 220.62L272.154 220.704C275.682 220.788 277.222 222.3 277.222 224.568C277.222 227.956 273.61 229.132 269.438 229.132C265.658 229.132 262.606 228.152 262.606 225.604C262.606 224.232 263.474 222.804 265.546 222.356V222.3C264.426 221.852 263.418 221.012 263.418 219.64C263.418 218.324 264.286 217.428 265.322 216.924C264.202 216.112 263.586 214.88 263.586 213.368C263.586 210.512 265.798 208.636 269.382 208.636C271.034 208.636 272.378 209.056 273.358 209.756C273.946 208.804 274.842 207.852 276.438 207.852C276.998 207.852 277.278 207.964 277.474 208.048V210.008C277.082 209.924 276.662 209.868 276.326 209.868C275.542 209.868 274.786 210.148 274.45 210.876C274.898 211.548 275.15 212.388 275.15 213.312C275.15 216.168 272.91 218.016 269.354 218.016ZM272.154 222.86L267.59 222.748C266.274 223.168 265.014 224.008 265.014 225.24C265.014 226.444 266.246 227.312 269.83 227.312C273.162 227.312 274.842 226.584 274.842 224.932C274.842 224.232 274.534 222.916 272.154 222.86ZM269.354 216.196C271.594 216.196 272.882 215.272 272.882 213.34C272.882 211.408 271.594 210.456 269.354 210.456C267.142 210.456 265.854 211.408 265.854 213.34C265.854 215.272 267.142 216.196 269.354 216.196ZM286.109 223.392C281.769 223.392 278.997 219.892 278.997 216.028C278.997 212.136 281.769 208.636 286.109 208.636C290.449 208.636 293.221 212.136 293.221 216.028C293.221 219.892 290.449 223.392 286.109 223.392ZM286.109 221.376C288.601 221.376 290.701 219.416 290.701 216.028C290.701 212.64 288.601 210.652 286.109 210.652C283.589 210.652 281.517 212.64 281.517 216.028C281.517 219.416 283.589 221.376 286.109 221.376ZM307.877 219.332L309.305 220.732C308.829 221.32 306.673 223.392 303.145 223.392C299.001 223.392 296.033 220.9 296.033 216.336C296.033 211.548 299.001 208.636 302.921 208.636C307.849 208.636 309.697 212.36 309.501 216.448H298.497C298.525 219.388 300.429 221.348 303.341 221.348C305.497 221.348 307.345 219.948 307.877 219.332ZM303.005 210.624C300.793 210.624 299.113 211.8 298.637 214.6H306.897C306.897 212.192 305.329 210.624 303.005 210.624ZM312.022 220.788L313.45 219.332C314.374 220.088 315.83 221.516 318.546 221.516C320.282 221.516 322.214 220.844 322.214 219.136C322.214 217.316 320.002 217.176 318.182 216.924C315.746 216.588 312.526 216.084 312.526 212.976C312.526 210.624 314.402 208.58 317.986 208.58C321.066 208.58 323.222 210.148 324.034 211.044L322.606 212.528C321.85 211.8 320.338 210.512 318.154 210.512C316.558 210.512 314.794 211.212 314.794 212.724C314.794 214.264 316.642 214.46 318.602 214.712C320.926 214.992 324.482 215.496 324.482 218.912C324.482 221.376 322.578 223.448 318.63 223.448C315.074 223.448 312.89 221.796 312.022 220.788ZM337.153 205.444V211.38H337.209C338.245 209.98 339.869 208.636 342.389 208.636C345.413 208.636 347.289 210.596 347.289 214.292V220.564L347.317 223H344.853L344.881 220.564V214.516C344.881 211.996 343.985 210.736 342.053 210.736C340.065 210.736 338.189 212.052 337.153 213.9V220.564L337.181 223H334.717L334.745 220.564V205.444L334.717 202.98H337.181L337.153 205.444ZM362.729 219.332L364.157 220.732C363.681 221.32 361.525 223.392 357.997 223.392C353.853 223.392 350.885 220.9 350.885 216.336C350.885 211.548 353.853 208.636 357.773 208.636C362.701 208.636 364.549 212.36 364.353 216.448H353.349C353.377 219.388 355.281 221.348 358.193 221.348C360.349 221.348 362.197 219.948 362.729 219.332ZM357.857 210.624C355.645 210.624 353.965 211.8 353.489 214.6H361.749C361.749 212.192 360.181 210.624 357.857 210.624ZM368.049 223L368.077 220.564V211.492L368.049 209.028H370.429V213.76H370.485C371.717 210.092 373.873 208.636 375.889 208.636C376.085 208.636 376.337 208.664 376.449 208.692V210.96C376.253 210.932 376.057 210.932 375.889 210.932C372.893 210.932 370.765 214.964 370.485 217.484V220.564L370.513 223H368.049ZM389.799 219.332L391.227 220.732C390.751 221.32 388.595 223.392 385.067 223.392C380.923 223.392 377.955 220.9 377.955 216.336C377.955 211.548 380.923 208.636 384.843 208.636C389.771 208.636 391.619 212.36 391.423 216.448H380.419C380.447 219.388 382.351 221.348 385.263 221.348C387.419 221.348 389.267 219.948 389.799 219.332ZM384.927 210.624C382.715 210.624 381.035 211.8 380.559 214.6H388.819C388.819 212.192 387.251 210.624 384.927 210.624Z" fill="white"/>
<rect x="100" y="256" width="359" height="52" rx="10" fill="#6300C7"/>
<path fill-rule="evenodd" clip-rule="evenodd" d="M153.857 293.143H134.571V291.429H141.931L135.68 285.178L136.892 283.965L143.143 290.216V271.714H144.857V290.216L151.108 283.965L152.32 285.178L146.069 291.429H153.857V293.143Z" fill="white"/>
<path d="M167.78 285.102L166.844 288H164L168.59 275.13H171.938L176.456 288H173.126L172.244 285.102H167.78ZM170.102 278.064L168.5 282.906H171.578L170.138 278.064H170.102ZM177.02 286.866L178.172 285.192C179.072 285.804 180.026 286.416 181.61 286.416C182.636 286.416 183.302 286.164 183.302 285.516C183.302 284.634 182.006 284.598 180.692 284.382C179 284.112 177.254 283.554 177.254 281.664C177.254 279.972 178.64 278.424 181.304 278.424C182.996 278.424 184.652 279.054 185.552 279.774L184.4 281.448C183.752 280.98 182.834 280.368 181.448 280.368C180.476 280.368 179.9 280.674 179.9 281.232C179.9 282.042 181.088 282.078 182.33 282.276C184.076 282.546 185.948 283.122 185.948 285.12C185.948 286.83 184.562 288.36 181.592 288.36C179.576 288.36 177.956 287.658 177.02 286.866ZM186.969 286.866L188.121 285.192C189.021 285.804 189.975 286.416 191.559 286.416C192.585 286.416 193.251 286.164 193.251 285.516C193.251 284.634 191.955 284.598 190.641 284.382C188.949 284.112 187.203 283.554 187.203 281.664C187.203 279.972 188.589 278.424 191.253 278.424C192.945 278.424 194.601 279.054 195.501 279.774L194.349 281.448C193.701 280.98 192.783 280.368 191.397 280.368C190.425 280.368 189.849 280.674 189.849 281.232C189.849 282.042 191.037 282.078 192.279 282.276C194.025 282.546 195.897 283.122 195.897 285.12C195.897 286.83 194.511 288.36 191.541 288.36C189.525 288.36 187.905 287.658 186.969 286.866ZM204.388 285.246L206.584 286.02C206.08 286.866 204.73 288.306 202.048 288.306C199.132 288.306 197.062 286.596 197.062 283.554C197.062 280.404 199.168 278.496 201.904 278.496C205.432 278.496 206.8 281.214 206.728 283.896H199.798C199.87 285.642 200.806 286.38 202.12 286.38C203.236 286.38 204.046 285.732 204.388 285.246ZM201.922 280.314C200.842 280.314 200.104 280.926 199.87 282.33H203.83C203.83 281.196 203.2 280.314 201.922 280.314ZM214.084 278.784V280.746H211.87V285.138C211.87 285.876 212.086 286.182 212.878 286.182C213.292 286.182 213.814 286.056 214.138 285.966V287.91C213.706 288.144 212.986 288.306 212.068 288.306C209.944 288.306 208.972 287.568 208.972 285.354V280.746H207.442V278.784H209.062L209.35 275.904H211.87V278.784H214.084ZM223.592 288.27C221.414 288.27 219.65 286.596 219.65 283.41C219.65 280.224 221.414 278.514 223.808 278.514C225.194 278.514 225.878 278.982 226.436 279.612H226.472V276.804L226.454 275.13H229.388L229.37 276.804V286.344L229.388 288H226.562V286.884H226.526C225.95 287.604 225.032 288.27 223.592 288.27ZM224.618 286.38C225.464 286.38 226.166 285.75 226.472 285.012V281.844C226.202 281.034 225.482 280.422 224.636 280.422C223.232 280.422 222.674 281.484 222.674 283.392C222.674 285.336 223.25 286.38 224.618 286.38ZM236.15 288.306C233.072 288.306 231.092 286.038 231.092 283.41C231.092 280.746 233.072 278.496 236.15 278.496C239.228 278.496 241.19 280.746 241.19 283.41C241.19 286.038 239.228 288.306 236.15 288.306ZM236.15 286.38C237.338 286.38 238.166 285.48 238.166 283.41C238.166 281.322 237.338 280.422 236.15 280.422C234.944 280.422 234.116 281.322 234.116 283.41C234.116 285.48 234.944 286.38 236.15 286.38ZM244.723 288L241.789 278.784H244.543L246.037 284.292H246.073L247.837 278.784H249.817L251.599 284.292H251.635L253.075 278.784H255.613L252.715 288H250.303L248.647 282.852H248.611L246.937 288H244.723ZM266.23 288H263.296L263.314 286.326V282.348C263.314 281.232 262.882 280.692 262.054 280.692C261.244 280.692 260.434 281.214 259.912 281.988V286.326L259.93 288H256.996L257.014 286.326V280.458L256.996 278.784H259.804V280.206H259.84C260.704 279.144 261.856 278.514 263.242 278.514C265.06 278.514 266.212 279.54 266.212 281.736V286.326L266.23 288ZM271.268 276.804V286.326C271.268 286.344 271.286 288 271.286 288H268.352C268.352 288 268.37 286.344 268.37 286.326V276.804L268.352 275.13H271.286L271.268 276.804ZM278.074 288.306C274.996 288.306 273.016 286.038 273.016 283.41C273.016 280.746 274.996 278.496 278.074 278.496C281.152 278.496 283.114 280.746 283.114 283.41C283.114 286.038 281.152 288.306 278.074 288.306ZM278.074 286.38C279.262 286.38 280.09 285.48 280.09 283.41C280.09 281.322 279.262 280.422 278.074 280.422C276.868 280.422 276.04 281.322 276.04 283.41C276.04 285.48 276.868 286.38 278.074 286.38ZM287.054 281.412L284.696 280.8C285.398 279.144 287.036 278.496 289.142 278.496C291.59 278.496 293.39 279.378 293.39 281.97V286.038C293.39 286.83 293.48 287.532 293.552 288H290.87C290.798 287.604 290.762 287.226 290.726 286.884H290.69C290.078 287.604 289.16 288.27 287.504 288.27C285.488 288.27 284.246 287.226 284.246 285.624C284.246 283.086 287.396 282.258 290.618 282.258V281.862C290.618 280.818 290.078 280.278 288.962 280.278C288.026 280.278 287.558 280.656 287.054 281.412ZM288.476 286.434C289.43 286.434 290.618 285.732 290.618 284.31V283.662C289.07 283.68 287.216 284.094 287.216 285.336C287.216 286.02 287.684 286.434 288.476 286.434ZM299.02 288.27C296.842 288.27 295.078 286.596 295.078 283.41C295.078 280.224 296.842 278.514 299.236 278.514C300.622 278.514 301.306 278.982 301.864 279.612H301.9V276.804L301.882 275.13H304.816L304.798 276.804V286.344L304.816 288H301.99V286.884H301.954C301.378 287.604 300.46 288.27 299.02 288.27ZM300.046 286.38C300.892 286.38 301.594 285.75 301.9 285.012V281.844C301.63 281.034 300.91 280.422 300.064 280.422C298.66 280.422 298.102 281.484 298.102 283.392C298.102 285.336 298.678 286.38 300.046 286.38ZM316.19 290.484H314.174C312.662 289.26 310.934 286.236 310.934 282.78C310.934 279.324 312.608 276.57 314.174 275.13H316.19C315.704 275.904 313.652 278.586 313.652 282.78C313.652 287.01 315.74 289.764 316.19 290.484ZM323.856 283.194H320.778V286.308L320.796 288H317.664L317.682 286.308V276.822L317.664 275.13H323.568C325.872 275.13 328.5 275.76 328.5 279.108C328.5 282.312 326.142 283.194 323.856 283.194ZM320.778 277.38V280.944H323.154C324.414 280.944 325.404 280.674 325.404 279.126C325.404 277.542 324.36 277.38 323.154 277.38H320.778ZM330.32 276.822L330.302 275.13H335.306C338.78 275.13 341.984 276.912 341.984 281.628C341.984 286.452 338.708 288 335.306 288H330.302L330.32 286.308V276.822ZM333.416 277.38V285.768H335C337.322 285.768 338.78 284.706 338.78 281.664C338.78 278.622 337.34 277.38 335 277.38H333.416ZM352.113 280.368V282.69H347.145V286.308L347.163 288H344.031L344.049 286.308V276.822L344.031 275.13H352.959V277.452H347.145V280.368H352.113ZM355.793 290.484H353.777C354.227 289.764 356.315 287.01 356.315 282.78C356.315 278.586 354.281 275.904 353.777 275.13H355.793C357.359 276.57 359.051 279.324 359.051 282.78C359.051 286.236 357.323 289.26 355.793 290.484Z" fill="white"/>
<path d="M372.2 288.932H371.024C369.946 287.938 368.742 285.642 368.742 282.982C368.742 280.294 369.96 278.068 371.024 276.99H372.2C371.794 277.578 370.114 279.664 370.114 282.982C370.114 286.286 371.78 288.288 372.2 288.932ZM373.224 285.628L374.134 284.928C375.044 285.866 375.758 286.16 376.64 286.16C378.026 286.16 378.908 285.418 378.908 284.018C378.908 282.52 377.9 281.918 376.682 281.918C375.45 281.918 374.834 282.548 374.596 282.828L373.588 282.562L373.868 277.578H379.706L379.496 278.67H374.974L374.792 281.554H374.82C375.296 281.19 375.982 280.896 376.92 280.896C378.558 280.896 380.196 281.834 380.196 283.976C380.196 285.992 378.754 287.196 376.626 287.196C374.904 287.196 373.91 286.412 373.224 285.628ZM385.305 277.382C387.685 277.382 389.099 279.58 389.099 282.296C389.099 285.012 387.685 287.196 385.305 287.196C382.967 287.196 381.511 285.012 381.511 282.296C381.511 279.58 382.967 277.382 385.305 277.382ZM385.305 278.418C383.877 278.418 382.799 279.986 382.799 282.282C382.799 284.606 383.877 286.16 385.305 286.16C386.747 286.16 387.825 284.606 387.825 282.282C387.825 279.986 386.747 278.418 385.305 278.418ZM394.328 277.382C396.708 277.382 398.122 279.58 398.122 282.296C398.122 285.012 396.708 287.196 394.328 287.196C391.99 287.196 390.534 285.012 390.534 282.296C390.534 279.58 391.99 277.382 394.328 277.382ZM394.328 278.418C392.9 278.418 391.822 279.986 391.822 282.282C391.822 284.606 392.9 286.16 394.328 286.16C395.77 286.16 396.848 284.606 396.848 282.282C396.848 279.986 395.77 278.418 394.328 278.418ZM403.551 287L403.565 285.684V278.306L403.551 276.99H404.839L404.825 278.306V282.282H404.853L409.935 276.99H411.489V277.018L407.905 280.63L411.923 286.972V287H410.397L407.037 281.498L404.825 283.752V285.684L404.839 287H403.551ZM413.34 285.684V278.306L413.326 276.99H417.4C419.444 276.99 421.264 277.592 421.264 279.468C421.264 281.302 419.514 281.75 419.08 281.806V281.876C419.5 281.932 421.558 282.254 421.558 284.396C421.558 286.44 419.668 287 417.764 287H413.326L413.34 285.684ZM417.316 282.45H414.6V285.978H417.974C419.584 285.978 420.172 285.264 420.172 284.326C420.172 282.926 418.87 282.45 417.316 282.45ZM414.6 278.012V281.358H417.316C418.87 281.358 419.92 280.77 419.92 279.594C419.92 278.544 419.08 278.012 417.54 278.012H414.6ZM423.9 288.932H422.724C423.144 288.288 424.81 286.286 424.81 282.982C424.81 279.664 423.13 277.578 422.724 276.99H423.9C424.964 278.068 426.182 280.294 426.182 282.982C426.182 285.642 424.978 287.938 423.9 288.932Z" fill="white"/>
<path d="M1448.54 93.832H1444.54V109.832H1448.54V93.832Z" fill="white"/>
<path d="M1481.39 129.35V125.35C1475.01 125.35 1469.74 120.592 1468.89 114.444L1490.93 118.718V84.9404L1453.61 92.1824V111.478L1464.81 113.652C1465.3 122.388 1472.53 129.35 1481.39 129.35ZM1457.61 95.4784L1486.93 89.7904V113.866L1457.61 108.18V95.4764V95.4784Z" fill="white"/>
<path d="M1497.01 91.0179L1493.01 93.2852L1494.99 96.7651L1498.99 94.4978L1497.01 91.0179Z" fill="white"/>
<path d="M1500.27 99.832H1494V103.832H1500.27V99.832Z" fill="white"/>
<path d="M1494.99 106.894L1493.01 110.374L1497.01 112.642L1498.99 109.162L1494.99 106.894Z" fill="white"/>
</g>
<defs>
<linearGradient id="paint0_linear_510_13878" x1="380" y1="-7.67931e-06" x2="-3.03291e-05" y2="380" gradientUnits="userSpaceOnUse">
<stop stop-color="#FF2100"/>
<stop offset="0.635417" stop-color="#FF6D00"/>
</linearGradient>
<linearGradient id="paint1_linear_510_13878" x1="40" y1="204" x2="1540" y2="204" gradientUnits="userSpaceOnUse">
<stop stop-color="#2A0080"/>
<stop offset="1" stop-color="#191326"/>
</linearGradient>
<clipPath id="clip0_510_13878">
<rect x="40" y="40" width="1500" height="328" rx="20" fill="white"/>
</clipPath>
</defs>
</svg>
