<svg width="986" height="208" viewBox="0 0 986 208" fill="none" xmlns="http://www.w3.org/2000/svg">
<path d="M4 208V0H-4V208H4Z" fill="url(#paint0_linear_308_1257)" mask="url(#path-1-inside-1_308_1257)"/>
<path d="M68.875 78.5L68.6562 78.1562C68.8021 77.5938 68.974 76.9948 69.1719 76.3594C69.3802 75.724 69.6042 75.0833 69.8438 74.4375C70.0833 73.7917 70.3385 73.151 70.6094 72.5156C70.8802 71.8698 71.1458 71.2552 71.4062 70.6719H73.5469C73.3906 71.3073 73.2344 71.9688 73.0781 72.6562C72.9323 73.3438 72.7917 74.0312 72.6562 74.7188C72.5208 75.3958 72.3958 76.0573 72.2812 76.7031C72.1667 77.349 72.0677 77.9479 71.9844 78.5H68.875ZM62.8594 78.5L62.6406 78.1562C62.7865 77.5938 62.9583 76.9948 63.1562 76.3594C63.3646 75.724 63.5885 75.0833 63.8281 74.4375C64.0677 73.7917 64.3229 73.151 64.5938 72.5156C64.8646 71.8698 65.1302 71.2552 65.3906 70.6719H67.5312C67.375 71.3073 67.2188 71.9688 67.0625 72.6562C66.9167 73.3438 66.776 74.0312 66.6406 74.7188C66.5052 75.3958 66.3802 76.0573 66.2656 76.7031C66.151 77.349 66.0521 77.9479 65.9688 78.5H62.8594ZM107.616 70.64L101.568 94H97.696L92.224 73.584H92.032L86.528 94H82.72L76.576 70.64H79.36L84.608 91.184H84.832L90.368 70.64H93.984L99.552 91.184H99.744L104.96 70.64H107.616ZM110.405 70.64H113.061V81.072H113.125C114.021 78.416 116.357 76.72 119.749 76.72C123.845 76.72 126.277 79.248 126.277 83.568V94H123.621V83.952C123.621 80.656 121.925 78.928 118.821 78.928C115.205 78.928 113.061 81.456 113.061 84.88V94H110.405V70.64ZM135.663 94.352C131.887 94.352 130.255 91.952 130.255 89.904C130.255 87.376 131.919 86.064 134.895 85.232L143.215 82.928V82.736C143.215 80.208 141.647 78.704 138.735 78.704C135.887 78.704 134.063 80.08 132.879 83.344L130.639 82.48C132.143 78.384 135.183 76.752 138.863 76.752C143.407 76.752 145.807 79.248 145.807 82.608V89.776C145.807 91.216 146.255 92.208 147.567 92.208C148.111 92.208 148.719 91.984 149.167 91.728V93.776C148.559 94.064 147.663 94.32 146.703 94.32C144.623 94.32 143.247 93.04 143.247 90.832V89.68C141.967 92.336 139.343 94.352 135.663 94.352ZM132.911 89.52C132.911 90.864 133.807 92.24 136.495 92.24C139.311 92.24 142.351 90.224 143.215 87.536V84.592L136.143 86.832C133.999 87.504 132.911 88.048 132.911 89.52ZM150.101 77.104H153.429L154.581 72.112H155.893V77.104H161.685V79.088H155.893V89.424C155.893 91.44 156.469 92.176 158.805 92.176C159.701 92.176 160.565 92.048 161.717 91.792V93.776C160.309 94.096 159.285 94.224 157.813 94.224C154.229 94.224 153.237 92.72 153.237 90.352V79.088H150.101V77.104ZM180.906 88.336C179.53 92.368 176.362 94.352 172.298 94.352C166.89 94.352 163.754 90.8 163.754 85.776C163.754 80.56 166.954 76.72 172.33 76.72C177.386 76.72 180.746 80.08 180.746 85.936H166.346C166.442 89.808 168.586 92.272 172.49 92.272C175.53 92.272 177.738 90.704 178.634 87.632L180.906 88.336ZM166.442 84.048H177.994C177.61 80.816 175.53 78.8 172.362 78.8C169.066 78.8 166.922 80.656 166.442 84.048ZM196.914 77.104H199.569L192.274 94H189.362L182.162 77.104H184.946L190.77 91.344H190.994L196.914 77.104ZM217.969 88.336C216.593 92.368 213.425 94.352 209.361 94.352C203.953 94.352 200.817 90.8 200.817 85.776C200.817 80.56 204.016 76.72 209.393 76.72C214.449 76.72 217.809 80.08 217.809 85.936H203.409C203.505 89.808 205.649 92.272 209.553 92.272C212.593 92.272 214.801 90.704 215.697 87.632L217.969 88.336ZM203.505 84.048H215.057C214.673 80.816 212.593 78.8 209.425 78.8C206.129 78.8 203.985 80.656 203.505 84.048ZM233.004 79.376C232.556 79.28 232.044 79.184 231.5 79.184C227.276 79.184 224.748 82.672 224.748 87.472V94H222.092V77.104H224.652V82.704H224.716C225.292 80.368 226.444 78.48 228.492 77.52C229.356 77.104 230.476 76.88 231.564 76.88C232.044 76.88 232.556 76.912 233.004 77.04V79.376ZM249.538 94.352C245.762 94.352 244.13 91.952 244.13 89.904C244.13 87.376 245.794 86.064 248.77 85.232L257.09 82.928V82.736C257.09 80.208 255.522 78.704 252.61 78.704C249.762 78.704 247.938 80.08 246.754 83.344L244.514 82.48C246.018 78.384 249.058 76.752 252.738 76.752C257.282 76.752 259.682 79.248 259.682 82.608V89.776C259.682 91.216 260.13 92.208 261.442 92.208C261.986 92.208 262.594 91.984 263.042 91.728V93.776C262.434 94.064 261.538 94.32 260.578 94.32C258.498 94.32 257.122 93.04 257.122 90.832V89.68C255.842 92.336 253.218 94.352 249.538 94.352ZM246.786 89.52C246.786 90.864 247.682 92.24 250.37 92.24C253.186 92.24 256.226 90.224 257.09 87.536V84.592L250.018 86.832C247.874 87.504 246.786 88.048 246.786 89.52ZM274.833 77.104V79.088H269.617V94H266.961V79.088H263.601V77.104H266.961V74.576C266.961 71.824 268.817 70.288 272.081 70.288C273.105 70.288 273.905 70.448 274.865 70.672V72.432C274.033 72.24 273.265 72.176 272.625 72.176C270.097 72.176 269.617 73.232 269.617 74.608V77.104H274.833ZM286.74 77.104V79.088H281.524V94H278.868V79.088H275.508V77.104H278.868V74.576C278.868 71.824 280.724 70.288 283.988 70.288C285.012 70.288 285.812 70.448 286.772 70.672V72.432C285.94 72.24 285.172 72.176 284.532 72.176C282.004 72.176 281.524 73.232 281.524 74.608V77.104H286.74ZM304.531 88.336C303.155 92.368 299.987 94.352 295.923 94.352C290.515 94.352 287.379 90.8 287.379 85.776C287.379 80.56 290.579 76.72 295.955 76.72C301.011 76.72 304.371 80.08 304.371 85.936H289.971C290.067 89.808 292.211 92.272 296.115 92.272C299.155 92.272 301.363 90.704 302.259 87.632L304.531 88.336ZM290.067 84.048H301.619C301.235 80.816 299.155 78.8 295.987 78.8C292.691 78.8 290.547 80.656 290.067 84.048ZM325.199 86.736C324.527 91.248 321.423 94.352 316.207 94.352C310.799 94.352 307.567 90.832 307.567 85.776C307.567 80.176 311.471 76.72 316.431 76.72C320.879 76.72 324.175 79.312 324.911 83.312L322.415 83.888C321.775 80.912 319.855 78.8 316.463 78.8C312.943 78.8 310.286 81.136 310.286 85.616C310.286 89.808 312.591 92.272 316.431 92.272C320.239 92.272 322.191 89.84 322.575 86.416L325.199 86.736ZM326.914 77.104H330.242L331.394 72.112H332.706V77.104H338.498V79.088H332.706V89.424C332.706 91.44 333.282 92.176 335.618 92.176C336.514 92.176 337.378 92.048 338.53 91.792V93.776C337.122 94.096 336.098 94.224 334.626 94.224C331.042 94.224 330.05 92.72 330.05 90.352V79.088H326.914V77.104ZM342.571 88.336C343.595 90.928 345.803 92.336 349.291 92.336C352.075 92.336 354.315 91.216 354.315 89.232C354.315 87.472 352.843 86.8 350.571 86.576C349.387 86.448 348.075 86.352 346.827 86.224C344.427 85.968 341.643 85.008 341.643 81.936C341.643 78.8 344.651 76.72 348.683 76.72C351.723 76.72 354.571 77.808 356.171 80.464L354.411 81.776C353.131 79.632 351.115 78.736 348.747 78.736C346.219 78.736 344.139 79.856 344.139 81.648C344.139 83.12 345.195 83.76 347.243 83.984C348.459 84.112 349.739 84.208 350.987 84.336C353.867 84.624 356.811 85.648 356.811 88.944C356.811 92.336 353.707 94.352 349.259 94.352C344.363 94.352 341.707 92.24 340.523 89.168L342.571 88.336ZM377.872 94.352C372.336 94.352 368.848 90.576 368.848 85.552C368.848 80.528 372.336 76.752 377.872 76.752C383.376 76.752 386.896 80.528 386.896 85.552C386.896 90.576 383.376 94.352 377.872 94.352ZM371.6 85.552C371.6 89.584 374.032 92.304 377.872 92.304C381.712 92.304 384.144 89.584 384.144 85.552C384.144 81.52 381.712 78.8 377.872 78.8C374.032 78.8 371.6 81.52 371.6 85.552ZM390.998 77.104H393.558V81.232H393.654C394.614 78.416 396.982 76.752 400.342 76.752C404.438 76.752 406.87 79.248 406.87 83.568V94H404.214V83.952C404.214 80.656 402.518 78.928 399.414 78.928C395.798 78.928 393.654 81.456 393.654 84.88V94H390.998V77.104ZM427.969 88.336C426.593 92.368 423.425 94.352 419.361 94.352C413.953 94.352 410.817 90.8 410.817 85.776C410.817 80.56 414.016 76.72 419.393 76.72C424.449 76.72 427.809 80.08 427.809 85.936H413.409C413.505 89.808 415.649 92.272 419.553 92.272C422.593 92.272 424.801 90.704 425.697 87.632L427.969 88.336ZM413.505 84.048H425.057C424.673 80.816 422.593 78.8 419.425 78.8C416.129 78.8 413.985 80.656 413.505 84.048ZM448.476 94.352C443.868 94.352 440.348 90.832 440.348 85.552C440.348 80.336 443.836 76.752 448.54 76.752C451.74 76.752 454.396 78.48 455.516 80.976H455.58V70.64H458.236V94H455.58V90.032H455.516C454.364 92.624 451.74 94.352 448.476 94.352ZM443.1 85.552C443.1 89.584 445.596 92.272 449.244 92.272C452.924 92.272 455.612 89.488 455.612 85.968V85.136C455.612 81.52 452.924 78.8 449.244 78.8C445.596 78.8 443.1 81.488 443.1 85.552ZM463.405 94V77.104H466.061V94H463.405ZM463.373 73.904V70.64H466.093V73.904H463.373ZM482.192 79.376C481.744 79.28 481.232 79.184 480.688 79.184C476.464 79.184 473.936 82.672 473.936 87.472V94H471.28V77.104H473.84V82.704H473.904C474.48 80.368 475.632 78.48 477.68 77.52C478.544 77.104 479.664 76.88 480.752 76.88C481.232 76.88 481.744 76.912 482.192 77.04V79.376ZM500.187 88.336C498.811 92.368 495.643 94.352 491.579 94.352C486.171 94.352 483.035 90.8 483.035 85.776C483.035 80.56 486.235 76.72 491.611 76.72C496.667 76.72 500.027 80.08 500.027 85.936H485.627C485.723 89.808 487.867 92.272 491.771 92.272C494.811 92.272 497.019 90.704 497.915 87.632L500.187 88.336ZM485.723 84.048H497.275C496.891 80.816 494.811 78.8 491.643 78.8C488.347 78.8 486.203 80.656 485.723 84.048ZM520.855 86.736C520.183 91.248 517.079 94.352 511.863 94.352C506.455 94.352 503.223 90.832 503.223 85.776C503.223 80.176 507.127 76.72 512.087 76.72C516.535 76.72 519.831 79.312 520.567 83.312L518.071 83.888C517.431 80.912 515.511 78.8 512.119 78.8C508.599 78.8 505.943 81.136 505.943 85.616C505.943 89.808 508.247 92.272 512.087 92.272C515.895 92.272 517.847 89.84 518.231 86.416L520.855 86.736ZM522.57 77.104H525.898L527.05 72.112H528.362V77.104H534.154V79.088H528.362V89.424C528.362 91.44 528.938 92.176 531.274 92.176C532.17 92.176 533.034 92.048 534.186 91.792V93.776C532.778 94.096 531.754 94.224 530.282 94.224C526.698 94.224 525.706 92.72 525.706 90.352V79.088H522.57V77.104ZM537.561 94V70.64H540.217V94H537.561ZM557.789 77.104H560.541L552.637 96.304C551.421 99.312 549.469 100.688 546.077 100.688C544.861 100.688 543.741 100.464 543.165 100.208V98.224C544.157 98.576 545.021 98.704 546.077 98.704C547.165 98.704 547.965 98.544 548.637 98.096C549.597 97.488 550.237 96.144 550.237 94.928C550.237 94.064 549.885 92.88 549.341 91.6L543.037 77.104H545.853L551.517 90.8C551.677 91.12 551.805 91.504 551.933 91.92H552.029L557.789 77.104ZM560.049 90.48H563.345V95.536C563.345 96.912 562.353 98.192 560.049 98.192V96.4C560.337 96.4 560.657 96.4 560.913 96.368C561.393 96.272 561.649 95.92 561.649 95.28V94H560.049V90.48ZM581.725 94.352C577.949 94.352 576.317 91.952 576.317 89.904C576.317 87.376 577.981 86.064 580.957 85.232L589.277 82.928V82.736C589.277 80.208 587.709 78.704 584.797 78.704C581.949 78.704 580.125 80.08 578.941 83.344L576.701 82.48C578.205 78.384 581.245 76.752 584.925 76.752C589.469 76.752 591.869 79.248 591.869 82.608V89.776C591.869 91.216 592.317 92.208 593.629 92.208C594.173 92.208 594.781 91.984 595.229 91.728V93.776C594.621 94.064 593.725 94.32 592.765 94.32C590.685 94.32 589.309 93.04 589.309 90.832V89.68C588.029 92.336 585.405 94.352 581.725 94.352ZM578.973 89.52C578.973 90.864 579.869 92.24 582.557 92.24C585.373 92.24 588.413 90.224 589.277 87.536V84.592L582.205 86.832C580.061 87.504 578.973 88.048 578.973 89.52ZM607.021 77.104V79.088H601.805V94H599.149V79.088H595.789V77.104H599.149V74.576C599.149 71.824 601.005 70.288 604.269 70.288C605.293 70.288 606.093 70.448 607.053 70.672V72.432C606.221 72.24 605.453 72.176 604.813 72.176C602.285 72.176 601.805 73.232 601.805 74.608V77.104H607.021ZM618.927 77.104V79.088H613.711V94H611.055V79.088H607.695V77.104H611.055V74.576C611.055 71.824 612.911 70.288 616.175 70.288C617.199 70.288 617.999 70.448 618.959 70.672V72.432C618.127 72.24 617.359 72.176 616.719 72.176C614.191 72.176 613.711 73.232 613.711 74.608V77.104H618.927ZM636.719 88.336C635.343 92.368 632.175 94.352 628.111 94.352C622.703 94.352 619.567 90.8 619.567 85.776C619.567 80.56 622.766 76.72 628.143 76.72C633.199 76.72 636.559 80.08 636.559 85.936H622.159C622.255 89.808 624.399 92.272 628.303 92.272C631.343 92.272 633.551 90.704 634.447 87.632L636.719 88.336ZM622.255 84.048H633.807C633.423 80.816 631.343 78.8 628.175 78.8C624.879 78.8 622.735 80.656 622.255 84.048ZM657.386 86.736C656.714 91.248 653.61 94.352 648.394 94.352C642.986 94.352 639.754 90.832 639.754 85.776C639.754 80.176 643.658 76.72 648.618 76.72C653.066 76.72 656.362 79.312 657.098 83.312L654.602 83.888C653.962 80.912 652.042 78.8 648.65 78.8C645.13 78.8 642.474 81.136 642.474 85.616C642.474 89.808 644.778 92.272 648.618 92.272C652.426 92.272 654.378 89.84 654.762 86.416L657.386 86.736ZM659.101 77.104H662.429L663.581 72.112H664.893V77.104H670.685V79.088H664.893V89.424C664.893 91.44 665.469 92.176 667.805 92.176C668.701 92.176 669.565 92.048 670.717 91.792V93.776C669.309 94.096 668.285 94.224 666.813 94.224C663.229 94.224 662.237 92.72 662.237 90.352V79.088H659.101V77.104ZM674.758 88.336C675.782 90.928 677.99 92.336 681.478 92.336C684.262 92.336 686.502 91.216 686.502 89.232C686.502 87.472 685.03 86.8 682.758 86.576C681.574 86.448 680.262 86.352 679.014 86.224C676.614 85.968 673.83 85.008 673.83 81.936C673.83 78.8 676.838 76.72 680.87 76.72C683.91 76.72 686.758 77.808 688.358 80.464L686.598 81.776C685.318 79.632 683.302 78.736 680.934 78.736C678.406 78.736 676.326 79.856 676.326 81.648C676.326 83.12 677.382 83.76 679.43 83.984C680.646 84.112 681.926 84.208 683.174 84.336C686.054 84.624 688.998 85.648 688.998 88.944C688.998 92.336 685.894 94.352 681.446 94.352C676.55 94.352 673.894 92.24 672.71 89.168L674.758 88.336ZM706.475 94.352C702.699 94.352 701.067 91.952 701.067 89.904C701.067 87.376 702.731 86.064 705.707 85.232L714.027 82.928V82.736C714.027 80.208 712.459 78.704 709.547 78.704C706.699 78.704 704.875 80.08 703.691 83.344L701.451 82.48C702.955 78.384 705.995 76.752 709.675 76.752C714.219 76.752 716.619 79.248 716.619 82.608V89.776C716.619 91.216 717.067 92.208 718.379 92.208C718.923 92.208 719.531 91.984 719.979 91.728V93.776C719.371 94.064 718.475 94.32 717.515 94.32C715.435 94.32 714.059 93.04 714.059 90.832V89.68C712.779 92.336 710.155 94.352 706.475 94.352ZM703.723 89.52C703.723 90.864 704.619 92.24 707.307 92.24C710.123 92.24 713.163 90.224 714.027 87.536V84.592L706.955 86.832C704.811 87.504 703.723 88.048 703.723 89.52ZM723.186 94V70.64H725.842V94H723.186ZM731.03 94V70.64H733.686V94H731.03ZM748.217 94V77.104H750.873V94H748.217ZM748.185 73.904V70.64H750.905V73.904H748.185ZM756.092 77.104H758.652V81.232H758.748C759.708 78.416 762.076 76.752 765.436 76.752C769.532 76.752 771.964 79.248 771.964 83.568V94H769.308V83.952C769.308 80.656 767.612 78.928 764.508 78.928C760.892 78.928 758.748 81.456 758.748 84.88V94H756.092V77.104ZM784.038 94.352C779.43 94.352 775.91 90.832 775.91 85.552C775.91 80.336 779.398 76.752 784.102 76.752C787.302 76.752 789.958 78.48 791.078 80.976H791.142V70.64H793.798V94H791.142V90.032H791.078C789.926 92.624 787.302 94.352 784.038 94.352ZM778.662 85.552C778.662 89.584 781.158 92.272 784.806 92.272C788.486 92.272 791.174 89.488 791.174 85.968V85.136C791.174 81.52 788.486 78.8 784.806 78.8C781.158 78.8 778.662 81.488 778.662 85.552ZM798.967 94V77.104H801.623V94H798.967ZM798.935 73.904V70.64H801.655V73.904H798.935ZM817.754 79.376C817.306 79.28 816.794 79.184 816.25 79.184C812.026 79.184 809.498 82.672 809.498 87.472V94H806.842V77.104H809.402V82.704H809.466C810.042 80.368 811.194 78.48 813.242 77.52C814.106 77.104 815.226 76.88 816.314 76.88C816.794 76.88 817.306 76.912 817.754 77.04V79.376ZM835.75 88.336C834.374 92.368 831.206 94.352 827.142 94.352C821.734 94.352 818.598 90.8 818.598 85.776C818.598 80.56 821.798 76.72 827.174 76.72C832.23 76.72 835.59 80.08 835.59 85.936H821.19C821.286 89.808 823.43 92.272 827.334 92.272C830.374 92.272 832.582 90.704 833.478 87.632L835.75 88.336ZM821.286 84.048H832.838C832.454 80.816 830.374 78.8 827.206 78.8C823.91 78.8 821.766 80.656 821.286 84.048ZM856.417 86.736C855.745 91.248 852.641 94.352 847.425 94.352C842.017 94.352 838.785 90.832 838.785 85.776C838.785 80.176 842.689 76.72 847.649 76.72C852.097 76.72 855.393 79.312 856.129 83.312L853.633 83.888C852.993 80.912 851.073 78.8 847.681 78.8C844.161 78.8 841.505 81.136 841.505 85.616C841.505 89.808 843.809 92.272 847.649 92.272C851.457 92.272 853.409 89.84 853.793 86.416L856.417 86.736ZM858.133 77.104H861.461L862.613 72.112H863.925V77.104H869.717V79.088H863.925V89.424C863.925 91.44 864.501 92.176 866.837 92.176C867.733 92.176 868.597 92.048 869.749 91.792V93.776C868.341 94.096 867.317 94.224 865.845 94.224C862.261 94.224 861.269 92.72 861.269 90.352V79.088H858.133V77.104ZM873.123 94V70.64H875.779V94H873.123ZM893.351 77.104H896.103L888.199 96.304C886.983 99.312 885.031 100.688 881.639 100.688C880.423 100.688 879.303 100.464 878.727 100.208V98.224C879.719 98.576 880.583 98.704 881.639 98.704C882.727 98.704 883.527 98.544 884.199 98.096C885.159 97.488 885.799 96.144 885.799 94.928C885.799 94.064 885.447 92.88 884.903 91.6L878.599 77.104H881.415L887.079 90.8C887.239 91.12 887.367 91.504 887.495 91.92H887.591L893.351 77.104ZM895.611 90.672H898.939V94H895.611V90.672ZM908.297 70.6719L908.516 71.0156C908.37 71.5885 908.193 72.1927 907.984 72.8281C907.786 73.4531 907.562 74.0938 907.312 74.75C907.073 75.3958 906.818 76.0365 906.547 76.6719C906.286 77.3073 906.026 77.9167 905.766 78.5H903.625C903.771 77.875 903.917 77.2188 904.062 76.5312C904.219 75.8438 904.365 75.1562 904.5 74.4688C904.646 73.7812 904.776 73.1146 904.891 72.4688C905.005 71.8229 905.104 71.224 905.188 70.6719H908.297ZM914.312 70.6719L914.531 71.0156C914.385 71.5885 914.208 72.1927 914 72.8281C913.802 73.4531 913.578 74.0938 913.328 74.75C913.089 75.3958 912.833 76.0365 912.562 76.6719C912.302 77.3073 912.042 77.9167 911.781 78.5H909.641C909.786 77.875 909.932 77.2188 910.078 76.5312C910.234 75.8438 910.38 75.1562 910.516 74.4688C910.661 73.7812 910.792 73.1146 910.906 72.4688C911.021 71.8229 911.12 71.224 911.203 70.6719H914.312Z" fill="#191326"/>
<path d="M72.138 130.78V141H70.976V132.082H70.906L67.392 141H66.118L62.534 132.082H62.45V141H61.33V130.78H63.22L66.748 139.712H66.818L70.304 130.78H72.138ZM84.3988 141L83.1948 138.172H77.9168L76.7688 141H75.5928L79.7928 130.78H81.2488L85.6448 141H84.3988ZM78.3228 137.192H82.7748L80.5348 131.9H80.4648L78.3228 137.192ZM96.3431 141C96.0351 140.58 95.8951 139.656 95.7551 138.62C95.5871 137.332 95.0551 136.772 93.5571 136.772H90.2811V141H89.1191V130.78H93.8931C96.2171 130.78 97.4351 131.914 97.4351 133.594C97.4351 135.176 96.4271 136.016 95.0271 136.268V136.282C96.1191 136.478 96.7491 137.094 96.9591 138.452C97.1691 139.81 97.2811 140.496 97.7571 141H96.3431ZM90.2811 135.764H93.6411C94.6771 135.764 96.2451 135.4 96.2451 133.72C96.2451 132.572 95.5031 131.788 93.8231 131.788H90.2811V135.764ZM104.173 141V131.788H100.253V130.78H109.255V131.788H105.335V141H104.173ZM112.765 141V130.78H113.927V141H112.765ZM126.168 130.78H127.302V141H125.874L120.582 133.538L119.714 132.222V141H118.58V130.78H120.008L125.356 138.368L126.168 139.6V130.78ZM138.029 141V130.78H139.191V140.006H144.861V141H138.029ZM152.074 141.154C149.876 141.154 147.804 140.132 147.804 136.744V130.78H148.966V136.702C148.966 139.236 150.38 140.132 152.102 140.132C153.782 140.132 155.084 139.222 155.084 136.702V130.78H156.246V136.744C156.246 140.104 154.314 141.154 152.074 141.154ZM163.518 141V131.788H159.598V130.78H168.6V131.788H164.68V141H163.518ZM179.699 141V136.254H173.273V141H172.111V130.78H173.273V135.26H179.699V130.78H180.861V141H179.699ZM185.527 141V130.78H192.821V131.788H186.689V135.26H191.813V136.268H186.689V139.992H193.087V141H185.527ZM204.13 141C203.822 140.58 203.682 139.656 203.542 138.62C203.374 137.332 202.842 136.772 201.344 136.772H198.068V141H196.906V130.78H201.68C204.004 130.78 205.222 131.914 205.222 133.594C205.222 135.176 204.214 136.016 202.814 136.268V136.282C203.906 136.478 204.536 137.094 204.746 138.452C204.956 139.81 205.068 140.496 205.544 141H204.13ZM198.068 135.764H201.428C202.464 135.764 204.032 135.4 204.032 133.72C204.032 132.572 203.29 131.788 201.61 131.788H198.068V135.764ZM215.535 130.78H216.697V135.946L222.493 130.78H224.005L219.413 134.882L224.215 141H222.745L218.545 135.652L216.697 137.318V141H215.535V130.78ZM227.666 141V130.78H228.828V141H227.666ZM241.068 130.78H242.202V141H240.774L235.482 133.538L234.614 132.222V141H233.48V130.78H234.908L240.256 138.368L241.068 139.6V130.78ZM255.507 141L255.451 138.382H255.409C254.807 140.062 253.309 141.154 251.279 141.154C248.115 141.154 246.295 139.04 246.295 135.974C246.295 132.782 248.353 130.626 251.531 130.626C254.037 130.626 255.857 131.97 256.361 134.112L255.199 134.406C254.807 132.782 253.547 131.648 251.545 131.648C249.123 131.648 247.513 133.342 247.513 135.974C247.513 138.578 249.095 140.132 251.475 140.132C253.631 140.132 255.115 138.746 255.311 136.8H251.727V135.876H256.515V141H255.507ZM274.054 137.304C274.054 139.922 272.528 141.154 270.176 141.154C267.782 141.154 266.48 139.81 266.368 137.206L267.516 137.122C267.628 139.208 268.51 140.16 270.19 140.16C271.898 140.16 272.892 139.278 272.892 137.36V130.78H274.054V137.304ZM285.714 141C285.406 140.58 285.266 139.656 285.126 138.62C284.958 137.332 284.426 136.772 282.928 136.772H279.652V141H278.49V130.78H283.264C285.588 130.78 286.806 131.914 286.806 133.594C286.806 135.176 285.798 136.016 284.398 136.268V136.282C285.49 136.478 286.12 137.094 286.33 138.452C286.54 139.81 286.652 140.496 287.128 141H285.714ZM279.652 135.764H283.012C284.048 135.764 285.616 135.4 285.616 133.72C285.616 132.572 284.874 131.788 283.194 131.788H279.652V135.764ZM290.748 139.544H292.204V141H290.748V139.544Z" fill="#191326"/>
<defs>
<linearGradient id="paint0_linear_308_1257" x1="0" y1="0" x2="-102.051" y2="83.9612" gradientUnits="userSpaceOnUse">
<stop offset="0.1" stop-color="#FF6D00"/>
<stop offset="0.5" stop-color="#FF2100"/>
<stop offset="0.9" stop-color="#6300C7"/>
</linearGradient>
</defs>
</svg>
