<svg width="986" height="192" viewBox="0 0 986 192" fill="none" xmlns="http://www.w3.org/2000/svg">
<rect width="986" height="192" rx="20" fill="#F5F6FA"/>
<path d="M43.36 84.424L42.528 87H40L44.08 75.56H47.056L51.072 87H48.112L47.328 84.424H43.36ZM45.424 78.168L44 82.472H46.736L45.456 78.168H45.424ZM60.069 87H57.461L57.477 85.512V81.976C57.477 80.968 57.109 80.504 56.341 80.504C55.717 80.504 55.109 80.984 54.693 81.672V85.512L54.709 87H52.101L52.117 85.512V80.296L52.101 78.808H54.597V80.04H54.629C55.349 79.128 56.277 78.568 57.429 78.568C58.549 78.568 59.525 78.936 59.877 80.072H59.909C60.645 79.144 61.621 78.568 62.805 78.568C64.421 78.568 65.429 79.48 65.429 81.432V85.512L65.445 87H62.853L62.869 85.512V81.976C62.869 80.968 62.469 80.504 61.733 80.504C61.093 80.504 60.469 80.984 60.053 81.672V85.512L60.069 87ZM73.4474 84.552L75.3994 85.24C74.9514 85.992 73.7514 87.272 71.3674 87.272C68.7754 87.272 66.9354 85.752 66.9354 83.048C66.9354 80.248 68.8074 78.552 71.2394 78.552C74.3754 78.552 75.5914 80.968 75.5274 83.352H69.3674C69.4314 84.904 70.2634 85.56 71.4314 85.56C72.4234 85.56 73.1434 84.984 73.4474 84.552ZM71.2554 80.168C70.2954 80.168 69.6394 80.712 69.4314 81.96H72.9514C72.9514 80.952 72.3914 80.168 71.2554 80.168ZM77.0229 87L77.0389 85.512V80.296L77.0229 78.808H79.3749V80.888H79.4069C80.0149 79.272 81.0709 78.568 82.1429 78.568C82.2869 78.568 82.3989 78.584 82.4949 78.6V80.92C82.3029 80.872 82.0949 80.84 81.9029 80.84C80.5909 80.84 79.7429 82.216 79.6149 83.56V85.512L79.6309 87H77.0229ZM86.334 87H83.726L83.742 85.512V80.296L83.726 78.808H86.334L86.318 80.296V85.512L86.334 87ZM86.318 77.784H83.742V75.56H86.318V77.784ZM94.0169 84.088L96.1769 84.584C95.9049 85.384 94.9129 87.272 92.2249 87.272C89.8729 87.272 87.8569 85.736 87.8569 82.984C87.8569 80.44 89.6009 78.552 92.2569 78.552C94.4329 78.552 95.8089 79.928 96.0329 81.24L93.7929 81.64C93.6489 80.936 93.1369 80.264 92.2089 80.264C91.2649 80.264 90.5289 81.08 90.5289 82.808C90.5289 84.76 91.3609 85.56 92.3209 85.56C93.2809 85.56 93.8729 84.808 94.0169 84.088ZM99.4596 81.144L97.3636 80.6C97.9876 79.128 99.4436 78.552 101.316 78.552C103.492 78.552 105.092 79.336 105.092 81.64V85.256C105.092 85.96 105.172 86.584 105.236 87H102.852C102.788 86.648 102.756 86.312 102.724 86.008H102.692C102.148 86.648 101.332 87.24 99.8596 87.24C98.0676 87.24 96.9636 86.312 96.9636 84.888C96.9636 82.632 99.7636 81.896 102.628 81.896V81.544C102.628 80.616 102.148 80.136 101.156 80.136C100.324 80.136 99.9076 80.472 99.4596 81.144ZM100.724 85.608C101.572 85.608 102.628 84.984 102.628 83.72V83.144C101.252 83.16 99.6036 83.528 99.6036 84.632C99.6036 85.24 100.02 85.608 100.724 85.608ZM115.2 87H112.592L112.608 85.512V81.976C112.608 80.984 112.224 80.504 111.488 80.504C110.768 80.504 110.048 80.968 109.584 81.656V85.512L109.6 87H106.992L107.008 85.512V80.296L106.992 78.808H109.488V80.072H109.52C110.288 79.128 111.312 78.568 112.544 78.568C114.16 78.568 115.184 79.48 115.184 81.432V85.512L115.2 87ZM128.833 83.032L131.313 83.624C130.993 84.952 129.489 87.304 126.161 87.304C123.121 87.304 120.593 85.32 120.593 81.4C120.593 77.752 122.865 75.256 126.257 75.256C129.249 75.256 130.689 77.16 131.217 78.952L128.657 79.4C128.353 78.392 127.617 77.272 126.193 77.272C124.705 77.272 123.569 78.6 123.569 81.288C123.569 84.424 124.977 85.288 126.257 85.288C127.681 85.288 128.593 84.2 128.833 83.032ZM134.585 81.144L132.489 80.6C133.113 79.128 134.569 78.552 136.441 78.552C138.617 78.552 140.217 79.336 140.217 81.64V85.256C140.217 85.96 140.297 86.584 140.361 87H137.977C137.913 86.648 137.881 86.312 137.849 86.008H137.817C137.273 86.648 136.457 87.24 134.985 87.24C133.193 87.24 132.089 86.312 132.089 84.888C132.089 82.632 134.889 81.896 137.753 81.896V81.544C137.753 80.616 137.273 80.136 136.281 80.136C135.449 80.136 135.033 80.472 134.585 81.144ZM135.849 85.608C136.697 85.608 137.753 84.984 137.753 83.72V83.144C136.377 83.16 134.729 83.528 134.729 84.632C134.729 85.24 135.145 85.608 135.849 85.608ZM150.325 87H147.717L147.733 85.512V81.976C147.733 80.984 147.349 80.504 146.613 80.504C145.893 80.504 145.173 80.968 144.709 81.656V85.512L144.725 87H142.117L142.133 85.512V80.296L142.117 78.808H144.613V80.072H144.645C145.413 79.128 146.437 78.568 147.669 78.568C149.285 78.568 150.309 79.48 150.309 81.432V85.512L150.325 87ZM157.954 84.088L160.114 84.584C159.842 85.384 158.85 87.272 156.162 87.272C153.81 87.272 151.794 85.736 151.794 82.984C151.794 80.44 153.538 78.552 156.194 78.552C158.37 78.552 159.746 79.928 159.97 81.24L157.73 81.64C157.586 80.936 157.074 80.264 156.146 80.264C155.202 80.264 154.466 81.08 154.466 82.808C154.466 84.76 155.298 85.56 156.258 85.56C157.218 85.56 157.81 84.808 157.954 84.088ZM167.541 84.552L169.493 85.24C169.045 85.992 167.845 87.272 165.461 87.272C162.869 87.272 161.029 85.752 161.029 83.048C161.029 80.248 162.901 78.552 165.333 78.552C168.469 78.552 169.685 80.968 169.621 83.352H163.461C163.525 84.904 164.357 85.56 165.525 85.56C166.517 85.56 167.237 84.984 167.541 84.552ZM165.349 80.168C164.389 80.168 163.733 80.712 163.525 81.96H167.045C167.045 80.952 166.485 80.168 165.349 80.168ZM171.117 87L171.133 85.512V80.296L171.117 78.808H173.469V80.888H173.501C174.109 79.272 175.165 78.568 176.237 78.568C176.381 78.568 176.493 78.584 176.589 78.6V80.92C176.397 80.872 176.189 80.84 175.997 80.84C174.685 80.84 173.837 82.216 173.709 83.56V85.512L173.725 87H171.117ZM190.791 77.144L189.303 78.76C188.567 78.072 187.607 77.336 185.991 77.336C184.759 77.336 183.911 77.768 183.911 78.584C183.911 79.688 185.511 79.752 186.887 79.992C189.031 80.36 191.111 81.112 191.111 83.464C191.111 85.656 189.319 87.304 186.151 87.304C183.607 87.304 181.815 86.248 180.807 85.208L182.295 83.608C183.159 84.392 184.263 85.224 186.135 85.224C187.431 85.224 188.375 84.824 188.375 83.928C188.375 82.712 186.695 82.616 185.207 82.36C183.063 81.992 181.175 81.24 181.175 79.016C181.175 76.888 182.903 75.256 185.831 75.256C188.119 75.256 189.895 76.264 190.791 77.144ZM196.681 87.272C193.945 87.272 192.185 85.256 192.185 82.92C192.185 80.552 193.945 78.552 196.681 78.552C199.417 78.552 201.161 80.552 201.161 82.92C201.161 85.256 199.417 87.272 196.681 87.272ZM196.681 85.56C197.737 85.56 198.473 84.76 198.473 82.92C198.473 81.064 197.737 80.264 196.681 80.264C195.609 80.264 194.873 81.064 194.873 82.92C194.873 84.76 195.609 85.56 196.681 85.56ZM208.439 84.088L210.599 84.584C210.327 85.384 209.335 87.272 206.647 87.272C204.295 87.272 202.279 85.736 202.279 82.984C202.279 80.44 204.023 78.552 206.679 78.552C208.855 78.552 210.231 79.928 210.455 81.24L208.215 81.64C208.071 80.936 207.559 80.264 206.631 80.264C205.687 80.264 204.951 81.08 204.951 82.808C204.951 84.76 205.783 85.56 206.743 85.56C207.703 85.56 208.295 84.808 208.439 84.088ZM214.522 87H211.914L211.93 85.512V80.296L211.914 78.808H214.522L214.506 80.296V85.512L214.522 87ZM214.506 77.784H211.93V75.56H214.506V77.784ZM222.572 84.552L224.524 85.24C224.076 85.992 222.876 87.272 220.492 87.272C217.9 87.272 216.06 85.752 216.06 83.048C216.06 80.248 217.932 78.552 220.364 78.552C223.5 78.552 224.716 80.968 224.652 83.352H218.492C218.556 84.904 219.388 85.56 220.556 85.56C221.548 85.56 222.268 84.984 222.572 84.552ZM220.38 80.168C219.42 80.168 218.764 80.712 218.556 81.96H222.076C222.076 80.952 221.516 80.168 220.38 80.168ZM231.191 78.808V80.552H229.223V84.456C229.223 85.112 229.415 85.384 230.119 85.384C230.487 85.384 230.951 85.272 231.239 85.192V86.92C230.855 87.128 230.215 87.272 229.399 87.272C227.511 87.272 226.647 86.616 226.647 84.648V80.552H225.287V78.808H226.727L226.983 76.248H229.223V78.808H231.191ZM232.471 90.264V88.44C232.695 88.472 233.047 88.488 233.255 88.488C234.279 88.488 234.647 88.12 235.111 86.728L231.879 78.808H234.615L236.471 83.864H236.503L238.231 78.808H240.407L237.127 87.512C236.455 89.304 235.303 90.36 233.351 90.36C232.935 90.36 232.711 90.312 232.471 90.264Z" fill="#191326"/>
<path d="M46.672 112.728H43.936V115.496L43.952 117H41.168L41.184 115.496V107.064L41.168 105.56H46.416C48.464 105.56 50.8 106.12 50.8 109.096C50.8 111.944 48.704 112.728 46.672 112.728ZM43.936 107.56V110.728H46.048C47.168 110.728 48.048 110.488 48.048 109.112C48.048 107.704 47.12 107.56 46.048 107.56H43.936ZM52.1304 108.808H54.7384L54.7224 110.312V113.848C54.7224 114.84 55.1064 115.224 55.8264 115.224C56.5624 115.224 57.2824 114.808 57.7464 114.152V110.312L57.7304 108.808H60.3384L60.3224 110.312V115.512L60.3384 117H57.8424V115.752H57.8104C57.0424 116.696 56.0184 117.24 54.7864 117.24C53.1704 117.24 52.1464 116.312 52.1464 114.376V110.312L52.1304 108.808ZM64.1445 117H62.2885C62.2885 116.856 62.3045 115.672 62.3045 115.528V107.048L62.2885 105.56H64.8965L64.8805 107.048V109.672H64.9125C65.6005 108.888 66.4165 108.568 67.3765 108.568C69.5045 108.568 70.9445 110.152 70.9445 112.888C70.9445 115.832 69.2645 117.24 67.1685 117.24C65.5365 117.24 64.7365 116.392 64.4005 115.88H64.3685L64.1445 117ZM66.5765 115.56C67.8405 115.56 68.2565 114.44 68.2565 112.92C68.2565 111.272 67.7765 110.264 66.5765 110.264C65.6805 110.264 65.1205 110.84 64.8805 111.528V113.736C64.8805 114.872 65.5845 115.56 66.5765 115.56ZM75.0836 107.048V115.512C75.0836 115.528 75.0996 117 75.0996 117H72.4916C72.4916 117 72.5076 115.528 72.5076 115.512V107.048L72.4916 105.56H75.0996L75.0836 107.048ZM79.6778 117H77.0698L77.0858 115.512V110.296L77.0698 108.808H79.6778L79.6618 110.296V115.512L79.6778 117ZM79.6618 107.784H77.0858V105.56H79.6618V107.784ZM81.0886 115.992L82.1126 114.504C82.9126 115.048 83.7606 115.592 85.1686 115.592C86.0806 115.592 86.6726 115.368 86.6726 114.792C86.6726 114.008 85.5206 113.976 84.3526 113.784C82.8486 113.544 81.2966 113.048 81.2966 111.368C81.2966 109.864 82.5286 108.488 84.8966 108.488C86.4006 108.488 87.8726 109.048 88.6726 109.688L87.6486 111.176C87.0726 110.76 86.2566 110.216 85.0246 110.216C84.1606 110.216 83.6486 110.488 83.6486 110.984C83.6486 111.704 84.7046 111.736 85.8086 111.912C87.3606 112.152 89.0246 112.664 89.0246 114.44C89.0246 115.96 87.7926 117.32 85.1526 117.32C83.3606 117.32 81.9206 116.696 81.0886 115.992ZM93.0524 107.048V109.944H93.0844C93.8364 109.08 94.8284 108.568 96.0124 108.568C97.6284 108.568 98.6524 109.48 98.6524 111.432V115.512L98.6684 117H96.0604L96.0764 115.512V111.976C96.0764 110.984 95.6924 110.504 94.9564 110.504C94.2364 110.504 93.5164 110.968 93.0524 111.656V115.512L93.0684 117H90.4604L90.4764 115.512V107.048L90.4604 105.56H93.0684L93.0524 107.048ZM106.666 114.552L108.618 115.24C108.17 115.992 106.97 117.272 104.586 117.272C101.994 117.272 100.154 115.752 100.154 113.048C100.154 110.248 102.026 108.552 104.458 108.552C107.594 108.552 108.81 110.968 108.746 113.352H102.586C102.65 114.904 103.482 115.56 104.65 115.56C105.642 115.56 106.362 114.984 106.666 114.552ZM104.474 110.168C103.514 110.168 102.858 110.712 102.65 111.96H106.17C106.17 110.952 105.61 110.168 104.474 110.168ZM113.346 117.24C111.41 117.24 109.842 115.752 109.842 112.92C109.842 110.088 111.41 108.568 113.538 108.568C114.77 108.568 115.378 108.984 115.874 109.544H115.906V107.048L115.89 105.56H118.498L118.482 107.048V115.528L118.498 117H115.986V116.008H115.954C115.442 116.648 114.626 117.24 113.346 117.24ZM114.258 115.56C115.01 115.56 115.634 115 115.906 114.344V111.528C115.666 110.808 115.026 110.264 114.274 110.264C113.026 110.264 112.53 111.208 112.53 112.904C112.53 114.632 113.042 115.56 114.258 115.56ZM128.417 117.288C125.937 117.288 123.969 116.28 123.969 114.312C123.969 112.936 124.913 112.168 126.113 111.64V111.608C125.153 111.096 124.321 110.312 124.321 109C124.321 106.968 126.177 105.64 128.641 105.64C130.769 105.64 132.849 106.632 132.849 108.568C132.849 109.56 132.273 110.408 130.977 110.968V111C132.257 111.56 133.249 112.376 133.249 113.912C133.249 116.136 131.089 117.288 128.417 117.288ZM130.625 114.152C130.625 113.16 129.409 112.824 127.969 112.344C127.009 112.728 126.417 113.224 126.417 113.992C126.417 114.984 127.377 115.464 128.545 115.464C129.777 115.464 130.625 114.968 130.625 114.152ZM126.865 108.712C126.865 109.544 127.745 109.864 129.041 110.296C130.033 109.976 130.545 109.512 130.545 108.84C130.545 107.944 129.681 107.48 128.593 107.48C127.393 107.48 126.865 108.056 126.865 108.712ZM136.182 118.312H134.182L139.03 105.56H141.062L136.182 118.312ZM146.844 115.512L146.86 117H144.076L144.092 115.512V108.856H144.06L141.964 109.928H141.932V107.656L145.324 105.912H146.86L146.844 107.4V115.512ZM153.338 117.288C150.858 117.288 148.89 116.28 148.89 114.312C148.89 112.936 149.834 112.168 151.034 111.64V111.608C150.074 111.096 149.242 110.312 149.242 109C149.242 106.968 151.098 105.64 153.562 105.64C155.69 105.64 157.77 106.632 157.77 108.568C157.77 109.56 157.194 110.408 155.898 110.968V111C157.178 111.56 158.17 112.376 158.17 113.912C158.17 116.136 156.01 117.288 153.338 117.288ZM155.546 114.152C155.546 113.16 154.33 112.824 152.89 112.344C151.93 112.728 151.338 113.224 151.338 113.992C151.338 114.984 152.298 115.464 153.466 115.464C154.698 115.464 155.546 114.968 155.546 114.152ZM151.786 108.712C151.786 109.544 152.666 109.864 153.962 110.296C154.954 109.976 155.466 109.512 155.466 108.84C155.466 107.944 154.602 107.48 153.514 107.48C152.314 107.48 151.786 108.056 151.786 108.712ZM161.104 118.312H159.104L163.952 105.56H165.984L161.104 118.312ZM175.75 109.032C175.75 110.936 174.198 111.992 172.694 112.968C171.798 113.544 170.87 114.104 170.118 114.76V114.792H175.718V117H167.062V115.272C168.054 113.96 169.43 112.984 170.63 112.056C171.878 111.112 173.014 110.28 173.014 109.128C173.014 108.36 172.502 107.624 171.43 107.624C170.246 107.624 169.526 108.504 169.046 109.704L167.062 108.808C168.038 106.696 169.494 105.656 171.654 105.656C174.214 105.656 175.75 107.128 175.75 109.032ZM176.931 115.256L178.515 113.864C179.235 114.664 180.099 115.304 181.379 115.32C182.659 115.32 183.347 114.728 183.347 113.784C183.347 112.664 182.435 112.232 181.091 112.232H179.683V110.392H181.059C182.291 110.376 182.995 109.8 182.995 108.936C182.995 108.12 182.355 107.624 181.299 107.624C180.179 107.624 179.363 108.216 178.787 108.872L177.315 107.48C178.195 106.44 179.507 105.656 181.571 105.656C183.827 105.656 185.635 106.712 185.635 108.536C185.635 110.264 184.099 110.952 183.603 111.032V111.096C184.083 111.16 186.003 111.768 186.003 113.976C186.003 116.072 184.179 117.288 181.571 117.288C179.027 117.288 177.667 116.152 176.931 115.256Z" fill="#191326"/>
<path d="M281 40V152" stroke="#CACFE0" stroke-width="2" stroke-linejoin="bevel"/>
<path d="M344.008 69H342.536L342.552 67.496V59.064L342.536 57.56H344.008L343.992 59.064V67.496L344.008 69ZM354.043 69H352.635L352.651 67.608V64.152C352.651 62.712 352.139 61.992 351.035 61.992C349.899 61.992 348.827 62.744 348.235 63.8V67.608L348.251 69H346.843L346.859 67.608V62.424L346.843 61.016H348.203V62.392H348.235C348.827 61.592 349.755 60.792 351.227 60.792C352.955 60.792 354.027 61.912 354.027 64.024V67.608L354.043 69ZM355.587 62.12V61.016H357.155V59.992C357.155 57.912 358.243 57.448 359.555 57.448C360.003 57.448 360.291 57.512 360.483 57.56V58.696C360.275 58.648 359.955 58.584 359.619 58.584C358.739 58.584 358.531 59.016 358.531 59.944V61.016H360.483V62.12H358.531V67.608L358.547 69H357.139L357.155 67.608V62.12H355.587ZM365.489 69.224C363.009 69.224 361.425 67.224 361.425 65.016C361.425 62.792 363.009 60.792 365.489 60.792C367.969 60.792 369.553 62.792 369.553 65.016C369.553 67.224 367.969 69.224 365.489 69.224ZM365.489 68.072C366.913 68.072 368.113 66.952 368.113 65.016C368.113 63.08 366.913 61.944 365.489 61.944C364.049 61.944 362.865 63.08 362.865 65.016C362.865 66.952 364.049 68.072 365.489 68.072ZM374.696 66.152C374.136 66.152 373.624 66.072 373.192 65.928C372.856 66.024 372.6 66.344 372.6 66.696C372.6 67.272 373.224 67.624 374.12 67.64L376.296 67.688C378.312 67.736 379.192 68.6 379.192 69.896C379.192 71.832 377.128 72.504 374.744 72.504C372.584 72.504 370.84 71.944 370.84 70.488C370.84 69.704 371.336 68.888 372.52 68.632V68.6C371.88 68.344 371.304 67.864 371.304 67.08C371.304 66.328 371.8 65.816 372.392 65.528C371.752 65.064 371.4 64.36 371.4 63.496C371.4 61.864 372.664 60.792 374.712 60.792C375.656 60.792 376.424 61.032 376.984 61.432C377.32 60.888 377.832 60.344 378.744 60.344C379.064 60.344 379.224 60.408 379.336 60.456V61.576C379.112 61.528 378.872 61.496 378.68 61.496C378.232 61.496 377.8 61.656 377.608 62.072C377.864 62.456 378.008 62.936 378.008 63.464C378.008 65.096 376.728 66.152 374.696 66.152ZM376.296 68.92L373.688 68.856C372.936 69.096 372.216 69.576 372.216 70.28C372.216 70.968 372.92 71.464 374.968 71.464C376.872 71.464 377.832 71.048 377.832 70.104C377.832 69.704 377.656 68.952 376.296 68.92ZM374.696 65.112C375.976 65.112 376.712 64.584 376.712 63.48C376.712 62.376 375.976 61.832 374.696 61.832C373.432 61.832 372.696 62.376 372.696 63.48C372.696 64.584 373.432 65.112 374.696 65.112ZM380.905 69L380.921 67.608V62.424L380.905 61.016H382.265V63.72H382.297C383.001 61.624 384.233 60.792 385.385 60.792C385.497 60.792 385.641 60.808 385.705 60.824V62.12C385.593 62.104 385.481 62.104 385.385 62.104C383.673 62.104 382.457 64.408 382.297 65.848V67.608L382.313 69H380.905ZM387.779 63.016L386.915 62.328C387.507 61.512 388.515 60.792 390.243 60.792C392.083 60.792 393.587 61.608 393.587 63.752V67.048C393.587 67.976 393.667 68.568 393.731 69H392.403C392.307 68.504 392.291 67.944 392.259 67.48H392.227C391.843 68.184 390.739 69.208 389.155 69.208C387.971 69.208 386.611 68.648 386.611 67.016C386.611 64.136 390.515 64.008 392.259 63.992V63.736C392.259 62.456 391.507 61.88 390.163 61.88C389.075 61.88 388.467 62.264 387.779 63.016ZM389.395 68.12C390.547 68.12 392.227 67.336 392.259 64.952C390.307 64.984 388.051 65.384 388.051 66.952C388.051 67.656 388.499 68.12 389.395 68.12ZM400.204 69.224C398.748 69.224 397.98 68.424 397.548 67.576H397.516V71.032L397.532 72.424H396.124L396.14 71.032V62.424L396.124 61.016H397.5V62.472H397.532C397.948 61.672 398.684 60.792 400.204 60.792C402.268 60.792 403.852 62.44 403.852 64.984C403.852 67.544 402.268 69.224 400.204 69.224ZM400.012 61.944C398.588 61.944 397.468 63.016 397.468 64.984V65.048C397.468 67.16 398.716 68.072 400.012 68.072C401.564 68.072 402.396 66.76 402.396 64.968C402.396 63.112 401.516 61.944 400.012 61.944ZM407.36 58.968V62.36H407.392C407.984 61.56 408.912 60.792 410.352 60.792C412.08 60.792 413.152 61.912 413.152 64.024V67.608L413.168 69H411.76L411.776 67.608V64.152C411.776 62.712 411.264 61.992 410.16 61.992C409.024 61.992 407.952 62.744 407.36 63.8V67.608L407.376 69H405.968L405.984 67.608V58.968L405.968 57.56H407.376L407.36 58.968Z" fill="#6300C7"/>
<rect x="322" y="41" width="112" height="44" rx="5" stroke="#6300C7" stroke-width="2"/>
<path d="M485.16 65.592L486.408 66.072C486.008 67.24 484.488 69.304 481.384 69.304C478.392 69.304 475.88 67.368 475.88 63.384C475.88 59.88 477.992 57.256 481.464 57.256C484.136 57.256 485.576 58.728 486.328 60.376L485.016 60.904C484.616 59.896 483.512 58.536 481.448 58.536C479.16 58.536 477.448 60.36 477.448 63.336C477.448 66.856 479.592 68.024 481.432 68.024C483.592 68.024 484.872 66.424 485.16 65.592ZM491.692 69.224C489.212 69.224 487.628 67.224 487.628 65.016C487.628 62.792 489.212 60.792 491.692 60.792C494.172 60.792 495.756 62.792 495.756 65.016C495.756 67.224 494.172 69.224 491.692 69.224ZM491.692 68.072C493.116 68.072 494.316 66.952 494.316 65.016C494.316 63.08 493.116 61.944 491.692 61.944C490.252 61.944 489.068 63.08 489.068 65.016C489.068 66.952 490.252 68.072 491.692 68.072ZM497.171 67.736L497.987 66.904C498.515 67.336 499.347 68.152 500.899 68.152C501.891 68.152 502.995 67.768 502.995 66.792C502.995 65.752 501.731 65.672 500.691 65.528C499.299 65.336 497.459 65.048 497.459 63.272C497.459 61.928 498.531 60.76 500.579 60.76C502.339 60.76 503.571 61.656 504.035 62.168L503.219 63.016C502.787 62.6 501.923 61.864 500.675 61.864C499.763 61.864 498.755 62.264 498.755 63.128C498.755 64.008 499.811 64.12 500.931 64.264C502.259 64.424 504.291 64.712 504.291 66.664C504.291 68.072 503.203 69.256 500.947 69.256C498.915 69.256 497.667 68.312 497.171 67.736ZM510.41 61.016V62.12H508.218V67.048C508.218 67.752 508.394 68.088 509.146 68.088C509.674 68.088 510.17 67.928 510.474 67.816V68.952C510.154 69.064 509.69 69.224 508.922 69.224C507.77 69.224 506.842 68.856 506.842 67.16V62.12H505.338V61.016H506.874L507.066 58.744H508.218V61.016H510.41Z" fill="#6300C7"/>
<rect x="456" y="41" width="75" height="44" rx="5" stroke="#6300C7" stroke-width="2"/>
<path d="M582.16 65.592L583.408 66.072C583.008 67.24 581.488 69.304 578.384 69.304C575.392 69.304 572.88 67.368 572.88 63.384C572.88 59.88 574.992 57.256 578.464 57.256C581.136 57.256 582.576 58.728 583.328 60.376L582.016 60.904C581.616 59.896 580.512 58.536 578.448 58.536C576.16 58.536 574.448 60.36 574.448 63.336C574.448 66.856 576.592 68.024 578.432 68.024C580.592 68.024 581.872 66.424 582.16 65.592ZM588.692 69.224C586.212 69.224 584.628 67.224 584.628 65.016C584.628 62.792 586.212 60.792 588.692 60.792C591.172 60.792 592.756 62.792 592.756 65.016C592.756 67.224 591.172 69.224 588.692 69.224ZM588.692 68.072C590.116 68.072 591.316 66.952 591.316 65.016C591.316 63.08 590.116 61.944 588.692 61.944C587.252 61.944 586.068 63.08 586.068 65.016C586.068 66.952 587.252 68.072 588.692 68.072ZM596.817 69L593.697 61.016H595.201L597.681 68.072H597.713L600.145 61.016H601.569L598.529 69H596.817ZM609.334 66.904L610.15 67.704C609.878 68.04 608.646 69.224 606.63 69.224C604.262 69.224 602.566 67.8 602.566 65.192C602.566 62.456 604.262 60.792 606.502 60.792C609.318 60.792 610.374 62.92 610.262 65.256H603.974C603.99 66.936 605.078 68.056 606.742 68.056C607.974 68.056 609.03 67.256 609.334 66.904ZM606.55 61.928C605.286 61.928 604.326 62.6 604.054 64.2H608.774C608.774 62.824 607.878 61.928 606.55 61.928ZM612.374 69L612.39 67.608V62.424L612.374 61.016H613.734V63.72H613.766C614.47 61.624 615.702 60.792 616.854 60.792C616.966 60.792 617.11 60.808 617.174 60.824V62.12C617.062 62.104 616.95 62.104 616.854 62.104C615.142 62.104 613.926 64.408 613.766 65.848V67.608L613.782 69H612.374ZM619.247 63.016L618.383 62.328C618.975 61.512 619.983 60.792 621.711 60.792C623.551 60.792 625.055 61.608 625.055 63.752V67.048C625.055 67.976 625.135 68.568 625.199 69H623.871C623.775 68.504 623.759 67.944 623.727 67.48H623.695C623.311 68.184 622.207 69.208 620.623 69.208C619.439 69.208 618.079 68.648 618.079 67.016C618.079 64.136 621.983 64.008 623.727 63.992V63.736C623.727 62.456 622.975 61.88 621.631 61.88C620.543 61.88 619.935 62.264 619.247 63.016ZM620.863 68.12C622.015 68.12 623.695 67.336 623.727 64.952C621.775 64.984 619.519 65.384 619.519 66.952C619.519 67.656 619.967 68.12 620.863 68.12ZM630.649 66.152C630.089 66.152 629.577 66.072 629.145 65.928C628.809 66.024 628.553 66.344 628.553 66.696C628.553 67.272 629.177 67.624 630.073 67.64L632.249 67.688C634.265 67.736 635.145 68.6 635.145 69.896C635.145 71.832 633.081 72.504 630.697 72.504C628.537 72.504 626.793 71.944 626.793 70.488C626.793 69.704 627.289 68.888 628.473 68.632V68.6C627.833 68.344 627.257 67.864 627.257 67.08C627.257 66.328 627.753 65.816 628.345 65.528C627.705 65.064 627.353 64.36 627.353 63.496C627.353 61.864 628.617 60.792 630.665 60.792C631.609 60.792 632.377 61.032 632.937 61.432C633.273 60.888 633.785 60.344 634.697 60.344C635.017 60.344 635.177 60.408 635.289 60.456V61.576C635.065 61.528 634.825 61.496 634.633 61.496C634.185 61.496 633.753 61.656 633.561 62.072C633.817 62.456 633.961 62.936 633.961 63.464C633.961 65.096 632.681 66.152 630.649 66.152ZM632.249 68.92L629.641 68.856C628.889 69.096 628.169 69.576 628.169 70.28C628.169 70.968 628.873 71.464 630.921 71.464C632.825 71.464 633.785 71.048 633.785 70.104C633.785 69.704 633.609 68.952 632.249 68.92ZM630.649 65.112C631.929 65.112 632.665 64.584 632.665 63.48C632.665 62.376 631.929 61.832 630.649 61.832C629.385 61.832 628.649 62.376 628.649 63.48C628.649 64.584 629.385 65.112 630.649 65.112ZM642.959 66.904L643.775 67.704C643.503 68.04 642.271 69.224 640.255 69.224C637.887 69.224 636.191 67.8 636.191 65.192C636.191 62.456 637.887 60.792 640.127 60.792C642.943 60.792 643.999 62.92 643.887 65.256H637.599C637.615 66.936 638.703 68.056 640.367 68.056C641.599 68.056 642.655 67.256 642.959 66.904ZM640.175 61.928C638.911 61.928 637.951 62.6 637.679 64.2H642.399C642.399 62.824 641.503 61.928 640.175 61.928Z" fill="#6300C7"/>
<rect x="553" y="41" width="111" height="44" rx="5" stroke="#6300C7" stroke-width="2"/>
<path d="M716.232 69H714.76L714.776 67.496V63.8H707.992V67.496L708.008 69H706.536L706.552 67.496V59.064L706.536 57.56H708.008L707.992 59.064V62.552H714.776V59.064L714.76 57.56H716.232L716.216 59.064V67.496L716.232 69ZM725.35 66.904L726.166 67.704C725.894 68.04 724.662 69.224 722.646 69.224C720.278 69.224 718.582 67.8 718.582 65.192C718.582 62.456 720.278 60.792 722.518 60.792C725.334 60.792 726.39 62.92 726.278 65.256H719.99C720.006 66.936 721.094 68.056 722.758 68.056C723.99 68.056 725.046 67.256 725.35 66.904ZM722.566 61.928C721.302 61.928 720.342 62.6 720.07 64.2H724.79C724.79 62.824 723.894 61.928 722.566 61.928ZM728.982 63.016L728.118 62.328C728.71 61.512 729.718 60.792 731.446 60.792C733.286 60.792 734.79 61.608 734.79 63.752V67.048C734.79 67.976 734.87 68.568 734.934 69H733.606C733.51 68.504 733.494 67.944 733.462 67.48H733.43C733.046 68.184 731.942 69.208 730.358 69.208C729.174 69.208 727.814 68.648 727.814 67.016C727.814 64.136 731.718 64.008 733.462 63.992V63.736C733.462 62.456 732.71 61.88 731.366 61.88C730.278 61.88 729.67 62.264 728.982 63.016ZM730.598 68.12C731.75 68.12 733.43 67.336 733.462 64.952C731.51 64.984 729.254 65.384 729.254 66.952C729.254 67.656 729.702 68.12 730.598 68.12ZM738.735 58.968V67.608L738.751 69H737.343L737.359 67.608V58.968L737.343 57.56H738.751L738.735 58.968ZM745.535 61.016V62.12H743.343V67.048C743.343 67.752 743.519 68.088 744.271 68.088C744.799 68.088 745.295 67.928 745.599 67.816V68.952C745.279 69.064 744.815 69.224 744.047 69.224C742.895 69.224 741.967 68.856 741.967 67.16V62.12H740.463V61.016H741.999L742.191 58.744H743.343V61.016H745.535ZM748.922 58.968V62.36H748.954C749.546 61.56 750.474 60.792 751.914 60.792C753.642 60.792 754.714 61.912 754.714 64.024V67.608L754.73 69H753.322L753.338 67.608V64.152C753.338 62.712 752.826 61.992 751.722 61.992C750.586 61.992 749.514 62.744 748.922 63.8V67.608L748.938 69H747.53L747.546 67.608V58.968L747.53 57.56H748.938L748.922 58.968ZM768.421 62.552V63.8H762.789V67.736H769.749V69H761.333L761.349 67.496V59.064L761.333 57.56H769.749V58.824H762.789V62.552H768.421ZM777.37 72.424L777.386 71.016V67.608H777.354C776.922 68.44 776.106 69.224 774.65 69.224C772.474 69.224 771.05 67.416 771.05 64.984C771.05 62.296 772.81 60.792 774.698 60.792C776.266 60.792 777.034 61.784 777.402 62.472H777.434L777.594 61.016H778.778L778.762 62.392V71.016L778.778 72.424H777.37ZM774.874 61.944C773.37 61.944 772.49 63.112 772.49 64.984C772.49 66.808 773.322 68.072 774.858 68.072C776.17 68.072 777.418 67.16 777.418 65.048V64.984C777.418 63 776.298 61.944 774.874 61.944ZM781.278 61.016H782.686L782.67 62.408V65.864C782.67 67.304 783.182 68.024 784.286 68.024C785.422 68.024 786.478 67.272 787.086 66.216V62.408L787.07 61.016H788.478L788.462 62.408V67.592L788.478 69H787.118V67.624H787.086C786.494 68.44 785.566 69.224 784.094 69.224C782.366 69.224 781.294 68.104 781.294 65.992V62.408L781.278 61.016ZM792.485 69H791.077L791.093 67.608V62.424L791.077 61.016H792.485L792.469 62.424V67.608L792.485 69ZM792.469 59.336H791.093V57.56H792.469V59.336ZM799.253 61.016V62.12H797.061V67.048C797.061 67.752 797.237 68.088 797.989 68.088C798.517 68.088 799.013 67.928 799.317 67.816V68.952C798.997 69.064 798.533 69.224 797.765 69.224C796.613 69.224 795.685 68.856 795.685 67.16V62.12H794.181V61.016H795.717L795.909 58.744H797.061V61.016H799.253ZM800.305 61.016H801.809L804.289 67.64H804.321L806.577 61.016H808.001L804.561 70.296C803.937 71.976 802.721 72.488 801.409 72.488C800.961 72.488 800.673 72.408 800.481 72.376V71.256C800.689 71.304 801.025 71.368 801.329 71.368C802.545 71.368 803.089 70.76 803.569 69.592L803.729 69.192L800.305 61.016Z" fill="#6300C7"/>
<rect x="686" y="41" width="142" height="44" rx="5" stroke="#6300C7" stroke-width="2"/>
<path d="M342.536 135L342.552 133.496V125.064L342.536 123.56H344.824L348.472 132.824H348.504L352.152 123.56H354.28L354.264 125.064V133.496L354.28 135H352.808L352.824 133.496V126.264L352.856 125.176H352.824L348.968 135H347.864L343.992 125.176H343.96L343.992 126.264V133.496L344.008 135H342.536ZM363.397 132.904L364.213 133.704C363.941 134.04 362.709 135.224 360.693 135.224C358.325 135.224 356.629 133.8 356.629 131.192C356.629 128.456 358.325 126.792 360.565 126.792C363.381 126.792 364.437 128.92 364.325 131.256H358.037C358.053 132.936 359.141 134.056 360.805 134.056C362.037 134.056 363.093 133.256 363.397 132.904ZM360.613 127.928C359.349 127.928 358.389 128.6 358.117 130.2H362.837C362.837 128.824 361.941 127.928 360.613 127.928ZM369.605 135.224C367.525 135.224 365.957 133.56 365.957 131C365.957 128.456 367.525 126.792 369.605 126.792C371.109 126.792 371.829 127.64 372.245 128.408H372.277V124.968L372.261 123.56H373.669L373.653 124.968V133.624L373.669 135H372.325V133.512H372.293C371.845 134.408 371.077 135.224 369.605 135.224ZM369.781 127.944C368.277 127.944 367.397 129.112 367.397 130.984C367.397 132.808 368.229 134.072 369.765 134.072C371.077 134.072 372.325 133.16 372.325 131.048V130.984C372.325 129 371.205 127.944 369.781 127.944ZM377.673 135H376.265L376.281 133.608V128.424L376.265 127.016H377.673L377.657 128.424V133.608L377.673 135ZM377.657 125.336H376.281V123.56H377.657V125.336ZM385.977 132.584L387.081 133.128C386.921 133.512 385.865 135.224 383.657 135.224C381.689 135.224 379.769 133.864 379.769 131.08C379.769 128.616 381.289 126.792 383.689 126.792C386.121 126.792 386.905 128.664 386.985 128.808L385.785 129.368C385.577 128.872 384.873 127.944 383.625 127.944C382.281 127.944 381.209 129.032 381.209 130.968C381.209 132.904 382.281 134.056 383.673 134.056C385.001 134.056 385.785 133 385.977 132.584ZM389.529 129.016L388.665 128.328C389.257 127.512 390.265 126.792 391.993 126.792C393.833 126.792 395.337 127.608 395.337 129.752V133.048C395.337 133.976 395.417 134.568 395.481 135H394.153C394.057 134.504 394.041 133.944 394.009 133.48H393.977C393.593 134.184 392.489 135.208 390.905 135.208C389.721 135.208 388.361 134.648 388.361 133.016C388.361 130.136 392.265 130.008 394.009 129.992V129.736C394.009 128.456 393.257 127.88 391.913 127.88C390.825 127.88 390.217 128.264 389.529 129.016ZM391.145 134.12C392.297 134.12 393.977 133.336 394.009 130.952C392.057 130.984 389.801 131.384 389.801 132.952C389.801 133.656 390.249 134.12 391.145 134.12ZM399.282 135H397.874L397.89 133.608V128.424L397.874 127.016H399.282L399.266 128.424V133.608L399.282 135ZM399.266 125.336H397.89V123.56H399.266V125.336ZM405.042 135.224C402.962 135.224 401.394 133.56 401.394 131C401.394 128.456 402.962 126.792 405.042 126.792C406.546 126.792 407.266 127.64 407.682 128.408H407.714V124.968L407.698 123.56H409.106L409.09 124.968V133.624L409.106 135H407.762V133.512H407.73C407.282 134.408 406.514 135.224 405.042 135.224ZM405.218 127.944C403.714 127.944 402.834 129.112 402.834 130.984C402.834 132.808 403.666 134.072 405.202 134.072C406.514 134.072 407.762 133.16 407.762 131.048V130.984C407.762 129 406.642 127.944 405.218 127.944Z" fill="#6300C7"/>
<rect x="322" y="107" width="108" height="44" rx="5" stroke="#6300C7" stroke-width="2"/>
<path d="M472.536 135L472.552 133.496V125.064L472.536 123.56H474.824L478.472 132.824H478.504L482.152 123.56H484.28L484.264 125.064V133.496L484.28 135H482.808L482.824 133.496V126.264L482.856 125.176H482.824L478.968 135H477.864L473.992 125.176H473.96L473.992 126.264V133.496L474.008 135H472.536ZM493.397 132.904L494.213 133.704C493.941 134.04 492.709 135.224 490.693 135.224C488.325 135.224 486.629 133.8 486.629 131.192C486.629 128.456 488.325 126.792 490.565 126.792C493.381 126.792 494.437 128.92 494.325 131.256H488.037C488.053 132.936 489.141 134.056 490.805 134.056C492.037 134.056 493.093 133.256 493.397 132.904ZM490.613 127.928C489.349 127.928 488.389 128.6 488.117 130.2H492.837C492.837 128.824 491.941 127.928 490.613 127.928ZM499.605 135.224C497.525 135.224 495.957 133.56 495.957 131C495.957 128.456 497.525 126.792 499.605 126.792C501.109 126.792 501.829 127.64 502.245 128.408H502.277V124.968L502.261 123.56H503.669L503.653 124.968V133.624L503.669 135H502.325V133.512H502.293C501.845 134.408 501.077 135.224 499.605 135.224ZM499.781 127.944C498.277 127.944 497.397 129.112 497.397 130.984C497.397 132.808 498.229 134.072 499.765 134.072C501.077 134.072 502.325 133.16 502.325 131.048V130.984C502.325 129 501.205 127.944 499.781 127.944ZM507.673 135H506.265L506.281 133.608V128.424L506.265 127.016H507.673L507.657 128.424V133.608L507.673 135ZM507.657 125.336H506.281V123.56H507.657V125.336ZM515.977 132.584L517.081 133.128C516.921 133.512 515.865 135.224 513.657 135.224C511.689 135.224 509.769 133.864 509.769 131.08C509.769 128.616 511.289 126.792 513.689 126.792C516.121 126.792 516.905 128.664 516.985 128.808L515.785 129.368C515.577 128.872 514.873 127.944 513.625 127.944C512.281 127.944 511.209 129.032 511.209 130.968C511.209 132.904 512.281 134.056 513.673 134.056C515.001 134.056 515.785 133 515.977 132.584ZM519.529 129.016L518.665 128.328C519.257 127.512 520.265 126.792 521.993 126.792C523.833 126.792 525.337 127.608 525.337 129.752V133.048C525.337 133.976 525.417 134.568 525.481 135H524.153C524.057 134.504 524.041 133.944 524.009 133.48H523.977C523.593 134.184 522.489 135.208 520.905 135.208C519.721 135.208 518.361 134.648 518.361 133.016C518.361 130.136 522.265 130.008 524.009 129.992V129.736C524.009 128.456 523.257 127.88 521.913 127.88C520.825 127.88 520.217 128.264 519.529 129.016ZM521.145 134.12C522.297 134.12 523.977 133.336 524.009 130.952C522.057 130.984 519.801 131.384 519.801 132.952C519.801 133.656 520.249 134.12 521.145 134.12ZM527.874 135L527.89 133.608V128.424L527.874 127.016H529.234V129.72H529.266C529.97 127.624 531.202 126.792 532.354 126.792C532.466 126.792 532.61 126.808 532.674 126.824V128.12C532.562 128.104 532.45 128.104 532.354 128.104C530.642 128.104 529.426 130.408 529.266 131.848V133.608L529.282 135H527.874ZM540.303 132.904L541.119 133.704C540.847 134.04 539.615 135.224 537.599 135.224C535.231 135.224 533.535 133.8 533.535 131.192C533.535 128.456 535.231 126.792 537.471 126.792C540.287 126.792 541.343 128.92 541.231 131.256H534.943C534.959 132.936 536.047 134.056 537.711 134.056C538.943 134.056 539.999 133.256 540.303 132.904ZM537.519 127.928C536.255 127.928 535.295 128.6 535.023 130.2H539.743C539.743 128.824 538.847 127.928 537.519 127.928Z" fill="#6300C7"/>
<rect x="452" y="107" width="110" height="44" rx="5" stroke="#6300C7" stroke-width="2"/>
</svg>
