<svg width="240" height="96" viewBox="0 0 240 96" fill="none" xmlns="http://www.w3.org/2000/svg">
<path d="M89.568 24L65.568 17.568L72 6.432L48 12.864V0L30.432 17.568L24 6.432L17.568 30.432L6.432 24L12.864 48H0L17.568 65.568L6.432 72L30.432 78.432L24 89.568L48 83.136V96L65.568 78.432L72 89.568L78.432 65.568L89.568 72L83.136 48H96L78.432 30.432L89.568 24ZM62.304 23.136L64.32 38.496L72.864 33.6L66.816 48H76.608L64.32 57.408L72.864 62.304L57.504 64.32L62.4 72.864L48 66.816V76.608L38.592 64.32L33.696 72.864L31.68 57.504L23.136 62.4L29.184 48H19.296L31.68 38.592L23.136 33.696L38.496 31.68L33.6 23.136L48 29.184V19.296L57.408 31.68L62.304 23.136Z" fill="#CC0000"/>
<path d="M153.6 38.5921H145.152V33.2161H168.096V38.5921H159.648V62.7841H153.6V38.5921Z" fill="#363136"/>
<path d="M181.248 33.2161H201.408V38.5921H187.392V45.4081H199.296V50.5921H187.392V57.4081H201.408V62.7841H181.248V33.2161Z" fill="#363136"/>
<path d="M224.545 49.056C223.105 47.712 220.993 45.024 220.993 45.024C220.993 45.024 221.473 48.288 221.473 50.4V62.784H215.809V33.024H216.385L231.265 47.04C232.705 48.384 234.721 51.072 234.721 51.072C234.721 51.072 234.337 47.712 234.337 45.696V33.216H240.001V62.976H239.425L224.545 49.056Z" fill="#363136"/>
<path d="M132 62.784H138.336L124.8 33.024H124.32L111.36 62.784H117.216L119.52 57.12H129.6L132 62.784ZM121.632 52.032L122.784 49.248C123.648 47.232 124.512 44.16 124.512 43.968C124.608 44.256 125.472 47.232 126.336 49.248L127.488 52.032H121.632Z" fill="#363136"/>
</svg>
