<svg width="72" height="72" viewBox="0 0 72 72" fill="none" xmlns="http://www.w3.org/2000/svg">
<path d="M35.8854 50.4159L28.3961 37.5472C28.3064 37.3934 28.3064 37.2033 28.3961 37.0491L36.5105 23.1017C36.7016 22.7735 37.1762 22.7722 37.3689 23.0998L41.088 29.424C41.1774 29.5759 41.3404 29.6688 41.5168 29.6688H68.2304C68.5538 29.6688 68.791 29.3654 68.7125 29.0522L68.4713 28.0923C64.8068 13.515 51.6468 3.3263 36.4519 3.28342C36.3966 3.28244 36.3436 3.27295 36.2886 3.27295C36.2827 3.27295 36.2755 3.27295 36.2696 3.2736C36.179 3.2736 36.0916 3.28866 36.0012 3.29128C26.2056 3.39404 17.0338 7.72648 10.7924 15.2272C4.47703 22.8167 1.97208 32.8041 3.91772 42.6288C6.49107 55.6222 17.098 65.908 30.3113 68.2251C32.0118 68.5233 33.726 68.6846 35.4387 68.7281L37.561 68.7013C44.1696 68.4699 50.6447 66.4065 56.0379 62.6657C62.7519 58.009 67.1743 51.3287 68.4899 43.8558L68.6493 42.9499C68.7027 42.6465 68.4687 42.3683 68.16 42.3683H41.7518C41.5754 42.368 41.412 42.4612 41.323 42.6131L36.7442 50.4179C36.5517 50.7458 36.0768 50.7448 35.8857 50.4163L35.8854 50.4159ZM36.9287 66.2013C36.4859 66.2095 36.0422 66.2075 35.5987 66.1973C35.58 66.197 35.5614 66.1957 35.5431 66.1937C33.3382 65.9643 31.404 64.7387 30.2792 62.8012L14.8624 36.2453C14.773 36.0915 14.773 35.9017 14.8624 35.7479L19.1945 28.3018C19.3859 27.9725 19.8624 27.9725 20.0539 28.3018L40.8413 64.02C40.965 64.2327 40.9116 64.5008 40.7218 64.6579C39.6736 65.5258 38.3835 66.0628 36.984 66.198C36.9657 66.1996 36.9471 66.2009 36.9284 66.2013H36.9287ZM21.2498 25.268C21.1601 25.1141 21.1601 24.924 21.2498 24.7699L30.2792 9.24993C31.4842 7.17928 33.6141 5.92288 36.0098 5.83091C36.125 5.8296 36.2395 5.82142 36.3554 5.82142C36.4126 5.82142 36.4689 5.82797 36.5262 5.82829C38.6011 5.89702 40.4724 6.84644 41.7279 8.43895C41.8516 8.59604 41.8607 8.81564 41.7603 8.98844L27.1999 34.0153C27.0084 34.3445 26.5319 34.3445 26.3405 34.0153L21.2498 25.268ZM38.5605 19.579L43.0091 11.9323C43.2003 11.6037 43.6755 11.603 43.8676 11.9306L52.3472 26.3833C52.5413 26.7139 52.3024 27.1298 51.9185 27.1298H42.9931C42.8167 27.1298 42.6537 27.0365 42.5644 26.885L38.5615 20.0791C38.4708 19.9249 38.4702 19.7338 38.5602 19.579H38.5605ZM64.8549 27.1295H56.0382C55.8618 27.1295 55.6985 27.0362 55.6095 26.884L44.5025 7.95328C44.4675 7.89371 44.4318 7.83448 44.3955 7.77622C44.1556 7.392 44.5156 6.91157 44.9512 7.03757C54.4411 9.77684 62.1415 16.9559 65.3291 26.4802C65.4362 26.7996 65.192 27.1295 64.8549 27.1295ZM12.775 16.8417C16.6853 12.1417 21.8451 8.796 27.5831 7.0991C28.0187 6.97015 28.3804 7.44862 28.1434 7.83546C28.1136 7.88422 28.0842 7.93364 28.0551 7.98339L7.55666 43.2163C7.3315 43.6034 6.74437 43.5193 6.64161 43.0837C6.56797 42.7712 6.49957 42.457 6.43674 42.1408C4.63968 33.0636 6.94957 23.8427 12.775 16.8417ZM8.17881 47.2371L12.8061 39.2834C12.9979 38.9542 13.4744 38.9542 13.6659 39.2837L22.8416 55.0891C23.0563 55.4589 26.7362 61.7232 28.2858 64.2769C28.5195 64.6621 28.1575 65.1363 27.7239 65.0129C18.8679 62.489 11.6345 56.0182 8.14903 47.6803C8.08881 47.5363 8.10059 47.372 8.17914 47.2371H8.17881ZM54.5651 60.5863C51.6396 62.6153 48.3682 64.1133 44.9299 65.0509C44.495 65.1694 44.1389 64.6906 44.3791 64.31C44.423 64.2406 44.4658 64.1699 44.5077 64.0985L55.6095 45.1527C55.6985 45.0005 55.8618 44.9073 56.0385 44.9073H65.0117C65.336 44.9073 65.5775 45.2136 65.4938 45.5261C63.8954 51.4763 60.0738 56.7653 54.5651 60.5863ZM52.3495 45.6535L43.1292 61.3881C42.9371 61.716 42.4616 61.7153 42.2705 61.3868L37.9374 53.9413C37.8474 53.7868 37.8477 53.596 37.9384 53.4419L42.8013 45.1524C42.8903 45.0005 43.0536 44.9069 43.23 44.9069H51.9204C52.3043 44.9069 52.5433 45.3229 52.3495 45.6535Z" fill="url(#paint0_linear_968_4117)"/>
<defs>
<linearGradient id="paint0_linear_968_4117" x1="19.6317" y1="9.43282" x2="49.2818" y2="64.2399" gradientUnits="userSpaceOnUse">
<stop offset="0.1" stop-color="#FF6D00"/>
<stop offset="0.5" stop-color="#FF2100"/>
<stop offset="0.9" stop-color="#6300C7"/>
</linearGradient>
</defs>
</svg>
