<svg id="social-map-mobile" class="social-listening-map" viewbox="0 0 335 1135" fill="none" xmlns="http://www.w3.org/2000/svg" preserveAspectRatio="xMidYMin slice">
    <g class="state-box" id="mobile-al">
        <a href="#" class="state-link" data-selected-state="AL" title="Select Alabama">
            <path class="state-outline" d="M2 6C2 3.79086 3.79086 2 6 2H71.75C73.9591 2 75.75 3.79086 75.75 6V78H2V6Z" stroke="url(#DefaultBorderGradient)" stroke-width="4"/>
            <path class="state-abbreviation" d="M37.4606 46L36.3566 43.312H30.9966L29.9566 46H27.5566L32.2766 34.32H35.0766L40.0206 46H37.4606ZM31.7806 41.312H35.5406L33.6526 36.688H33.5726L31.7806 41.312ZM41.3972 46V34.32H43.7972V43.936H50.0052V46H41.3972Z" fill="white"/>
        </a>
    </g>
    <g class="state-box" id="mobile-ak">
        <a href="#" class="state-link" data-selected-state="AK" title="Select Alaska">
            <path class="state-outline" d="M87.75 6C87.75 3.79086 89.5409 2 91.75 2H157.5C159.709 2 161.5 3.79086 161.5 6V78H87.75V6Z" stroke="url(#DefaultBorderGradient)" stroke-width="4"/>
            <path class="state-abbreviation" d="M122.218 46L121.114 43.312H115.754L114.714 46H112.314L117.034 34.32H119.834L124.778 46H122.218ZM116.538 41.312H120.298L118.41 36.688H118.33L116.538 41.312ZM126.155 34.32H128.555V39.536L133.835 34.32H136.731L131.835 39.12L136.987 46H134.011L130.123 40.784L128.555 42.32V46H126.155V34.32Z" fill="white"/>
        </a>
    </g>
    <g class="state-box" id="mobile-az">
        <a href="#" class="state-link" data-selected-state="AZ" title="Select Arizona">
            <path class="state-outline" d="M173.5 6C173.5 3.79086 175.291 2 177.5 2H243.25C245.459 2 247.25 3.79086 247.25 6V78H173.5V6Z" stroke="url(#DefaultBorderGradient)" stroke-width="4"/>
            <path class="state-abbreviation" d="M208.531 46L207.427 43.312H202.067L201.027 46H198.627L203.347 34.32H206.147L211.091 46H208.531ZM202.851 41.312H206.611L204.723 36.688H204.643L202.851 41.312ZM221.604 34.32V36.256L214.836 43.936H221.604V46H211.78V44.128L218.644 36.384H211.924V34.32H221.604Z" fill="white"/>
        </a>
    </g>
    <g class="state-box" id="mobile-ar">
        <a href="#" class="state-link" data-selected-state="AR" title="Select Arkansas">
            <path class="state-outline" d="M259.25 6C259.25 3.79086 261.041 2 263.25 2H329C331.209 2 333 3.79086 333 6V78H259.25V6Z" stroke="url(#DefaultBorderGradient)" stroke-width="4"/>
            <path class="state-abbreviation" d="M293.586 46L292.482 43.312H287.122L286.082 46H283.682L288.402 34.32H291.202L296.146 46H293.586ZM287.906 41.312H291.666L289.778 36.688H289.698L287.906 41.312ZM305.378 46C304.994 45.584 304.85 44.384 304.738 43.424C304.594 42.144 304.226 41.728 302.962 41.728H299.922V46H297.522V34.32H303.81C306.354 34.32 307.65 35.584 307.65 37.68C307.65 40.016 306.066 40.624 304.866 40.704V40.752C305.97 40.848 306.85 41.28 307.154 43.024C307.41 44.48 307.586 45.488 308.146 46H305.378ZM299.922 39.696H302.882C303.778 39.696 305.218 39.504 305.218 38.016C305.218 37.024 304.626 36.384 303.25 36.384H299.922V39.696Z" fill="white"/>
        </a>
    </g>
    <g class="state-box" id="mobile-ca">
        <a href="#" class="state-link" data-selected-state="CA" title="Select California">
            <path class="state-outline" d="M2 94C2 91.7909 3.79086 90 6 90H71.75C73.9591 90 75.75 91.7909 75.75 94V166H2V94Z" stroke="url(#DefaultBorderGradient)" stroke-width="4"/>
            <path class="state-abbreviation" d="M38.8048 129.024C38.3568 132.016 36.3568 134.192 32.7088 134.192C28.9648 134.192 26.8208 131.696 26.8208 128.32C26.8208 124.56 29.1888 122.128 32.8688 122.128C36.0688 122.128 38.0368 124.032 38.5968 126.64L36.3568 127.2C35.9088 125.344 34.6928 124.208 32.9008 124.208C30.6608 124.208 29.3008 125.744 29.3008 128.224C29.3008 130.656 30.5808 132.112 32.8368 132.112C34.8688 132.112 36.2128 130.8 36.5008 128.736L38.8048 129.024ZM48.9606 134L47.8566 131.312H42.4966L41.4566 134H39.0566L43.7766 122.32H46.5766L51.5206 134H48.9606ZM43.2806 129.312H47.0406L45.1526 124.688H45.0726L43.2806 129.312Z" fill="white"/>
        </a>
    </g>
    <g class="state-box" id="mobile-co">
        <a href="#" class="state-link" data-selected-state="CO" title="Select Colorado">
            <path class="state-outline" d="M87.75 94C87.75 91.7909 89.5409 90 91.75 90H157.5C159.709 90 161.5 91.7909 161.5 94V166H87.75V94Z" stroke="url(#DefaultBorderGradient)" stroke-width="4"/>
            <path class="state-abbreviatio" d="M123.719 129.024C123.271 132.016 121.271 134.192 117.623 134.192C113.879 134.192 111.735 131.696 111.735 128.32C111.735 124.56 114.103 122.128 117.783 122.128C120.983 122.128 122.951 124.032 123.511 126.64L121.271 127.2C120.823 125.344 119.607 124.208 117.815 124.208C115.575 124.208 114.215 125.744 114.215 128.224C114.215 130.656 115.495 132.112 117.751 132.112C119.783 132.112 121.127 130.8 121.415 128.736L123.719 129.024ZM131.256 134.192C127.512 134.192 125.016 131.744 125.016 128.16C125.016 124.576 127.512 122.128 131.256 122.128C135.016 122.128 137.512 124.576 137.512 128.16C137.512 131.744 135.016 134.192 131.256 134.192ZM127.496 128.16C127.496 130.496 128.904 132.112 131.256 132.112C133.624 132.112 135.032 130.496 135.032 128.16C135.032 125.824 133.624 124.208 131.256 124.208C128.904 124.208 127.496 125.824 127.496 128.16Z" fill="white"/>
        </a>
    </g>
    <g class="state-box" id="mobile-ct">
        <a href="#" class="state-link" data-selected-state="CT" title="Select Connecticut">
            <path class="state-outline" d="M173.5 94C173.5 91.7909 175.291 90 177.5 90H243.25C245.459 90 247.25 91.7909 247.25 94V166H173.5V94Z" stroke="url(#DefaultBorderGradient)" stroke-width="4"/>
            <path class="state-abbreviation" d="M210.953 129.024C210.505 132.016 208.505 134.192 204.857 134.192C201.113 134.192 198.969 131.696 198.969 128.32C198.969 124.56 201.337 122.128 205.017 122.128C208.217 122.128 210.185 124.032 210.745 126.64L208.505 127.2C208.057 125.344 206.841 124.208 205.049 124.208C202.809 124.208 201.449 125.744 201.449 128.224C201.449 130.656 202.729 132.112 204.985 132.112C207.017 132.112 208.361 130.8 208.649 128.736L210.953 129.024ZM215.544 134V124.384H211.24V122.32H222.248V124.384H217.944V134H215.544Z" fill="white"/>
        </a>
    </g>
    <g class="state-box" id="mobile-de">
        <a href="#" class="state-link" data-selected-state="DE" title="Select Delaware">
            <path class="state-outline" d="M259.25 94C259.25 91.7909 261.041 90 263.25 90H329C331.209 90 333 91.7909 333 94V166H259.25V94Z" stroke="url(#DefaultBorderGradient)" stroke-width="4"/>
            <path class="state-abbreviation" d="M285.491 134V122.32H290.211C293.971 122.32 296.515 124.272 296.515 128.096C296.515 131.808 294.019 134 290.211 134H285.491ZM287.891 131.936H290.035C292.115 131.936 294.035 130.88 294.035 128.16C294.035 125.232 292.115 124.384 290.035 124.384H287.891V131.936ZM298.475 134V122.32H307.339V124.384H300.875V127.072H306.075V129.136H300.875V131.936H307.531V134H298.475Z" fill="white"/>
        </a>
    </g>
    <g class="state-box" id="mobile-dc">
        <a href="#" class="state-link" data-selected-state="DC" title="Select Washington, D.C.">
            <path class="state-outline" d="M2 182C2 179.791 3.79086 178 6 178H71.75C73.9591 178 75.75 179.791 75.75 182V254H2V182Z" stroke="url(#DefaultBorderGradient)" stroke-width="4"/>
            <path class="state-abbreviation" d="M27.0222 222V210.32H31.7422C35.5022 210.32 38.0462 212.272 38.0462 216.096C38.0462 219.808 35.5502 222 31.7422 222H27.0222ZM29.4222 219.936H31.5662C33.6462 219.936 35.5662 218.88 35.5662 216.16C35.5662 213.232 33.6462 212.384 31.5662 212.384H29.4222V219.936ZM51.3986 217.024C50.9506 220.016 48.9506 222.192 45.3026 222.192C41.5586 222.192 39.4146 219.696 39.4146 216.32C39.4146 212.56 41.7826 210.128 45.4626 210.128C48.6626 210.128 50.6306 212.032 51.1906 214.64L48.9506 215.2C48.5026 213.344 47.2866 212.208 45.4946 212.208C43.2546 212.208 41.8946 213.744 41.8946 216.224C41.8946 218.656 43.1746 220.112 45.4306 220.112C47.4626 220.112 48.8066 218.8 49.0946 216.736L51.3986 217.024Z" fill="white"/>
        </a>
    </g>
    <g class="state-box" id="mobile-fl">
        <a href="#" class="state-link" data-selected-state="FL" title="Select Florida">
            <path class="state-outline" d="M87.75 182C87.75 179.791 89.5409 178 91.75 178H157.5C159.709 178 161.5 179.791 161.5 182V254H87.75V182Z" stroke="url(#DefaultBorderGradient)" stroke-width="4"/>
            <path class="state-abbreviation" d="M115.749 222V210.32H124.405V212.384H118.149V215.312H123.253V217.376H118.149V222H115.749ZM125.905 222V210.32H128.305V219.936H134.513V222H125.905Z" fill="white"/>
        </a>
    </g>
    <g class="state-box" id="mobile-ga">
        <a href="#" class="state-link" data-selected-state="GA" title="Select Georgia">
            <path class="state-outline" d="M173.5 182C173.5 179.791 175.291 178 177.5 178H243.25C245.459 178 247.25 179.791 247.25 182V254H173.5V182Z" stroke="url(#DefaultBorderGradient)" stroke-width="4"/>
            <path class="state-abbreviation" d="M207.959 222L207.847 219.232H207.799C207.063 221.12 205.431 222.192 203.383 222.192C199.655 222.192 197.719 219.776 197.719 216.304C197.719 212.592 200.183 210.128 203.975 210.128C206.903 210.128 208.983 211.664 209.735 214.08L207.463 214.672C207.015 213.28 205.895 212.208 203.959 212.208C201.655 212.208 200.199 213.76 200.199 216.272C200.199 218.72 201.591 220.128 203.751 220.128C205.527 220.128 207.143 219.184 207.495 217.504H204.039V215.68H209.975V222H207.959ZM221.062 222L219.958 219.312H214.598L213.558 222H211.158L215.878 210.32H218.678L223.622 222H221.062ZM215.382 217.312H219.142L217.254 212.688H217.174L215.382 217.312Z" fill="white"/>
        </a>
    </g>
    <g class="state-box" id="mobile-hi">
        <a href="#" class="state-link" data-selected-state="HI" title="Select Hawai'i">
            <path class="state-outline" d="M259.25 182C259.25 179.791 261.041 178 263.25 178H329C331.209 178 333 179.791 333 182V254H259.25V182Z" stroke="url(#DefaultBorderGradient)" stroke-width="4"/>
            <path class="state-abbreviation" d="M296.673 222V217.104H290.625V222H288.225V210.32H290.625V215.04H296.673V210.32H299.073V222H296.673ZM301.632 222V210.32H304.032V222H301.632Z" fill="white"/>
        </a>
    </g>
    <g class="state-box" id="mobile-id">
        <a href="#" class="state-link" data-selected-state="ID" title="Select Idaho">
            <path class="state-outline" d="M2 270C2 267.791 3.79086 266 6 266H71.75C73.9591 266 75.75 267.791 75.75 270V342H2V270Z" stroke="url(#DefaultBorderGradient)" stroke-width="4"/>
            <path class="state-abbreviation" d="M31.1863 310V298.32H33.5863V310H31.1863ZM36.1394 310V298.32H40.8594C44.6194 298.32 47.1634 300.272 47.1634 304.096C47.1634 307.808 44.6674 310 40.8594 310H36.1394ZM38.5394 307.936H40.6834C42.7634 307.936 44.6834 306.88 44.6834 304.16C44.6834 301.232 42.7634 300.384 40.6834 300.384H38.5394V307.936Z" fill="white"/>
        </a>
    </g>
    <g class="state-box" id="mobile-il">
        <a href="#" class="state-link" data-selected-state="IL" title="Select Illinois">
            <path class="state-outline" d="M87.75 270C87.75 267.791 89.5409 266 91.75 266H157.5C159.709 266 161.5 267.791 161.5 270V342H87.75V270Z" stroke="url(#DefaultBorderGradient)" stroke-width="4"/>
            <path class="state-abbreviation" d="M118.35 310V298.32H120.75V310H118.35ZM123.303 310V298.32H125.703V307.936H131.911V310H123.303Z" fill="white"/>
        </a>
    </g>
    <g class="state-box" id="mobile-in">
        <a href="#" class="state-link" data-selected-state="IN" title="Select Indiana">
            <path class="state-outline" d="M173.5 270C173.5 267.791 175.291 266 177.5 266H243.25C245.459 266 247.25 267.791 247.25 270V342H173.5V270Z" stroke="url(#DefaultBorderGradient)" stroke-width="4"/>
            <path class="state-abbreviation" d="M202.553 310V298.32H204.953V310H202.553ZM215.907 298.32H218.195V310H215.187L210.435 302.416L209.795 301.296V310H207.507V298.32H210.515L215.251 305.952L215.907 307.12V298.32Z" fill="white"/>
        </a>
    </g>
    <g class="state-box" id="mobile-ia">
        <a href="#" class="state-link" data-selected-state="IA" title="Select Iowa">
            <path class="state-outline" d="M259.25 270C259.25 267.791 261.041 266 263.25 266H329C331.209 266 333 267.791 333 270V342H259.25V270Z" stroke="url(#DefaultBorderGradient)" stroke-width="4"/>
            <path class="state-abbreviation" d="M288.608 310V298.32H291.008V310H288.608ZM302.265 310L301.161 307.312H295.801L294.761 310H292.361L297.081 298.32H299.881L304.825 310H302.265ZM296.585 305.312H300.345L298.457 300.688H298.377L296.585 305.312Z" fill="white"/>
        </a>
    </g>
    <g class="state-box" id="mobile-ks">
        <a href="#" class="state-link" data-selected-state="KS" title="Select Kansas">
            <path class="state-outline" d="M2 358C2 355.791 3.79086 354 6 354H71.75C73.9591 354 75.75 355.791 75.75 358V430H2V358Z" stroke="url(#DefaultBorderGradient)" stroke-width="4"/>
            <path class="state-abbreviation" d="M28.3191 386.32H30.7191V391.536L35.9991 386.32H38.8951L33.9991 391.12L39.1511 398H36.1751L32.2871 392.784L30.7191 394.32V398H28.3191V386.32ZM41.2713 393.92C41.9273 395.44 43.2393 396.16 44.9833 396.16C46.8553 396.16 47.5753 395.36 47.5753 394.56C47.5753 393.76 46.9513 393.376 45.7993 393.216C45.0793 393.12 44.1033 393.04 43.3353 392.944C41.4153 392.704 39.8633 391.856 39.8633 389.776C39.8633 387.584 41.8313 386.128 44.6793 386.128C46.6153 386.128 48.3913 386.72 49.5753 388.512L47.8313 389.872C46.9673 388.576 45.8953 388.144 44.6633 388.144C43.1913 388.144 42.3113 388.832 42.3113 389.632C42.3113 390.368 42.8233 390.688 43.9593 390.816C44.6313 390.896 45.4313 390.976 46.2473 391.072C47.9753 391.28 50.0233 391.984 50.0233 394.384C50.0233 396.768 47.9593 398.192 44.9353 398.192C42.2793 398.192 40.2953 397.168 39.2553 394.864L41.2713 393.92Z" fill="white"/>
        </a>
    </g>
    <g class="state-box" id="mobile-ky">
        <a href="#" class="state-link" data-selected-state="KY" title="Select Kentucky">
            <path class="state-outline" d="M87.75 358C87.75 355.791 89.5409 354 91.75 354H157.5C159.709 354 161.5 355.791 161.5 358V430H87.75V358Z" stroke="url(#DefaultBorderGradient)" stroke-width="4"/>
            <path class="state-abbreviation" d="M113.975 386.32H116.375V391.536L121.655 386.32H124.551L119.655 391.12L124.807 398H121.831L117.943 392.784L116.375 394.32V398H113.975V386.32ZM136.5 386.32L131.892 393.744V398H129.492V393.712L124.884 386.32H127.604L130.788 391.616L133.972 386.32H136.5Z" fill="white"/>
        </a>
    </g>
    <g class="state-box" id="mobile-la">
        <a href="#" class="state-link" data-selected-state="LA" title="Select Louisiana">
            <path class="state-outline" d="M173.5 358C173.5 355.791 175.291 354 177.5 354H243.25C245.459 354 247.25 355.791 247.25 358V430H173.5V358Z" stroke="url(#DefaultBorderGradient)" stroke-width="4"/>
            <path class="state-abbreviation" d="M200.257 398V386.32H202.657V395.936H208.865V398H200.257ZM219.117 398L218.013 395.312H212.653L211.613 398H209.213L213.933 386.32H216.733L221.677 398H219.117ZM213.437 393.312H217.197L215.309 388.688H215.229L213.437 393.312Z" fill="white"/>
        </a>
    </g>
    <g class="state-box" id="mobile-me">
        <a href="#" class="state-link" data-selected-state="ME" title="Select Maine">
            <path class="state-outline" d="M259.25 358C259.25 355.791 261.041 354 263.25 354H329C331.209 354 333 355.791 333 358V430H259.25V358Z" stroke="url(#DefaultBorderGradient)" stroke-width="4"/>
            <path class="state-abbreviation" d="M297.448 386.32V398H295.048V388.912H294.968L291.816 398H289.56L286.312 388.912H286.248V398H283.96V386.32H287.752L290.744 395.12H290.792L293.752 386.32H297.448ZM300.007 398V386.32H308.871V388.384H302.407V391.072H307.607V393.136H302.407V395.936H309.063V398H300.007Z" fill="white"/>
        </a>
    </g>
    <g class="state-box" id="mobile-md">
        <a href="#" class="state-link" data-selected-state="MD" title="Select Maryland">
            <path class="state-outline" d="M2 446C2 443.791 3.79086 442 6 442H71.75C73.9591 442 75.75 443.791 75.75 446V518H2V446Z" stroke="url(#DefaultBorderGradient)" stroke-width="4"/>
            <path class="state-abbreviation" d="M39.1274 474.32V486H36.7274V476.912H36.6474L33.4954 486H31.2394L27.9914 476.912H27.9274V486H25.6394V474.32H29.4314L32.4234 483.12H32.4714L35.4314 474.32H39.1274ZM41.6863 486V474.32H46.4063C50.1663 474.32 52.7103 476.272 52.7103 480.096C52.7103 483.808 50.2143 486 46.4063 486H41.6863ZM44.0863 483.936H46.2303C48.3103 483.936 50.2303 482.88 50.2303 480.16C50.2303 477.232 48.3103 476.384 46.2303 476.384H44.0863V483.936Z" fill="white"/>
        </a>
    </g>
    <g class="state-box" id="mobile-ma">
        <a href="#" class="state-link" data-selected-state="MA" title="Select Massachusetts">
            <path class="state-outline" d="M87.75 446C87.75 443.791 89.5409 442 91.75 442H157.5C159.709 442 161.5 443.791 161.5 446V518H87.75V446Z" stroke="url(#DefaultBorderGradient)" stroke-width="4"/>
            <path class="state-abbreviation" d="M125.049 474.32V486H122.649V476.912H122.569L119.417 486H117.161L113.913 476.912H113.849V486H111.561V474.32H115.353L118.345 483.12H118.393L121.353 474.32H125.049ZM136.312 486L135.208 483.312H129.848L128.808 486H126.408L131.128 474.32H133.928L138.872 486H136.312ZM130.632 481.312H134.392L132.504 476.688H132.424L130.632 481.312Z" fill="white"/>
        </a>
    </g>
    <g class="state-box" id="mobile-mi">
        <a href="#" class="state-link" data-selected-state="MI" title="Select Michigan">
            <path class="state-outline" d="M173.5 446C173.5 443.791 175.291 442 177.5 442H243.25C245.459 442 247.25 443.791 247.25 446V518H173.5V446Z" stroke="url(#DefaultBorderGradient)" stroke-width="4"/>
            <path class="state-abbreviation" d="M214.643 474.32V486H212.243V476.912H212.163L209.011 486H206.755L203.507 476.912H203.443V486H201.155V474.32H204.947L207.939 483.12H207.987L210.947 474.32H214.643ZM217.202 486V474.32H219.602V486H217.202Z" fill="white"/>
        </a>
    </g>
    <g class="state-box" id="mobile-mn">
        <a href="#" class="state-link" data-selected-state="MN" title="Select Minnesota">
            <path class="state-outline" d="M259.25 446C259.25 443.791 261.041 442 263.25 442H329C331.209 442 333 443.791 333 446V518H259.25V446Z" stroke="url(#DefaultBorderGradient)" stroke-width="4"/>
            <path class="state-abbreviation" d="M296.245 474.32V486H293.845V476.912H293.765L290.613 486H288.357L285.109 476.912H285.045V486H282.757V474.32H286.549L289.541 483.12H289.589L292.549 474.32H296.245ZM307.203 474.32H309.491V486H306.483L301.731 478.416L301.091 477.296V486H298.803V474.32H301.811L306.547 481.952L307.203 483.12V474.32Z" fill="white"/>
        </a>
    </g>
    <g class="state-box" id="mobile-ms">
        <a href="#" class="state-link" data-selected-state="MS" title="Select Mississippi">
            <path class="state-outline" d="M2 534C2 531.791 3.79086 530 6 530H71.75C73.9591 530 75.75 531.791 75.75 534V606H2V534Z" stroke="url(#DefaultBorderGradient)" stroke-width="4"/>
            <path class="state-abbreviation" d="M39.6118 562.32V574H37.2118V564.912H37.1318L33.9798 574H31.7238L28.4758 564.912H28.4118V574H26.1238V562.32H29.9158L32.9078 571.12H32.9558L35.9158 562.32H39.6118ZM43.4666 569.92C44.1226 571.44 45.4346 572.16 47.1786 572.16C49.0506 572.16 49.7706 571.36 49.7706 570.56C49.7706 569.76 49.1466 569.376 47.9946 569.216C47.2746 569.12 46.2986 569.04 45.5306 568.944C43.6106 568.704 42.0586 567.856 42.0586 565.776C42.0586 563.584 44.0266 562.128 46.8746 562.128C48.8106 562.128 50.5866 562.72 51.7706 564.512L50.0266 565.872C49.1626 564.576 48.0906 564.144 46.8586 564.144C45.3866 564.144 44.5066 564.832 44.5066 565.632C44.5066 566.368 45.0186 566.688 46.1546 566.816C46.8266 566.896 47.6266 566.976 48.4426 567.072C50.1706 567.28 52.2186 567.984 52.2186 570.384C52.2186 572.768 50.1546 574.192 47.1306 574.192C44.4746 574.192 42.4906 573.168 41.4506 570.864L43.4666 569.92Z" fill="white"/>
        </a>
    </g>
    <g class="state-box" id="mobile-mo">
        <a href="#" class="state-link" data-selected-state="MO" title="Select Missouri">
            <path class="state-outline" d="M87.75 534C87.75 531.791 89.5409 530 91.75 530H157.5C159.709 530 161.5 531.791 161.5 534V606H87.75V534Z" stroke="url(#DefaultBorderGradient)" stroke-width="4"/>
            <path class="state-abbreviation" d="M124.432 562.32V574H122.032V564.912H121.952L118.8 574H116.544L113.296 564.912H113.232V574H110.944V562.32H114.736L117.728 571.12H117.776L120.736 562.32H124.432ZM132.639 574.192C128.895 574.192 126.399 571.744 126.399 568.16C126.399 564.576 128.895 562.128 132.639 562.128C136.399 562.128 138.895 564.576 138.895 568.16C138.895 571.744 136.399 574.192 132.639 574.192ZM128.879 568.16C128.879 570.496 130.287 572.112 132.639 572.112C135.007 572.112 136.415 570.496 136.415 568.16C136.415 565.824 135.007 564.208 132.639 564.208C130.287 564.208 128.879 565.824 128.879 568.16Z" fill="white"/>
        </a>
    </g>
    <g class="state-box" id="mobile-mt">
        <a href="#" class="state-link" data-selected-state="MT" title="Select Montana">
            <path class="state-outline" d="M173.5 534C173.5 531.791 175.291 530 177.5 530H243.25C245.459 530 247.25 531.791 247.25 534V606H173.5V534Z" stroke="url(#DefaultBorderGradient)" stroke-width="4"/>
            <path class="state-abbreviation" d="M211.393 562.32V574H208.993V564.912H208.913L205.761 574H203.505L200.257 564.912H200.193V574H197.905V562.32H201.697L204.689 571.12H204.737L207.697 562.32H211.393ZM217.2 574V564.384H212.896V562.32H223.904V564.384H219.6V574H217.2Z" fill="white"/>
        </a>
    </g>
    <g class="state-box" id="mobile-ne">
        <a href="#" class="state-link" data-selected-state="NE" title="Select Nebraska">
            <path class="state-outline" d="M259.25 534C259.25 531.791 261.041 530 263.25 530H329C331.209 530 333 531.791 333 534V606H259.25V534Z" stroke="url(#DefaultBorderGradient)" stroke-width="4"/>
            <path class="state-abbreviation" d="M293.758 562.32H296.046V574H293.038L288.286 566.416L287.646 565.296V574H285.358V562.32H288.366L293.102 569.952L293.758 571.12V562.32ZM298.608 574V562.32H307.472V564.384H301.008V567.072H306.208V569.136H301.008V571.936H307.664V574H298.608Z" fill="white"/>
        </a>
    </g>
    <g class="state-box" id="mobile-nv">
        <a href="#" class="state-link" data-selected-state="NV" title="Select Nevada">
            <path class="state-outline" d="M2 622C2 619.791 3.79086 618 6 618H71.75C73.9591 618 75.75 619.791 75.75 622V694H2V622Z" stroke="url(#DefaultBorderGradient)" stroke-width="4"/>
            <path class="state-abbreviation" d="M35.7425 650.32H38.0305V662H35.0225L30.2705 654.416L29.6305 653.296V662H27.3425V650.32H30.3505L35.0865 657.952L35.7425 659.12V650.32ZM41.9685 650.32L45.6165 659.552H45.6805L49.1685 650.32H51.5845L46.9925 662H44.1925L39.4085 650.32H41.9685Z" fill="white"/>
        </a>
    </g>
    <g class="state-box" id="mobile-nh">
        <a href="#" class="state-link" data-selected-state="NH" title="Select New Hampshire">
            <path class="state-outline" d="M87.75 622C87.75 619.791 89.5409 618 91.75 618H157.5C159.709 618 161.5 619.791 161.5 622V694H87.75V622Z" stroke="url(#DefaultBorderGradient)" stroke-width="4"/>
            <path class="state-abbreviation" d="M120.977 650.32H123.265V662H120.257L115.505 654.416L114.865 653.296V662H112.577V650.32H115.585L120.321 657.952L120.977 659.12V650.32ZM134.275 662V657.104H128.227V662H125.827V650.32H128.227V655.04H134.275V650.32H136.675V662H134.275Z" fill="white"/>
        </a>
    </g>
    <g class="state-box" id="mobile-nj">
        <a href="#" class="state-link" data-selected-state="NJ" title="Select New Jersey">
            <path class="state-outline" d="M173.5 622C173.5 619.791 175.291 618 177.5 618H243.25C245.459 618 247.25 619.791 247.25 622V694H173.5V622Z" stroke="url(#DefaultBorderGradient)" stroke-width="4"/>
            <path class="state-abbreviation" d="M207.985 650.32H210.273V662H207.265L202.513 654.416L201.873 653.296V662H199.585V650.32H202.593L207.329 657.952L207.985 659.12V650.32ZM221.395 657.616C221.395 660.848 219.411 662.192 216.547 662.192C213.459 662.192 212.083 660.416 211.955 657.584L214.195 657.424C214.355 659.136 215.011 660.208 216.579 660.208C218.147 660.208 218.995 659.472 218.995 657.632V650.32H221.395V657.616Z" fill="white"/>
        </a>
    </g>
    <g class="state-box" id="mobile-nm">
        <a href="#" class="state-link" data-selected-state="NM" title="Select New Mexico">
            <path class="state-outline" d="M259.25 622C259.25 619.791 261.041 618 263.25 618H329C331.209 618 333 619.791 333 622V694H259.25V622Z" stroke="url(#DefaultBorderGradient)" stroke-width="4"/>
            <path class="state-abbreviation" d="M291.157 650.32H293.445V662H290.437L285.685 654.416L285.045 653.296V662H282.757V650.32H285.765L290.501 657.952L291.157 659.12V650.32ZM309.495 650.32V662H307.095V652.912H307.015L303.863 662H301.607L298.359 652.912H298.295V662H296.007V650.32H299.799L302.791 659.12H302.839L305.799 650.32H309.495Z" fill="white"/>
        </a>
    </g>
    <g class="state-box" id="mobile-ny">
        <a href="#" class="state-link" data-selected-state="NY" title="Select New York">
            <path class="state-outline" d="M2 710C2 707.791 3.79086 706 6 706H71.75C73.9591 706 75.75 707.791 75.75 710V782H2V710Z" stroke="url(#DefaultBorderGradient)" stroke-width="4"/>
            <path class="state-abbreviation" d="M36.0706 738.32H38.3586V750H35.3506L30.5986 742.416L29.9586 741.296V750H27.6706V738.32H30.6786L35.4146 745.952L36.0706 747.12V738.32ZM51.3046 738.32L46.6966 745.744V750H44.2966V745.712L39.6886 738.32H42.4086L45.5926 743.616L48.7766 738.32H51.3046Z" fill="white"/>
        </a>
    </g>
    <g class="state-box" id="mobile-nc">
        <a href="#" class="state-link" data-selected-state="NC" title="Select North Carolina">
            <path class="state-outline" d="M87.75 710C87.75 707.791 89.5409 706 91.75 706H157.5C159.709 706 161.5 707.791 161.5 710V782H87.75V710Z" stroke="url(#DefaultBorderGradient)" stroke-width="4"/>
            <path class="state-abbreviation" d="M121.039 738.32H123.327V750H120.319L115.567 742.416L114.927 741.296V750H112.639V738.32H115.647L120.383 745.952L121.039 747.12V738.32ZM137.281 745.024C136.833 748.016 134.833 750.192 131.185 750.192C127.441 750.192 125.297 747.696 125.297 744.32C125.297 740.56 127.665 738.128 131.345 738.128C134.545 738.128 136.513 740.032 137.073 742.64L134.833 743.2C134.385 741.344 133.169 740.208 131.377 740.208C129.137 740.208 127.777 741.744 127.777 744.224C127.777 746.656 129.057 748.112 131.313 748.112C133.345 748.112 134.689 746.8 134.977 744.736L137.281 745.024Z" fill="white"/>
        </a>
    </g>
    <g class="state-box" id="mobile-nd">
        <a href="#" class="state-link" data-selected-state="ND" title="Select North Dakota">
            <path class="state-outline" d="M173.5 710C173.5 707.791 175.291 706 177.5 706H243.25C245.459 706 247.25 707.791 247.25 710V782H173.5V710Z" stroke="url(#DefaultBorderGradient)" stroke-width="4"/>
            <path class="state-abbreviation" d="M206.938 738.32H209.226V750H206.218L201.466 742.416L200.826 741.296V750H198.538V738.32H201.546L206.282 745.952L206.938 747.12V738.32ZM211.788 750V738.32H216.508C220.268 738.32 222.812 740.272 222.812 744.096C222.812 747.808 220.316 750 216.508 750H211.788ZM214.188 747.936H216.332C218.412 747.936 220.332 746.88 220.332 744.16C220.332 741.232 218.412 740.384 216.332 740.384H214.188V747.936Z" fill="white"/>
        </a>
    </g>
    <g class="state-box" id="mobile-oh">
        <a href="#" class="state-link" data-selected-state="OH" title="Select Ohio">
            <path class="state-outline" d="M259.25 710C259.25 707.791 261.041 706 263.25 706H329C331.209 706 333 707.791 333 710V782H259.25V710Z" stroke="url(#DefaultBorderGradient)" stroke-width="4"/>
            <path class="state-abbreviation" d="M289.412 750.192C285.668 750.192 283.172 747.744 283.172 744.16C283.172 740.576 285.668 738.128 289.412 738.128C293.172 738.128 295.668 740.576 295.668 744.16C295.668 747.744 293.172 750.192 289.412 750.192ZM285.652 744.16C285.652 746.496 287.06 748.112 289.412 748.112C291.78 748.112 293.188 746.496 293.188 744.16C293.188 741.824 291.78 740.208 289.412 740.208C287.06 740.208 285.652 741.824 285.652 744.16ZM306.087 750V745.104H300.039V750H297.639V738.32H300.039V743.04H306.087V738.32H308.487V750H306.087Z" fill="white"/>
        </a>
    </g>
    <g class="state-box" id="mobile-ok">
        <a href="#" class="state-link" data-selected-state="OK" title="Select Oklahoma">
            <path class="state-outline" d="M2 798C2 795.791 3.79086 794 6 794H71.75C73.9591 794 75.75 795.791 75.75 798V870H2V798Z" stroke="url(#DefaultBorderGradient)" stroke-width="4"/>
            <path class="state-abbreviation" d="M32.7952 838.192C29.0512 838.192 26.5552 835.744 26.5552 832.16C26.5552 828.576 29.0512 826.128 32.7952 826.128C36.5552 826.128 39.0512 828.576 39.0512 832.16C39.0512 835.744 36.5552 838.192 32.7952 838.192ZM29.0352 832.16C29.0352 834.496 30.4432 836.112 32.7952 836.112C35.1632 836.112 36.5712 834.496 36.5712 832.16C36.5712 829.824 35.1632 828.208 32.7952 828.208C30.4432 828.208 29.0352 829.824 29.0352 832.16ZM41.0222 826.32H43.4222V831.536L48.7022 826.32H51.5982L46.7022 831.12L51.8542 838H48.8782L44.9902 832.784L43.4222 834.32V838H41.0222V826.32Z" fill="white"/>
        </a>
    </g>
    <g class="state-box" id="mobile-or">
        <a href="#" class="state-link" data-selected-state="OR" title="Select Oregon">
            <path class="state-outline" d="M87.75 798C87.75 795.791 89.5409 794 91.75 794H157.5C159.709 794 161.5 795.791 161.5 798V870H87.75V798Z" stroke="url(#DefaultBorderGradient)" stroke-width="4"/>
            <path class="state-abbreviation" d="M118.412 838.192C114.668 838.192 112.172 835.744 112.172 832.16C112.172 828.576 114.668 826.128 118.412 826.128C122.172 826.128 124.668 828.576 124.668 832.16C124.668 835.744 122.172 838.192 118.412 838.192ZM114.652 832.16C114.652 834.496 116.06 836.112 118.412 836.112C120.78 836.112 122.188 834.496 122.188 832.16C122.188 829.824 120.78 828.208 118.412 828.208C116.06 828.208 114.652 829.824 114.652 832.16ZM134.495 838C134.111 837.584 133.967 836.384 133.855 835.424C133.711 834.144 133.343 833.728 132.079 833.728H129.039V838H126.639V826.32H132.927C135.471 826.32 136.767 827.584 136.767 829.68C136.767 832.016 135.183 832.624 133.983 832.704V832.752C135.087 832.848 135.967 833.28 136.271 835.024C136.527 836.48 136.703 837.488 137.263 838H134.495ZM129.039 831.696H131.999C132.895 831.696 134.335 831.504 134.335 830.016C134.335 829.024 133.743 828.384 132.367 828.384H129.039V831.696Z" fill="white"/>
        </a>
    </g>
    <g class="state-box" id="mobile-pa">
        <a href="#" class="state-link" data-selected-state="PA" title="Select Pennsylvania">
            <path class="state-outline" d="M173.5 798C173.5 795.791 175.291 794 177.5 794H243.25C245.459 794 247.25 795.791 247.25 798V870H173.5V798Z" stroke="url(#DefaultBorderGradient)" stroke-width="4"/>
            <path class="state-abbreviation" d="M199.952 838V826.32H205.408C208.192 826.32 209.968 827.536 209.968 830.08C209.968 832.608 208.208 833.968 205.312 833.968H202.352V838H199.952ZM202.352 831.904H205.168C206.704 831.904 207.552 831.44 207.552 830.176C207.552 828.848 206.688 828.384 205.248 828.384H202.352V831.904ZM219.422 838L218.318 835.312H212.958L211.918 838H209.518L214.238 826.32H217.038L221.982 838H219.422ZM213.742 833.312H217.502L215.614 828.688H215.534L213.742 833.312Z" fill="white"/>
        </a>
    </g>
    <g class="state-box" id="mobile-pr">
        <a href="#" class="state-link" data-selected-state="PR" title="Select Puerto Rico">
            <path class="state-outline" d="M259.25 798C259.25 795.791 261.041 794 263.25 794H329C331.209 794 333 795.791 333 798V870H259.25V798Z" stroke="url(#DefaultBorderGradient)" stroke-width="4"/>
            <path class="state-abbreviation" d="M285.343 838V826.32H290.799C293.583 826.32 295.359 827.536 295.359 830.08C295.359 832.608 293.599 833.968 290.703 833.968H287.743V838H285.343ZM287.743 831.904H290.559C292.095 831.904 292.943 831.44 292.943 830.176C292.943 828.848 292.079 828.384 290.639 828.384H287.743V831.904ZM304.917 838C304.533 837.584 304.389 836.384 304.277 835.424C304.133 834.144 303.765 833.728 302.501 833.728H299.461V838H297.061V826.32H303.349C305.893 826.32 307.189 827.584 307.189 829.68C307.189 832.016 305.605 832.624 304.405 832.704V832.752C305.509 832.848 306.389 833.28 306.693 835.024C306.949 836.48 307.125 837.488 307.685 838H304.917ZM299.461 831.696H302.421C303.317 831.696 304.757 831.504 304.757 830.016C304.757 829.024 304.165 828.384 302.789 828.384H299.461V831.696Z" fill="white"/>
        </a>
    </g>
    <g class="state-box" id="mobile-ri">
        <a href="#" class="state-link" data-selected-state="RI" title="Select Rhode Island">
            <path class="state-outline" d="M2 886C2 883.791 3.79086 882 6 882H71.75C73.9591 882 75.75 883.791 75.75 886V958H2V886Z" stroke="url(#DefaultBorderGradient)" stroke-width="4"/>
            <path class="state-abbreviation" d="M39.3313 926C38.9473 925.584 38.8033 924.384 38.6913 923.424C38.5473 922.144 38.1793 921.728 36.9153 921.728H33.8753V926H31.4753V914.32H37.7633C40.3073 914.32 41.6033 915.584 41.6033 917.68C41.6033 920.016 40.0193 920.624 38.8193 920.704V920.752C39.9233 920.848 40.8033 921.28 41.1073 923.024C41.3633 924.48 41.5393 925.488 42.0993 926H39.3313ZM33.8753 919.696H36.8353C37.7313 919.696 39.1713 919.504 39.1713 918.016C39.1713 917.024 38.5793 916.384 37.2033 916.384H33.8753V919.696ZM43.8816 926V914.32H46.2816V926H43.8816Z" fill="white"/>
        </a>
    </g>
    <g class="state-box" id="mobile-sc">
        <a href="#" class="state-link" data-selected-state="SC" title="Select South Carolina">
            <path class="state-outline" d="M87.75 886C87.75 883.791 89.5409 882 91.75 882H157.5C159.709 882 161.5 883.791 161.5 886V958H87.75V886Z" stroke="url(#DefaultBorderGradient)" stroke-width="4"/>
            <path class="state-abbreviation" d="M114.553 921.92C115.209 923.44 116.521 924.16 118.265 924.16C120.137 924.16 120.857 923.36 120.857 922.56C120.857 921.76 120.233 921.376 119.081 921.216C118.361 921.12 117.385 921.04 116.617 920.944C114.697 920.704 113.145 919.856 113.145 917.776C113.145 915.584 115.113 914.128 117.961 914.128C119.897 914.128 121.673 914.72 122.857 916.512L121.113 917.872C120.249 916.576 119.177 916.144 117.945 916.144C116.473 916.144 115.593 916.832 115.593 917.632C115.593 918.368 116.105 918.688 117.241 918.816C117.913 918.896 118.713 918.976 119.529 919.072C121.257 919.28 123.305 919.984 123.305 922.384C123.305 924.768 121.241 926.192 118.217 926.192C115.561 926.192 113.577 925.168 112.537 922.864L114.553 921.92ZM136.664 921.024C136.216 924.016 134.216 926.192 130.568 926.192C126.824 926.192 124.68 923.696 124.68 920.32C124.68 916.56 127.048 914.128 130.728 914.128C133.928 914.128 135.896 916.032 136.456 918.64L134.216 919.2C133.768 917.344 132.552 916.208 130.76 916.208C128.52 916.208 127.16 917.744 127.16 920.224C127.16 922.656 128.44 924.112 130.696 924.112C132.728 924.112 134.072 922.8 134.36 920.736L136.664 921.024Z" fill="white"/>
        </a>
    </g>
    <g class="state-box" id="mobile-sd">
        <a href="#" class="state-link" data-selected-state="SD" title="Select South Dakota">
            <path class="state-outline" d="M173.5 886C173.5 883.791 175.291 882 177.5 882H243.25C245.459 882 247.25 883.791 247.25 886V958H173.5V886Z" stroke="url(#DefaultBorderGradient)" stroke-width="4"/>
            <path class="state-abbreviation" d="M200.451 921.92C201.107 923.44 202.419 924.16 204.163 924.16C206.035 924.16 206.755 923.36 206.755 922.56C206.755 921.76 206.131 921.376 204.979 921.216C204.259 921.12 203.283 921.04 202.515 920.944C200.595 920.704 199.043 919.856 199.043 917.776C199.043 915.584 201.011 914.128 203.859 914.128C205.795 914.128 207.571 914.72 208.755 916.512L207.011 917.872C206.147 916.576 205.075 916.144 203.843 916.144C202.371 916.144 201.491 916.832 201.491 917.632C201.491 918.368 202.003 918.688 203.139 918.816C203.811 918.896 204.611 918.976 205.427 919.072C207.155 919.28 209.203 919.984 209.203 922.384C209.203 924.768 207.139 926.192 204.115 926.192C201.459 926.192 199.475 925.168 198.435 922.864L200.451 921.92ZM211.171 926V914.32H215.891C219.651 914.32 222.195 916.272 222.195 920.096C222.195 923.808 219.699 926 215.891 926H211.171ZM213.571 923.936H215.715C217.795 923.936 219.715 922.88 219.715 920.16C219.715 917.232 217.795 916.384 215.715 916.384H213.571V923.936Z" fill="white"/>
        </a>
    </g>
    <g class="state-box" id="mobile-tn">
        <a href="#" class="state-link" data-selected-state="TN" title="Select Tennessee">
            <path class="state-outline" d="M259.25 886C259.25 883.791 261.041 882 263.25 882H329C331.209 882 333 883.791 333 886V958H259.25V886Z" stroke="url(#DefaultBorderGradient)" stroke-width="4"/>
            <path class="state-abbreviation" d="M288.301 926V916.384H283.997V914.32H295.005V916.384H290.701V926H288.301ZM304.907 914.32H307.195V926H304.187L299.435 918.416L298.795 917.296V926H296.507V914.32H299.515L304.251 921.952L304.907 923.12V914.32Z" fill="white"/>
        </a>
    </g>
    <g class="state-box" id="mobile-tx">
        <a href="#" class="state-link" data-selected-state="TX" title="Select Texas">
            <path class="state-outline" d="M2 974C2 971.791 3.79086 970 6 970H71.75C73.9591 970 75.75 971.791 75.75 974V1046H2V974Z" stroke="url(#DefaultBorderGradient)" stroke-width="4"/>
            <path class="state-abbreviation" d="M31.7546 1014V1004.38H27.4506V1002.32H38.4586V1004.38H34.1546V1014H31.7546ZM50.4077 1014H47.5917L44.4877 1009.7L41.3997 1014H38.7917L43.1597 1008.08L39.0157 1002.32H41.8317L44.7277 1006.46L47.6397 1002.32H50.2477L46.0557 1008.02L50.4077 1014Z" fill="white"/>
        </a>
    </g>
    <g class="state-box" id="mobile-ut">
        <a href="#" class="state-link" data-selected-state="UT" title="Select Utah">
            <path class="state-outline" d="M87.75 974C87.75 971.791 89.5409 970 91.75 970H157.5C159.709 970 161.5 971.791 161.5 974V1046H87.75V974Z" stroke="url(#DefaultBorderGradient)" stroke-width="4"/>
            <path class="state-abbreviation" d="M118.914 1014.19C116.242 1014.19 113.714 1013.12 113.714 1008.91V1002.32H116.114V1008.86C116.114 1011.26 117.298 1012.11 118.978 1012.11C120.562 1012.11 121.682 1011.26 121.682 1008.86V1002.32H124.082V1008.91C124.082 1013.09 121.65 1014.19 118.914 1014.19ZM129.731 1014V1004.38H125.427V1002.32H136.435V1004.38H132.131V1014H129.731Z" fill="white"/>
        </a>
    </g>
    <g class="state-box" id="mobile-vt">
        <a href="#" class="state-link" data-selected-state="VT" title="Select Vermont">
            <path class="state-outline" d="M173.5 974C173.5 971.791 175.291 970 177.5 970H243.25C245.459 970 247.25 971.791 247.25 974V1046H173.5V974Z" stroke="url(#DefaultBorderGradient)" stroke-width="4"/>
            <path class="state-abbreviation" d="M201.047 1002.32L204.695 1011.55H204.759L208.247 1002.32H210.663L206.071 1014H203.271L198.487 1002.32H201.047ZM215.434 1014V1004.38H211.13V1002.32H222.138V1004.38H217.834V1014H215.434Z" fill="white"/>
        </a>
    </g>
    <g class="state-box" id="mobile-va">
        <a href="#" class="state-link" data-selected-state="VA" title="Select Virginia">
            <path class="state-outline" d="M259.25 974C259.25 971.791 261.041 970 263.25 970H329C331.209 970 333 971.791 333 974V1046H259.25V974Z" stroke="url(#DefaultBorderGradient)" stroke-width="4"/>
            <path class="state-abbreviation" d="M286.765 1002.32L290.413 1011.55H290.477L293.965 1002.32H296.381L291.789 1014H288.989L284.205 1002.32H286.765ZM305.484 1014L304.38 1011.31H299.02L297.98 1014H295.58L300.3 1002.32H303.1L308.044 1014H305.484ZM299.804 1009.31H303.564L301.676 1004.69H301.596L299.804 1009.31Z" fill="white"/>
        </a>
    </g>
    <g class="state-box" id="mobile-wa">
        <a href="#" class="state-link" data-selected-state="WA" title="Select Washington">
            <path class="state-outline" d="M2 1062C2 1059.79 3.79086 1058 6 1058H71.75C73.9591 1058 75.75 1059.79 75.75 1062V1134H2V1062Z" stroke="url(#DefaultBorderGradient)" stroke-width="4"/>
            <path class="state-abbreviation" d="M41.0344 1090.32L38.1704 1102H34.9704L32.7784 1093.15H32.6824L30.4744 1102H27.3064L24.4264 1090.32H26.9064L29.0184 1099.36H29.0984L31.3544 1090.32H34.2184L36.4904 1099.36H36.5864L38.6824 1090.32H41.0344ZM50.859 1102L49.755 1099.31H44.395L43.355 1102H40.955L45.675 1090.32H48.475L53.419 1102H50.859ZM45.179 1097.31H48.939L47.051 1092.69H46.971L45.179 1097.31Z" fill="white"/>
        </a>
    </g>
    <g class="state-box" id="mobile-wv">
        <a href="#" class="state-link" data-selected-state="WV" title="Select West Virginia">
            <path class="state-outline" d="M87.75 1062C87.75 1059.79 89.5409 1058 91.75 1058H157.5C159.709 1058 161.5 1059.79 161.5 1062V1134H87.75V1062Z" stroke="url(#DefaultBorderGradient)" stroke-width="4"/>
            <path class="state-abbreviation" d="M126.745 1090.32L123.881 1102H120.681L118.489 1093.15H118.393L116.185 1102H113.017L110.137 1090.32H112.617L114.729 1099.36H114.809L117.065 1090.32H119.929L122.201 1099.36H122.297L124.393 1090.32H126.745ZM129.586 1090.32L133.234 1099.55H133.298L136.786 1090.32H139.202L134.61 1102H131.81L127.026 1090.32H129.586Z" fill="white"/>
        </a>
    </g>
    <g class="state-box" id="mobile-wi">
        <a href="#" class="state-link" data-selected-state="WI" title="Select Wisconsin">
            <path class="state-outline" d="M173.5 1062C173.5 1059.79 175.291 1058 177.5 1058H243.25C245.459 1058 247.25 1059.79 247.25 1062V1134H173.5V1062Z" stroke="url(#DefaultBorderGradient)" stroke-width="4"/>
            <path class="state-abbreviation" d="M216.206 1090.32L213.342 1102H210.142L207.95 1093.15H207.854L205.646 1102H202.478L199.598 1090.32H202.078L204.19 1099.36H204.27L206.526 1090.32H209.39L211.662 1099.36H211.758L213.854 1090.32H216.206ZM217.671 1102V1090.32H220.071V1102H217.671Z" fill="white"/>
        </a>
    </g>
    <g class="state-box" id="mobile-wy">
        <a href="#" class="state-link" data-selected-state="WY" title="Select Wyoming">
            <path class="state-outline" d="M259.25 1062C259.25 1059.79 261.041 1058 263.25 1058H329C331.209 1058 333 1059.79 333 1062V1134H259.25V1062Z" stroke="url(#DefaultBorderGradient)" stroke-width="4"/>
            <path class="state-abbreviation" d="M298.573 1090.32L295.709 1102H292.509L290.317 1093.15H290.221L288.013 1102H284.845L281.965 1090.32H284.445L286.557 1099.36H286.637L288.893 1090.32H291.757L294.029 1099.36H294.125L296.221 1090.32H298.573ZM310.422 1090.32L305.814 1097.74V1102H303.414V1097.71L298.806 1090.32H301.526L304.71 1095.62L307.894 1090.32H310.422Z" fill="white"/>
        </a>
    </g>


    <defs>
        <linearGradient id="DefaultBorderGradient" x1="0" x2="0" y1="0" y2="1">
            <stop offset="5%" stop-color="#FF6D00" />
            <stop offset="95%" stop-color="#6300C7" stop-opacity="0" />
        </linearGradient>
        <linearGradient id="HoverStateBorderGradient" x1="0" x2="0" y1="0" y2="1">
            <stop offset="5%" stop-color="#FFFFFF" />
            <stop offset="95%" stop-color="#6300C7" stop-opacity="0" />
        </linearGradient>
        <linearGradient id="HoverStateGradient" x1="0" x2="0" y1="0" y2="1">
            <stop offset="5%" stop-color="#6300C7" />
            <stop offset="95%" stop-color="#6300C7" stop-opacity="0" />
        </linearGradient>
    </defs>
</svg>
