<svg id="social-map-desktop" class="social-listening-map" viewbox="0 0 1272 964" fill="none" xmlns="http://www.w3.org/2000/svg" preserveAspectRatio="xMidYMin slice">
    <g class="state-box" id="desktop-ak">
        <a href="#" class="state-link" data-selected-state="AK" title="Select Alaska">
            <path class="state-outline" d="M2.0625 114C2.0625 111.791 3.85336 110 6.0625 110H114.062C116.272 110 118.062 111.791 118.062 114V206H2.0625V114Z" stroke="url(#DesktopBorderGradient)" stroke-width="4"/>
            <path class="state-abbreviation" d="M55.8509 169L53.9189 164.296H44.5389L42.7189 169H38.5189L46.7789 148.56H51.6789L60.3309 169H55.8509ZM45.9109 160.796H52.4909L49.1869 152.704H49.0469L45.9109 160.796ZM62.74 148.56H66.94V157.688L76.18 148.56H81.248L72.68 156.96L81.696 169H76.488L69.684 159.872L66.94 162.56V169H62.74V148.56Z" fill="white"/>
        </a>
    </g>
    <g class="state-box" id="desktop-wa">
        <a href="#" class="state-link" data-selected-state="WA" title="Select Washington">
            <path class="state-outline" d="M2.0625 330C2.0625 327.791 3.85336 326 6.0625 326H114.062C116.272 326 118.062 327.791 118.062 330V422H2.0625V330Z" stroke="url(#DesktopBorderGradient)" stroke-width="4"/>
            <path class="state-abbreviation" d="M63.8414 364.56L58.8294 385H53.2294L49.3934 369.516H49.2254L45.3614 385H39.8174L34.7774 364.56H39.1174L42.8134 380.38H42.9534L46.9014 364.56H51.9134L55.8894 380.38H56.0574L59.7254 364.56H63.8414ZM81.0345 385L79.1025 380.296H69.7225L67.9025 385H63.7025L71.9625 364.56H76.8625L85.5145 385H81.0345ZM71.0945 376.796H77.6745L74.3705 368.704H74.2305L71.0945 376.796Z" fill="white"/>
        </a>
    </g>
    <g class="state-box" id="desktop-or">
        <a href="#" class="state-link" data-selected-state="OR" title="Select Oregon">
            <path class="state-outline" d="M2.0625 438C2.0625 435.791 3.85336 434 6.0625 434H114.062C116.272 434 118.062 435.791 118.062 438V530H2.0625V438Z" stroke="url(#DesktopBorderGradient)" stroke-width="4"/>
            <path class="state-abbreviation" d="M49.1904 493.336C42.6384 493.336 38.2704 489.052 38.2704 482.78C38.2704 476.508 42.6384 472.224 49.1904 472.224C55.7704 472.224 60.1384 476.508 60.1384 482.78C60.1384 489.052 55.7704 493.336 49.1904 493.336ZM42.6104 482.78C42.6104 486.868 45.0744 489.696 49.1904 489.696C53.3344 489.696 55.7984 486.868 55.7984 482.78C55.7984 478.692 53.3344 475.864 49.1904 475.864C45.0744 475.864 42.6104 478.692 42.6104 482.78ZM77.3357 493C76.6637 492.272 76.4117 490.172 76.2157 488.492C75.9637 486.252 75.3197 485.524 73.1077 485.524H67.7877V493H63.5877V472.56H74.5917C79.0437 472.56 81.3117 474.772 81.3117 478.44C81.3117 482.528 78.5397 483.592 76.4397 483.732V483.816C78.3717 483.984 79.9117 484.74 80.4437 487.792C80.8917 490.34 81.1997 492.104 82.1797 493H77.3357ZM67.7877 481.968H72.9677C74.5357 481.968 77.0557 481.632 77.0557 479.028C77.0557 477.292 76.0197 476.172 73.6117 476.172H67.7877V481.968Z" fill="white"/>
        </a>
    </g>
    <g class="state-box" id="desktop-ca">
        <a href="#" class="state-link" data-selected-state="CA" title="Select California">
            <path class="state-outline" d="M2.0625 546C2.0625 543.791 3.85336 542 6.0625 542H114.062C116.272 542 118.062 543.791 118.062 546V638H2.0625V546Z" stroke="url(#DesktopBorderGradient)" stroke-width="4"/>
            <path class="state-abbreviation" d="M59.9397 592.292C59.1557 597.528 55.6557 601.336 49.2717 601.336C42.7197 601.336 38.9677 596.968 38.9677 591.06C38.9677 584.48 43.1117 580.224 49.5517 580.224C55.1517 580.224 58.5957 583.556 59.5757 588.12L55.6557 589.1C54.8717 585.852 52.7437 583.864 49.6077 583.864C45.6877 583.864 43.3077 586.552 43.3077 590.892C43.3077 595.148 45.5477 597.696 49.4957 597.696C53.0517 597.696 55.4037 595.4 55.9077 591.788L59.9397 592.292ZM77.7122 601L75.7802 596.296H66.4002L64.5802 601H60.3802L68.6402 580.56H73.5402L82.1922 601H77.7122ZM67.7722 592.796H74.3522L71.0482 584.704H70.9082L67.7722 592.796Z" fill="white"/>
        </a>
    </g>
    <g class="state-box" id="desktop-hi">
        <a href="#" class="state-link" data-selected-state="HI" title="Select Hawai'i">
            <path class="state-outline" d="M2.0625 762C2.0625 759.791 3.85336 758 6.0625 758H114.062C116.272 758 118.062 759.791 118.062 762V854H2.0625V762Z" stroke="url(#DesktopBorderGradient)" stroke-width="4"/>
            <path class="state-abbreviation" d="M61.022 817V808.432H50.438V817H46.238V796.56H50.438V804.82H61.022V796.56H65.222V817H61.022ZM69.699 817V796.56H73.899V817H69.699Z" fill="white"/>
        </a>
    </g>
    <g class="state-box" id="desktop-id">
        <a href="#" class="state-link" data-selected-state="ID" title="Select Idaho">
            <path class="state-outline" d="M130.062 330C130.062 327.791 131.853 326 134.062 326H242.062C244.272 326 246.062 327.791 246.062 330V422H130.062V330Z" stroke="url(#DesktopBorderGradient)" stroke-width="4"/>
            <path class="state-abbreviation" d="M174.607 385V364.56H178.807V385H174.607ZM183.275 385V364.56H191.535C198.115 364.56 202.567 367.976 202.567 374.668C202.567 381.164 198.199 385 191.535 385H183.275ZM187.475 381.388H191.227C194.867 381.388 198.227 379.54 198.227 374.78C198.227 369.656 194.867 368.172 191.227 368.172H187.475V381.388Z" fill="white"/>
        </a>
    </g>
    <g class="state-box" id="desktop-nv">
        <a href="#" class="state-link" data-selected-state="NV" title="Select Nevada">
            <path class="state-outline" d="M130.062 438C130.062 435.791 131.853 434 134.062 434H242.062C244.272 434 246.062 435.791 246.062 438V530H130.062V438Z" stroke="url(#DesktopBorderGradient)" stroke-width="4"/>
            <path class="state-abbreviation" d="M182.581 472.56H186.585V493H181.321L173.005 479.728L171.885 477.768V493H167.881V472.56H173.145L181.433 485.916L182.581 487.96V472.56ZM193.476 472.56L199.86 488.716H199.972L206.076 472.56H210.304L202.268 493H197.368L188.996 472.56H193.476Z" fill="white"/>
        </a>
    </g>
    <g class="state-box" id="desktop-ut">
        <a href="#" class="state-link" data-selected-state="UT" title="Select Utah">
            <path class="state-outline" d="M130.062 546C130.062 543.791 131.853 542 134.062 542H242.062C244.272 542 246.062 543.791 246.062 546V638H130.062V546Z" stroke="url(#DesktopBorderGradient)" stroke-width="4"/>
            <path class="state-abbreviation" d="M178.068 601.336C173.392 601.336 168.968 599.46 168.968 592.096V580.56H173.168V592.012C173.168 596.212 175.24 597.696 178.18 597.696C180.952 597.696 182.912 596.212 182.912 592.012V580.56H187.112V592.096C187.112 599.404 182.856 601.336 178.068 601.336ZM196.998 601V584.172H189.466V580.56H208.73V584.172H201.198V601H196.998Z" fill="white"/>
        </a>
    </g>
    <g class="state-box" id="desktop-az">
        <a href="#" class="state-link" data-selected-state="AZ" title="Select Arizona">
            <path class="state-outline" d="M130.062 654C130.062 651.791 131.853 650 134.062 650H242.062C244.272 650 246.062 651.791 246.062 654V746H130.062V654Z" stroke="url(#DesktopBorderGradient)" stroke-width="4"/>
            <path class="state-abbreviation" d="M184.835 709L182.903 704.296H173.523L171.703 709H167.503L175.763 688.56H180.663L189.315 709H184.835ZM174.895 700.796H181.475L178.171 692.704H178.031L174.895 700.796ZM207.712 688.56V691.948L195.868 705.388H207.712V709H190.52V705.724L202.532 692.172H190.772V688.56H207.712Z" fill="white"/>
        </a>
    </g>
    <g class="state-box" id="desktop-mt">
        <a href="#" class="state-link" data-selected-state="MT" title="Select Montana">
            <path class="state-outline" d="M258.062 330C258.062 327.791 259.853 326 262.062 326H370.062C372.272 326 374.062 327.791 374.062 330V422H258.062V330Z" stroke="url(#DesktopBorderGradient)" stroke-width="4"/>
            <path class="state-abbreviation" d="M317.844 364.56V385H313.644V369.096H313.504L307.988 385H304.04L298.356 369.096H298.244V385H294.24V364.56H300.876L306.112 379.96H306.196L311.376 364.56H317.844ZM328.006 385V368.172H320.474V364.56H339.738V368.172H332.206V385H328.006Z" fill="white"/>
        </a>
    </g>
    <g class="state-box" id="desktop-wy">
        <a href="#" class="state-link" data-selected-state="WY" title="Select Wyoming">
            <path class="state-outline" d="M258.062 438C258.062 435.791 259.853 434 262.062 434H370.062C372.272 434 374.062 435.791 374.062 438V530H258.062V438Z" stroke="url(#DesktopBorderGradient)" stroke-width="4"/>
            <path class="state-abbreviation" d="M320.347 472.56L315.335 493H309.735L305.899 477.516H305.731L301.867 493H296.323L291.283 472.56H295.623L299.319 488.38H299.459L303.407 472.56H308.419L312.395 488.38H312.563L316.231 472.56H320.347ZM341.082 472.56L333.018 485.552V493H328.818V485.496L320.754 472.56H325.514L331.086 481.828L336.658 472.56H341.082Z" fill="white"/>
        </a>
    </g>
    <g class="state-box" id="desktop-co">
        <a href="#" class="state-link" data-selected-state="CO" title="Select Colorado">
            <path class="state-outline" d="M258.062 546C258.062 543.791 259.853 542 262.062 542H370.062C372.272 542 374.062 543.791 374.062 546V638H258.062V546Z" stroke="url(#DesktopBorderGradient)" stroke-width="4"/>
            <path class="state-abbreviation" d="M314.477 592.292C313.693 597.528 310.193 601.336 303.809 601.336C297.257 601.336 293.505 596.968 293.505 591.06C293.505 584.48 297.649 580.224 304.089 580.224C309.689 580.224 313.133 583.556 314.113 588.12L310.193 589.1C309.409 585.852 307.281 583.864 304.145 583.864C300.225 583.864 297.845 586.552 297.845 590.892C297.845 595.148 300.085 597.696 304.033 597.696C307.589 597.696 309.941 595.4 310.445 591.788L314.477 592.292ZM327.667 601.336C321.115 601.336 316.747 597.052 316.747 590.78C316.747 584.508 321.115 580.224 327.667 580.224C334.247 580.224 338.615 584.508 338.615 590.78C338.615 597.052 334.247 601.336 327.667 601.336ZM321.087 590.78C321.087 594.868 323.551 597.696 327.667 597.696C331.811 597.696 334.275 594.868 334.275 590.78C334.275 586.692 331.811 583.864 327.667 583.864C323.551 583.864 321.087 586.692 321.087 590.78Z" fill="white"/>
        </a>
    </g>
    <g class="state-box" id="desktop-nm">
        <a href="#" class="state-link" data-selected-state="NM" title="Select New Mexico">
            <path class="state-outline" d="M258.062 654C258.062 651.791 259.853 650 262.062 650H370.062C372.272 650 374.062 651.791 374.062 654V746H258.062V654Z" stroke="url(#DesktopBorderGradient)" stroke-width="4"/>
            <path class="state-abbreviation" d="M307.368 688.56H311.372V709H306.108L297.792 695.728L296.672 693.768V709H292.668V688.56H297.932L306.22 701.916L307.368 703.96V688.56ZM339.459 688.56V709H335.259V693.096H335.119L329.603 709H325.655L319.971 693.096H319.859V709H315.855V688.56H322.491L327.727 703.96H327.811L332.991 688.56H339.459Z" fill="white"/>
        </a>
    </g>
    <g class="state-box" id="desktop-nd">
        <a href="#" class="state-link" data-selected-state="ND" title="Select North Dakota">
            <path class="state-outline" d="M386.062 330C386.062 327.791 387.853 326 390.062 326H498.062C500.272 326 502.062 327.791 502.062 330V422H386.062V330Z" stroke="url(#DesktopBorderGradient)" stroke-width="4"/>
            <path class="state-abbreviation" d="M438.047 364.56H442.051V385H436.787L428.471 371.728L427.351 369.768V385H423.347V364.56H428.611L436.899 377.916L438.047 379.96V364.56ZM446.535 385V364.56H454.795C461.375 364.56 465.827 367.976 465.827 374.668C465.827 381.164 461.459 385 454.795 385H446.535ZM450.735 381.388H454.487C458.127 381.388 461.487 379.54 461.487 374.78C461.487 369.656 458.127 368.172 454.487 368.172H450.735V381.388Z" fill="white"/>
        </a>
    </g>
    <g class="state-box" id="desktop-sd">
        <a href="#" class="state-link" data-selected-state="SD" title="Select South Dakota">
            <path class="state-outline" d="M386.062 438C386.062 435.791 387.853 434 390.062 434H498.062C500.272 434 502.062 435.791 502.062 438V530H386.062V438Z" stroke="url(#DesktopBorderGradient)" stroke-width="4"/>
            <path class="state-abbreviation" d="M426.696 485.86C427.844 488.52 430.14 489.78 433.192 489.78C436.468 489.78 437.728 488.38 437.728 486.98C437.728 485.58 436.636 484.908 434.62 484.628C433.36 484.46 431.652 484.32 430.308 484.152C426.948 483.732 424.232 482.248 424.232 478.608C424.232 474.772 427.676 472.224 432.66 472.224C436.048 472.224 439.156 473.26 441.228 476.396L438.176 478.776C436.664 476.508 434.788 475.752 432.632 475.752C430.056 475.752 428.516 476.956 428.516 478.356C428.516 479.644 429.412 480.204 431.4 480.428C432.576 480.568 433.976 480.708 435.404 480.876C438.428 481.24 442.012 482.472 442.012 486.672C442.012 490.844 438.4 493.336 433.108 493.336C428.46 493.336 424.988 491.544 423.168 487.512L426.696 485.86ZM445.455 493V472.56H453.715C460.295 472.56 464.747 475.976 464.747 482.668C464.747 489.164 460.379 493 453.715 493H445.455ZM449.655 489.388H453.407C457.047 489.388 460.407 487.54 460.407 482.78C460.407 477.656 457.047 476.172 453.407 476.172H449.655V489.388Z" fill="white"/>
        </a>
    </g>
    <g class="state-box" id="desktop-ne">
        <a href="#" class="state-link" data-selected-state="NE" title="Select Nebraska">
            <path class="state-outline" d="M386.062 546C386.062 543.791 387.853 542 390.062 542H498.062C500.272 542 502.062 543.791 502.062 546V638H386.062V546Z" stroke="url(#DesktopBorderGradient)" stroke-width="4"/>
            <path class="state-abbreviation" d="M439.92 580.56H443.924V601H438.66L430.344 587.728L429.224 585.768V601H425.22V580.56H430.484L438.772 593.916L439.92 595.96V580.56ZM448.408 601V580.56H463.92V584.172H452.608V588.876H461.708V592.488H452.608V597.388H464.256V601H448.408Z" fill="white"/>
        </a>
    </g>
    <g class="state-box" id="desktop-ks">
        <a href="#" class="state-link" data-selected-state="KS" title="Select Kansas">
            <path class="state-outline" d="M386.062 654C386.062 651.791 387.853 650 390.062 650H498.062C500.272 650 502.062 651.791 502.062 654V746H386.062V654Z" stroke="url(#DesktopBorderGradient)" stroke-width="4"/>
            <path class="state-abbreviation" d="M425.59 688.56H429.79V697.688L439.03 688.56H444.098L435.53 696.96L444.546 709H439.338L432.534 699.872L429.79 702.56V709H425.59V688.56ZM448.256 701.86C449.404 704.52 451.7 705.78 454.752 705.78C458.028 705.78 459.288 704.38 459.288 702.98C459.288 701.58 458.196 700.908 456.18 700.628C454.92 700.46 453.212 700.32 451.868 700.152C448.508 699.732 445.792 698.248 445.792 694.608C445.792 690.772 449.236 688.224 454.22 688.224C457.608 688.224 460.716 689.26 462.788 692.396L459.736 694.776C458.224 692.508 456.348 691.752 454.192 691.752C451.616 691.752 450.076 692.956 450.076 694.356C450.076 695.644 450.972 696.204 452.96 696.428C454.136 696.568 455.536 696.708 456.964 696.876C459.988 697.24 463.572 698.472 463.572 702.672C463.572 706.844 459.96 709.336 454.668 709.336C450.02 709.336 446.548 707.544 444.728 703.512L448.256 701.86Z" fill="white"/>
        </a>
    </g>
    <g class="state-box" id="desktop-ok">
        <a href="#" class="state-link" data-selected-state="OK" title="Select Oklahoma">
            <path class="state-outline" d="M386.062 762C386.062 759.791 387.853 758 390.062 758H498.062C500.272 758 502.062 759.791 502.062 762V854H386.062V762Z" stroke="url(#DesktopBorderGradient)" stroke-width="4"/>
            <path class="state-abbreviation" d="M433.423 817.336C426.871 817.336 422.503 813.052 422.503 806.78C422.503 800.508 426.871 796.224 433.423 796.224C440.003 796.224 444.371 800.508 444.371 806.78C444.371 813.052 440.003 817.336 433.423 817.336ZM426.843 806.78C426.843 810.868 429.307 813.696 433.423 813.696C437.567 813.696 440.031 810.868 440.031 806.78C440.031 802.692 437.567 799.864 433.423 799.864C429.307 799.864 426.843 802.692 426.843 806.78ZM447.82 796.56H452.02V805.688L461.26 796.56H466.328L457.76 804.96L466.776 817H461.568L454.764 807.872L452.02 810.56V817H447.82V796.56Z" fill="white"/>
        </a>
    </g>
    <g class="state-box" id="desktop-tx">
        <a href="#" class="state-link" data-selected-state="TX" title="Select Texas">
            <path class="state-outline" d="M386.062 870C386.062 867.791 387.853 866 390.062 866H498.062C500.272 866 502.062 867.791 502.062 870V962H386.062V870Z" stroke="url(#DesktopBorderGradient)" stroke-width="4"/>
            <path class="state-abbreviation" d="M431.602 925V908.172H424.07V904.56H443.334V908.172H435.802V925H431.602ZM464.245 925H459.317L453.885 917.468L448.481 925H443.917L451.561 914.64L444.309 904.56H449.237L454.305 911.812L459.401 904.56H463.965L456.629 914.528L464.245 925Z" fill="white"/>
        </a>
    </g>
    <g class="state-box" id="desktop-mn">
        <a href="#" class="state-link" data-selected-state="MN" title="Select Minnesota">
            <path class="state-outline" d="M514.062 330C514.062 327.791 515.853 326 518.062 326H626.062C628.272 326 630.062 327.791 630.062 330V422H514.062V330Z" stroke="url(#DesktopBorderGradient)" stroke-width="4"/>
            <path class="state-abbreviation" d="M572.272 364.56V385H568.072V369.096H567.932L562.416 385H558.468L552.784 369.096H552.672V385H548.668V364.56H555.304L560.54 379.96H560.624L565.804 364.56H572.272ZM591.45 364.56H595.454V385H590.19L581.874 371.728L580.754 369.768V385H576.75V364.56H582.014L590.302 377.916L591.45 379.96V364.56Z" fill="white"/>
        </a>
    </g>
    <g class="state-box" id="desktop-ia">
        <a href="#" class="state-link" data-selected-state="IA" title="Select Iowa">
            <path class="state-outline" d="M514.062 438C514.062 435.791 515.853 434 518.062 434H626.062C628.272 434 630.062 435.791 630.062 438V530H514.062V438Z" stroke="url(#DesktopBorderGradient)" stroke-width="4"/>
            <path class="state-abbreviation" d="M558.908 493V472.56H563.108V493H558.908ZM582.808 493L580.876 488.296H571.496L569.676 493H565.476L573.736 472.56H578.636L587.288 493H582.808ZM572.868 484.796H579.448L576.144 476.704H576.004L572.868 484.796Z" fill="white"/>
        </a>
    </g>
    <g class="state-box" id="desktop-mo">
        <a href="#" class="state-link" data-selected-state="MO" title="Select Missouri">
            <path class="state-outline" d="M514.062 546C514.062 543.791 515.853 542 518.062 542H626.062C628.272 542 630.062 543.791 630.062 546V638H514.062V546Z" stroke="url(#DesktopBorderGradient)" stroke-width="4"/>
            <path class="state-abbreviation" d="M571.725 580.56V601H567.525V585.096H567.385L561.869 601H557.921L552.237 585.096H552.125V601H548.121V580.56H554.757L559.993 595.96H560.077L565.257 580.56H571.725ZM586.087 601.336C579.535 601.336 575.167 597.052 575.167 590.78C575.167 584.508 579.535 580.224 586.087 580.224C592.667 580.224 597.035 584.508 597.035 590.78C597.035 597.052 592.667 601.336 586.087 601.336ZM579.507 590.78C579.507 594.868 581.971 597.696 586.087 597.696C590.231 597.696 592.695 594.868 592.695 590.78C592.695 586.692 590.231 583.864 586.087 583.864C581.971 583.864 579.507 586.692 579.507 590.78Z" fill="white"/>
        </a>
    </g>
    <g class="state-box" id="desktop-ar">
        <a href="#" class="state-link" data-selected-state="AR" title="Select Arkansas">
            <path class="state-outline" d="M514.062 654C514.062 651.791 515.853 650 518.062 650H626.062C628.272 650 630.062 651.791 630.062 654V746H514.062V654Z" stroke="url(#DesktopBorderGradient)" stroke-width="4"/>
            <path class="state-abbreviation" d="M567.618 709L565.686 704.296H556.306L554.486 709H550.286L558.546 688.56H563.446L572.098 709H567.618ZM557.678 700.796H564.258L560.954 692.704H560.814L557.678 700.796ZM588.256 709C587.584 708.272 587.332 706.172 587.136 704.492C586.884 702.252 586.24 701.524 584.028 701.524H578.708V709H574.508V688.56H585.512C589.964 688.56 592.232 690.772 592.232 694.44C592.232 698.528 589.46 699.592 587.36 699.732V699.816C589.292 699.984 590.832 700.74 591.364 703.792C591.812 706.34 592.12 708.104 593.1 709H588.256ZM578.708 697.968H583.888C585.456 697.968 587.976 697.632 587.976 695.028C587.976 693.292 586.94 692.172 584.532 692.172H578.708V697.968Z" fill="white"/>
        </a>
    </g>
    <g class="state-box" id="desktop-la">
        <a href="#" class="state-link" data-selected-state="LA" title="Select Louisiana">
            <path class="state-outline" d="M514.062 762C514.062 759.791 515.853 758 518.062 758H626.062C628.272 758 630.062 759.791 630.062 762V854H514.062V762Z" stroke="url(#DesktopBorderGradient)" stroke-width="4"/>
            <path class="state-abbreviation" d="M554.355 817V796.56H558.555V813.388H569.419V817H554.355ZM587.361 817L585.429 812.296H576.049L574.229 817H570.029L578.289 796.56H583.189L591.841 817H587.361ZM577.421 808.796H584.001L580.697 800.704H580.557L577.421 808.796Z" fill="white"/>
        </a>
    </g>
    <g class="state-box" id="desktop-wi">
        <a href="#" class="state-link" data-selected-state="WI" title="Select Wisconsin">
            <path class="state-outline" d="M642.062 222C642.062 219.791 643.853 218 646.062 218H754.062C756.272 218 758.062 219.791 758.062 222V314H642.062V222Z" stroke="url(#DesktopBorderGradient)" stroke-width="4"/>
            <path class="state-abbreviation" d="M710.267 256.56L705.255 277H699.655L695.819 261.516H695.651L691.787 277H686.243L681.203 256.56H685.543L689.239 272.38H689.379L693.327 256.56H698.339L702.315 272.38H702.483L706.151 256.56H710.267ZM712.83 277V256.56H717.03V277H712.83Z" fill="white"/>
        </a>
    </g>
    <g class="state-box" id="desktop-il">
        <a href="#" class="state-link" data-selected-state="IL" title="Select Illinois">
            <path class="state-outline" d="M642.062 330C642.062 327.791 643.853 326 646.062 326H754.062C756.272 326 758.062 327.791 758.062 330V422H642.062V330Z" stroke="url(#DesktopBorderGradient)" stroke-width="4"/>
            <path class="state-abbreviation" d="M689.082 385V364.56H693.282V385H689.082ZM697.75 385V364.56H701.95V381.388H712.814V385H697.75Z" fill="white"/>
        </a>
    </g>
    <g class="state-box" id="desktop-in">
        <a href="#" class="state-link" data-selected-state="IN" title="Select Indiana">
            <path class="state-outline" d="M642.062 438C642.062 435.791 643.853 434 646.062 434H754.062C756.272 434 758.062 435.791 758.062 438V530H642.062V438Z" stroke="url(#DesktopBorderGradient)" stroke-width="4"/>
            <path class="state-abbreviation" d="M686.375 493V472.56H690.575V493H686.375ZM709.743 472.56H713.747V493H708.483L700.167 479.728L699.047 477.768V493H695.043V472.56H700.307L708.595 485.916L709.743 487.96V472.56Z" fill="white"/>
        </a>
    </g>
    <g class="state-box" id="desktop-ky">
        <a href="#" class="state-link" data-selected-state="KY" title="Select Kentucky">
            <path class="state-outline" d="M642.062 546C642.062 543.791 643.853 542 646.062 542H754.062C756.272 542 758.062 543.791 758.062 546V638H642.062V546Z" stroke="url(#DesktopBorderGradient)" stroke-width="4"/>
            <path class="state-abbreviation" d="M681.426 580.56H685.626V589.688L694.866 580.56H699.934L691.366 588.96L700.382 601H695.174L688.37 591.872L685.626 594.56V601H681.426V580.56ZM720.844 580.56L712.78 593.552V601H708.58V593.496L700.516 580.56H705.276L710.848 589.828L716.42 580.56H720.844Z" fill="white"/>
        </a>
    </g>
    <g class="state-box" id="desktop-tn">
        <a href="#" class="state-link" data-selected-state="TN" title="Select Tennessee">
            <path class="state-outline" d="M642.062 654C642.062 651.791 643.853 650 646.062 650H754.062C756.272 650 758.062 651.791 758.062 654V746H642.062V654Z" stroke="url(#DesktopBorderGradient)" stroke-width="4"/>
            <path class="state-abbreviation" d="M686.371 709V692.172H678.839V688.56H698.103V692.172H690.571V709H686.371ZM715.43 688.56H719.434V709H714.17L705.854 695.728L704.734 693.768V709H700.73V688.56H705.994L714.282 701.916L715.43 703.96V688.56Z" fill="white"/>
        </a>
    </g>
    <g class="state-box" id="desktop-ms">
        <a href="#" class="state-link" data-selected-state="MS" title="Select Mississippi">
            <path class="state-outline" d="M642.062 762C642.062 759.791 643.853 758 646.062 758H754.062C756.272 758 758.062 759.791 758.062 762V854H642.062V762Z" stroke="url(#DesktopBorderGradient)" stroke-width="4"/>
            <path class="state-abbreviation" d="M701.352 796.56V817H697.152V801.096H697.012L691.496 817H687.548L681.864 801.096H681.752V817H677.748V796.56H684.384L689.62 811.96H689.704L694.884 796.56H701.352ZM708.098 809.86C709.246 812.52 711.542 813.78 714.594 813.78C717.87 813.78 719.13 812.38 719.13 810.98C719.13 809.58 718.038 808.908 716.022 808.628C714.762 808.46 713.054 808.32 711.71 808.152C708.35 807.732 705.634 806.248 705.634 802.608C705.634 798.772 709.078 796.224 714.062 796.224C717.45 796.224 720.558 797.26 722.63 800.396L719.578 802.776C718.066 800.508 716.19 799.752 714.034 799.752C711.458 799.752 709.918 800.956 709.918 802.356C709.918 803.644 710.814 804.204 712.802 804.428C713.978 804.568 715.378 804.708 716.806 804.876C719.83 805.24 723.414 806.472 723.414 810.672C723.414 814.844 719.802 817.336 714.51 817.336C709.862 817.336 706.39 815.544 704.57 811.512L708.098 809.86Z" fill="white"/>
        </a>
    </g>
    <g class="state-box" id="desktop-mi">
        <a href="#" class="state-link" data-selected-state="MI" title="Select Michigan">
            <path class="state-outline" d="M770.062 330C770.062 327.791 771.853 326 774.062 326H882.062C884.272 326 886.062 327.791 886.062 330V422H770.062V330Z" stroke="url(#DesktopBorderGradient)" stroke-width="4"/>
            <path class="state-abbreviation" d="M835.532 364.56V385H831.332V369.096H831.192L825.676 385H821.728L816.044 369.096H815.932V385H811.928V364.56H818.564L823.8 379.96H823.884L829.064 364.56H835.532ZM840.01 385V364.56H844.21V385H840.01Z" fill="white"/>
        </a>
    </g>
    <g class="state-box" id="desktop-oh">
        <a href="#" class="state-link" data-selected-state="OH" title="Select Ohio">
            <path class="state-outline" d="M770.062 438C770.062 435.791 771.853 434 774.062 434H882.062C884.272 434 886.062 435.791 886.062 438V530H770.062V438Z" stroke="url(#DesktopBorderGradient)" stroke-width="4"/>
            <path class="state-abbreviation" d="M816.315 493.336C809.763 493.336 805.395 489.052 805.395 482.78C805.395 476.508 809.763 472.224 816.315 472.224C822.895 472.224 827.263 476.508 827.263 482.78C827.263 489.052 822.895 493.336 816.315 493.336ZM809.735 482.78C809.735 486.868 812.199 489.696 816.315 489.696C820.459 489.696 822.923 486.868 822.923 482.78C822.923 478.692 820.459 475.864 816.315 475.864C812.199 475.864 809.735 478.692 809.735 482.78ZM845.497 493V484.432H834.913V493H830.713V472.56H834.913V480.82H845.497V472.56H849.697V493H845.497Z" fill="white"/>
        </a>
    </g>
    <g class="state-box" id="desktop-wv">
        <a href="#" class="state-link" data-selected-state="WV" title="Select West Virginia">
            <path class="state-outline" d="M770.062 546C770.062 543.791 771.853 542 774.062 542H882.062C884.272 542 886.062 543.791 886.062 546V638H770.062V546Z" stroke="url(#DesktopBorderGradient)" stroke-width="4"/>
            <path class="state-abbreviation" d="M831.773 580.56L826.761 601H821.161L817.325 585.516H817.157L813.293 601H807.749L802.709 580.56H807.049L810.745 596.38H810.885L814.833 580.56H819.845L823.821 596.38H823.989L827.657 580.56H831.773ZM836.744 580.56L843.128 596.716H843.24L849.344 580.56H853.572L845.536 601H840.636L832.264 580.56H836.744Z" fill="white"/>
        </a>
    </g>
    <g class="state-box" id="desktop-nc">
        <a href="#" class="state-link" data-selected-state="NC" title="Select North Carolina">
            <path class="state-outline" d="M770.062 654C770.062 651.791 771.853 650 774.062 650H882.062C884.272 650 886.062 651.791 886.062 654V746H770.062V654Z" stroke="url(#DesktopBorderGradient)" stroke-width="4"/>
            <path class="state-abbreviation" d="M821.788 688.56H825.792V709H820.528L812.212 695.728L811.092 693.768V709H807.088V688.56H812.352L820.64 701.916L821.788 703.96V688.56ZM850.211 700.292C849.427 705.528 845.927 709.336 839.543 709.336C832.991 709.336 829.239 704.968 829.239 699.06C829.239 692.48 833.383 688.224 839.823 688.224C845.423 688.224 848.867 691.556 849.847 696.12L845.927 697.1C845.143 693.852 843.015 691.864 839.879 691.864C835.959 691.864 833.579 694.552 833.579 698.892C833.579 703.148 835.819 705.696 839.767 705.696C843.323 705.696 845.675 703.4 846.179 699.788L850.211 700.292Z" fill="white"/>
        </a>
    </g>
    <g class="state-box" id="desktop-al">
        <a href="#" class="state-link" data-selected-state="AL" title="Select Alabama">
            <path class="state-outline" d="M770.062 762C770.062 759.791 771.853 758 774.062 758H882.062C884.272 758 886.062 759.791 886.062 762V854H770.062V762Z" stroke="url(#DesktopBorderGradient)" stroke-width="4"/>
            <path class="state-abbreviation" d="M825.587 817L823.655 812.296H814.275L812.455 817H808.255L816.515 796.56H821.415L830.067 817H825.587ZM815.647 808.796H822.227L818.923 800.704H818.783L815.647 808.796ZM832.476 817V796.56H836.676V813.388H847.54V817H832.476Z" fill="white"/>
        </a>
    </g>
    <g class="state-box" id="desktop-ny">
        <a href="#" class="state-link" data-selected-state="NY" title="Select New York">
            <path class="state-outline" d="M898.062 222C898.062 219.791 899.853 218 902.062 218H1010.06C1012.27 218 1014.06 219.791 1014.06 222V314H898.062V222Z" stroke="url(#DesktopBorderGradient)" stroke-width="4"/>
            <path class="state-abbreviation" d="M951.155 256.56H955.159V277H949.895L941.579 263.728L940.459 261.768V277H936.455V256.56H941.719L950.007 269.916L951.155 271.96V256.56ZM977.814 256.56L969.75 269.552V277H965.55V269.496L957.486 256.56H962.246L967.818 265.828L973.39 256.56H977.814Z" fill="white"/>
        </a>
    </g>
    <g class="state-box" id="desktop-pa">
        <a href="#" class="state-link" data-selected-state="PA" title="Select Pennsylvania">
            <path class="state-outline" d="M898.062 330C898.062 327.791 899.853 326 902.062 326H1010.06C1012.27 326 1014.06 327.791 1014.06 330V422H898.062V330Z" stroke="url(#DesktopBorderGradient)" stroke-width="4"/>
            <path class="state-abbreviation" d="M937.822 385V364.56H947.37C952.242 364.56 955.35 366.688 955.35 371.14C955.35 375.564 952.27 377.944 947.202 377.944H942.022V385H937.822ZM942.022 374.332H946.95C949.638 374.332 951.122 373.52 951.122 371.308C951.122 368.984 949.61 368.172 947.09 368.172H942.022V374.332ZM971.894 385L969.962 380.296H960.582L958.762 385H954.562L962.822 364.56H967.722L976.374 385H971.894ZM961.954 376.796H968.534L965.23 368.704H965.09L961.954 376.796Z" fill="white"/>
        </a>
    </g>
    <g class="state-box" id="desktop-md">
        <a href="#" class="state-link" data-selected-state="MD" title="Select Maryland">
            <path class="state-outline" d="M898.062 438C898.062 435.791 899.853 434 902.062 434H1010.06C1012.27 434 1014.06 435.791 1014.06 438V530H898.062V438Z" stroke="url(#DesktopBorderGradient)" stroke-width="4"/>
            <path class="state-abbreviation" d="M956.504 472.56V493H952.304V477.096H952.164L946.648 493H942.7L937.016 477.096H936.904V493H932.9V472.56H939.536L944.772 487.96H944.856L950.036 472.56H956.504ZM960.982 493V472.56H969.242C975.822 472.56 980.274 475.976 980.274 482.668C980.274 489.164 975.906 493 969.242 493H960.982ZM965.182 489.388H968.934C972.574 489.388 975.934 487.54 975.934 482.78C975.934 477.656 972.574 476.172 968.934 476.172H965.182V489.388Z" fill="white"/>
        </a>
    </g>
    <g class="state-box" id="desktop-va">
        <a href="#" class="state-link" data-selected-state="VA" title="Select Virginia">
            <path class="state-outline" d="M898.062 546C898.062 543.791 899.853 542 902.062 542H1010.06C1012.27 542 1014.06 543.791 1014.06 546V638H898.062V546Z" stroke="url(#DesktopBorderGradient)" stroke-width="4"/>
            <path class="state-abbreviation" d="M939.683 580.56L946.067 596.716H946.179L952.283 580.56H956.511L948.475 601H943.575L935.203 580.56H939.683ZM972.441 601L970.509 596.296H961.129L959.309 601H955.109L963.369 580.56H968.269L976.921 601H972.441ZM962.501 592.796H969.081L965.777 584.704H965.637L962.501 592.796Z" fill="white"/>
        </a>
    </g>
    <g class="state-box" id="desktop-sc">
        <a href="#" class="state-link" data-selected-state="SC" title="Select South Carolina">
            <path class="state-outline" d="M898.062 654C898.062 651.791 899.853 650 902.062 650H1010.06C1012.27 650 1014.06 651.791 1014.06 654V746H898.062V654Z" stroke="url(#DesktopBorderGradient)" stroke-width="4"/>
            <path class="state-abbreviation" d="M938.436 701.86C939.584 704.52 941.88 705.78 944.932 705.78C948.208 705.78 949.468 704.38 949.468 702.98C949.468 701.58 948.376 700.908 946.36 700.628C945.1 700.46 943.392 700.32 942.048 700.152C938.688 699.732 935.972 698.248 935.972 694.608C935.972 690.772 939.416 688.224 944.4 688.224C947.788 688.224 950.896 689.26 952.968 692.396L949.916 694.776C948.404 692.508 946.528 691.752 944.372 691.752C941.796 691.752 940.256 692.956 940.256 694.356C940.256 695.644 941.152 696.204 943.14 696.428C944.316 696.568 945.716 696.708 947.144 696.876C950.168 697.24 953.752 698.472 953.752 702.672C953.752 706.844 950.14 709.336 944.848 709.336C940.2 709.336 936.728 707.544 934.908 703.512L938.436 701.86ZM977.131 700.292C976.347 705.528 972.847 709.336 966.463 709.336C959.911 709.336 956.159 704.968 956.159 699.06C956.159 692.48 960.303 688.224 966.743 688.224C972.343 688.224 975.787 691.556 976.767 696.12L972.847 697.1C972.063 693.852 969.935 691.864 966.799 691.864C962.879 691.864 960.499 694.552 960.499 698.892C960.499 703.148 962.739 705.696 966.687 705.696C970.243 705.696 972.595 703.4 973.099 699.788L977.131 700.292Z" fill="white"/>
        </a>
    </g>
    <g class="state-box" id="desktop-ga">
        <a href="#" class="state-link" data-selected-state="GA" title="Select Georgia">
            <path class="state-outline" d="M898.062 762C898.062 759.791 899.853 758 902.062 758H1010.06C1012.27 758 1014.06 759.791 1014.06 762V854H898.062V762Z" stroke="url(#DesktopBorderGradient)" stroke-width="4"/>
            <path class="state-abbreviation" d="M951.835 817L951.639 812.156H951.555C950.267 815.46 947.411 817.336 943.827 817.336C937.303 817.336 933.915 813.108 933.915 807.032C933.915 800.536 938.227 796.224 944.863 796.224C949.987 796.224 953.627 798.912 954.943 803.14L950.967 804.176C950.183 801.74 948.223 799.864 944.835 799.864C940.803 799.864 938.255 802.58 938.255 806.976C938.255 811.26 940.691 813.724 944.471 813.724C947.579 813.724 950.407 812.072 951.023 809.132H944.975V805.94H955.363V817H951.835ZM974.765 817L972.833 812.296H963.453L961.633 817H957.433L965.693 796.56H970.593L979.245 817H974.765ZM964.825 808.796H971.405L968.101 800.704H967.961L964.825 808.796Z" fill="white"/>
        </a>
    </g>
    <g class="state-box" id="desktop-fl">
        <a href="#" class="state-link" data-selected-state="FL" title="Select Florida">
            <path class="state-outline" d="M898.062 870C898.062 867.791 899.853 866 902.062 866H1010.06C1012.27 866 1014.06 867.791 1014.06 870V962H898.062V870Z" stroke="url(#DesktopBorderGradient)" stroke-width="4"/>
            <path class="state-abbreviation" d="M940.529 925V904.56H955.677V908.172H944.729V913.296H953.661V916.908H944.729V925H940.529ZM958.303 925V904.56H962.503V921.388H973.367V925H958.303Z" fill="white"/>
        </a>
    </g>
    <g class="state-box" id="desktop-vt">
        <a href="#" class="state-link" data-selected-state="VT" title="Select Vermont">
            <path class="state-outline" d="M1026.06 114C1026.06 111.791 1027.85 110 1030.06 110H1138.06C1140.27 110 1142.06 111.791 1142.06 114V206H1026.06V114Z" stroke="url(#DesktopBorderGradient)" stroke-width="4"/>
            <path class="state-abbreviation" d="M1067.74 148.56L1074.12 164.716H1074.23L1080.34 148.56H1084.57L1076.53 169H1071.63L1063.26 148.56H1067.74ZM1092.92 169V152.172H1085.38V148.56H1104.65V152.172H1097.12V169H1092.92Z" fill="white"/>
        </a>
    </g>
    <g class="state-box" id="desktop-ma">
        <a href="#" class="state-link" data-selected-state="MA" title="Select Massachusetts">
            <path class="state-outline" d="M1026.06 222C1026.06 219.791 1027.85 218 1030.06 218H1138.06C1140.27 218 1142.06 219.791 1142.06 222V314H1026.06V222Z" stroke="url(#DesktopBorderGradient)" stroke-width="4"/>
            <path class="state-abbreviation" d="M1084.8 256.56V277H1080.6V261.096H1080.46L1074.95 277H1071L1065.32 261.096H1065.2V277H1061.2V256.56H1067.84L1073.07 271.96H1073.16L1078.34 256.56H1084.8ZM1104.51 277L1102.58 272.296H1093.2L1091.38 277H1087.18L1095.44 256.56H1100.34L1108.99 277H1104.51ZM1094.57 268.796H1101.15L1097.85 260.704H1097.71L1094.57 268.796Z" fill="white"/>
        </a>
    </g>
    <g class="state-box" id="desktop-nj">
        <a href="#" class="state-link" data-selected-state="NJ" title="Select New Jersey">
            <path class="state-outline" d="M1026.06 330C1026.06 327.791 1027.85 326 1030.06 326H1138.06C1140.27 326 1142.06 327.791 1142.06 330V422H1026.06V330Z" stroke="url(#DesktopBorderGradient)" stroke-width="4"/>
            <path class="state-abbreviation" d="M1079.88 364.56H1083.88V385H1078.62L1070.3 371.728L1069.18 369.768V385H1065.18V364.56H1070.44L1078.73 377.916L1079.88 379.96V364.56ZM1103.35 377.328C1103.35 382.984 1099.87 385.336 1094.86 385.336C1089.46 385.336 1087.05 382.228 1086.83 377.272L1090.75 376.992C1091.03 379.988 1092.17 381.864 1094.92 381.864C1097.66 381.864 1099.15 380.576 1099.15 377.356V364.56H1103.35V377.328Z" fill="white"/>
        </a>
    </g>
    <g class="state-box" id="desktop-de">
        <a href="#" class="state-link" data-selected-state="DE" title="Select Delaware">
            <path class="state-outline" d="M1026.06 438C1026.06 435.791 1027.85 434 1030.06 434H1138.06C1140.27 434 1142.06 435.791 1142.06 438V530H1026.06V438Z" stroke="url(#DesktopBorderGradient)" stroke-width="4"/>
            <path class="state-abbreviation" d="M1065.45 493V472.56H1073.71C1080.29 472.56 1084.74 475.976 1084.74 482.668C1084.74 489.164 1080.38 493 1073.71 493H1065.45ZM1069.65 489.388H1073.4C1077.04 489.388 1080.4 487.54 1080.4 482.78C1080.4 477.656 1077.04 476.172 1073.4 476.172H1069.65V489.388ZM1088.18 493V472.56H1103.69V476.172H1092.38V480.876H1101.48V484.488H1092.38V489.388H1104.02V493H1088.18Z" fill="white"/>
        </a>
    </g>
    <g class="state-box" id="desktop-dc">
        <a href="#" class="state-link" data-selected-state="DC" title="Select Washington, D.C.">
            <path class="state-outline" d="M1026.06 546C1026.06 543.791 1027.85 542 1030.06 542H1138.06C1140.27 542 1142.06 543.791 1142.06 546V638H1026.06V546Z" stroke="url(#DesktopBorderGradient)" stroke-width="4"/>
            <path class="state-abbreviation" d="M1063.32 601V580.56H1071.58C1078.16 580.56 1082.61 583.976 1082.61 590.668C1082.61 597.164 1078.24 601 1071.58 601H1063.32ZM1067.52 597.388H1071.27C1074.91 597.388 1078.27 595.54 1078.27 590.78C1078.27 585.656 1074.91 584.172 1071.27 584.172H1067.52V597.388ZM1105.98 592.292C1105.19 597.528 1101.69 601.336 1095.31 601.336C1088.76 601.336 1085.01 596.968 1085.01 591.06C1085.01 584.48 1089.15 580.224 1095.59 580.224C1101.19 580.224 1104.63 583.556 1105.61 588.12L1101.69 589.1C1100.91 585.852 1098.78 583.864 1095.65 583.864C1091.73 583.864 1089.35 586.552 1089.35 590.892C1089.35 595.148 1091.59 597.696 1095.53 597.696C1099.09 597.696 1101.44 595.4 1101.95 591.788L1105.98 592.292Z" fill="white"/>
        </a>
    </g>
    <g class="state-box" id="desktop-me">
        <a href="#" class="state-link" data-selected-state="ME" title="Select Maine">
            <path class="state-outline" d="M1153.81 6C1153.81 3.79086 1155.6 2 1157.81 2H1265.81C1268.02 2 1269.81 3.79086 1269.81 6V98H1153.81V6Z" stroke="url(#DesktopBorderGradient)" stroke-width="4"/>
            <path class="state-abbreviation" d="M1214.13 40.56V61H1209.93V45.096H1209.79L1204.27 61H1200.32L1194.64 45.096H1194.53V61H1190.52V40.56H1197.16L1202.4 55.96H1202.48L1207.66 40.56H1214.13ZM1218.61 61V40.56H1234.12V44.172H1222.81V48.876H1231.91V52.488H1222.81V57.388H1234.45V61H1218.61Z" fill="white"/>
        </a>
    </g>
    <g class="state-box" id="desktop-nh">
        <a href="#" class="state-link" data-selected-state="NH" title="Select New Hampshire">
            <path class="state-outline" d="M1153.81 114C1153.81 111.791 1155.6 110 1157.81 110H1265.81C1268.02 110 1269.81 111.791 1269.81 114V206H1153.81V114Z" stroke="url(#DesktopBorderGradient)" stroke-width="4"/>
            <path class="state-abbreviation" d="M1205.43 148.56H1209.43V169H1204.17L1195.85 155.728L1194.73 153.768V169H1190.73V148.56H1195.99L1204.28 161.916L1205.43 163.96V148.56ZM1228.7 169V160.432H1218.12V169H1213.92V148.56H1218.12V156.82H1228.7V148.56H1232.9V169H1228.7Z" fill="white"/>
        </a>
    </g>
    <g class="state-box" id="desktop-ri">
        <a href="#" class="state-link" data-selected-state="RI" title="Select Rhode Island">
            <path class="state-outline" d="M1153.81 222C1153.81 219.791 1155.6 218 1157.81 218H1265.81C1268.02 218 1269.81 219.791 1269.81 222V314H1153.81V222Z" stroke="url(#DesktopBorderGradient)" stroke-width="4"/>
            <path class="state-abbreviation" d="M1212.61 277C1211.94 276.272 1211.69 274.172 1211.49 272.492C1211.24 270.252 1210.6 269.524 1208.38 269.524H1203.06V277H1198.86V256.56H1209.87C1214.32 256.56 1216.59 258.772 1216.59 262.44C1216.59 266.528 1213.82 267.592 1211.72 267.732V267.816C1213.65 267.984 1215.19 268.74 1215.72 271.792C1216.17 274.34 1216.48 276.104 1217.46 277H1212.61ZM1203.06 265.968H1208.24C1209.81 265.968 1212.33 265.632 1212.33 263.028C1212.33 261.292 1211.3 260.172 1208.89 260.172H1203.06V265.968ZM1220.57 277V256.56H1224.77V277H1220.57Z" fill="white"/>
        </a>
    </g>
    <g class="state-box" id="desktop-ct">
        <a href="#" class="state-link" data-selected-state="CT" title="Select Connecticut">
            <path class="state-outline" d="M1153.94 330C1153.94 327.791 1155.73 326 1157.94 326H1265.94C1268.15 326 1269.94 327.791 1269.94 330V422H1153.94V330Z" stroke="url(#DesktopBorderGradient)" stroke-width="4"/>
            <path class="state-abbreviation" d="M1212.95 376.292C1212.17 381.528 1208.67 385.336 1202.28 385.336C1195.73 385.336 1191.98 380.968 1191.98 375.06C1191.98 368.48 1196.12 364.224 1202.56 364.224C1208.16 364.224 1211.61 367.556 1212.59 372.12L1208.67 373.1C1207.88 369.852 1205.75 367.864 1202.62 367.864C1198.7 367.864 1196.32 370.552 1196.32 374.892C1196.32 379.148 1198.56 381.696 1202.51 381.696C1206.06 381.696 1208.41 379.4 1208.92 375.788L1212.95 376.292ZM1220.98 385V368.172H1213.45V364.56H1232.71V368.172H1225.18V385H1220.98Z" fill="white"/>
        </a>
    </g>
    <g class="state-box" id="desktop-pr">
        <a href="#" class="state-link" data-selected-state="PR" title="Select Puerto Rico">
            <path class="state-outline" d="M1153.94 870C1153.94 867.791 1155.73 866 1157.94 866H1265.94C1268.15 866 1269.94 867.791 1269.94 870V962H1153.94V870Z" stroke="url(#DesktopBorderGradient)" stroke-width="4"/>
            <path class="state-abbreviation" d="M1193.07 925V904.56H1202.62C1207.49 904.56 1210.6 906.688 1210.6 911.14C1210.6 915.564 1207.52 917.944 1202.45 917.944H1197.27V925H1193.07ZM1197.27 914.332H1202.2C1204.88 914.332 1206.37 913.52 1206.37 911.308C1206.37 908.984 1204.86 908.172 1202.34 908.172H1197.27V914.332ZM1227.32 925C1226.65 924.272 1226.4 922.172 1226.2 920.492C1225.95 918.252 1225.31 917.524 1223.1 917.524H1217.78V925H1213.58V904.56H1224.58C1229.03 904.56 1231.3 906.772 1231.3 910.44C1231.3 914.528 1228.53 915.592 1226.43 915.732V915.816C1228.36 915.984 1229.9 916.74 1230.43 919.792C1230.88 922.34 1231.19 924.104 1232.17 925H1227.32ZM1217.78 913.968H1222.96C1224.52 913.968 1227.04 913.632 1227.04 911.028C1227.04 909.292 1226.01 908.172 1223.6 908.172H1217.78V913.968Z" fill="white"/>
        </a>
    </g>

    <defs>
        <linearGradient id="DesktopBorderGradient" x1="0" x2="0" y1="0" y2="1">
            <stop offset="5%" stop-color="#FF6D00" />
            <stop offset="95%" stop-color="#6300C7" stop-opacity="0" />
        </linearGradient>
        <linearGradient id="DesktopBorderHoverGradient" x1="0" x2="0" y1="0" y2="1">
            <stop offset="5%" stop-color="#FFFFFF" />
            <stop offset="95%" stop-color="#6300C7" stop-opacity="0" />
        </linearGradient>
        <linearGradient id="DesktopHoverGradient" x1="0" x2="0" y1="0" y2="1">
            <stop offset="5%" stop-color="#6300C7" />
            <stop offset="95%" stop-color="#6300C7" stop-opacity="0" />
        </linearGradient>
    </defs>
</svg>
