<svg width="85" height="85" viewBox="0 0 85 85" fill="none" xmlns="http://www.w3.org/2000/svg">
<path d="M24.585 81.1465V3.14648L21.585 0.146484H3.58496L0.584961 3.14648V81.1465L3.58496 84.1465H21.585L24.585 81.1465ZM18.585 78.1465H6.58496V6.14648H18.585V78.1465Z" fill="#191326"/>
<path d="M30.8218 21.1465V81.1465L33.8218 84.1465H51.8218L54.8218 81.1465V21.1465L51.8218 18.1465H33.8218L30.8218 21.1465ZM36.8218 24.1465H48.8218V78.1465H36.8218V24.1465Z" fill="#191326"/>
<path d="M63.2188 36.1465L60.2188 39.1465V81.1465L63.2188 84.1465H81.2188L84.2188 81.1465V39.1465L81.2188 36.1465H63.2188ZM78.2188 78.1465H66.2188V42.1465H78.2188V78.1465Z" fill="#191326"/>
</svg>
