<svg width="84" height="84" viewBox="0 0 84 84" fill="none" xmlns="http://www.w3.org/2000/svg">
<path d="M40.5779 84C58.1969 84 70.359 77.163 76.725 63.678C81.789 52.95 81.7889 40.614 81.7889 33.912V10.356C81.7889 4.647 77.142 0 71.43 0C68.553 0 65.9519 1.182 64.0739 3.081C62.1959 1.182 59.5919 0 56.7149 0C53.8379 0 51.2369 1.182 49.3589 3.081C47.4809 1.182 44.8769 0 41.9999 0C39.1229 0 36.519 1.182 34.641 3.081C32.763 1.182 30.1589 0 27.2849 0C24.4109 0 21.8039 1.182 19.9259 3.081C18.0479 1.182 15.4439 0 12.5699 0C6.85795 0 2.21094 4.647 2.21094 10.356V51.564C2.21094 72.177 16.1969 84 40.5839 84H40.5779ZM56.712 6C59.115 6 61.071 7.953 61.071 10.356V25.566C61.071 27.969 59.115 29.922 56.712 29.922C54.309 29.922 52.356 27.969 52.356 25.566V10.356C52.356 7.953 54.309 6 56.712 6ZM41.997 6C44.4 6 46.356 7.953 46.356 10.356V25.566C46.356 27.969 44.4 29.922 41.997 29.922C39.594 29.922 37.638 27.969 37.638 25.566V10.356C37.638 7.953 39.594 6 41.997 6ZM27.282 6C29.685 6 31.638 7.953 31.638 10.356V25.566C31.638 27.969 29.685 29.922 27.282 29.922C24.879 29.922 22.923 27.969 22.923 25.566V10.356C22.923 7.953 24.879 6 27.282 6ZM8.20796 10.356C8.20796 7.953 10.164 6 12.567 6C14.97 6 16.923 7.953 16.923 10.356V25.566C16.923 27.969 14.97 29.922 12.567 29.922C10.164 29.922 8.20796 27.969 8.20796 25.566V10.356ZM8.20796 34.929C9.53696 35.55 11.004 35.925 12.567 35.925C15.444 35.925 18.045 34.743 19.923 32.844C21.801 34.743 24.405 35.925 27.282 35.925C30.159 35.925 32.76 34.743 34.638 32.844C35.745 33.963 37.122 34.794 38.64 35.319C29.568 41.244 23.5469 51.471 23.5469 63.093H29.5469C29.5469 48.114 41.733 35.925 56.712 35.925C62.424 35.925 67.071 31.278 67.071 25.569V10.359C67.071 7.956 69.024 6.003 71.427 6.003C73.83 6.003 75.786 7.956 75.786 10.359V33.99C75.786 40.149 75.786 51.606 71.298 61.119C65.934 72.48 55.8839 78.003 40.5779 78.003C19.3979 78.003 8.20494 68.862 8.20494 51.567V34.932L8.20796 34.929Z" fill="#191326"/>
</svg>
