<svg width="84" height="84" viewBox="0 0 84 84" fill="none" xmlns="http://www.w3.org/2000/svg">
<path d="M42.4023 6.14648C32.4753 6.14648 24.4023 14.2195 24.4023 24.1465C24.4023 34.0735 32.4753 42.1465 42.4023 42.1465C52.3293 42.1465 60.4023 34.0735 60.4023 24.1465C60.4023 14.2195 52.3293 6.14648 42.4023 6.14648ZM42.4023 36.1465C35.7843 36.1465 30.4023 30.7645 30.4023 24.1465C30.4023 17.5285 35.7843 12.1465 42.4023 12.1465C49.0203 12.1465 54.4023 17.5285 54.4023 24.1465C54.4023 30.7645 49.0203 36.1465 42.4023 36.1465Z" fill="#191326"/>
<path d="M1.20312 60.9507C1.20312 70.8777 9.27612 78.9507 19.2031 78.9507C29.1301 78.9507 37.2031 70.8777 37.2031 60.9507C37.2031 51.0237 29.1301 42.9507 19.2031 42.9507C9.27612 42.9507 1.20312 51.0237 1.20312 60.9507ZM31.2031 60.9507C31.2031 67.5687 25.8211 72.9507 19.2031 72.9507C12.5851 72.9507 7.20312 67.5687 7.20312 60.9507C7.20312 54.3327 12.5851 48.9507 19.2031 48.9507C25.8211 48.9507 31.2031 54.3327 31.2031 60.9507Z" fill="#191326"/>
<path d="M47.5981 60.9507C47.5981 70.8777 55.6711 78.9507 65.5981 78.9507C75.5251 78.9507 83.5981 70.8777 83.5981 60.9507C83.5981 51.0237 75.5251 42.9507 65.5981 42.9507C55.6711 42.9507 47.5981 51.0237 47.5981 60.9507ZM65.5981 48.9507C72.2161 48.9507 77.5981 54.3327 77.5981 60.9507C77.5981 67.5687 72.2161 72.9507 65.5981 72.9507C58.9801 72.9507 53.5981 67.5687 53.5981 60.9507C53.5981 54.3327 58.9801 48.9507 65.5981 48.9507Z" fill="#191326"/>
</svg>
