<svg width="85" height="85" viewBox="0 0 85 85" fill="none" xmlns="http://www.w3.org/2000/svg">
<path d="M3.40234 0.950684L0.402344 3.95068V33.9507L3.40234 36.9507H81.4023L84.4023 33.9507V3.95068L81.4023 0.950684H3.40234ZM78.4023 30.9507H6.40234V6.95068H78.4023V30.9507Z" fill="#191326"/>
<path d="M36.8042 81.1465V51.1465L33.8042 48.1465H3.8042L0.804199 51.1465V81.1465L3.8042 84.1465H33.8042L36.8042 81.1465ZM30.8042 78.1465H6.8042V54.1465H30.8042V78.1465Z" fill="#191326"/>
<path d="M51.0005 48.1465L48.0005 51.1465V81.1465L51.0005 84.1465H81.0005L84.0005 81.1465V51.1465L81.0005 48.1465H51.0005ZM78.0005 78.1465H54.0005V54.1465H78.0005V78.1465Z" fill="#191326"/>
</svg>
