<svg viewBox="0 0 100 130" xmlns="http://www.w3.org/2000/svg"><g clip-rule="evenodd" fill-rule="evenodd"><path d="m4 0h92c2.2 0 4 1.8 4 4v122c0 2.2-1.8 4-4 4h-92c-2.2 0-4-1.8-4-4v-122c0-2.2 1.8-4 4-4z" fill="#fff"/><path d="m96 102v20c0 2.2-1.8 4-4 4h-20z" fill="#9595a9" fill-opacity=".15"/><path d="m49 116c1.1 0 2 .9 2 2s-.9 2-2 2h-36c-1.1 0-2-.9-2-2s.9-2 2-2zm10-12c1.1 0 2 .9 2 2s-.9 2-2 2h-46c-1.1 0-2-.9-2-2s.9-2 2-2zm-10-12c1.1 0 2 .9 2 2s-.9 2-2 2h-36c-1.1 0-2-.9-2-2s.9-2 2-2zm20-12c1.1 0 2 .9 2 2s-.9 2-2 2h-56c-1.1 0-2-.9-2-2s.9-2 2-2zm18-46c2.2 0 4 1.8 4 4v25c0 2.2-1.8 4-4 4h-24c-2.2 0-4-1.8-4-4v-25c0-2.2 1.8-4 4-4zm-38 12c1.1 0 2 .9 2 2s-.9 2-2 2h-36c-1.1 0-2-.9-2-2s.9-2 2-2zm0-12c1.1 0 2 .9 2 2s-.9 2-2 2h-36c-1.1 0-2-.9-2-2s.9-2 2-2zm40-12c1.1 0 2 .9 2 2s-.9 2-2 2h-76c-1.1 0-2-.9-2-2s.9-2 2-2zm0-12c1.1 0 2 .9 2 2s-.9 2-2 2h-76c-1.1 0-2-.9-2-2s.9-2 2-2z" fill="#e6e8ea"/></g></svg>