<svg width="24" height="36" viewBox="0 0 24 36" fill="none" xmlns="http://www.w3.org/2000/svg">
<path d="M10.4239 15.6852C11.1937 14.3519 13.1182 14.3519 13.888 15.6852L20.3056 26.8008C21.0754 28.1341 20.1131 29.8008 18.5735 29.8008H5.73844C4.19884 29.8008 3.23658 28.1341 4.00638 26.8008L10.4239 15.6852Z" fill="#499FD1"/>
<path d="M13.8878 20.4727C13.118 21.806 11.1935 21.806 10.4237 20.4727L4.00612 9.35713C3.23632 8.02379 4.19857 6.35713 5.73817 6.35713L18.5733 6.35713C20.1129 6.35713 21.0751 8.02379 20.3053 9.35713L13.8878 20.4727Z" fill="#499FD1"/>
<path d="M11.2897 19.2634C11.6746 18.5968 12.6368 18.5968 13.0217 19.2634L17.0983 26.3242C17.4832 26.9909 17.0021 27.8242 16.2323 27.8242H8.07919C7.30939 27.8242 6.82826 26.9909 7.21316 26.3242L11.2897 19.2634Z" fill="white"/>
<path d="M13.0217 18.4704C12.6368 19.1371 11.6746 19.1371 11.2897 18.4704L9.86718 16.0065C9.48228 15.3399 9.96341 14.5065 10.7332 14.5065L13.5782 14.5065C14.348 14.5065 14.8291 15.3399 14.4442 16.0065L13.0217 18.4704Z" fill="white"/>
<path d="M10.9254 19.875C11.4879 19.1875 11.1598 18.2135 10.9254 17.8125H13.3785C12.891 18.6125 13.1754 19.5208 13.3785 19.875H10.9254Z" fill="white"/>
</svg>
